G04 (Genere par PCBnew (20080825c)) le 17/12/2010-15:33:38*
G01*
G70*
G90*
%MOIN*%
G04 Gerber Fmt 3.4, Leading zero omitted, Abs format*
%FSLAX34Y34*%
G04 APERTURE LIST*
%ADD10C,0.015000*%
%ADD11R,0.060000X0.060000*%
%ADD12C,0.060000*%
%ADD13C,0.035400*%
%ADD14C,0.027000*%
%ADD15C,0.036000*%
%ADD16C,0.008000*%
%ADD17C,0.026000*%
%ADD18C,0.010000*%
%ADD19R,0.137800X0.063000*%
%ADD20R,0.181100X0.039400*%
%ADD21R,0.010000X0.060000*%
%ADD22R,0.060000X0.010000*%
%ADD23R,0.027600X0.035400*%
%ADD24R,0.035400X0.027600*%
%ADD25R,0.025000X0.045000*%
%ADD26R,0.059100X0.047200*%
%ADD27R,0.074800X0.043300*%
%ADD28R,0.039400X0.055100*%
%ADD29R,0.039400X0.039400*%
%ADD30R,0.098400X0.039400*%
%ADD31R,0.033500X0.011000*%
%ADD32R,0.039400X0.118100*%
%ADD33R,0.098400X0.019700*%
%ADD34R,0.098400X0.078700*%
%ADD35R,0.094500X0.078700*%
%ADD36R,0.068900X0.027600*%
%ADD37R,0.059100X0.051200*%
%ADD38R,0.059100X0.059100*%
%ADD39R,0.059100X0.031500*%
%ADD40R,0.039400X0.059100*%
%ADD41R,0.061000X0.039400*%
%ADD42R,0.055100X0.031500*%
%ADD43R,0.019700X0.047200*%
%ADD44C,0.016000*%
%ADD45C,0.032000*%
%ADD46C,0.006000*%
%ADD47C,0.012000*%
%ADD48C,0.005000*%
%ADD49C,0.003900*%
%ADD50C,0.001000*%
%ADD51R,0.080000X0.080000*%
%ADD52C,0.080000*%
%ADD53C,0.055400*%
%ADD54R,0.157800X0.083000*%
%ADD55R,0.201100X0.059400*%
%ADD56R,0.030000X0.080000*%
%ADD57R,0.080000X0.030000*%
%ADD58R,0.047600X0.055400*%
%ADD59R,0.055400X0.047600*%
%ADD60R,0.045000X0.065000*%
%ADD61R,0.079100X0.067200*%
%ADD62R,0.094800X0.063300*%
%ADD63R,0.059400X0.075100*%
%ADD64R,0.059400X0.059400*%
%ADD65R,0.118400X0.059400*%
%ADD66R,0.053500X0.031000*%
%ADD67R,0.059400X0.138100*%
%ADD68R,0.118400X0.039700*%
%ADD69R,0.118400X0.098700*%
%ADD70R,0.114500X0.098700*%
%ADD71R,0.088900X0.047600*%
%ADD72R,0.079100X0.071200*%
%ADD73R,0.079100X0.079100*%
%ADD74R,0.079100X0.051500*%
%ADD75R,0.059400X0.079100*%
%ADD76R,0.081000X0.059400*%
%ADD77R,0.075100X0.051500*%
%ADD78R,0.039700X0.067200*%
G04 APERTURE END LIST*
G54D10*
X49000Y-31000D02*
X11000Y-31000D01*
X11000Y-10000D02*
X49000Y-10000D01*
X50000Y-11000D02*
X50000Y-30000D01*
X10000Y-11000D02*
X10000Y-30000D01*
X10000Y-30000D02*
X10022Y-30208D01*
X10022Y-30208D02*
X10086Y-30407D01*
X10086Y-30407D02*
X10191Y-30588D01*
X10191Y-30588D02*
X10331Y-30743D01*
X10331Y-30743D02*
X10500Y-30866D01*
X10500Y-30866D02*
X10691Y-30951D01*
X10691Y-30951D02*
X10895Y-30995D01*
X10895Y-30995D02*
X11000Y-31000D01*
X49000Y-31000D02*
X49208Y-30978D01*
X49208Y-30978D02*
X49407Y-30914D01*
X49407Y-30914D02*
X49588Y-30809D01*
X49588Y-30809D02*
X49743Y-30669D01*
X49743Y-30669D02*
X49866Y-30500D01*
X49866Y-30500D02*
X49951Y-30309D01*
X49951Y-30309D02*
X49995Y-30105D01*
X49995Y-30105D02*
X50000Y-30000D01*
X50000Y-11000D02*
X49978Y-10792D01*
X49978Y-10792D02*
X49914Y-10593D01*
X49914Y-10593D02*
X49809Y-10412D01*
X49809Y-10412D02*
X49669Y-10257D01*
X49669Y-10257D02*
X49500Y-10134D01*
X49500Y-10134D02*
X49309Y-10049D01*
X49309Y-10049D02*
X49105Y-10005D01*
X49105Y-10005D02*
X49000Y-10000D01*
X11000Y-10000D02*
X10792Y-10022D01*
X10792Y-10022D02*
X10593Y-10086D01*
X10593Y-10086D02*
X10412Y-10191D01*
X10412Y-10191D02*
X10257Y-10331D01*
X10257Y-10331D02*
X10134Y-10500D01*
X10134Y-10500D02*
X10049Y-10691D01*
X10049Y-10691D02*
X10005Y-10895D01*
X10005Y-10895D02*
X10000Y-11000D01*
G54D51*
X14000Y-11000D03*
G54D52*
X13000Y-11000D03*
G54D51*
X20000Y-24000D03*
G54D52*
X19000Y-24000D03*
X20000Y-23000D03*
X19000Y-23000D03*
X20000Y-22000D03*
X19000Y-22000D03*
X20000Y-21000D03*
X19000Y-21000D03*
G54D51*
X22000Y-18000D03*
G54D52*
X22000Y-17000D03*
X22000Y-16000D03*
X22000Y-15000D03*
X22000Y-14000D03*
X22000Y-13000D03*
G54D54*
X11109Y-17239D03*
G54D55*
X13157Y-16294D03*
G54D54*
X11109Y-14561D03*
G54D55*
X13157Y-15506D03*
G54D56*
X24755Y-24825D03*
X24955Y-24825D03*
X25150Y-24825D03*
X25345Y-24825D03*
X25545Y-24825D03*
X25740Y-24825D03*
X25935Y-24825D03*
X26135Y-24825D03*
X26330Y-24825D03*
X26525Y-24825D03*
X26725Y-24825D03*
X26920Y-24825D03*
X27115Y-24825D03*
X27315Y-24825D03*
X27510Y-24825D03*
X27705Y-24825D03*
X27905Y-24825D03*
X28100Y-24825D03*
X28300Y-24825D03*
X28495Y-24825D03*
X28695Y-24825D03*
X28890Y-24825D03*
X29085Y-24825D03*
X29285Y-24825D03*
X29480Y-24825D03*
X29675Y-24825D03*
X29875Y-24825D03*
X30070Y-24825D03*
X30265Y-24825D03*
X30465Y-24825D03*
X30660Y-24825D03*
X30855Y-24825D03*
X31055Y-24825D03*
X31250Y-24825D03*
X31445Y-24825D03*
X31645Y-24825D03*
G54D57*
X32525Y-18235D03*
X32525Y-18040D03*
X32525Y-17845D03*
X32525Y-17645D03*
X32525Y-17450D03*
X32525Y-17255D03*
X32525Y-17055D03*
X23875Y-18040D03*
X23875Y-18235D03*
X23875Y-18435D03*
X23875Y-18630D03*
X23875Y-18825D03*
X23875Y-19025D03*
X23875Y-19220D03*
X23875Y-19415D03*
X23875Y-19615D03*
X23875Y-19810D03*
X23875Y-20005D03*
X23875Y-20205D03*
X23875Y-20400D03*
X23875Y-20600D03*
X23875Y-20795D03*
X23875Y-20995D03*
X23875Y-21190D03*
X23875Y-21385D03*
X23875Y-21585D03*
X23875Y-21780D03*
X23875Y-21975D03*
X23875Y-22175D03*
X23875Y-22370D03*
X23875Y-22565D03*
X23875Y-22765D03*
X23875Y-22960D03*
X23875Y-23155D03*
X23875Y-23355D03*
X23875Y-23550D03*
X23875Y-23745D03*
X23875Y-23945D03*
X32525Y-23945D03*
X32525Y-23745D03*
X32525Y-23550D03*
X32525Y-23355D03*
X32525Y-23155D03*
X32525Y-22960D03*
X32525Y-22765D03*
X32525Y-22565D03*
X32525Y-22370D03*
X32525Y-22175D03*
X32525Y-21975D03*
X32525Y-21780D03*
X32525Y-21585D03*
X32525Y-21385D03*
X32525Y-21190D03*
X32525Y-20995D03*
X32525Y-20795D03*
X32525Y-20600D03*
X32525Y-20400D03*
X32525Y-20205D03*
X32525Y-20005D03*
X32525Y-19810D03*
X32525Y-19615D03*
X32525Y-19415D03*
X32525Y-19220D03*
X32525Y-19025D03*
X32525Y-18825D03*
X32525Y-18630D03*
X32525Y-18435D03*
G54D56*
X30660Y-16175D03*
X30465Y-16175D03*
X30265Y-16175D03*
X30070Y-16175D03*
X29875Y-16175D03*
X29675Y-16175D03*
X29480Y-16175D03*
X29285Y-16175D03*
X29085Y-16175D03*
X28890Y-16175D03*
X28695Y-16175D03*
X28495Y-16175D03*
X28300Y-16175D03*
X28100Y-16175D03*
X27905Y-16175D03*
X27705Y-16175D03*
X27510Y-16175D03*
X27315Y-16175D03*
X27115Y-16175D03*
X26920Y-16175D03*
X26725Y-16175D03*
X26525Y-16175D03*
X26330Y-16175D03*
X26135Y-16175D03*
X25935Y-16175D03*
X25740Y-16175D03*
X25545Y-16175D03*
X25345Y-16175D03*
X25150Y-16175D03*
X24955Y-16175D03*
X24755Y-16175D03*
X31645Y-16175D03*
X31445Y-16175D03*
X31250Y-16175D03*
X31055Y-16175D03*
X30855Y-16175D03*
G54D57*
X23875Y-17055D03*
X23875Y-17255D03*
X23875Y-17450D03*
X23875Y-17645D03*
X23875Y-17845D03*
G54D58*
X38906Y-15760D03*
X38394Y-15760D03*
X38394Y-14560D03*
X38906Y-14560D03*
X28586Y-25940D03*
X28074Y-25940D03*
G54D59*
X30330Y-26994D03*
X30330Y-27506D03*
G54D58*
X40166Y-17730D03*
X39654Y-17730D03*
X39674Y-23350D03*
X40186Y-23350D03*
X35424Y-22910D03*
X35936Y-22910D03*
G54D59*
X33300Y-23644D03*
X33300Y-24156D03*
X33410Y-20854D03*
X33410Y-21366D03*
X34090Y-18884D03*
X34090Y-19396D03*
X32600Y-16706D03*
X32600Y-16194D03*
G54D58*
X27444Y-15250D03*
X27956Y-15250D03*
G54D59*
X24304Y-16176D03*
X24304Y-15664D03*
G54D58*
X29244Y-15300D03*
X29756Y-15300D03*
G54D59*
X22730Y-19646D03*
X22730Y-19134D03*
X22920Y-21766D03*
X22920Y-21254D03*
X23150Y-24106D03*
X23150Y-23594D03*
G54D58*
X31056Y-25690D03*
X30544Y-25690D03*
X15756Y-18100D03*
X15244Y-18100D03*
X15756Y-19900D03*
X15244Y-19900D03*
X15756Y-18700D03*
X15244Y-18700D03*
X15756Y-19300D03*
X15244Y-19300D03*
X15756Y-22900D03*
X15244Y-22900D03*
X15244Y-22300D03*
X15756Y-22300D03*
X15756Y-21100D03*
X15244Y-21100D03*
X15756Y-20500D03*
X15244Y-20500D03*
X15244Y-21700D03*
X15756Y-21700D03*
X15756Y-15130D03*
X15244Y-15130D03*
X15756Y-15730D03*
X15244Y-15730D03*
X11704Y-12360D03*
X12216Y-12360D03*
X15244Y-13930D03*
X15756Y-13930D03*
X15244Y-14530D03*
X15756Y-14530D03*
X15756Y-16330D03*
X15244Y-16330D03*
X10634Y-12360D03*
X11146Y-12360D03*
G54D60*
X20250Y-14650D03*
X19650Y-14650D03*
X20250Y-13950D03*
X19650Y-13950D03*
G54D61*
X13137Y-12156D03*
X14279Y-12156D03*
G54D62*
X27952Y-27553D03*
X29408Y-27553D03*
X29408Y-26647D03*
X27952Y-26647D03*
G54D63*
X17100Y-21967D03*
X17474Y-22833D03*
X16725Y-22833D03*
X17100Y-21133D03*
X16726Y-20267D03*
X17475Y-20267D03*
X17300Y-26767D03*
X17674Y-27633D03*
X16925Y-27633D03*
X32460Y-26667D03*
X32834Y-27533D03*
X32085Y-27533D03*
G54D51*
X46000Y-30000D03*
G54D52*
X38000Y-30000D03*
X45000Y-30000D03*
X37000Y-30000D03*
X44000Y-30000D03*
X36000Y-30000D03*
X43000Y-30000D03*
X35000Y-30000D03*
X42000Y-30000D03*
X34000Y-30000D03*
X41000Y-30000D03*
X33000Y-30000D03*
X40000Y-30000D03*
X32000Y-30000D03*
X39000Y-30000D03*
X31000Y-30000D03*
X30000Y-30000D03*
X29000Y-30000D03*
X28000Y-30000D03*
X27000Y-30000D03*
X26000Y-30000D03*
X25000Y-30000D03*
X24000Y-30000D03*
X23000Y-30000D03*
X22000Y-30000D03*
X21000Y-30000D03*
X20000Y-30000D03*
X19000Y-30000D03*
X18000Y-30000D03*
X17000Y-30000D03*
X16000Y-30000D03*
X15000Y-30000D03*
G54D51*
X49000Y-27982D03*
G54D52*
X48000Y-27982D03*
X49000Y-26982D03*
X48000Y-26982D03*
X49000Y-25982D03*
X48000Y-25982D03*
X49000Y-24982D03*
X48000Y-24982D03*
X49000Y-23982D03*
X48000Y-23982D03*
X49000Y-22982D03*
X48000Y-22982D03*
X49000Y-21982D03*
X48000Y-21982D03*
X49000Y-20982D03*
X48000Y-20982D03*
X49000Y-19982D03*
X48000Y-19982D03*
X49000Y-18982D03*
X48000Y-18982D03*
X49000Y-17982D03*
X48000Y-17982D03*
X49000Y-16982D03*
X48000Y-16982D03*
X49000Y-15982D03*
X48000Y-15982D03*
X49000Y-14982D03*
X48000Y-14982D03*
X49000Y-13982D03*
X48000Y-13982D03*
X49000Y-12982D03*
X48000Y-12982D03*
G54D51*
X47050Y-28000D03*
G54D52*
X47050Y-20000D03*
X47050Y-27000D03*
X47050Y-19000D03*
X47050Y-26000D03*
X47050Y-18000D03*
X47050Y-25000D03*
X47050Y-17000D03*
X47050Y-24000D03*
X47050Y-16000D03*
X47050Y-23000D03*
X47050Y-15000D03*
X47050Y-22000D03*
X47050Y-14000D03*
X47050Y-21000D03*
X47050Y-13000D03*
G54D51*
X46000Y-11000D03*
G54D52*
X38000Y-11000D03*
X45000Y-11000D03*
X37000Y-11000D03*
X44000Y-11000D03*
X36000Y-11000D03*
X43000Y-11000D03*
X35000Y-11000D03*
X42000Y-11000D03*
X34000Y-11000D03*
X41000Y-11000D03*
X33000Y-11000D03*
X40000Y-11000D03*
X32000Y-11000D03*
X39000Y-11000D03*
X31000Y-11000D03*
X30000Y-11000D03*
X29000Y-11000D03*
X28000Y-11000D03*
X27000Y-11000D03*
X26000Y-11000D03*
X25000Y-11000D03*
X24000Y-11000D03*
X23000Y-11000D03*
X22000Y-11000D03*
X21000Y-11000D03*
X20000Y-11000D03*
X19000Y-11000D03*
X18000Y-11000D03*
X17000Y-11000D03*
X16000Y-11000D03*
X15000Y-11000D03*
G54D58*
X15244Y-13330D03*
X15756Y-13330D03*
G54D60*
X16980Y-13340D03*
X17580Y-13340D03*
G54D64*
X37577Y-13695D03*
X37577Y-14325D03*
X35923Y-14325D03*
X35923Y-13695D03*
X37577Y-15345D03*
X37577Y-15975D03*
X35923Y-15975D03*
X35923Y-15345D03*
G54D65*
X20059Y-27600D03*
X18741Y-27600D03*
X17759Y-25450D03*
X16441Y-25450D03*
X35159Y-27500D03*
X33841Y-27500D03*
G54D66*
X10839Y-13002D03*
X10839Y-13199D03*
X10839Y-13396D03*
X10839Y-13593D03*
X10839Y-13790D03*
X12001Y-13002D03*
X12001Y-13199D03*
X12001Y-13396D03*
X12001Y-13593D03*
X12001Y-13790D03*
G54D67*
X11420Y-13396D03*
G54D58*
X27516Y-25710D03*
X27004Y-25710D03*
G54D68*
X12840Y-19650D03*
G54D69*
X10675Y-22052D03*
X10675Y-18508D03*
X12840Y-18508D03*
G54D70*
X12840Y-22052D03*
G54D68*
X12840Y-19965D03*
X12840Y-20280D03*
X12840Y-20595D03*
X12840Y-20910D03*
G54D53*
X11856Y-19414D03*
X11856Y-21146D03*
G54D71*
X10504Y-26170D03*
X10504Y-25737D03*
X10504Y-25304D03*
X10504Y-24871D03*
X10504Y-26603D03*
X10504Y-27036D03*
X10504Y-24438D03*
X10504Y-27469D03*
G54D72*
X10544Y-23957D03*
G54D73*
X10544Y-28434D03*
G54D74*
X13545Y-23847D03*
G54D75*
X14136Y-23985D03*
G54D76*
X14705Y-28375D03*
G54D77*
X13752Y-28572D03*
G54D78*
X36583Y-22680D03*
X36898Y-22680D03*
X37213Y-22680D03*
X37528Y-22680D03*
X37843Y-22680D03*
X38158Y-22680D03*
X38473Y-22680D03*
X38788Y-22680D03*
X39103Y-22680D03*
X39418Y-22680D03*
X39733Y-22680D03*
X40050Y-22680D03*
X40370Y-22680D03*
X40677Y-22680D03*
X40992Y-22680D03*
X41307Y-22680D03*
X41622Y-22680D03*
X41937Y-22680D03*
X42252Y-22680D03*
X42567Y-22680D03*
X42882Y-22680D03*
X43197Y-22680D03*
X36583Y-18349D03*
X36898Y-18350D03*
X37213Y-18350D03*
X37528Y-18350D03*
X37843Y-18350D03*
X38158Y-18350D03*
X38473Y-18350D03*
X38788Y-18350D03*
X39100Y-18350D03*
X39420Y-18350D03*
X39733Y-18350D03*
X40047Y-18350D03*
X40362Y-18350D03*
X40677Y-18350D03*
X40992Y-18350D03*
X41307Y-18350D03*
X41622Y-18350D03*
X41937Y-18350D03*
X42252Y-18350D03*
X42567Y-18350D03*
X42882Y-18350D03*
X43197Y-18350D03*
G54D61*
X17839Y-15600D03*
X18981Y-15600D03*
X17829Y-16370D03*
X18971Y-16370D03*
G54D58*
X15756Y-17500D03*
X15244Y-17500D03*
X15244Y-16920D03*
X15756Y-16920D03*
M02*
