G04 (Genere par PCBnew (20080825c)) le 17/12/2010-15:33:38*
G01*
G70*
G90*
%MOIN*%
G04 Gerber Fmt 3.4, Leading zero omitted, Abs format*
%FSLAX34Y34*%
G04 APERTURE LIST*
%ADD10C,0.015000*%
%ADD11R,0.060000X0.060000*%
%ADD12C,0.060000*%
%ADD13C,0.035400*%
%ADD14C,0.027000*%
%ADD15C,0.036000*%
%ADD16C,0.008000*%
%ADD17C,0.026000*%
G04 APERTURE END LIST*
G54D10*
X49000Y-31000D02*
X11000Y-31000D01*
X11000Y-10000D02*
X49000Y-10000D01*
X50000Y-11000D02*
X50000Y-30000D01*
X10000Y-11000D02*
X10000Y-30000D01*
X10000Y-30000D02*
X10022Y-30208D01*
X10022Y-30208D02*
X10086Y-30407D01*
X10086Y-30407D02*
X10191Y-30588D01*
X10191Y-30588D02*
X10331Y-30743D01*
X10331Y-30743D02*
X10500Y-30866D01*
X10500Y-30866D02*
X10691Y-30951D01*
X10691Y-30951D02*
X10895Y-30995D01*
X10895Y-30995D02*
X11000Y-31000D01*
X49000Y-31000D02*
X49208Y-30978D01*
X49208Y-30978D02*
X49407Y-30914D01*
X49407Y-30914D02*
X49588Y-30809D01*
X49588Y-30809D02*
X49743Y-30669D01*
X49743Y-30669D02*
X49866Y-30500D01*
X49866Y-30500D02*
X49951Y-30309D01*
X49951Y-30309D02*
X49995Y-30105D01*
X49995Y-30105D02*
X50000Y-30000D01*
X50000Y-11000D02*
X49978Y-10792D01*
X49978Y-10792D02*
X49914Y-10593D01*
X49914Y-10593D02*
X49809Y-10412D01*
X49809Y-10412D02*
X49669Y-10257D01*
X49669Y-10257D02*
X49500Y-10134D01*
X49500Y-10134D02*
X49309Y-10049D01*
X49309Y-10049D02*
X49105Y-10005D01*
X49105Y-10005D02*
X49000Y-10000D01*
X11000Y-10000D02*
X10792Y-10022D01*
X10792Y-10022D02*
X10593Y-10086D01*
X10593Y-10086D02*
X10412Y-10191D01*
X10412Y-10191D02*
X10257Y-10331D01*
X10257Y-10331D02*
X10134Y-10500D01*
X10134Y-10500D02*
X10049Y-10691D01*
X10049Y-10691D02*
X10005Y-10895D01*
X10005Y-10895D02*
X10000Y-11000D01*
G54D11*
X14000Y-11000D03*
G54D12*
X13000Y-11000D03*
G54D11*
X20000Y-24000D03*
G54D12*
X19000Y-24000D03*
X20000Y-23000D03*
X19000Y-23000D03*
X20000Y-22000D03*
X19000Y-22000D03*
X20000Y-21000D03*
X19000Y-21000D03*
G54D11*
X22000Y-18000D03*
G54D12*
X22000Y-17000D03*
X22000Y-16000D03*
X22000Y-15000D03*
X22000Y-14000D03*
X22000Y-13000D03*
G54D11*
X46000Y-30000D03*
G54D12*
X38000Y-30000D03*
X45000Y-30000D03*
X37000Y-30000D03*
X44000Y-30000D03*
X36000Y-30000D03*
X43000Y-30000D03*
X35000Y-30000D03*
X42000Y-30000D03*
X34000Y-30000D03*
X41000Y-30000D03*
X33000Y-30000D03*
X40000Y-30000D03*
X32000Y-30000D03*
X39000Y-30000D03*
X31000Y-30000D03*
X30000Y-30000D03*
X29000Y-30000D03*
X28000Y-30000D03*
X27000Y-30000D03*
X26000Y-30000D03*
X25000Y-30000D03*
X24000Y-30000D03*
X23000Y-30000D03*
X22000Y-30000D03*
X21000Y-30000D03*
X20000Y-30000D03*
X19000Y-30000D03*
X18000Y-30000D03*
X17000Y-30000D03*
X16000Y-30000D03*
X15000Y-30000D03*
G54D11*
X49000Y-27982D03*
G54D12*
X48000Y-27982D03*
X49000Y-26982D03*
X48000Y-26982D03*
X49000Y-25982D03*
X48000Y-25982D03*
X49000Y-24982D03*
X48000Y-24982D03*
X49000Y-23982D03*
X48000Y-23982D03*
X49000Y-22982D03*
X48000Y-22982D03*
X49000Y-21982D03*
X48000Y-21982D03*
X49000Y-20982D03*
X48000Y-20982D03*
X49000Y-19982D03*
X48000Y-19982D03*
X49000Y-18982D03*
X48000Y-18982D03*
X49000Y-17982D03*
X48000Y-17982D03*
X49000Y-16982D03*
X48000Y-16982D03*
X49000Y-15982D03*
X48000Y-15982D03*
X49000Y-14982D03*
X48000Y-14982D03*
X49000Y-13982D03*
X48000Y-13982D03*
X49000Y-12982D03*
X48000Y-12982D03*
G54D11*
X47050Y-28000D03*
G54D12*
X47050Y-20000D03*
X47050Y-27000D03*
X47050Y-19000D03*
X47050Y-26000D03*
X47050Y-18000D03*
X47050Y-25000D03*
X47050Y-17000D03*
X47050Y-24000D03*
X47050Y-16000D03*
X47050Y-23000D03*
X47050Y-15000D03*
X47050Y-22000D03*
X47050Y-14000D03*
X47050Y-21000D03*
X47050Y-13000D03*
G54D11*
X46000Y-11000D03*
G54D12*
X38000Y-11000D03*
X45000Y-11000D03*
X37000Y-11000D03*
X44000Y-11000D03*
X36000Y-11000D03*
X43000Y-11000D03*
X35000Y-11000D03*
X42000Y-11000D03*
X34000Y-11000D03*
X41000Y-11000D03*
X33000Y-11000D03*
X40000Y-11000D03*
X32000Y-11000D03*
X39000Y-11000D03*
X31000Y-11000D03*
X30000Y-11000D03*
X29000Y-11000D03*
X28000Y-11000D03*
X27000Y-11000D03*
X26000Y-11000D03*
X25000Y-11000D03*
X24000Y-11000D03*
X23000Y-11000D03*
X22000Y-11000D03*
X21000Y-11000D03*
X20000Y-11000D03*
X19000Y-11000D03*
X18000Y-11000D03*
X17000Y-11000D03*
X16000Y-11000D03*
X15000Y-11000D03*
G54D13*
X11856Y-19414D03*
X11856Y-21146D03*
G54D14*
X40040Y-17220D03*
X34590Y-19450D03*
X34100Y-21190D03*
X40030Y-23870D03*
X22260Y-19260D03*
X18000Y-13340D03*
X14704Y-15984D03*
G54D15*
X16394Y-27643D03*
X20062Y-27013D03*
X18585Y-25459D03*
X13596Y-20912D03*
X12213Y-11930D03*
X13160Y-16821D03*
G54D14*
X23734Y-15656D03*
X22340Y-21540D03*
X22880Y-24570D03*
X14780Y-21100D03*
X14810Y-19900D03*
X14780Y-18100D03*
X17440Y-23440D03*
X11190Y-25300D03*
X27810Y-14780D03*
X38230Y-15120D03*
X27210Y-26580D03*
X26620Y-25710D03*
X30150Y-15310D03*
X33160Y-16190D03*
X30840Y-27310D03*
G54D15*
X35960Y-27500D03*
X32330Y-28150D03*
G54D14*
X30700Y-26120D03*
X34080Y-24280D03*
X22500Y-22560D03*
X33890Y-15850D03*
X33200Y-15560D03*
X29140Y-21480D03*
X26100Y-21400D03*
X20630Y-20850D03*
X22270Y-22260D03*
X35040Y-22760D03*
X40390Y-17080D03*
X39680Y-23860D03*
X34590Y-19090D03*
X33840Y-20930D03*
X22270Y-19650D03*
G54D15*
X18753Y-26957D03*
G54D14*
X20614Y-13946D03*
X16576Y-21350D03*
X23734Y-16052D03*
X22400Y-21930D03*
X14790Y-22300D03*
X27440Y-14800D03*
X11140Y-26170D03*
X23210Y-24550D03*
X37570Y-13200D03*
X39300Y-15760D03*
X27030Y-26300D03*
X29750Y-14790D03*
X32470Y-15850D03*
X25620Y-25410D03*
X33830Y-24040D03*
G54D15*
X14277Y-12689D03*
X16610Y-15110D03*
X12480Y-13960D03*
X23570Y-26910D03*
X20710Y-26520D03*
X10320Y-13980D03*
X13160Y-15010D03*
X17140Y-15600D03*
G54D14*
X16330Y-17500D03*
X24550Y-25430D03*
X45950Y-27110D03*
X24740Y-24200D03*
X45960Y-26740D03*
X24980Y-23910D03*
X45940Y-26400D03*
X25200Y-23640D03*
X25450Y-23360D03*
X45940Y-26030D03*
X23680Y-26000D03*
X23430Y-26250D03*
X23110Y-26510D03*
X37840Y-24190D03*
X26190Y-23370D03*
X37530Y-23920D03*
X26400Y-23100D03*
X37210Y-23620D03*
X26600Y-22830D03*
X36900Y-23360D03*
X26930Y-22720D03*
X36580Y-23110D03*
X27320Y-22630D03*
X43620Y-21690D03*
X27970Y-17380D03*
X36580Y-17500D03*
X28200Y-24250D03*
X28300Y-25390D03*
X28640Y-24250D03*
X28790Y-25420D03*
X29070Y-24250D03*
X29680Y-22080D03*
X28610Y-12990D03*
X30060Y-22070D03*
X28750Y-12660D03*
X28890Y-12360D03*
X30410Y-22080D03*
X30760Y-22080D03*
X29010Y-12040D03*
X31060Y-26060D03*
G54D15*
X33840Y-27020D03*
G54D14*
X31820Y-25340D03*
X31450Y-24110D03*
X31740Y-24280D03*
X40650Y-18890D03*
X35640Y-18960D03*
X40310Y-19040D03*
X35490Y-18660D03*
X35720Y-18400D03*
X39660Y-18890D03*
X35010Y-22220D03*
X39050Y-22020D03*
X36650Y-22020D03*
X27680Y-19430D03*
X36840Y-21740D03*
X39180Y-21710D03*
X34820Y-21950D03*
X27520Y-19140D03*
X11120Y-26590D03*
X45860Y-14960D03*
X37520Y-17810D03*
X27400Y-18820D03*
X41910Y-21960D03*
X26500Y-19070D03*
X33650Y-22030D03*
X26490Y-19980D03*
X29790Y-13690D03*
X27430Y-13690D03*
X25580Y-13690D03*
X23940Y-13690D03*
X21780Y-20520D03*
X45070Y-16070D03*
X44690Y-16040D03*
X21640Y-20840D03*
X24010Y-13320D03*
X25570Y-13340D03*
X27420Y-13340D03*
X30020Y-13340D03*
X28740Y-21340D03*
X26560Y-21370D03*
X33230Y-15210D03*
X33930Y-15460D03*
X17000Y-23940D03*
X17620Y-24560D03*
X20850Y-24920D03*
X22780Y-24920D03*
X23260Y-23150D03*
X38160Y-17810D03*
X26840Y-19260D03*
X37840Y-17620D03*
X27130Y-19070D03*
X40530Y-16720D03*
X38920Y-16720D03*
X33390Y-21800D03*
X33080Y-21920D03*
X31140Y-24270D03*
X30830Y-23960D03*
X29390Y-23890D03*
X43740Y-21360D03*
X36900Y-17770D03*
X31690Y-17320D03*
X43620Y-21010D03*
X37220Y-17640D03*
X31890Y-17040D03*
X42980Y-19730D03*
X41100Y-19580D03*
X35170Y-20650D03*
X43200Y-19400D03*
X35540Y-20510D03*
X41340Y-19810D03*
X43460Y-19110D03*
X35920Y-20420D03*
X41590Y-20060D03*
X43730Y-18870D03*
X36260Y-20310D03*
X41830Y-20340D03*
X41310Y-19060D03*
X36250Y-19280D03*
X35920Y-19180D03*
X40990Y-18930D03*
X38930Y-18890D03*
X30830Y-17910D03*
X38470Y-18850D03*
X30530Y-17710D03*
X42390Y-23250D03*
X43680Y-24540D03*
X29840Y-18950D03*
X45550Y-22070D03*
X43197Y-17715D03*
X30020Y-17810D03*
X45890Y-21950D03*
X29830Y-17470D03*
X41720Y-19060D03*
X29440Y-19300D03*
X34530Y-21710D03*
X29170Y-18770D03*
X34320Y-21440D03*
X43200Y-21880D03*
X28890Y-18490D03*
X42880Y-22090D03*
X28590Y-18270D03*
X42560Y-21880D03*
X28420Y-17930D03*
X42250Y-22100D03*
X28240Y-17600D03*
X25690Y-18010D03*
X25340Y-18140D03*
X25000Y-18110D03*
X23310Y-16600D03*
X15730Y-23750D03*
X16240Y-23600D03*
X22680Y-16520D03*
X17650Y-18710D03*
X18640Y-18700D03*
X17630Y-19300D03*
X18360Y-19000D03*
X31130Y-18130D03*
X39260Y-18880D03*
X25590Y-17250D03*
X15800Y-29250D03*
X23050Y-17670D03*
X25270Y-17490D03*
X15710Y-28890D03*
X22940Y-18060D03*
X25000Y-17730D03*
X15800Y-28510D03*
X23120Y-18390D03*
G54D15*
X14304Y-16904D03*
X17190Y-16370D03*
G54D14*
X12100Y-14080D03*
X10410Y-13400D03*
G54D16*
X20000Y-24000D02*
X20730Y-24000D01*
X22170Y-22560D02*
X22500Y-22560D01*
X20730Y-24000D02*
X22170Y-22560D01*
X19000Y-21000D02*
X19000Y-19370D01*
X22620Y-17380D02*
X22000Y-18000D01*
X23230Y-17380D02*
X22620Y-17380D01*
X23644Y-17794D02*
X23230Y-17380D01*
X23644Y-18616D02*
X23644Y-17794D01*
X23346Y-18914D02*
X23644Y-18616D01*
X19456Y-18914D02*
X23346Y-18914D01*
X19000Y-19370D02*
X19456Y-18914D01*
X33490Y-15850D02*
X33890Y-15850D01*
X33200Y-15560D02*
X33490Y-15850D01*
X29010Y-21610D02*
X29140Y-21480D01*
X26310Y-21610D02*
X29010Y-21610D01*
X26100Y-21400D02*
X26310Y-21610D01*
X20000Y-22980D02*
X20000Y-23000D01*
X20630Y-22350D02*
X20000Y-22980D01*
X20630Y-20850D02*
X20630Y-22350D01*
X19000Y-23000D02*
X19000Y-23010D01*
X21050Y-23480D02*
X22270Y-22260D01*
X19470Y-23480D02*
X21050Y-23480D01*
X19000Y-23010D02*
X19470Y-23480D01*
G54D17*
X15460Y-13960D02*
X14277Y-12777D01*
X14277Y-12689D02*
X14277Y-12777D01*
X15460Y-13960D02*
X13006Y-13960D01*
X16610Y-15110D02*
X15460Y-13960D01*
X12480Y-13960D02*
X13006Y-13960D01*
X16610Y-15110D02*
X17310Y-15110D01*
X19420Y-13000D02*
X22000Y-13000D01*
X17310Y-15110D02*
X19420Y-13000D01*
X21100Y-26910D02*
X23570Y-26910D01*
X20710Y-26520D02*
X21100Y-26910D01*
X13160Y-15010D02*
X11690Y-15010D01*
X10660Y-13980D02*
X11690Y-15010D01*
X10660Y-13980D02*
X10320Y-13980D01*
X13750Y-15600D02*
X13160Y-15010D01*
X17140Y-15600D02*
X13750Y-15600D01*
G54D16*
X17096Y-18266D02*
X16330Y-17500D01*
X17096Y-22344D02*
X17096Y-18266D01*
X16247Y-23193D02*
X17096Y-22344D01*
X15927Y-23193D02*
X16247Y-23193D01*
X15460Y-23660D02*
X15927Y-23193D01*
X15460Y-29300D02*
X15460Y-23660D01*
X15670Y-29510D02*
X15460Y-29300D01*
X16230Y-29510D02*
X15670Y-29510D01*
X16480Y-29760D02*
X16230Y-29510D01*
X16480Y-29920D02*
X16480Y-29760D01*
X24550Y-25430D02*
X24372Y-25608D01*
X24372Y-25608D02*
X24372Y-29172D01*
X24372Y-29172D02*
X24730Y-29530D01*
X24730Y-29530D02*
X25230Y-29530D01*
X25230Y-29530D02*
X25490Y-29790D01*
X25490Y-29790D02*
X25490Y-30230D01*
X25490Y-30230D02*
X25200Y-30520D01*
X25200Y-30520D02*
X16800Y-30520D01*
X16800Y-30520D02*
X16480Y-30200D01*
X16480Y-30200D02*
X16480Y-29920D01*
X45950Y-27110D02*
X45960Y-27120D01*
X45950Y-27110D02*
X44060Y-27110D01*
X28085Y-24005D02*
X28474Y-23616D01*
X35174Y-25034D02*
X37304Y-25034D01*
X33756Y-23616D02*
X35174Y-25034D01*
X44060Y-27110D02*
X41984Y-25034D01*
X41984Y-25034D02*
X37304Y-25034D01*
X28474Y-23616D02*
X33756Y-23616D01*
X25740Y-24220D02*
X25730Y-24220D01*
X25730Y-24220D02*
X24950Y-24220D01*
X25750Y-24220D02*
X25740Y-24220D01*
X24950Y-24220D02*
X24760Y-24220D01*
X24760Y-24220D02*
X24740Y-24200D01*
X25730Y-24220D02*
X27870Y-24220D01*
X27870Y-24220D02*
X28085Y-24005D01*
X28085Y-24005D02*
X28090Y-24000D01*
X42042Y-24892D02*
X37390Y-24892D01*
X37390Y-24892D02*
X37362Y-24892D01*
X43890Y-26740D02*
X42042Y-24892D01*
X45960Y-26740D02*
X43890Y-26740D01*
X25145Y-24075D02*
X24980Y-23910D01*
X25148Y-24078D02*
X25145Y-24075D01*
X37390Y-24892D02*
X36362Y-24892D01*
X36362Y-24892D02*
X35232Y-24892D01*
X35232Y-24892D02*
X35230Y-24890D01*
X25145Y-24075D02*
X27815Y-24075D01*
X28032Y-23858D02*
X28416Y-23474D01*
X33814Y-23474D02*
X35232Y-24892D01*
X28416Y-23474D02*
X33814Y-23474D01*
X27815Y-24075D02*
X28032Y-23858D01*
X42100Y-24750D02*
X37448Y-24750D01*
X37448Y-24750D02*
X37420Y-24750D01*
X43750Y-26400D02*
X42100Y-24750D01*
X45940Y-26400D02*
X43750Y-26400D01*
X27974Y-23716D02*
X28360Y-23330D01*
X25200Y-23640D02*
X25200Y-23643D01*
X25200Y-23643D02*
X25490Y-23933D01*
X25490Y-23933D02*
X27757Y-23933D01*
X27757Y-23933D02*
X27974Y-23716D01*
X36420Y-24750D02*
X37448Y-24750D01*
X36420Y-24750D02*
X35290Y-24750D01*
X28360Y-23330D02*
X33870Y-23330D01*
X33870Y-23330D02*
X35290Y-24750D01*
X37480Y-24592D02*
X36462Y-24592D01*
X27899Y-23591D02*
X28310Y-23180D01*
X35332Y-24592D02*
X36462Y-24592D01*
X28310Y-23180D02*
X33920Y-23180D01*
X33920Y-23180D02*
X35332Y-24592D01*
X27699Y-23791D02*
X27899Y-23591D01*
X25450Y-23360D02*
X25881Y-23791D01*
X25881Y-23791D02*
X27699Y-23791D01*
X27899Y-23591D02*
X27916Y-23574D01*
X45940Y-26030D02*
X43580Y-26030D01*
X43580Y-26030D02*
X42142Y-24592D01*
X42142Y-24592D02*
X37480Y-24592D01*
X37480Y-24592D02*
X37462Y-24592D01*
X24750Y-22260D02*
X24750Y-17840D01*
X23804Y-23206D02*
X24750Y-22260D01*
X23804Y-23866D02*
X23804Y-23206D01*
X23680Y-26000D02*
X23804Y-25876D01*
X23804Y-25876D02*
X23804Y-23866D01*
X24750Y-17840D02*
X24750Y-11750D01*
X24750Y-11750D02*
X24000Y-11000D01*
X23430Y-25890D02*
X23662Y-25658D01*
X23430Y-26250D02*
X23430Y-25890D01*
X23662Y-25658D02*
X23662Y-23832D01*
X23470Y-11470D02*
X23000Y-11000D01*
X24270Y-11470D02*
X23470Y-11470D01*
X24608Y-11808D02*
X24270Y-11470D01*
X24608Y-17898D02*
X24608Y-17890D01*
X24608Y-17890D02*
X24608Y-11808D01*
X23662Y-23832D02*
X23662Y-23808D01*
X24608Y-17890D02*
X24608Y-22202D01*
X23662Y-23148D02*
X23662Y-23832D01*
X24608Y-22202D02*
X23662Y-23148D01*
X24466Y-22144D02*
X24466Y-17956D01*
X23520Y-23090D02*
X24466Y-22144D01*
X23520Y-23750D02*
X23520Y-23090D01*
X22470Y-11470D02*
X22000Y-11000D01*
X23110Y-26010D02*
X23520Y-25600D01*
X23110Y-26510D02*
X23110Y-26010D01*
X23520Y-25600D02*
X23520Y-23750D01*
X24466Y-17956D02*
X24466Y-11866D01*
X24466Y-11866D02*
X24212Y-11612D01*
X24212Y-11612D02*
X22612Y-11612D01*
X22612Y-11612D02*
X22470Y-11470D01*
X43338Y-25388D02*
X42140Y-24190D01*
X41530Y-23580D02*
X42140Y-24190D01*
X37918Y-23580D02*
X41530Y-23580D01*
X37840Y-23658D02*
X37918Y-23580D01*
X37840Y-24190D02*
X37840Y-23658D01*
X48998Y-27982D02*
X49000Y-27982D01*
X48998Y-27982D02*
X48520Y-28460D01*
X48520Y-28460D02*
X46650Y-28460D01*
X46650Y-28460D02*
X46266Y-28076D01*
X46266Y-28076D02*
X46266Y-25504D01*
X46266Y-25504D02*
X46150Y-25388D01*
X46150Y-25388D02*
X43338Y-25388D01*
X37840Y-24190D02*
X36460Y-24190D01*
X35330Y-24190D02*
X36460Y-24190D01*
X34028Y-22888D02*
X35330Y-24190D01*
X28202Y-22888D02*
X34028Y-22888D01*
X27582Y-23508D02*
X28202Y-22888D01*
X26328Y-23508D02*
X27582Y-23508D01*
X26190Y-23370D02*
X26328Y-23508D01*
X49000Y-26982D02*
X48506Y-27476D01*
X41588Y-23438D02*
X42070Y-23920D01*
X37628Y-23438D02*
X41588Y-23438D01*
X37530Y-23536D02*
X37628Y-23438D01*
X37530Y-23536D02*
X37530Y-23920D01*
X48506Y-27476D02*
X48502Y-27480D01*
X48502Y-27480D02*
X46790Y-27480D01*
X46790Y-27480D02*
X46408Y-27098D01*
X46408Y-27098D02*
X46408Y-25446D01*
X46408Y-25446D02*
X46208Y-25246D01*
X46208Y-25246D02*
X43396Y-25246D01*
X43396Y-25246D02*
X42070Y-23920D01*
X37530Y-23920D02*
X36390Y-23920D01*
X35260Y-23920D02*
X36390Y-23920D01*
X34086Y-22746D02*
X35260Y-23920D01*
X28144Y-22746D02*
X34086Y-22746D01*
X27524Y-23366D02*
X28144Y-22746D01*
X26666Y-23366D02*
X27524Y-23366D01*
X26400Y-23100D02*
X26666Y-23366D01*
X49000Y-25982D02*
X48482Y-26500D01*
X37292Y-23296D02*
X41646Y-23296D01*
X37210Y-23378D02*
X37292Y-23296D01*
X41646Y-23296D02*
X41975Y-23625D01*
X37210Y-23378D02*
X37210Y-23620D01*
X41975Y-23625D02*
X43454Y-25104D01*
X43454Y-25104D02*
X46266Y-25104D01*
X46266Y-25104D02*
X46550Y-25388D01*
X46550Y-25388D02*
X46550Y-26200D01*
X46550Y-26200D02*
X46850Y-26500D01*
X46850Y-26500D02*
X48482Y-26500D01*
X37210Y-23620D02*
X37215Y-23625D01*
X37210Y-23620D02*
X36290Y-23620D01*
X35160Y-23620D02*
X36290Y-23620D01*
X34144Y-22604D02*
X35160Y-23620D01*
X28086Y-22604D02*
X34144Y-22604D01*
X27466Y-23224D02*
X28086Y-22604D01*
X26994Y-23224D02*
X27466Y-23224D01*
X26600Y-22830D02*
X26994Y-23224D01*
X43512Y-24962D02*
X41909Y-23359D01*
X41704Y-23154D02*
X41909Y-23359D01*
X37016Y-23154D02*
X41704Y-23154D01*
X36900Y-23270D02*
X37016Y-23154D01*
X36900Y-23360D02*
X36900Y-23270D01*
X48998Y-24982D02*
X49000Y-24982D01*
X48998Y-24982D02*
X48480Y-25500D01*
X48480Y-25500D02*
X46862Y-25500D01*
X46862Y-25500D02*
X46324Y-24962D01*
X46324Y-24962D02*
X43512Y-24962D01*
X36900Y-23360D02*
X36230Y-23360D01*
X35100Y-23360D02*
X36230Y-23360D01*
X34202Y-22462D02*
X35100Y-23360D01*
X28028Y-22462D02*
X34202Y-22462D01*
X27550Y-22940D02*
X28028Y-22462D01*
X27150Y-22940D02*
X27550Y-22940D01*
X26930Y-22720D02*
X27150Y-22940D01*
X41860Y-23110D02*
X43570Y-24820D01*
X41762Y-23012D02*
X41860Y-23110D01*
X36680Y-23012D02*
X41762Y-23012D01*
X36582Y-23110D02*
X36680Y-23012D01*
X36580Y-23110D02*
X36582Y-23110D01*
X43570Y-24820D02*
X46430Y-24820D01*
X46430Y-24820D02*
X46770Y-24480D01*
X46770Y-24480D02*
X48502Y-24480D01*
X48502Y-24480D02*
X49000Y-23982D01*
X36580Y-23110D02*
X36180Y-23110D01*
X34260Y-22320D02*
X34460Y-22520D01*
X27970Y-22320D02*
X34260Y-22320D01*
X27660Y-22630D02*
X27970Y-22320D01*
X27660Y-22630D02*
X27320Y-22630D01*
X35050Y-23110D02*
X36180Y-23110D01*
X35050Y-23110D02*
X34460Y-22520D01*
X27320Y-22630D02*
X27325Y-22635D01*
X49000Y-22982D02*
X48502Y-23480D01*
X46770Y-23480D02*
X48502Y-23480D01*
X46448Y-23158D02*
X46770Y-23480D01*
X46448Y-22019D02*
X46448Y-23158D01*
X46099Y-21670D02*
X46448Y-22019D01*
X46099Y-21670D02*
X44790Y-21670D01*
X43620Y-21690D02*
X43640Y-21670D01*
X43640Y-21670D02*
X44790Y-21670D01*
X44790Y-21670D02*
X44820Y-21670D01*
X28120Y-17230D02*
X31186Y-17230D01*
X27970Y-17380D02*
X28120Y-17230D01*
X31548Y-17592D02*
X36138Y-17592D01*
X31186Y-17230D02*
X31548Y-17592D01*
X36138Y-17592D02*
X36488Y-17592D01*
X36488Y-17592D02*
X36580Y-17500D01*
X29000Y-29030D02*
X29000Y-30000D01*
X28256Y-28286D02*
X29000Y-29030D01*
X28256Y-25700D02*
X28256Y-28286D01*
X28050Y-25494D02*
X28256Y-25700D01*
X28050Y-25280D02*
X28050Y-25494D01*
X28200Y-25130D02*
X28050Y-25280D01*
X28200Y-24250D02*
X28200Y-25130D01*
X28398Y-25488D02*
X28398Y-28220D01*
X28300Y-25390D02*
X28398Y-25488D01*
X28398Y-28220D02*
X28398Y-28228D01*
X28398Y-28228D02*
X30000Y-29830D01*
X30000Y-29830D02*
X30000Y-30000D01*
X30508Y-29508D02*
X31000Y-30000D01*
X29878Y-29508D02*
X30508Y-29508D01*
X29500Y-29130D02*
X29878Y-29508D01*
X28640Y-24250D02*
X28540Y-24350D01*
X28540Y-24350D02*
X28540Y-28170D01*
X28540Y-28170D02*
X29500Y-29130D01*
X31353Y-29353D02*
X32000Y-30000D01*
X29923Y-29353D02*
X31353Y-29353D01*
X29558Y-28988D02*
X29923Y-29353D01*
X28790Y-25420D02*
X28788Y-25420D01*
X28788Y-25420D02*
X28682Y-25526D01*
X28682Y-25526D02*
X28682Y-28112D01*
X28682Y-28112D02*
X29558Y-28988D01*
X32211Y-29211D02*
X33000Y-30000D01*
X29981Y-29211D02*
X32211Y-29211D01*
X29616Y-28846D02*
X29981Y-29211D01*
X29070Y-24250D02*
X29070Y-25506D01*
X29070Y-25506D02*
X28824Y-25752D01*
X28824Y-25752D02*
X28824Y-28054D01*
X28824Y-28054D02*
X29616Y-28846D01*
X25318Y-21656D02*
X25318Y-18740D01*
X25840Y-22178D02*
X25318Y-21656D01*
X29022Y-22178D02*
X25840Y-22178D01*
X29680Y-22080D02*
X29582Y-22178D01*
X29582Y-22178D02*
X29022Y-22178D01*
X25318Y-18740D02*
X25318Y-18732D01*
X25318Y-18732D02*
X25938Y-18112D01*
X25938Y-18112D02*
X25938Y-17242D01*
X25938Y-17242D02*
X28732Y-14448D01*
X28732Y-14448D02*
X28732Y-13112D01*
X28732Y-13112D02*
X28610Y-12990D01*
X25460Y-18790D02*
X26080Y-18170D01*
X26080Y-18170D02*
X26082Y-18168D01*
X25460Y-21598D02*
X25460Y-18790D01*
X25898Y-22036D02*
X25460Y-21598D01*
X29368Y-22036D02*
X25898Y-22036D01*
X29574Y-21830D02*
X29368Y-22036D01*
X29820Y-21830D02*
X29574Y-21830D01*
X30060Y-22070D02*
X29820Y-21830D01*
X26080Y-18170D02*
X26080Y-17300D01*
X28874Y-12784D02*
X28750Y-12660D01*
X28874Y-14506D02*
X28874Y-12784D01*
X26080Y-17300D02*
X28874Y-14506D01*
X29016Y-12486D02*
X28890Y-12360D01*
X29016Y-14564D02*
X29016Y-12486D01*
X26224Y-17356D02*
X29016Y-14564D01*
X26224Y-18226D02*
X26224Y-17356D01*
X30410Y-22080D02*
X30018Y-21688D01*
X30018Y-21688D02*
X29516Y-21688D01*
X29516Y-21688D02*
X29310Y-21894D01*
X29310Y-21894D02*
X25956Y-21894D01*
X25956Y-21894D02*
X25602Y-21540D01*
X25602Y-21540D02*
X25602Y-18848D01*
X25602Y-18848D02*
X26224Y-18226D01*
X30760Y-22080D02*
X30226Y-21546D01*
X30226Y-21546D02*
X29458Y-21546D01*
X29458Y-21546D02*
X29252Y-21752D01*
X29252Y-21752D02*
X26014Y-21752D01*
X26014Y-21752D02*
X25744Y-21482D01*
X25744Y-21482D02*
X25744Y-18906D01*
X25744Y-18906D02*
X26366Y-18284D01*
X26366Y-18284D02*
X26366Y-17414D01*
X26366Y-17414D02*
X29158Y-14622D01*
X29158Y-14622D02*
X29158Y-12188D01*
X29158Y-12188D02*
X29010Y-12040D01*
X31840Y-25360D02*
X31820Y-25340D01*
X31840Y-25550D02*
X31840Y-25360D01*
X31840Y-25550D02*
X33870Y-27580D01*
X33870Y-27580D02*
X35170Y-27580D01*
X35170Y-27580D02*
X35620Y-27580D01*
X35620Y-27580D02*
X38000Y-29960D01*
X38000Y-29960D02*
X38000Y-30000D01*
X32220Y-24720D02*
X34250Y-26750D01*
X31740Y-24720D02*
X32220Y-24720D01*
X31440Y-24420D02*
X31740Y-24720D01*
X31440Y-24400D02*
X31440Y-24420D01*
X31450Y-24110D02*
X31440Y-24120D01*
X31440Y-24120D02*
X31440Y-24400D01*
X35750Y-26750D02*
X39000Y-30000D01*
X34250Y-26750D02*
X35750Y-26750D01*
X31970Y-24510D02*
X31740Y-24280D01*
X32530Y-24510D02*
X31970Y-24510D01*
X32530Y-24510D02*
X34490Y-26470D01*
X34490Y-26470D02*
X36470Y-26470D01*
X36470Y-26470D02*
X40000Y-30000D01*
X40650Y-19074D02*
X40650Y-18890D01*
X40038Y-19686D02*
X40650Y-19074D01*
X37206Y-19686D02*
X40038Y-19686D01*
X36418Y-18898D02*
X37206Y-19686D01*
X35702Y-18898D02*
X36418Y-18898D01*
X35640Y-18960D02*
X35702Y-18898D01*
X39976Y-19544D02*
X39772Y-19544D01*
X40310Y-19210D02*
X39976Y-19544D01*
X40310Y-19040D02*
X40310Y-19210D01*
X37264Y-19544D02*
X39772Y-19544D01*
X37264Y-19544D02*
X36476Y-18756D01*
X36476Y-18756D02*
X35836Y-18756D01*
X35836Y-18756D02*
X35740Y-18660D01*
X35740Y-18660D02*
X35490Y-18660D01*
X39772Y-19544D02*
X39806Y-19544D01*
X39518Y-19402D02*
X39148Y-19402D01*
X39660Y-19260D02*
X39518Y-19402D01*
X39660Y-18890D02*
X39660Y-19260D01*
X37322Y-19402D02*
X39148Y-19402D01*
X36534Y-18614D02*
X37322Y-19402D01*
X35934Y-18614D02*
X36534Y-18614D01*
X35720Y-18400D02*
X35934Y-18614D01*
X39050Y-22020D02*
X38928Y-22142D01*
X38928Y-22142D02*
X36772Y-22142D01*
X36772Y-22142D02*
X36650Y-22020D01*
X33124Y-21164D02*
X34052Y-22092D01*
X34052Y-22092D02*
X34562Y-22092D01*
X34562Y-22092D02*
X34690Y-22220D01*
X34690Y-22220D02*
X35010Y-22220D01*
X27680Y-19430D02*
X27685Y-19435D01*
X27685Y-19435D02*
X29025Y-19435D01*
X29025Y-19435D02*
X29272Y-19682D01*
X29272Y-19682D02*
X32232Y-19682D01*
X32232Y-19682D02*
X33124Y-20574D01*
X33124Y-20574D02*
X33124Y-21164D01*
X37090Y-21990D02*
X36840Y-21740D01*
X38700Y-21990D02*
X37090Y-21990D01*
X38980Y-21710D02*
X38700Y-21990D01*
X39180Y-21710D02*
X38980Y-21710D01*
X33266Y-21096D02*
X34120Y-21950D01*
X33266Y-20516D02*
X33266Y-21096D01*
X33176Y-20426D02*
X33266Y-20516D01*
X34120Y-21950D02*
X34820Y-21950D01*
X29330Y-19540D02*
X32290Y-19540D01*
X32290Y-19540D02*
X33176Y-20426D01*
X27520Y-19140D02*
X27771Y-19140D01*
X27771Y-19140D02*
X27924Y-19293D01*
X27924Y-19293D02*
X29083Y-19293D01*
X29083Y-19293D02*
X29330Y-19540D01*
X14520Y-29990D02*
X14050Y-29520D01*
X14520Y-30230D02*
X14520Y-29990D01*
X14770Y-30480D02*
X14520Y-30230D01*
X15520Y-30480D02*
X14770Y-30480D01*
X15520Y-30480D02*
X16000Y-30000D01*
X11120Y-26590D02*
X14050Y-29520D01*
X27720Y-18500D02*
X27400Y-18820D01*
X27720Y-17270D02*
X27720Y-18500D01*
X27902Y-17088D02*
X27720Y-17270D01*
X27902Y-17088D02*
X27920Y-17088D01*
X28120Y-17088D02*
X27920Y-17088D01*
X27920Y-17088D02*
X27912Y-17088D01*
X37520Y-17500D02*
X37520Y-17810D01*
X37520Y-17500D02*
X36996Y-16976D01*
X36996Y-16976D02*
X36366Y-16976D01*
X36366Y-16976D02*
X36176Y-17166D01*
X36176Y-17166D02*
X32356Y-17166D01*
X32356Y-17166D02*
X31990Y-16800D01*
X31990Y-16800D02*
X31770Y-16800D01*
X31770Y-16800D02*
X31482Y-17088D01*
X28120Y-17088D02*
X31482Y-17088D01*
X26500Y-18970D02*
X26500Y-19070D01*
X27294Y-18176D02*
X26500Y-18970D01*
X27294Y-17086D02*
X27294Y-18176D01*
X27718Y-16662D02*
X27294Y-17086D01*
X27728Y-16662D02*
X27718Y-16662D01*
X42108Y-21762D02*
X42108Y-21128D01*
X41910Y-21960D02*
X42108Y-21762D01*
X42108Y-21128D02*
X42108Y-19298D01*
X42108Y-19298D02*
X43550Y-17856D01*
X43550Y-17110D02*
X43550Y-17856D01*
X42910Y-16470D02*
X43550Y-17110D01*
X42910Y-16470D02*
X36272Y-16470D01*
X36272Y-16470D02*
X36002Y-16740D01*
X36002Y-16740D02*
X32530Y-16740D01*
X32530Y-16740D02*
X32164Y-16374D01*
X32164Y-16374D02*
X31596Y-16374D01*
X31596Y-16374D02*
X31308Y-16662D01*
X31308Y-16662D02*
X27728Y-16662D01*
X32698Y-20748D02*
X32698Y-21878D01*
X26490Y-19980D02*
X26504Y-19966D01*
X26504Y-19966D02*
X28956Y-19966D01*
X28956Y-19966D02*
X29098Y-20108D01*
X29098Y-20108D02*
X32058Y-20108D01*
X32058Y-20108D02*
X32698Y-20748D01*
X32698Y-21878D02*
X32698Y-21888D01*
X32698Y-21888D02*
X32970Y-22160D01*
X32970Y-22160D02*
X33520Y-22160D01*
X33650Y-22030D02*
X33520Y-22160D01*
X44018Y-16328D02*
X44020Y-16330D01*
X36214Y-16328D02*
X44018Y-16328D01*
X35944Y-16598D02*
X36214Y-16328D01*
X32588Y-16598D02*
X35944Y-16598D01*
X32222Y-16232D02*
X32588Y-16598D01*
X31616Y-16232D02*
X32222Y-16232D01*
X29592Y-14208D02*
X31616Y-16232D01*
X29592Y-13888D02*
X29592Y-14208D01*
X29790Y-13690D02*
X29592Y-13888D01*
X25580Y-13690D02*
X27430Y-13690D01*
X24040Y-13790D02*
X23940Y-13690D01*
X24040Y-14880D02*
X24040Y-13790D01*
X21780Y-20520D02*
X23566Y-20520D01*
X23566Y-20520D02*
X24040Y-20046D01*
X24040Y-20046D02*
X24040Y-14880D01*
X44020Y-16330D02*
X44810Y-16330D01*
X44810Y-16330D02*
X45070Y-16070D01*
X44544Y-16186D02*
X44690Y-16040D01*
X36156Y-16186D02*
X44544Y-16186D01*
X35886Y-16456D02*
X36156Y-16186D01*
X32646Y-16456D02*
X35886Y-16456D01*
X32280Y-16090D02*
X32646Y-16456D01*
X31674Y-16090D02*
X32280Y-16090D01*
X30120Y-14536D02*
X31674Y-16090D01*
X30120Y-13440D02*
X30120Y-14536D01*
X30020Y-13340D02*
X30120Y-13440D01*
X21640Y-20840D02*
X23446Y-20840D01*
X23446Y-20840D02*
X24182Y-20104D01*
X24182Y-20104D02*
X24182Y-14602D01*
X24182Y-14602D02*
X24182Y-13492D01*
X24182Y-13492D02*
X24010Y-13320D01*
X25570Y-13340D02*
X27420Y-13340D01*
X28612Y-21468D02*
X28740Y-21340D01*
X26658Y-21468D02*
X28612Y-21468D01*
X26560Y-21370D02*
X26658Y-21468D01*
X33360Y-15210D02*
X33230Y-15210D01*
X33610Y-15460D02*
X33360Y-15210D01*
X33930Y-15460D02*
X33610Y-15460D01*
X17620Y-24560D02*
X17000Y-23940D01*
X22780Y-24920D02*
X20850Y-24920D01*
X24324Y-22086D02*
X23260Y-23150D01*
X24324Y-18014D02*
X24324Y-22086D01*
X17612Y-11612D02*
X17000Y-11000D01*
X24324Y-18014D02*
X24324Y-11924D01*
X24324Y-11924D02*
X24154Y-11754D01*
X24154Y-11754D02*
X17754Y-11754D01*
X17754Y-11754D02*
X17612Y-11612D01*
X38160Y-17810D02*
X38160Y-17820D01*
X26840Y-18830D02*
X26840Y-19260D01*
X27436Y-18234D02*
X26840Y-18830D01*
X27436Y-17155D02*
X27436Y-18234D01*
X27786Y-16805D02*
X27436Y-17155D01*
X27786Y-16804D02*
X27786Y-16805D01*
X27786Y-16804D02*
X31366Y-16804D01*
X31366Y-16804D02*
X31654Y-16516D01*
X31654Y-16516D02*
X32106Y-16516D01*
X32106Y-16516D02*
X32472Y-16882D01*
X32472Y-16882D02*
X36060Y-16882D01*
X36060Y-16882D02*
X36250Y-16692D01*
X36250Y-16692D02*
X37282Y-16692D01*
X37282Y-16692D02*
X38160Y-17570D01*
X38160Y-17570D02*
X38160Y-17810D01*
X27130Y-18740D02*
X27130Y-19070D01*
X27578Y-18292D02*
X27130Y-18740D01*
X27578Y-17212D02*
X27578Y-18292D01*
X27844Y-16946D02*
X27578Y-17212D01*
X27854Y-16946D02*
X27844Y-16946D01*
X31424Y-16946D02*
X27854Y-16946D01*
X31712Y-16658D02*
X31424Y-16946D01*
X32048Y-16658D02*
X31712Y-16658D01*
X32414Y-17024D02*
X32048Y-16658D01*
X36118Y-17024D02*
X32414Y-17024D01*
X36308Y-16834D02*
X36118Y-17024D01*
X37064Y-16834D02*
X36308Y-16834D01*
X37840Y-17610D02*
X37064Y-16834D01*
X37840Y-17620D02*
X37840Y-17610D01*
X40530Y-16720D02*
X38920Y-16720D01*
X32388Y-11612D02*
X33000Y-11000D01*
X29788Y-11612D02*
X32388Y-11612D01*
X29450Y-11950D02*
X29788Y-11612D01*
X29450Y-11950D02*
X29450Y-14730D01*
X28313Y-15867D02*
X29450Y-14730D01*
X27152Y-17028D02*
X28313Y-15867D01*
X27152Y-18058D02*
X27152Y-17028D01*
X26260Y-18950D02*
X27152Y-18058D01*
X26260Y-19200D02*
X26260Y-18950D01*
X26742Y-19682D02*
X26260Y-19200D01*
X29072Y-19682D02*
X26742Y-19682D01*
X33390Y-21800D02*
X33390Y-21660D01*
X33390Y-21660D02*
X32982Y-21252D01*
X32982Y-21252D02*
X32982Y-20632D01*
X32982Y-20632D02*
X32174Y-19824D01*
X32174Y-19824D02*
X29214Y-19824D01*
X29214Y-19824D02*
X29072Y-19682D01*
X27010Y-16970D02*
X27595Y-16385D01*
X27595Y-16385D02*
X27602Y-16378D01*
X27010Y-18000D02*
X27010Y-16970D01*
X26118Y-18892D02*
X27010Y-18000D01*
X26118Y-19258D02*
X26118Y-18892D01*
X26684Y-19824D02*
X26118Y-19258D01*
X29014Y-19824D02*
X26684Y-19824D01*
X29156Y-19966D02*
X29014Y-19824D01*
X32116Y-19966D02*
X29156Y-19966D01*
X32840Y-20690D02*
X32116Y-19966D01*
X32840Y-21310D02*
X32840Y-20690D01*
X33080Y-21550D02*
X32840Y-21310D01*
X33080Y-21920D02*
X33080Y-21550D01*
X27595Y-16385D02*
X29300Y-14680D01*
X31530Y-11470D02*
X32000Y-11000D01*
X29730Y-11470D02*
X31530Y-11470D01*
X29300Y-11900D02*
X29730Y-11470D01*
X29300Y-11900D02*
X29300Y-14680D01*
X35060Y-28060D02*
X37000Y-30000D01*
X34020Y-28060D02*
X35060Y-28060D01*
X31140Y-25180D02*
X34020Y-28060D01*
X31140Y-24270D02*
X31140Y-25180D01*
X34510Y-28510D02*
X36000Y-30000D01*
X33960Y-28510D02*
X34510Y-28510D01*
X30830Y-25380D02*
X33960Y-28510D01*
X30830Y-25230D02*
X30830Y-25380D01*
X30830Y-23960D02*
X30830Y-25230D01*
X33069Y-29069D02*
X34000Y-30000D01*
X30038Y-29069D02*
X33069Y-29069D01*
X29674Y-28705D02*
X30038Y-29069D01*
X29674Y-28704D02*
X29674Y-28705D01*
X29390Y-23890D02*
X29390Y-24650D01*
X29390Y-24650D02*
X29390Y-25390D01*
X29390Y-25390D02*
X28966Y-25814D01*
X28966Y-25814D02*
X28966Y-27996D01*
X28966Y-27996D02*
X29674Y-28704D01*
X49000Y-21982D02*
X48482Y-22500D01*
X46800Y-22500D02*
X48482Y-22500D01*
X46590Y-22290D02*
X46800Y-22500D01*
X46590Y-21680D02*
X46590Y-22290D01*
X46270Y-21360D02*
X46590Y-21680D01*
X45380Y-21360D02*
X46270Y-21360D01*
X43740Y-21360D02*
X45380Y-21360D01*
X36900Y-17480D02*
X36900Y-17770D01*
X36680Y-17260D02*
X36900Y-17480D01*
X36480Y-17260D02*
X36680Y-17260D01*
X36290Y-17450D02*
X36480Y-17260D01*
X35681Y-17450D02*
X36290Y-17450D01*
X31690Y-17320D02*
X31820Y-17450D01*
X31820Y-17450D02*
X35681Y-17450D01*
X43620Y-21010D02*
X43630Y-21000D01*
X43630Y-21000D02*
X46280Y-21000D01*
X46280Y-21000D02*
X46740Y-21460D01*
X46740Y-21460D02*
X48522Y-21460D01*
X48522Y-21460D02*
X49000Y-20982D01*
X37220Y-17400D02*
X37220Y-17640D01*
X36938Y-17118D02*
X37220Y-17400D01*
X36423Y-17118D02*
X36938Y-17118D01*
X36233Y-17308D02*
X36423Y-17118D01*
X32158Y-17308D02*
X36233Y-17308D01*
X31890Y-17040D02*
X32158Y-17308D01*
X48502Y-20480D02*
X49000Y-19982D01*
X46940Y-20480D02*
X48502Y-20480D01*
X46190Y-19730D02*
X46940Y-20480D01*
X42980Y-19730D02*
X46190Y-19730D01*
X39646Y-21034D02*
X41100Y-19580D01*
X35170Y-20650D02*
X35170Y-20540D01*
X35170Y-20540D02*
X35924Y-19786D01*
X35924Y-19786D02*
X36502Y-19786D01*
X36502Y-19786D02*
X37750Y-21034D01*
X37750Y-21034D02*
X39646Y-21034D01*
X48490Y-19490D02*
X43620Y-19490D01*
X43290Y-19490D02*
X43620Y-19490D01*
X43200Y-19400D02*
X43290Y-19490D01*
X48998Y-18982D02*
X49000Y-18982D01*
X48998Y-18982D02*
X48490Y-19490D01*
X35540Y-20510D02*
X35540Y-20440D01*
X35540Y-20440D02*
X36052Y-19928D01*
X36052Y-19928D02*
X36434Y-19928D01*
X36434Y-19928D02*
X37682Y-21176D01*
X37682Y-21176D02*
X39974Y-21176D01*
X39974Y-21176D02*
X41340Y-19810D01*
X48482Y-18500D02*
X49000Y-17982D01*
X46810Y-18500D02*
X48482Y-18500D01*
X46200Y-19110D02*
X46810Y-18500D01*
X43460Y-19110D02*
X46200Y-19110D01*
X35920Y-20420D02*
X35900Y-20420D01*
X40332Y-21318D02*
X41590Y-20060D01*
X37610Y-21318D02*
X40332Y-21318D01*
X36362Y-20070D02*
X37610Y-21318D01*
X36160Y-20070D02*
X36362Y-20070D01*
X35920Y-20310D02*
X36160Y-20070D01*
X35920Y-20310D02*
X35920Y-20420D01*
X48502Y-17480D02*
X49000Y-16982D01*
X43730Y-18870D02*
X46240Y-18870D01*
X46240Y-18870D02*
X46590Y-18520D01*
X46590Y-18520D02*
X46590Y-17700D01*
X46590Y-17700D02*
X46810Y-17480D01*
X46810Y-17480D02*
X48502Y-17480D01*
X36260Y-20310D02*
X36260Y-20320D01*
X36260Y-20310D02*
X37410Y-21460D01*
X37410Y-21460D02*
X40710Y-21460D01*
X40710Y-21460D02*
X41830Y-20340D01*
X41192Y-19178D02*
X41310Y-19060D01*
X40946Y-19178D02*
X41192Y-19178D01*
X39374Y-20750D02*
X40946Y-19178D01*
X37870Y-20750D02*
X39374Y-20750D01*
X36400Y-19280D02*
X37870Y-20750D01*
X36250Y-19280D02*
X36400Y-19280D01*
X36060Y-19040D02*
X35920Y-19180D01*
X36360Y-19040D02*
X36060Y-19040D01*
X37148Y-19828D02*
X36360Y-19040D01*
X37148Y-19828D02*
X40096Y-19828D01*
X40096Y-19828D02*
X40767Y-19157D01*
X40767Y-19153D02*
X40767Y-19157D01*
X40990Y-18930D02*
X40767Y-19153D01*
X36338Y-18018D02*
X36862Y-18542D01*
X31360Y-18018D02*
X36338Y-18018D01*
X31232Y-17890D02*
X31360Y-18018D01*
X31050Y-17890D02*
X31232Y-17890D01*
X31030Y-17910D02*
X31050Y-17890D01*
X31030Y-17910D02*
X30830Y-17910D01*
X38930Y-18890D02*
X38940Y-18900D01*
X38940Y-18900D02*
X38940Y-19038D01*
X38940Y-19038D02*
X38860Y-19118D01*
X38860Y-19118D02*
X37438Y-19118D01*
X37438Y-19118D02*
X36862Y-18542D01*
X30830Y-17910D02*
X30830Y-17900D01*
X36396Y-17876D02*
X36480Y-17960D01*
X31432Y-17876D02*
X36396Y-17876D01*
X31226Y-17670D02*
X31432Y-17876D01*
X30730Y-17670D02*
X31226Y-17670D01*
X30690Y-17710D02*
X30730Y-17670D01*
X30690Y-17710D02*
X30530Y-17710D01*
X38470Y-18850D02*
X38344Y-18976D01*
X38344Y-18976D02*
X37496Y-18976D01*
X37496Y-18976D02*
X36480Y-17960D01*
X30530Y-17710D02*
X30540Y-17710D01*
X43680Y-24540D02*
X42390Y-23250D01*
X42390Y-23250D02*
X42010Y-22870D01*
X41992Y-22852D02*
X42010Y-22870D01*
X36202Y-22852D02*
X41992Y-22852D01*
X32440Y-19090D02*
X36202Y-22852D01*
X29980Y-19090D02*
X32440Y-19090D01*
X29840Y-18950D02*
X29980Y-19090D01*
X34710Y-18380D02*
X35974Y-19644D01*
X31250Y-18380D02*
X34710Y-18380D01*
X43197Y-17969D02*
X43197Y-17715D01*
X41846Y-19320D02*
X43197Y-17969D01*
X41846Y-19320D02*
X41004Y-19320D01*
X39432Y-20892D02*
X41004Y-19320D01*
X37808Y-20892D02*
X39432Y-20892D01*
X36560Y-19644D02*
X37808Y-20892D01*
X36560Y-19644D02*
X35974Y-19644D01*
X30020Y-17810D02*
X30210Y-17810D01*
X30210Y-17810D02*
X30780Y-18380D01*
X30780Y-18380D02*
X31250Y-18380D01*
X31226Y-17470D02*
X29830Y-17470D01*
X31490Y-17734D02*
X31226Y-17470D01*
X36454Y-17734D02*
X31490Y-17734D01*
X37330Y-18610D02*
X36454Y-17734D01*
X41270Y-18610D02*
X37330Y-18610D01*
X41720Y-19060D02*
X41270Y-18610D01*
X33408Y-21038D02*
X34080Y-21710D01*
X33408Y-20458D02*
X33408Y-21038D01*
X32324Y-19374D02*
X33408Y-20458D01*
X29514Y-19374D02*
X32324Y-19374D01*
X29440Y-19300D02*
X29514Y-19374D01*
X34080Y-21710D02*
X34530Y-21710D01*
X29772Y-19232D02*
X32382Y-19232D01*
X29310Y-18770D02*
X29772Y-19232D01*
X29170Y-18770D02*
X29310Y-18770D01*
X32382Y-19232D02*
X33550Y-20400D01*
X33550Y-20400D02*
X33550Y-20980D01*
X33550Y-20980D02*
X34010Y-21440D01*
X34010Y-21440D02*
X34320Y-21440D01*
X49000Y-15982D02*
X48482Y-16500D01*
X45716Y-16500D02*
X48482Y-16500D01*
X43110Y-21880D02*
X43200Y-21880D01*
X43110Y-21880D02*
X42676Y-21446D01*
X42676Y-19540D02*
X42676Y-21446D01*
X42676Y-19540D02*
X45716Y-16500D01*
X39130Y-22710D02*
X39740Y-22710D01*
X36122Y-22572D02*
X36260Y-22710D01*
X39130Y-22710D02*
X36260Y-22710D01*
X43200Y-22120D02*
X43200Y-21880D01*
X42610Y-22710D02*
X43200Y-22120D01*
X39740Y-22710D02*
X42610Y-22710D01*
X36122Y-22572D02*
X36108Y-22558D01*
X33933Y-20383D02*
X36122Y-22572D01*
X28890Y-18490D02*
X28895Y-18495D01*
X28895Y-18495D02*
X29100Y-18290D01*
X29100Y-18290D02*
X29530Y-18290D01*
X29530Y-18290D02*
X30188Y-18948D01*
X30188Y-18948D02*
X32498Y-18948D01*
X32498Y-18948D02*
X33933Y-20383D01*
X42534Y-19482D02*
X45658Y-16358D01*
X42534Y-19482D02*
X42534Y-21504D01*
X42880Y-21850D02*
X42534Y-21504D01*
X42880Y-22090D02*
X42880Y-21850D01*
X48998Y-14982D02*
X49000Y-14982D01*
X48998Y-14982D02*
X48510Y-15470D01*
X48510Y-15470D02*
X46912Y-15470D01*
X46912Y-15470D02*
X46024Y-16358D01*
X45658Y-16358D02*
X46024Y-16358D01*
X42880Y-22090D02*
X42402Y-22568D01*
X28976Y-17884D02*
X28590Y-18270D01*
X29324Y-17884D02*
X28976Y-17884D01*
X30246Y-18806D02*
X29324Y-17884D01*
X32556Y-18806D02*
X30246Y-18806D01*
X36318Y-22568D02*
X32556Y-18806D01*
X42402Y-22568D02*
X36318Y-22568D01*
X42880Y-22090D02*
X42880Y-22090D01*
X42392Y-19424D02*
X45600Y-16216D01*
X42392Y-19424D02*
X42392Y-21712D01*
X42560Y-21880D02*
X42392Y-21712D01*
X48998Y-13982D02*
X49000Y-13982D01*
X48998Y-13982D02*
X48500Y-14480D01*
X48500Y-14480D02*
X46920Y-14480D01*
X46920Y-14480D02*
X46589Y-14811D01*
X46589Y-14811D02*
X46589Y-15593D01*
X46589Y-15593D02*
X45966Y-16216D01*
X45600Y-16216D02*
X45966Y-16216D01*
X42560Y-21880D02*
X42560Y-22134D01*
X42268Y-22426D02*
X42560Y-22134D01*
X36376Y-22426D02*
X42268Y-22426D01*
X34240Y-20290D02*
X36376Y-22426D01*
X32614Y-18664D02*
X30304Y-18664D01*
X32630Y-18680D02*
X32614Y-18664D01*
X32630Y-18680D02*
X34240Y-20290D01*
X30304Y-18664D02*
X29382Y-17742D01*
X29382Y-17742D02*
X28608Y-17742D01*
X28608Y-17742D02*
X28420Y-17930D01*
X34202Y-20252D02*
X34240Y-20290D01*
X42250Y-19356D02*
X45532Y-16074D01*
X45532Y-16074D02*
X45908Y-16074D01*
X46447Y-15535D02*
X45908Y-16074D01*
X46447Y-13833D02*
X46447Y-15535D01*
X46800Y-13480D02*
X46447Y-13833D01*
X48500Y-13480D02*
X46800Y-13480D01*
X48998Y-12982D02*
X48500Y-13480D01*
X48998Y-12982D02*
X49000Y-12982D01*
X42250Y-19356D02*
X42250Y-22100D01*
X42250Y-22100D02*
X42250Y-22101D01*
X32692Y-18522D02*
X34280Y-20110D01*
X32692Y-18522D02*
X31300Y-18522D01*
X42250Y-22101D02*
X42067Y-22284D01*
X36454Y-22284D02*
X42067Y-22284D01*
X34280Y-20110D02*
X36454Y-22284D01*
X29440Y-17600D02*
X28240Y-17600D01*
X30362Y-18522D02*
X29440Y-17600D01*
X30362Y-18522D02*
X31300Y-18522D01*
X31308Y-18522D02*
X31300Y-18522D01*
X25000Y-30000D02*
X24230Y-29230D01*
X24230Y-24040D02*
X24230Y-24060D01*
X24230Y-24060D02*
X24230Y-29230D01*
X24230Y-24060D02*
X24230Y-23380D01*
X25690Y-18140D02*
X25690Y-18010D01*
X25176Y-18654D02*
X25690Y-18140D01*
X25176Y-22434D02*
X25176Y-18654D01*
X24230Y-23380D02*
X25176Y-22434D01*
X24088Y-23982D02*
X24088Y-29912D01*
X25034Y-18446D02*
X25034Y-18588D01*
X25340Y-18140D02*
X25034Y-18446D01*
X24088Y-29912D02*
X24000Y-30000D01*
X24088Y-23982D02*
X24088Y-23322D01*
X24088Y-23322D02*
X25034Y-22376D01*
X25034Y-18588D02*
X25034Y-22376D01*
X23946Y-23924D02*
X23946Y-29054D01*
X24892Y-18218D02*
X25000Y-18110D01*
X24892Y-18264D02*
X24892Y-18218D01*
X23946Y-29054D02*
X23000Y-30000D01*
X23946Y-23924D02*
X23946Y-23264D01*
X23946Y-23264D02*
X24892Y-22318D01*
X24892Y-18264D02*
X24892Y-22318D01*
X22210Y-15500D02*
X23310Y-16600D01*
X21770Y-15500D02*
X22210Y-15500D01*
X21520Y-15750D02*
X21770Y-15500D01*
X21520Y-16630D02*
X21520Y-15750D01*
X19974Y-18176D02*
X21520Y-16630D01*
X17594Y-18176D02*
X19974Y-18176D01*
X17238Y-18532D02*
X17594Y-18176D01*
X17238Y-22402D02*
X17238Y-18532D01*
X16305Y-23335D02*
X17238Y-22402D01*
X16145Y-23335D02*
X16305Y-23335D01*
X15730Y-23750D02*
X16145Y-23335D01*
X17380Y-22460D02*
X16240Y-23600D01*
X17380Y-18590D02*
X17380Y-22460D01*
X17652Y-18318D02*
X17380Y-18590D01*
X20032Y-18318D02*
X17652Y-18318D01*
X21830Y-16520D02*
X20032Y-18318D01*
X22680Y-16520D02*
X21830Y-16520D01*
X18630Y-18710D02*
X17650Y-18710D01*
X18640Y-18700D02*
X18630Y-18710D01*
X18060Y-19300D02*
X17630Y-19300D01*
X18360Y-19000D02*
X18060Y-19300D01*
X31160Y-18160D02*
X31990Y-18160D01*
X31130Y-18130D02*
X31160Y-18160D01*
X39260Y-18880D02*
X39260Y-19082D01*
X39260Y-19082D02*
X39082Y-19260D01*
X39082Y-19260D02*
X37380Y-19260D01*
X37380Y-19260D02*
X36595Y-18475D01*
X36595Y-18475D02*
X36280Y-18160D01*
X36280Y-18160D02*
X31990Y-18160D01*
X26510Y-11490D02*
X27000Y-11000D01*
X25710Y-11490D02*
X26510Y-11490D01*
X25284Y-11916D02*
X25710Y-11490D01*
X25284Y-16944D02*
X25284Y-11916D01*
X25590Y-17250D02*
X25284Y-16944D01*
X19426Y-18744D02*
X19916Y-18744D01*
X18300Y-19870D02*
X19426Y-18744D01*
X18300Y-19870D02*
X18300Y-26750D01*
X16090Y-28960D02*
X18300Y-26750D01*
X15800Y-29250D02*
X16090Y-28960D01*
X23050Y-17670D02*
X23050Y-17770D01*
X23050Y-17770D02*
X23502Y-18222D01*
X23502Y-18222D02*
X23502Y-18558D01*
X23502Y-18558D02*
X23288Y-18772D01*
X23288Y-18772D02*
X22778Y-18772D01*
X22778Y-18772D02*
X22750Y-18744D01*
X22750Y-18744D02*
X19916Y-18744D01*
X25142Y-11858D02*
X26000Y-11000D01*
X25142Y-17362D02*
X25142Y-11858D01*
X25270Y-17490D02*
X25142Y-17362D01*
X15960Y-28890D02*
X15710Y-28890D01*
X18158Y-26692D02*
X15960Y-28890D01*
X18158Y-19812D02*
X18158Y-26692D01*
X19368Y-18602D02*
X18158Y-19812D01*
X19840Y-18602D02*
X19368Y-18602D01*
X22940Y-18060D02*
X23140Y-18060D01*
X23140Y-18060D02*
X23360Y-18280D01*
X23360Y-18280D02*
X23360Y-18500D01*
X23360Y-18500D02*
X23230Y-18630D01*
X23230Y-18630D02*
X22976Y-18630D01*
X22976Y-18630D02*
X22948Y-18602D01*
X22948Y-18602D02*
X19840Y-18602D01*
X25000Y-17730D02*
X25000Y-11000D01*
X15871Y-28581D02*
X15800Y-28510D01*
X16069Y-28581D02*
X15871Y-28581D01*
X18016Y-26634D02*
X16069Y-28581D01*
X23070Y-18460D02*
X19790Y-18460D01*
X23120Y-18410D02*
X23070Y-18460D01*
X23120Y-18390D02*
X23120Y-18410D01*
X19790Y-18460D02*
X19310Y-18460D01*
X19310Y-18460D02*
X18016Y-19754D01*
X18016Y-19754D02*
X18016Y-26634D01*
G54D17*
X14830Y-16370D02*
X17190Y-16370D01*
X14304Y-16896D02*
X14830Y-16370D01*
X14304Y-16904D02*
X14304Y-16896D01*
G54D16*
X11090Y-14080D02*
X12100Y-14080D01*
X10410Y-13400D02*
X11090Y-14080D01*
M02*
