G04 (Genere par PCBnew (20080825c)) le 17/12/2010-15:33:38*
G01*
G70*
G90*
%MOIN*%
G04 Gerber Fmt 3.4, Leading zero omitted, Abs format*
%FSLAX34Y34*%
G04 APERTURE LIST*
%ADD10C,0.015000*%
%ADD11R,0.060000X0.060000*%
%ADD12C,0.060000*%
%ADD13C,0.035400*%
%ADD14C,0.027000*%
%ADD15C,0.036000*%
%ADD16C,0.008000*%
%ADD17C,0.026000*%
%ADD18C,0.010000*%
G04 APERTURE END LIST*
G54D10*
X49000Y-31000D02*
X11000Y-31000D01*
X11000Y-10000D02*
X49000Y-10000D01*
X50000Y-11000D02*
X50000Y-30000D01*
X10000Y-11000D02*
X10000Y-30000D01*
X10000Y-30000D02*
X10022Y-30208D01*
X10022Y-30208D02*
X10086Y-30407D01*
X10086Y-30407D02*
X10191Y-30588D01*
X10191Y-30588D02*
X10331Y-30743D01*
X10331Y-30743D02*
X10500Y-30866D01*
X10500Y-30866D02*
X10691Y-30951D01*
X10691Y-30951D02*
X10895Y-30995D01*
X10895Y-30995D02*
X11000Y-31000D01*
X49000Y-31000D02*
X49208Y-30978D01*
X49208Y-30978D02*
X49407Y-30914D01*
X49407Y-30914D02*
X49588Y-30809D01*
X49588Y-30809D02*
X49743Y-30669D01*
X49743Y-30669D02*
X49866Y-30500D01*
X49866Y-30500D02*
X49951Y-30309D01*
X49951Y-30309D02*
X49995Y-30105D01*
X49995Y-30105D02*
X50000Y-30000D01*
X50000Y-11000D02*
X49978Y-10792D01*
X49978Y-10792D02*
X49914Y-10593D01*
X49914Y-10593D02*
X49809Y-10412D01*
X49809Y-10412D02*
X49669Y-10257D01*
X49669Y-10257D02*
X49500Y-10134D01*
X49500Y-10134D02*
X49309Y-10049D01*
X49309Y-10049D02*
X49105Y-10005D01*
X49105Y-10005D02*
X49000Y-10000D01*
X11000Y-10000D02*
X10792Y-10022D01*
X10792Y-10022D02*
X10593Y-10086D01*
X10593Y-10086D02*
X10412Y-10191D01*
X10412Y-10191D02*
X10257Y-10331D01*
X10257Y-10331D02*
X10134Y-10500D01*
X10134Y-10500D02*
X10049Y-10691D01*
X10049Y-10691D02*
X10005Y-10895D01*
X10005Y-10895D02*
X10000Y-11000D01*
G54D11*
X14000Y-11000D03*
G54D12*
X13000Y-11000D03*
G54D11*
X20000Y-24000D03*
G54D12*
X19000Y-24000D03*
X20000Y-23000D03*
X19000Y-23000D03*
X20000Y-22000D03*
X19000Y-22000D03*
X20000Y-21000D03*
X19000Y-21000D03*
G54D11*
X22000Y-18000D03*
G54D12*
X22000Y-17000D03*
X22000Y-16000D03*
X22000Y-15000D03*
X22000Y-14000D03*
X22000Y-13000D03*
G54D11*
X46000Y-30000D03*
G54D12*
X38000Y-30000D03*
X45000Y-30000D03*
X37000Y-30000D03*
X44000Y-30000D03*
X36000Y-30000D03*
X43000Y-30000D03*
X35000Y-30000D03*
X42000Y-30000D03*
X34000Y-30000D03*
X41000Y-30000D03*
X33000Y-30000D03*
X40000Y-30000D03*
X32000Y-30000D03*
X39000Y-30000D03*
X31000Y-30000D03*
X30000Y-30000D03*
X29000Y-30000D03*
X28000Y-30000D03*
X27000Y-30000D03*
X26000Y-30000D03*
X25000Y-30000D03*
X24000Y-30000D03*
X23000Y-30000D03*
X22000Y-30000D03*
X21000Y-30000D03*
X20000Y-30000D03*
X19000Y-30000D03*
X18000Y-30000D03*
X17000Y-30000D03*
X16000Y-30000D03*
X15000Y-30000D03*
G54D11*
X49000Y-27982D03*
G54D12*
X48000Y-27982D03*
X49000Y-26982D03*
X48000Y-26982D03*
X49000Y-25982D03*
X48000Y-25982D03*
X49000Y-24982D03*
X48000Y-24982D03*
X49000Y-23982D03*
X48000Y-23982D03*
X49000Y-22982D03*
X48000Y-22982D03*
X49000Y-21982D03*
X48000Y-21982D03*
X49000Y-20982D03*
X48000Y-20982D03*
X49000Y-19982D03*
X48000Y-19982D03*
X49000Y-18982D03*
X48000Y-18982D03*
X49000Y-17982D03*
X48000Y-17982D03*
X49000Y-16982D03*
X48000Y-16982D03*
X49000Y-15982D03*
X48000Y-15982D03*
X49000Y-14982D03*
X48000Y-14982D03*
X49000Y-13982D03*
X48000Y-13982D03*
X49000Y-12982D03*
X48000Y-12982D03*
G54D11*
X47050Y-28000D03*
G54D12*
X47050Y-20000D03*
X47050Y-27000D03*
X47050Y-19000D03*
X47050Y-26000D03*
X47050Y-18000D03*
X47050Y-25000D03*
X47050Y-17000D03*
X47050Y-24000D03*
X47050Y-16000D03*
X47050Y-23000D03*
X47050Y-15000D03*
X47050Y-22000D03*
X47050Y-14000D03*
X47050Y-21000D03*
X47050Y-13000D03*
G54D11*
X46000Y-11000D03*
G54D12*
X38000Y-11000D03*
X45000Y-11000D03*
X37000Y-11000D03*
X44000Y-11000D03*
X36000Y-11000D03*
X43000Y-11000D03*
X35000Y-11000D03*
X42000Y-11000D03*
X34000Y-11000D03*
X41000Y-11000D03*
X33000Y-11000D03*
X40000Y-11000D03*
X32000Y-11000D03*
X39000Y-11000D03*
X31000Y-11000D03*
X30000Y-11000D03*
X29000Y-11000D03*
X28000Y-11000D03*
X27000Y-11000D03*
X26000Y-11000D03*
X25000Y-11000D03*
X24000Y-11000D03*
X23000Y-11000D03*
X22000Y-11000D03*
X21000Y-11000D03*
X20000Y-11000D03*
X19000Y-11000D03*
X18000Y-11000D03*
X17000Y-11000D03*
X16000Y-11000D03*
X15000Y-11000D03*
G54D13*
X11856Y-19414D03*
X11856Y-21146D03*
G54D14*
X40040Y-17220D03*
X34590Y-19450D03*
X34100Y-21190D03*
X40030Y-23870D03*
X22260Y-19260D03*
X18000Y-13340D03*
X14704Y-15984D03*
G54D15*
X16394Y-27643D03*
X20062Y-27013D03*
X18585Y-25459D03*
X13596Y-20912D03*
X12213Y-11930D03*
X13160Y-16821D03*
G54D14*
X23734Y-15656D03*
X22340Y-21540D03*
X22880Y-24570D03*
X14780Y-21100D03*
X14810Y-19900D03*
X14780Y-18100D03*
X17440Y-23440D03*
X11190Y-25300D03*
X27810Y-14780D03*
X38230Y-15120D03*
X27210Y-26580D03*
X26620Y-25710D03*
X30150Y-15310D03*
X33160Y-16190D03*
X30840Y-27310D03*
G54D15*
X35960Y-27500D03*
X32330Y-28150D03*
G54D14*
X30700Y-26120D03*
X34080Y-24280D03*
X22500Y-22560D03*
X33890Y-15850D03*
X33200Y-15560D03*
X29140Y-21480D03*
X26100Y-21400D03*
X20630Y-20850D03*
X22270Y-22260D03*
X35040Y-22760D03*
X40390Y-17080D03*
X39680Y-23860D03*
X34590Y-19090D03*
X33840Y-20930D03*
X22270Y-19650D03*
G54D15*
X18753Y-26957D03*
G54D14*
X20614Y-13946D03*
X16576Y-21350D03*
X23734Y-16052D03*
X22400Y-21930D03*
X14790Y-22300D03*
X27440Y-14800D03*
X11140Y-26170D03*
X23210Y-24550D03*
X37570Y-13200D03*
X39300Y-15760D03*
X27030Y-26300D03*
X29750Y-14790D03*
X32470Y-15850D03*
X25620Y-25410D03*
X33830Y-24040D03*
G54D15*
X14277Y-12689D03*
X16610Y-15110D03*
X12480Y-13960D03*
X23570Y-26910D03*
X20710Y-26520D03*
X10320Y-13980D03*
X13160Y-15010D03*
X17140Y-15600D03*
G54D14*
X16330Y-17500D03*
X24550Y-25430D03*
X45950Y-27110D03*
X24740Y-24200D03*
X45960Y-26740D03*
X24980Y-23910D03*
X45940Y-26400D03*
X25200Y-23640D03*
X25450Y-23360D03*
X45940Y-26030D03*
X23680Y-26000D03*
X23430Y-26250D03*
X23110Y-26510D03*
X37840Y-24190D03*
X26190Y-23370D03*
X37530Y-23920D03*
X26400Y-23100D03*
X37210Y-23620D03*
X26600Y-22830D03*
X36900Y-23360D03*
X26930Y-22720D03*
X36580Y-23110D03*
X27320Y-22630D03*
X43620Y-21690D03*
X27970Y-17380D03*
X36580Y-17500D03*
X28200Y-24250D03*
X28300Y-25390D03*
X28640Y-24250D03*
X28790Y-25420D03*
X29070Y-24250D03*
X29680Y-22080D03*
X28610Y-12990D03*
X30060Y-22070D03*
X28750Y-12660D03*
X28890Y-12360D03*
X30410Y-22080D03*
X30760Y-22080D03*
X29010Y-12040D03*
X31060Y-26060D03*
G54D15*
X33840Y-27020D03*
G54D14*
X31820Y-25340D03*
X31450Y-24110D03*
X31740Y-24280D03*
X40650Y-18890D03*
X35640Y-18960D03*
X40310Y-19040D03*
X35490Y-18660D03*
X35720Y-18400D03*
X39660Y-18890D03*
X35010Y-22220D03*
X39050Y-22020D03*
X36650Y-22020D03*
X27680Y-19430D03*
X36840Y-21740D03*
X39180Y-21710D03*
X34820Y-21950D03*
X27520Y-19140D03*
X11120Y-26590D03*
X45860Y-14960D03*
X37520Y-17810D03*
X27400Y-18820D03*
X41910Y-21960D03*
X26500Y-19070D03*
X33650Y-22030D03*
X26490Y-19980D03*
X29790Y-13690D03*
X27430Y-13690D03*
X25580Y-13690D03*
X23940Y-13690D03*
X21780Y-20520D03*
X45070Y-16070D03*
X44690Y-16040D03*
X21640Y-20840D03*
X24010Y-13320D03*
X25570Y-13340D03*
X27420Y-13340D03*
X30020Y-13340D03*
X28740Y-21340D03*
X26560Y-21370D03*
X33230Y-15210D03*
X33930Y-15460D03*
X17000Y-23940D03*
X17620Y-24560D03*
X20850Y-24920D03*
X22780Y-24920D03*
X23260Y-23150D03*
X38160Y-17810D03*
X26840Y-19260D03*
X37840Y-17620D03*
X27130Y-19070D03*
X40530Y-16720D03*
X38920Y-16720D03*
X33390Y-21800D03*
X33080Y-21920D03*
X31140Y-24270D03*
X30830Y-23960D03*
X29390Y-23890D03*
X43740Y-21360D03*
X36900Y-17770D03*
X31690Y-17320D03*
X43620Y-21010D03*
X37220Y-17640D03*
X31890Y-17040D03*
X42980Y-19730D03*
X41100Y-19580D03*
X35170Y-20650D03*
X43200Y-19400D03*
X35540Y-20510D03*
X41340Y-19810D03*
X43460Y-19110D03*
X35920Y-20420D03*
X41590Y-20060D03*
X43730Y-18870D03*
X36260Y-20310D03*
X41830Y-20340D03*
X41310Y-19060D03*
X36250Y-19280D03*
X35920Y-19180D03*
X40990Y-18930D03*
X38930Y-18890D03*
X30830Y-17910D03*
X38470Y-18850D03*
X30530Y-17710D03*
X42390Y-23250D03*
X43680Y-24540D03*
X29840Y-18950D03*
X45550Y-22070D03*
X43197Y-17715D03*
X30020Y-17810D03*
X45890Y-21950D03*
X29830Y-17470D03*
X41720Y-19060D03*
X29440Y-19300D03*
X34530Y-21710D03*
X29170Y-18770D03*
X34320Y-21440D03*
X43200Y-21880D03*
X28890Y-18490D03*
X42880Y-22090D03*
X28590Y-18270D03*
X42560Y-21880D03*
X28420Y-17930D03*
X42250Y-22100D03*
X28240Y-17600D03*
X25690Y-18010D03*
X25340Y-18140D03*
X25000Y-18110D03*
X23310Y-16600D03*
X15730Y-23750D03*
X16240Y-23600D03*
X22680Y-16520D03*
X17650Y-18710D03*
X18640Y-18700D03*
X17630Y-19300D03*
X18360Y-19000D03*
X31130Y-18130D03*
X39260Y-18880D03*
X25590Y-17250D03*
X15800Y-29250D03*
X23050Y-17670D03*
X25270Y-17490D03*
X15710Y-28890D03*
X22940Y-18060D03*
X25000Y-17730D03*
X15800Y-28510D03*
X23120Y-18390D03*
G54D15*
X14304Y-16904D03*
X17190Y-16370D03*
G54D14*
X12100Y-14080D03*
X10410Y-13400D03*
G54D16*
X40040Y-17220D02*
X40030Y-17220D01*
X34590Y-19450D02*
X34580Y-19450D01*
X34100Y-21190D02*
X34090Y-21180D01*
X40040Y-23860D02*
X40030Y-23870D01*
X40040Y-23860D02*
X40040Y-17220D01*
X21510Y-21540D02*
X22340Y-21540D01*
X22260Y-19260D02*
X21890Y-19260D01*
X21890Y-19260D02*
X21120Y-20030D01*
X21120Y-20030D02*
X21120Y-21150D01*
X21120Y-21150D02*
X21510Y-21540D01*
X16000Y-11340D02*
X18000Y-13340D01*
X16000Y-11340D02*
X16000Y-11000D01*
X14704Y-15984D02*
X14688Y-15984D01*
X18044Y-26000D02*
X18585Y-25459D01*
X17140Y-26000D02*
X18044Y-26000D01*
X16394Y-26746D02*
X17140Y-26000D01*
X16394Y-27643D02*
X16394Y-26746D01*
G54D17*
X20055Y-27006D02*
X20055Y-26985D01*
X20062Y-27013D02*
X20055Y-27006D01*
X18599Y-25445D02*
X18599Y-25431D01*
X18585Y-25459D02*
X18599Y-25445D01*
G54D16*
X13596Y-20912D02*
X13592Y-20912D01*
X13481Y-11519D02*
X14000Y-11000D01*
X12624Y-11519D02*
X13481Y-11519D01*
X12213Y-11930D02*
X12624Y-11519D01*
X14000Y-11000D02*
X15000Y-11000D01*
X15000Y-11000D02*
X16000Y-11000D01*
X21000Y-11000D02*
X21000Y-10764D01*
X16624Y-10376D02*
X16000Y-11000D01*
X20612Y-10376D02*
X16624Y-10376D01*
X21000Y-10764D02*
X20612Y-10376D01*
X22000Y-15000D02*
X22000Y-14000D01*
X21000Y-11000D02*
X21000Y-13000D01*
X21000Y-13000D02*
X22000Y-14000D01*
G54D17*
X13160Y-16821D02*
X13160Y-16814D01*
G54D16*
X13160Y-16821D02*
X13867Y-16821D01*
X13867Y-16821D02*
X14704Y-15984D01*
X12213Y-11930D02*
X12214Y-11930D01*
X12842Y-16503D02*
X13160Y-16821D01*
X12842Y-12558D02*
X12842Y-16503D01*
X12214Y-11930D02*
X12842Y-12558D01*
X23078Y-15000D02*
X22000Y-15000D01*
X23734Y-15656D02*
X23078Y-15000D01*
X22340Y-21540D02*
X22230Y-21540D01*
X21910Y-23600D02*
X22880Y-24570D01*
X21910Y-21860D02*
X21910Y-23600D01*
X22230Y-21540D02*
X21910Y-21860D01*
X14592Y-20912D02*
X14780Y-21100D01*
X14592Y-20912D02*
X13596Y-20912D01*
X14810Y-19900D02*
X14800Y-19900D01*
X20062Y-27013D02*
X20062Y-26936D01*
X20062Y-26936D02*
X18585Y-25459D01*
X19000Y-24000D02*
X19000Y-25044D01*
X19000Y-25044D02*
X18585Y-25459D01*
X14810Y-19900D02*
X14810Y-21070D01*
X14810Y-21070D02*
X14780Y-21100D01*
X14704Y-18024D02*
X14704Y-15984D01*
X14780Y-18100D02*
X14704Y-18024D01*
X14780Y-18100D02*
X14780Y-19870D01*
X14780Y-19870D02*
X14810Y-19900D01*
G54D17*
X17440Y-23440D02*
X17440Y-23420D01*
G54D16*
X19000Y-24000D02*
X18000Y-24000D01*
X18000Y-24000D02*
X17440Y-23440D01*
X14780Y-21100D02*
X15100Y-21100D01*
X15100Y-21100D02*
X17440Y-23440D01*
X15000Y-30000D02*
X15000Y-28790D01*
X16147Y-27643D02*
X16394Y-27643D01*
X15000Y-28790D02*
X16147Y-27643D01*
X13290Y-21218D02*
X13596Y-20912D01*
X13290Y-23200D02*
X13290Y-21218D01*
X11190Y-25300D02*
X13290Y-23200D01*
X26154Y-15656D02*
X23734Y-15656D01*
X27810Y-14780D02*
X27560Y-14530D01*
X27560Y-14530D02*
X27280Y-14530D01*
X27280Y-14530D02*
X26154Y-15656D01*
X45000Y-11000D02*
X46000Y-11000D01*
X46000Y-11000D02*
X46780Y-11000D01*
X48000Y-12220D02*
X48000Y-12982D01*
X46780Y-11000D02*
X48000Y-12220D01*
X38000Y-11000D02*
X38070Y-11000D01*
X44390Y-10390D02*
X45000Y-11000D01*
X38680Y-10390D02*
X44390Y-10390D01*
X38070Y-11000D02*
X38680Y-10390D01*
X38000Y-14890D02*
X38000Y-11000D01*
X38230Y-15120D02*
X38000Y-14890D01*
X38230Y-15120D02*
X38230Y-15410D01*
X38230Y-15410D02*
X40040Y-17220D01*
X26620Y-25710D02*
X26550Y-25780D01*
X26840Y-26580D02*
X27210Y-26580D01*
X26550Y-26290D02*
X26840Y-26580D01*
X26550Y-25780D02*
X26550Y-26290D01*
X22880Y-24570D02*
X22880Y-24610D01*
X26510Y-25710D02*
X26620Y-25710D01*
X26140Y-26080D02*
X26510Y-25710D01*
X24350Y-26080D02*
X26140Y-26080D01*
X23980Y-25710D02*
X24350Y-26080D01*
X22880Y-24610D02*
X23980Y-25710D01*
X28330Y-15300D02*
X27810Y-14780D01*
X30140Y-15300D02*
X28330Y-15300D01*
X30150Y-15310D02*
X30140Y-15300D01*
X33160Y-16190D02*
X33150Y-16200D01*
X30150Y-15310D02*
X32280Y-15310D01*
X32280Y-15310D02*
X33160Y-16190D01*
X33160Y-16190D02*
X37160Y-16190D01*
X37160Y-16190D02*
X38230Y-15120D01*
X27210Y-26580D02*
X28110Y-26580D01*
X34480Y-29480D02*
X35000Y-30000D01*
X31010Y-29480D02*
X34480Y-29480D01*
X28110Y-26580D02*
X29830Y-28300D01*
X29830Y-28300D02*
X31010Y-29480D01*
X29830Y-28320D02*
X29830Y-28300D01*
X29840Y-28310D02*
X29830Y-28320D01*
X30840Y-27310D02*
X29840Y-28310D01*
X35310Y-28150D02*
X35960Y-27500D01*
X32330Y-28150D02*
X35310Y-28150D01*
X30700Y-26120D02*
X32330Y-27750D01*
X32330Y-27750D02*
X32330Y-28150D01*
X34100Y-21190D02*
X34100Y-21210D01*
X34080Y-21650D02*
X34080Y-24280D01*
X34020Y-21590D02*
X34080Y-21650D01*
X34020Y-21290D02*
X34020Y-21590D01*
X34100Y-21210D02*
X34020Y-21290D01*
X34100Y-21190D02*
X34100Y-19940D01*
X34100Y-19940D02*
X34590Y-19450D01*
X34080Y-24280D02*
X34080Y-24120D01*
X38750Y-22590D02*
X40030Y-23870D01*
X35610Y-22590D02*
X38750Y-22590D01*
X34080Y-24120D02*
X35610Y-22590D01*
X30840Y-27310D02*
X30840Y-27790D01*
X31200Y-28150D02*
X32330Y-28150D01*
X30840Y-27790D02*
X31200Y-28150D01*
X23734Y-15656D02*
X23594Y-15656D01*
X22610Y-18910D02*
X22260Y-19260D01*
X22610Y-17690D02*
X22610Y-18910D01*
X23010Y-17290D02*
X22610Y-17690D01*
X23010Y-16240D02*
X23010Y-17290D01*
X23594Y-15656D02*
X23010Y-16240D01*
X46000Y-30000D02*
X46000Y-29190D01*
X40680Y-23870D02*
X40030Y-23870D01*
X46000Y-29190D02*
X40680Y-23870D01*
X48000Y-20982D02*
X48000Y-20990D01*
X41180Y-22720D02*
X40030Y-23870D01*
X43900Y-22720D02*
X41180Y-22720D01*
X45120Y-21500D02*
X43900Y-22720D01*
X47490Y-21500D02*
X45120Y-21500D01*
X48000Y-20990D02*
X47490Y-21500D01*
X15000Y-11000D02*
X14490Y-11000D01*
X15000Y-11000D02*
X15000Y-10490D01*
X15000Y-11000D02*
X15510Y-11000D01*
X15000Y-11000D02*
X15000Y-11510D01*
X16000Y-11000D02*
X15490Y-11000D01*
X16000Y-11000D02*
X16000Y-10490D01*
X16000Y-11000D02*
X16510Y-11000D01*
X16000Y-11000D02*
X16000Y-11510D01*
X21000Y-11000D02*
X20490Y-11000D01*
X21000Y-11000D02*
X21000Y-10490D01*
X21000Y-11000D02*
X21510Y-11000D01*
X21000Y-11000D02*
X21000Y-11510D01*
X45000Y-11000D02*
X44490Y-11000D01*
X45000Y-11000D02*
X45000Y-10490D01*
X45000Y-11000D02*
X45510Y-11000D01*
X45000Y-11000D02*
X45000Y-11510D01*
X38000Y-11000D02*
X37490Y-11000D01*
X38000Y-11000D02*
X38000Y-10490D01*
X38000Y-11000D02*
X38510Y-11000D01*
X38000Y-11000D02*
X38000Y-11510D01*
X46000Y-11000D02*
X45490Y-11000D01*
X46000Y-11000D02*
X46000Y-10490D01*
X46000Y-11000D02*
X46510Y-11000D01*
X46000Y-11000D02*
X46000Y-11510D01*
X48000Y-12982D02*
X48000Y-12472D01*
X48000Y-12982D02*
X48510Y-12982D01*
X48000Y-12982D02*
X48000Y-13492D01*
X48000Y-20982D02*
X48000Y-20472D01*
X48000Y-20982D02*
X48510Y-20982D01*
X48000Y-20982D02*
X48000Y-21492D01*
X15000Y-30000D02*
X14490Y-30000D01*
X15000Y-30000D02*
X15000Y-29490D01*
X15000Y-30000D02*
X15510Y-30000D01*
X15000Y-30000D02*
X15000Y-30510D01*
X35000Y-30000D02*
X34490Y-30000D01*
X35000Y-30000D02*
X35510Y-30000D01*
X46000Y-30000D02*
X46000Y-29490D01*
X46000Y-30000D02*
X46510Y-30000D01*
X46000Y-30000D02*
X46000Y-30510D01*
X22000Y-14000D02*
X22000Y-13490D01*
X22000Y-14000D02*
X22510Y-14000D01*
X22000Y-14000D02*
X22000Y-14510D01*
X22000Y-14000D02*
X21490Y-14000D01*
X22000Y-15000D02*
X22000Y-14490D01*
X22000Y-15000D02*
X22510Y-15000D01*
X22000Y-15000D02*
X22000Y-15510D01*
X22000Y-15000D02*
X21490Y-15000D01*
X19000Y-24000D02*
X19000Y-23490D01*
X19000Y-24000D02*
X19510Y-24000D01*
X19000Y-24000D02*
X19000Y-24510D01*
X19000Y-24000D02*
X18490Y-24000D01*
X14000Y-11000D02*
X13490Y-11000D01*
X14000Y-11000D02*
X14000Y-10490D01*
X14000Y-11000D02*
X14510Y-11000D01*
X14000Y-11000D02*
X14000Y-11510D01*
G54D18*
X49700Y-10800D02*
X49700Y-30200D01*
X49600Y-10600D02*
X49600Y-30400D01*
X49500Y-10500D02*
X49500Y-30500D01*
X49400Y-28500D02*
X49400Y-30600D01*
X49400Y-27300D02*
X49400Y-27500D01*
X49400Y-26300D02*
X49400Y-26700D01*
X49400Y-25300D02*
X49400Y-25700D01*
X49400Y-24300D02*
X49400Y-24700D01*
X49400Y-23300D02*
X49400Y-23700D01*
X49400Y-22300D02*
X49400Y-22700D01*
X49400Y-21300D02*
X49400Y-21700D01*
X49400Y-20300D02*
X49400Y-20700D01*
X49400Y-19300D02*
X49400Y-19700D01*
X49400Y-18300D02*
X49400Y-18700D01*
X49400Y-17300D02*
X49400Y-17700D01*
X49400Y-16300D02*
X49400Y-16700D01*
X49400Y-15300D02*
X49400Y-15700D01*
X49400Y-14300D02*
X49400Y-14700D01*
X49400Y-13300D02*
X49400Y-13700D01*
X49400Y-10400D02*
X49400Y-12700D01*
X49300Y-28500D02*
X49300Y-30600D01*
X49300Y-27400D02*
X49300Y-27500D01*
X49300Y-26400D02*
X49300Y-26600D01*
X49300Y-25400D02*
X49300Y-25600D01*
X49300Y-24400D02*
X49300Y-24600D01*
X49300Y-23400D02*
X49300Y-23600D01*
X49300Y-22400D02*
X49300Y-22600D01*
X49300Y-21400D02*
X49300Y-21600D01*
X49300Y-20400D02*
X49300Y-20600D01*
X49300Y-19400D02*
X49300Y-19600D01*
X49300Y-18400D02*
X49300Y-18600D01*
X49300Y-17400D02*
X49300Y-17600D01*
X49300Y-16400D02*
X49300Y-16600D01*
X49300Y-15400D02*
X49300Y-15600D01*
X49300Y-14400D02*
X49300Y-14600D01*
X49300Y-13400D02*
X49300Y-13600D01*
X49300Y-10400D02*
X49300Y-12600D01*
X49200Y-28500D02*
X49200Y-30700D01*
X49200Y-27400D02*
X49200Y-27500D01*
X49200Y-26400D02*
X49200Y-26500D01*
X49200Y-25400D02*
X49200Y-25500D01*
X49200Y-24400D02*
X49200Y-24500D01*
X49200Y-23400D02*
X49200Y-23500D01*
X49200Y-22400D02*
X49200Y-22500D01*
X49200Y-21400D02*
X49200Y-21500D01*
X49200Y-20400D02*
X49200Y-20500D01*
X49200Y-19400D02*
X49200Y-19500D01*
X49200Y-18400D02*
X49200Y-18500D01*
X49200Y-17400D02*
X49200Y-17500D01*
X49200Y-16400D02*
X49200Y-16500D01*
X49200Y-15400D02*
X49200Y-15500D01*
X49200Y-14400D02*
X49200Y-14500D01*
X49200Y-13400D02*
X49200Y-13500D01*
X49200Y-10300D02*
X49200Y-12500D01*
X49100Y-28500D02*
X49100Y-30700D01*
X49100Y-10300D02*
X49100Y-12500D01*
X49000Y-28500D02*
X49000Y-30700D01*
X49000Y-10300D02*
X49000Y-12500D01*
X48900Y-28500D02*
X48900Y-30700D01*
X48900Y-10300D02*
X48900Y-12500D01*
X48800Y-28500D02*
X48800Y-30700D01*
X48800Y-27400D02*
X48800Y-27500D01*
X48800Y-26400D02*
X48800Y-26500D01*
X48800Y-25400D02*
X48800Y-25500D01*
X48800Y-24400D02*
X48800Y-24500D01*
X48800Y-23400D02*
X48800Y-23500D01*
X48800Y-22400D02*
X48800Y-22500D01*
X48800Y-21400D02*
X48800Y-21500D01*
X48800Y-20400D02*
X48800Y-20500D01*
X48800Y-19400D02*
X48800Y-19500D01*
X48800Y-18400D02*
X48800Y-18500D01*
X48800Y-17400D02*
X48800Y-17500D01*
X48800Y-16400D02*
X48800Y-16500D01*
X48800Y-15400D02*
X48800Y-15500D01*
X48800Y-14400D02*
X48800Y-14500D01*
X48800Y-13400D02*
X48800Y-13500D01*
X48800Y-10300D02*
X48800Y-12500D01*
X48700Y-28500D02*
X48700Y-30700D01*
X48700Y-27400D02*
X48700Y-27500D01*
X48700Y-26400D02*
X48700Y-26600D01*
X48700Y-25400D02*
X48700Y-25600D01*
X48700Y-24400D02*
X48700Y-24600D01*
X48700Y-23400D02*
X48700Y-23600D01*
X48700Y-22400D02*
X48700Y-22600D01*
X48700Y-21400D02*
X48700Y-21600D01*
X48700Y-20400D02*
X48700Y-20600D01*
X48700Y-19400D02*
X48700Y-19600D01*
X48700Y-18400D02*
X48700Y-18600D01*
X48700Y-17400D02*
X48700Y-17600D01*
X48700Y-16400D02*
X48700Y-16600D01*
X48700Y-15400D02*
X48700Y-15600D01*
X48700Y-14400D02*
X48700Y-14600D01*
X48700Y-13400D02*
X48700Y-13600D01*
X48700Y-10300D02*
X48700Y-12600D01*
X48600Y-28500D02*
X48600Y-30700D01*
X48600Y-27300D02*
X48600Y-27500D01*
X48600Y-26300D02*
X48600Y-26700D01*
X48600Y-25300D02*
X48600Y-25700D01*
X48600Y-24300D02*
X48600Y-24700D01*
X48600Y-23300D02*
X48600Y-23700D01*
X48600Y-22300D02*
X48600Y-22700D01*
X48600Y-21300D02*
X48600Y-21700D01*
X48600Y-20300D02*
X48600Y-20700D01*
X48600Y-19300D02*
X48600Y-19700D01*
X48600Y-18300D02*
X48600Y-18700D01*
X48600Y-17300D02*
X48600Y-17700D01*
X48600Y-16300D02*
X48600Y-16700D01*
X48600Y-15300D02*
X48600Y-15700D01*
X48600Y-14300D02*
X48600Y-14700D01*
X48600Y-13300D02*
X48600Y-13700D01*
X48600Y-10300D02*
X48600Y-12700D01*
X48500Y-10300D02*
X48500Y-30700D01*
X48400Y-28300D02*
X48400Y-30700D01*
X48400Y-27300D02*
X48400Y-27700D01*
X48400Y-26300D02*
X48400Y-26700D01*
X48400Y-25300D02*
X48400Y-25700D01*
X48400Y-24300D02*
X48400Y-24700D01*
X48400Y-23300D02*
X48400Y-23700D01*
X48400Y-22300D02*
X48400Y-22700D01*
X48400Y-21300D02*
X48400Y-21700D01*
X48400Y-20300D02*
X48400Y-20700D01*
X48400Y-19300D02*
X48400Y-19700D01*
X48400Y-18300D02*
X48400Y-18700D01*
X48400Y-17300D02*
X48400Y-17700D01*
X48400Y-16300D02*
X48400Y-16700D01*
X48400Y-15300D02*
X48400Y-15700D01*
X48400Y-14300D02*
X48400Y-14700D01*
X48400Y-13300D02*
X48400Y-13700D01*
X48400Y-10300D02*
X48400Y-12700D01*
X48300Y-28400D02*
X48300Y-30700D01*
X48300Y-27400D02*
X48300Y-27600D01*
X48300Y-26400D02*
X48300Y-26600D01*
X48300Y-25400D02*
X48300Y-25600D01*
X48300Y-24400D02*
X48300Y-24600D01*
X48300Y-23400D02*
X48300Y-23600D01*
X48300Y-22400D02*
X48300Y-22600D01*
X48300Y-21400D02*
X48300Y-21600D01*
X48300Y-20400D02*
X48300Y-20600D01*
X48300Y-19400D02*
X48300Y-19600D01*
X48300Y-18400D02*
X48300Y-18600D01*
X48300Y-17400D02*
X48300Y-17600D01*
X48300Y-16400D02*
X48300Y-16600D01*
X48300Y-15400D02*
X48300Y-15600D01*
X48300Y-14400D02*
X48300Y-14600D01*
X48300Y-13400D02*
X48300Y-13600D01*
X48300Y-10300D02*
X48300Y-12600D01*
X48200Y-28400D02*
X48200Y-30700D01*
X48200Y-27400D02*
X48200Y-27500D01*
X48200Y-26400D02*
X48200Y-26500D01*
X48200Y-25400D02*
X48200Y-25500D01*
X48200Y-24400D02*
X48200Y-24500D01*
X48200Y-23400D02*
X48200Y-23500D01*
X48200Y-22400D02*
X48200Y-22500D01*
X48200Y-21400D02*
X48200Y-21500D01*
X48200Y-20400D02*
X48200Y-20500D01*
X48200Y-19400D02*
X48200Y-19500D01*
X48200Y-18400D02*
X48200Y-18500D01*
X48200Y-17400D02*
X48200Y-17500D01*
X48200Y-16400D02*
X48200Y-16500D01*
X48200Y-15400D02*
X48200Y-15500D01*
X48200Y-14400D02*
X48200Y-14500D01*
X48200Y-13400D02*
X48200Y-13500D01*
X48200Y-10300D02*
X48200Y-12500D01*
X48100Y-28500D02*
X48100Y-30700D01*
X48100Y-10300D02*
X48100Y-12500D01*
X48000Y-28500D02*
X48000Y-30700D01*
X48000Y-10300D02*
X48000Y-12500D01*
X47900Y-28500D02*
X47900Y-30700D01*
X47900Y-10300D02*
X47900Y-12500D01*
X47800Y-28400D02*
X47800Y-30700D01*
X47800Y-27400D02*
X47800Y-27500D01*
X47800Y-26400D02*
X47800Y-26500D01*
X47800Y-25400D02*
X47800Y-25500D01*
X47800Y-24400D02*
X47800Y-24500D01*
X47800Y-23400D02*
X47800Y-23500D01*
X47800Y-22400D02*
X47800Y-22500D01*
X47800Y-21400D02*
X47800Y-21500D01*
X47800Y-20400D02*
X47800Y-20500D01*
X47800Y-19400D02*
X47800Y-19500D01*
X47800Y-18400D02*
X47800Y-18500D01*
X47800Y-17400D02*
X47800Y-17500D01*
X47800Y-16400D02*
X47800Y-16500D01*
X47800Y-15400D02*
X47800Y-15500D01*
X47800Y-14400D02*
X47800Y-14500D01*
X47800Y-13400D02*
X47800Y-13500D01*
X47800Y-10300D02*
X47800Y-12500D01*
X47700Y-28400D02*
X47700Y-30700D01*
X47700Y-27400D02*
X47700Y-27600D01*
X47700Y-26400D02*
X47700Y-26600D01*
X47700Y-25400D02*
X47700Y-25600D01*
X47700Y-24400D02*
X47700Y-24600D01*
X47700Y-23400D02*
X47700Y-23600D01*
X47700Y-22400D02*
X47700Y-22600D01*
X47700Y-21400D02*
X47700Y-21600D01*
X47700Y-20400D02*
X47700Y-20600D01*
X47700Y-19400D02*
X47700Y-19600D01*
X47700Y-18400D02*
X47700Y-18600D01*
X47700Y-17400D02*
X47700Y-17600D01*
X47700Y-16400D02*
X47700Y-16600D01*
X47700Y-15400D02*
X47700Y-15600D01*
X47700Y-14400D02*
X47700Y-14600D01*
X47700Y-13400D02*
X47700Y-13600D01*
X47700Y-10300D02*
X47700Y-12600D01*
X47600Y-28300D02*
X47600Y-30700D01*
X47600Y-27300D02*
X47600Y-27700D01*
X47600Y-26300D02*
X47600Y-26700D01*
X47600Y-25300D02*
X47600Y-25700D01*
X47600Y-24300D02*
X47600Y-24700D01*
X47600Y-23300D02*
X47600Y-23700D01*
X47600Y-22300D02*
X47600Y-22700D01*
X47600Y-21300D02*
X47600Y-21700D01*
X47600Y-20300D02*
X47600Y-20700D01*
X47600Y-19300D02*
X47600Y-19700D01*
X47600Y-18300D02*
X47600Y-18700D01*
X47600Y-17300D02*
X47600Y-17700D01*
X47600Y-16300D02*
X47600Y-16700D01*
X47600Y-15300D02*
X47600Y-15700D01*
X47600Y-14300D02*
X47600Y-14700D01*
X47600Y-13300D02*
X47600Y-13700D01*
X47600Y-10300D02*
X47600Y-12700D01*
X47500Y-28500D02*
X47500Y-30700D01*
X47500Y-27100D02*
X47500Y-27500D01*
X47500Y-26100D02*
X47500Y-26900D01*
X47500Y-25100D02*
X47500Y-25900D01*
X47500Y-24100D02*
X47500Y-24900D01*
X47500Y-23100D02*
X47500Y-23900D01*
X47500Y-22100D02*
X47500Y-22900D01*
X47500Y-21100D02*
X47500Y-21900D01*
X47500Y-20100D02*
X47500Y-20900D01*
X47500Y-19100D02*
X47500Y-19900D01*
X47500Y-18100D02*
X47500Y-18900D01*
X47500Y-17100D02*
X47500Y-17900D01*
X47500Y-16100D02*
X47500Y-16900D01*
X47500Y-15100D02*
X47500Y-15900D01*
X47500Y-14100D02*
X47500Y-14900D01*
X47500Y-13100D02*
X47500Y-13900D01*
X47500Y-10300D02*
X47500Y-12900D01*
X47400Y-28500D02*
X47400Y-30700D01*
X47400Y-27300D02*
X47400Y-27500D01*
X47400Y-26300D02*
X47400Y-26700D01*
X47400Y-25300D02*
X47400Y-25700D01*
X47400Y-24300D02*
X47400Y-24700D01*
X47400Y-23300D02*
X47400Y-23700D01*
X47400Y-22300D02*
X47400Y-22700D01*
X47400Y-21300D02*
X47400Y-21700D01*
X47400Y-20300D02*
X47400Y-20700D01*
X47400Y-19300D02*
X47400Y-19700D01*
X47400Y-18300D02*
X47400Y-18700D01*
X47400Y-17300D02*
X47400Y-17700D01*
X47400Y-16300D02*
X47400Y-16700D01*
X47400Y-15300D02*
X47400Y-15700D01*
X47400Y-14300D02*
X47400Y-14700D01*
X47400Y-13300D02*
X47400Y-13700D01*
X47400Y-10300D02*
X47400Y-12700D01*
X47300Y-28500D02*
X47300Y-30700D01*
X47300Y-27400D02*
X47300Y-27500D01*
X47300Y-26400D02*
X47300Y-26600D01*
X47300Y-25400D02*
X47300Y-25600D01*
X47300Y-24400D02*
X47300Y-24600D01*
X47300Y-23400D02*
X47300Y-23600D01*
X47300Y-22400D02*
X47300Y-22600D01*
X47300Y-21400D02*
X47300Y-21600D01*
X47300Y-20400D02*
X47300Y-20600D01*
X47300Y-19400D02*
X47300Y-19600D01*
X47300Y-18400D02*
X47300Y-18600D01*
X47300Y-17400D02*
X47300Y-17600D01*
X47300Y-16400D02*
X47300Y-16600D01*
X47300Y-15400D02*
X47300Y-15600D01*
X47300Y-14400D02*
X47300Y-14600D01*
X47300Y-13400D02*
X47300Y-13600D01*
X47300Y-10300D02*
X47300Y-12600D01*
X47200Y-28500D02*
X47200Y-30700D01*
X47200Y-10300D02*
X47200Y-12500D01*
X47100Y-28500D02*
X47100Y-30700D01*
X47100Y-10300D02*
X47100Y-12500D01*
X47000Y-28500D02*
X47000Y-30700D01*
X47000Y-10300D02*
X47000Y-12500D01*
X46900Y-28500D02*
X46900Y-30700D01*
X46900Y-10300D02*
X46900Y-12500D01*
X46800Y-28500D02*
X46800Y-30700D01*
X46800Y-27400D02*
X46800Y-27500D01*
X46800Y-26400D02*
X46800Y-26600D01*
X46800Y-25400D02*
X46800Y-25600D01*
X46800Y-24400D02*
X46800Y-24600D01*
X46800Y-23400D02*
X46800Y-23600D01*
X46800Y-22400D02*
X46800Y-22600D01*
X46800Y-21400D02*
X46800Y-21600D01*
X46800Y-20400D02*
X46800Y-20600D01*
X46800Y-19400D02*
X46800Y-19600D01*
X46800Y-18400D02*
X46800Y-18600D01*
X46800Y-17400D02*
X46800Y-17600D01*
X46800Y-16400D02*
X46800Y-16600D01*
X46800Y-15400D02*
X46800Y-15600D01*
X46800Y-14400D02*
X46800Y-14600D01*
X46800Y-13400D02*
X46800Y-13600D01*
X46800Y-10300D02*
X46800Y-12600D01*
X46700Y-28500D02*
X46700Y-30700D01*
X46700Y-27300D02*
X46700Y-27500D01*
X46700Y-26300D02*
X46700Y-26700D01*
X46700Y-25300D02*
X46700Y-25700D01*
X46700Y-24300D02*
X46700Y-24700D01*
X46700Y-23300D02*
X46700Y-23700D01*
X46700Y-22300D02*
X46700Y-22700D01*
X46700Y-21300D02*
X46700Y-21700D01*
X46700Y-20300D02*
X46700Y-20700D01*
X46700Y-19300D02*
X46700Y-19700D01*
X46700Y-18300D02*
X46700Y-18700D01*
X46700Y-17300D02*
X46700Y-17700D01*
X46700Y-16300D02*
X46700Y-16700D01*
X46700Y-15300D02*
X46700Y-15700D01*
X46700Y-14300D02*
X46700Y-14700D01*
X46700Y-13300D02*
X46700Y-13700D01*
X46700Y-10300D02*
X46700Y-12700D01*
X46600Y-28500D02*
X46600Y-30700D01*
X46600Y-27100D02*
X46600Y-27500D01*
X46600Y-26100D02*
X46600Y-26900D01*
X46600Y-25100D02*
X46600Y-25900D01*
X46600Y-24100D02*
X46600Y-24900D01*
X46600Y-23100D02*
X46600Y-23900D01*
X46600Y-22100D02*
X46600Y-22900D01*
X46600Y-21100D02*
X46600Y-21900D01*
X46600Y-20100D02*
X46600Y-20900D01*
X46600Y-19100D02*
X46600Y-19900D01*
X46600Y-18100D02*
X46600Y-18900D01*
X46600Y-17100D02*
X46600Y-17900D01*
X46600Y-16100D02*
X46600Y-16900D01*
X46600Y-15100D02*
X46600Y-15900D01*
X46600Y-14100D02*
X46600Y-14900D01*
X46600Y-13100D02*
X46600Y-13900D01*
X46600Y-10300D02*
X46600Y-12900D01*
X46500Y-10300D02*
X46500Y-30700D01*
X46400Y-30500D02*
X46400Y-30700D01*
X46400Y-11500D02*
X46400Y-29500D01*
X46400Y-10300D02*
X46400Y-10500D01*
X46300Y-30500D02*
X46300Y-30700D01*
X46300Y-11500D02*
X46300Y-29500D01*
X46300Y-10300D02*
X46300Y-10500D01*
X46200Y-30500D02*
X46200Y-30700D01*
X46200Y-27300D02*
X46200Y-29500D01*
X46200Y-11500D02*
X46200Y-25800D01*
X46200Y-10300D02*
X46200Y-10500D01*
X46100Y-30500D02*
X46100Y-30700D01*
X46100Y-27400D02*
X46100Y-29500D01*
X46100Y-22200D02*
X46100Y-25700D01*
X46100Y-15200D02*
X46100Y-21700D01*
X46100Y-11500D02*
X46100Y-14700D01*
X46100Y-10300D02*
X46100Y-10500D01*
X46000Y-30500D02*
X46000Y-30700D01*
X46000Y-27500D02*
X46000Y-29500D01*
X46000Y-22300D02*
X46000Y-25700D01*
X46000Y-15300D02*
X46000Y-21600D01*
X46000Y-11500D02*
X46000Y-14700D01*
X46000Y-10300D02*
X46000Y-10500D01*
X45900Y-27500D02*
X45900Y-29100D01*
X45900Y-22300D02*
X45900Y-25700D01*
X45900Y-15300D02*
X45900Y-21600D01*
X45900Y-11500D02*
X45900Y-14600D01*
X45900Y-10300D02*
X45900Y-10500D01*
X45800Y-27400D02*
X45800Y-29000D01*
X45800Y-22300D02*
X45800Y-25700D01*
X45800Y-15300D02*
X45800Y-21600D01*
X45800Y-11500D02*
X45800Y-14600D01*
X45800Y-10300D02*
X45800Y-10500D01*
X45700Y-27300D02*
X45700Y-28900D01*
X45700Y-22400D02*
X45700Y-25800D01*
X45700Y-15300D02*
X45700Y-21700D01*
X45700Y-11500D02*
X45700Y-14700D01*
X45700Y-10300D02*
X45700Y-10500D01*
X45600Y-22400D02*
X45600Y-28800D01*
X45600Y-15100D02*
X45600Y-21700D01*
X45600Y-11500D02*
X45600Y-14800D01*
X45600Y-10300D02*
X45600Y-10500D01*
X45500Y-22400D02*
X45500Y-28700D01*
X45500Y-10300D02*
X45500Y-21700D01*
X45400Y-30300D02*
X45400Y-30700D01*
X45400Y-29300D02*
X45400Y-29700D01*
X45400Y-22400D02*
X45400Y-28600D01*
X45400Y-11300D02*
X45400Y-21800D01*
X45400Y-10300D02*
X45400Y-10700D01*
X45300Y-30400D02*
X45300Y-30700D01*
X45300Y-29200D02*
X45300Y-29600D01*
X45300Y-22300D02*
X45300Y-28500D01*
X45300Y-16300D02*
X45300Y-21900D01*
X45300Y-11400D02*
X45300Y-15800D01*
X45300Y-10300D02*
X45300Y-10600D01*
X45200Y-30500D02*
X45200Y-30700D01*
X45200Y-29100D02*
X45200Y-29500D01*
X45200Y-16400D02*
X45200Y-28400D01*
X45200Y-11500D02*
X45200Y-15800D01*
X45200Y-10300D02*
X45200Y-10500D01*
X45100Y-30500D02*
X45100Y-30700D01*
X45100Y-29000D02*
X45100Y-29500D01*
X45100Y-16400D02*
X45100Y-28300D01*
X45100Y-11500D02*
X45100Y-15700D01*
X45100Y-10300D02*
X45100Y-10500D01*
X45000Y-30500D02*
X45000Y-30700D01*
X45000Y-28900D02*
X45000Y-29500D01*
X45000Y-16400D02*
X45000Y-28200D01*
X45000Y-11500D02*
X45000Y-15700D01*
X45000Y-10300D02*
X45000Y-10500D01*
X44900Y-30500D02*
X44900Y-30700D01*
X44900Y-28800D02*
X44900Y-29500D01*
X44900Y-16400D02*
X44900Y-28100D01*
X44900Y-11500D02*
X44900Y-15800D01*
X44900Y-10300D02*
X44900Y-10500D01*
X44800Y-30500D02*
X44800Y-30700D01*
X44800Y-28700D02*
X44800Y-29500D01*
X44800Y-16400D02*
X44800Y-28000D01*
X44800Y-11500D02*
X44800Y-15700D01*
X44800Y-10300D02*
X44800Y-10500D01*
X44700Y-30400D02*
X44700Y-30700D01*
X44700Y-28600D02*
X44700Y-29600D01*
X44700Y-16400D02*
X44700Y-27900D01*
X44700Y-11400D02*
X44700Y-15700D01*
X44700Y-10300D02*
X44700Y-10600D01*
X44600Y-30300D02*
X44600Y-30700D01*
X44600Y-28500D02*
X44600Y-29700D01*
X44600Y-16400D02*
X44600Y-27800D01*
X44600Y-11300D02*
X44600Y-15700D01*
X44600Y-10300D02*
X44600Y-10700D01*
X44500Y-28400D02*
X44500Y-30700D01*
X44500Y-16300D02*
X44500Y-27700D01*
X44500Y-10300D02*
X44500Y-15800D01*
X44400Y-30300D02*
X44400Y-30700D01*
X44400Y-28300D02*
X44400Y-29700D01*
X44400Y-16100D02*
X44400Y-27600D01*
X44400Y-11300D02*
X44400Y-15900D01*
X44400Y-10300D02*
X44400Y-10700D01*
X44300Y-30400D02*
X44300Y-30700D01*
X44300Y-28200D02*
X44300Y-29600D01*
X44300Y-11400D02*
X44300Y-27500D01*
X44300Y-10300D02*
X44300Y-10600D01*
X44200Y-30500D02*
X44200Y-30700D01*
X44200Y-28100D02*
X44200Y-29500D01*
X44200Y-11500D02*
X44200Y-27400D01*
X44200Y-10300D02*
X44200Y-10500D01*
X44100Y-30500D02*
X44100Y-30700D01*
X44100Y-28000D02*
X44100Y-29500D01*
X44100Y-11500D02*
X44100Y-27300D01*
X44100Y-10300D02*
X44100Y-10500D01*
X44000Y-30500D02*
X44000Y-30700D01*
X44000Y-27900D02*
X44000Y-29500D01*
X44000Y-21500D02*
X44000Y-27200D01*
X44000Y-19000D02*
X44000Y-21200D01*
X44000Y-11500D02*
X44000Y-18700D01*
X44000Y-10300D02*
X44000Y-10500D01*
X43900Y-30500D02*
X43900Y-30700D01*
X43900Y-27800D02*
X43900Y-29500D01*
X43900Y-24800D02*
X43900Y-27100D01*
X43900Y-21800D02*
X43900Y-24300D01*
X43900Y-19200D02*
X43900Y-20900D01*
X43900Y-11500D02*
X43900Y-18600D01*
X43900Y-10300D02*
X43900Y-10500D01*
X43800Y-30500D02*
X43800Y-30700D01*
X43800Y-27700D02*
X43800Y-29500D01*
X43800Y-24900D02*
X43800Y-27000D01*
X43800Y-22000D02*
X43800Y-24200D01*
X43800Y-19200D02*
X43800Y-20700D01*
X43800Y-11500D02*
X43800Y-18500D01*
X43800Y-10300D02*
X43800Y-10500D01*
X43700Y-30400D02*
X43700Y-30700D01*
X43700Y-27600D02*
X43700Y-29600D01*
X43700Y-24900D02*
X43700Y-27000D01*
X43700Y-22000D02*
X43700Y-24200D01*
X43700Y-19300D02*
X43700Y-20700D01*
X43700Y-11400D02*
X43700Y-18500D01*
X43700Y-10300D02*
X43700Y-10600D01*
X43600Y-30300D02*
X43600Y-30700D01*
X43600Y-27500D02*
X43600Y-29700D01*
X43600Y-24900D02*
X43600Y-26900D01*
X43600Y-22000D02*
X43600Y-24200D01*
X43600Y-19400D02*
X43600Y-20700D01*
X43600Y-11300D02*
X43600Y-18600D01*
X43600Y-10300D02*
X43600Y-10700D01*
X43500Y-27400D02*
X43500Y-30700D01*
X43500Y-24800D02*
X43500Y-26800D01*
X43500Y-22000D02*
X43500Y-24300D01*
X43500Y-19500D02*
X43500Y-20700D01*
X43500Y-10300D02*
X43500Y-18600D01*
X43400Y-30300D02*
X43400Y-30700D01*
X43400Y-27300D02*
X43400Y-29700D01*
X43400Y-24700D02*
X43400Y-26700D01*
X43400Y-22100D02*
X43400Y-24400D01*
X43400Y-21300D02*
X43400Y-21400D01*
X43400Y-19700D02*
X43400Y-20800D01*
X43400Y-18000D02*
X43400Y-18800D01*
X43400Y-11300D02*
X43400Y-17500D01*
X43400Y-10300D02*
X43400Y-10700D01*
X43300Y-30400D02*
X43300Y-30700D01*
X43300Y-27200D02*
X43300Y-29600D01*
X43300Y-22200D02*
X43300Y-26600D01*
X43300Y-19700D02*
X43300Y-21600D01*
X43300Y-18000D02*
X43300Y-18800D01*
X43300Y-11400D02*
X43300Y-17400D01*
X43300Y-10300D02*
X43300Y-10600D01*
X43200Y-30500D02*
X43200Y-30700D01*
X43200Y-27100D02*
X43200Y-29500D01*
X43200Y-22200D02*
X43200Y-26500D01*
X43200Y-20000D02*
X43200Y-21500D01*
X43200Y-18100D02*
X43200Y-18900D01*
X43200Y-11500D02*
X43200Y-17400D01*
X43200Y-10300D02*
X43200Y-10500D01*
X43100Y-30500D02*
X43100Y-30700D01*
X43100Y-27000D02*
X43100Y-29500D01*
X43100Y-22300D02*
X43100Y-26400D01*
X43100Y-20000D02*
X43100Y-21600D01*
X43100Y-18000D02*
X43100Y-19100D01*
X43100Y-11500D02*
X43100Y-17400D01*
X43100Y-10300D02*
X43100Y-10500D01*
X43000Y-30500D02*
X43000Y-30700D01*
X43000Y-26900D02*
X43000Y-29500D01*
X43000Y-22400D02*
X43000Y-26300D01*
X43000Y-20100D02*
X43000Y-21600D01*
X43000Y-18000D02*
X43000Y-19100D01*
X43000Y-11500D02*
X43000Y-17400D01*
X43000Y-10300D02*
X43000Y-10500D01*
X42900Y-30500D02*
X42900Y-30700D01*
X42900Y-26800D02*
X42900Y-29500D01*
X42900Y-22400D02*
X42900Y-26200D01*
X42900Y-20100D02*
X42900Y-21700D01*
X42900Y-11500D02*
X42900Y-19400D01*
X42900Y-10300D02*
X42900Y-10500D01*
X42800Y-30500D02*
X42800Y-30700D01*
X42800Y-26700D02*
X42800Y-29500D01*
X42800Y-22400D02*
X42800Y-26100D01*
X42800Y-20000D02*
X42800Y-21700D01*
X42800Y-11500D02*
X42800Y-19400D01*
X42800Y-10300D02*
X42800Y-10500D01*
X42700Y-30400D02*
X42700Y-30700D01*
X42700Y-26600D02*
X42700Y-29600D01*
X42700Y-22400D02*
X42700Y-26000D01*
X42700Y-19900D02*
X42700Y-21600D01*
X42700Y-11400D02*
X42700Y-19600D01*
X42700Y-10300D02*
X42700Y-10600D01*
X42600Y-30300D02*
X42600Y-30700D01*
X42600Y-26500D02*
X42600Y-29700D01*
X42600Y-23500D02*
X42600Y-25900D01*
X42600Y-22200D02*
X42600Y-23000D01*
X42600Y-11300D02*
X42600Y-21500D01*
X42600Y-10300D02*
X42600Y-10700D01*
X42500Y-26400D02*
X42500Y-30700D01*
X42500Y-23600D02*
X42500Y-25800D01*
X42500Y-22300D02*
X42500Y-22900D01*
X42500Y-10300D02*
X42500Y-21500D01*
X42400Y-30300D02*
X42400Y-30700D01*
X42400Y-26300D02*
X42400Y-29700D01*
X42400Y-23600D02*
X42400Y-25700D01*
X42400Y-22400D02*
X42400Y-22900D01*
X42400Y-11300D02*
X42400Y-21600D01*
X42400Y-10300D02*
X42400Y-10700D01*
X42300Y-30400D02*
X42300Y-30700D01*
X42300Y-26200D02*
X42300Y-29600D01*
X42300Y-23600D02*
X42300Y-25600D01*
X42300Y-22400D02*
X42300Y-22900D01*
X42300Y-11400D02*
X42300Y-21700D01*
X42300Y-10300D02*
X42300Y-10600D01*
X42200Y-30500D02*
X42200Y-30700D01*
X42200Y-26100D02*
X42200Y-29500D01*
X42200Y-23500D02*
X42200Y-25500D01*
X42200Y-22400D02*
X42200Y-23000D01*
X42200Y-11500D02*
X42200Y-21800D01*
X42200Y-10300D02*
X42200Y-10500D01*
X42100Y-30500D02*
X42100Y-30700D01*
X42100Y-26000D02*
X42100Y-29500D01*
X42100Y-23400D02*
X42100Y-25400D01*
X42100Y-22400D02*
X42100Y-23100D01*
X42100Y-20500D02*
X42100Y-21700D01*
X42100Y-11500D02*
X42100Y-20200D01*
X42100Y-10300D02*
X42100Y-10500D01*
X42000Y-30500D02*
X42000Y-30700D01*
X42000Y-25900D02*
X42000Y-29500D01*
X42000Y-22300D02*
X42000Y-25300D01*
X42000Y-20600D02*
X42000Y-21600D01*
X42000Y-19200D02*
X42000Y-20000D01*
X42000Y-11500D02*
X42000Y-18900D01*
X42000Y-10300D02*
X42000Y-10500D01*
X41900Y-30500D02*
X41900Y-30700D01*
X41900Y-25800D02*
X41900Y-29500D01*
X41900Y-22300D02*
X41900Y-25200D01*
X41900Y-20700D02*
X41900Y-21600D01*
X41900Y-19300D02*
X41900Y-20000D01*
X41900Y-11500D02*
X41900Y-18800D01*
X41900Y-10300D02*
X41900Y-10500D01*
X41800Y-30500D02*
X41800Y-30700D01*
X41800Y-25700D02*
X41800Y-29500D01*
X41800Y-22300D02*
X41800Y-25100D01*
X41800Y-20700D02*
X41800Y-21600D01*
X41800Y-19400D02*
X41800Y-19800D01*
X41800Y-11500D02*
X41800Y-18700D01*
X41800Y-10300D02*
X41800Y-10500D01*
X41700Y-30400D02*
X41700Y-30700D01*
X41700Y-25600D02*
X41700Y-29600D01*
X41700Y-22200D02*
X41700Y-25000D01*
X41700Y-20700D02*
X41700Y-21700D01*
X41700Y-19400D02*
X41700Y-19700D01*
X41700Y-11400D02*
X41700Y-18700D01*
X41700Y-10300D02*
X41700Y-10600D01*
X41600Y-30300D02*
X41600Y-30700D01*
X41600Y-25600D02*
X41600Y-29700D01*
X41600Y-20600D02*
X41600Y-25000D01*
X41600Y-19400D02*
X41600Y-19600D01*
X41600Y-11300D02*
X41600Y-18700D01*
X41600Y-10300D02*
X41600Y-10700D01*
X41500Y-25600D02*
X41500Y-30700D01*
X41500Y-20400D02*
X41500Y-25000D01*
X41500Y-19300D02*
X41500Y-19500D01*
X41500Y-10300D02*
X41500Y-18800D01*
X41400Y-30300D02*
X41400Y-30700D01*
X41400Y-25600D02*
X41400Y-29700D01*
X41400Y-20300D02*
X41400Y-25000D01*
X41400Y-19400D02*
X41400Y-19500D01*
X41400Y-11300D02*
X41400Y-18700D01*
X41400Y-10300D02*
X41400Y-10700D01*
X41300Y-30400D02*
X41300Y-30700D01*
X41300Y-25600D02*
X41300Y-29600D01*
X41300Y-20200D02*
X41300Y-25000D01*
X41300Y-11400D02*
X41300Y-18700D01*
X41300Y-10300D02*
X41300Y-10600D01*
X41200Y-30500D02*
X41200Y-30700D01*
X41200Y-25600D02*
X41200Y-29500D01*
X41200Y-20100D02*
X41200Y-25000D01*
X41200Y-11500D02*
X41200Y-18700D01*
X41200Y-10300D02*
X41200Y-10500D01*
X41100Y-30500D02*
X41100Y-30700D01*
X41100Y-25600D02*
X41100Y-29500D01*
X41100Y-20000D02*
X41100Y-25000D01*
X41100Y-11500D02*
X41100Y-18600D01*
X41100Y-10300D02*
X41100Y-10500D01*
X41000Y-30500D02*
X41000Y-30700D01*
X41000Y-25600D02*
X41000Y-29500D01*
X41000Y-19900D02*
X41000Y-25000D01*
X41000Y-11500D02*
X41000Y-18600D01*
X41000Y-10300D02*
X41000Y-10500D01*
X40900Y-30500D02*
X40900Y-30700D01*
X40900Y-25600D02*
X40900Y-29500D01*
X40900Y-19800D02*
X40900Y-25000D01*
X40900Y-11500D02*
X40900Y-18600D01*
X40900Y-10300D02*
X40900Y-10500D01*
X40800Y-30500D02*
X40800Y-30700D01*
X40800Y-25600D02*
X40800Y-29500D01*
X40800Y-19200D02*
X40800Y-25000D01*
X40800Y-16900D02*
X40800Y-18600D01*
X40800Y-11500D02*
X40800Y-16600D01*
X40800Y-10300D02*
X40800Y-10500D01*
X40700Y-30400D02*
X40700Y-30700D01*
X40700Y-25600D02*
X40700Y-29600D01*
X40700Y-19200D02*
X40700Y-25000D01*
X40700Y-17000D02*
X40700Y-18500D01*
X40700Y-11400D02*
X40700Y-16400D01*
X40700Y-10300D02*
X40700Y-10600D01*
X40600Y-30300D02*
X40600Y-30700D01*
X40600Y-25600D02*
X40600Y-29700D01*
X40600Y-19200D02*
X40600Y-25000D01*
X40600Y-17300D02*
X40600Y-18500D01*
X40600Y-11300D02*
X40600Y-16400D01*
X40600Y-10300D02*
X40600Y-10700D01*
X40500Y-25600D02*
X40500Y-30700D01*
X40500Y-19300D02*
X40500Y-25000D01*
X40500Y-17400D02*
X40500Y-18600D01*
X40500Y-10300D02*
X40500Y-16400D01*
X40400Y-30300D02*
X40400Y-30700D01*
X40400Y-25600D02*
X40400Y-29700D01*
X40400Y-19400D02*
X40400Y-25000D01*
X40400Y-17400D02*
X40400Y-18700D01*
X40400Y-11300D02*
X40400Y-16400D01*
X40400Y-10300D02*
X40400Y-10700D01*
X40300Y-30400D02*
X40300Y-30700D01*
X40300Y-25600D02*
X40300Y-29600D01*
X40300Y-19400D02*
X40300Y-25000D01*
X40300Y-17400D02*
X40300Y-18700D01*
X40300Y-11400D02*
X40300Y-16500D01*
X40300Y-10300D02*
X40300Y-10600D01*
X40200Y-30500D02*
X40200Y-30700D01*
X40200Y-25600D02*
X40200Y-29500D01*
X40200Y-19400D02*
X40200Y-25000D01*
X40200Y-17400D02*
X40200Y-18700D01*
X40200Y-11500D02*
X40200Y-16800D01*
X40200Y-10300D02*
X40200Y-10500D01*
X40100Y-30500D02*
X40100Y-30700D01*
X40100Y-25600D02*
X40100Y-29500D01*
X40100Y-19300D02*
X40100Y-25000D01*
X40100Y-17200D02*
X40100Y-18800D01*
X40100Y-11500D02*
X40100Y-17000D01*
X40100Y-10300D02*
X40100Y-10500D01*
X40000Y-30500D02*
X40000Y-30700D01*
X40000Y-25600D02*
X40000Y-29500D01*
X40000Y-11500D02*
X40000Y-25000D01*
X40000Y-10300D02*
X40000Y-10500D01*
X39900Y-30500D02*
X39900Y-30700D01*
X39900Y-25600D02*
X39900Y-29500D01*
X39900Y-24100D02*
X39900Y-25000D01*
X39900Y-19100D02*
X39900Y-23600D01*
X39900Y-11500D02*
X39900Y-18700D01*
X39900Y-10300D02*
X39900Y-10500D01*
X39800Y-30500D02*
X39800Y-30700D01*
X39800Y-25600D02*
X39800Y-29500D01*
X39800Y-24200D02*
X39800Y-25000D01*
X39800Y-19200D02*
X39800Y-23500D01*
X39800Y-11500D02*
X39800Y-18600D01*
X39800Y-10300D02*
X39800Y-10500D01*
X39700Y-30400D02*
X39700Y-30700D01*
X39700Y-25600D02*
X39700Y-29600D01*
X39700Y-24200D02*
X39700Y-25000D01*
X39700Y-19200D02*
X39700Y-23500D01*
X39700Y-11400D02*
X39700Y-18500D01*
X39700Y-10300D02*
X39700Y-10600D01*
X39600Y-30300D02*
X39600Y-30700D01*
X39600Y-25600D02*
X39600Y-29700D01*
X39600Y-24200D02*
X39600Y-25000D01*
X39600Y-19200D02*
X39600Y-23500D01*
X39600Y-11300D02*
X39600Y-18600D01*
X39600Y-10300D02*
X39600Y-10700D01*
X39500Y-25600D02*
X39500Y-30700D01*
X39500Y-24100D02*
X39500Y-25000D01*
X39500Y-19200D02*
X39500Y-23600D01*
X39500Y-16000D02*
X39500Y-18600D01*
X39500Y-10300D02*
X39500Y-15500D01*
X39400Y-30300D02*
X39400Y-30700D01*
X39400Y-25600D02*
X39400Y-29700D01*
X39400Y-24000D02*
X39400Y-25000D01*
X39400Y-22000D02*
X39400Y-23700D01*
X39400Y-19200D02*
X39400Y-21500D01*
X39400Y-16100D02*
X39400Y-18600D01*
X39400Y-11300D02*
X39400Y-15400D01*
X39400Y-10300D02*
X39400Y-10700D01*
X39300Y-30400D02*
X39300Y-30700D01*
X39300Y-25600D02*
X39300Y-29600D01*
X39300Y-22200D02*
X39300Y-25000D01*
X39300Y-19200D02*
X39300Y-21400D01*
X39300Y-16100D02*
X39300Y-18500D01*
X39300Y-11400D02*
X39300Y-15400D01*
X39300Y-10300D02*
X39300Y-10600D01*
X39200Y-30500D02*
X39200Y-30700D01*
X39200Y-25600D02*
X39200Y-29500D01*
X39200Y-22300D02*
X39200Y-25000D01*
X39200Y-19200D02*
X39200Y-21400D01*
X39200Y-16900D02*
X39200Y-18500D01*
X39200Y-16100D02*
X39200Y-16600D01*
X39200Y-11500D02*
X39200Y-15400D01*
X39200Y-10300D02*
X39200Y-10500D01*
X39100Y-30500D02*
X39100Y-30700D01*
X39100Y-25600D02*
X39100Y-29500D01*
X39100Y-22400D02*
X39100Y-25000D01*
X39100Y-19200D02*
X39100Y-21400D01*
X39100Y-17000D02*
X39100Y-18600D01*
X39100Y-16000D02*
X39100Y-16400D01*
X39100Y-11500D02*
X39100Y-15500D01*
X39100Y-10300D02*
X39100Y-10500D01*
X39000Y-30500D02*
X39000Y-30700D01*
X39000Y-25600D02*
X39000Y-29500D01*
X39000Y-22400D02*
X39000Y-25000D01*
X39000Y-19200D02*
X39000Y-21400D01*
X39000Y-17100D02*
X39000Y-18600D01*
X39000Y-11500D02*
X39000Y-16400D01*
X39000Y-10300D02*
X39000Y-10500D01*
X38900Y-30500D02*
X38900Y-30700D01*
X38900Y-25600D02*
X38900Y-29500D01*
X38900Y-22300D02*
X38900Y-25000D01*
X38900Y-19200D02*
X38900Y-21600D01*
X38900Y-17100D02*
X38900Y-18500D01*
X38900Y-11500D02*
X38900Y-16400D01*
X38900Y-10300D02*
X38900Y-10500D01*
X38800Y-30500D02*
X38800Y-30700D01*
X38800Y-25600D02*
X38800Y-29500D01*
X38800Y-22200D02*
X38800Y-25000D01*
X38800Y-19200D02*
X38800Y-21800D01*
X38800Y-17000D02*
X38800Y-18600D01*
X38800Y-11500D02*
X38800Y-16400D01*
X38800Y-10300D02*
X38800Y-10500D01*
X38700Y-30400D02*
X38700Y-30700D01*
X38700Y-25600D02*
X38700Y-29600D01*
X38700Y-19100D02*
X38700Y-25000D01*
X38700Y-17000D02*
X38700Y-18600D01*
X38700Y-11400D02*
X38700Y-16500D01*
X38700Y-10300D02*
X38700Y-10600D01*
X38600Y-30300D02*
X38600Y-30700D01*
X38600Y-25600D02*
X38600Y-29700D01*
X38600Y-19200D02*
X38600Y-25000D01*
X38600Y-11300D02*
X38600Y-18500D01*
X38600Y-10300D02*
X38600Y-10700D01*
X38500Y-25600D02*
X38500Y-30700D01*
X38500Y-19200D02*
X38500Y-25000D01*
X38500Y-10300D02*
X38500Y-18500D01*
X38400Y-30300D02*
X38400Y-30700D01*
X38400Y-25600D02*
X38400Y-29700D01*
X38400Y-19200D02*
X38400Y-25000D01*
X38400Y-18000D02*
X38400Y-18500D01*
X38400Y-11300D02*
X38400Y-17600D01*
X38400Y-10300D02*
X38400Y-10700D01*
X38300Y-30400D02*
X38300Y-30700D01*
X38300Y-25600D02*
X38300Y-29600D01*
X38300Y-19100D02*
X38300Y-25000D01*
X38300Y-18100D02*
X38300Y-18600D01*
X38300Y-11400D02*
X38300Y-17500D01*
X38300Y-10300D02*
X38300Y-10600D01*
X38200Y-30500D02*
X38200Y-30700D01*
X38200Y-25600D02*
X38200Y-29500D01*
X38200Y-19000D02*
X38200Y-25000D01*
X38200Y-18200D02*
X38200Y-18700D01*
X38200Y-11500D02*
X38200Y-17500D01*
X38200Y-10300D02*
X38200Y-10500D01*
X38100Y-30500D02*
X38100Y-30700D01*
X38100Y-25600D02*
X38100Y-29500D01*
X38100Y-24400D02*
X38100Y-25000D01*
X38100Y-18100D02*
X38100Y-24000D01*
X38100Y-11500D02*
X38100Y-17400D01*
X38100Y-10300D02*
X38100Y-10500D01*
X38000Y-30500D02*
X38000Y-30700D01*
X38000Y-25600D02*
X38000Y-29500D01*
X38000Y-24500D02*
X38000Y-25000D01*
X38000Y-18100D02*
X38000Y-23900D01*
X38000Y-11500D02*
X38000Y-17300D01*
X38000Y-10300D02*
X38000Y-10500D01*
X37900Y-30500D02*
X37900Y-30700D01*
X37900Y-25600D02*
X37900Y-29500D01*
X37900Y-24500D02*
X37900Y-25000D01*
X37900Y-18000D02*
X37900Y-23900D01*
X37900Y-11500D02*
X37900Y-17300D01*
X37900Y-10300D02*
X37900Y-10500D01*
X37800Y-30500D02*
X37800Y-30700D01*
X37800Y-25600D02*
X37800Y-29500D01*
X37800Y-24500D02*
X37800Y-25000D01*
X37800Y-18000D02*
X37800Y-23800D01*
X37800Y-13400D02*
X37800Y-17300D01*
X37800Y-11500D02*
X37800Y-13000D01*
X37800Y-10300D02*
X37800Y-10500D01*
X37700Y-30400D02*
X37700Y-30700D01*
X37700Y-25600D02*
X37700Y-29600D01*
X37700Y-24500D02*
X37700Y-25000D01*
X37700Y-18100D02*
X37700Y-23600D01*
X37700Y-13500D02*
X37700Y-17300D01*
X37700Y-11400D02*
X37700Y-12900D01*
X37700Y-10300D02*
X37700Y-10600D01*
X37600Y-30300D02*
X37600Y-30700D01*
X37600Y-25600D02*
X37600Y-29700D01*
X37600Y-24400D02*
X37600Y-25000D01*
X37600Y-18100D02*
X37600Y-23600D01*
X37600Y-13500D02*
X37600Y-17400D01*
X37600Y-11300D02*
X37600Y-12900D01*
X37600Y-10300D02*
X37600Y-10700D01*
X37500Y-25600D02*
X37500Y-30700D01*
X37500Y-24300D02*
X37500Y-25000D01*
X37500Y-18200D02*
X37500Y-23500D01*
X37500Y-13500D02*
X37500Y-17500D01*
X37500Y-10300D02*
X37500Y-12900D01*
X37400Y-30300D02*
X37400Y-30700D01*
X37400Y-25600D02*
X37400Y-29700D01*
X37400Y-24200D02*
X37400Y-25000D01*
X37400Y-18100D02*
X37400Y-23300D01*
X37400Y-13500D02*
X37400Y-17400D01*
X37400Y-11300D02*
X37400Y-12900D01*
X37400Y-10300D02*
X37400Y-10700D01*
X37300Y-30400D02*
X37300Y-30700D01*
X37300Y-25600D02*
X37300Y-29600D01*
X37300Y-24200D02*
X37300Y-25000D01*
X37300Y-18100D02*
X37300Y-23300D01*
X37300Y-13400D02*
X37300Y-17300D01*
X37300Y-11400D02*
X37300Y-13000D01*
X37300Y-10300D02*
X37300Y-10600D01*
X37200Y-30500D02*
X37200Y-30700D01*
X37200Y-25600D02*
X37200Y-29500D01*
X37200Y-24000D02*
X37200Y-25000D01*
X37200Y-18000D02*
X37200Y-23300D01*
X37200Y-11500D02*
X37200Y-17300D01*
X37200Y-10300D02*
X37200Y-10500D01*
X37100Y-30500D02*
X37100Y-30700D01*
X37100Y-25600D02*
X37100Y-29500D01*
X37100Y-23900D02*
X37100Y-25000D01*
X37100Y-21900D02*
X37100Y-23100D01*
X37100Y-18000D02*
X37100Y-21600D01*
X37100Y-11500D02*
X37100Y-17300D01*
X37100Y-10300D02*
X37100Y-10500D01*
X37000Y-30500D02*
X37000Y-30700D01*
X37000Y-25600D02*
X37000Y-29500D01*
X37000Y-23900D02*
X37000Y-25000D01*
X37000Y-22000D02*
X37000Y-23000D01*
X37000Y-18100D02*
X37000Y-21400D01*
X37000Y-11500D02*
X37000Y-17400D01*
X37000Y-10300D02*
X37000Y-10500D01*
X36900Y-30500D02*
X36900Y-30700D01*
X36900Y-25600D02*
X36900Y-29500D01*
X36900Y-23700D02*
X36900Y-25000D01*
X36900Y-22200D02*
X36900Y-23000D01*
X36900Y-18100D02*
X36900Y-21400D01*
X36900Y-11500D02*
X36900Y-17400D01*
X36900Y-10300D02*
X36900Y-10500D01*
X36800Y-30500D02*
X36800Y-30700D01*
X36800Y-25600D02*
X36800Y-29500D01*
X36800Y-23700D02*
X36800Y-25000D01*
X36800Y-22300D02*
X36800Y-22900D01*
X36800Y-18100D02*
X36800Y-21400D01*
X36800Y-11500D02*
X36800Y-17300D01*
X36800Y-10300D02*
X36800Y-10500D01*
X36700Y-30400D02*
X36700Y-30700D01*
X36700Y-25600D02*
X36700Y-29600D01*
X36700Y-23600D02*
X36700Y-24900D01*
X36700Y-22400D02*
X36700Y-22800D01*
X36700Y-18000D02*
X36700Y-21400D01*
X36700Y-11400D02*
X36700Y-17200D01*
X36700Y-10300D02*
X36700Y-10600D01*
X36600Y-30300D02*
X36600Y-30700D01*
X36600Y-25600D02*
X36600Y-29700D01*
X36600Y-23500D02*
X36600Y-24800D01*
X36600Y-22400D02*
X36600Y-22800D01*
X36600Y-17800D02*
X36600Y-21500D01*
X36600Y-11300D02*
X36600Y-17200D01*
X36600Y-10300D02*
X36600Y-10700D01*
X36500Y-25500D02*
X36500Y-30700D01*
X36500Y-23400D02*
X36500Y-24700D01*
X36500Y-22300D02*
X36500Y-22800D01*
X36500Y-20500D02*
X36500Y-21700D01*
X36500Y-19500D02*
X36500Y-20100D01*
X36500Y-17800D02*
X36500Y-19100D01*
X36500Y-10300D02*
X36500Y-17200D01*
X36400Y-30300D02*
X36400Y-30700D01*
X36400Y-25400D02*
X36400Y-29700D01*
X36400Y-23400D02*
X36400Y-24600D01*
X36400Y-22200D02*
X36400Y-22800D01*
X36400Y-20600D02*
X36400Y-21800D01*
X36400Y-19600D02*
X36400Y-20000D01*
X36400Y-17800D02*
X36400Y-19000D01*
X36400Y-11300D02*
X36400Y-17200D01*
X36400Y-10300D02*
X36400Y-10700D01*
X36300Y-30400D02*
X36300Y-30700D01*
X36300Y-25300D02*
X36300Y-29600D01*
X36300Y-23300D02*
X36300Y-24500D01*
X36300Y-20700D02*
X36300Y-23000D01*
X36300Y-19600D02*
X36300Y-20000D01*
X36300Y-17600D02*
X36300Y-18900D01*
X36300Y-11400D02*
X36300Y-17400D01*
X36300Y-10300D02*
X36300Y-10600D01*
X36200Y-30500D02*
X36200Y-30700D01*
X36200Y-25200D02*
X36200Y-29500D01*
X36200Y-20600D02*
X36200Y-24400D01*
X36200Y-19600D02*
X36200Y-20000D01*
X36200Y-11500D02*
X36200Y-18900D01*
X36200Y-10300D02*
X36200Y-10500D01*
X36100Y-30500D02*
X36100Y-30700D01*
X36100Y-25100D02*
X36100Y-29500D01*
X36100Y-20700D02*
X36100Y-24300D01*
X36100Y-19600D02*
X36100Y-20000D01*
X36100Y-11500D02*
X36100Y-18900D01*
X36100Y-10300D02*
X36100Y-10500D01*
X36000Y-30500D02*
X36000Y-30700D01*
X36000Y-25000D02*
X36000Y-29500D01*
X36000Y-20800D02*
X36000Y-24200D01*
X36000Y-19500D02*
X36000Y-20100D01*
X36000Y-18500D02*
X36000Y-18800D01*
X36000Y-11500D02*
X36000Y-18300D01*
X36000Y-10300D02*
X36000Y-10500D01*
X35900Y-30500D02*
X35900Y-30700D01*
X35900Y-24800D02*
X35900Y-29500D01*
X35900Y-20800D02*
X35900Y-24100D01*
X35900Y-19500D02*
X35900Y-20100D01*
X35900Y-18700D02*
X35900Y-18800D01*
X35900Y-11500D02*
X35900Y-18100D01*
X35900Y-10300D02*
X35900Y-10500D01*
X35800Y-30500D02*
X35800Y-30700D01*
X35800Y-24700D02*
X35800Y-29500D01*
X35800Y-20700D02*
X35800Y-24000D01*
X35800Y-19500D02*
X35800Y-20100D01*
X35800Y-11500D02*
X35800Y-18100D01*
X35800Y-10300D02*
X35800Y-10500D01*
X35700Y-30400D02*
X35700Y-30700D01*
X35700Y-24600D02*
X35700Y-29600D01*
X35700Y-20800D02*
X35700Y-23900D01*
X35700Y-19400D02*
X35700Y-20200D01*
X35700Y-11400D02*
X35700Y-18100D01*
X35700Y-10300D02*
X35700Y-10600D01*
X35600Y-30300D02*
X35600Y-30700D01*
X35600Y-24500D02*
X35600Y-29700D01*
X35600Y-20800D02*
X35600Y-23900D01*
X35600Y-19300D02*
X35600Y-20200D01*
X35600Y-11300D02*
X35600Y-18100D01*
X35600Y-10300D02*
X35600Y-10700D01*
X35500Y-24500D02*
X35500Y-30700D01*
X35500Y-20900D02*
X35500Y-23900D01*
X35500Y-19300D02*
X35500Y-20200D01*
X35500Y-10300D02*
X35500Y-18200D01*
X35400Y-24500D02*
X35400Y-29600D01*
X35400Y-20900D02*
X35400Y-23900D01*
X35400Y-19200D02*
X35400Y-20200D01*
X35400Y-11300D02*
X35400Y-18300D01*
X35400Y-10300D02*
X35400Y-10700D01*
X35300Y-24500D02*
X35300Y-29500D01*
X35300Y-22900D02*
X35300Y-23900D01*
X35300Y-22300D02*
X35300Y-22600D01*
X35300Y-21000D02*
X35300Y-22100D01*
X35300Y-18900D02*
X35300Y-20300D01*
X35300Y-11400D02*
X35300Y-18400D01*
X35300Y-10300D02*
X35300Y-10600D01*
X35200Y-24500D02*
X35200Y-29400D01*
X35200Y-23100D02*
X35200Y-23900D01*
X35200Y-21000D02*
X35200Y-21900D01*
X35200Y-18800D02*
X35200Y-20300D01*
X35200Y-11500D02*
X35200Y-18600D01*
X35200Y-10300D02*
X35200Y-10500D01*
X35100Y-24500D02*
X35100Y-29300D01*
X35100Y-23100D02*
X35100Y-23900D01*
X35100Y-21000D02*
X35100Y-21800D01*
X35100Y-11500D02*
X35100Y-20300D01*
X35100Y-10300D02*
X35100Y-10500D01*
X35000Y-24500D02*
X35000Y-29200D01*
X35000Y-23100D02*
X35000Y-23900D01*
X35000Y-20900D02*
X35000Y-21700D01*
X35000Y-11500D02*
X35000Y-20400D01*
X35000Y-10300D02*
X35000Y-10500D01*
X34900Y-30500D02*
X34900Y-30700D01*
X34900Y-24500D02*
X34900Y-29100D01*
X34900Y-23100D02*
X34900Y-23900D01*
X34900Y-20800D02*
X34900Y-21600D01*
X34900Y-11500D02*
X34900Y-20500D01*
X34900Y-10300D02*
X34900Y-10500D01*
X34800Y-30500D02*
X34800Y-30700D01*
X34800Y-24500D02*
X34800Y-29000D01*
X34800Y-23000D02*
X34800Y-23900D01*
X34800Y-19300D02*
X34800Y-21500D01*
X34800Y-11500D02*
X34800Y-18800D01*
X34800Y-10300D02*
X34800Y-10500D01*
X34700Y-30400D02*
X34700Y-30700D01*
X34700Y-24500D02*
X34700Y-28900D01*
X34700Y-22300D02*
X34700Y-23900D01*
X34700Y-19400D02*
X34700Y-21400D01*
X34700Y-11400D02*
X34700Y-18800D01*
X34700Y-10300D02*
X34700Y-10600D01*
X34600Y-30300D02*
X34600Y-30700D01*
X34600Y-29600D02*
X34600Y-29700D01*
X34600Y-24500D02*
X34600Y-28800D01*
X34600Y-22200D02*
X34600Y-23900D01*
X34600Y-19400D02*
X34600Y-21300D01*
X34600Y-11300D02*
X34600Y-18700D01*
X34600Y-10300D02*
X34600Y-10700D01*
X34500Y-29500D02*
X34500Y-30700D01*
X34500Y-24500D02*
X34500Y-28800D01*
X34500Y-22100D02*
X34500Y-23900D01*
X34500Y-19400D02*
X34500Y-21200D01*
X34500Y-10300D02*
X34500Y-18800D01*
X34400Y-30300D02*
X34400Y-30700D01*
X34400Y-29400D02*
X34400Y-29700D01*
X34400Y-24500D02*
X34400Y-28800D01*
X34400Y-22000D02*
X34400Y-23900D01*
X34400Y-19400D02*
X34400Y-21100D01*
X34400Y-11300D02*
X34400Y-18800D01*
X34400Y-10300D02*
X34400Y-10700D01*
X34300Y-30400D02*
X34300Y-30700D01*
X34300Y-29400D02*
X34300Y-29600D01*
X34300Y-24500D02*
X34300Y-28800D01*
X34300Y-21900D02*
X34300Y-23900D01*
X34300Y-19200D02*
X34300Y-21100D01*
X34300Y-11400D02*
X34300Y-19000D01*
X34300Y-10300D02*
X34300Y-10600D01*
X34200Y-30500D02*
X34200Y-30700D01*
X34200Y-29400D02*
X34200Y-29500D01*
X34200Y-24500D02*
X34200Y-28800D01*
X34200Y-21800D02*
X34200Y-23900D01*
X34200Y-15600D02*
X34200Y-21100D01*
X34200Y-11500D02*
X34200Y-15300D01*
X34200Y-10300D02*
X34200Y-10500D01*
X34100Y-30500D02*
X34100Y-30700D01*
X34100Y-29400D02*
X34100Y-29500D01*
X34100Y-27300D02*
X34100Y-28800D01*
X34100Y-24500D02*
X34100Y-26800D01*
X34100Y-21700D02*
X34100Y-23900D01*
X34100Y-21100D02*
X34100Y-21200D01*
X34100Y-16100D02*
X34100Y-20700D01*
X34100Y-11500D02*
X34100Y-15200D01*
X34100Y-10300D02*
X34100Y-10500D01*
X34000Y-30500D02*
X34000Y-30700D01*
X34000Y-29400D02*
X34000Y-29500D01*
X34000Y-27400D02*
X34000Y-28800D01*
X34000Y-24500D02*
X34000Y-26700D01*
X34000Y-21200D02*
X34000Y-23700D01*
X34000Y-16200D02*
X34000Y-20600D01*
X34000Y-11500D02*
X34000Y-15100D01*
X34000Y-10300D02*
X34000Y-10500D01*
X33900Y-30500D02*
X33900Y-30700D01*
X33900Y-29400D02*
X33900Y-29500D01*
X33900Y-27400D02*
X33900Y-28800D01*
X33900Y-24500D02*
X33900Y-26600D01*
X33900Y-21300D02*
X33900Y-21400D01*
X33900Y-16200D02*
X33900Y-20600D01*
X33900Y-11500D02*
X33900Y-15100D01*
X33900Y-10300D02*
X33900Y-10500D01*
X33800Y-30500D02*
X33800Y-30700D01*
X33800Y-29400D02*
X33800Y-29500D01*
X33800Y-27400D02*
X33800Y-28800D01*
X33800Y-24500D02*
X33800Y-26600D01*
X33800Y-21300D02*
X33800Y-21400D01*
X33800Y-16200D02*
X33800Y-20600D01*
X33800Y-11500D02*
X33800Y-15100D01*
X33800Y-10300D02*
X33800Y-10500D01*
X33700Y-30400D02*
X33700Y-30700D01*
X33700Y-29400D02*
X33700Y-29600D01*
X33700Y-27400D02*
X33700Y-28800D01*
X33700Y-24500D02*
X33700Y-26700D01*
X33700Y-21200D02*
X33700Y-21400D01*
X33700Y-16100D02*
X33700Y-20600D01*
X33700Y-11400D02*
X33700Y-15200D01*
X33700Y-10300D02*
X33700Y-10600D01*
X33600Y-30300D02*
X33600Y-30700D01*
X33600Y-29400D02*
X33600Y-29700D01*
X33600Y-27300D02*
X33600Y-28800D01*
X33600Y-24500D02*
X33600Y-26700D01*
X33600Y-21200D02*
X33600Y-21400D01*
X33600Y-16000D02*
X33600Y-20700D01*
X33600Y-11300D02*
X33600Y-15700D01*
X33600Y-10300D02*
X33600Y-10700D01*
X33500Y-29400D02*
X33500Y-30700D01*
X33500Y-22300D02*
X33500Y-28800D01*
X33500Y-15400D02*
X33500Y-21400D01*
X33500Y-10300D02*
X33500Y-15000D01*
X33400Y-30300D02*
X33400Y-30700D01*
X33400Y-29400D02*
X33400Y-29700D01*
X33400Y-22200D02*
X33400Y-28800D01*
X33400Y-15800D02*
X33400Y-21400D01*
X33400Y-11300D02*
X33400Y-14900D01*
X33400Y-10300D02*
X33400Y-10700D01*
X33300Y-30400D02*
X33300Y-30700D01*
X33300Y-29400D02*
X33300Y-29600D01*
X33300Y-22200D02*
X33300Y-28800D01*
X33300Y-15900D02*
X33300Y-21400D01*
X33300Y-11400D02*
X33300Y-14900D01*
X33300Y-10300D02*
X33300Y-10600D01*
X33200Y-30500D02*
X33200Y-30700D01*
X33200Y-29400D02*
X33200Y-29500D01*
X33200Y-22200D02*
X33200Y-28800D01*
X33200Y-15900D02*
X33200Y-21400D01*
X33200Y-11500D02*
X33200Y-14900D01*
X33200Y-10300D02*
X33200Y-10500D01*
X33100Y-30500D02*
X33100Y-30700D01*
X33100Y-29400D02*
X33100Y-29500D01*
X33100Y-22300D02*
X33100Y-28800D01*
X33100Y-15900D02*
X33100Y-21400D01*
X33100Y-11500D02*
X33100Y-14900D01*
X33100Y-10300D02*
X33100Y-10500D01*
X33000Y-30500D02*
X33000Y-30700D01*
X33000Y-29400D02*
X33000Y-29500D01*
X33000Y-22300D02*
X33000Y-28800D01*
X33000Y-15800D02*
X33000Y-21400D01*
X33000Y-11500D02*
X33000Y-15000D01*
X33000Y-10300D02*
X33000Y-10500D01*
X32900Y-30500D02*
X32900Y-30700D01*
X32900Y-29400D02*
X32900Y-29500D01*
X32900Y-22200D02*
X32900Y-28800D01*
X32900Y-11500D02*
X32900Y-21400D01*
X32900Y-10300D02*
X32900Y-10500D01*
X32800Y-30500D02*
X32800Y-30700D01*
X32800Y-29400D02*
X32800Y-29500D01*
X32800Y-22100D02*
X32800Y-28800D01*
X32800Y-11500D02*
X32800Y-21400D01*
X32800Y-10300D02*
X32800Y-10500D01*
X32700Y-30400D02*
X32700Y-30700D01*
X32700Y-29400D02*
X32700Y-29600D01*
X32700Y-21900D02*
X32700Y-28800D01*
X32700Y-16100D02*
X32700Y-21400D01*
X32700Y-11400D02*
X32700Y-15600D01*
X32700Y-10300D02*
X32700Y-10600D01*
X32600Y-30300D02*
X32600Y-30700D01*
X32600Y-29200D02*
X32600Y-29700D01*
X32600Y-21900D02*
X32600Y-28700D01*
X32600Y-16200D02*
X32600Y-21400D01*
X32600Y-11300D02*
X32600Y-15500D01*
X32600Y-10300D02*
X32600Y-10700D01*
X32500Y-29100D02*
X32500Y-30700D01*
X32500Y-21900D02*
X32500Y-28600D01*
X32500Y-16200D02*
X32500Y-21400D01*
X32500Y-10300D02*
X32500Y-15500D01*
X32400Y-30300D02*
X32400Y-30700D01*
X32400Y-29000D02*
X32400Y-29700D01*
X32400Y-21900D02*
X32400Y-28400D01*
X32400Y-16200D02*
X32400Y-21400D01*
X32400Y-11300D02*
X32400Y-15500D01*
X32400Y-10300D02*
X32400Y-10700D01*
X32300Y-30400D02*
X32300Y-30700D01*
X32300Y-28900D02*
X32300Y-29600D01*
X32300Y-21900D02*
X32300Y-28300D01*
X32300Y-16100D02*
X32300Y-21400D01*
X32300Y-11400D02*
X32300Y-15600D01*
X32300Y-10300D02*
X32300Y-10600D01*
X32200Y-30500D02*
X32200Y-30700D01*
X32200Y-28800D02*
X32200Y-29500D01*
X32200Y-21900D02*
X32200Y-28200D01*
X32200Y-16000D02*
X32200Y-21400D01*
X32200Y-11500D02*
X32200Y-15700D01*
X32200Y-10300D02*
X32200Y-10500D01*
X32100Y-30500D02*
X32100Y-30700D01*
X32100Y-28700D02*
X32100Y-29500D01*
X32100Y-25500D02*
X32100Y-28200D01*
X32100Y-21900D02*
X32100Y-25200D01*
X32100Y-17300D02*
X32100Y-21400D01*
X32100Y-11500D02*
X32100Y-16800D01*
X32100Y-10300D02*
X32100Y-10500D01*
X32000Y-30500D02*
X32000Y-30700D01*
X32000Y-28600D02*
X32000Y-29500D01*
X32000Y-25600D02*
X32000Y-28200D01*
X32000Y-24500D02*
X32000Y-25100D01*
X32000Y-21900D02*
X32000Y-24100D01*
X32000Y-17400D02*
X32000Y-21400D01*
X32000Y-11500D02*
X32000Y-16700D01*
X32000Y-10300D02*
X32000Y-10500D01*
X31900Y-30500D02*
X31900Y-30700D01*
X31900Y-28500D02*
X31900Y-29500D01*
X31900Y-25700D02*
X31900Y-28200D01*
X31900Y-24600D02*
X31900Y-25000D01*
X31900Y-21900D02*
X31900Y-24000D01*
X31900Y-17600D02*
X31900Y-21400D01*
X31900Y-11500D02*
X31900Y-16700D01*
X31900Y-10300D02*
X31900Y-10500D01*
X31800Y-30500D02*
X31800Y-30700D01*
X31800Y-28400D02*
X31800Y-29500D01*
X31800Y-28100D02*
X31800Y-28200D01*
X31800Y-25700D02*
X31800Y-27800D01*
X31800Y-24600D02*
X31800Y-25000D01*
X31800Y-21900D02*
X31800Y-23900D01*
X31800Y-17600D02*
X31800Y-21400D01*
X31800Y-11500D02*
X31800Y-16700D01*
X31800Y-10300D02*
X31800Y-10500D01*
X31700Y-30400D02*
X31700Y-30700D01*
X31700Y-28100D02*
X31700Y-29600D01*
X31700Y-25700D02*
X31700Y-27700D01*
X31700Y-24600D02*
X31700Y-25000D01*
X31700Y-21900D02*
X31700Y-23900D01*
X31700Y-17700D02*
X31700Y-21400D01*
X31700Y-11400D02*
X31700Y-16800D01*
X31700Y-10300D02*
X31700Y-10600D01*
X31600Y-30300D02*
X31600Y-30700D01*
X31600Y-28100D02*
X31600Y-29700D01*
X31600Y-25600D02*
X31600Y-27600D01*
X31600Y-24600D02*
X31600Y-25100D01*
X31600Y-21900D02*
X31600Y-23800D01*
X31600Y-17700D02*
X31600Y-21400D01*
X31600Y-11300D02*
X31600Y-16900D01*
X31600Y-10300D02*
X31600Y-10700D01*
X31500Y-28100D02*
X31500Y-30700D01*
X31500Y-24500D02*
X31500Y-27500D01*
X31500Y-21900D02*
X31500Y-23800D01*
X31500Y-17600D02*
X31500Y-21400D01*
X31500Y-10300D02*
X31500Y-17000D01*
X31400Y-30300D02*
X31400Y-30700D01*
X31400Y-28100D02*
X31400Y-29700D01*
X31400Y-24500D02*
X31400Y-27400D01*
X31400Y-21900D02*
X31400Y-23800D01*
X31400Y-18300D02*
X31400Y-21400D01*
X31400Y-17400D02*
X31400Y-18000D01*
X31400Y-11300D02*
X31400Y-17200D01*
X31400Y-10300D02*
X31400Y-10700D01*
X31300Y-30400D02*
X31300Y-30700D01*
X31300Y-27900D02*
X31300Y-29600D01*
X31300Y-26300D02*
X31300Y-27300D01*
X31300Y-24600D02*
X31300Y-25800D01*
X31300Y-22000D02*
X31300Y-23800D01*
X31300Y-18400D02*
X31300Y-21400D01*
X31300Y-11400D02*
X31300Y-17800D01*
X31300Y-10300D02*
X31300Y-10600D01*
X31200Y-30500D02*
X31200Y-30700D01*
X31200Y-27800D02*
X31200Y-29500D01*
X31200Y-26400D02*
X31200Y-27200D01*
X31200Y-24600D02*
X31200Y-25800D01*
X31200Y-22100D02*
X31200Y-23900D01*
X31200Y-18500D02*
X31200Y-21400D01*
X31200Y-11500D02*
X31200Y-17800D01*
X31200Y-10300D02*
X31200Y-10500D01*
X31100Y-30500D02*
X31100Y-30700D01*
X31100Y-27700D02*
X31100Y-29500D01*
X31100Y-26400D02*
X31100Y-27100D01*
X31100Y-24600D02*
X31100Y-25700D01*
X31100Y-22200D02*
X31100Y-23800D01*
X31100Y-18500D02*
X31100Y-21600D01*
X31100Y-11500D02*
X31100Y-17700D01*
X31100Y-10300D02*
X31100Y-10500D01*
X31000Y-30500D02*
X31000Y-30700D01*
X31000Y-27600D02*
X31000Y-29500D01*
X31000Y-26400D02*
X31000Y-27000D01*
X31000Y-24600D02*
X31000Y-25700D01*
X31000Y-22300D02*
X31000Y-23700D01*
X31000Y-18400D02*
X31000Y-21700D01*
X31000Y-11500D02*
X31000Y-17600D01*
X31000Y-10300D02*
X31000Y-10500D01*
X30900Y-30500D02*
X30900Y-30700D01*
X30900Y-27500D02*
X30900Y-29500D01*
X30900Y-26400D02*
X30900Y-26900D01*
X30900Y-24500D02*
X30900Y-25800D01*
X30900Y-22400D02*
X30900Y-23600D01*
X30900Y-18400D02*
X30900Y-21800D01*
X30900Y-11500D02*
X30900Y-17600D01*
X30900Y-10300D02*
X30900Y-10500D01*
X30800Y-30500D02*
X30800Y-30700D01*
X30800Y-27400D02*
X30800Y-29500D01*
X30800Y-26200D02*
X30800Y-26800D01*
X30800Y-24300D02*
X30800Y-25900D01*
X30800Y-22500D02*
X30800Y-23600D01*
X30800Y-18300D02*
X30800Y-21700D01*
X30800Y-11500D02*
X30800Y-17500D01*
X30800Y-10300D02*
X30800Y-10500D01*
X30700Y-30400D02*
X30700Y-30700D01*
X30700Y-27300D02*
X30700Y-29600D01*
X30700Y-24300D02*
X30700Y-26700D01*
X30700Y-22500D02*
X30700Y-23600D01*
X30700Y-18200D02*
X30700Y-21700D01*
X30700Y-11400D02*
X30700Y-17400D01*
X30700Y-10300D02*
X30700Y-10600D01*
X30600Y-30300D02*
X30600Y-30700D01*
X30600Y-27200D02*
X30600Y-29700D01*
X30600Y-24200D02*
X30600Y-26600D01*
X30600Y-22600D02*
X30600Y-23700D01*
X30600Y-18100D02*
X30600Y-21800D01*
X30600Y-11300D02*
X30600Y-17400D01*
X30600Y-10300D02*
X30600Y-10700D01*
X30500Y-27100D02*
X30500Y-30700D01*
X30500Y-22700D02*
X30500Y-26500D01*
X30500Y-18100D02*
X30500Y-21700D01*
X30500Y-10300D02*
X30500Y-17400D01*
X30400Y-30300D02*
X30400Y-30700D01*
X30400Y-27000D02*
X30400Y-29700D01*
X30400Y-22800D02*
X30400Y-26400D01*
X30400Y-18000D02*
X30400Y-21700D01*
X30400Y-11300D02*
X30400Y-17400D01*
X30400Y-10300D02*
X30400Y-10700D01*
X30300Y-30400D02*
X30300Y-30700D01*
X30300Y-26900D02*
X30300Y-29600D01*
X30300Y-18000D02*
X30300Y-21800D01*
X30300Y-13500D02*
X30300Y-17500D01*
X30300Y-11400D02*
X30300Y-13200D01*
X30300Y-10300D02*
X30300Y-10600D01*
X30200Y-30500D02*
X30200Y-30700D01*
X30200Y-26800D02*
X30200Y-29500D01*
X30200Y-22400D02*
X30200Y-22500D01*
X30200Y-18100D02*
X30200Y-21800D01*
X30200Y-13600D02*
X30200Y-17500D01*
X30200Y-11500D02*
X30200Y-13100D01*
X30200Y-10300D02*
X30200Y-10500D01*
X30100Y-30500D02*
X30100Y-30700D01*
X30100Y-26700D02*
X30100Y-29500D01*
X30100Y-22400D02*
X30100Y-22600D01*
X30100Y-19100D02*
X30100Y-21700D01*
X30100Y-18100D02*
X30100Y-18800D01*
X30100Y-13700D02*
X30100Y-17300D01*
X30100Y-11500D02*
X30100Y-13000D01*
X30100Y-10300D02*
X30100Y-10500D01*
X30000Y-30500D02*
X30000Y-30700D01*
X30000Y-22400D02*
X30000Y-29500D01*
X30000Y-19200D02*
X30000Y-21700D01*
X30000Y-18200D02*
X30000Y-18700D01*
X30000Y-15000D02*
X30000Y-17200D01*
X30000Y-13900D02*
X30000Y-14600D01*
X30000Y-11500D02*
X30000Y-13000D01*
X30000Y-10300D02*
X30000Y-10500D01*
X29900Y-30500D02*
X29900Y-30700D01*
X29900Y-22400D02*
X29900Y-29500D01*
X29900Y-19300D02*
X29900Y-21800D01*
X29900Y-18100D02*
X29900Y-18600D01*
X29900Y-15100D02*
X29900Y-17100D01*
X29900Y-14000D02*
X29900Y-14500D01*
X29900Y-11500D02*
X29900Y-13000D01*
X29900Y-10300D02*
X29900Y-10500D01*
X29800Y-30500D02*
X29800Y-30700D01*
X29800Y-22400D02*
X29800Y-29500D01*
X29800Y-19300D02*
X29800Y-21800D01*
X29800Y-18100D02*
X29800Y-18600D01*
X29800Y-15100D02*
X29800Y-17100D01*
X29800Y-14000D02*
X29800Y-14400D01*
X29800Y-11500D02*
X29800Y-13100D01*
X29800Y-10300D02*
X29800Y-10500D01*
X29700Y-30400D02*
X29700Y-30700D01*
X29700Y-22400D02*
X29700Y-29600D01*
X29700Y-19500D02*
X29700Y-21700D01*
X29700Y-17800D02*
X29700Y-18600D01*
X29700Y-15100D02*
X29700Y-17200D01*
X29700Y-14000D02*
X29700Y-14400D01*
X29700Y-11400D02*
X29700Y-13400D01*
X29700Y-10300D02*
X29700Y-10600D01*
X29600Y-30300D02*
X29600Y-30700D01*
X29600Y-24100D02*
X29600Y-29700D01*
X29600Y-22400D02*
X29600Y-23600D01*
X29600Y-19600D02*
X29600Y-21700D01*
X29600Y-17700D02*
X29600Y-18700D01*
X29600Y-15100D02*
X29600Y-17200D01*
X29600Y-14000D02*
X29600Y-14500D01*
X29600Y-11300D02*
X29600Y-13400D01*
X29600Y-10300D02*
X29600Y-10700D01*
X29500Y-24200D02*
X29500Y-30700D01*
X29500Y-22400D02*
X29500Y-23600D01*
X29500Y-19600D02*
X29500Y-21800D01*
X29500Y-15000D02*
X29500Y-19000D01*
X29500Y-13800D02*
X29500Y-14600D01*
X29500Y-10300D02*
X29500Y-13600D01*
X29400Y-30300D02*
X29400Y-30700D01*
X29400Y-24200D02*
X29400Y-29700D01*
X29400Y-22200D02*
X29400Y-23500D01*
X29400Y-21700D02*
X29400Y-21900D01*
X29400Y-19600D02*
X29400Y-21300D01*
X29400Y-11300D02*
X29400Y-18500D01*
X29400Y-10300D02*
X29400Y-10700D01*
X29300Y-30400D02*
X29300Y-30700D01*
X29300Y-24500D02*
X29300Y-29600D01*
X29300Y-21800D02*
X29300Y-23600D01*
X29300Y-19600D02*
X29300Y-21200D01*
X29300Y-12100D02*
X29300Y-18500D01*
X29300Y-11400D02*
X29300Y-11900D01*
X29300Y-10300D02*
X29300Y-10600D01*
X29200Y-30500D02*
X29200Y-30700D01*
X29200Y-24600D02*
X29200Y-29500D01*
X29200Y-21800D02*
X29200Y-23600D01*
X29200Y-19500D02*
X29200Y-21100D01*
X29200Y-12300D02*
X29200Y-18400D01*
X29200Y-11500D02*
X29200Y-11800D01*
X29200Y-10300D02*
X29200Y-10500D01*
X29100Y-30500D02*
X29100Y-30700D01*
X29100Y-24600D02*
X29100Y-29500D01*
X29100Y-21800D02*
X29100Y-23800D01*
X29100Y-19100D02*
X29100Y-21100D01*
X29100Y-12600D02*
X29100Y-18200D01*
X29100Y-11500D02*
X29100Y-11700D01*
X29100Y-10300D02*
X29100Y-10500D01*
X29000Y-30500D02*
X29000Y-30700D01*
X29000Y-25700D02*
X29000Y-29500D01*
X29000Y-24600D02*
X29000Y-25200D01*
X29000Y-21800D02*
X29000Y-23900D01*
X29000Y-19100D02*
X29000Y-21200D01*
X29000Y-12900D02*
X29000Y-18200D01*
X29000Y-11500D02*
X29000Y-11700D01*
X29000Y-10300D02*
X29000Y-10500D01*
X28900Y-30500D02*
X28900Y-30700D01*
X28900Y-25700D02*
X28900Y-29500D01*
X28900Y-24500D02*
X28900Y-25100D01*
X28900Y-21700D02*
X28900Y-24000D01*
X28900Y-18900D02*
X28900Y-21000D01*
X28900Y-13100D02*
X28900Y-18100D01*
X28900Y-11500D02*
X28900Y-11700D01*
X28900Y-10300D02*
X28900Y-10500D01*
X28800Y-30500D02*
X28800Y-30700D01*
X28800Y-25800D02*
X28800Y-29500D01*
X28800Y-24500D02*
X28800Y-25100D01*
X28800Y-21700D02*
X28800Y-24000D01*
X28800Y-18800D02*
X28800Y-21000D01*
X28800Y-13300D02*
X28800Y-18000D01*
X28800Y-11500D02*
X28800Y-11800D01*
X28800Y-10300D02*
X28800Y-10500D01*
X28700Y-30400D02*
X28700Y-30700D01*
X28700Y-25800D02*
X28700Y-29600D01*
X28700Y-24600D02*
X28700Y-25100D01*
X28700Y-21700D02*
X28700Y-23900D01*
X28700Y-18800D02*
X28700Y-21000D01*
X28700Y-13300D02*
X28700Y-17800D01*
X28700Y-11400D02*
X28700Y-12100D01*
X28700Y-10300D02*
X28700Y-10600D01*
X28600Y-30300D02*
X28600Y-30700D01*
X28600Y-25700D02*
X28600Y-29700D01*
X28600Y-24600D02*
X28600Y-25100D01*
X28600Y-21600D02*
X28600Y-23900D01*
X28600Y-18600D02*
X28600Y-21000D01*
X28600Y-13300D02*
X28600Y-17600D01*
X28600Y-11300D02*
X28600Y-12300D01*
X28600Y-10300D02*
X28600Y-10700D01*
X28500Y-25700D02*
X28500Y-30700D01*
X28500Y-24600D02*
X28500Y-25100D01*
X28500Y-21600D02*
X28500Y-23900D01*
X28500Y-18600D02*
X28500Y-21100D01*
X28500Y-13300D02*
X28500Y-17400D01*
X28500Y-10300D02*
X28500Y-12500D01*
X28400Y-30300D02*
X28400Y-30700D01*
X28400Y-25700D02*
X28400Y-29700D01*
X28400Y-24500D02*
X28400Y-25100D01*
X28400Y-18500D02*
X28400Y-24000D01*
X28400Y-13200D02*
X28400Y-17300D01*
X28400Y-11300D02*
X28400Y-12700D01*
X28400Y-10300D02*
X28400Y-10700D01*
X28300Y-30400D02*
X28300Y-30700D01*
X28300Y-25700D02*
X28300Y-29600D01*
X28300Y-24600D02*
X28300Y-25000D01*
X28300Y-18400D02*
X28300Y-23900D01*
X28300Y-11400D02*
X28300Y-17300D01*
X28300Y-10300D02*
X28300Y-10600D01*
X28200Y-30500D02*
X28200Y-30700D01*
X28200Y-25700D02*
X28200Y-29500D01*
X28200Y-24600D02*
X28200Y-25100D01*
X28200Y-18200D02*
X28200Y-23900D01*
X28200Y-11500D02*
X28200Y-17100D01*
X28200Y-10300D02*
X28200Y-10500D01*
X28100Y-30500D02*
X28100Y-30700D01*
X28100Y-25700D02*
X28100Y-29500D01*
X28100Y-24600D02*
X28100Y-25100D01*
X28100Y-17900D02*
X28100Y-23900D01*
X28100Y-11500D02*
X28100Y-17100D01*
X28100Y-10300D02*
X28100Y-10500D01*
X28000Y-30500D02*
X28000Y-30700D01*
X28000Y-24500D02*
X28000Y-29500D01*
X28000Y-17800D02*
X28000Y-24000D01*
X28000Y-11500D02*
X28000Y-17000D01*
X28000Y-10300D02*
X28000Y-10500D01*
X27900Y-30500D02*
X27900Y-30700D01*
X27900Y-19700D02*
X27900Y-29500D01*
X27900Y-17700D02*
X27900Y-19200D01*
X27900Y-11500D02*
X27900Y-17000D01*
X27900Y-10300D02*
X27900Y-10500D01*
X27800Y-30500D02*
X27800Y-30700D01*
X27800Y-19700D02*
X27800Y-29500D01*
X27800Y-17700D02*
X27800Y-19000D01*
X27800Y-11500D02*
X27800Y-17100D01*
X27800Y-10300D02*
X27800Y-10500D01*
X27700Y-30400D02*
X27700Y-30700D01*
X27700Y-19800D02*
X27700Y-29600D01*
X27700Y-17500D02*
X27700Y-18900D01*
X27700Y-15000D02*
X27700Y-17200D01*
X27700Y-13900D02*
X27700Y-14600D01*
X27700Y-11400D02*
X27700Y-13200D01*
X27700Y-10300D02*
X27700Y-10600D01*
X27600Y-30300D02*
X27600Y-30700D01*
X27600Y-22800D02*
X27600Y-29700D01*
X27600Y-19800D02*
X27600Y-22500D01*
X27600Y-15100D02*
X27600Y-18600D01*
X27600Y-14000D02*
X27600Y-14500D01*
X27600Y-11300D02*
X27600Y-13100D01*
X27600Y-10300D02*
X27600Y-10700D01*
X27500Y-22900D02*
X27500Y-30700D01*
X27500Y-19700D02*
X27500Y-22300D01*
X27500Y-15100D02*
X27500Y-18500D01*
X27500Y-14000D02*
X27500Y-14500D01*
X27500Y-10300D02*
X27500Y-13000D01*
X27400Y-30300D02*
X27400Y-30700D01*
X27400Y-23000D02*
X27400Y-29700D01*
X27400Y-19600D02*
X27400Y-22300D01*
X27400Y-15100D02*
X27400Y-18500D01*
X27400Y-14000D02*
X27400Y-14500D01*
X27400Y-11300D02*
X27400Y-13000D01*
X27400Y-10300D02*
X27400Y-10700D01*
X27300Y-30400D02*
X27300Y-30700D01*
X27300Y-26500D02*
X27300Y-29600D01*
X27300Y-23000D02*
X27300Y-26100D01*
X27300Y-19400D02*
X27300Y-22300D01*
X27300Y-15100D02*
X27300Y-18500D01*
X27300Y-14000D02*
X27300Y-14500D01*
X27300Y-11400D02*
X27300Y-13000D01*
X27300Y-10300D02*
X27300Y-10600D01*
X27200Y-30500D02*
X27200Y-30700D01*
X27200Y-26600D02*
X27200Y-29500D01*
X27200Y-22900D02*
X27200Y-26000D01*
X27200Y-19400D02*
X27200Y-22300D01*
X27200Y-15000D02*
X27200Y-18600D01*
X27200Y-13900D02*
X27200Y-14600D01*
X27200Y-11500D02*
X27200Y-13100D01*
X27200Y-10300D02*
X27200Y-10500D01*
X27100Y-30500D02*
X27100Y-30700D01*
X27100Y-26600D02*
X27100Y-29500D01*
X27100Y-23000D02*
X27100Y-26000D01*
X27100Y-19400D02*
X27100Y-22400D01*
X27100Y-11500D02*
X27100Y-18700D01*
X27100Y-10300D02*
X27100Y-10500D01*
X27000Y-30500D02*
X27000Y-30700D01*
X27000Y-26600D02*
X27000Y-29500D01*
X27000Y-23100D02*
X27000Y-26000D01*
X27000Y-19600D02*
X27000Y-22400D01*
X27000Y-11500D02*
X27000Y-18800D01*
X27000Y-10300D02*
X27000Y-10500D01*
X26900Y-30500D02*
X26900Y-30700D01*
X26900Y-26600D02*
X26900Y-29500D01*
X26900Y-23100D02*
X26900Y-26000D01*
X26900Y-19600D02*
X26900Y-22400D01*
X26900Y-11500D02*
X26900Y-18800D01*
X26900Y-10300D02*
X26900Y-10500D01*
X26800Y-30500D02*
X26800Y-30700D01*
X26800Y-26500D02*
X26800Y-29500D01*
X26800Y-23100D02*
X26800Y-26100D01*
X26800Y-21600D02*
X26800Y-22400D01*
X26800Y-19600D02*
X26800Y-21100D01*
X26800Y-11500D02*
X26800Y-18900D01*
X26800Y-10300D02*
X26800Y-10500D01*
X26700Y-30400D02*
X26700Y-30700D01*
X26700Y-23200D02*
X26700Y-29600D01*
X26700Y-21700D02*
X26700Y-22500D01*
X26700Y-20200D02*
X26700Y-21100D01*
X26700Y-19600D02*
X26700Y-19700D01*
X26700Y-11400D02*
X26700Y-18800D01*
X26700Y-10300D02*
X26700Y-10600D01*
X26600Y-30300D02*
X26600Y-30700D01*
X26600Y-23400D02*
X26600Y-29700D01*
X26600Y-21700D02*
X26600Y-22500D01*
X26600Y-20300D02*
X26600Y-21000D01*
X26600Y-19500D02*
X26600Y-19700D01*
X26600Y-11300D02*
X26600Y-18700D01*
X26600Y-10300D02*
X26600Y-10700D01*
X26500Y-23400D02*
X26500Y-30700D01*
X26500Y-21700D02*
X26500Y-22500D01*
X26500Y-20300D02*
X26500Y-21000D01*
X26500Y-19400D02*
X26500Y-19600D01*
X26500Y-10300D02*
X26500Y-18700D01*
X26400Y-30300D02*
X26400Y-30700D01*
X26400Y-23600D02*
X26400Y-29700D01*
X26400Y-21700D02*
X26400Y-22600D01*
X26400Y-20300D02*
X26400Y-21100D01*
X26400Y-19400D02*
X26400Y-19600D01*
X26400Y-11300D02*
X26400Y-18700D01*
X26400Y-10300D02*
X26400Y-10700D01*
X26300Y-30400D02*
X26300Y-30700D01*
X26300Y-23700D02*
X26300Y-29600D01*
X26300Y-21700D02*
X26300Y-22800D01*
X26300Y-20300D02*
X26300Y-21100D01*
X26300Y-19300D02*
X26300Y-19700D01*
X26300Y-11400D02*
X26300Y-18800D01*
X26300Y-10300D02*
X26300Y-10600D01*
X26200Y-30500D02*
X26200Y-30700D01*
X26200Y-23700D02*
X26200Y-29500D01*
X26200Y-21700D02*
X26200Y-22800D01*
X26200Y-20100D02*
X26200Y-21100D01*
X26200Y-11500D02*
X26200Y-19900D01*
X26200Y-10300D02*
X26200Y-10500D01*
X26100Y-30500D02*
X26100Y-30700D01*
X26100Y-23700D02*
X26100Y-29500D01*
X26100Y-21700D02*
X26100Y-23000D01*
X26100Y-11500D02*
X26100Y-21100D01*
X26100Y-10300D02*
X26100Y-10500D01*
X26000Y-30500D02*
X26000Y-30700D01*
X26000Y-23600D02*
X26000Y-29500D01*
X26000Y-21700D02*
X26000Y-23100D01*
X26000Y-11500D02*
X26000Y-21100D01*
X26000Y-10300D02*
X26000Y-10500D01*
X25900Y-30500D02*
X25900Y-30700D01*
X25900Y-25600D02*
X25900Y-29500D01*
X25900Y-23500D02*
X25900Y-25300D01*
X25900Y-21700D02*
X25900Y-23300D01*
X25900Y-18300D02*
X25900Y-21100D01*
X25900Y-11500D02*
X25900Y-17800D01*
X25900Y-10300D02*
X25900Y-10500D01*
X25800Y-30500D02*
X25800Y-30700D01*
X25800Y-25700D02*
X25800Y-29500D01*
X25800Y-18300D02*
X25800Y-25100D01*
X25800Y-17500D02*
X25800Y-17700D01*
X25800Y-13900D02*
X25800Y-17000D01*
X25800Y-11500D02*
X25800Y-13100D01*
X25800Y-10300D02*
X25800Y-10500D01*
X25700Y-30400D02*
X25700Y-30700D01*
X25700Y-25700D02*
X25700Y-29600D01*
X25700Y-23600D02*
X25700Y-25100D01*
X25700Y-18400D02*
X25700Y-23200D01*
X25700Y-17600D02*
X25700Y-17700D01*
X25700Y-14000D02*
X25700Y-16900D01*
X25700Y-11400D02*
X25700Y-13000D01*
X25700Y-10300D02*
X25700Y-10600D01*
X25600Y-30300D02*
X25600Y-30700D01*
X25600Y-25800D02*
X25600Y-29700D01*
X25600Y-23700D02*
X25600Y-25100D01*
X25600Y-18300D02*
X25600Y-23100D01*
X25600Y-17600D02*
X25600Y-17700D01*
X25600Y-14000D02*
X25600Y-16900D01*
X25600Y-11300D02*
X25600Y-13000D01*
X25600Y-10300D02*
X25600Y-10700D01*
X25500Y-25700D02*
X25500Y-30700D01*
X25500Y-23700D02*
X25500Y-25100D01*
X25500Y-18400D02*
X25500Y-23000D01*
X25500Y-14000D02*
X25500Y-16900D01*
X25500Y-10300D02*
X25500Y-13000D01*
X25400Y-30300D02*
X25400Y-30700D01*
X25400Y-25700D02*
X25400Y-29700D01*
X25400Y-23900D02*
X25400Y-25200D01*
X25400Y-18500D02*
X25400Y-23000D01*
X25400Y-14000D02*
X25400Y-17000D01*
X25400Y-11300D02*
X25400Y-13000D01*
X25400Y-10300D02*
X25400Y-10700D01*
X25300Y-30400D02*
X25300Y-30700D01*
X25300Y-24000D02*
X25300Y-29600D01*
X25300Y-18500D02*
X25300Y-23100D01*
X25300Y-13800D02*
X25300Y-17100D01*
X25300Y-11400D02*
X25300Y-13200D01*
X25300Y-10300D02*
X25300Y-10600D01*
X25200Y-30500D02*
X25200Y-30700D01*
X25200Y-24200D02*
X25200Y-29500D01*
X25200Y-18400D02*
X25200Y-23200D01*
X25200Y-11500D02*
X25200Y-17200D01*
X25200Y-10300D02*
X25200Y-10500D01*
X25100Y-30500D02*
X25100Y-30700D01*
X25100Y-24200D02*
X25100Y-29500D01*
X25100Y-18400D02*
X25100Y-23300D01*
X25100Y-11500D02*
X25100Y-17200D01*
X25100Y-10300D02*
X25100Y-10500D01*
X25000Y-30500D02*
X25000Y-30700D01*
X25000Y-24400D02*
X25000Y-29500D01*
X25000Y-18500D02*
X25000Y-23400D01*
X25000Y-11500D02*
X25000Y-17300D01*
X25000Y-10300D02*
X25000Y-10500D01*
X24900Y-30500D02*
X24900Y-30700D01*
X24900Y-24500D02*
X24900Y-29500D01*
X24900Y-18400D02*
X24900Y-23600D01*
X24900Y-11500D02*
X24900Y-17400D01*
X24900Y-10300D02*
X24900Y-10500D01*
X24800Y-30500D02*
X24800Y-30700D01*
X24800Y-25600D02*
X24800Y-29500D01*
X24800Y-24500D02*
X24800Y-25200D01*
X24800Y-18400D02*
X24800Y-23600D01*
X24800Y-11500D02*
X24800Y-17500D01*
X24800Y-10300D02*
X24800Y-10500D01*
X24700Y-30400D02*
X24700Y-30700D01*
X24700Y-25700D02*
X24700Y-29600D01*
X24700Y-24500D02*
X24700Y-25100D01*
X24700Y-11400D02*
X24700Y-23800D01*
X24700Y-10300D02*
X24700Y-10600D01*
X24600Y-30300D02*
X24600Y-30700D01*
X24600Y-25800D02*
X24600Y-29700D01*
X24600Y-24500D02*
X24600Y-25100D01*
X24600Y-11300D02*
X24600Y-23900D01*
X24600Y-10300D02*
X24600Y-10700D01*
X24500Y-25800D02*
X24500Y-30700D01*
X24500Y-24400D02*
X24500Y-25100D01*
X24500Y-10300D02*
X24500Y-24000D01*
X24400Y-30300D02*
X24400Y-30700D01*
X24400Y-25700D02*
X24400Y-29700D01*
X24400Y-11300D02*
X24400Y-25100D01*
X24400Y-10300D02*
X24400Y-10700D01*
X24300Y-30400D02*
X24300Y-30700D01*
X24300Y-25600D02*
X24300Y-29600D01*
X24300Y-13400D02*
X24300Y-25200D01*
X24300Y-11400D02*
X24300Y-13200D01*
X24300Y-10300D02*
X24300Y-10600D01*
X24200Y-30500D02*
X24200Y-30700D01*
X24200Y-13900D02*
X24200Y-29500D01*
X24200Y-11500D02*
X24200Y-13000D01*
X24200Y-10300D02*
X24200Y-10500D01*
X24100Y-30500D02*
X24100Y-30700D01*
X24100Y-14000D02*
X24100Y-29500D01*
X24100Y-11500D02*
X24100Y-13000D01*
X24100Y-10300D02*
X24100Y-10500D01*
X24000Y-30500D02*
X24000Y-30700D01*
X24000Y-16200D02*
X24000Y-29500D01*
X24000Y-14000D02*
X24000Y-15900D01*
X24000Y-11500D02*
X24000Y-13000D01*
X24000Y-10300D02*
X24000Y-10500D01*
X23900Y-30500D02*
X23900Y-30700D01*
X23900Y-27000D02*
X23900Y-29500D01*
X23900Y-26200D02*
X23900Y-26800D01*
X23900Y-16300D02*
X23900Y-25800D01*
X23900Y-14000D02*
X23900Y-15800D01*
X23900Y-11500D02*
X23900Y-13000D01*
X23900Y-10300D02*
X23900Y-10500D01*
X23800Y-30500D02*
X23800Y-30700D01*
X23800Y-27200D02*
X23800Y-29500D01*
X23800Y-26300D02*
X23800Y-26600D01*
X23800Y-16400D02*
X23800Y-25700D01*
X23800Y-14000D02*
X23800Y-15700D01*
X23800Y-11500D02*
X23800Y-13100D01*
X23800Y-10300D02*
X23800Y-10500D01*
X23700Y-30400D02*
X23700Y-30700D01*
X23700Y-27300D02*
X23700Y-29600D01*
X23700Y-26400D02*
X23700Y-26500D01*
X23700Y-16400D02*
X23700Y-25700D01*
X23700Y-13900D02*
X23700Y-15700D01*
X23700Y-11400D02*
X23700Y-13500D01*
X23700Y-10300D02*
X23700Y-10600D01*
X23600Y-30300D02*
X23600Y-30700D01*
X23600Y-27300D02*
X23600Y-29700D01*
X23600Y-16700D02*
X23600Y-25700D01*
X23600Y-16400D02*
X23600Y-16500D01*
X23600Y-11300D02*
X23600Y-15700D01*
X23600Y-10300D02*
X23600Y-10700D01*
X23500Y-27300D02*
X23500Y-30700D01*
X23500Y-24700D02*
X23500Y-25700D01*
X23500Y-23400D02*
X23500Y-24400D01*
X23500Y-16900D02*
X23500Y-22900D01*
X23500Y-10300D02*
X23500Y-15800D01*
X23400Y-30300D02*
X23400Y-30700D01*
X23400Y-27300D02*
X23400Y-29700D01*
X23400Y-24800D02*
X23400Y-25900D01*
X23400Y-23500D02*
X23400Y-24300D01*
X23400Y-18500D02*
X23400Y-22800D01*
X23400Y-16900D02*
X23400Y-18200D01*
X23400Y-11300D02*
X23400Y-16300D01*
X23400Y-10300D02*
X23400Y-10700D01*
X23300Y-30400D02*
X23300Y-30700D01*
X23300Y-27200D02*
X23300Y-29600D01*
X23300Y-24900D02*
X23300Y-25900D01*
X23300Y-23500D02*
X23300Y-24200D01*
X23300Y-18700D02*
X23300Y-22800D01*
X23300Y-17900D02*
X23300Y-18100D01*
X23300Y-16900D02*
X23300Y-17500D01*
X23300Y-11400D02*
X23300Y-16300D01*
X23300Y-10300D02*
X23300Y-10600D01*
X23200Y-30500D02*
X23200Y-30700D01*
X23200Y-26800D02*
X23200Y-29500D01*
X23200Y-24900D02*
X23200Y-26000D01*
X23200Y-23500D02*
X23200Y-24200D01*
X23200Y-18700D02*
X23200Y-22800D01*
X23200Y-16900D02*
X23200Y-17400D01*
X23200Y-11500D02*
X23200Y-16300D01*
X23200Y-10300D02*
X23200Y-10500D01*
X23100Y-30500D02*
X23100Y-30700D01*
X23100Y-26900D02*
X23100Y-29500D01*
X23100Y-24900D02*
X23100Y-26200D01*
X23100Y-23400D02*
X23100Y-24200D01*
X23100Y-18700D02*
X23100Y-22900D01*
X23100Y-16900D02*
X23100Y-17300D01*
X23100Y-11500D02*
X23100Y-16300D01*
X23100Y-10300D02*
X23100Y-10500D01*
X23000Y-30500D02*
X23000Y-30700D01*
X23000Y-26800D02*
X23000Y-29500D01*
X23000Y-25200D02*
X23000Y-26200D01*
X23000Y-23300D02*
X23000Y-24300D01*
X23000Y-18700D02*
X23000Y-23000D01*
X23000Y-11500D02*
X23000Y-17300D01*
X23000Y-10300D02*
X23000Y-10500D01*
X22900Y-30500D02*
X22900Y-30700D01*
X22900Y-26800D02*
X22900Y-29500D01*
X22900Y-25200D02*
X22900Y-26300D01*
X22900Y-18600D02*
X22900Y-24600D01*
X22900Y-16800D02*
X22900Y-17400D01*
X22900Y-11500D02*
X22900Y-16300D01*
X22900Y-10300D02*
X22900Y-10500D01*
X22800Y-30500D02*
X22800Y-30700D01*
X22800Y-25300D02*
X22800Y-29500D01*
X22800Y-18400D02*
X22800Y-24600D01*
X22800Y-16800D02*
X22800Y-17500D01*
X22800Y-11500D02*
X22800Y-16200D01*
X22800Y-10300D02*
X22800Y-10500D01*
X22700Y-30400D02*
X22700Y-30700D01*
X22700Y-25300D02*
X22700Y-29600D01*
X22700Y-22800D02*
X22700Y-24600D01*
X22700Y-18300D02*
X22700Y-22300D01*
X22700Y-16900D02*
X22700Y-17800D01*
X22700Y-11400D02*
X22700Y-16200D01*
X22700Y-10300D02*
X22700Y-10600D01*
X22600Y-30300D02*
X22600Y-30700D01*
X22600Y-25200D02*
X22600Y-29700D01*
X22600Y-22900D02*
X22600Y-24600D01*
X22600Y-16900D02*
X22600Y-21700D01*
X22600Y-11300D02*
X22600Y-16200D01*
X22600Y-10300D02*
X22600Y-10700D01*
X22500Y-25100D02*
X22500Y-30700D01*
X22500Y-22900D02*
X22500Y-24800D01*
X22500Y-19900D02*
X22500Y-21600D01*
X22500Y-16800D02*
X22500Y-19400D01*
X22500Y-10300D02*
X22500Y-16200D01*
X22400Y-30300D02*
X22400Y-30700D01*
X22400Y-22900D02*
X22400Y-29700D01*
X22400Y-20000D02*
X22400Y-21600D01*
X22400Y-18500D02*
X22400Y-19300D01*
X22400Y-17300D02*
X22400Y-17500D01*
X22400Y-16300D02*
X22400Y-16400D01*
X22400Y-15300D02*
X22400Y-15700D01*
X22400Y-14300D02*
X22400Y-14700D01*
X22400Y-13300D02*
X22400Y-13700D01*
X22400Y-11300D02*
X22400Y-12700D01*
X22400Y-10300D02*
X22400Y-10700D01*
X22300Y-30400D02*
X22300Y-30700D01*
X22300Y-22800D02*
X22300Y-29600D01*
X22300Y-20000D02*
X22300Y-21600D01*
X22300Y-18500D02*
X22300Y-19300D01*
X22300Y-17400D02*
X22300Y-17500D01*
X22300Y-16400D02*
X22300Y-16600D01*
X22300Y-15400D02*
X22300Y-15600D01*
X22300Y-14400D02*
X22300Y-14600D01*
X22300Y-13400D02*
X22300Y-13600D01*
X22300Y-11400D02*
X22300Y-12600D01*
X22300Y-10300D02*
X22300Y-10600D01*
X22200Y-30500D02*
X22200Y-30700D01*
X22200Y-22600D02*
X22200Y-29500D01*
X22200Y-20000D02*
X22200Y-21700D01*
X22200Y-18500D02*
X22200Y-19300D01*
X22200Y-11500D02*
X22200Y-12500D01*
X22200Y-10300D02*
X22200Y-10500D01*
X22100Y-30500D02*
X22100Y-30700D01*
X22100Y-22600D02*
X22100Y-29500D01*
X22100Y-19900D02*
X22100Y-22000D01*
X22100Y-18500D02*
X22100Y-19400D01*
X22100Y-11500D02*
X22100Y-12500D01*
X22100Y-10300D02*
X22100Y-10500D01*
X22000Y-30500D02*
X22000Y-30700D01*
X22000Y-22400D02*
X22000Y-29500D01*
X22000Y-20800D02*
X22000Y-22100D01*
X22000Y-19800D02*
X22000Y-20300D01*
X22000Y-18500D02*
X22000Y-19500D01*
X22000Y-11500D02*
X22000Y-12500D01*
X22000Y-10300D02*
X22000Y-10500D01*
X21900Y-30500D02*
X21900Y-30700D01*
X21900Y-21000D02*
X21900Y-29500D01*
X21900Y-18500D02*
X21900Y-20200D01*
X21900Y-11500D02*
X21900Y-12500D01*
X21900Y-10300D02*
X21900Y-10500D01*
X21800Y-30500D02*
X21800Y-30700D01*
X21800Y-21100D02*
X21800Y-29500D01*
X21800Y-18500D02*
X21800Y-20200D01*
X21800Y-11500D02*
X21800Y-12500D01*
X21800Y-10300D02*
X21800Y-10500D01*
X21700Y-30400D02*
X21700Y-30700D01*
X21700Y-21200D02*
X21700Y-29600D01*
X21700Y-18500D02*
X21700Y-20200D01*
X21700Y-17400D02*
X21700Y-17500D01*
X21700Y-16400D02*
X21700Y-16600D01*
X21700Y-15400D02*
X21700Y-15600D01*
X21700Y-14400D02*
X21700Y-14600D01*
X21700Y-13400D02*
X21700Y-13600D01*
X21700Y-11400D02*
X21700Y-12600D01*
X21700Y-10300D02*
X21700Y-10600D01*
X21600Y-30300D02*
X21600Y-30700D01*
X21600Y-21200D02*
X21600Y-29700D01*
X21600Y-18500D02*
X21600Y-20200D01*
X21600Y-17300D02*
X21600Y-17500D01*
X21600Y-16300D02*
X21600Y-16700D01*
X21600Y-15300D02*
X21600Y-15700D01*
X21600Y-14300D02*
X21600Y-14700D01*
X21600Y-13300D02*
X21600Y-13700D01*
X21600Y-11300D02*
X21600Y-12700D01*
X21600Y-10300D02*
X21600Y-10700D01*
X21500Y-21100D02*
X21500Y-30700D01*
X21500Y-10300D02*
X21500Y-20400D01*
X21400Y-30300D02*
X21400Y-30700D01*
X21400Y-21100D02*
X21400Y-29700D01*
X21400Y-11300D02*
X21400Y-20600D01*
X21400Y-10300D02*
X21400Y-10700D01*
X21300Y-30400D02*
X21300Y-30700D01*
X21300Y-11400D02*
X21300Y-29600D01*
X21300Y-10300D02*
X21300Y-10600D01*
X21200Y-30500D02*
X21200Y-30700D01*
X21200Y-11500D02*
X21200Y-29500D01*
X21200Y-10300D02*
X21200Y-10500D01*
X21100Y-30500D02*
X21100Y-30700D01*
X21100Y-25100D02*
X21100Y-29500D01*
X21100Y-11500D02*
X21100Y-24700D01*
X21100Y-10300D02*
X21100Y-10500D01*
X21000Y-30500D02*
X21000Y-30700D01*
X21000Y-26700D02*
X21000Y-29500D01*
X21000Y-25200D02*
X21000Y-26300D01*
X21000Y-11500D02*
X21000Y-24600D01*
X21000Y-10300D02*
X21000Y-10500D01*
X20900Y-30500D02*
X20900Y-30700D01*
X20900Y-26900D02*
X20900Y-29500D01*
X20900Y-25300D02*
X20900Y-26200D01*
X20900Y-21000D02*
X20900Y-24600D01*
X20900Y-14100D02*
X20900Y-20700D01*
X20900Y-11500D02*
X20900Y-13800D01*
X20900Y-10300D02*
X20900Y-10500D01*
X20800Y-30500D02*
X20800Y-30700D01*
X20800Y-26900D02*
X20800Y-29500D01*
X20800Y-25300D02*
X20800Y-26100D01*
X20800Y-21100D02*
X20800Y-24600D01*
X20800Y-14200D02*
X20800Y-20600D01*
X20800Y-11500D02*
X20800Y-13700D01*
X20800Y-10300D02*
X20800Y-10500D01*
X20700Y-30400D02*
X20700Y-30700D01*
X20700Y-26900D02*
X20700Y-29600D01*
X20700Y-25200D02*
X20700Y-26100D01*
X20700Y-21200D02*
X20700Y-24600D01*
X20700Y-14300D02*
X20700Y-20500D01*
X20700Y-11400D02*
X20700Y-13600D01*
X20700Y-10300D02*
X20700Y-10600D01*
X20600Y-30300D02*
X20600Y-30700D01*
X20600Y-26900D02*
X20600Y-29700D01*
X20600Y-25100D02*
X20600Y-26100D01*
X20600Y-21200D02*
X20600Y-24700D01*
X20600Y-14300D02*
X20600Y-20500D01*
X20600Y-11300D02*
X20600Y-13600D01*
X20600Y-10300D02*
X20600Y-10700D01*
X20500Y-26800D02*
X20500Y-30700D01*
X20500Y-21200D02*
X20500Y-26200D01*
X20500Y-14300D02*
X20500Y-20500D01*
X20500Y-10300D02*
X20500Y-13600D01*
X20400Y-30300D02*
X20400Y-30700D01*
X20400Y-26700D02*
X20400Y-29700D01*
X20400Y-24500D02*
X20400Y-26300D01*
X20400Y-23300D02*
X20400Y-23500D01*
X20400Y-22300D02*
X20400Y-22700D01*
X20400Y-21300D02*
X20400Y-21700D01*
X20400Y-14200D02*
X20400Y-20600D01*
X20400Y-11300D02*
X20400Y-13700D01*
X20400Y-10300D02*
X20400Y-10700D01*
X20300Y-30400D02*
X20300Y-30700D01*
X20300Y-24500D02*
X20300Y-29600D01*
X20300Y-23400D02*
X20300Y-23500D01*
X20300Y-22400D02*
X20300Y-22600D01*
X20300Y-21400D02*
X20300Y-21600D01*
X20300Y-11400D02*
X20300Y-20600D01*
X20300Y-10300D02*
X20300Y-10600D01*
X20200Y-30500D02*
X20200Y-30700D01*
X20200Y-24500D02*
X20200Y-29500D01*
X20200Y-11500D02*
X20200Y-20500D01*
X20200Y-10300D02*
X20200Y-10500D01*
X20100Y-30500D02*
X20100Y-30700D01*
X20100Y-24500D02*
X20100Y-29500D01*
X20100Y-11500D02*
X20100Y-20500D01*
X20100Y-10300D02*
X20100Y-10500D01*
X20000Y-30500D02*
X20000Y-30700D01*
X20000Y-24500D02*
X20000Y-29500D01*
X20000Y-11500D02*
X20000Y-20500D01*
X20000Y-10300D02*
X20000Y-10500D01*
X19900Y-30500D02*
X19900Y-30700D01*
X19900Y-24500D02*
X19900Y-29500D01*
X19900Y-11500D02*
X19900Y-20500D01*
X19900Y-10300D02*
X19900Y-10500D01*
X19800Y-30500D02*
X19800Y-30700D01*
X19800Y-24500D02*
X19800Y-29500D01*
X19800Y-11500D02*
X19800Y-20500D01*
X19800Y-10300D02*
X19800Y-10500D01*
X19700Y-30400D02*
X19700Y-30700D01*
X19700Y-24500D02*
X19700Y-29600D01*
X19700Y-23400D02*
X19700Y-23500D01*
X19700Y-22400D02*
X19700Y-22600D01*
X19700Y-21400D02*
X19700Y-21600D01*
X19700Y-11400D02*
X19700Y-20600D01*
X19700Y-10300D02*
X19700Y-10600D01*
X19600Y-30300D02*
X19600Y-30700D01*
X19600Y-24500D02*
X19600Y-29700D01*
X19600Y-23300D02*
X19600Y-23500D01*
X19600Y-22300D02*
X19600Y-22700D01*
X19600Y-21300D02*
X19600Y-21700D01*
X19600Y-11300D02*
X19600Y-20700D01*
X19600Y-10300D02*
X19600Y-10700D01*
X19500Y-10300D02*
X19500Y-30700D01*
X19400Y-30300D02*
X19400Y-30700D01*
X19400Y-24300D02*
X19400Y-29700D01*
X19400Y-23300D02*
X19400Y-23700D01*
X19400Y-22300D02*
X19400Y-22700D01*
X19400Y-21300D02*
X19400Y-21700D01*
X19400Y-11300D02*
X19400Y-20700D01*
X19400Y-10300D02*
X19400Y-10700D01*
X19300Y-30400D02*
X19300Y-30700D01*
X19300Y-24400D02*
X19300Y-29600D01*
X19300Y-23400D02*
X19300Y-23600D01*
X19300Y-22400D02*
X19300Y-22600D01*
X19300Y-21400D02*
X19300Y-21600D01*
X19300Y-11400D02*
X19300Y-20600D01*
X19300Y-10300D02*
X19300Y-10600D01*
X19200Y-30500D02*
X19200Y-30700D01*
X19200Y-24500D02*
X19200Y-29500D01*
X19200Y-11500D02*
X19200Y-20500D01*
X19200Y-10300D02*
X19200Y-10500D01*
X19100Y-30500D02*
X19100Y-30700D01*
X19100Y-24500D02*
X19100Y-29500D01*
X19100Y-11500D02*
X19100Y-20500D01*
X19100Y-10300D02*
X19100Y-10500D01*
X19000Y-30500D02*
X19000Y-30700D01*
X19000Y-27200D02*
X19000Y-29500D01*
X19000Y-24500D02*
X19000Y-26700D01*
X19000Y-11500D02*
X19000Y-20500D01*
X19000Y-10300D02*
X19000Y-10500D01*
X18900Y-30500D02*
X18900Y-30700D01*
X18900Y-27300D02*
X18900Y-29500D01*
X18900Y-24500D02*
X18900Y-26600D01*
X18900Y-18900D02*
X18900Y-20500D01*
X18900Y-11500D02*
X18900Y-18500D01*
X18900Y-10300D02*
X18900Y-10500D01*
X18800Y-30500D02*
X18800Y-30700D01*
X18800Y-27300D02*
X18800Y-29500D01*
X18800Y-24500D02*
X18800Y-26600D01*
X18800Y-19000D02*
X18800Y-20500D01*
X18800Y-11500D02*
X18800Y-18400D01*
X18800Y-10300D02*
X18800Y-10500D01*
X18700Y-30400D02*
X18700Y-30700D01*
X18700Y-27300D02*
X18700Y-29600D01*
X18700Y-24400D02*
X18700Y-26600D01*
X18700Y-23400D02*
X18700Y-23600D01*
X18700Y-22400D02*
X18700Y-22600D01*
X18700Y-21400D02*
X18700Y-21600D01*
X18700Y-19000D02*
X18700Y-20600D01*
X18700Y-11400D02*
X18700Y-18400D01*
X18700Y-10300D02*
X18700Y-10600D01*
X18600Y-30300D02*
X18600Y-30700D01*
X18600Y-27300D02*
X18600Y-29700D01*
X18600Y-24300D02*
X18600Y-26600D01*
X18600Y-23300D02*
X18600Y-23700D01*
X18600Y-22300D02*
X18600Y-22700D01*
X18600Y-21300D02*
X18600Y-21700D01*
X18600Y-19200D02*
X18600Y-20700D01*
X18600Y-11300D02*
X18600Y-18400D01*
X18600Y-10300D02*
X18600Y-10700D01*
X18500Y-27200D02*
X18500Y-30700D01*
X18500Y-19300D02*
X18500Y-26700D01*
X18500Y-10300D02*
X18500Y-18400D01*
X18400Y-30300D02*
X18400Y-30700D01*
X18400Y-19300D02*
X18400Y-29700D01*
X18400Y-11300D02*
X18400Y-18500D01*
X18400Y-10300D02*
X18400Y-10700D01*
X18300Y-30400D02*
X18300Y-30700D01*
X18300Y-19300D02*
X18300Y-29600D01*
X18300Y-11400D02*
X18300Y-18700D01*
X18300Y-10300D02*
X18300Y-10600D01*
X18200Y-30500D02*
X18200Y-30700D01*
X18200Y-19300D02*
X18200Y-29500D01*
X18200Y-11500D02*
X18200Y-18700D01*
X18200Y-10300D02*
X18200Y-10500D01*
X18100Y-30500D02*
X18100Y-30700D01*
X18100Y-19200D02*
X18100Y-29500D01*
X18100Y-11500D02*
X18100Y-18800D01*
X18100Y-10300D02*
X18100Y-10500D01*
X18000Y-30500D02*
X18000Y-30700D01*
X18000Y-11500D02*
X18000Y-29500D01*
X18000Y-10300D02*
X18000Y-10500D01*
X17900Y-30500D02*
X17900Y-30700D01*
X17900Y-24700D02*
X17900Y-29500D01*
X17900Y-19500D02*
X17900Y-24400D01*
X17900Y-18900D02*
X17900Y-19100D01*
X17900Y-11500D02*
X17900Y-18500D01*
X17900Y-10300D02*
X17900Y-10500D01*
X17800Y-30500D02*
X17800Y-30700D01*
X17800Y-24800D02*
X17800Y-29500D01*
X17800Y-19600D02*
X17800Y-24300D01*
X17800Y-11500D02*
X17800Y-18400D01*
X17800Y-10300D02*
X17800Y-10500D01*
X17700Y-30400D02*
X17700Y-30700D01*
X17700Y-24900D02*
X17700Y-29600D01*
X17700Y-19600D02*
X17700Y-24200D01*
X17700Y-11400D02*
X17700Y-18400D01*
X17700Y-10300D02*
X17700Y-10600D01*
X17600Y-30300D02*
X17600Y-30700D01*
X17600Y-24900D02*
X17600Y-29700D01*
X17600Y-19600D02*
X17600Y-24200D01*
X17600Y-11300D02*
X17600Y-18400D01*
X17600Y-10300D02*
X17600Y-10700D01*
X17500Y-24900D02*
X17500Y-30700D01*
X17500Y-19600D02*
X17500Y-24200D01*
X17500Y-16600D02*
X17500Y-18400D01*
X17500Y-10300D02*
X17500Y-16200D01*
X17400Y-30300D02*
X17400Y-30700D01*
X17400Y-24800D02*
X17400Y-29700D01*
X17400Y-19500D02*
X17400Y-24300D01*
X17400Y-18900D02*
X17400Y-19100D01*
X17400Y-16700D02*
X17400Y-18500D01*
X17400Y-15900D02*
X17400Y-16100D01*
X17400Y-11300D02*
X17400Y-15300D01*
X17400Y-10300D02*
X17400Y-10700D01*
X17300Y-30400D02*
X17300Y-30700D01*
X17300Y-16700D02*
X17300Y-29600D01*
X17300Y-15900D02*
X17300Y-16000D01*
X17300Y-11400D02*
X17300Y-15300D01*
X17300Y-10300D02*
X17300Y-10600D01*
X17200Y-30500D02*
X17200Y-30700D01*
X17200Y-24200D02*
X17200Y-29500D01*
X17200Y-16800D02*
X17200Y-23700D01*
X17200Y-11500D02*
X17200Y-15200D01*
X17200Y-10300D02*
X17200Y-10500D01*
X17100Y-30500D02*
X17100Y-30700D01*
X17100Y-24300D02*
X17100Y-29500D01*
X17100Y-16700D02*
X17100Y-23600D01*
X17100Y-11500D02*
X17100Y-15200D01*
X17100Y-10300D02*
X17100Y-10500D01*
X17000Y-30500D02*
X17000Y-30700D01*
X17000Y-24300D02*
X17000Y-29500D01*
X17000Y-16700D02*
X17000Y-23600D01*
X17000Y-11500D02*
X17000Y-15200D01*
X17000Y-10300D02*
X17000Y-10500D01*
X16900Y-30500D02*
X16900Y-30700D01*
X16900Y-24300D02*
X16900Y-29500D01*
X16900Y-16600D02*
X16900Y-23600D01*
X16900Y-15900D02*
X16900Y-16100D01*
X16900Y-11500D02*
X16900Y-14900D01*
X16900Y-10300D02*
X16900Y-10500D01*
X16800Y-30500D02*
X16800Y-30700D01*
X16800Y-24200D02*
X16800Y-29500D01*
X16800Y-21600D02*
X16800Y-23700D01*
X16800Y-15400D02*
X16800Y-21100D01*
X16800Y-11500D02*
X16800Y-14800D01*
X16800Y-10300D02*
X16800Y-10500D01*
X16700Y-30400D02*
X16700Y-30700D01*
X16700Y-21700D02*
X16700Y-29600D01*
X16700Y-15500D02*
X16700Y-21000D01*
X16700Y-11400D02*
X16700Y-14700D01*
X16700Y-10300D02*
X16700Y-10600D01*
X16600Y-30300D02*
X16600Y-30700D01*
X16600Y-21700D02*
X16600Y-29700D01*
X16600Y-17700D02*
X16600Y-21000D01*
X16600Y-15500D02*
X16600Y-17300D01*
X16600Y-11300D02*
X16600Y-14700D01*
X16600Y-10300D02*
X16600Y-10700D01*
X16500Y-23800D02*
X16500Y-30700D01*
X16500Y-21700D02*
X16500Y-23400D01*
X16500Y-17800D02*
X16500Y-21000D01*
X16500Y-15500D02*
X16500Y-17200D01*
X16500Y-10300D02*
X16500Y-14700D01*
X16400Y-30300D02*
X16400Y-30700D01*
X16400Y-23900D02*
X16400Y-29700D01*
X16400Y-21600D02*
X16400Y-23300D01*
X16400Y-17800D02*
X16400Y-21100D01*
X16400Y-15400D02*
X16400Y-17200D01*
X16400Y-11300D02*
X16400Y-14800D01*
X16400Y-10300D02*
X16400Y-10700D01*
X16300Y-30400D02*
X16300Y-30700D01*
X16300Y-23900D02*
X16300Y-29600D01*
X16300Y-21500D02*
X16300Y-23300D01*
X16300Y-17800D02*
X16300Y-21200D01*
X16300Y-15300D02*
X16300Y-17200D01*
X16300Y-11400D02*
X16300Y-14900D01*
X16300Y-10300D02*
X16300Y-10600D01*
X16200Y-30500D02*
X16200Y-30700D01*
X16200Y-23900D02*
X16200Y-29500D01*
X16200Y-17800D02*
X16200Y-23300D01*
X16200Y-11500D02*
X16200Y-17200D01*
X16200Y-10300D02*
X16200Y-10500D01*
X16100Y-30500D02*
X16100Y-30700D01*
X16100Y-23900D02*
X16100Y-29500D01*
X16100Y-17700D02*
X16100Y-23300D01*
X16100Y-11500D02*
X16100Y-17300D01*
X16100Y-10300D02*
X16100Y-10500D01*
X16000Y-30500D02*
X16000Y-30700D01*
X16000Y-23900D02*
X16000Y-28200D01*
X16000Y-11500D02*
X16000Y-23400D01*
X16000Y-10300D02*
X16000Y-10500D01*
X15900Y-30500D02*
X15900Y-30700D01*
X15900Y-24000D02*
X15900Y-28200D01*
X15900Y-11500D02*
X15900Y-23500D01*
X15900Y-10300D02*
X15900Y-10500D01*
X15800Y-30500D02*
X15800Y-30700D01*
X15800Y-24100D02*
X15800Y-28200D01*
X15800Y-11500D02*
X15800Y-23400D01*
X15800Y-10300D02*
X15800Y-10500D01*
X15700Y-30400D02*
X15700Y-30700D01*
X15700Y-24100D02*
X15700Y-28200D01*
X15700Y-11400D02*
X15700Y-23400D01*
X15700Y-10300D02*
X15700Y-10600D01*
X15600Y-30300D02*
X15600Y-30700D01*
X15600Y-29500D02*
X15600Y-29700D01*
X15600Y-24100D02*
X15600Y-28200D01*
X15600Y-11300D02*
X15600Y-23400D01*
X15600Y-10300D02*
X15600Y-10700D01*
X15500Y-29100D02*
X15500Y-30700D01*
X15500Y-24000D02*
X15500Y-28600D01*
X15500Y-10300D02*
X15500Y-23500D01*
X15400Y-30300D02*
X15400Y-30700D01*
X15400Y-11300D02*
X15400Y-29700D01*
X15400Y-10300D02*
X15400Y-10700D01*
X15300Y-30400D02*
X15300Y-30700D01*
X15300Y-11400D02*
X15300Y-29600D01*
X15300Y-10300D02*
X15300Y-10600D01*
X15200Y-30500D02*
X15200Y-30700D01*
X15200Y-11500D02*
X15200Y-29500D01*
X15200Y-10300D02*
X15200Y-10500D01*
X15100Y-30500D02*
X15100Y-30700D01*
X15100Y-11500D02*
X15100Y-29500D01*
X15100Y-10300D02*
X15100Y-10500D01*
X15000Y-30500D02*
X15000Y-30700D01*
X15000Y-22600D02*
X15000Y-29500D01*
X15000Y-11500D02*
X15000Y-22000D01*
X15000Y-10300D02*
X15000Y-10500D01*
X14900Y-30500D02*
X14900Y-30700D01*
X14900Y-22600D02*
X14900Y-29500D01*
X14900Y-11500D02*
X14900Y-22000D01*
X14900Y-10300D02*
X14900Y-10500D01*
X14800Y-30500D02*
X14800Y-30700D01*
X14800Y-22600D02*
X14800Y-29500D01*
X14800Y-11500D02*
X14800Y-22000D01*
X14800Y-10300D02*
X14800Y-10500D01*
X14700Y-30400D02*
X14700Y-30700D01*
X14700Y-22600D02*
X14700Y-29600D01*
X14700Y-11400D02*
X14700Y-22000D01*
X14700Y-10300D02*
X14700Y-10600D01*
X14600Y-30300D02*
X14600Y-30700D01*
X14600Y-22600D02*
X14600Y-29700D01*
X14600Y-17100D02*
X14600Y-22000D01*
X14600Y-12800D02*
X14600Y-16700D01*
X14600Y-11300D02*
X14600Y-12500D01*
X14600Y-10300D02*
X14600Y-10700D01*
X14500Y-22400D02*
X14500Y-30700D01*
X14500Y-17200D02*
X14500Y-22200D01*
X14500Y-13000D02*
X14500Y-16600D01*
X14500Y-10300D02*
X14500Y-12400D01*
X14400Y-17300D02*
X14400Y-30700D01*
X14400Y-13100D02*
X14400Y-16500D01*
X14400Y-11500D02*
X14400Y-12300D01*
X14400Y-10300D02*
X14400Y-10500D01*
X14300Y-17300D02*
X14300Y-30700D01*
X14300Y-13100D02*
X14300Y-16500D01*
X14300Y-11500D02*
X14300Y-12300D01*
X14300Y-10300D02*
X14300Y-10500D01*
X14200Y-17300D02*
X14200Y-30700D01*
X14200Y-13100D02*
X14200Y-16500D01*
X14200Y-11500D02*
X14200Y-12300D01*
X14200Y-10300D02*
X14200Y-10500D01*
X14100Y-17200D02*
X14100Y-30700D01*
X14100Y-13000D02*
X14100Y-16600D01*
X14100Y-11500D02*
X14100Y-12300D01*
X14100Y-10300D02*
X14100Y-10500D01*
X14000Y-17100D02*
X14000Y-30700D01*
X14000Y-12900D02*
X14000Y-16700D01*
X14000Y-11500D02*
X14000Y-12400D01*
X14000Y-10300D02*
X14000Y-10500D01*
X13900Y-11500D02*
X13900Y-30700D01*
X13900Y-10300D02*
X13900Y-10500D01*
X13800Y-11500D02*
X13800Y-30700D01*
X13800Y-10300D02*
X13800Y-10500D01*
X13700Y-11500D02*
X13700Y-30700D01*
X13700Y-10300D02*
X13700Y-10500D01*
X13600Y-11500D02*
X13600Y-30700D01*
X13600Y-10300D02*
X13600Y-10500D01*
X13500Y-10300D02*
X13500Y-30700D01*
X13400Y-15300D02*
X13400Y-30700D01*
X13400Y-11300D02*
X13400Y-14700D01*
X13400Y-10300D02*
X13400Y-10700D01*
X13300Y-15400D02*
X13300Y-30700D01*
X13300Y-11400D02*
X13300Y-14700D01*
X13300Y-10300D02*
X13300Y-10600D01*
X13200Y-15400D02*
X13200Y-30700D01*
X13200Y-11500D02*
X13200Y-14600D01*
X13200Y-10300D02*
X13200Y-10500D01*
X13100Y-15400D02*
X13100Y-30700D01*
X13100Y-11500D02*
X13100Y-14600D01*
X13100Y-10300D02*
X13100Y-10500D01*
X13000Y-15400D02*
X13000Y-30700D01*
X13000Y-11500D02*
X13000Y-14700D01*
X13000Y-10300D02*
X13000Y-10500D01*
X12900Y-15300D02*
X12900Y-30700D01*
X12900Y-11500D02*
X12900Y-14700D01*
X12900Y-10300D02*
X12900Y-10500D01*
X12800Y-14100D02*
X12800Y-30700D01*
X12800Y-11500D02*
X12800Y-13800D01*
X12800Y-10300D02*
X12800Y-10500D01*
X12700Y-14300D02*
X12700Y-30700D01*
X12700Y-11400D02*
X12700Y-13700D01*
X12700Y-10300D02*
X12700Y-10600D01*
X12600Y-14300D02*
X12600Y-30700D01*
X12600Y-11300D02*
X12600Y-13600D01*
X12600Y-10300D02*
X12600Y-10700D01*
X12500Y-14300D02*
X12500Y-30700D01*
X12500Y-10300D02*
X12500Y-13600D01*
X12400Y-14300D02*
X12400Y-30700D01*
X12400Y-10300D02*
X12400Y-13600D01*
X12300Y-14300D02*
X12300Y-30700D01*
X12300Y-10300D02*
X12300Y-13600D01*
X12200Y-14400D02*
X12200Y-30700D01*
X12200Y-10300D02*
X12200Y-13700D01*
X12100Y-21400D02*
X12100Y-30700D01*
X12100Y-19700D02*
X12100Y-20900D01*
X12100Y-14400D02*
X12100Y-19100D01*
X12100Y-10300D02*
X12100Y-13700D01*
X12000Y-21500D02*
X12000Y-30700D01*
X12000Y-19800D02*
X12000Y-20800D01*
X12000Y-14400D02*
X12000Y-19100D01*
X12000Y-10300D02*
X12000Y-13800D01*
X11900Y-21500D02*
X11900Y-30700D01*
X11900Y-19800D02*
X11900Y-20800D01*
X11900Y-14300D02*
X11900Y-19000D01*
X11900Y-10300D02*
X11900Y-13800D01*
X11800Y-21500D02*
X11800Y-30700D01*
X11800Y-19800D02*
X11800Y-20800D01*
X11800Y-10300D02*
X11800Y-19000D01*
X11700Y-21500D02*
X11700Y-30700D01*
X11700Y-19800D02*
X11700Y-20800D01*
X11700Y-10300D02*
X11700Y-19100D01*
X11600Y-21400D02*
X11600Y-30700D01*
X11600Y-19700D02*
X11600Y-20900D01*
X11600Y-10300D02*
X11600Y-19100D01*
X11500Y-10300D02*
X11500Y-30700D01*
X11400Y-26700D02*
X11400Y-30700D01*
X11400Y-10300D02*
X11400Y-26000D01*
X11300Y-26900D02*
X11300Y-30700D01*
X11300Y-10300D02*
X11300Y-25900D01*
X11200Y-26900D02*
X11200Y-30700D01*
X11200Y-10300D02*
X11200Y-25800D01*
X11100Y-26900D02*
X11100Y-30700D01*
X11100Y-10300D02*
X11100Y-25800D01*
X11000Y-26900D02*
X11000Y-30700D01*
X11000Y-10300D02*
X11000Y-25900D01*
X10900Y-26800D02*
X10900Y-30700D01*
X10900Y-10300D02*
X10900Y-25900D01*
X10800Y-10300D02*
X10800Y-30700D01*
X10700Y-13500D02*
X10700Y-30600D01*
X10700Y-10400D02*
X10700Y-13300D01*
X10600Y-14200D02*
X10600Y-30600D01*
X10600Y-10400D02*
X10600Y-13100D01*
X10500Y-14300D02*
X10500Y-30500D01*
X10500Y-10500D02*
X10500Y-13100D01*
X10400Y-14400D02*
X10400Y-30400D01*
X10400Y-10600D02*
X10400Y-13100D01*
X10300Y-14400D02*
X10300Y-30200D01*
X10300Y-10800D02*
X10300Y-13100D01*
X46000Y-30700D02*
X49200Y-30700D01*
X35500Y-30700D02*
X45400Y-30700D01*
X10800Y-30700D02*
X34900Y-30700D01*
X46000Y-30600D02*
X49400Y-30600D01*
X35500Y-30600D02*
X45400Y-30600D01*
X10600Y-30600D02*
X34900Y-30600D01*
X46000Y-30500D02*
X49500Y-30500D01*
X35500Y-30500D02*
X45400Y-30500D01*
X10500Y-30500D02*
X34900Y-30500D01*
X46500Y-30400D02*
X49600Y-30400D01*
X45300Y-30400D02*
X45400Y-30400D01*
X44300Y-30400D02*
X44700Y-30400D01*
X43300Y-30400D02*
X43700Y-30400D01*
X42300Y-30400D02*
X42700Y-30400D01*
X41300Y-30400D02*
X41700Y-30400D01*
X40300Y-30400D02*
X40700Y-30400D01*
X39300Y-30400D02*
X39700Y-30400D01*
X38300Y-30400D02*
X38700Y-30400D01*
X37300Y-30400D02*
X37700Y-30400D01*
X36300Y-30400D02*
X36700Y-30400D01*
X35500Y-30400D02*
X35700Y-30400D01*
X34300Y-30400D02*
X34700Y-30400D01*
X33300Y-30400D02*
X33700Y-30400D01*
X32300Y-30400D02*
X32700Y-30400D01*
X31300Y-30400D02*
X31700Y-30400D01*
X30300Y-30400D02*
X30700Y-30400D01*
X29300Y-30400D02*
X29700Y-30400D01*
X28300Y-30400D02*
X28700Y-30400D01*
X27300Y-30400D02*
X27700Y-30400D01*
X26300Y-30400D02*
X26700Y-30400D01*
X25300Y-30400D02*
X25700Y-30400D01*
X24300Y-30400D02*
X24700Y-30400D01*
X23300Y-30400D02*
X23700Y-30400D01*
X22300Y-30400D02*
X22700Y-30400D01*
X21300Y-30400D02*
X21700Y-30400D01*
X20300Y-30400D02*
X20700Y-30400D01*
X19300Y-30400D02*
X19700Y-30400D01*
X18300Y-30400D02*
X18700Y-30400D01*
X17300Y-30400D02*
X17700Y-30400D01*
X16300Y-30400D02*
X16700Y-30400D01*
X15300Y-30400D02*
X15700Y-30400D01*
X10400Y-30400D02*
X14700Y-30400D01*
X46500Y-30300D02*
X49600Y-30300D01*
X44400Y-30300D02*
X44600Y-30300D01*
X43400Y-30300D02*
X43600Y-30300D01*
X42400Y-30300D02*
X42600Y-30300D01*
X41400Y-30300D02*
X41600Y-30300D01*
X40400Y-30300D02*
X40600Y-30300D01*
X39400Y-30300D02*
X39600Y-30300D01*
X38400Y-30300D02*
X38600Y-30300D01*
X37400Y-30300D02*
X37600Y-30300D01*
X36400Y-30300D02*
X36600Y-30300D01*
X35500Y-30300D02*
X35600Y-30300D01*
X34400Y-30300D02*
X34600Y-30300D01*
X33400Y-30300D02*
X33600Y-30300D01*
X32400Y-30300D02*
X32600Y-30300D01*
X31400Y-30300D02*
X31600Y-30300D01*
X30400Y-30300D02*
X30600Y-30300D01*
X29400Y-30300D02*
X29600Y-30300D01*
X28400Y-30300D02*
X28600Y-30300D01*
X27400Y-30300D02*
X27600Y-30300D01*
X26400Y-30300D02*
X26600Y-30300D01*
X25400Y-30300D02*
X25600Y-30300D01*
X24400Y-30300D02*
X24600Y-30300D01*
X23400Y-30300D02*
X23600Y-30300D01*
X22400Y-30300D02*
X22600Y-30300D01*
X21400Y-30300D02*
X21600Y-30300D01*
X20400Y-30300D02*
X20600Y-30300D01*
X19400Y-30300D02*
X19600Y-30300D01*
X18400Y-30300D02*
X18600Y-30300D01*
X17400Y-30300D02*
X17600Y-30300D01*
X16400Y-30300D02*
X16600Y-30300D01*
X15400Y-30300D02*
X15600Y-30300D01*
X10400Y-30300D02*
X14600Y-30300D01*
X46500Y-30200D02*
X49700Y-30200D01*
X10300Y-30200D02*
X14500Y-30200D01*
X46500Y-30100D02*
X49700Y-30100D01*
X10300Y-30100D02*
X14500Y-30100D01*
X46500Y-30000D02*
X49700Y-30000D01*
X10300Y-30000D02*
X14500Y-30000D01*
X46500Y-29900D02*
X49700Y-29900D01*
X10300Y-29900D02*
X14500Y-29900D01*
X46500Y-29800D02*
X49700Y-29800D01*
X10300Y-29800D02*
X14500Y-29800D01*
X46500Y-29700D02*
X49700Y-29700D01*
X44400Y-29700D02*
X44600Y-29700D01*
X43400Y-29700D02*
X43600Y-29700D01*
X42400Y-29700D02*
X42600Y-29700D01*
X41400Y-29700D02*
X41600Y-29700D01*
X40400Y-29700D02*
X40600Y-29700D01*
X39400Y-29700D02*
X39600Y-29700D01*
X38400Y-29700D02*
X38600Y-29700D01*
X37400Y-29700D02*
X37600Y-29700D01*
X36400Y-29700D02*
X36600Y-29700D01*
X35500Y-29700D02*
X35600Y-29700D01*
X34400Y-29700D02*
X34600Y-29700D01*
X33400Y-29700D02*
X33600Y-29700D01*
X32400Y-29700D02*
X32600Y-29700D01*
X31400Y-29700D02*
X31600Y-29700D01*
X30400Y-29700D02*
X30600Y-29700D01*
X29400Y-29700D02*
X29600Y-29700D01*
X28400Y-29700D02*
X28600Y-29700D01*
X27400Y-29700D02*
X27600Y-29700D01*
X26400Y-29700D02*
X26600Y-29700D01*
X25400Y-29700D02*
X25600Y-29700D01*
X24400Y-29700D02*
X24600Y-29700D01*
X23400Y-29700D02*
X23600Y-29700D01*
X22400Y-29700D02*
X22600Y-29700D01*
X21400Y-29700D02*
X21600Y-29700D01*
X20400Y-29700D02*
X20600Y-29700D01*
X19400Y-29700D02*
X19600Y-29700D01*
X18400Y-29700D02*
X18600Y-29700D01*
X17400Y-29700D02*
X17600Y-29700D01*
X16400Y-29700D02*
X16600Y-29700D01*
X15400Y-29700D02*
X15600Y-29700D01*
X10300Y-29700D02*
X14600Y-29700D01*
X46500Y-29600D02*
X49700Y-29600D01*
X45300Y-29600D02*
X45400Y-29600D01*
X44300Y-29600D02*
X44700Y-29600D01*
X43300Y-29600D02*
X43700Y-29600D01*
X42300Y-29600D02*
X42700Y-29600D01*
X41300Y-29600D02*
X41700Y-29600D01*
X40300Y-29600D02*
X40700Y-29600D01*
X39300Y-29600D02*
X39700Y-29600D01*
X38300Y-29600D02*
X38700Y-29600D01*
X37300Y-29600D02*
X37700Y-29600D01*
X36300Y-29600D02*
X36700Y-29600D01*
X35400Y-29600D02*
X35700Y-29600D01*
X34300Y-29600D02*
X34700Y-29600D01*
X33300Y-29600D02*
X33700Y-29600D01*
X32300Y-29600D02*
X32700Y-29600D01*
X31300Y-29600D02*
X31700Y-29600D01*
X30300Y-29600D02*
X30700Y-29600D01*
X29300Y-29600D02*
X29700Y-29600D01*
X28300Y-29600D02*
X28700Y-29600D01*
X27300Y-29600D02*
X27700Y-29600D01*
X26300Y-29600D02*
X26700Y-29600D01*
X25300Y-29600D02*
X25700Y-29600D01*
X24300Y-29600D02*
X24700Y-29600D01*
X23300Y-29600D02*
X23700Y-29600D01*
X22300Y-29600D02*
X22700Y-29600D01*
X21300Y-29600D02*
X21700Y-29600D01*
X20300Y-29600D02*
X20700Y-29600D01*
X19300Y-29600D02*
X19700Y-29600D01*
X18300Y-29600D02*
X18700Y-29600D01*
X17300Y-29600D02*
X17700Y-29600D01*
X16300Y-29600D02*
X16700Y-29600D01*
X15300Y-29600D02*
X15700Y-29600D01*
X10300Y-29600D02*
X14700Y-29600D01*
X46000Y-29500D02*
X49700Y-29500D01*
X35300Y-29500D02*
X45400Y-29500D01*
X16000Y-29500D02*
X34500Y-29500D01*
X10300Y-29500D02*
X15600Y-29500D01*
X46000Y-29400D02*
X49700Y-29400D01*
X35200Y-29400D02*
X45400Y-29400D01*
X16100Y-29400D02*
X34400Y-29400D01*
X10300Y-29400D02*
X15500Y-29400D01*
X46000Y-29300D02*
X49700Y-29300D01*
X35100Y-29300D02*
X45400Y-29300D01*
X16100Y-29300D02*
X32600Y-29300D01*
X10300Y-29300D02*
X15500Y-29300D01*
X46000Y-29200D02*
X49700Y-29200D01*
X35000Y-29200D02*
X45300Y-29200D01*
X16100Y-29200D02*
X32600Y-29200D01*
X10300Y-29200D02*
X15500Y-29200D01*
X45900Y-29100D02*
X49700Y-29100D01*
X34900Y-29100D02*
X45200Y-29100D01*
X16100Y-29100D02*
X32500Y-29100D01*
X10300Y-29100D02*
X15500Y-29100D01*
X45800Y-29000D02*
X49700Y-29000D01*
X34800Y-29000D02*
X45100Y-29000D01*
X16000Y-29000D02*
X32400Y-29000D01*
X10300Y-29000D02*
X15400Y-29000D01*
X45700Y-28900D02*
X49700Y-28900D01*
X34700Y-28900D02*
X45000Y-28900D01*
X16100Y-28900D02*
X32300Y-28900D01*
X10300Y-28900D02*
X15400Y-28900D01*
X45600Y-28800D02*
X49700Y-28800D01*
X32700Y-28800D02*
X44900Y-28800D01*
X16000Y-28800D02*
X32200Y-28800D01*
X10300Y-28800D02*
X15400Y-28800D01*
X45500Y-28700D02*
X49700Y-28700D01*
X32600Y-28700D02*
X44800Y-28700D01*
X16100Y-28700D02*
X32100Y-28700D01*
X10300Y-28700D02*
X15400Y-28700D01*
X45400Y-28600D02*
X49700Y-28600D01*
X32500Y-28600D02*
X44700Y-28600D01*
X16100Y-28600D02*
X32000Y-28600D01*
X10300Y-28600D02*
X15500Y-28600D01*
X45300Y-28500D02*
X49700Y-28500D01*
X32500Y-28500D02*
X44600Y-28500D01*
X16100Y-28500D02*
X31900Y-28500D01*
X10300Y-28500D02*
X15500Y-28500D01*
X49500Y-28400D02*
X49700Y-28400D01*
X48200Y-28400D02*
X48500Y-28400D01*
X47600Y-28400D02*
X47800Y-28400D01*
X45200Y-28400D02*
X46500Y-28400D01*
X32400Y-28400D02*
X44500Y-28400D01*
X16100Y-28400D02*
X31800Y-28400D01*
X10300Y-28400D02*
X15500Y-28400D01*
X49500Y-28300D02*
X49700Y-28300D01*
X48400Y-28300D02*
X48500Y-28300D01*
X45100Y-28300D02*
X46500Y-28300D01*
X32300Y-28300D02*
X44400Y-28300D01*
X16100Y-28300D02*
X31700Y-28300D01*
X10300Y-28300D02*
X15500Y-28300D01*
X49500Y-28200D02*
X49700Y-28200D01*
X45000Y-28200D02*
X46500Y-28200D01*
X10300Y-28200D02*
X44300Y-28200D01*
X49500Y-28100D02*
X49700Y-28100D01*
X44900Y-28100D02*
X46500Y-28100D01*
X10300Y-28100D02*
X44200Y-28100D01*
X49500Y-28000D02*
X49700Y-28000D01*
X44800Y-28000D02*
X46500Y-28000D01*
X31900Y-28000D02*
X44100Y-28000D01*
X10300Y-28000D02*
X31300Y-28000D01*
X49500Y-27900D02*
X49700Y-27900D01*
X44700Y-27900D02*
X46500Y-27900D01*
X31900Y-27900D02*
X44000Y-27900D01*
X10300Y-27900D02*
X31300Y-27900D01*
X49500Y-27800D02*
X49700Y-27800D01*
X44600Y-27800D02*
X46500Y-27800D01*
X31800Y-27800D02*
X43900Y-27800D01*
X10300Y-27800D02*
X31200Y-27800D01*
X49500Y-27700D02*
X49700Y-27700D01*
X48400Y-27700D02*
X48500Y-27700D01*
X44500Y-27700D02*
X46500Y-27700D01*
X31700Y-27700D02*
X43800Y-27700D01*
X10300Y-27700D02*
X31100Y-27700D01*
X49500Y-27600D02*
X49700Y-27600D01*
X48300Y-27600D02*
X48500Y-27600D01*
X47600Y-27600D02*
X47700Y-27600D01*
X44400Y-27600D02*
X46500Y-27600D01*
X31600Y-27600D02*
X43700Y-27600D01*
X10300Y-27600D02*
X31000Y-27600D01*
X44300Y-27500D02*
X49700Y-27500D01*
X31500Y-27500D02*
X43600Y-27500D01*
X10300Y-27500D02*
X30900Y-27500D01*
X49200Y-27400D02*
X49700Y-27400D01*
X48200Y-27400D02*
X48800Y-27400D01*
X47300Y-27400D02*
X47800Y-27400D01*
X46100Y-27400D02*
X46800Y-27400D01*
X44200Y-27400D02*
X45800Y-27400D01*
X31400Y-27400D02*
X43500Y-27400D01*
X10300Y-27400D02*
X30800Y-27400D01*
X49400Y-27300D02*
X49700Y-27300D01*
X48400Y-27300D02*
X48600Y-27300D01*
X47400Y-27300D02*
X47600Y-27300D01*
X46200Y-27300D02*
X46700Y-27300D01*
X44100Y-27300D02*
X45700Y-27300D01*
X34100Y-27300D02*
X43400Y-27300D01*
X31300Y-27300D02*
X33600Y-27300D01*
X10300Y-27300D02*
X30700Y-27300D01*
X49500Y-27200D02*
X49700Y-27200D01*
X46300Y-27200D02*
X46600Y-27200D01*
X44000Y-27200D02*
X45600Y-27200D01*
X34200Y-27200D02*
X43300Y-27200D01*
X31200Y-27200D02*
X33500Y-27200D01*
X23800Y-27200D02*
X30600Y-27200D01*
X19000Y-27200D02*
X23300Y-27200D01*
X10300Y-27200D02*
X18500Y-27200D01*
X49500Y-27100D02*
X49700Y-27100D01*
X46300Y-27100D02*
X46600Y-27100D01*
X43900Y-27100D02*
X45600Y-27100D01*
X34200Y-27100D02*
X43200Y-27100D01*
X31100Y-27100D02*
X33500Y-27100D01*
X23900Y-27100D02*
X30500Y-27100D01*
X19100Y-27100D02*
X23200Y-27100D01*
X10300Y-27100D02*
X18400Y-27100D01*
X49500Y-27000D02*
X49700Y-27000D01*
X46300Y-27000D02*
X46500Y-27000D01*
X43700Y-27000D02*
X45600Y-27000D01*
X34200Y-27000D02*
X43100Y-27000D01*
X31000Y-27000D02*
X33500Y-27000D01*
X23900Y-27000D02*
X30400Y-27000D01*
X19100Y-27000D02*
X23200Y-27000D01*
X10300Y-27000D02*
X18400Y-27000D01*
X49500Y-26900D02*
X49700Y-26900D01*
X46300Y-26900D02*
X46600Y-26900D01*
X43600Y-26900D02*
X45700Y-26900D01*
X34200Y-26900D02*
X43000Y-26900D01*
X30900Y-26900D02*
X33500Y-26900D01*
X24000Y-26900D02*
X30300Y-26900D01*
X19100Y-26900D02*
X23200Y-26900D01*
X10300Y-26900D02*
X18400Y-26900D01*
X49500Y-26800D02*
X49700Y-26800D01*
X46300Y-26800D02*
X46600Y-26800D01*
X43500Y-26800D02*
X45600Y-26800D01*
X34100Y-26800D02*
X42900Y-26800D01*
X30800Y-26800D02*
X33500Y-26800D01*
X23900Y-26800D02*
X30200Y-26800D01*
X21000Y-26800D02*
X23000Y-26800D01*
X19100Y-26800D02*
X20500Y-26800D01*
X11400Y-26800D02*
X18400Y-26800D01*
X10300Y-26800D02*
X10900Y-26800D01*
X49400Y-26700D02*
X49700Y-26700D01*
X48400Y-26700D02*
X48600Y-26700D01*
X47400Y-26700D02*
X47600Y-26700D01*
X46300Y-26700D02*
X46700Y-26700D01*
X43400Y-26700D02*
X45600Y-26700D01*
X34000Y-26700D02*
X42800Y-26700D01*
X30700Y-26700D02*
X33700Y-26700D01*
X23900Y-26700D02*
X30100Y-26700D01*
X21000Y-26700D02*
X22800Y-26700D01*
X19000Y-26700D02*
X20400Y-26700D01*
X11400Y-26700D02*
X18500Y-26700D01*
X10300Y-26700D02*
X10800Y-26700D01*
X49300Y-26600D02*
X49700Y-26600D01*
X48300Y-26600D02*
X48700Y-26600D01*
X47300Y-26600D02*
X47700Y-26600D01*
X46300Y-26600D02*
X46800Y-26600D01*
X43300Y-26600D02*
X45700Y-26600D01*
X30600Y-26600D02*
X42700Y-26600D01*
X23800Y-26600D02*
X30000Y-26600D01*
X21100Y-26600D02*
X22800Y-26600D01*
X11500Y-26600D02*
X20300Y-26600D01*
X10300Y-26600D02*
X10800Y-26600D01*
X46300Y-26500D02*
X49700Y-26500D01*
X43200Y-26500D02*
X45600Y-26500D01*
X30500Y-26500D02*
X42600Y-26500D01*
X27300Y-26500D02*
X30000Y-26500D01*
X23600Y-26500D02*
X26800Y-26500D01*
X21100Y-26500D02*
X22800Y-26500D01*
X11500Y-26500D02*
X20300Y-26500D01*
X10300Y-26500D02*
X10800Y-26500D01*
X49200Y-26400D02*
X49700Y-26400D01*
X48200Y-26400D02*
X48800Y-26400D01*
X47300Y-26400D02*
X47800Y-26400D01*
X46300Y-26400D02*
X46800Y-26400D01*
X43100Y-26400D02*
X45600Y-26400D01*
X30400Y-26400D02*
X42500Y-26400D01*
X27400Y-26400D02*
X30000Y-26400D01*
X23700Y-26400D02*
X26700Y-26400D01*
X21100Y-26400D02*
X22800Y-26400D01*
X11400Y-26400D02*
X20300Y-26400D01*
X10300Y-26400D02*
X10800Y-26400D01*
X49400Y-26300D02*
X49700Y-26300D01*
X48400Y-26300D02*
X48600Y-26300D01*
X47400Y-26300D02*
X47600Y-26300D01*
X46300Y-26300D02*
X46700Y-26300D01*
X43000Y-26300D02*
X45600Y-26300D01*
X31300Y-26300D02*
X42400Y-26300D01*
X30400Y-26300D02*
X30800Y-26300D01*
X27400Y-26300D02*
X30000Y-26300D01*
X23800Y-26300D02*
X26700Y-26300D01*
X21000Y-26300D02*
X22900Y-26300D01*
X11500Y-26300D02*
X20400Y-26300D01*
X10300Y-26300D02*
X10800Y-26300D01*
X49500Y-26200D02*
X49700Y-26200D01*
X46200Y-26200D02*
X46600Y-26200D01*
X42900Y-26200D02*
X45600Y-26200D01*
X31400Y-26200D02*
X42300Y-26200D01*
X30400Y-26200D02*
X30800Y-26200D01*
X27400Y-26200D02*
X30000Y-26200D01*
X23900Y-26200D02*
X26700Y-26200D01*
X20900Y-26200D02*
X23100Y-26200D01*
X11500Y-26200D02*
X20500Y-26200D01*
X10300Y-26200D02*
X10800Y-26200D01*
X49500Y-26100D02*
X49700Y-26100D01*
X46300Y-26100D02*
X46600Y-26100D01*
X42800Y-26100D02*
X45600Y-26100D01*
X31400Y-26100D02*
X42200Y-26100D01*
X30400Y-26100D02*
X30700Y-26100D01*
X27300Y-26100D02*
X30000Y-26100D01*
X24000Y-26100D02*
X26800Y-26100D01*
X11500Y-26100D02*
X23100Y-26100D01*
X10300Y-26100D02*
X10800Y-26100D01*
X49500Y-26000D02*
X49700Y-26000D01*
X46300Y-26000D02*
X46500Y-26000D01*
X42700Y-26000D02*
X45600Y-26000D01*
X31400Y-26000D02*
X42100Y-26000D01*
X30400Y-26000D02*
X30700Y-26000D01*
X24000Y-26000D02*
X30000Y-26000D01*
X11400Y-26000D02*
X23200Y-26000D01*
X10300Y-26000D02*
X10800Y-26000D01*
X49500Y-25900D02*
X49700Y-25900D01*
X46300Y-25900D02*
X46600Y-25900D01*
X42600Y-25900D02*
X45600Y-25900D01*
X31400Y-25900D02*
X42000Y-25900D01*
X30400Y-25900D02*
X30800Y-25900D01*
X24000Y-25900D02*
X30000Y-25900D01*
X11300Y-25900D02*
X23400Y-25900D01*
X10300Y-25900D02*
X11000Y-25900D01*
X49500Y-25800D02*
X49700Y-25800D01*
X46200Y-25800D02*
X46600Y-25800D01*
X42500Y-25800D02*
X45700Y-25800D01*
X31200Y-25800D02*
X41900Y-25800D01*
X30400Y-25800D02*
X30900Y-25800D01*
X23900Y-25800D02*
X30000Y-25800D01*
X10300Y-25800D02*
X23400Y-25800D01*
X49400Y-25700D02*
X49700Y-25700D01*
X48400Y-25700D02*
X48600Y-25700D01*
X47400Y-25700D02*
X47600Y-25700D01*
X42400Y-25700D02*
X46700Y-25700D01*
X30400Y-25700D02*
X41800Y-25700D01*
X28900Y-25700D02*
X30000Y-25700D01*
X25700Y-25700D02*
X28600Y-25700D01*
X24700Y-25700D02*
X25500Y-25700D01*
X10300Y-25700D02*
X24400Y-25700D01*
X49300Y-25600D02*
X49700Y-25600D01*
X48300Y-25600D02*
X48700Y-25600D01*
X47300Y-25600D02*
X47700Y-25600D01*
X42300Y-25600D02*
X46800Y-25600D01*
X32000Y-25600D02*
X41700Y-25600D01*
X30400Y-25600D02*
X31600Y-25600D01*
X29100Y-25600D02*
X30000Y-25600D01*
X25900Y-25600D02*
X28000Y-25600D01*
X24800Y-25600D02*
X25300Y-25600D01*
X10300Y-25600D02*
X24300Y-25600D01*
X42200Y-25500D02*
X49700Y-25500D01*
X32100Y-25500D02*
X36500Y-25500D01*
X30400Y-25500D02*
X31500Y-25500D01*
X29100Y-25500D02*
X30000Y-25500D01*
X26000Y-25500D02*
X28000Y-25500D01*
X24900Y-25500D02*
X25300Y-25500D01*
X10300Y-25500D02*
X24200Y-25500D01*
X49200Y-25400D02*
X49700Y-25400D01*
X48200Y-25400D02*
X48800Y-25400D01*
X47300Y-25400D02*
X47800Y-25400D01*
X42100Y-25400D02*
X46800Y-25400D01*
X32200Y-25400D02*
X36400Y-25400D01*
X30400Y-25400D02*
X31500Y-25400D01*
X29100Y-25400D02*
X30000Y-25400D01*
X26000Y-25400D02*
X28000Y-25400D01*
X24900Y-25400D02*
X25300Y-25400D01*
X10300Y-25400D02*
X24200Y-25400D01*
X49400Y-25300D02*
X49700Y-25300D01*
X48400Y-25300D02*
X48600Y-25300D01*
X47400Y-25300D02*
X47600Y-25300D01*
X42000Y-25300D02*
X46700Y-25300D01*
X32200Y-25300D02*
X36300Y-25300D01*
X30400Y-25300D02*
X31500Y-25300D01*
X29100Y-25300D02*
X30000Y-25300D01*
X25900Y-25300D02*
X28000Y-25300D01*
X24900Y-25300D02*
X25300Y-25300D01*
X10300Y-25300D02*
X24200Y-25300D01*
X49500Y-25200D02*
X49700Y-25200D01*
X41900Y-25200D02*
X46600Y-25200D01*
X32100Y-25200D02*
X36200Y-25200D01*
X30400Y-25200D02*
X31500Y-25200D01*
X29000Y-25200D02*
X30000Y-25200D01*
X25900Y-25200D02*
X28000Y-25200D01*
X24800Y-25200D02*
X25400Y-25200D01*
X22900Y-25200D02*
X24300Y-25200D01*
X21000Y-25200D02*
X22600Y-25200D01*
X10300Y-25200D02*
X20700Y-25200D01*
X49500Y-25100D02*
X49700Y-25100D01*
X41800Y-25100D02*
X46600Y-25100D01*
X32000Y-25100D02*
X36100Y-25100D01*
X30400Y-25100D02*
X31600Y-25100D01*
X28400Y-25100D02*
X30000Y-25100D01*
X23100Y-25100D02*
X28200Y-25100D01*
X21100Y-25100D02*
X22500Y-25100D01*
X10300Y-25100D02*
X20600Y-25100D01*
X49500Y-25000D02*
X49700Y-25000D01*
X36800Y-25000D02*
X46500Y-25000D01*
X30400Y-25000D02*
X36000Y-25000D01*
X23100Y-25000D02*
X30000Y-25000D01*
X21200Y-25000D02*
X22400Y-25000D01*
X10300Y-25000D02*
X20500Y-25000D01*
X49500Y-24900D02*
X49700Y-24900D01*
X36700Y-24900D02*
X46600Y-24900D01*
X30400Y-24900D02*
X35900Y-24900D01*
X23100Y-24900D02*
X30000Y-24900D01*
X21200Y-24900D02*
X22400Y-24900D01*
X10300Y-24900D02*
X20500Y-24900D01*
X49500Y-24800D02*
X49700Y-24800D01*
X43900Y-24800D02*
X46600Y-24800D01*
X36600Y-24800D02*
X43500Y-24800D01*
X30400Y-24800D02*
X35900Y-24800D01*
X23400Y-24800D02*
X30000Y-24800D01*
X21200Y-24800D02*
X22500Y-24800D01*
X17800Y-24800D02*
X20500Y-24800D01*
X10300Y-24800D02*
X17400Y-24800D01*
X49400Y-24700D02*
X49700Y-24700D01*
X48400Y-24700D02*
X48600Y-24700D01*
X47400Y-24700D02*
X47600Y-24700D01*
X44000Y-24700D02*
X46700Y-24700D01*
X36500Y-24700D02*
X43400Y-24700D01*
X30400Y-24700D02*
X35800Y-24700D01*
X23500Y-24700D02*
X30000Y-24700D01*
X21100Y-24700D02*
X22500Y-24700D01*
X17900Y-24700D02*
X20600Y-24700D01*
X10300Y-24700D02*
X17300Y-24700D01*
X49300Y-24600D02*
X49700Y-24600D01*
X48300Y-24600D02*
X48700Y-24600D01*
X47300Y-24600D02*
X47700Y-24600D01*
X44000Y-24600D02*
X46800Y-24600D01*
X36400Y-24600D02*
X43300Y-24600D01*
X30400Y-24600D02*
X35700Y-24600D01*
X23600Y-24600D02*
X30000Y-24600D01*
X18000Y-24600D02*
X22900Y-24600D01*
X10300Y-24600D02*
X17300Y-24600D01*
X44000Y-24500D02*
X49700Y-24500D01*
X36300Y-24500D02*
X43300Y-24500D01*
X32000Y-24500D02*
X35600Y-24500D01*
X31400Y-24500D02*
X31500Y-24500D01*
X30400Y-24500D02*
X30900Y-24500D01*
X29300Y-24500D02*
X30000Y-24500D01*
X28800Y-24500D02*
X28900Y-24500D01*
X23600Y-24500D02*
X28000Y-24500D01*
X18000Y-24500D02*
X22900Y-24500D01*
X10300Y-24500D02*
X17300Y-24500D01*
X49200Y-24400D02*
X49700Y-24400D01*
X48200Y-24400D02*
X48800Y-24400D01*
X47300Y-24400D02*
X47800Y-24400D01*
X44000Y-24400D02*
X46800Y-24400D01*
X38100Y-24400D02*
X43400Y-24400D01*
X36200Y-24400D02*
X37600Y-24400D01*
X32100Y-24400D02*
X33500Y-24400D01*
X30400Y-24400D02*
X30800Y-24400D01*
X29400Y-24400D02*
X30000Y-24400D01*
X25000Y-24400D02*
X27900Y-24400D01*
X23500Y-24400D02*
X24500Y-24400D01*
X20500Y-24400D02*
X22900Y-24400D01*
X19300Y-24400D02*
X19500Y-24400D01*
X17900Y-24400D02*
X18700Y-24400D01*
X10300Y-24400D02*
X17300Y-24400D01*
X49400Y-24300D02*
X49700Y-24300D01*
X48400Y-24300D02*
X48600Y-24300D01*
X47400Y-24300D02*
X47600Y-24300D01*
X43900Y-24300D02*
X46700Y-24300D01*
X38200Y-24300D02*
X43500Y-24300D01*
X36100Y-24300D02*
X37500Y-24300D01*
X32100Y-24300D02*
X33500Y-24300D01*
X30400Y-24300D02*
X30800Y-24300D01*
X29400Y-24300D02*
X30000Y-24300D01*
X25100Y-24300D02*
X27900Y-24300D01*
X23400Y-24300D02*
X24400Y-24300D01*
X20500Y-24300D02*
X23000Y-24300D01*
X19400Y-24300D02*
X19500Y-24300D01*
X17800Y-24300D02*
X18600Y-24300D01*
X10300Y-24300D02*
X17400Y-24300D01*
X49500Y-24200D02*
X49700Y-24200D01*
X38200Y-24200D02*
X46600Y-24200D01*
X36000Y-24200D02*
X37400Y-24200D01*
X32100Y-24200D02*
X33500Y-24200D01*
X30400Y-24200D02*
X30600Y-24200D01*
X29400Y-24200D02*
X30000Y-24200D01*
X25100Y-24200D02*
X27900Y-24200D01*
X20500Y-24200D02*
X24400Y-24200D01*
X17200Y-24200D02*
X18500Y-24200D01*
X10300Y-24200D02*
X16800Y-24200D01*
X49500Y-24100D02*
X49700Y-24100D01*
X39900Y-24100D02*
X46600Y-24100D01*
X38200Y-24100D02*
X39500Y-24100D01*
X35900Y-24100D02*
X37200Y-24100D01*
X32000Y-24100D02*
X33500Y-24100D01*
X30400Y-24100D02*
X30500Y-24100D01*
X29600Y-24100D02*
X30000Y-24100D01*
X25300Y-24100D02*
X27900Y-24100D01*
X20500Y-24100D02*
X24400Y-24100D01*
X17300Y-24100D02*
X18500Y-24100D01*
X10300Y-24100D02*
X16700Y-24100D01*
X49500Y-24000D02*
X49700Y-24000D01*
X40000Y-24000D02*
X46500Y-24000D01*
X38100Y-24000D02*
X39400Y-24000D01*
X35800Y-24000D02*
X37200Y-24000D01*
X31900Y-24000D02*
X33500Y-24000D01*
X30400Y-24000D02*
X30500Y-24000D01*
X29700Y-24000D02*
X30000Y-24000D01*
X28800Y-24000D02*
X28900Y-24000D01*
X25300Y-24000D02*
X28000Y-24000D01*
X20500Y-24000D02*
X24500Y-24000D01*
X17300Y-24000D02*
X18500Y-24000D01*
X15900Y-24000D02*
X16700Y-24000D01*
X10300Y-24000D02*
X15500Y-24000D01*
X49500Y-23900D02*
X49700Y-23900D01*
X40000Y-23900D02*
X46600Y-23900D01*
X37900Y-23900D02*
X39300Y-23900D01*
X34100Y-23900D02*
X37100Y-23900D01*
X31700Y-23900D02*
X33500Y-23900D01*
X30400Y-23900D02*
X30500Y-23900D01*
X29700Y-23900D02*
X30000Y-23900D01*
X25400Y-23900D02*
X29000Y-23900D01*
X20500Y-23900D02*
X24600Y-23900D01*
X17300Y-23900D02*
X18500Y-23900D01*
X16000Y-23900D02*
X16700Y-23900D01*
X10300Y-23900D02*
X15400Y-23900D01*
X49500Y-23800D02*
X49700Y-23800D01*
X40000Y-23800D02*
X46600Y-23800D01*
X37800Y-23800D02*
X39300Y-23800D01*
X34100Y-23800D02*
X36900Y-23800D01*
X31100Y-23800D02*
X33500Y-23800D01*
X30400Y-23800D02*
X30500Y-23800D01*
X29700Y-23800D02*
X30000Y-23800D01*
X25500Y-23800D02*
X29100Y-23800D01*
X20500Y-23800D02*
X24700Y-23800D01*
X17300Y-23800D02*
X18500Y-23800D01*
X16500Y-23800D02*
X16700Y-23800D01*
X10300Y-23800D02*
X15400Y-23800D01*
X49400Y-23700D02*
X49700Y-23700D01*
X48400Y-23700D02*
X48600Y-23700D01*
X47400Y-23700D02*
X47600Y-23700D01*
X40000Y-23700D02*
X46700Y-23700D01*
X37800Y-23700D02*
X39400Y-23700D01*
X34000Y-23700D02*
X36900Y-23700D01*
X31000Y-23700D02*
X33500Y-23700D01*
X30400Y-23700D02*
X30600Y-23700D01*
X29700Y-23700D02*
X30000Y-23700D01*
X25500Y-23700D02*
X29100Y-23700D01*
X20500Y-23700D02*
X24700Y-23700D01*
X19400Y-23700D02*
X19500Y-23700D01*
X17200Y-23700D02*
X18600Y-23700D01*
X16600Y-23700D02*
X16800Y-23700D01*
X10300Y-23700D02*
X15400Y-23700D01*
X49300Y-23600D02*
X49700Y-23600D01*
X48300Y-23600D02*
X48700Y-23600D01*
X47300Y-23600D02*
X47700Y-23600D01*
X39900Y-23600D02*
X46800Y-23600D01*
X37600Y-23600D02*
X39500Y-23600D01*
X34000Y-23600D02*
X36700Y-23600D01*
X30400Y-23600D02*
X33500Y-23600D01*
X29500Y-23600D02*
X30000Y-23600D01*
X26400Y-23600D02*
X29300Y-23600D01*
X25700Y-23600D02*
X26000Y-23600D01*
X20500Y-23600D02*
X24900Y-23600D01*
X19300Y-23600D02*
X19500Y-23600D01*
X16600Y-23600D02*
X18700Y-23600D01*
X10300Y-23600D02*
X15400Y-23600D01*
X42600Y-23500D02*
X49700Y-23500D01*
X37500Y-23500D02*
X42200Y-23500D01*
X34000Y-23500D02*
X36600Y-23500D01*
X30400Y-23500D02*
X33500Y-23500D01*
X26500Y-23500D02*
X30000Y-23500D01*
X25800Y-23500D02*
X25900Y-23500D01*
X16600Y-23500D02*
X24900Y-23500D01*
X10300Y-23500D02*
X15500Y-23500D01*
X49200Y-23400D02*
X49700Y-23400D01*
X48200Y-23400D02*
X48800Y-23400D01*
X47300Y-23400D02*
X47800Y-23400D01*
X42700Y-23400D02*
X46800Y-23400D01*
X37500Y-23400D02*
X42100Y-23400D01*
X34000Y-23400D02*
X36500Y-23400D01*
X30400Y-23400D02*
X33500Y-23400D01*
X26500Y-23400D02*
X30000Y-23400D01*
X23500Y-23400D02*
X25000Y-23400D01*
X20300Y-23400D02*
X23100Y-23400D01*
X19300Y-23400D02*
X19700Y-23400D01*
X16500Y-23400D02*
X18700Y-23400D01*
X10300Y-23400D02*
X16000Y-23400D01*
X49400Y-23300D02*
X49700Y-23300D01*
X48400Y-23300D02*
X48600Y-23300D01*
X47400Y-23300D02*
X47600Y-23300D01*
X42700Y-23300D02*
X46700Y-23300D01*
X37200Y-23300D02*
X42000Y-23300D01*
X34000Y-23300D02*
X36300Y-23300D01*
X30400Y-23300D02*
X33500Y-23300D01*
X26700Y-23300D02*
X30000Y-23300D01*
X25800Y-23300D02*
X25900Y-23300D01*
X23600Y-23300D02*
X25100Y-23300D01*
X20400Y-23300D02*
X23000Y-23300D01*
X19400Y-23300D02*
X19600Y-23300D01*
X10300Y-23300D02*
X18600Y-23300D01*
X49500Y-23200D02*
X49700Y-23200D01*
X42700Y-23200D02*
X46600Y-23200D01*
X37200Y-23200D02*
X42000Y-23200D01*
X34000Y-23200D02*
X36200Y-23200D01*
X30400Y-23200D02*
X33500Y-23200D01*
X26700Y-23200D02*
X30000Y-23200D01*
X25700Y-23200D02*
X25900Y-23200D01*
X23600Y-23200D02*
X25200Y-23200D01*
X20500Y-23200D02*
X22900Y-23200D01*
X10300Y-23200D02*
X18500Y-23200D01*
X49500Y-23100D02*
X49700Y-23100D01*
X42700Y-23100D02*
X46600Y-23100D01*
X37100Y-23100D02*
X42100Y-23100D01*
X34000Y-23100D02*
X36200Y-23100D01*
X30400Y-23100D02*
X33500Y-23100D01*
X26800Y-23100D02*
X30000Y-23100D01*
X25600Y-23100D02*
X26000Y-23100D01*
X23600Y-23100D02*
X25300Y-23100D01*
X20500Y-23100D02*
X22900Y-23100D01*
X10300Y-23100D02*
X18500Y-23100D01*
X49500Y-23000D02*
X49700Y-23000D01*
X42600Y-23000D02*
X46500Y-23000D01*
X36900Y-23000D02*
X42200Y-23000D01*
X35300Y-23000D02*
X36300Y-23000D01*
X34000Y-23000D02*
X34800Y-23000D01*
X30400Y-23000D02*
X33500Y-23000D01*
X27100Y-23000D02*
X30000Y-23000D01*
X23600Y-23000D02*
X26100Y-23000D01*
X20500Y-23000D02*
X23000Y-23000D01*
X10300Y-23000D02*
X18500Y-23000D01*
X49500Y-22900D02*
X49700Y-22900D01*
X36800Y-22900D02*
X46600Y-22900D01*
X35300Y-22900D02*
X36300Y-22900D01*
X34000Y-22900D02*
X34700Y-22900D01*
X30400Y-22900D02*
X33500Y-22900D01*
X27500Y-22900D02*
X30000Y-22900D01*
X23500Y-22900D02*
X26100Y-22900D01*
X20500Y-22900D02*
X23100Y-22900D01*
X10300Y-22900D02*
X18500Y-22900D01*
X49500Y-22800D02*
X49700Y-22800D01*
X35400Y-22800D02*
X46600Y-22800D01*
X34000Y-22800D02*
X34700Y-22800D01*
X30400Y-22800D02*
X33500Y-22800D01*
X27600Y-22800D02*
X30000Y-22800D01*
X22700Y-22800D02*
X26300Y-22800D01*
X20500Y-22800D02*
X22300Y-22800D01*
X10300Y-22800D02*
X18500Y-22800D01*
X49400Y-22700D02*
X49700Y-22700D01*
X48400Y-22700D02*
X48600Y-22700D01*
X47400Y-22700D02*
X47600Y-22700D01*
X35400Y-22700D02*
X46700Y-22700D01*
X34000Y-22700D02*
X34700Y-22700D01*
X30500Y-22700D02*
X33500Y-22700D01*
X27700Y-22700D02*
X30000Y-22700D01*
X22800Y-22700D02*
X26300Y-22700D01*
X20400Y-22700D02*
X22200Y-22700D01*
X19400Y-22700D02*
X19600Y-22700D01*
X10300Y-22700D02*
X18600Y-22700D01*
X49300Y-22600D02*
X49700Y-22600D01*
X48300Y-22600D02*
X48700Y-22600D01*
X47300Y-22600D02*
X47700Y-22600D01*
X35300Y-22600D02*
X46800Y-22600D01*
X34000Y-22600D02*
X34700Y-22600D01*
X30600Y-22600D02*
X33500Y-22600D01*
X27700Y-22600D02*
X30100Y-22600D01*
X22800Y-22600D02*
X26400Y-22600D01*
X20300Y-22600D02*
X22200Y-22600D01*
X19300Y-22600D02*
X19700Y-22600D01*
X10300Y-22600D02*
X18700Y-22600D01*
X35200Y-22500D02*
X49700Y-22500D01*
X34000Y-22500D02*
X34900Y-22500D01*
X30700Y-22500D02*
X33500Y-22500D01*
X27600Y-22500D02*
X30200Y-22500D01*
X22800Y-22500D02*
X26700Y-22500D01*
X15100Y-22500D02*
X22000Y-22500D01*
X10300Y-22500D02*
X14500Y-22500D01*
X49200Y-22400D02*
X49700Y-22400D01*
X48200Y-22400D02*
X48800Y-22400D01*
X47300Y-22400D02*
X47800Y-22400D01*
X35300Y-22400D02*
X46800Y-22400D01*
X34000Y-22400D02*
X34700Y-22400D01*
X30900Y-22400D02*
X33500Y-22400D01*
X27600Y-22400D02*
X30300Y-22400D01*
X22800Y-22400D02*
X27100Y-22400D01*
X20300Y-22400D02*
X22000Y-22400D01*
X19300Y-22400D02*
X19700Y-22400D01*
X15100Y-22400D02*
X18700Y-22400D01*
X10300Y-22400D02*
X14500Y-22400D01*
X49400Y-22300D02*
X49700Y-22300D01*
X48400Y-22300D02*
X48600Y-22300D01*
X47400Y-22300D02*
X47600Y-22300D01*
X45800Y-22300D02*
X46700Y-22300D01*
X43100Y-22300D02*
X45300Y-22300D01*
X42500Y-22300D02*
X42600Y-22300D01*
X39200Y-22300D02*
X42000Y-22300D01*
X36800Y-22300D02*
X38900Y-22300D01*
X35300Y-22300D02*
X36500Y-22300D01*
X34000Y-22300D02*
X34700Y-22300D01*
X31000Y-22300D02*
X33500Y-22300D01*
X22700Y-22300D02*
X29400Y-22300D01*
X20400Y-22300D02*
X21900Y-22300D01*
X19400Y-22300D02*
X19600Y-22300D01*
X15100Y-22300D02*
X18600Y-22300D01*
X10300Y-22300D02*
X14400Y-22300D01*
X49500Y-22200D02*
X49700Y-22200D01*
X46100Y-22200D02*
X46600Y-22200D01*
X43200Y-22200D02*
X45200Y-22200D01*
X39300Y-22200D02*
X41700Y-22200D01*
X36900Y-22200D02*
X38800Y-22200D01*
X35400Y-22200D02*
X36400Y-22200D01*
X34000Y-22200D02*
X34600Y-22200D01*
X33200Y-22200D02*
X33400Y-22200D01*
X31100Y-22200D02*
X32900Y-22200D01*
X22600Y-22200D02*
X29400Y-22200D01*
X20500Y-22200D02*
X21900Y-22200D01*
X15100Y-22200D02*
X18500Y-22200D01*
X10300Y-22200D02*
X14500Y-22200D01*
X49500Y-22100D02*
X49700Y-22100D01*
X46200Y-22100D02*
X46600Y-22100D01*
X43400Y-22100D02*
X45200Y-22100D01*
X39400Y-22100D02*
X41600Y-22100D01*
X37000Y-22100D02*
X38700Y-22100D01*
X35300Y-22100D02*
X36300Y-22100D01*
X34000Y-22100D02*
X34500Y-22100D01*
X31200Y-22100D02*
X32800Y-22100D01*
X22700Y-22100D02*
X29300Y-22100D01*
X20500Y-22100D02*
X22000Y-22100D01*
X15100Y-22100D02*
X18500Y-22100D01*
X10300Y-22100D02*
X14500Y-22100D01*
X49500Y-22000D02*
X49700Y-22000D01*
X46200Y-22000D02*
X46500Y-22000D01*
X43500Y-22000D02*
X45200Y-22000D01*
X39400Y-22000D02*
X41600Y-22000D01*
X37000Y-22000D02*
X38700Y-22000D01*
X35300Y-22000D02*
X36300Y-22000D01*
X34000Y-22000D02*
X34400Y-22000D01*
X31300Y-22000D02*
X32700Y-22000D01*
X22700Y-22000D02*
X29300Y-22000D01*
X20500Y-22000D02*
X22100Y-22000D01*
X10300Y-22000D02*
X18500Y-22000D01*
X49500Y-21900D02*
X49700Y-21900D01*
X46200Y-21900D02*
X46600Y-21900D01*
X43900Y-21900D02*
X45300Y-21900D01*
X39500Y-21900D02*
X41600Y-21900D01*
X37100Y-21900D02*
X38700Y-21900D01*
X35200Y-21900D02*
X36300Y-21900D01*
X34000Y-21900D02*
X34300Y-21900D01*
X31400Y-21900D02*
X32700Y-21900D01*
X22700Y-21900D02*
X29400Y-21900D01*
X20500Y-21900D02*
X22100Y-21900D01*
X10300Y-21900D02*
X18500Y-21900D01*
X49500Y-21800D02*
X49700Y-21800D01*
X46200Y-21800D02*
X46600Y-21800D01*
X43900Y-21800D02*
X45400Y-21800D01*
X39500Y-21800D02*
X41600Y-21800D01*
X37200Y-21800D02*
X38800Y-21800D01*
X35100Y-21800D02*
X36400Y-21800D01*
X34000Y-21800D02*
X34200Y-21800D01*
X30200Y-21800D02*
X30300Y-21800D01*
X29800Y-21800D02*
X29900Y-21800D01*
X22700Y-21800D02*
X29500Y-21800D01*
X20500Y-21800D02*
X22100Y-21800D01*
X10300Y-21800D02*
X18500Y-21800D01*
X49400Y-21700D02*
X49700Y-21700D01*
X48400Y-21700D02*
X48600Y-21700D01*
X47400Y-21700D02*
X47600Y-21700D01*
X46100Y-21700D02*
X46700Y-21700D01*
X44000Y-21700D02*
X45700Y-21700D01*
X42800Y-21700D02*
X42900Y-21700D01*
X42100Y-21700D02*
X42300Y-21700D01*
X39500Y-21700D02*
X41700Y-21700D01*
X37200Y-21700D02*
X38800Y-21700D01*
X35000Y-21700D02*
X36500Y-21700D01*
X34000Y-21700D02*
X34100Y-21700D01*
X29400Y-21700D02*
X31000Y-21700D01*
X22600Y-21700D02*
X28900Y-21700D01*
X20400Y-21700D02*
X22200Y-21700D01*
X19400Y-21700D02*
X19600Y-21700D01*
X10300Y-21700D02*
X18600Y-21700D01*
X49300Y-21600D02*
X49700Y-21600D01*
X48300Y-21600D02*
X48700Y-21600D01*
X47300Y-21600D02*
X47700Y-21600D01*
X44000Y-21600D02*
X46800Y-21600D01*
X42700Y-21600D02*
X43100Y-21600D01*
X39500Y-21600D02*
X42400Y-21600D01*
X37100Y-21600D02*
X38900Y-21600D01*
X34900Y-21600D02*
X36500Y-21600D01*
X29500Y-21600D02*
X31100Y-21600D01*
X26800Y-21600D02*
X28600Y-21600D01*
X20300Y-21600D02*
X25800Y-21600D01*
X19300Y-21600D02*
X19700Y-21600D01*
X16800Y-21600D02*
X18700Y-21600D01*
X10300Y-21600D02*
X16400Y-21600D01*
X44000Y-21500D02*
X49700Y-21500D01*
X39400Y-21500D02*
X43300Y-21500D01*
X37100Y-21500D02*
X38900Y-21500D01*
X34800Y-21500D02*
X36600Y-21500D01*
X29500Y-21500D02*
X31100Y-21500D01*
X26900Y-21500D02*
X28400Y-21500D01*
X16900Y-21500D02*
X25800Y-21500D01*
X10300Y-21500D02*
X16300Y-21500D01*
X49200Y-21400D02*
X49700Y-21400D01*
X48200Y-21400D02*
X48800Y-21400D01*
X47300Y-21400D02*
X47800Y-21400D01*
X44100Y-21400D02*
X46800Y-21400D01*
X34700Y-21400D02*
X43400Y-21400D01*
X29500Y-21400D02*
X34000Y-21400D01*
X26900Y-21400D02*
X28400Y-21400D01*
X20300Y-21400D02*
X25800Y-21400D01*
X19300Y-21400D02*
X19700Y-21400D01*
X16900Y-21400D02*
X18700Y-21400D01*
X12100Y-21400D02*
X16200Y-21400D01*
X10300Y-21400D02*
X11600Y-21400D01*
X49400Y-21300D02*
X49700Y-21300D01*
X48400Y-21300D02*
X48600Y-21300D01*
X47400Y-21300D02*
X47600Y-21300D01*
X44100Y-21300D02*
X46700Y-21300D01*
X34600Y-21300D02*
X43400Y-21300D01*
X29400Y-21300D02*
X34000Y-21300D01*
X26900Y-21300D02*
X28400Y-21300D01*
X20400Y-21300D02*
X25800Y-21300D01*
X19400Y-21300D02*
X19600Y-21300D01*
X16900Y-21300D02*
X18600Y-21300D01*
X12200Y-21300D02*
X16200Y-21300D01*
X10300Y-21300D02*
X11500Y-21300D01*
X49500Y-21200D02*
X49700Y-21200D01*
X44000Y-21200D02*
X46600Y-21200D01*
X34500Y-21200D02*
X43300Y-21200D01*
X34000Y-21200D02*
X34100Y-21200D01*
X29300Y-21200D02*
X33700Y-21200D01*
X26900Y-21200D02*
X28400Y-21200D01*
X20500Y-21200D02*
X25800Y-21200D01*
X16900Y-21200D02*
X18500Y-21200D01*
X12200Y-21200D02*
X16300Y-21200D01*
X10300Y-21200D02*
X11500Y-21200D01*
X49500Y-21100D02*
X49700Y-21100D01*
X44000Y-21100D02*
X46600Y-21100D01*
X34100Y-21100D02*
X43300Y-21100D01*
X29000Y-21100D02*
X33500Y-21100D01*
X26700Y-21100D02*
X28500Y-21100D01*
X21800Y-21100D02*
X26400Y-21100D01*
X20800Y-21100D02*
X21500Y-21100D01*
X16800Y-21100D02*
X18500Y-21100D01*
X12200Y-21100D02*
X16400Y-21100D01*
X10300Y-21100D02*
X11500Y-21100D01*
X49500Y-21000D02*
X49700Y-21000D01*
X44000Y-21000D02*
X46500Y-21000D01*
X34200Y-21000D02*
X43300Y-21000D01*
X21900Y-21000D02*
X33500Y-21000D01*
X20900Y-21000D02*
X21300Y-21000D01*
X12200Y-21000D02*
X18500Y-21000D01*
X10300Y-21000D02*
X11500Y-21000D01*
X49500Y-20900D02*
X49700Y-20900D01*
X43900Y-20900D02*
X46600Y-20900D01*
X35400Y-20900D02*
X43300Y-20900D01*
X34200Y-20900D02*
X35000Y-20900D01*
X22000Y-20900D02*
X33500Y-20900D01*
X21000Y-20900D02*
X21300Y-20900D01*
X12100Y-20900D02*
X18500Y-20900D01*
X10300Y-20900D02*
X11600Y-20900D01*
X49500Y-20800D02*
X49700Y-20800D01*
X43900Y-20800D02*
X46600Y-20800D01*
X35600Y-20800D02*
X43400Y-20800D01*
X34200Y-20800D02*
X34900Y-20800D01*
X22000Y-20800D02*
X33500Y-20800D01*
X21000Y-20800D02*
X21300Y-20800D01*
X10300Y-20800D02*
X18500Y-20800D01*
X49400Y-20700D02*
X49700Y-20700D01*
X48400Y-20700D02*
X48600Y-20700D01*
X47400Y-20700D02*
X47600Y-20700D01*
X36100Y-20700D02*
X46700Y-20700D01*
X34100Y-20700D02*
X34800Y-20700D01*
X22100Y-20700D02*
X33600Y-20700D01*
X20900Y-20700D02*
X21300Y-20700D01*
X19400Y-20700D02*
X19600Y-20700D01*
X10300Y-20700D02*
X18600Y-20700D01*
X49300Y-20600D02*
X49700Y-20600D01*
X48300Y-20600D02*
X48700Y-20600D01*
X47300Y-20600D02*
X47700Y-20600D01*
X42000Y-20600D02*
X46800Y-20600D01*
X36400Y-20600D02*
X41600Y-20600D01*
X22100Y-20600D02*
X34800Y-20600D01*
X20800Y-20600D02*
X21400Y-20600D01*
X20300Y-20600D02*
X20400Y-20600D01*
X19300Y-20600D02*
X19700Y-20600D01*
X10300Y-20600D02*
X18700Y-20600D01*
X42100Y-20500D02*
X49700Y-20500D01*
X36500Y-20500D02*
X41500Y-20500D01*
X22100Y-20500D02*
X34900Y-20500D01*
X10300Y-20500D02*
X21400Y-20500D01*
X49200Y-20400D02*
X49700Y-20400D01*
X48200Y-20400D02*
X48800Y-20400D01*
X47300Y-20400D02*
X47800Y-20400D01*
X42200Y-20400D02*
X46800Y-20400D01*
X36600Y-20400D02*
X41500Y-20400D01*
X22100Y-20400D02*
X35000Y-20400D01*
X10300Y-20400D02*
X21500Y-20400D01*
X49400Y-20300D02*
X49700Y-20300D01*
X48400Y-20300D02*
X48600Y-20300D01*
X47400Y-20300D02*
X47600Y-20300D01*
X42200Y-20300D02*
X46700Y-20300D01*
X36600Y-20300D02*
X41400Y-20300D01*
X22000Y-20300D02*
X35300Y-20300D01*
X10300Y-20300D02*
X21500Y-20300D01*
X49500Y-20200D02*
X49700Y-20200D01*
X42100Y-20200D02*
X46600Y-20200D01*
X36600Y-20200D02*
X41300Y-20200D01*
X26700Y-20200D02*
X35700Y-20200D01*
X10300Y-20200D02*
X26200Y-20200D01*
X49500Y-20100D02*
X49700Y-20100D01*
X42100Y-20100D02*
X46600Y-20100D01*
X36500Y-20100D02*
X41200Y-20100D01*
X26800Y-20100D02*
X36000Y-20100D01*
X10300Y-20100D02*
X26200Y-20100D01*
X49500Y-20000D02*
X49700Y-20000D01*
X43100Y-20000D02*
X46500Y-20000D01*
X41900Y-20000D02*
X42800Y-20000D01*
X26800Y-20000D02*
X41100Y-20000D01*
X10300Y-20000D02*
X26100Y-20000D01*
X49500Y-19900D02*
X49700Y-19900D01*
X43300Y-19900D02*
X46600Y-19900D01*
X41900Y-19900D02*
X42700Y-19900D01*
X26800Y-19900D02*
X41000Y-19900D01*
X22500Y-19900D02*
X26200Y-19900D01*
X10300Y-19900D02*
X22100Y-19900D01*
X49500Y-19800D02*
X49700Y-19800D01*
X43300Y-19800D02*
X46600Y-19800D01*
X41800Y-19800D02*
X42600Y-19800D01*
X26800Y-19800D02*
X40900Y-19800D01*
X22600Y-19800D02*
X26200Y-19800D01*
X10300Y-19800D02*
X22000Y-19800D01*
X49400Y-19700D02*
X49700Y-19700D01*
X48400Y-19700D02*
X48600Y-19700D01*
X47400Y-19700D02*
X47600Y-19700D01*
X43300Y-19700D02*
X46700Y-19700D01*
X41700Y-19700D02*
X42600Y-19700D01*
X27800Y-19700D02*
X40800Y-19700D01*
X26600Y-19700D02*
X27500Y-19700D01*
X22600Y-19700D02*
X26300Y-19700D01*
X12100Y-19700D02*
X21900Y-19700D01*
X10300Y-19700D02*
X11600Y-19700D01*
X49300Y-19600D02*
X49700Y-19600D01*
X48300Y-19600D02*
X48700Y-19600D01*
X47300Y-19600D02*
X47700Y-19600D01*
X43500Y-19600D02*
X46800Y-19600D01*
X41600Y-19600D02*
X42700Y-19600D01*
X28000Y-19600D02*
X40800Y-19600D01*
X22600Y-19600D02*
X27400Y-19600D01*
X12200Y-19600D02*
X21900Y-19600D01*
X10300Y-19600D02*
X11500Y-19600D01*
X43500Y-19500D02*
X49700Y-19500D01*
X41400Y-19500D02*
X42700Y-19500D01*
X36500Y-19500D02*
X40800Y-19500D01*
X29700Y-19500D02*
X36000Y-19500D01*
X28000Y-19500D02*
X29200Y-19500D01*
X27100Y-19500D02*
X27300Y-19500D01*
X22600Y-19500D02*
X26600Y-19500D01*
X17900Y-19500D02*
X22000Y-19500D01*
X12200Y-19500D02*
X17400Y-19500D01*
X10300Y-19500D02*
X11500Y-19500D01*
X49200Y-19400D02*
X49700Y-19400D01*
X48200Y-19400D02*
X48800Y-19400D01*
X47300Y-19400D02*
X47800Y-19400D01*
X43600Y-19400D02*
X46800Y-19400D01*
X41400Y-19400D02*
X42900Y-19400D01*
X36600Y-19400D02*
X40800Y-19400D01*
X29800Y-19400D02*
X35700Y-19400D01*
X28000Y-19400D02*
X29100Y-19400D01*
X27100Y-19400D02*
X27300Y-19400D01*
X22500Y-19400D02*
X26500Y-19400D01*
X18000Y-19400D02*
X22100Y-19400D01*
X12200Y-19400D02*
X17300Y-19400D01*
X10300Y-19400D02*
X11500Y-19400D01*
X49400Y-19300D02*
X49700Y-19300D01*
X48400Y-19300D02*
X48600Y-19300D01*
X47400Y-19300D02*
X47600Y-19300D01*
X43700Y-19300D02*
X46700Y-19300D01*
X41900Y-19300D02*
X42900Y-19300D01*
X40500Y-19300D02*
X41000Y-19300D01*
X36600Y-19300D02*
X40100Y-19300D01*
X34800Y-19300D02*
X35600Y-19300D01*
X29800Y-19300D02*
X34300Y-19300D01*
X28000Y-19300D02*
X29100Y-19300D01*
X18000Y-19300D02*
X26300Y-19300D01*
X12200Y-19300D02*
X17300Y-19300D01*
X10300Y-19300D02*
X11500Y-19300D01*
X49500Y-19200D02*
X49700Y-19200D01*
X43800Y-19200D02*
X46600Y-19200D01*
X42000Y-19200D02*
X42900Y-19200D01*
X40600Y-19200D02*
X40800Y-19200D01*
X36600Y-19200D02*
X40000Y-19200D01*
X34900Y-19200D02*
X35400Y-19200D01*
X30000Y-19200D02*
X34300Y-19200D01*
X27900Y-19200D02*
X29100Y-19200D01*
X18600Y-19200D02*
X26200Y-19200D01*
X18000Y-19200D02*
X18100Y-19200D01*
X12200Y-19200D02*
X17300Y-19200D01*
X10300Y-19200D02*
X11500Y-19200D01*
X49500Y-19100D02*
X49700Y-19100D01*
X44000Y-19100D02*
X46600Y-19100D01*
X42100Y-19100D02*
X43100Y-19100D01*
X39900Y-19100D02*
X40000Y-19100D01*
X36500Y-19100D02*
X38300Y-19100D01*
X34900Y-19100D02*
X35300Y-19100D01*
X30100Y-19100D02*
X34200Y-19100D01*
X27900Y-19100D02*
X29200Y-19100D01*
X18700Y-19100D02*
X26200Y-19100D01*
X17900Y-19100D02*
X18000Y-19100D01*
X12000Y-19100D02*
X17400Y-19100D01*
X10300Y-19100D02*
X11700Y-19100D01*
X49500Y-19000D02*
X49700Y-19000D01*
X44000Y-19000D02*
X46500Y-19000D01*
X42100Y-19000D02*
X43100Y-19000D01*
X36400Y-19000D02*
X38200Y-19000D01*
X34900Y-19000D02*
X35300Y-19000D01*
X30200Y-19000D02*
X34300Y-19000D01*
X29400Y-19000D02*
X29500Y-19000D01*
X27800Y-19000D02*
X28900Y-19000D01*
X18700Y-19000D02*
X26200Y-19000D01*
X17800Y-19000D02*
X18000Y-19000D01*
X10300Y-19000D02*
X17500Y-19000D01*
X49500Y-18900D02*
X49700Y-18900D01*
X44100Y-18900D02*
X46600Y-18900D01*
X42000Y-18900D02*
X43200Y-18900D01*
X36100Y-18900D02*
X38100Y-18900D01*
X34900Y-18900D02*
X35300Y-18900D01*
X30200Y-18900D02*
X34300Y-18900D01*
X27700Y-18900D02*
X28900Y-18900D01*
X18900Y-18900D02*
X26200Y-18900D01*
X17900Y-18900D02*
X18000Y-18900D01*
X10300Y-18900D02*
X17400Y-18900D01*
X49500Y-18800D02*
X49700Y-18800D01*
X44100Y-18800D02*
X46600Y-18800D01*
X41900Y-18800D02*
X43400Y-18800D01*
X40000Y-18800D02*
X40100Y-18800D01*
X35900Y-18800D02*
X38100Y-18800D01*
X34700Y-18800D02*
X35200Y-18800D01*
X30100Y-18800D02*
X34500Y-18800D01*
X27700Y-18800D02*
X28800Y-18800D01*
X26700Y-18800D02*
X27000Y-18800D01*
X19000Y-18800D02*
X26300Y-18800D01*
X18000Y-18800D02*
X18100Y-18800D01*
X10300Y-18800D02*
X17300Y-18800D01*
X49400Y-18700D02*
X49700Y-18700D01*
X48400Y-18700D02*
X48600Y-18700D01*
X47400Y-18700D02*
X47600Y-18700D01*
X44000Y-18700D02*
X46700Y-18700D01*
X41200Y-18700D02*
X43400Y-18700D01*
X39900Y-18700D02*
X40400Y-18700D01*
X35800Y-18700D02*
X38200Y-18700D01*
X30000Y-18700D02*
X35100Y-18700D01*
X29500Y-18700D02*
X29600Y-18700D01*
X27700Y-18700D02*
X28600Y-18700D01*
X19000Y-18700D02*
X27100Y-18700D01*
X18000Y-18700D02*
X18300Y-18700D01*
X10300Y-18700D02*
X17300Y-18700D01*
X49300Y-18600D02*
X49700Y-18600D01*
X48300Y-18600D02*
X48700Y-18600D01*
X47300Y-18600D02*
X47700Y-18600D01*
X43900Y-18600D02*
X46800Y-18600D01*
X40800Y-18600D02*
X43600Y-18600D01*
X39800Y-18600D02*
X40500Y-18600D01*
X39400Y-18600D02*
X39600Y-18600D01*
X39000Y-18600D02*
X39100Y-18600D01*
X38700Y-18600D02*
X38800Y-18600D01*
X36000Y-18600D02*
X38300Y-18600D01*
X29500Y-18600D02*
X35200Y-18600D01*
X27600Y-18600D02*
X28600Y-18600D01*
X23400Y-18600D02*
X27200Y-18600D01*
X19000Y-18600D02*
X22900Y-18600D01*
X18000Y-18600D02*
X18300Y-18600D01*
X10300Y-18600D02*
X17300Y-18600D01*
X36000Y-18500D02*
X49700Y-18500D01*
X29300Y-18500D02*
X35200Y-18500D01*
X23400Y-18500D02*
X28400Y-18500D01*
X18900Y-18500D02*
X22800Y-18500D01*
X17900Y-18500D02*
X18400Y-18500D01*
X10300Y-18500D02*
X17400Y-18500D01*
X49200Y-18400D02*
X49700Y-18400D01*
X48200Y-18400D02*
X48800Y-18400D01*
X47300Y-18400D02*
X47800Y-18400D01*
X36100Y-18400D02*
X46800Y-18400D01*
X31300Y-18400D02*
X35300Y-18400D01*
X29200Y-18400D02*
X31000Y-18400D01*
X25500Y-18400D02*
X28300Y-18400D01*
X25100Y-18400D02*
X25200Y-18400D01*
X23500Y-18400D02*
X24900Y-18400D01*
X22500Y-18400D02*
X22800Y-18400D01*
X10300Y-18400D02*
X21500Y-18400D01*
X49400Y-18300D02*
X49700Y-18300D01*
X48400Y-18300D02*
X48600Y-18300D01*
X47400Y-18300D02*
X47600Y-18300D01*
X36000Y-18300D02*
X46700Y-18300D01*
X31400Y-18300D02*
X35400Y-18300D01*
X29200Y-18300D02*
X30800Y-18300D01*
X25800Y-18300D02*
X28200Y-18300D01*
X23500Y-18300D02*
X24700Y-18300D01*
X22500Y-18300D02*
X22700Y-18300D01*
X10300Y-18300D02*
X21500Y-18300D01*
X49500Y-18200D02*
X49700Y-18200D01*
X36000Y-18200D02*
X46600Y-18200D01*
X31500Y-18200D02*
X35500Y-18200D01*
X29000Y-18200D02*
X30700Y-18200D01*
X26000Y-18200D02*
X28300Y-18200D01*
X23400Y-18200D02*
X24700Y-18200D01*
X22500Y-18200D02*
X22600Y-18200D01*
X10300Y-18200D02*
X21500Y-18200D01*
X49500Y-18100D02*
X49700Y-18100D01*
X38300Y-18100D02*
X46600Y-18100D01*
X37600Y-18100D02*
X38100Y-18100D01*
X31500Y-18100D02*
X37400Y-18100D01*
X30100Y-18100D02*
X30600Y-18100D01*
X28900Y-18100D02*
X29900Y-18100D01*
X26000Y-18100D02*
X28100Y-18100D01*
X23300Y-18100D02*
X24700Y-18100D01*
X22500Y-18100D02*
X22600Y-18100D01*
X10300Y-18100D02*
X21500Y-18100D01*
X49500Y-18000D02*
X49700Y-18000D01*
X43300Y-18000D02*
X46500Y-18000D01*
X38400Y-18000D02*
X43100Y-18000D01*
X37800Y-18000D02*
X37900Y-18000D01*
X37100Y-18000D02*
X37200Y-18000D01*
X31400Y-18000D02*
X36700Y-18000D01*
X30300Y-18000D02*
X30400Y-18000D01*
X28800Y-18000D02*
X29700Y-18000D01*
X26000Y-18000D02*
X28100Y-18000D01*
X23300Y-18000D02*
X24700Y-18000D01*
X22500Y-18000D02*
X22600Y-18000D01*
X10300Y-18000D02*
X21500Y-18000D01*
X49500Y-17900D02*
X49700Y-17900D01*
X43500Y-17900D02*
X46600Y-17900D01*
X38500Y-17900D02*
X42900Y-17900D01*
X31400Y-17900D02*
X36600Y-17900D01*
X28800Y-17900D02*
X29700Y-17900D01*
X26000Y-17900D02*
X28100Y-17900D01*
X23300Y-17900D02*
X24700Y-17900D01*
X22500Y-17900D02*
X22600Y-17900D01*
X10300Y-17900D02*
X21500Y-17900D01*
X49500Y-17800D02*
X49700Y-17800D01*
X43500Y-17800D02*
X46600Y-17800D01*
X38500Y-17800D02*
X42900Y-17800D01*
X31200Y-17800D02*
X36600Y-17800D01*
X28700Y-17800D02*
X29700Y-17800D01*
X25900Y-17800D02*
X28000Y-17800D01*
X23400Y-17800D02*
X24700Y-17800D01*
X22500Y-17800D02*
X22700Y-17800D01*
X10300Y-17800D02*
X21500Y-17800D01*
X49400Y-17700D02*
X49700Y-17700D01*
X48400Y-17700D02*
X48600Y-17700D01*
X47400Y-17700D02*
X47600Y-17700D01*
X43500Y-17700D02*
X46700Y-17700D01*
X38500Y-17700D02*
X42900Y-17700D01*
X31100Y-17700D02*
X36300Y-17700D01*
X28700Y-17700D02*
X29600Y-17700D01*
X25500Y-17700D02*
X27900Y-17700D01*
X23400Y-17700D02*
X24700Y-17700D01*
X22500Y-17700D02*
X22700Y-17700D01*
X16600Y-17700D02*
X21500Y-17700D01*
X10300Y-17700D02*
X16100Y-17700D01*
X49300Y-17600D02*
X49700Y-17600D01*
X48300Y-17600D02*
X48700Y-17600D01*
X47300Y-17600D02*
X47700Y-17600D01*
X43500Y-17600D02*
X46800Y-17600D01*
X38400Y-17600D02*
X42900Y-17600D01*
X31800Y-17600D02*
X36300Y-17600D01*
X30900Y-17600D02*
X31500Y-17600D01*
X28600Y-17600D02*
X29500Y-17600D01*
X25600Y-17600D02*
X27700Y-17600D01*
X23400Y-17600D02*
X24700Y-17600D01*
X22500Y-17600D02*
X22700Y-17600D01*
X16700Y-17600D02*
X21500Y-17600D01*
X10300Y-17600D02*
X16000Y-17600D01*
X43400Y-17500D02*
X49700Y-17500D01*
X38200Y-17500D02*
X42900Y-17500D01*
X32000Y-17500D02*
X36200Y-17500D01*
X30800Y-17500D02*
X31400Y-17500D01*
X30200Y-17500D02*
X30300Y-17500D01*
X28600Y-17500D02*
X29500Y-17500D01*
X25800Y-17500D02*
X27700Y-17500D01*
X23300Y-17500D02*
X24800Y-17500D01*
X16700Y-17500D02*
X22800Y-17500D01*
X10300Y-17500D02*
X16000Y-17500D01*
X49200Y-17400D02*
X49700Y-17400D01*
X48200Y-17400D02*
X48800Y-17400D01*
X47300Y-17400D02*
X47800Y-17400D01*
X38100Y-17400D02*
X46800Y-17400D01*
X37400Y-17400D02*
X37600Y-17400D01*
X36900Y-17400D02*
X37000Y-17400D01*
X32000Y-17400D02*
X36300Y-17400D01*
X30200Y-17400D02*
X31400Y-17400D01*
X28500Y-17400D02*
X29500Y-17400D01*
X25900Y-17400D02*
X27600Y-17400D01*
X23200Y-17400D02*
X24900Y-17400D01*
X22300Y-17400D02*
X22900Y-17400D01*
X16700Y-17400D02*
X21700Y-17400D01*
X10300Y-17400D02*
X16000Y-17400D01*
X49400Y-17300D02*
X49700Y-17300D01*
X48400Y-17300D02*
X48600Y-17300D01*
X47400Y-17300D02*
X47600Y-17300D01*
X40600Y-17300D02*
X46700Y-17300D01*
X36800Y-17300D02*
X40100Y-17300D01*
X32100Y-17300D02*
X36300Y-17300D01*
X30100Y-17300D02*
X31300Y-17300D01*
X28300Y-17300D02*
X29500Y-17300D01*
X25900Y-17300D02*
X27600Y-17300D01*
X22400Y-17300D02*
X25000Y-17300D01*
X16600Y-17300D02*
X21600Y-17300D01*
X10300Y-17300D02*
X16100Y-17300D01*
X49500Y-17200D02*
X49700Y-17200D01*
X40700Y-17200D02*
X46600Y-17200D01*
X32200Y-17200D02*
X40100Y-17200D01*
X30000Y-17200D02*
X31400Y-17200D01*
X28300Y-17200D02*
X29700Y-17200D01*
X25900Y-17200D02*
X27700Y-17200D01*
X22500Y-17200D02*
X25200Y-17200D01*
X14500Y-17200D02*
X21500Y-17200D01*
X10300Y-17200D02*
X14100Y-17200D01*
X49500Y-17100D02*
X49700Y-17100D01*
X40700Y-17100D02*
X46600Y-17100D01*
X32200Y-17100D02*
X40000Y-17100D01*
X28100Y-17100D02*
X31400Y-17100D01*
X25900Y-17100D02*
X27800Y-17100D01*
X22500Y-17100D02*
X25300Y-17100D01*
X14600Y-17100D02*
X21500Y-17100D01*
X10300Y-17100D02*
X14000Y-17100D01*
X49500Y-17000D02*
X49700Y-17000D01*
X40700Y-17000D02*
X46500Y-17000D01*
X39100Y-17000D02*
X40100Y-17000D01*
X32200Y-17000D02*
X38800Y-17000D01*
X25800Y-17000D02*
X31500Y-17000D01*
X22500Y-17000D02*
X25400Y-17000D01*
X14700Y-17000D02*
X21500Y-17000D01*
X10300Y-17000D02*
X13900Y-17000D01*
X49500Y-16900D02*
X49700Y-16900D01*
X40800Y-16900D02*
X46600Y-16900D01*
X39200Y-16900D02*
X40100Y-16900D01*
X32200Y-16900D02*
X38600Y-16900D01*
X22500Y-16900D02*
X31600Y-16900D01*
X14700Y-16900D02*
X21500Y-16900D01*
X10300Y-16900D02*
X13900Y-16900D01*
X49500Y-16800D02*
X49700Y-16800D01*
X40900Y-16800D02*
X46600Y-16800D01*
X39300Y-16800D02*
X40200Y-16800D01*
X32100Y-16800D02*
X38600Y-16800D01*
X23600Y-16800D02*
X31700Y-16800D01*
X22800Y-16800D02*
X23000Y-16800D01*
X14700Y-16800D02*
X21500Y-16800D01*
X10300Y-16800D02*
X13900Y-16800D01*
X49400Y-16700D02*
X49700Y-16700D01*
X48400Y-16700D02*
X48600Y-16700D01*
X47400Y-16700D02*
X47600Y-16700D01*
X40900Y-16700D02*
X46700Y-16700D01*
X39300Y-16700D02*
X40200Y-16700D01*
X23600Y-16700D02*
X38600Y-16700D01*
X17300Y-16700D02*
X21600Y-16700D01*
X14600Y-16700D02*
X17100Y-16700D01*
X10300Y-16700D02*
X14000Y-16700D01*
X49300Y-16600D02*
X49700Y-16600D01*
X48300Y-16600D02*
X48700Y-16600D01*
X47300Y-16600D02*
X47700Y-16600D01*
X40800Y-16600D02*
X46800Y-16600D01*
X39200Y-16600D02*
X40200Y-16600D01*
X23700Y-16600D02*
X38600Y-16600D01*
X17500Y-16600D02*
X21700Y-16600D01*
X14500Y-16600D02*
X16900Y-16600D01*
X10300Y-16600D02*
X14100Y-16600D01*
X40800Y-16500D02*
X49700Y-16500D01*
X39200Y-16500D02*
X40300Y-16500D01*
X23600Y-16500D02*
X38700Y-16500D01*
X17600Y-16500D02*
X22300Y-16500D01*
X10300Y-16500D02*
X16800Y-16500D01*
X49200Y-16400D02*
X49700Y-16400D01*
X48200Y-16400D02*
X48800Y-16400D01*
X47300Y-16400D02*
X47800Y-16400D01*
X23600Y-16400D02*
X46800Y-16400D01*
X22300Y-16400D02*
X22400Y-16400D01*
X17600Y-16400D02*
X21700Y-16400D01*
X10300Y-16400D02*
X16800Y-16400D01*
X49400Y-16300D02*
X49700Y-16300D01*
X48400Y-16300D02*
X48600Y-16300D01*
X47400Y-16300D02*
X47600Y-16300D01*
X45300Y-16300D02*
X46700Y-16300D01*
X23900Y-16300D02*
X44500Y-16300D01*
X22900Y-16300D02*
X23500Y-16300D01*
X17600Y-16300D02*
X21600Y-16300D01*
X10300Y-16300D02*
X16800Y-16300D01*
X49500Y-16200D02*
X49700Y-16200D01*
X45400Y-16200D02*
X46600Y-16200D01*
X24000Y-16200D02*
X44400Y-16200D01*
X22500Y-16200D02*
X23400Y-16200D01*
X17500Y-16200D02*
X21500Y-16200D01*
X10300Y-16200D02*
X16800Y-16200D01*
X49500Y-16100D02*
X49700Y-16100D01*
X45400Y-16100D02*
X46600Y-16100D01*
X34100Y-16100D02*
X44400Y-16100D01*
X32700Y-16100D02*
X33700Y-16100D01*
X24100Y-16100D02*
X32300Y-16100D01*
X22500Y-16100D02*
X23400Y-16100D01*
X17400Y-16100D02*
X21500Y-16100D01*
X10300Y-16100D02*
X16900Y-16100D01*
X49500Y-16000D02*
X49700Y-16000D01*
X45400Y-16000D02*
X46500Y-16000D01*
X39500Y-16000D02*
X44300Y-16000D01*
X34200Y-16000D02*
X39100Y-16000D01*
X32800Y-16000D02*
X33600Y-16000D01*
X24100Y-16000D02*
X32200Y-16000D01*
X22500Y-16000D02*
X23400Y-16000D01*
X10300Y-16000D02*
X21500Y-16000D01*
X49500Y-15900D02*
X49700Y-15900D01*
X45400Y-15900D02*
X46600Y-15900D01*
X39600Y-15900D02*
X44400Y-15900D01*
X34200Y-15900D02*
X39000Y-15900D01*
X32800Y-15900D02*
X33500Y-15900D01*
X24000Y-15900D02*
X32100Y-15900D01*
X22500Y-15900D02*
X23400Y-15900D01*
X17300Y-15900D02*
X21500Y-15900D01*
X10300Y-15900D02*
X16900Y-15900D01*
X49500Y-15800D02*
X49700Y-15800D01*
X45200Y-15800D02*
X46600Y-15800D01*
X39600Y-15800D02*
X44500Y-15800D01*
X34200Y-15800D02*
X39000Y-15800D01*
X33400Y-15800D02*
X33500Y-15800D01*
X32800Y-15800D02*
X33000Y-15800D01*
X23900Y-15800D02*
X32100Y-15800D01*
X22500Y-15800D02*
X23500Y-15800D01*
X17500Y-15800D02*
X21500Y-15800D01*
X10300Y-15800D02*
X16800Y-15800D01*
X49400Y-15700D02*
X49700Y-15700D01*
X48400Y-15700D02*
X48600Y-15700D01*
X47400Y-15700D02*
X47600Y-15700D01*
X39600Y-15700D02*
X46700Y-15700D01*
X34200Y-15700D02*
X39000Y-15700D01*
X33500Y-15700D02*
X33600Y-15700D01*
X32800Y-15700D02*
X32900Y-15700D01*
X22400Y-15700D02*
X32200Y-15700D01*
X17500Y-15700D02*
X21600Y-15700D01*
X10300Y-15700D02*
X16800Y-15700D01*
X49300Y-15600D02*
X49700Y-15600D01*
X48300Y-15600D02*
X48700Y-15600D01*
X47300Y-15600D02*
X47700Y-15600D01*
X39600Y-15600D02*
X46800Y-15600D01*
X34200Y-15600D02*
X39000Y-15600D01*
X33500Y-15600D02*
X33600Y-15600D01*
X32700Y-15600D02*
X32900Y-15600D01*
X22300Y-15600D02*
X32300Y-15600D01*
X17500Y-15600D02*
X21700Y-15600D01*
X10300Y-15600D02*
X16800Y-15600D01*
X39500Y-15500D02*
X49700Y-15500D01*
X34300Y-15500D02*
X39100Y-15500D01*
X33500Y-15500D02*
X33600Y-15500D01*
X17500Y-15500D02*
X32900Y-15500D01*
X10300Y-15500D02*
X16800Y-15500D01*
X49200Y-15400D02*
X49700Y-15400D01*
X48200Y-15400D02*
X48800Y-15400D01*
X47300Y-15400D02*
X47800Y-15400D01*
X34300Y-15400D02*
X46800Y-15400D01*
X33500Y-15400D02*
X33600Y-15400D01*
X22300Y-15400D02*
X32900Y-15400D01*
X17500Y-15400D02*
X21700Y-15400D01*
X10300Y-15400D02*
X16400Y-15400D01*
X49400Y-15300D02*
X49700Y-15300D01*
X48400Y-15300D02*
X48600Y-15300D01*
X47400Y-15300D02*
X47600Y-15300D01*
X34200Y-15300D02*
X46700Y-15300D01*
X22400Y-15300D02*
X32900Y-15300D01*
X17300Y-15300D02*
X21600Y-15300D01*
X13400Y-15300D02*
X16300Y-15300D01*
X10300Y-15300D02*
X12900Y-15300D01*
X49500Y-15200D02*
X49700Y-15200D01*
X46100Y-15200D02*
X46600Y-15200D01*
X34100Y-15200D02*
X45600Y-15200D01*
X33600Y-15200D02*
X33700Y-15200D01*
X22500Y-15200D02*
X32900Y-15200D01*
X17000Y-15200D02*
X21500Y-15200D01*
X13500Y-15200D02*
X16200Y-15200D01*
X10300Y-15200D02*
X12800Y-15200D01*
X49500Y-15100D02*
X49700Y-15100D01*
X46200Y-15100D02*
X46600Y-15100D01*
X33600Y-15100D02*
X45600Y-15100D01*
X22500Y-15100D02*
X32900Y-15100D01*
X17000Y-15100D02*
X21500Y-15100D01*
X13500Y-15100D02*
X16200Y-15100D01*
X10300Y-15100D02*
X12800Y-15100D01*
X49500Y-15000D02*
X49700Y-15000D01*
X46200Y-15000D02*
X46500Y-15000D01*
X33500Y-15000D02*
X45500Y-15000D01*
X30000Y-15000D02*
X33000Y-15000D01*
X27700Y-15000D02*
X29500Y-15000D01*
X22500Y-15000D02*
X27200Y-15000D01*
X17000Y-15000D02*
X21500Y-15000D01*
X13500Y-15000D02*
X16200Y-15000D01*
X10300Y-15000D02*
X12800Y-15000D01*
X49500Y-14900D02*
X49700Y-14900D01*
X46200Y-14900D02*
X46600Y-14900D01*
X30100Y-14900D02*
X45500Y-14900D01*
X27800Y-14900D02*
X29400Y-14900D01*
X22500Y-14900D02*
X27100Y-14900D01*
X16900Y-14900D02*
X21500Y-14900D01*
X13500Y-14900D02*
X16300Y-14900D01*
X10300Y-14900D02*
X12800Y-14900D01*
X49500Y-14800D02*
X49700Y-14800D01*
X46200Y-14800D02*
X46600Y-14800D01*
X30100Y-14800D02*
X45600Y-14800D01*
X27800Y-14800D02*
X29400Y-14800D01*
X22500Y-14800D02*
X27100Y-14800D01*
X16800Y-14800D02*
X21500Y-14800D01*
X13500Y-14800D02*
X16400Y-14800D01*
X10300Y-14800D02*
X12800Y-14800D01*
X49400Y-14700D02*
X49700Y-14700D01*
X48400Y-14700D02*
X48600Y-14700D01*
X47400Y-14700D02*
X47600Y-14700D01*
X46000Y-14700D02*
X46700Y-14700D01*
X30100Y-14700D02*
X45700Y-14700D01*
X27800Y-14700D02*
X29400Y-14700D01*
X22400Y-14700D02*
X27100Y-14700D01*
X13300Y-14700D02*
X21600Y-14700D01*
X10300Y-14700D02*
X13000Y-14700D01*
X49300Y-14600D02*
X49700Y-14600D01*
X48300Y-14600D02*
X48700Y-14600D01*
X47300Y-14600D02*
X47700Y-14600D01*
X30000Y-14600D02*
X46800Y-14600D01*
X27700Y-14600D02*
X29500Y-14600D01*
X22300Y-14600D02*
X27200Y-14600D01*
X10300Y-14600D02*
X21700Y-14600D01*
X29900Y-14500D02*
X49700Y-14500D01*
X10300Y-14500D02*
X29600Y-14500D01*
X49200Y-14400D02*
X49700Y-14400D01*
X48200Y-14400D02*
X48800Y-14400D01*
X47300Y-14400D02*
X47800Y-14400D01*
X22300Y-14400D02*
X46800Y-14400D01*
X10300Y-14400D02*
X21700Y-14400D01*
X49400Y-14300D02*
X49700Y-14300D01*
X48400Y-14300D02*
X48600Y-14300D01*
X47400Y-14300D02*
X47600Y-14300D01*
X22400Y-14300D02*
X46700Y-14300D01*
X12300Y-14300D02*
X21600Y-14300D01*
X10500Y-14300D02*
X11900Y-14300D01*
X49500Y-14200D02*
X49700Y-14200D01*
X22500Y-14200D02*
X46600Y-14200D01*
X20800Y-14200D02*
X21500Y-14200D01*
X12800Y-14200D02*
X20400Y-14200D01*
X10600Y-14200D02*
X11800Y-14200D01*
X49500Y-14100D02*
X49700Y-14100D01*
X22500Y-14100D02*
X46600Y-14100D01*
X20900Y-14100D02*
X21500Y-14100D01*
X12800Y-14100D02*
X20300Y-14100D01*
X10700Y-14100D02*
X11800Y-14100D01*
X49500Y-14000D02*
X49700Y-14000D01*
X22500Y-14000D02*
X46500Y-14000D01*
X21000Y-14000D02*
X21500Y-14000D01*
X12900Y-14000D02*
X20300Y-14000D01*
X10700Y-14000D02*
X11800Y-14000D01*
X49500Y-13900D02*
X49700Y-13900D01*
X30000Y-13900D02*
X46600Y-13900D01*
X27700Y-13900D02*
X29500Y-13900D01*
X25800Y-13900D02*
X27200Y-13900D01*
X24200Y-13900D02*
X25300Y-13900D01*
X22500Y-13900D02*
X23700Y-13900D01*
X21000Y-13900D02*
X21500Y-13900D01*
X12900Y-13900D02*
X20300Y-13900D01*
X10700Y-13900D02*
X11800Y-13900D01*
X49500Y-13800D02*
X49700Y-13800D01*
X30100Y-13800D02*
X46600Y-13800D01*
X27800Y-13800D02*
X29500Y-13800D01*
X25900Y-13800D02*
X27100Y-13800D01*
X24300Y-13800D02*
X25300Y-13800D01*
X22500Y-13800D02*
X23600Y-13800D01*
X20900Y-13800D02*
X21500Y-13800D01*
X12800Y-13800D02*
X20300Y-13800D01*
X10700Y-13800D02*
X12000Y-13800D01*
X49400Y-13700D02*
X49700Y-13700D01*
X48400Y-13700D02*
X48600Y-13700D01*
X47400Y-13700D02*
X47600Y-13700D01*
X30100Y-13700D02*
X46700Y-13700D01*
X27800Y-13700D02*
X29400Y-13700D01*
X25900Y-13700D02*
X27100Y-13700D01*
X24300Y-13700D02*
X25200Y-13700D01*
X22400Y-13700D02*
X23600Y-13700D01*
X20800Y-13700D02*
X21600Y-13700D01*
X12700Y-13700D02*
X20400Y-13700D01*
X10600Y-13700D02*
X12200Y-13700D01*
X49300Y-13600D02*
X49700Y-13600D01*
X48300Y-13600D02*
X48700Y-13600D01*
X47300Y-13600D02*
X47700Y-13600D01*
X30200Y-13600D02*
X46800Y-13600D01*
X27800Y-13600D02*
X29500Y-13600D01*
X25900Y-13600D02*
X27100Y-13600D01*
X24300Y-13600D02*
X25200Y-13600D01*
X22300Y-13600D02*
X23600Y-13600D01*
X10700Y-13600D02*
X21700Y-13600D01*
X30300Y-13500D02*
X49700Y-13500D01*
X27700Y-13500D02*
X29500Y-13500D01*
X25900Y-13500D02*
X27100Y-13500D01*
X24300Y-13500D02*
X25300Y-13500D01*
X10700Y-13500D02*
X23700Y-13500D01*
X49200Y-13400D02*
X49700Y-13400D01*
X48200Y-13400D02*
X48800Y-13400D01*
X47300Y-13400D02*
X47800Y-13400D01*
X37800Y-13400D02*
X46800Y-13400D01*
X30400Y-13400D02*
X37300Y-13400D01*
X27800Y-13400D02*
X29700Y-13400D01*
X25900Y-13400D02*
X27100Y-13400D01*
X24300Y-13400D02*
X25200Y-13400D01*
X22300Y-13400D02*
X23700Y-13400D01*
X10800Y-13400D02*
X21700Y-13400D01*
X49400Y-13300D02*
X49700Y-13300D01*
X48400Y-13300D02*
X48600Y-13300D01*
X47400Y-13300D02*
X47600Y-13300D01*
X37900Y-13300D02*
X46700Y-13300D01*
X30400Y-13300D02*
X37200Y-13300D01*
X27800Y-13300D02*
X29700Y-13300D01*
X25900Y-13300D02*
X27100Y-13300D01*
X24400Y-13300D02*
X25200Y-13300D01*
X22400Y-13300D02*
X23700Y-13300D01*
X10700Y-13300D02*
X21600Y-13300D01*
X49500Y-13200D02*
X49700Y-13200D01*
X37900Y-13200D02*
X46600Y-13200D01*
X30300Y-13200D02*
X37200Y-13200D01*
X28900Y-13200D02*
X29700Y-13200D01*
X27700Y-13200D02*
X28400Y-13200D01*
X25900Y-13200D02*
X27100Y-13200D01*
X24300Y-13200D02*
X25300Y-13200D01*
X22500Y-13200D02*
X23700Y-13200D01*
X10700Y-13200D02*
X21500Y-13200D01*
X49500Y-13100D02*
X49700Y-13100D01*
X37900Y-13100D02*
X46600Y-13100D01*
X30200Y-13100D02*
X37200Y-13100D01*
X28900Y-13100D02*
X29800Y-13100D01*
X27600Y-13100D02*
X28300Y-13100D01*
X25800Y-13100D02*
X27200Y-13100D01*
X24300Y-13100D02*
X25300Y-13100D01*
X22500Y-13100D02*
X23800Y-13100D01*
X10300Y-13100D02*
X21500Y-13100D01*
X49500Y-13000D02*
X49700Y-13000D01*
X37800Y-13000D02*
X46500Y-13000D01*
X29000Y-13000D02*
X37300Y-13000D01*
X22500Y-13000D02*
X28300Y-13000D01*
X14500Y-13000D02*
X21500Y-13000D01*
X10300Y-13000D02*
X14100Y-13000D01*
X49500Y-12900D02*
X49700Y-12900D01*
X29000Y-12900D02*
X46600Y-12900D01*
X22500Y-12900D02*
X28300Y-12900D01*
X14600Y-12900D02*
X21500Y-12900D01*
X10300Y-12900D02*
X14000Y-12900D01*
X49500Y-12800D02*
X49700Y-12800D01*
X29100Y-12800D02*
X46600Y-12800D01*
X22500Y-12800D02*
X28300Y-12800D01*
X14600Y-12800D02*
X21500Y-12800D01*
X10300Y-12800D02*
X13900Y-12800D01*
X49400Y-12700D02*
X49700Y-12700D01*
X48400Y-12700D02*
X48600Y-12700D01*
X47400Y-12700D02*
X47600Y-12700D01*
X29100Y-12700D02*
X46700Y-12700D01*
X22400Y-12700D02*
X28400Y-12700D01*
X14700Y-12700D02*
X21600Y-12700D01*
X10300Y-12700D02*
X13900Y-12700D01*
X49300Y-12600D02*
X49700Y-12600D01*
X48300Y-12600D02*
X48700Y-12600D01*
X47300Y-12600D02*
X47700Y-12600D01*
X29100Y-12600D02*
X46800Y-12600D01*
X22300Y-12600D02*
X28400Y-12600D01*
X14700Y-12600D02*
X21700Y-12600D01*
X10300Y-12600D02*
X13900Y-12600D01*
X29200Y-12500D02*
X49700Y-12500D01*
X14600Y-12500D02*
X28500Y-12500D01*
X10300Y-12500D02*
X13900Y-12500D01*
X29200Y-12400D02*
X49700Y-12400D01*
X14500Y-12400D02*
X28500Y-12400D01*
X10300Y-12400D02*
X14000Y-12400D01*
X29200Y-12300D02*
X49700Y-12300D01*
X10300Y-12300D02*
X28600Y-12300D01*
X29300Y-12200D02*
X49700Y-12200D01*
X10300Y-12200D02*
X28600Y-12200D01*
X29300Y-12100D02*
X49700Y-12100D01*
X10300Y-12100D02*
X28700Y-12100D01*
X29400Y-12000D02*
X49700Y-12000D01*
X10300Y-12000D02*
X28700Y-12000D01*
X29300Y-11900D02*
X49700Y-11900D01*
X10300Y-11900D02*
X28700Y-11900D01*
X29200Y-11800D02*
X49700Y-11800D01*
X10300Y-11800D02*
X28800Y-11800D01*
X10300Y-11700D02*
X49700Y-11700D01*
X10300Y-11600D02*
X49700Y-11600D01*
X10300Y-11500D02*
X49700Y-11500D01*
X46500Y-11400D02*
X49700Y-11400D01*
X45300Y-11400D02*
X45500Y-11400D01*
X44300Y-11400D02*
X44700Y-11400D01*
X43300Y-11400D02*
X43700Y-11400D01*
X42300Y-11400D02*
X42700Y-11400D01*
X41300Y-11400D02*
X41700Y-11400D01*
X40300Y-11400D02*
X40700Y-11400D01*
X39300Y-11400D02*
X39700Y-11400D01*
X38300Y-11400D02*
X38700Y-11400D01*
X37300Y-11400D02*
X37700Y-11400D01*
X36300Y-11400D02*
X36700Y-11400D01*
X35300Y-11400D02*
X35700Y-11400D01*
X34300Y-11400D02*
X34700Y-11400D01*
X33300Y-11400D02*
X33700Y-11400D01*
X32300Y-11400D02*
X32700Y-11400D01*
X31300Y-11400D02*
X31700Y-11400D01*
X30300Y-11400D02*
X30700Y-11400D01*
X29300Y-11400D02*
X29700Y-11400D01*
X28300Y-11400D02*
X28700Y-11400D01*
X27300Y-11400D02*
X27700Y-11400D01*
X26300Y-11400D02*
X26700Y-11400D01*
X25300Y-11400D02*
X25700Y-11400D01*
X24300Y-11400D02*
X24700Y-11400D01*
X23300Y-11400D02*
X23700Y-11400D01*
X22300Y-11400D02*
X22700Y-11400D01*
X21300Y-11400D02*
X21700Y-11400D01*
X20300Y-11400D02*
X20700Y-11400D01*
X19300Y-11400D02*
X19700Y-11400D01*
X18300Y-11400D02*
X18700Y-11400D01*
X17300Y-11400D02*
X17700Y-11400D01*
X16300Y-11400D02*
X16700Y-11400D01*
X15300Y-11400D02*
X15700Y-11400D01*
X14500Y-11400D02*
X14700Y-11400D01*
X13300Y-11400D02*
X13500Y-11400D01*
X10300Y-11400D02*
X12700Y-11400D01*
X46500Y-11300D02*
X49700Y-11300D01*
X45400Y-11300D02*
X45500Y-11300D01*
X44400Y-11300D02*
X44600Y-11300D01*
X43400Y-11300D02*
X43600Y-11300D01*
X42400Y-11300D02*
X42600Y-11300D01*
X41400Y-11300D02*
X41600Y-11300D01*
X40400Y-11300D02*
X40600Y-11300D01*
X39400Y-11300D02*
X39600Y-11300D01*
X38400Y-11300D02*
X38600Y-11300D01*
X37400Y-11300D02*
X37600Y-11300D01*
X36400Y-11300D02*
X36600Y-11300D01*
X35400Y-11300D02*
X35600Y-11300D01*
X34400Y-11300D02*
X34600Y-11300D01*
X33400Y-11300D02*
X33600Y-11300D01*
X32400Y-11300D02*
X32600Y-11300D01*
X31400Y-11300D02*
X31600Y-11300D01*
X30400Y-11300D02*
X30600Y-11300D01*
X29400Y-11300D02*
X29600Y-11300D01*
X28400Y-11300D02*
X28600Y-11300D01*
X27400Y-11300D02*
X27600Y-11300D01*
X26400Y-11300D02*
X26600Y-11300D01*
X25400Y-11300D02*
X25600Y-11300D01*
X24400Y-11300D02*
X24600Y-11300D01*
X23400Y-11300D02*
X23600Y-11300D01*
X22400Y-11300D02*
X22600Y-11300D01*
X21400Y-11300D02*
X21600Y-11300D01*
X20400Y-11300D02*
X20600Y-11300D01*
X19400Y-11300D02*
X19600Y-11300D01*
X18400Y-11300D02*
X18600Y-11300D01*
X17400Y-11300D02*
X17600Y-11300D01*
X16400Y-11300D02*
X16600Y-11300D01*
X15400Y-11300D02*
X15600Y-11300D01*
X14500Y-11300D02*
X14600Y-11300D01*
X13400Y-11300D02*
X13500Y-11300D01*
X10300Y-11300D02*
X12600Y-11300D01*
X46500Y-11200D02*
X49700Y-11200D01*
X10300Y-11200D02*
X12500Y-11200D01*
X46500Y-11100D02*
X49700Y-11100D01*
X10300Y-11100D02*
X12500Y-11100D01*
X46500Y-11000D02*
X49700Y-11000D01*
X10300Y-11000D02*
X12500Y-11000D01*
X46500Y-10900D02*
X49700Y-10900D01*
X10300Y-10900D02*
X12500Y-10900D01*
X46500Y-10800D02*
X49700Y-10800D01*
X10300Y-10800D02*
X12500Y-10800D01*
X46500Y-10700D02*
X49600Y-10700D01*
X45400Y-10700D02*
X45500Y-10700D01*
X44400Y-10700D02*
X44600Y-10700D01*
X43400Y-10700D02*
X43600Y-10700D01*
X42400Y-10700D02*
X42600Y-10700D01*
X41400Y-10700D02*
X41600Y-10700D01*
X40400Y-10700D02*
X40600Y-10700D01*
X39400Y-10700D02*
X39600Y-10700D01*
X38400Y-10700D02*
X38600Y-10700D01*
X37400Y-10700D02*
X37600Y-10700D01*
X36400Y-10700D02*
X36600Y-10700D01*
X35400Y-10700D02*
X35600Y-10700D01*
X34400Y-10700D02*
X34600Y-10700D01*
X33400Y-10700D02*
X33600Y-10700D01*
X32400Y-10700D02*
X32600Y-10700D01*
X31400Y-10700D02*
X31600Y-10700D01*
X30400Y-10700D02*
X30600Y-10700D01*
X29400Y-10700D02*
X29600Y-10700D01*
X28400Y-10700D02*
X28600Y-10700D01*
X27400Y-10700D02*
X27600Y-10700D01*
X26400Y-10700D02*
X26600Y-10700D01*
X25400Y-10700D02*
X25600Y-10700D01*
X24400Y-10700D02*
X24600Y-10700D01*
X23400Y-10700D02*
X23600Y-10700D01*
X22400Y-10700D02*
X22600Y-10700D01*
X21400Y-10700D02*
X21600Y-10700D01*
X20400Y-10700D02*
X20600Y-10700D01*
X19400Y-10700D02*
X19600Y-10700D01*
X18400Y-10700D02*
X18600Y-10700D01*
X17400Y-10700D02*
X17600Y-10700D01*
X16400Y-10700D02*
X16600Y-10700D01*
X15400Y-10700D02*
X15600Y-10700D01*
X14500Y-10700D02*
X14600Y-10700D01*
X13400Y-10700D02*
X13500Y-10700D01*
X10400Y-10700D02*
X12600Y-10700D01*
X46500Y-10600D02*
X49600Y-10600D01*
X45300Y-10600D02*
X45500Y-10600D01*
X44300Y-10600D02*
X44700Y-10600D01*
X43300Y-10600D02*
X43700Y-10600D01*
X42300Y-10600D02*
X42700Y-10600D01*
X41300Y-10600D02*
X41700Y-10600D01*
X40300Y-10600D02*
X40700Y-10600D01*
X39300Y-10600D02*
X39700Y-10600D01*
X38300Y-10600D02*
X38700Y-10600D01*
X37300Y-10600D02*
X37700Y-10600D01*
X36300Y-10600D02*
X36700Y-10600D01*
X35300Y-10600D02*
X35700Y-10600D01*
X34300Y-10600D02*
X34700Y-10600D01*
X33300Y-10600D02*
X33700Y-10600D01*
X32300Y-10600D02*
X32700Y-10600D01*
X31300Y-10600D02*
X31700Y-10600D01*
X30300Y-10600D02*
X30700Y-10600D01*
X29300Y-10600D02*
X29700Y-10600D01*
X28300Y-10600D02*
X28700Y-10600D01*
X27300Y-10600D02*
X27700Y-10600D01*
X26300Y-10600D02*
X26700Y-10600D01*
X25300Y-10600D02*
X25700Y-10600D01*
X24300Y-10600D02*
X24700Y-10600D01*
X23300Y-10600D02*
X23700Y-10600D01*
X22300Y-10600D02*
X22700Y-10600D01*
X21300Y-10600D02*
X21700Y-10600D01*
X20300Y-10600D02*
X20700Y-10600D01*
X19300Y-10600D02*
X19700Y-10600D01*
X18300Y-10600D02*
X18700Y-10600D01*
X17300Y-10600D02*
X17700Y-10600D01*
X16300Y-10600D02*
X16700Y-10600D01*
X15300Y-10600D02*
X15700Y-10600D01*
X14500Y-10600D02*
X14700Y-10600D01*
X13300Y-10600D02*
X13500Y-10600D01*
X10400Y-10600D02*
X12700Y-10600D01*
X10500Y-10500D02*
X49500Y-10500D01*
X10600Y-10400D02*
X49400Y-10400D01*
X10800Y-10300D02*
X49200Y-10300D01*
M02*
