G04 (Genere par PCBnew (20080825c)) le 10/4/2010-23:02:41*
G01*
G70*
G90*
%MOIN*%
G04 Gerber Fmt 3.4, Leading zero omitted, Abs format*
%FSLAX34Y34*%
G04 APERTURE LIST*
%ADD10C,0.015000*%
%ADD11R,0.060000X0.060000*%
%ADD12C,0.060000*%
%ADD13C,0.157500*%
%ADD14C,0.039400*%
%ADD15C,0.027000*%
%ADD16C,0.035600*%
%ADD17C,0.008000*%
%ADD18C,0.032000*%
%ADD19C,0.016000*%
%ADD20C,0.010000*%
%ADD21R,0.137800X0.063000*%
%ADD22R,0.181100X0.039400*%
%ADD23R,0.010000X0.060000*%
%ADD24R,0.060000X0.010000*%
%ADD25R,0.047200X0.019700*%
%ADD26R,0.027600X0.035400*%
%ADD27R,0.035400X0.027600*%
%ADD28R,0.025000X0.045000*%
%ADD29R,0.039400X0.039400*%
%ADD30R,0.059100X0.047200*%
%ADD31R,0.074800X0.043300*%
%ADD32R,0.033500X0.011000*%
%ADD33R,0.078700X0.039400*%
%ADD34R,0.098400X0.019700*%
%ADD35R,0.098400X0.078700*%
%ADD36R,0.094500X0.078700*%
%ADD37R,0.039400X0.055100*%
%ADD38C,0.006000*%
%ADD39C,0.012000*%
%ADD40C,0.005000*%
%ADD41C,0.001000*%
%ADD42R,0.080000X0.080000*%
%ADD43C,0.080000*%
%ADD44C,0.177500*%
%ADD45C,0.059400*%
%ADD46R,0.157800X0.083000*%
%ADD47R,0.201100X0.059400*%
%ADD48R,0.030000X0.080000*%
%ADD49R,0.080000X0.030000*%
%ADD50R,0.067200X0.039700*%
%ADD51R,0.047600X0.055400*%
%ADD52R,0.055400X0.047600*%
%ADD53R,0.045000X0.065000*%
%ADD54R,0.059400X0.059400*%
%ADD55R,0.079100X0.067200*%
%ADD56R,0.094800X0.063300*%
%ADD57R,0.053500X0.031000*%
%ADD58R,0.098700X0.059400*%
%ADD59R,0.118400X0.039700*%
%ADD60R,0.118400X0.098700*%
%ADD61R,0.114500X0.098700*%
%ADD62R,0.059400X0.075100*%
G04 APERTURE END LIST*
G54D10*
X49000Y-31000D02*
X11000Y-31000D01*
X11000Y-10000D02*
X49000Y-10000D01*
X50000Y-11000D02*
X50000Y-30000D01*
X10000Y-11000D02*
X10000Y-30000D01*
X10000Y-30000D02*
X10022Y-30208D01*
X10022Y-30208D02*
X10086Y-30407D01*
X10086Y-30407D02*
X10191Y-30588D01*
X10191Y-30588D02*
X10331Y-30743D01*
X10331Y-30743D02*
X10500Y-30866D01*
X10500Y-30866D02*
X10691Y-30951D01*
X10691Y-30951D02*
X10895Y-30995D01*
X10895Y-30995D02*
X11000Y-31000D01*
X49000Y-31000D02*
X49208Y-30978D01*
X49208Y-30978D02*
X49407Y-30914D01*
X49407Y-30914D02*
X49588Y-30809D01*
X49588Y-30809D02*
X49743Y-30669D01*
X49743Y-30669D02*
X49866Y-30500D01*
X49866Y-30500D02*
X49951Y-30309D01*
X49951Y-30309D02*
X49995Y-30105D01*
X49995Y-30105D02*
X50000Y-30000D01*
X50000Y-11000D02*
X49978Y-10792D01*
X49978Y-10792D02*
X49914Y-10593D01*
X49914Y-10593D02*
X49809Y-10412D01*
X49809Y-10412D02*
X49669Y-10257D01*
X49669Y-10257D02*
X49500Y-10134D01*
X49500Y-10134D02*
X49309Y-10049D01*
X49309Y-10049D02*
X49105Y-10005D01*
X49105Y-10005D02*
X49000Y-10000D01*
X11000Y-10000D02*
X10792Y-10022D01*
X10792Y-10022D02*
X10593Y-10086D01*
X10593Y-10086D02*
X10412Y-10191D01*
X10412Y-10191D02*
X10257Y-10331D01*
X10257Y-10331D02*
X10134Y-10500D01*
X10134Y-10500D02*
X10049Y-10691D01*
X10049Y-10691D02*
X10005Y-10895D01*
X10005Y-10895D02*
X10000Y-11000D01*
G54D11*
X10650Y-26250D03*
G54D12*
X10650Y-25250D03*
G54D11*
X20000Y-23000D03*
G54D12*
X19000Y-23000D03*
X20000Y-22000D03*
X19000Y-22000D03*
X20000Y-21000D03*
X19000Y-21000D03*
X20000Y-20000D03*
X19000Y-20000D03*
G54D11*
X19000Y-15000D03*
G54D12*
X20000Y-15000D03*
X19000Y-16000D03*
X20000Y-16000D03*
X19000Y-17000D03*
X20000Y-17000D03*
X19000Y-18000D03*
X20000Y-18000D03*
G54D11*
X22000Y-23000D03*
G54D12*
X22000Y-22000D03*
X22000Y-21000D03*
X22000Y-20000D03*
X22000Y-19000D03*
X22000Y-18000D03*
G54D13*
X14394Y-25750D03*
X13213Y-27600D03*
X12031Y-25867D03*
G54D21*
X11109Y-17239D03*
G54D22*
X13157Y-16294D03*
G54D21*
X11109Y-14561D03*
G54D22*
X13157Y-15506D03*
G54D23*
X24755Y-24825D03*
X24955Y-24825D03*
X25150Y-24825D03*
X25345Y-24825D03*
X25545Y-24825D03*
X25740Y-24825D03*
X25935Y-24825D03*
X26135Y-24825D03*
X26330Y-24825D03*
X26525Y-24825D03*
X26725Y-24825D03*
X26920Y-24825D03*
X27115Y-24825D03*
X27315Y-24825D03*
X27510Y-24825D03*
X27705Y-24825D03*
X27905Y-24825D03*
X28100Y-24825D03*
X28300Y-24825D03*
X28495Y-24825D03*
X28695Y-24825D03*
X28890Y-24825D03*
X29085Y-24825D03*
X29285Y-24825D03*
X29480Y-24825D03*
X29675Y-24825D03*
X29875Y-24825D03*
X30070Y-24825D03*
X30265Y-24825D03*
X30465Y-24825D03*
X30660Y-24825D03*
X30855Y-24825D03*
X31055Y-24825D03*
X31250Y-24825D03*
X31445Y-24825D03*
X31645Y-24825D03*
G54D24*
X32525Y-18235D03*
X32525Y-18040D03*
X32525Y-17845D03*
X32525Y-17645D03*
X32525Y-17450D03*
X32525Y-17255D03*
X32525Y-17055D03*
X23875Y-18040D03*
X23875Y-18235D03*
X23875Y-18435D03*
X23875Y-18630D03*
X23875Y-18825D03*
X23875Y-19025D03*
X23875Y-19220D03*
X23875Y-19415D03*
X23875Y-19615D03*
X23875Y-19810D03*
X23875Y-20005D03*
X23875Y-20205D03*
X23875Y-20400D03*
X23875Y-20600D03*
X23875Y-20795D03*
X23875Y-20995D03*
X23875Y-21190D03*
X23875Y-21385D03*
X23875Y-21585D03*
X23875Y-21780D03*
X23875Y-21975D03*
X23875Y-22175D03*
X23875Y-22370D03*
X23875Y-22565D03*
X23875Y-22765D03*
X23875Y-22960D03*
X23875Y-23155D03*
X23875Y-23355D03*
X23875Y-23550D03*
X23875Y-23745D03*
X23875Y-23945D03*
X32525Y-23945D03*
X32525Y-23745D03*
X32525Y-23550D03*
X32525Y-23355D03*
X32525Y-23155D03*
X32525Y-22960D03*
X32525Y-22765D03*
X32525Y-22565D03*
X32525Y-22370D03*
X32525Y-22175D03*
X32525Y-21975D03*
X32525Y-21780D03*
X32525Y-21585D03*
X32525Y-21385D03*
X32525Y-21190D03*
X32525Y-20995D03*
X32525Y-20795D03*
X32525Y-20600D03*
X32525Y-20400D03*
X32525Y-20205D03*
X32525Y-20005D03*
X32525Y-19810D03*
X32525Y-19615D03*
X32525Y-19415D03*
X32525Y-19220D03*
X32525Y-19025D03*
X32525Y-18825D03*
X32525Y-18630D03*
X32525Y-18435D03*
G54D23*
X30660Y-16175D03*
X30465Y-16175D03*
X30265Y-16175D03*
X30070Y-16175D03*
X29875Y-16175D03*
X29675Y-16175D03*
X29480Y-16175D03*
X29285Y-16175D03*
X29085Y-16175D03*
X28890Y-16175D03*
X28695Y-16175D03*
X28495Y-16175D03*
X28300Y-16175D03*
X28100Y-16175D03*
X27905Y-16175D03*
X27705Y-16175D03*
X27510Y-16175D03*
X27315Y-16175D03*
X27115Y-16175D03*
X26920Y-16175D03*
X26725Y-16175D03*
X26525Y-16175D03*
X26330Y-16175D03*
X26135Y-16175D03*
X25935Y-16175D03*
X25740Y-16175D03*
X25545Y-16175D03*
X25345Y-16175D03*
X25150Y-16175D03*
X24955Y-16175D03*
X24755Y-16175D03*
X31645Y-16175D03*
X31445Y-16175D03*
X31250Y-16175D03*
X31055Y-16175D03*
X30855Y-16175D03*
G54D24*
X23875Y-17055D03*
X23875Y-17255D03*
X23875Y-17450D03*
X23875Y-17645D03*
X23875Y-17845D03*
G54D25*
X38640Y-17050D03*
X38640Y-17365D03*
X38640Y-17680D03*
X38640Y-18000D03*
X38640Y-18320D03*
X38640Y-18640D03*
X38640Y-18960D03*
X38640Y-19280D03*
X38640Y-19600D03*
X38640Y-19920D03*
X38640Y-20240D03*
X38640Y-20560D03*
X38640Y-20880D03*
X38640Y-21200D03*
X38640Y-21520D03*
X38640Y-21840D03*
X38640Y-22160D03*
X38640Y-22480D03*
X38640Y-22800D03*
X38640Y-23120D03*
X38640Y-23440D03*
X38640Y-23760D03*
X42971Y-17050D03*
X42970Y-17370D03*
X42970Y-17690D03*
X42970Y-18010D03*
X42970Y-18330D03*
X42970Y-18650D03*
X42970Y-18970D03*
X42970Y-19290D03*
X42970Y-19610D03*
X42970Y-19930D03*
X42970Y-20250D03*
X42970Y-20570D03*
X42970Y-20890D03*
X42970Y-21210D03*
X42970Y-21530D03*
X42970Y-21850D03*
X42970Y-22170D03*
X42970Y-22490D03*
X42970Y-22810D03*
X42970Y-23130D03*
X42970Y-23450D03*
X42970Y-23770D03*
G54D26*
X41906Y-27950D03*
X41394Y-27950D03*
X41394Y-26750D03*
X41906Y-26750D03*
G54D27*
X26400Y-27006D03*
X26400Y-26494D03*
G54D26*
X29394Y-25500D03*
X29906Y-25500D03*
G54D27*
X37950Y-20394D03*
X37950Y-20906D03*
X43750Y-20044D03*
X43750Y-20556D03*
X37950Y-19206D03*
X37950Y-18694D03*
X33300Y-23644D03*
X33300Y-24156D03*
X33950Y-20894D03*
X33950Y-21406D03*
X33250Y-18944D03*
X33250Y-19456D03*
X32600Y-16706D03*
X32600Y-16194D03*
G54D26*
X27444Y-15250D03*
X27956Y-15250D03*
X24144Y-15450D03*
X24656Y-15450D03*
X29244Y-15300D03*
X29756Y-15300D03*
G54D27*
X23150Y-19606D03*
X23150Y-19094D03*
X22950Y-21356D03*
X22950Y-20844D03*
X23150Y-24106D03*
X23150Y-23594D03*
G54D26*
X31056Y-25500D03*
X30544Y-25500D03*
X15756Y-18100D03*
X15244Y-18100D03*
X15756Y-19900D03*
X15244Y-19900D03*
X15756Y-18700D03*
X15244Y-18700D03*
X15756Y-19300D03*
X15244Y-19300D03*
X15756Y-22900D03*
X15244Y-22900D03*
X15244Y-22300D03*
X15756Y-22300D03*
X15756Y-21100D03*
X15244Y-21100D03*
X15756Y-20500D03*
X15244Y-20500D03*
X15244Y-21700D03*
X15756Y-21700D03*
X15244Y-16900D03*
X15756Y-16900D03*
X15756Y-17500D03*
X15244Y-17500D03*
X16756Y-14650D03*
X16244Y-14650D03*
X16756Y-15250D03*
X16244Y-15250D03*
X11494Y-12250D03*
X12006Y-12250D03*
X16244Y-13450D03*
X16756Y-13450D03*
X16244Y-14050D03*
X16756Y-14050D03*
X16756Y-15850D03*
X16244Y-15850D03*
X10494Y-12250D03*
X11006Y-12250D03*
G54D28*
X19800Y-14100D03*
X19200Y-14100D03*
X19800Y-13400D03*
X19200Y-13400D03*
G54D29*
X40577Y-27335D03*
X40577Y-27965D03*
X38923Y-27965D03*
X38923Y-27335D03*
X40577Y-25785D03*
X40577Y-26415D03*
X38923Y-26415D03*
X38923Y-25785D03*
G54D30*
X12429Y-23250D03*
X13571Y-23250D03*
G54D31*
X27822Y-27003D03*
X29278Y-27003D03*
X29278Y-26097D03*
X27822Y-26097D03*
G54D32*
X10819Y-13006D03*
X10819Y-13203D03*
X10819Y-13400D03*
X10819Y-13597D03*
X10819Y-13794D03*
X11981Y-13006D03*
X11981Y-13203D03*
X11981Y-13400D03*
X11981Y-13597D03*
X11981Y-13794D03*
G54D33*
X19361Y-24900D03*
X18239Y-24900D03*
X21261Y-27050D03*
X20139Y-27050D03*
X33011Y-26600D03*
X31889Y-26600D03*
G54D34*
X13084Y-19670D03*
G54D35*
X10919Y-22072D03*
X10919Y-18528D03*
X13084Y-18528D03*
G54D36*
X13084Y-22072D03*
G54D34*
X13084Y-19985D03*
X13084Y-20300D03*
X13084Y-20615D03*
X13084Y-20930D03*
G54D14*
X12100Y-19247D03*
X12100Y-21353D03*
G54D37*
X17100Y-21967D03*
X17474Y-22833D03*
X16725Y-22833D03*
X17100Y-21133D03*
X16726Y-20267D03*
X17475Y-20267D03*
X18800Y-26217D03*
X19174Y-27083D03*
X18425Y-27083D03*
X30450Y-26117D03*
X30824Y-26983D03*
X30075Y-26983D03*
G54D11*
X46000Y-30000D03*
G54D12*
X38000Y-30000D03*
X45000Y-30000D03*
X37000Y-30000D03*
X44000Y-30000D03*
X36000Y-30000D03*
X43000Y-30000D03*
X35000Y-30000D03*
X42000Y-30000D03*
X34000Y-30000D03*
X41000Y-30000D03*
X33000Y-30000D03*
X40000Y-30000D03*
X32000Y-30000D03*
X39000Y-30000D03*
X31000Y-30000D03*
X30000Y-30000D03*
X29000Y-30000D03*
X28000Y-30000D03*
X27000Y-30000D03*
X26000Y-30000D03*
X25000Y-30000D03*
X24000Y-30000D03*
X23000Y-30000D03*
X22000Y-30000D03*
X21000Y-30000D03*
X20000Y-30000D03*
X19000Y-30000D03*
X18000Y-30000D03*
X17000Y-30000D03*
X16000Y-30000D03*
X15000Y-30000D03*
G54D11*
X49000Y-27982D03*
G54D12*
X48000Y-27982D03*
X49000Y-26982D03*
X48000Y-26982D03*
X49000Y-25982D03*
X48000Y-25982D03*
X49000Y-24982D03*
X48000Y-24982D03*
X49000Y-23982D03*
X48000Y-23982D03*
X49000Y-22982D03*
X48000Y-22982D03*
X49000Y-21982D03*
X48000Y-21982D03*
X49000Y-20982D03*
X48000Y-20982D03*
X49000Y-19982D03*
X48000Y-19982D03*
X49000Y-18982D03*
X48000Y-18982D03*
X49000Y-17982D03*
X48000Y-17982D03*
X49000Y-16982D03*
X48000Y-16982D03*
X49000Y-15982D03*
X48000Y-15982D03*
X49000Y-14982D03*
X48000Y-14982D03*
X49000Y-13982D03*
X48000Y-13982D03*
X49000Y-12982D03*
X48000Y-12982D03*
G54D11*
X47050Y-28000D03*
G54D12*
X47050Y-20000D03*
X47050Y-27000D03*
X47050Y-19000D03*
X47050Y-26000D03*
X47050Y-18000D03*
X47050Y-25000D03*
X47050Y-17000D03*
X47050Y-24000D03*
X47050Y-16000D03*
X47050Y-23000D03*
X47050Y-15000D03*
X47050Y-22000D03*
X47050Y-14000D03*
X47050Y-21000D03*
X47050Y-13000D03*
G54D11*
X46000Y-11000D03*
G54D12*
X38000Y-11000D03*
X45000Y-11000D03*
X37000Y-11000D03*
X44000Y-11000D03*
X36000Y-11000D03*
X43000Y-11000D03*
X35000Y-11000D03*
X42000Y-11000D03*
X34000Y-11000D03*
X41000Y-11000D03*
X33000Y-11000D03*
X40000Y-11000D03*
X32000Y-11000D03*
X39000Y-11000D03*
X31000Y-11000D03*
X30000Y-11000D03*
X29000Y-11000D03*
X28000Y-11000D03*
X27000Y-11000D03*
X26000Y-11000D03*
X25000Y-11000D03*
X24000Y-11000D03*
X23000Y-11000D03*
X22000Y-11000D03*
X21000Y-11000D03*
X20000Y-11000D03*
X19000Y-11000D03*
X18000Y-11000D03*
X17000Y-11000D03*
X16000Y-11000D03*
X15000Y-11000D03*
G54D26*
X16756Y-12850D03*
X16244Y-12850D03*
G54D28*
X15550Y-12650D03*
X14950Y-12650D03*
G54D15*
X15800Y-15850D03*
X14750Y-18100D03*
X14500Y-16350D03*
X31550Y-19150D03*
X33250Y-15950D03*
X29200Y-14700D03*
X28350Y-15350D03*
X23150Y-23200D03*
X12650Y-12250D03*
X18100Y-22850D03*
X14450Y-20950D03*
X23150Y-18700D03*
X22950Y-20450D03*
X25100Y-15600D03*
X22100Y-27050D03*
X18400Y-27650D03*
X20050Y-24900D03*
X31750Y-21450D03*
X31650Y-23350D03*
X25700Y-27000D03*
X29900Y-26200D03*
G54D16*
X34300Y-26500D03*
G54D15*
X30950Y-26000D03*
X41150Y-27350D03*
X38350Y-28000D03*
X46250Y-20450D03*
X42350Y-20550D03*
X37750Y-21350D03*
X31350Y-22150D03*
X11400Y-13400D03*
X14550Y-12650D03*
X39750Y-27650D03*
X29350Y-24200D03*
X28050Y-20200D03*
X29300Y-22100D03*
X23350Y-16800D03*
X23000Y-17100D03*
X22600Y-16300D03*
X31450Y-18750D03*
X24900Y-24150D03*
G54D16*
X19700Y-27800D03*
G54D15*
X31650Y-22950D03*
X34450Y-21050D03*
X28450Y-25500D03*
X41100Y-25950D03*
X42450Y-27850D03*
X38400Y-26750D03*
X23650Y-15450D03*
X20400Y-13350D03*
X22750Y-21750D03*
X23150Y-24500D03*
X14450Y-22350D03*
X18000Y-21150D03*
X31500Y-15500D03*
X27450Y-14500D03*
X28850Y-15300D03*
X46050Y-19700D03*
X42100Y-20200D03*
X22650Y-19600D03*
X37400Y-21150D03*
G54D16*
X17600Y-23800D03*
X19500Y-26250D03*
X31000Y-26400D03*
G54D15*
X17250Y-14900D03*
X12550Y-13800D03*
X13150Y-14900D03*
X17700Y-14450D03*
X17700Y-13300D03*
X14850Y-21700D03*
X14000Y-19600D03*
X14350Y-23200D03*
X45250Y-25650D03*
X37950Y-25450D03*
X37800Y-25100D03*
X37650Y-24750D03*
X37500Y-24400D03*
X25400Y-24000D03*
X25300Y-23650D03*
X24850Y-23500D03*
X40850Y-24000D03*
X42500Y-23800D03*
X35950Y-24050D03*
X37400Y-24000D03*
X28100Y-23700D03*
X28100Y-23350D03*
X28000Y-23000D03*
X28000Y-22650D03*
X27950Y-22300D03*
X32000Y-12300D03*
X30300Y-22150D03*
X31000Y-12300D03*
X30300Y-22550D03*
X30300Y-22950D03*
X30000Y-12300D03*
X30500Y-23400D03*
X29000Y-12300D03*
G54D16*
X31450Y-26050D03*
G54D15*
X41250Y-18100D03*
X33800Y-18050D03*
X41250Y-17700D03*
X33600Y-17700D03*
X46000Y-20800D03*
X46200Y-17000D03*
X43750Y-15100D03*
X34500Y-16050D03*
X38500Y-15350D03*
X33850Y-14800D03*
X39250Y-25050D03*
X41150Y-21300D03*
X37700Y-15350D03*
X33700Y-15250D03*
X38750Y-25050D03*
X40800Y-21100D03*
X25800Y-17550D03*
X28300Y-14400D03*
X34800Y-20100D03*
X37550Y-19950D03*
X38000Y-20000D03*
X25800Y-18000D03*
X28300Y-14800D03*
X34750Y-20450D03*
X26300Y-18450D03*
X22900Y-28800D03*
X26050Y-18700D03*
X22500Y-28800D03*
X43950Y-22800D03*
X31550Y-13150D03*
X25100Y-19000D03*
X28250Y-13500D03*
X37400Y-15950D03*
X46000Y-18800D03*
X43450Y-19000D03*
X41000Y-22050D03*
X31450Y-20150D03*
X29200Y-18200D03*
X28100Y-18150D03*
X40100Y-22200D03*
X22100Y-28800D03*
X26250Y-19650D03*
X31900Y-12850D03*
X37950Y-15950D03*
X21350Y-15250D03*
X24050Y-14650D03*
X37550Y-18650D03*
X26200Y-14450D03*
X28000Y-13200D03*
X28300Y-13950D03*
X31300Y-13500D03*
X25250Y-19900D03*
X25600Y-20100D03*
X29100Y-14250D03*
X30800Y-14250D03*
X26050Y-19950D03*
X25950Y-20600D03*
X25750Y-20950D03*
X25500Y-21200D03*
X24500Y-21500D03*
X24950Y-22650D03*
X32450Y-29100D03*
X28050Y-21600D03*
X33450Y-29100D03*
X28000Y-20550D03*
X33100Y-29250D03*
X27950Y-20900D03*
X32700Y-29350D03*
X28000Y-21250D03*
X32250Y-29400D03*
X28000Y-21950D03*
X43950Y-22150D03*
X44200Y-26400D03*
X43700Y-22500D03*
X43900Y-25950D03*
X29450Y-21650D03*
X28700Y-12600D03*
X29350Y-21200D03*
X28450Y-12850D03*
X37250Y-28400D03*
X33200Y-22500D03*
X31800Y-22200D03*
X37000Y-28700D03*
X29150Y-23850D03*
X34800Y-21250D03*
X42500Y-23450D03*
X34750Y-20800D03*
X42500Y-23100D03*
X42300Y-18600D03*
X33900Y-20250D03*
X34150Y-19950D03*
X42300Y-18200D03*
X34300Y-19500D03*
X42300Y-17750D03*
X42300Y-17350D03*
X33950Y-19350D03*
X39300Y-20900D03*
X31850Y-20050D03*
X31550Y-19800D03*
X39600Y-21200D03*
X46100Y-21350D03*
X31350Y-19450D03*
X39950Y-21500D03*
X31950Y-18700D03*
X40250Y-21850D03*
X41250Y-18900D03*
X33850Y-18650D03*
X33600Y-18350D03*
X41250Y-18500D03*
X43782Y-16618D03*
X43900Y-21500D03*
X32150Y-14550D03*
X43922Y-16178D03*
X31450Y-14400D03*
X44250Y-21850D03*
X41000Y-22450D03*
X31000Y-14550D03*
X42300Y-16750D03*
X30600Y-14550D03*
X45200Y-27150D03*
X30700Y-16750D03*
X43450Y-18650D03*
X39400Y-18550D03*
X30700Y-17100D03*
X30750Y-17500D03*
X39400Y-18950D03*
X45650Y-25200D03*
X45850Y-16100D03*
X40150Y-23750D03*
X31350Y-20550D03*
X45550Y-16400D03*
X39850Y-23450D03*
X31850Y-20850D03*
X45750Y-16750D03*
X31450Y-21150D03*
X39550Y-23150D03*
X45700Y-17100D03*
X31350Y-21600D03*
X39300Y-22850D03*
X28100Y-17200D03*
X27700Y-17200D03*
X27300Y-17200D03*
X26250Y-15250D03*
X25900Y-15150D03*
X25550Y-15250D03*
X22300Y-14950D03*
X16250Y-18100D03*
X22600Y-16800D03*
X21000Y-17400D03*
X31950Y-18350D03*
X31650Y-18150D03*
X31350Y-17950D03*
X31050Y-17750D03*
X43700Y-21200D03*
X43650Y-17050D03*
X31850Y-14950D03*
X10400Y-13300D03*
X12850Y-14200D03*
G54D17*
X38640Y-20560D02*
X38296Y-20560D01*
X38296Y-20560D02*
X37950Y-20906D01*
X16244Y-15850D02*
X15800Y-15850D01*
G54D19*
X15244Y-18100D02*
X14750Y-18100D01*
G54D18*
X14444Y-16294D02*
X14500Y-16350D01*
X14444Y-16294D02*
X13157Y-16294D01*
G54D17*
X32525Y-23745D02*
X32889Y-23745D01*
X32889Y-23745D02*
X33300Y-24156D01*
X31620Y-19220D02*
X31550Y-19150D01*
X32525Y-19220D02*
X31620Y-19220D01*
X32525Y-19220D02*
X33014Y-19220D01*
X33014Y-19220D02*
X33250Y-19456D01*
X32600Y-16194D02*
X33006Y-16194D01*
X33006Y-16194D02*
X33250Y-15950D01*
X32525Y-17255D02*
X32895Y-17255D01*
X33150Y-16744D02*
X32600Y-16194D01*
X33150Y-16744D02*
X33150Y-17000D01*
X32895Y-17255D02*
X33150Y-17000D01*
X29756Y-15300D02*
X29756Y-15006D01*
X29756Y-15006D02*
X29450Y-14700D01*
X29450Y-14700D02*
X29200Y-14700D01*
X29675Y-16175D02*
X29675Y-15381D01*
X29675Y-15381D02*
X29756Y-15300D01*
X28250Y-15250D02*
X28350Y-15350D01*
X27956Y-15250D02*
X28250Y-15250D01*
X27510Y-16175D02*
X27510Y-15696D01*
X27510Y-15696D02*
X27956Y-15250D01*
X23150Y-19094D02*
X23150Y-18700D01*
X23875Y-19220D02*
X23276Y-19220D01*
X23276Y-19220D02*
X23150Y-19094D01*
X23150Y-23594D02*
X23150Y-23200D01*
X23875Y-23745D02*
X23301Y-23745D01*
X23301Y-23745D02*
X23150Y-23594D01*
G54D19*
X12006Y-12250D02*
X12650Y-12250D01*
X17474Y-22833D02*
X18083Y-22833D01*
X18083Y-22833D02*
X18100Y-22850D01*
X13084Y-20930D02*
X14430Y-20930D01*
X14430Y-20930D02*
X14450Y-20950D01*
X14450Y-20950D02*
X14430Y-20930D01*
X16244Y-15250D02*
X16244Y-15850D01*
X15244Y-17500D02*
X15244Y-18100D01*
X14430Y-20930D02*
X14450Y-20950D01*
X14450Y-20950D02*
X14500Y-21000D01*
X14500Y-21000D02*
X15144Y-21000D01*
X15144Y-21000D02*
X15244Y-21100D01*
X15244Y-19900D02*
X15000Y-19900D01*
X15000Y-19900D02*
X14500Y-20400D01*
X14500Y-20400D02*
X14500Y-21000D01*
G54D20*
X11981Y-13006D02*
X11981Y-12275D01*
X11981Y-12275D02*
X12006Y-12250D01*
G54D17*
X33734Y-21190D02*
X33950Y-21406D01*
X32525Y-21190D02*
X33734Y-21190D01*
X22950Y-20844D02*
X23144Y-20844D01*
X23490Y-21190D02*
X23875Y-21190D01*
X23144Y-20844D02*
X23490Y-21190D01*
X22950Y-20844D02*
X22950Y-20450D01*
X24955Y-16175D02*
X24955Y-15745D01*
X24955Y-15745D02*
X25100Y-15600D01*
X24950Y-15450D02*
X25100Y-15600D01*
X24950Y-15450D02*
X24656Y-15450D01*
X30660Y-24825D02*
X30465Y-24825D01*
X30465Y-24825D02*
X30465Y-25421D01*
X30465Y-25421D02*
X30544Y-25500D01*
G54D19*
X21261Y-27050D02*
X22100Y-27050D01*
X18425Y-27083D02*
X18425Y-27625D01*
X18425Y-27625D02*
X18400Y-27650D01*
X19361Y-24900D02*
X20050Y-24900D01*
G54D17*
X32525Y-23745D02*
X32115Y-23745D01*
X32010Y-21190D02*
X32160Y-21190D01*
X31750Y-21450D02*
X32010Y-21190D01*
X32160Y-21190D02*
X32525Y-21190D01*
X31650Y-23280D02*
X31650Y-23350D01*
X32115Y-23745D02*
X31650Y-23280D01*
X26400Y-26494D02*
X26206Y-26494D01*
X26206Y-26494D02*
X25700Y-27000D01*
X27705Y-24825D02*
X27705Y-25375D01*
X26586Y-26494D02*
X26400Y-26494D01*
X27705Y-25375D02*
X26586Y-26494D01*
G54D19*
X29906Y-25500D02*
X29906Y-26194D01*
X29906Y-26194D02*
X29900Y-26200D01*
X30075Y-26375D02*
X29900Y-26200D01*
X30075Y-26375D02*
X30075Y-26983D01*
G54D18*
X33011Y-26600D02*
X34200Y-26600D01*
X34200Y-26600D02*
X34300Y-26500D01*
G54D17*
X30800Y-25850D02*
X30950Y-26000D01*
X30800Y-25750D02*
X30800Y-25850D01*
X30550Y-25500D02*
X30800Y-25750D01*
X30544Y-25500D02*
X30550Y-25500D01*
X40577Y-27335D02*
X41135Y-27335D01*
X41135Y-27335D02*
X41150Y-27350D01*
X38923Y-27965D02*
X38385Y-27965D01*
X38385Y-27965D02*
X38350Y-28000D01*
X41150Y-27350D02*
X41150Y-26994D01*
X41150Y-26994D02*
X41394Y-26750D01*
X42970Y-20570D02*
X43736Y-20570D01*
X43736Y-20570D02*
X43750Y-20556D01*
X43750Y-20556D02*
X45744Y-20556D01*
X45744Y-20556D02*
X45850Y-20450D01*
X45850Y-20450D02*
X46250Y-20450D01*
X42970Y-20570D02*
X42370Y-20570D01*
X42370Y-20570D02*
X42350Y-20550D01*
X37950Y-20906D02*
X37950Y-21150D01*
X37950Y-21150D02*
X37750Y-21350D01*
X32525Y-21780D02*
X32050Y-21780D01*
X31430Y-22150D02*
X31350Y-22150D01*
X31668Y-21912D02*
X31430Y-22150D01*
X31918Y-21912D02*
X31668Y-21912D01*
X32050Y-21780D02*
X31918Y-21912D01*
X11981Y-13006D02*
X11544Y-13006D01*
X11400Y-13150D02*
X11400Y-13400D01*
X11544Y-13006D02*
X11400Y-13150D01*
X14950Y-12650D02*
X14550Y-12650D01*
G54D18*
X10650Y-25029D02*
X11115Y-24564D01*
X11115Y-24564D02*
X12429Y-23250D01*
X11115Y-24564D02*
X13208Y-24564D01*
X13208Y-24564D02*
X14394Y-25750D01*
X10650Y-25250D02*
X10650Y-25029D01*
G54D17*
X20000Y-23000D02*
X19550Y-23450D01*
X18400Y-20600D02*
X19000Y-20000D01*
X18400Y-23150D02*
X18400Y-20600D01*
X18750Y-23500D02*
X18400Y-23150D01*
X19500Y-23500D02*
X18750Y-23500D01*
X19550Y-23450D02*
X19500Y-23500D01*
X20000Y-23000D02*
X22000Y-23000D01*
X22000Y-23000D02*
X22200Y-23000D01*
X23225Y-21975D02*
X23875Y-21975D01*
X22200Y-23000D02*
X23225Y-21975D01*
X29480Y-24825D02*
X29480Y-24330D01*
X29480Y-24330D02*
X29350Y-24200D01*
X39435Y-27335D02*
X38923Y-27335D01*
X39750Y-27650D02*
X39435Y-27335D01*
X39750Y-27650D02*
X39750Y-27700D01*
X40015Y-27965D02*
X40577Y-27965D01*
X39750Y-27700D02*
X40015Y-27965D01*
X40577Y-27965D02*
X41379Y-27965D01*
X41379Y-27965D02*
X41394Y-27950D01*
X23875Y-21975D02*
X24445Y-21975D01*
X26337Y-21713D02*
X26056Y-21713D01*
X27850Y-20200D02*
X26337Y-21713D01*
X28050Y-20200D02*
X27850Y-20200D01*
X29350Y-24100D02*
X29450Y-24000D01*
X29450Y-24000D02*
X29450Y-23650D01*
X29450Y-23650D02*
X29300Y-23500D01*
X29300Y-23500D02*
X29300Y-22100D01*
X29350Y-24100D02*
X29350Y-24200D01*
X24445Y-21975D02*
X24707Y-21713D01*
X24707Y-21713D02*
X26056Y-21713D01*
X23875Y-17055D02*
X23605Y-17055D01*
X23605Y-17055D02*
X23350Y-16800D01*
X19000Y-22000D02*
X19450Y-22450D01*
X23190Y-21780D02*
X23875Y-21780D01*
X22470Y-22500D02*
X23190Y-21780D01*
X22200Y-22500D02*
X22470Y-22500D01*
X19450Y-22450D02*
X19500Y-22500D01*
X19500Y-22500D02*
X21100Y-22500D01*
X21100Y-22500D02*
X22200Y-22500D01*
X23875Y-17255D02*
X23155Y-17255D01*
X23155Y-17255D02*
X23000Y-17100D01*
X25345Y-16175D02*
X25345Y-16604D01*
X24512Y-16638D02*
X25311Y-16638D01*
X24174Y-16300D02*
X24512Y-16638D01*
X22600Y-16300D02*
X24174Y-16300D01*
X25311Y-16638D02*
X25345Y-16604D01*
X38640Y-20240D02*
X38104Y-20240D01*
X38104Y-20240D02*
X37950Y-20394D01*
X32525Y-23550D02*
X33206Y-23550D01*
X33206Y-23550D02*
X33300Y-23644D01*
X31875Y-19025D02*
X32525Y-19025D01*
X31875Y-19025D02*
X31600Y-18750D01*
X31600Y-18750D02*
X31450Y-18750D01*
X32525Y-19025D02*
X33169Y-19025D01*
X33169Y-19025D02*
X33250Y-18944D01*
X32525Y-17055D02*
X32525Y-16781D01*
X32525Y-16781D02*
X32600Y-16706D01*
X29480Y-16175D02*
X29480Y-15536D01*
X29480Y-15536D02*
X29244Y-15300D01*
X27315Y-16175D02*
X27315Y-15379D01*
X27315Y-15379D02*
X27444Y-15250D01*
X23875Y-19415D02*
X23341Y-19415D01*
X23341Y-19415D02*
X23150Y-19606D01*
X23875Y-23945D02*
X23311Y-23945D01*
X23311Y-23945D02*
X23150Y-24106D01*
X32525Y-20995D02*
X33849Y-20995D01*
X33849Y-20995D02*
X33950Y-20894D01*
X23875Y-21385D02*
X22979Y-21385D01*
X22979Y-21385D02*
X22950Y-21356D01*
X24755Y-16175D02*
X24755Y-16061D01*
X24755Y-16061D02*
X24144Y-15450D01*
X25740Y-24825D02*
X25740Y-24390D01*
X24950Y-24200D02*
X24900Y-24150D01*
X25740Y-24390D02*
X25650Y-24300D01*
X25650Y-24300D02*
X25050Y-24300D01*
X25050Y-24300D02*
X24950Y-24200D01*
G54D18*
X19174Y-27083D02*
X20106Y-27083D01*
X20106Y-27083D02*
X20139Y-27050D01*
X20139Y-27050D02*
X20139Y-27361D01*
X20139Y-27361D02*
X19700Y-27800D01*
G54D17*
X32525Y-23550D02*
X32150Y-23550D01*
X32000Y-23200D02*
X31650Y-22950D01*
X32000Y-23400D02*
X32000Y-23200D01*
X32150Y-23550D02*
X32000Y-23400D01*
X33950Y-20894D02*
X34294Y-20894D01*
X34294Y-20894D02*
X34450Y-21050D01*
X27905Y-24825D02*
X27905Y-25255D01*
X28150Y-25500D02*
X28450Y-25500D01*
X27905Y-25255D02*
X28150Y-25500D01*
X41906Y-27950D02*
X42350Y-27950D01*
X41100Y-25950D02*
X40935Y-25785D01*
X40935Y-25785D02*
X40577Y-25785D01*
X42350Y-27950D02*
X42450Y-27850D01*
X38415Y-26765D02*
X38400Y-26750D01*
X19800Y-14100D02*
X19800Y-13400D01*
X19800Y-13400D02*
X20350Y-13400D01*
X23650Y-15450D02*
X24144Y-15450D01*
X20350Y-13400D02*
X20400Y-13350D01*
X22950Y-21356D02*
X22950Y-21550D01*
X22950Y-21550D02*
X22750Y-21750D01*
X23150Y-24106D02*
X23150Y-24500D01*
X15244Y-22300D02*
X14500Y-22300D01*
X14500Y-22300D02*
X14450Y-22350D01*
G54D19*
X17100Y-21133D02*
X17983Y-21133D01*
X17983Y-21133D02*
X18000Y-21150D01*
G54D17*
X32600Y-16706D02*
X32256Y-16706D01*
X32256Y-16706D02*
X32100Y-16550D01*
X32100Y-16550D02*
X32100Y-15850D01*
X32100Y-15850D02*
X31750Y-15500D01*
X31750Y-15500D02*
X31500Y-15500D01*
X27444Y-14506D02*
X27444Y-15250D01*
X27450Y-14500D02*
X27444Y-14506D01*
X29244Y-15300D02*
X28850Y-15300D01*
X42970Y-20250D02*
X43544Y-20250D01*
X43544Y-20250D02*
X43750Y-20044D01*
X43750Y-20044D02*
X45706Y-20044D01*
X45706Y-20044D02*
X46050Y-19700D01*
X42150Y-20250D02*
X42970Y-20250D01*
X42100Y-20200D02*
X42150Y-20250D01*
X23150Y-19606D02*
X22656Y-19606D01*
X22656Y-19606D02*
X22650Y-19600D01*
X37950Y-20394D02*
X37806Y-20394D01*
X37400Y-20800D02*
X37400Y-21150D01*
X37806Y-20394D02*
X37400Y-20800D01*
X37950Y-19206D02*
X37506Y-19206D01*
X37208Y-20608D02*
X37400Y-20800D01*
X37208Y-19504D02*
X37208Y-20608D01*
X37506Y-19206D02*
X37208Y-19504D01*
X38400Y-26750D02*
X38588Y-26750D01*
X38588Y-26750D02*
X38923Y-26415D01*
G54D18*
X19000Y-18000D02*
X19050Y-18000D01*
X21350Y-18650D02*
X22000Y-18000D01*
X19700Y-18650D02*
X21350Y-18650D01*
X19050Y-18000D02*
X19700Y-18650D01*
G54D17*
X16756Y-15850D02*
X18850Y-15850D01*
X18850Y-15850D02*
X19000Y-16000D01*
G54D18*
X18239Y-24439D02*
X17600Y-23800D01*
X18239Y-24439D02*
X18239Y-24900D01*
X18239Y-24900D02*
X18239Y-25656D01*
X18239Y-25656D02*
X18800Y-26217D01*
X30450Y-26117D02*
X30517Y-26117D01*
X19467Y-26217D02*
X18800Y-26217D01*
X19500Y-26250D02*
X19467Y-26217D01*
X30800Y-26400D02*
X31000Y-26400D01*
X30517Y-26117D02*
X30800Y-26400D01*
G54D17*
X16950Y-15850D02*
X16756Y-15850D01*
G54D18*
X16756Y-14650D02*
X17000Y-14650D01*
X17000Y-14650D02*
X17250Y-14900D01*
G54D17*
X12544Y-13794D02*
X12550Y-13800D01*
X11981Y-13794D02*
X12544Y-13794D01*
X11981Y-13597D02*
X11981Y-13794D01*
X10194Y-13494D02*
X10100Y-13400D01*
X10819Y-13597D02*
X10297Y-13597D01*
X10297Y-13597D02*
X10194Y-13494D01*
X10250Y-12250D02*
X10494Y-12250D01*
X10100Y-12400D02*
X10250Y-12250D01*
X10100Y-13400D02*
X10100Y-12400D01*
X10819Y-13794D02*
X10844Y-13794D01*
X12300Y-14050D02*
X13150Y-14900D01*
X11100Y-14050D02*
X12300Y-14050D01*
X10844Y-13794D02*
X11100Y-14050D01*
G54D18*
X13157Y-15506D02*
X13157Y-14907D01*
X13157Y-14907D02*
X13150Y-14900D01*
X17700Y-14450D02*
X17700Y-13300D01*
G54D17*
X10819Y-13794D02*
X10819Y-13597D01*
X15244Y-16900D02*
X15244Y-16706D01*
X19500Y-16500D02*
X20000Y-17000D01*
X15450Y-16500D02*
X19500Y-16500D01*
X15244Y-16706D02*
X15450Y-16500D01*
G54D19*
X13430Y-19670D02*
X14000Y-19100D01*
X13084Y-19670D02*
X13430Y-19670D01*
X14500Y-16900D02*
X15244Y-16900D01*
X14000Y-19100D02*
X14000Y-17400D01*
X14000Y-17400D02*
X14500Y-16900D01*
X13084Y-19670D02*
X13930Y-19670D01*
X14850Y-21700D02*
X15244Y-21700D01*
X13930Y-19670D02*
X14000Y-19600D01*
G54D18*
X14300Y-23250D02*
X14350Y-23200D01*
X13571Y-23250D02*
X14300Y-23250D01*
G54D17*
X24755Y-24825D02*
X24755Y-25145D01*
X32076Y-29074D02*
X32162Y-28988D01*
X28974Y-29074D02*
X32076Y-29074D01*
X28888Y-28988D02*
X28974Y-29074D01*
X24182Y-28988D02*
X28888Y-28988D01*
X24755Y-25145D02*
X23250Y-26650D01*
X23250Y-26650D02*
X23250Y-28056D01*
X23250Y-28056D02*
X24182Y-28988D01*
X32162Y-28988D02*
X32550Y-28600D01*
X32550Y-28600D02*
X36400Y-28600D01*
X36400Y-28600D02*
X37862Y-27138D01*
X37862Y-27138D02*
X37862Y-26000D01*
X44950Y-25350D02*
X45250Y-25650D01*
X38450Y-25350D02*
X44950Y-25350D01*
X37862Y-25938D02*
X38450Y-25350D01*
X37862Y-25938D02*
X37862Y-26000D01*
X37862Y-26000D02*
X37862Y-25988D01*
X24955Y-25175D02*
X24830Y-25300D01*
X32098Y-28822D02*
X32008Y-28912D01*
X29052Y-28912D02*
X32008Y-28912D01*
X28966Y-28826D02*
X29052Y-28912D01*
X24258Y-28826D02*
X28966Y-28826D01*
X23412Y-27980D02*
X24258Y-28826D01*
X23412Y-26718D02*
X23412Y-27980D01*
X24830Y-25300D02*
X23412Y-26718D01*
X24955Y-25175D02*
X24955Y-24825D01*
X37700Y-25700D02*
X37950Y-25450D01*
X37700Y-25700D02*
X37700Y-27070D01*
X36332Y-28438D02*
X37700Y-27070D01*
X32833Y-28438D02*
X36332Y-28438D01*
X32094Y-28826D02*
X32098Y-28822D01*
X32098Y-28822D02*
X32482Y-28438D01*
X32482Y-28438D02*
X32833Y-28438D01*
X25150Y-24825D02*
X25150Y-25250D01*
X31940Y-28750D02*
X32037Y-28653D01*
X29120Y-28750D02*
X31940Y-28750D01*
X29034Y-28664D02*
X29120Y-28750D01*
X24326Y-28664D02*
X29034Y-28664D01*
X24306Y-28644D02*
X24326Y-28664D01*
X23574Y-27912D02*
X24306Y-28644D01*
X23574Y-26826D02*
X23574Y-27912D01*
X23574Y-26826D02*
X25150Y-25250D01*
X32414Y-28276D02*
X32037Y-28653D01*
X32037Y-28653D02*
X32026Y-28664D01*
X32766Y-28276D02*
X32414Y-28276D01*
X32766Y-28276D02*
X36264Y-28276D01*
X36264Y-28276D02*
X37532Y-27008D01*
X37532Y-25368D02*
X37532Y-27008D01*
X37532Y-25368D02*
X37800Y-25100D01*
X32336Y-28114D02*
X32698Y-28114D01*
X31948Y-28502D02*
X31953Y-28497D01*
X31953Y-28497D02*
X32336Y-28114D01*
X23736Y-27844D02*
X24394Y-28502D01*
X31953Y-28497D02*
X31953Y-28507D01*
X31876Y-28584D02*
X31953Y-28507D01*
X29184Y-28584D02*
X31876Y-28584D01*
X29102Y-28502D02*
X29184Y-28584D01*
X24394Y-28502D02*
X29102Y-28502D01*
X25345Y-25285D02*
X25345Y-24825D01*
X25345Y-25285D02*
X23736Y-26894D01*
X23736Y-26894D02*
X23736Y-27844D01*
X32698Y-28114D02*
X36196Y-28114D01*
X36196Y-28114D02*
X37370Y-26940D01*
X37370Y-25030D02*
X37370Y-26940D01*
X37370Y-25030D02*
X37650Y-24750D01*
X31798Y-28422D02*
X31880Y-28340D01*
X29252Y-28422D02*
X31798Y-28422D01*
X29169Y-28339D02*
X29252Y-28422D01*
X24461Y-28339D02*
X29169Y-28339D01*
X37208Y-24692D02*
X37500Y-24400D01*
X37208Y-24692D02*
X37208Y-26872D01*
X36128Y-27952D02*
X37208Y-26872D01*
X32630Y-27952D02*
X36128Y-27952D01*
X31880Y-28340D02*
X32268Y-27952D01*
X32268Y-27952D02*
X32630Y-27952D01*
X23898Y-27776D02*
X24461Y-28339D01*
X24461Y-28339D02*
X24462Y-28340D01*
X23898Y-26962D02*
X23898Y-27776D01*
X25545Y-25315D02*
X23898Y-26962D01*
X25545Y-24825D02*
X25545Y-25315D01*
X25600Y-24000D02*
X25400Y-24000D01*
X25935Y-24335D02*
X25600Y-24000D01*
X25935Y-24825D02*
X25935Y-24335D01*
X26135Y-24285D02*
X25500Y-23650D01*
X26135Y-24285D02*
X26135Y-24825D01*
X25500Y-23650D02*
X25300Y-23650D01*
X25000Y-23350D02*
X24850Y-23500D01*
X25450Y-23350D02*
X25000Y-23350D01*
X26330Y-24230D02*
X25450Y-23350D01*
X26330Y-24825D02*
X26330Y-24230D01*
X16756Y-12850D02*
X16756Y-11244D01*
X16756Y-11244D02*
X17000Y-11000D01*
X36060Y-27790D02*
X37046Y-26804D01*
X31731Y-28260D02*
X31813Y-28178D01*
X29320Y-28260D02*
X31731Y-28260D01*
X29238Y-28178D02*
X29320Y-28260D01*
X24538Y-28178D02*
X29238Y-28178D01*
X32560Y-27790D02*
X36060Y-27790D01*
X38640Y-18320D02*
X37380Y-18320D01*
X37046Y-18654D02*
X37380Y-18320D01*
X37046Y-18654D02*
X37046Y-26804D01*
X26525Y-25175D02*
X26525Y-24825D01*
X26435Y-25265D02*
X26525Y-25175D01*
X25825Y-25265D02*
X26435Y-25265D01*
X25825Y-25265D02*
X24067Y-27023D01*
X24067Y-27023D02*
X24067Y-27707D01*
X24530Y-28170D02*
X24538Y-28178D01*
X24067Y-27707D02*
X24530Y-28170D01*
X31813Y-28178D02*
X32201Y-27790D01*
X32201Y-27790D02*
X32560Y-27790D01*
X46064Y-27964D02*
X46575Y-28475D01*
X41538Y-24188D02*
X41552Y-24202D01*
X41538Y-22742D02*
X41538Y-24188D01*
X41852Y-22428D02*
X41538Y-22742D01*
X41852Y-21380D02*
X41852Y-22428D01*
X41220Y-20748D02*
X41852Y-21380D01*
X41068Y-20748D02*
X41220Y-20748D01*
X39764Y-19444D02*
X41068Y-20748D01*
X39764Y-19442D02*
X39764Y-19444D01*
X38640Y-18320D02*
X39180Y-18320D01*
X48507Y-28475D02*
X49000Y-27982D01*
X46575Y-28475D02*
X48507Y-28475D01*
X39180Y-18320D02*
X39250Y-18250D01*
X39250Y-18250D02*
X39650Y-18250D01*
X39650Y-18250D02*
X39764Y-18364D01*
X39764Y-18364D02*
X39764Y-19442D01*
X41552Y-24202D02*
X42098Y-24748D01*
X42098Y-24748D02*
X45608Y-24748D01*
X45608Y-24748D02*
X46064Y-25204D01*
X46064Y-25204D02*
X46064Y-27964D01*
X37150Y-18000D02*
X38640Y-18000D01*
X36884Y-18266D02*
X36884Y-26735D01*
X36884Y-18266D02*
X37150Y-18000D01*
X38640Y-18000D02*
X39698Y-18000D01*
X41136Y-20586D02*
X39926Y-19376D01*
X41288Y-20586D02*
X41136Y-20586D01*
X42014Y-21312D02*
X41288Y-20586D01*
X42014Y-22496D02*
X42014Y-21312D01*
X41700Y-22810D02*
X42014Y-22496D01*
X41700Y-22810D02*
X41700Y-24110D01*
X39698Y-18000D02*
X39926Y-18228D01*
X39926Y-18228D02*
X39926Y-19376D01*
X46650Y-27500D02*
X48200Y-27500D01*
X48718Y-26982D02*
X49000Y-26982D01*
X48200Y-27500D02*
X48718Y-26982D01*
X41700Y-24110D02*
X42176Y-24586D01*
X42176Y-24586D02*
X45676Y-24586D01*
X45676Y-24586D02*
X46226Y-25136D01*
X46226Y-25136D02*
X46226Y-27076D01*
X46226Y-27076D02*
X46650Y-27500D01*
X41714Y-24124D02*
X41700Y-24110D01*
X32492Y-27628D02*
X32500Y-27628D01*
X32500Y-27628D02*
X35991Y-27628D01*
X35991Y-27628D02*
X36884Y-26735D01*
X26725Y-24825D02*
X26725Y-25205D01*
X31664Y-28098D02*
X31757Y-28005D01*
X29388Y-28098D02*
X31664Y-28098D01*
X29306Y-28016D02*
X29388Y-28098D01*
X24606Y-28016D02*
X29306Y-28016D01*
X26503Y-25427D02*
X26725Y-25205D01*
X25893Y-25427D02*
X26503Y-25427D01*
X25893Y-25427D02*
X24229Y-27091D01*
X24229Y-27091D02*
X24229Y-27639D01*
X24595Y-28005D02*
X24606Y-28016D01*
X24229Y-27639D02*
X24595Y-28005D01*
X32134Y-27628D02*
X32500Y-27628D01*
X31746Y-28016D02*
X31757Y-28005D01*
X31757Y-28005D02*
X32134Y-27628D01*
X35910Y-27450D02*
X36722Y-26638D01*
X31596Y-27936D02*
X31678Y-27854D01*
X29456Y-27936D02*
X31596Y-27936D01*
X29374Y-27854D02*
X29456Y-27936D01*
X25224Y-27854D02*
X29374Y-27854D01*
X32440Y-27450D02*
X32700Y-27450D01*
X38640Y-17680D02*
X36970Y-17680D01*
X32750Y-27450D02*
X35910Y-27450D01*
X32700Y-27450D02*
X32750Y-27450D01*
X36722Y-17928D02*
X36970Y-17680D01*
X36722Y-17928D02*
X36722Y-26638D01*
X26920Y-25240D02*
X26920Y-24825D01*
X26571Y-25589D02*
X26920Y-25240D01*
X25961Y-25589D02*
X26571Y-25589D01*
X24791Y-26759D02*
X25961Y-25589D01*
X24791Y-26759D02*
X24791Y-27421D01*
X24791Y-27421D02*
X25224Y-27854D01*
X31678Y-27854D02*
X32082Y-27450D01*
X32082Y-27450D02*
X32440Y-27450D01*
X38640Y-17680D02*
X39872Y-17680D01*
X41876Y-22864D02*
X41876Y-24056D01*
X42176Y-22564D02*
X41876Y-22864D01*
X42176Y-21244D02*
X42176Y-22564D01*
X41356Y-20424D02*
X42176Y-21244D01*
X41204Y-20424D02*
X41356Y-20424D01*
X40088Y-19308D02*
X41204Y-20424D01*
X40088Y-19306D02*
X40088Y-19308D01*
X46800Y-26500D02*
X48482Y-26500D01*
X46388Y-26088D02*
X46800Y-26500D01*
X46388Y-25068D02*
X46388Y-26088D01*
X45744Y-24424D02*
X46388Y-25068D01*
X42244Y-24424D02*
X45744Y-24424D01*
X39872Y-17680D02*
X40088Y-17896D01*
X40088Y-17896D02*
X40088Y-19306D01*
X41876Y-24056D02*
X42244Y-24424D01*
X48482Y-26500D02*
X49000Y-25982D01*
X38640Y-17365D02*
X39869Y-17365D01*
X41432Y-20262D02*
X42035Y-20865D01*
X42035Y-20865D02*
X42038Y-20868D01*
X41272Y-20262D02*
X41432Y-20262D01*
X40250Y-19240D02*
X41272Y-20262D01*
X40250Y-19238D02*
X40250Y-19240D01*
X42038Y-23988D02*
X42050Y-24000D01*
X42038Y-22932D02*
X42038Y-23988D01*
X42338Y-22632D02*
X42038Y-22932D01*
X42338Y-21168D02*
X42338Y-22632D01*
X42035Y-20865D02*
X42338Y-21168D01*
X48482Y-25500D02*
X49000Y-24982D01*
X46800Y-25500D02*
X48482Y-25500D01*
X42312Y-24262D02*
X45400Y-24262D01*
X45400Y-24262D02*
X45812Y-24262D01*
X46550Y-25250D02*
X46800Y-25500D01*
X46550Y-25000D02*
X46550Y-25250D01*
X45812Y-24262D02*
X46550Y-25000D01*
X42050Y-24000D02*
X42312Y-24262D01*
X39869Y-17365D02*
X40250Y-17746D01*
X40250Y-17746D02*
X40250Y-19238D01*
X36785Y-17365D02*
X38640Y-17365D01*
X36560Y-17590D02*
X36785Y-17365D01*
X36560Y-17590D02*
X36560Y-26570D01*
X35842Y-27288D02*
X36560Y-26570D01*
X32360Y-27288D02*
X32320Y-27288D01*
X32320Y-27288D02*
X35842Y-27288D01*
X27115Y-24825D02*
X27115Y-25275D01*
X31528Y-27774D02*
X31613Y-27689D01*
X29524Y-27774D02*
X31528Y-27774D01*
X29442Y-27692D02*
X29524Y-27774D01*
X25292Y-27692D02*
X29442Y-27692D01*
X26590Y-25800D02*
X27115Y-25275D01*
X26590Y-25800D02*
X25980Y-25800D01*
X24953Y-26827D02*
X25980Y-25800D01*
X24953Y-26827D02*
X24953Y-27353D01*
X24953Y-27353D02*
X25292Y-27692D01*
X32014Y-27288D02*
X32320Y-27288D01*
X31610Y-27692D02*
X31613Y-27689D01*
X31613Y-27689D02*
X32014Y-27288D01*
X45900Y-24100D02*
X46300Y-24500D01*
X42200Y-23000D02*
X42200Y-23900D01*
X42500Y-22700D02*
X42200Y-23000D01*
X42500Y-21100D02*
X42500Y-22700D01*
X42200Y-20800D02*
X42500Y-21100D01*
X40000Y-17050D02*
X40426Y-17476D01*
X38640Y-17050D02*
X40000Y-17050D01*
X40426Y-17476D02*
X40426Y-19186D01*
X42400Y-24100D02*
X45900Y-24100D01*
X42275Y-23975D02*
X42400Y-24100D01*
X48482Y-24500D02*
X49000Y-23982D01*
X46300Y-24500D02*
X48482Y-24500D01*
X42275Y-23975D02*
X42200Y-23900D01*
X42200Y-20800D02*
X41500Y-20100D01*
X41500Y-20100D02*
X41340Y-20100D01*
X40426Y-19186D02*
X41340Y-20100D01*
X38640Y-17050D02*
X38640Y-16240D01*
X32414Y-27126D02*
X32276Y-27126D01*
X32276Y-27126D02*
X32292Y-27126D01*
X32414Y-27126D02*
X35754Y-27126D01*
X35754Y-27126D02*
X36398Y-26482D01*
X36398Y-16252D02*
X36398Y-26482D01*
X36398Y-16252D02*
X37000Y-15650D01*
X37000Y-15650D02*
X38050Y-15650D01*
X38050Y-15650D02*
X38640Y-16240D01*
X27315Y-24825D02*
X27315Y-25305D01*
X31460Y-27612D02*
X31542Y-27530D01*
X29632Y-27612D02*
X31460Y-27612D01*
X29550Y-27530D02*
X29632Y-27612D01*
X25360Y-27530D02*
X29550Y-27530D01*
X26658Y-25962D02*
X27315Y-25305D01*
X26658Y-25962D02*
X26048Y-25962D01*
X25115Y-26895D02*
X26048Y-25962D01*
X25115Y-26895D02*
X25115Y-27285D01*
X25115Y-27285D02*
X25360Y-27530D01*
X31542Y-27530D02*
X31946Y-27126D01*
X31946Y-27126D02*
X32276Y-27126D01*
X42970Y-23770D02*
X46530Y-23770D01*
X46530Y-23770D02*
X46800Y-23500D01*
X46800Y-23500D02*
X48482Y-23500D01*
X48482Y-23500D02*
X49000Y-22982D01*
X42530Y-23770D02*
X42500Y-23800D01*
X42970Y-23770D02*
X42530Y-23770D01*
X35688Y-26948D02*
X32300Y-26948D01*
X35688Y-26948D02*
X36236Y-26400D01*
X36236Y-24336D02*
X36236Y-26400D01*
X36236Y-24336D02*
X35950Y-24050D01*
X37400Y-24000D02*
X37450Y-24050D01*
X37450Y-24050D02*
X40800Y-24050D01*
X40800Y-24050D02*
X40850Y-24000D01*
X32297Y-26948D02*
X32300Y-26948D01*
X32300Y-26948D02*
X32241Y-26948D01*
X31392Y-27450D02*
X31474Y-27368D01*
X29700Y-27450D02*
X31392Y-27450D01*
X29618Y-27368D02*
X29700Y-27450D01*
X25472Y-27368D02*
X29618Y-27368D01*
X31894Y-26948D02*
X32241Y-26948D01*
X31474Y-27368D02*
X31894Y-26948D01*
X25300Y-27196D02*
X25472Y-27368D01*
X25300Y-26940D02*
X25300Y-27196D01*
X26116Y-26124D02*
X25300Y-26940D01*
X26726Y-26124D02*
X26116Y-26124D01*
X26726Y-26124D02*
X27510Y-25340D01*
X27510Y-25340D02*
X27510Y-24825D01*
X28100Y-24825D02*
X28100Y-23700D01*
X28300Y-23950D02*
X28400Y-23850D01*
X28300Y-23950D02*
X28300Y-24825D01*
X28400Y-23750D02*
X28400Y-23550D01*
X28400Y-23550D02*
X28200Y-23350D01*
X28100Y-23350D02*
X28200Y-23350D01*
X28400Y-23750D02*
X28400Y-23850D01*
X28562Y-23562D02*
X28562Y-23918D01*
X28562Y-23262D02*
X28400Y-23100D01*
X28562Y-23462D02*
X28562Y-23262D01*
X28000Y-23000D02*
X28300Y-23000D01*
X28400Y-23100D02*
X28300Y-23000D01*
X28562Y-23562D02*
X28562Y-23462D01*
X28495Y-24825D02*
X28495Y-23985D01*
X28495Y-23985D02*
X28562Y-23918D01*
X28300Y-22650D02*
X28000Y-22650D01*
X28724Y-23074D02*
X28300Y-22650D01*
X28724Y-23474D02*
X28724Y-23074D01*
X28724Y-23474D02*
X28724Y-24026D01*
X28695Y-24055D02*
X28724Y-24026D01*
X28695Y-24825D02*
X28695Y-24055D01*
X28886Y-23386D02*
X28886Y-24821D01*
X28886Y-24821D02*
X28890Y-24825D01*
X27950Y-22300D02*
X28300Y-22300D01*
X28300Y-22300D02*
X28886Y-22886D01*
X28886Y-22886D02*
X28886Y-23386D01*
X26400Y-27006D02*
X27819Y-27006D01*
X27819Y-27006D02*
X27822Y-27003D01*
X29085Y-24825D02*
X29085Y-25315D01*
X28147Y-27003D02*
X27822Y-27003D01*
X28550Y-26600D02*
X28147Y-27003D01*
X28550Y-25850D02*
X28550Y-26600D01*
X29085Y-25315D02*
X28550Y-25850D01*
X29285Y-24825D02*
X29285Y-25391D01*
X29285Y-25391D02*
X29394Y-25500D01*
X29394Y-25500D02*
X29394Y-25981D01*
X29394Y-25981D02*
X29278Y-26097D01*
X32000Y-11000D02*
X32000Y-12300D01*
X29675Y-23625D02*
X29675Y-24825D01*
X29675Y-23625D02*
X29600Y-23550D01*
X29600Y-23550D02*
X29600Y-22850D01*
X29600Y-22850D02*
X30300Y-22150D01*
X31000Y-11000D02*
X31000Y-12300D01*
X29875Y-23575D02*
X29875Y-24825D01*
X29838Y-23538D02*
X29838Y-23012D01*
X29838Y-23012D02*
X30300Y-22550D01*
X29875Y-23575D02*
X29838Y-23538D01*
X30070Y-23520D02*
X30070Y-24825D01*
X30070Y-23520D02*
X30000Y-23450D01*
X30000Y-23450D02*
X30000Y-23250D01*
X30000Y-23250D02*
X30300Y-22950D01*
X30000Y-11000D02*
X30000Y-12300D01*
X30265Y-23635D02*
X30500Y-23400D01*
X30265Y-24825D02*
X30265Y-23635D01*
X29000Y-12300D02*
X29000Y-11000D01*
X31055Y-24825D02*
X31055Y-25499D01*
X31055Y-25499D02*
X31056Y-25500D01*
X30855Y-24825D02*
X31055Y-24825D01*
G54D18*
X31889Y-26600D02*
X31889Y-26489D01*
G54D17*
X31056Y-25656D02*
X31450Y-26050D01*
X31056Y-25656D02*
X31056Y-25500D01*
G54D18*
X31889Y-26489D02*
X31450Y-26050D01*
X31889Y-26600D02*
X31844Y-26600D01*
X31461Y-26983D02*
X30824Y-26983D01*
X31844Y-26600D02*
X31461Y-26983D01*
G54D17*
X31564Y-25500D02*
X31674Y-25500D01*
X44000Y-11000D02*
X44000Y-13900D01*
X36286Y-15764D02*
X37200Y-14850D01*
X37200Y-14850D02*
X43050Y-14850D01*
X43050Y-14850D02*
X44000Y-13900D01*
X36236Y-15850D02*
X36236Y-22884D01*
X33620Y-25500D02*
X36236Y-22884D01*
X31674Y-25500D02*
X33620Y-25500D01*
X31250Y-25186D02*
X31250Y-24825D01*
X31250Y-25186D02*
X31564Y-25500D01*
X36236Y-15850D02*
X36236Y-15814D01*
X36236Y-15814D02*
X36286Y-15764D01*
X36074Y-15646D02*
X36074Y-15650D01*
X36074Y-15650D02*
X36074Y-22816D01*
X31606Y-25312D02*
X31662Y-25312D01*
X31445Y-25151D02*
X31606Y-25312D01*
X31445Y-24825D02*
X31445Y-25151D01*
X31662Y-25312D02*
X33578Y-25312D01*
X33578Y-25312D02*
X36074Y-22816D01*
X36074Y-15650D02*
X36074Y-15576D01*
X43000Y-13350D02*
X43000Y-11000D01*
X41850Y-14500D02*
X43000Y-13350D01*
X37150Y-14500D02*
X41850Y-14500D01*
X36074Y-15576D02*
X37150Y-14500D01*
X32381Y-25151D02*
X33509Y-25151D01*
X31645Y-24825D02*
X31971Y-25151D01*
X32381Y-25151D02*
X31971Y-25151D01*
X35912Y-15678D02*
X35912Y-15700D01*
X35912Y-15700D02*
X35912Y-22748D01*
X33509Y-25151D02*
X35912Y-22748D01*
X35912Y-15700D02*
X35912Y-15238D01*
X42000Y-12950D02*
X42000Y-11000D01*
X35912Y-15238D02*
X37000Y-14150D01*
X37000Y-14150D02*
X40800Y-14150D01*
X40800Y-14150D02*
X42000Y-12950D01*
X40750Y-18600D02*
X41250Y-18100D01*
X40750Y-19050D02*
X40750Y-18600D01*
X41310Y-19610D02*
X40750Y-19050D01*
X32525Y-18235D02*
X33315Y-18235D01*
X33315Y-18235D02*
X33500Y-18050D01*
X33500Y-18050D02*
X33800Y-18050D01*
X42970Y-19610D02*
X41310Y-19610D01*
X40588Y-18362D02*
X41250Y-17700D01*
X40588Y-19118D02*
X40588Y-18362D01*
X32535Y-18050D02*
X32525Y-18040D01*
X33250Y-18050D02*
X32535Y-18050D01*
X33600Y-17700D02*
X33250Y-18050D01*
X42970Y-19930D02*
X41400Y-19930D01*
X41400Y-19930D02*
X40588Y-19118D01*
X45910Y-20890D02*
X46000Y-20800D01*
X42970Y-20890D02*
X45910Y-20890D01*
X32525Y-17845D02*
X33055Y-17845D01*
X34600Y-16150D02*
X34500Y-16050D01*
X34600Y-17202D02*
X34600Y-16150D01*
X34402Y-17400D02*
X34600Y-17202D01*
X33500Y-17400D02*
X34402Y-17400D01*
X33055Y-17845D02*
X33500Y-17400D01*
X34100Y-17000D02*
X34100Y-15450D01*
X33900Y-17200D02*
X34100Y-17000D01*
X33005Y-17645D02*
X33450Y-17200D01*
X33450Y-17200D02*
X33900Y-17200D01*
X34100Y-15450D02*
X34100Y-15050D01*
X34100Y-15050D02*
X33850Y-14800D01*
X33005Y-17645D02*
X32525Y-17645D01*
X33938Y-15488D02*
X33700Y-15250D01*
X33938Y-16780D02*
X33938Y-15488D01*
X33718Y-17000D02*
X33938Y-16780D01*
X33400Y-17000D02*
X33718Y-17000D01*
X33300Y-17100D02*
X33400Y-17000D01*
X32950Y-17450D02*
X33300Y-17100D01*
X32950Y-17450D02*
X32525Y-17450D01*
X25310Y-18040D02*
X25800Y-17550D01*
X24660Y-18040D02*
X25310Y-18040D01*
X28900Y-13800D02*
X28300Y-14400D01*
X33530Y-13800D02*
X28900Y-13800D01*
X34926Y-15196D02*
X33530Y-13800D01*
X34926Y-19824D02*
X34926Y-15196D01*
X34800Y-19950D02*
X34926Y-19824D01*
X34800Y-20100D02*
X34800Y-19950D01*
X24660Y-18040D02*
X23875Y-18040D01*
X37900Y-19600D02*
X38640Y-19600D01*
X37550Y-19950D02*
X37900Y-19600D01*
X38080Y-19920D02*
X38000Y-20000D01*
X38640Y-19920D02*
X38080Y-19920D01*
X28615Y-14485D02*
X28615Y-14315D01*
X25565Y-18235D02*
X25800Y-18000D01*
X24865Y-18235D02*
X25565Y-18235D01*
X28615Y-14315D02*
X28968Y-13962D01*
X23875Y-18235D02*
X24865Y-18235D01*
X28968Y-13962D02*
X29762Y-13962D01*
X28300Y-14800D02*
X28615Y-14485D01*
X33462Y-13962D02*
X29762Y-13962D01*
X33462Y-13962D02*
X34764Y-15264D01*
X34764Y-15264D02*
X34764Y-19652D01*
X34764Y-19652D02*
X34764Y-19686D01*
X34764Y-19686D02*
X34450Y-20000D01*
X34450Y-20000D02*
X34450Y-20150D01*
X34750Y-20450D02*
X34450Y-20150D01*
X29768Y-13962D02*
X29762Y-13962D01*
X26300Y-18450D02*
X26285Y-18435D01*
X31000Y-30000D02*
X30236Y-29236D01*
X28906Y-29236D02*
X30236Y-29236D01*
X28820Y-29150D02*
X28906Y-29236D01*
X23250Y-29150D02*
X28820Y-29150D01*
X26285Y-18435D02*
X23875Y-18435D01*
X22900Y-28800D02*
X23250Y-29150D01*
X30000Y-30000D02*
X29398Y-29398D01*
X28838Y-29398D02*
X29398Y-29398D01*
X28790Y-29350D02*
X28838Y-29398D01*
X23050Y-29350D02*
X28790Y-29350D01*
X25980Y-18630D02*
X26050Y-18700D01*
X25980Y-18630D02*
X23875Y-18630D01*
X22500Y-28800D02*
X23050Y-29350D01*
X42970Y-22810D02*
X43940Y-22810D01*
X43940Y-22810D02*
X43950Y-22800D01*
X23875Y-18825D02*
X24925Y-18825D01*
X31250Y-13150D02*
X31550Y-13150D01*
X30924Y-13476D02*
X31250Y-13150D01*
X30264Y-13476D02*
X30924Y-13476D01*
X24925Y-18825D02*
X25100Y-19000D01*
X28250Y-13500D02*
X28274Y-13476D01*
X28274Y-13476D02*
X30264Y-13476D01*
X45692Y-18492D02*
X46000Y-18800D01*
X40100Y-22200D02*
X40850Y-22200D01*
X43600Y-19000D02*
X44108Y-18492D01*
X43450Y-19000D02*
X43600Y-19000D01*
X40850Y-22200D02*
X41000Y-22050D01*
X38640Y-22160D02*
X40060Y-22160D01*
X26900Y-19350D02*
X27225Y-19025D01*
X24750Y-19350D02*
X26900Y-19350D01*
X24425Y-19025D02*
X24750Y-19350D01*
X23875Y-19025D02*
X24425Y-19025D01*
X31450Y-20150D02*
X31410Y-20190D01*
X31410Y-20190D02*
X30860Y-20190D01*
X30860Y-20190D02*
X29200Y-18530D01*
X29200Y-18530D02*
X29200Y-18200D01*
X28100Y-18150D02*
X27225Y-19025D01*
X40060Y-22160D02*
X40100Y-22200D01*
X44108Y-18492D02*
X45692Y-18492D01*
X23875Y-19615D02*
X26215Y-19615D01*
X22850Y-29550D02*
X27900Y-29550D01*
X22100Y-28800D02*
X22850Y-29550D01*
X27900Y-29550D02*
X28550Y-29550D01*
X28550Y-29550D02*
X29000Y-30000D01*
X26215Y-19615D02*
X26250Y-19650D01*
X23875Y-19810D02*
X23490Y-19810D01*
X28514Y-13314D02*
X28400Y-13200D01*
X30586Y-13314D02*
X28514Y-13314D01*
X31050Y-12850D02*
X30586Y-13314D01*
X31900Y-12850D02*
X31050Y-12850D01*
X26050Y-14600D02*
X26200Y-14450D01*
X25400Y-14600D02*
X26050Y-14600D01*
X21450Y-15350D02*
X21350Y-15250D01*
X21450Y-15450D02*
X21450Y-15350D01*
X23490Y-19810D02*
X23350Y-19950D01*
X23350Y-19950D02*
X22600Y-19950D01*
X22600Y-19950D02*
X22350Y-19700D01*
X22350Y-19700D02*
X22350Y-19400D01*
X22350Y-19400D02*
X22700Y-19050D01*
X22700Y-19050D02*
X22700Y-18050D01*
X22700Y-18050D02*
X21750Y-17100D01*
X21450Y-16800D02*
X21750Y-17100D01*
X21450Y-15450D02*
X21450Y-16800D01*
X24050Y-14650D02*
X24100Y-14600D01*
X24100Y-14600D02*
X25400Y-14600D01*
X37594Y-18694D02*
X37950Y-18694D01*
X37594Y-18694D02*
X37550Y-18650D01*
X28000Y-13200D02*
X28400Y-13200D01*
X38640Y-18640D02*
X38004Y-18640D01*
X38004Y-18640D02*
X37950Y-18694D01*
X28612Y-13638D02*
X28300Y-13950D01*
X31162Y-13638D02*
X28612Y-13638D01*
X31300Y-13500D02*
X31162Y-13638D01*
X24995Y-20005D02*
X23875Y-20005D01*
X25145Y-20005D02*
X25250Y-19900D01*
X24995Y-20005D02*
X25145Y-20005D01*
X29226Y-14124D02*
X29850Y-14124D01*
X29226Y-14124D02*
X29100Y-14250D01*
X25495Y-20205D02*
X25600Y-20100D01*
X30674Y-14124D02*
X29850Y-14124D01*
X29850Y-14124D02*
X29837Y-14124D01*
X30800Y-14250D02*
X30674Y-14124D01*
X25145Y-20205D02*
X25495Y-20205D01*
X23875Y-20205D02*
X25145Y-20205D01*
X25750Y-20400D02*
X23875Y-20400D01*
X26000Y-20150D02*
X25750Y-20400D01*
X26000Y-20000D02*
X26000Y-20150D01*
X26050Y-19950D02*
X26000Y-20000D01*
X25950Y-20600D02*
X23875Y-20600D01*
X23875Y-20795D02*
X25595Y-20795D01*
X25595Y-20795D02*
X25750Y-20950D01*
X25295Y-20995D02*
X23875Y-20995D01*
X25500Y-21200D02*
X25295Y-20995D01*
X24415Y-21585D02*
X24500Y-21500D01*
X24250Y-21585D02*
X24415Y-21585D01*
X24265Y-21585D02*
X24250Y-21585D01*
X24250Y-21585D02*
X23875Y-21585D01*
X23875Y-22765D02*
X24835Y-22765D01*
X24835Y-22765D02*
X24950Y-22650D01*
X41906Y-26750D02*
X41906Y-26456D01*
X41050Y-26300D02*
X41750Y-26300D01*
X40935Y-26415D02*
X41050Y-26300D01*
X40935Y-26415D02*
X40577Y-26415D01*
X41906Y-26456D02*
X41750Y-26300D01*
X24950Y-22650D02*
X24951Y-22650D01*
X24951Y-22650D02*
X25174Y-22427D01*
X25174Y-22427D02*
X27053Y-22427D01*
X27053Y-22427D02*
X27615Y-21865D01*
X27615Y-21865D02*
X27622Y-21858D01*
X38695Y-25785D02*
X38345Y-26135D01*
X38923Y-25785D02*
X38695Y-25785D01*
X32450Y-28930D02*
X32450Y-29100D01*
X32618Y-28762D02*
X32450Y-28930D01*
X36468Y-28762D02*
X32618Y-28762D01*
X38024Y-27206D02*
X36468Y-28762D01*
X38024Y-26456D02*
X38024Y-27206D01*
X38345Y-26135D02*
X38024Y-26456D01*
X27802Y-21678D02*
X27615Y-21865D01*
X27802Y-21678D02*
X27860Y-21620D01*
X27860Y-21620D02*
X28030Y-21620D01*
X28030Y-21620D02*
X28050Y-21600D01*
X38923Y-25785D02*
X39435Y-25785D01*
X40065Y-26415D02*
X40577Y-26415D01*
X39435Y-25785D02*
X40065Y-26415D01*
X33926Y-29226D02*
X33944Y-29226D01*
X33944Y-29226D02*
X42226Y-29226D01*
X33944Y-29226D02*
X33576Y-29226D01*
X33450Y-29100D02*
X33576Y-29226D01*
X42226Y-29226D02*
X43000Y-30000D01*
X24950Y-21875D02*
X26325Y-21875D01*
X26325Y-21875D02*
X26575Y-21875D01*
X26575Y-21875D02*
X27900Y-20550D01*
X27900Y-20550D02*
X28000Y-20550D01*
X24925Y-21875D02*
X24950Y-21875D01*
X24925Y-21875D02*
X24950Y-21875D01*
X23875Y-22175D02*
X24475Y-22175D01*
X24775Y-21875D02*
X24925Y-21875D01*
X24475Y-22175D02*
X24775Y-21875D01*
X26525Y-22075D02*
X26775Y-22075D01*
X33238Y-29388D02*
X33100Y-29250D01*
X33238Y-29388D02*
X33500Y-29388D01*
X27950Y-20900D02*
X26775Y-22075D01*
X41388Y-29388D02*
X42000Y-30000D01*
X33500Y-29388D02*
X41388Y-29388D01*
X33488Y-29388D02*
X33500Y-29388D01*
X24825Y-22075D02*
X24975Y-22075D01*
X24975Y-22075D02*
X26525Y-22075D01*
X26525Y-22075D02*
X26530Y-22070D01*
X24530Y-22370D02*
X24825Y-22075D01*
X24825Y-22075D02*
X24830Y-22070D01*
X23875Y-22370D02*
X24530Y-22370D01*
X33192Y-29550D02*
X40550Y-29550D01*
X32900Y-29550D02*
X33192Y-29550D01*
X32700Y-29350D02*
X32900Y-29550D01*
X41000Y-30000D02*
X40550Y-29550D01*
X24885Y-22265D02*
X26735Y-22265D01*
X26985Y-22265D02*
X26735Y-22265D01*
X28000Y-21250D02*
X26985Y-22265D01*
X24585Y-22565D02*
X23875Y-22565D01*
X24585Y-22565D02*
X24885Y-22265D01*
X23875Y-22960D02*
X23360Y-22960D01*
X15244Y-23194D02*
X15244Y-22900D01*
X15244Y-23194D02*
X15450Y-23400D01*
X15450Y-23400D02*
X17900Y-23400D01*
X18162Y-23662D02*
X17900Y-23400D01*
X18768Y-23662D02*
X18162Y-23662D01*
X23360Y-22960D02*
X23300Y-22900D01*
X23300Y-22900D02*
X23050Y-22900D01*
X23050Y-22900D02*
X22288Y-23662D01*
X22288Y-23662D02*
X18768Y-23662D01*
X32500Y-30150D02*
X32800Y-30450D01*
X27900Y-21950D02*
X28000Y-21950D01*
X26695Y-23155D02*
X27900Y-21950D01*
X26600Y-23155D02*
X26695Y-23155D01*
X32500Y-29650D02*
X32500Y-30150D01*
X32250Y-29400D02*
X32500Y-29650D01*
X32800Y-30450D02*
X38550Y-30450D01*
X38550Y-30450D02*
X39000Y-30000D01*
X26645Y-23155D02*
X26600Y-23155D01*
X26600Y-23155D02*
X23875Y-23155D01*
X43930Y-22170D02*
X42970Y-22170D01*
X43930Y-22170D02*
X43950Y-22150D01*
X23875Y-23355D02*
X24455Y-23355D01*
X45550Y-30200D02*
X45550Y-29550D01*
X44200Y-26400D02*
X44200Y-26800D01*
X44200Y-26800D02*
X44200Y-28200D01*
X44200Y-28200D02*
X45550Y-29550D01*
X45138Y-30612D02*
X45550Y-30200D01*
X30712Y-30612D02*
X45138Y-30612D01*
X30650Y-30550D02*
X30712Y-30612D01*
X23750Y-30550D02*
X30650Y-30550D01*
X22800Y-30550D02*
X23750Y-30550D01*
X22700Y-30450D02*
X22800Y-30550D01*
X22500Y-30250D02*
X22700Y-30450D01*
X22500Y-29750D02*
X22500Y-30250D01*
X21800Y-29050D02*
X22500Y-29750D01*
X21800Y-28700D02*
X21800Y-29050D01*
X23088Y-27412D02*
X21800Y-28700D01*
X23088Y-25662D02*
X23088Y-27412D01*
X24550Y-24200D02*
X23088Y-25662D01*
X24550Y-23450D02*
X24550Y-24200D01*
X24455Y-23355D02*
X24550Y-23450D01*
X43690Y-22490D02*
X43700Y-22500D01*
X42970Y-22490D02*
X43690Y-22490D01*
X23875Y-23550D02*
X24350Y-23550D01*
X44300Y-25950D02*
X43900Y-25950D01*
X44600Y-26250D02*
X44300Y-25950D01*
X44600Y-27250D02*
X44600Y-26250D01*
X46650Y-29300D02*
X44600Y-27250D01*
X46650Y-29600D02*
X46650Y-29300D01*
X21500Y-28770D02*
X21500Y-30450D01*
X22926Y-27344D02*
X21500Y-28770D01*
X22926Y-25594D02*
X22926Y-27344D01*
X24350Y-24170D02*
X22926Y-25594D01*
X24350Y-24150D02*
X24350Y-24170D01*
X24350Y-23550D02*
X24350Y-24150D01*
X21500Y-30450D02*
X21500Y-30500D01*
X21500Y-30500D02*
X21712Y-30712D01*
X21712Y-30712D02*
X30562Y-30712D01*
X30562Y-30712D02*
X30624Y-30774D01*
X30624Y-30774D02*
X46176Y-30774D01*
X46176Y-30774D02*
X46650Y-30300D01*
X46650Y-30300D02*
X46650Y-29600D01*
X34036Y-24386D02*
X34036Y-24394D01*
X31900Y-24500D02*
X32389Y-24989D01*
X31900Y-24200D02*
X31900Y-24500D01*
X33441Y-24989D02*
X34036Y-24394D01*
X32389Y-24989D02*
X33441Y-24989D01*
X31900Y-24200D02*
X32155Y-23945D01*
X32155Y-23945D02*
X32525Y-23945D01*
X35748Y-16252D02*
X35750Y-16250D01*
X41000Y-11000D02*
X41000Y-12550D01*
X39800Y-13750D02*
X41000Y-12550D01*
X36900Y-13750D02*
X39800Y-13750D01*
X35748Y-14902D02*
X36900Y-13750D01*
X35748Y-15652D02*
X35748Y-14902D01*
X35748Y-15652D02*
X35748Y-16252D01*
X35750Y-22672D02*
X34036Y-24386D01*
X35750Y-16250D02*
X35750Y-22672D01*
X34024Y-24398D02*
X34036Y-24386D01*
X35586Y-15614D02*
X35586Y-21614D01*
X40000Y-11000D02*
X40000Y-12300D01*
X38950Y-13350D02*
X40000Y-12300D01*
X36800Y-13350D02*
X38950Y-13350D01*
X35586Y-14564D02*
X36800Y-13350D01*
X35586Y-15614D02*
X35586Y-14564D01*
X33845Y-23355D02*
X32525Y-23355D01*
X33845Y-23355D02*
X35586Y-21614D01*
X35424Y-15596D02*
X35424Y-15600D01*
X35424Y-15600D02*
X35424Y-21546D01*
X33815Y-23155D02*
X35424Y-21546D01*
X32525Y-23155D02*
X33815Y-23155D01*
X35424Y-15600D02*
X35424Y-14126D01*
X39000Y-12100D02*
X39000Y-11000D01*
X38100Y-13000D02*
X39000Y-12100D01*
X36550Y-13000D02*
X38100Y-13000D01*
X35424Y-14126D02*
X36550Y-13000D01*
X35250Y-15540D02*
X35250Y-15500D01*
X35250Y-15500D02*
X35250Y-21490D01*
X33780Y-22960D02*
X35250Y-21490D01*
X33780Y-22960D02*
X32525Y-22960D01*
X35250Y-15500D02*
X35250Y-13650D01*
X38000Y-11900D02*
X38000Y-11000D01*
X37350Y-12550D02*
X38000Y-11900D01*
X36350Y-12550D02*
X37350Y-12550D01*
X35250Y-13650D02*
X36350Y-12550D01*
X33745Y-22765D02*
X35088Y-21422D01*
X37000Y-11000D02*
X37000Y-11350D01*
X35088Y-13262D02*
X37000Y-11350D01*
X35088Y-15512D02*
X35088Y-13262D01*
X35088Y-15512D02*
X35088Y-21422D01*
X33745Y-22765D02*
X32525Y-22765D01*
X29440Y-21640D02*
X30160Y-21640D01*
X32525Y-22565D02*
X32185Y-22565D01*
X32100Y-22650D02*
X32185Y-22565D01*
X31550Y-22650D02*
X32100Y-22650D01*
X31250Y-22950D02*
X31550Y-22650D01*
X31150Y-22950D02*
X31250Y-22950D01*
X29450Y-21650D02*
X29440Y-21640D01*
X31150Y-22950D02*
X30800Y-22950D01*
X30800Y-22950D02*
X30600Y-22750D01*
X30600Y-22750D02*
X30600Y-22080D01*
X30600Y-22080D02*
X30160Y-21640D01*
X28000Y-11900D02*
X28700Y-12600D01*
X28000Y-11000D02*
X28000Y-11900D01*
X29805Y-21478D02*
X30228Y-21478D01*
X30762Y-22012D02*
X30228Y-21478D01*
X30762Y-22682D02*
X30762Y-22012D01*
X30868Y-22788D02*
X30762Y-22682D01*
X31082Y-22788D02*
X31050Y-22788D01*
X31050Y-22788D02*
X30868Y-22788D01*
X29350Y-21200D02*
X29550Y-21400D01*
X29550Y-21400D02*
X29727Y-21400D01*
X29727Y-21400D02*
X29805Y-21478D01*
X27000Y-11400D02*
X27000Y-11000D01*
X28450Y-12850D02*
X27000Y-11400D01*
X31050Y-22788D02*
X31182Y-22788D01*
X32150Y-22370D02*
X32525Y-22370D01*
X32032Y-22488D02*
X32150Y-22370D01*
X31482Y-22488D02*
X32032Y-22488D01*
X31182Y-22788D02*
X31482Y-22488D01*
X33200Y-22500D02*
X33200Y-22350D01*
X37402Y-28552D02*
X37452Y-28552D01*
X37250Y-28400D02*
X37402Y-28552D01*
X33200Y-22350D02*
X33025Y-22175D01*
X40950Y-28552D02*
X43552Y-28552D01*
X45000Y-30000D02*
X43552Y-28552D01*
X33025Y-22175D02*
X32525Y-22175D01*
X40950Y-28552D02*
X37452Y-28552D01*
X31900Y-22200D02*
X31800Y-22200D01*
X32125Y-21975D02*
X31900Y-22200D01*
X32525Y-21975D02*
X32125Y-21975D01*
X37014Y-28714D02*
X42714Y-28714D01*
X37000Y-28700D02*
X37014Y-28714D01*
X42714Y-28714D02*
X42750Y-28750D01*
X42750Y-28750D02*
X44000Y-30000D01*
X42714Y-28714D02*
X42750Y-28750D01*
X29048Y-23748D02*
X29150Y-23850D01*
X29048Y-22798D02*
X29048Y-23748D01*
X28950Y-22700D02*
X29048Y-22798D01*
X28950Y-21150D02*
X28950Y-22700D01*
X29200Y-20900D02*
X28950Y-21150D01*
X30180Y-20900D02*
X29200Y-20900D01*
X31167Y-21887D02*
X30180Y-20900D01*
X31463Y-21887D02*
X31167Y-21887D01*
X31600Y-21750D02*
X31463Y-21887D01*
X31850Y-21750D02*
X31600Y-21750D01*
X32015Y-21585D02*
X31850Y-21750D01*
X32525Y-21585D02*
X32015Y-21585D01*
X32525Y-21385D02*
X32985Y-21385D01*
X34800Y-21450D02*
X34800Y-21250D01*
X32985Y-21385D02*
X33350Y-21750D01*
X33350Y-21750D02*
X34500Y-21750D01*
X34500Y-21750D02*
X34800Y-21450D01*
X42500Y-23450D02*
X42970Y-23450D01*
X42970Y-23450D02*
X46300Y-23450D01*
X46500Y-22800D02*
X46800Y-22500D01*
X46500Y-23250D02*
X46500Y-22800D01*
X46300Y-23450D02*
X46500Y-23250D01*
X46800Y-22500D02*
X48482Y-22500D01*
X48482Y-22500D02*
X49000Y-21982D01*
X32525Y-20795D02*
X33405Y-20795D01*
X34300Y-20550D02*
X33650Y-20550D01*
X34500Y-20750D02*
X34300Y-20550D01*
X34700Y-20750D02*
X34500Y-20750D01*
X34750Y-20800D02*
X34700Y-20750D01*
X33405Y-20795D02*
X33650Y-20550D01*
X42970Y-23130D02*
X45000Y-23130D01*
X49000Y-20982D02*
X48482Y-21500D01*
X46300Y-21900D02*
X46700Y-21500D01*
X46300Y-22928D02*
X46300Y-21900D01*
X46098Y-23130D02*
X46300Y-22928D01*
X46098Y-23130D02*
X45000Y-23130D01*
X46700Y-21500D02*
X48482Y-21500D01*
X42970Y-23130D02*
X42530Y-23130D01*
X42530Y-23130D02*
X42500Y-23100D01*
X42970Y-18330D02*
X46020Y-18330D01*
X48482Y-20500D02*
X49000Y-19982D01*
X46850Y-20500D02*
X48482Y-20500D01*
X46020Y-18330D02*
X46388Y-18698D01*
X46388Y-18698D02*
X46388Y-20038D01*
X46388Y-20038D02*
X46850Y-20500D01*
X32525Y-20600D02*
X33370Y-20600D01*
X33762Y-20388D02*
X33900Y-20250D01*
X33582Y-20388D02*
X33762Y-20388D01*
X33370Y-20600D02*
X33582Y-20388D01*
X42570Y-18330D02*
X42970Y-18330D01*
X42300Y-18600D02*
X42570Y-18330D01*
X46750Y-19500D02*
X48482Y-19500D01*
X46550Y-19300D02*
X46750Y-19500D01*
X46550Y-18630D02*
X46550Y-19300D01*
X48482Y-19500D02*
X49000Y-18982D01*
X42970Y-18010D02*
X45930Y-18010D01*
X45930Y-18010D02*
X46550Y-18630D01*
X42970Y-18010D02*
X42490Y-18010D01*
X33810Y-19950D02*
X34150Y-19950D01*
X33560Y-20200D02*
X33810Y-19950D01*
X33500Y-20200D02*
X33560Y-20200D01*
X33500Y-20200D02*
X33300Y-20400D01*
X33300Y-20400D02*
X32525Y-20400D01*
X42490Y-18010D02*
X42300Y-18200D01*
X42970Y-17690D02*
X45990Y-17690D01*
X45990Y-17690D02*
X46800Y-18500D01*
X46800Y-18500D02*
X48482Y-18500D01*
X48482Y-18500D02*
X49000Y-17982D01*
X42970Y-17690D02*
X42360Y-17690D01*
X33492Y-20038D02*
X33412Y-20038D01*
X33880Y-19650D02*
X33492Y-20038D01*
X34150Y-19650D02*
X33880Y-19650D01*
X34300Y-19500D02*
X34150Y-19650D01*
X33245Y-20205D02*
X32525Y-20205D01*
X33412Y-20038D02*
X33245Y-20205D01*
X42360Y-17690D02*
X42300Y-17750D01*
X42970Y-17370D02*
X46670Y-17370D01*
X46670Y-17370D02*
X46800Y-17500D01*
X46800Y-17500D02*
X48482Y-17500D01*
X48482Y-17500D02*
X49000Y-16982D01*
X32525Y-20005D02*
X33145Y-20005D01*
X42300Y-17350D02*
X42320Y-17370D01*
X42320Y-17370D02*
X42970Y-17370D01*
X33500Y-19800D02*
X33350Y-19800D01*
X33145Y-20005D02*
X33350Y-19800D01*
X33500Y-19800D02*
X33950Y-19350D01*
X38640Y-20880D02*
X39280Y-20880D01*
X39300Y-20900D02*
X39280Y-20880D01*
X32090Y-19810D02*
X31850Y-20050D01*
X32090Y-19810D02*
X32525Y-19810D01*
X32525Y-19615D02*
X31735Y-19615D01*
X31735Y-19615D02*
X31550Y-19800D01*
X38640Y-21200D02*
X39600Y-21200D01*
X32525Y-19415D02*
X31385Y-19415D01*
X31385Y-19415D02*
X31350Y-19450D01*
X39930Y-21520D02*
X38640Y-21520D01*
X39930Y-21520D02*
X39950Y-21500D01*
X31950Y-18700D02*
X32100Y-18850D01*
X32100Y-18850D02*
X32500Y-18850D01*
X32500Y-18850D02*
X32525Y-18825D01*
X38640Y-21840D02*
X40240Y-21840D01*
X40240Y-21840D02*
X40250Y-21850D01*
X42970Y-18970D02*
X41320Y-18970D01*
X41320Y-18970D02*
X41250Y-18900D01*
X32525Y-18630D02*
X33830Y-18630D01*
X33830Y-18630D02*
X33850Y-18650D01*
X42970Y-19290D02*
X41240Y-19290D01*
X32525Y-18435D02*
X33515Y-18435D01*
X33600Y-18350D02*
X33515Y-18435D01*
X41240Y-19290D02*
X40950Y-19000D01*
X40950Y-19000D02*
X40950Y-18800D01*
X40950Y-18800D02*
X41250Y-18500D01*
X42970Y-21530D02*
X43870Y-21530D01*
X43870Y-21530D02*
X43900Y-21500D01*
X30660Y-16175D02*
X30660Y-15610D01*
X30661Y-15610D02*
X30660Y-15610D01*
X31521Y-14750D02*
X30661Y-15610D01*
X31650Y-14750D02*
X31521Y-14750D01*
X31850Y-14550D02*
X31650Y-14750D01*
X32150Y-14550D02*
X31850Y-14550D01*
X30465Y-16175D02*
X30465Y-15535D01*
X30465Y-15535D02*
X31450Y-14550D01*
X31450Y-14550D02*
X31450Y-14400D01*
X44250Y-21850D02*
X42970Y-21850D01*
X30265Y-15285D02*
X31000Y-14550D01*
X30265Y-15285D02*
X30265Y-16175D01*
X41140Y-22596D02*
X41140Y-24270D01*
X41000Y-22456D02*
X41140Y-22596D01*
X41000Y-22450D02*
X41000Y-22456D01*
X48532Y-27450D02*
X48000Y-27982D01*
X49350Y-27450D02*
X48532Y-27450D01*
X49350Y-27450D02*
X49500Y-27600D01*
X49500Y-28450D02*
X49500Y-27600D01*
X49250Y-28700D02*
X49500Y-28450D01*
X46570Y-28700D02*
X49250Y-28700D01*
X41140Y-24270D02*
X42030Y-25160D01*
X42030Y-25160D02*
X45140Y-25160D01*
X45140Y-25160D02*
X45552Y-25572D01*
X45552Y-25572D02*
X45552Y-27682D01*
X45552Y-27682D02*
X46570Y-28700D01*
X40970Y-22480D02*
X38640Y-22480D01*
X41000Y-22450D02*
X40970Y-22480D01*
X42971Y-17050D02*
X42600Y-17050D01*
X42600Y-17050D02*
X42300Y-16750D01*
X30070Y-15080D02*
X30600Y-14550D01*
X30070Y-16175D02*
X30070Y-15080D01*
X42970Y-18650D02*
X43450Y-18650D01*
X29875Y-16175D02*
X29875Y-16575D01*
X30700Y-16750D02*
X30050Y-16750D01*
X30050Y-16750D02*
X29875Y-16575D01*
X29285Y-16175D02*
X29285Y-16885D01*
X38990Y-18960D02*
X38640Y-18960D01*
X39400Y-18550D02*
X38990Y-18960D01*
X29600Y-17200D02*
X30600Y-17200D01*
X29285Y-16885D02*
X29600Y-17200D01*
X30600Y-17200D02*
X30700Y-17100D01*
X29085Y-16175D02*
X29085Y-16935D01*
X29085Y-16935D02*
X29650Y-17500D01*
X29650Y-17500D02*
X30750Y-17500D01*
X39070Y-19280D02*
X38640Y-19280D01*
X39400Y-18950D02*
X39070Y-19280D01*
X39400Y-18950D02*
X39400Y-19300D01*
X39400Y-19300D02*
X39400Y-19308D01*
X41460Y-24340D02*
X41390Y-24270D01*
X41350Y-24230D02*
X41390Y-24270D01*
X41350Y-22700D02*
X41350Y-24230D01*
X41690Y-22360D02*
X41350Y-22700D01*
X41690Y-21448D02*
X41690Y-22360D01*
X41157Y-20915D02*
X41690Y-21448D01*
X41005Y-20915D02*
X41157Y-20915D01*
X39400Y-19310D02*
X41005Y-20915D01*
X39400Y-19310D02*
X39400Y-19300D01*
X41460Y-24340D02*
X41470Y-24350D01*
X42070Y-24950D02*
X41460Y-24340D01*
X45404Y-24950D02*
X42070Y-24950D01*
X45650Y-25196D02*
X45404Y-24950D01*
X45650Y-25200D02*
X45650Y-25196D01*
X46450Y-16100D02*
X46850Y-16500D01*
X45850Y-16100D02*
X46450Y-16100D01*
X49000Y-15982D02*
X48482Y-16500D01*
X46850Y-16500D02*
X48482Y-16500D01*
X40140Y-23760D02*
X40150Y-23750D01*
X38640Y-23760D02*
X40140Y-23760D01*
X28890Y-18450D02*
X30890Y-20450D01*
X31000Y-20550D02*
X31350Y-20550D01*
X30900Y-20450D02*
X31000Y-20550D01*
X30890Y-20450D02*
X30900Y-20450D01*
X28890Y-18450D02*
X28890Y-16175D01*
X49000Y-15050D02*
X48550Y-15500D01*
X48550Y-15500D02*
X46000Y-15500D01*
X46000Y-15500D02*
X45370Y-16130D01*
X45370Y-16130D02*
X45370Y-16220D01*
X45370Y-16220D02*
X45550Y-16400D01*
X49000Y-14982D02*
X49000Y-15050D01*
X28695Y-16175D02*
X28695Y-16881D01*
X39840Y-23440D02*
X38640Y-23440D01*
X39850Y-23450D02*
X39840Y-23440D01*
X31060Y-20850D02*
X31850Y-20850D01*
X28724Y-18514D02*
X31060Y-20850D01*
X28724Y-16910D02*
X28724Y-18514D01*
X28695Y-16881D02*
X28724Y-16910D01*
X45750Y-16750D02*
X45700Y-16700D01*
X28495Y-16175D02*
X28495Y-16965D01*
X28495Y-16965D02*
X28562Y-17032D01*
X28562Y-17032D02*
X28562Y-18582D01*
X31080Y-21100D02*
X28562Y-18582D01*
X31400Y-21100D02*
X31080Y-21100D01*
X31450Y-21150D02*
X31400Y-21100D01*
X38640Y-23120D02*
X39520Y-23120D01*
X39520Y-23120D02*
X39550Y-23150D01*
X48482Y-14500D02*
X49000Y-13982D01*
X45700Y-16700D02*
X45400Y-16700D01*
X45400Y-16700D02*
X45200Y-16500D01*
X45200Y-16500D02*
X45200Y-16070D01*
X45200Y-16070D02*
X46770Y-14500D01*
X46770Y-14500D02*
X48482Y-14500D01*
X45700Y-16700D02*
X45700Y-16700D01*
X49000Y-12982D02*
X48482Y-13500D01*
X46850Y-13500D02*
X48482Y-13500D01*
X46550Y-13800D02*
X46850Y-13500D01*
X46550Y-14490D02*
X46550Y-13800D01*
X45038Y-16002D02*
X46550Y-14490D01*
X45038Y-16568D02*
X45038Y-16002D01*
X45370Y-16900D02*
X45038Y-16568D01*
X45500Y-16900D02*
X45370Y-16900D01*
X45700Y-17100D02*
X45500Y-16900D01*
X28400Y-17100D02*
X28400Y-18650D01*
X28300Y-17000D02*
X28400Y-17100D01*
X28300Y-17000D02*
X28300Y-16175D01*
X31350Y-21600D02*
X28400Y-18650D01*
X39250Y-22800D02*
X38640Y-22800D01*
X39250Y-22800D02*
X39300Y-22850D01*
X28100Y-16175D02*
X28100Y-17200D01*
X27905Y-16175D02*
X27905Y-16995D01*
X27905Y-16995D02*
X27700Y-17200D01*
X27705Y-16175D02*
X27705Y-16795D01*
X27300Y-17200D02*
X27705Y-16795D01*
X26000Y-11000D02*
X26000Y-11550D01*
X27115Y-12665D02*
X27115Y-16175D01*
X26000Y-11550D02*
X27115Y-12665D01*
X25000Y-11000D02*
X26920Y-12920D01*
X25000Y-11000D02*
X25000Y-11000D01*
X26920Y-12920D02*
X26920Y-16175D01*
X24000Y-11000D02*
X24000Y-11050D01*
X26725Y-16175D02*
X26725Y-13775D01*
X26725Y-12955D02*
X26725Y-13775D01*
X25420Y-11650D02*
X26725Y-12955D01*
X24550Y-11650D02*
X25420Y-11650D01*
X24000Y-11100D02*
X24550Y-11650D01*
X24000Y-11100D02*
X24000Y-11000D01*
X26525Y-16175D02*
X26525Y-15075D01*
X26525Y-12985D02*
X26525Y-15075D01*
X25440Y-11900D02*
X26525Y-12985D01*
X23900Y-11900D02*
X25440Y-11900D01*
X23900Y-11900D02*
X23000Y-11000D01*
X26330Y-15330D02*
X26250Y-15250D01*
X26330Y-16175D02*
X26330Y-15330D01*
X26135Y-16175D02*
X26135Y-15535D01*
X26135Y-15535D02*
X25900Y-15300D01*
X25900Y-15300D02*
X25900Y-15150D01*
X25935Y-16175D02*
X25935Y-15635D01*
X25935Y-15635D02*
X25550Y-15250D01*
X25740Y-16175D02*
X25740Y-15740D01*
X25740Y-15740D02*
X25550Y-15550D01*
X25550Y-15550D02*
X25450Y-15550D01*
X25450Y-15550D02*
X24850Y-14950D01*
X24850Y-14950D02*
X22300Y-14950D01*
X16250Y-18100D02*
X15756Y-18100D01*
X15756Y-18100D02*
X15756Y-18700D01*
X25545Y-16175D02*
X25545Y-16705D01*
X24444Y-16800D02*
X25450Y-16800D01*
X24108Y-16464D02*
X24444Y-16800D01*
X22866Y-16464D02*
X24108Y-16464D01*
X22600Y-16730D02*
X22866Y-16464D01*
X22600Y-16800D02*
X22600Y-16730D01*
X25545Y-16705D02*
X25450Y-16800D01*
X21000Y-17400D02*
X20900Y-17500D01*
X20900Y-17500D02*
X17556Y-17500D01*
X17556Y-17500D02*
X15756Y-19300D01*
X15244Y-20500D02*
X15244Y-20412D01*
X15244Y-20412D02*
X15756Y-19900D01*
X15756Y-19300D02*
X15756Y-19900D01*
X31645Y-17445D02*
X31645Y-16175D01*
X31950Y-17750D02*
X31950Y-18350D01*
X31645Y-17445D02*
X31950Y-17750D01*
X31450Y-17500D02*
X31450Y-16180D01*
X31650Y-17700D02*
X31450Y-17500D01*
X31650Y-18150D02*
X31650Y-17700D01*
X31450Y-16180D02*
X31445Y-16175D01*
X31250Y-16175D02*
X31250Y-17550D01*
X31350Y-17650D02*
X31350Y-17950D01*
X31250Y-17550D02*
X31350Y-17650D01*
X31055Y-16175D02*
X31055Y-17745D01*
X31050Y-17750D02*
X31055Y-17745D01*
X42970Y-21210D02*
X43690Y-21210D01*
X43690Y-21210D02*
X43700Y-21200D01*
X31550Y-14950D02*
X31850Y-14950D01*
X30855Y-15645D02*
X31550Y-14950D01*
X30855Y-16175D02*
X30855Y-15645D01*
X22850Y-17450D02*
X23875Y-17450D01*
X22000Y-16600D02*
X22850Y-17450D01*
X22000Y-11000D02*
X22000Y-16600D01*
X23875Y-17645D02*
X22795Y-17645D01*
X21838Y-11838D02*
X21000Y-11000D01*
X21838Y-16688D02*
X21838Y-11838D01*
X22795Y-17645D02*
X21838Y-16688D01*
X21650Y-12650D02*
X20000Y-11000D01*
X21650Y-16750D02*
X21650Y-12650D01*
X22745Y-17845D02*
X21650Y-16750D01*
X23875Y-17845D02*
X22745Y-17845D01*
X13084Y-19985D02*
X13700Y-19985D01*
X15244Y-18700D02*
X14800Y-18700D01*
X14115Y-19985D02*
X13700Y-19985D01*
X14115Y-19985D02*
X14600Y-19500D01*
X14600Y-19500D02*
X14600Y-18900D01*
X14600Y-18900D02*
X14800Y-18700D01*
X13084Y-20300D02*
X14030Y-20300D01*
X15030Y-19300D02*
X15244Y-19300D01*
X14030Y-20300D02*
X15030Y-19300D01*
X16658Y-22900D02*
X16725Y-22833D01*
X15756Y-22300D02*
X15756Y-22900D01*
X15756Y-22900D02*
X16658Y-22900D01*
X17042Y-20700D02*
X17475Y-20267D01*
X16100Y-20700D02*
X17042Y-20700D01*
X15756Y-21044D02*
X16100Y-20700D01*
X16667Y-21967D02*
X17100Y-21967D01*
X16400Y-21700D02*
X16667Y-21967D01*
X15756Y-21100D02*
X15756Y-21700D01*
X15756Y-21700D02*
X16400Y-21700D01*
X15756Y-21100D02*
X15756Y-21044D01*
X16493Y-20500D02*
X16726Y-20267D01*
X15756Y-20500D02*
X16493Y-20500D01*
X15756Y-16900D02*
X15756Y-17500D01*
X10819Y-13400D02*
X10500Y-13400D01*
X10500Y-13400D02*
X10400Y-13300D01*
X16244Y-14650D02*
X13300Y-14650D01*
X13300Y-14650D02*
X12850Y-14200D01*
X16244Y-14650D02*
X16244Y-14738D01*
X16244Y-14738D02*
X16756Y-15250D01*
X11006Y-12250D02*
X11006Y-12819D01*
X11006Y-12819D02*
X10819Y-13006D01*
X11006Y-12250D02*
X11494Y-12250D01*
X15453Y-13203D02*
X15700Y-13450D01*
X11981Y-13203D02*
X15453Y-13203D01*
X15700Y-13450D02*
X16244Y-13450D01*
X19200Y-13400D02*
X18250Y-13400D01*
X17206Y-13000D02*
X16756Y-13450D01*
X17850Y-13000D02*
X17206Y-13000D01*
X18250Y-13400D02*
X17850Y-13000D01*
X16050Y-14050D02*
X16244Y-14050D01*
X15400Y-13400D02*
X16050Y-14050D01*
X11981Y-13400D02*
X15400Y-13400D01*
X17600Y-14750D02*
X18300Y-14750D01*
X16900Y-14050D02*
X17600Y-14750D01*
X16756Y-14050D02*
X16900Y-14050D01*
X18950Y-14100D02*
X19200Y-14100D01*
X18300Y-14750D02*
X18950Y-14100D01*
X16244Y-12850D02*
X15750Y-12850D01*
X15750Y-12850D02*
X15550Y-12650D01*
G54D20*
X11500Y-12800D02*
X11500Y-13700D01*
X11400Y-12800D02*
X11400Y-13700D01*
X11300Y-12800D02*
X11300Y-13700D01*
X11300Y-13700D02*
X11500Y-13700D01*
X11300Y-13600D02*
X11500Y-13600D01*
X11300Y-13500D02*
X11500Y-13500D01*
X11300Y-13400D02*
X11500Y-13400D01*
X11300Y-13300D02*
X11500Y-13300D01*
X11300Y-13200D02*
X11500Y-13200D01*
X11300Y-13100D02*
X11500Y-13100D01*
X11300Y-13000D02*
X11500Y-13000D01*
X11300Y-12900D02*
X11500Y-12900D01*
X11300Y-12800D02*
X11500Y-12800D01*
M02*
