G04 (Genere par PCBnew (20080825c)) le 17/12/2010-15:33:38*
G01*
G70*
G90*
%MOIN*%
G04 Gerber Fmt 3.4, Leading zero omitted, Abs format*
%FSLAX34Y34*%
G04 APERTURE LIST*
%ADD10C,0.015000*%
%ADD11R,0.060000X0.060000*%
%ADD12C,0.060000*%
%ADD13C,0.035400*%
%ADD14C,0.027000*%
%ADD15C,0.036000*%
%ADD16C,0.008000*%
%ADD17C,0.026000*%
%ADD18C,0.010000*%
%ADD19R,0.137800X0.063000*%
%ADD20R,0.181100X0.039400*%
%ADD21R,0.010000X0.060000*%
%ADD22R,0.060000X0.010000*%
%ADD23R,0.027600X0.035400*%
%ADD24R,0.035400X0.027600*%
%ADD25R,0.025000X0.045000*%
%ADD26R,0.059100X0.047200*%
%ADD27R,0.074800X0.043300*%
%ADD28R,0.039400X0.055100*%
%ADD29R,0.039400X0.039400*%
%ADD30R,0.098400X0.039400*%
%ADD31R,0.033500X0.011000*%
%ADD32R,0.039400X0.118100*%
%ADD33R,0.098400X0.019700*%
%ADD34R,0.098400X0.078700*%
%ADD35R,0.094500X0.078700*%
%ADD36R,0.068900X0.027600*%
%ADD37R,0.059100X0.051200*%
%ADD38R,0.059100X0.059100*%
%ADD39R,0.059100X0.031500*%
%ADD40R,0.039400X0.059100*%
%ADD41R,0.061000X0.039400*%
%ADD42R,0.055100X0.031500*%
%ADD43R,0.019700X0.047200*%
%ADD44C,0.016000*%
%ADD45C,0.032000*%
%ADD46C,0.006000*%
%ADD47C,0.012000*%
%ADD48C,0.005000*%
%ADD49C,0.003900*%
%ADD50C,0.001000*%
G04 APERTURE END LIST*
G54D10*
X49000Y-31000D02*
X11000Y-31000D01*
X11000Y-10000D02*
X49000Y-10000D01*
X50000Y-11000D02*
X50000Y-30000D01*
X10000Y-11000D02*
X10000Y-30000D01*
X10000Y-30000D02*
X10022Y-30208D01*
X10022Y-30208D02*
X10086Y-30407D01*
X10086Y-30407D02*
X10191Y-30588D01*
X10191Y-30588D02*
X10331Y-30743D01*
X10331Y-30743D02*
X10500Y-30866D01*
X10500Y-30866D02*
X10691Y-30951D01*
X10691Y-30951D02*
X10895Y-30995D01*
X10895Y-30995D02*
X11000Y-31000D01*
X49000Y-31000D02*
X49208Y-30978D01*
X49208Y-30978D02*
X49407Y-30914D01*
X49407Y-30914D02*
X49588Y-30809D01*
X49588Y-30809D02*
X49743Y-30669D01*
X49743Y-30669D02*
X49866Y-30500D01*
X49866Y-30500D02*
X49951Y-30309D01*
X49951Y-30309D02*
X49995Y-30105D01*
X49995Y-30105D02*
X50000Y-30000D01*
X50000Y-11000D02*
X49978Y-10792D01*
X49978Y-10792D02*
X49914Y-10593D01*
X49914Y-10593D02*
X49809Y-10412D01*
X49809Y-10412D02*
X49669Y-10257D01*
X49669Y-10257D02*
X49500Y-10134D01*
X49500Y-10134D02*
X49309Y-10049D01*
X49309Y-10049D02*
X49105Y-10005D01*
X49105Y-10005D02*
X49000Y-10000D01*
X11000Y-10000D02*
X10792Y-10022D01*
X10792Y-10022D02*
X10593Y-10086D01*
X10593Y-10086D02*
X10412Y-10191D01*
X10412Y-10191D02*
X10257Y-10331D01*
X10257Y-10331D02*
X10134Y-10500D01*
X10134Y-10500D02*
X10049Y-10691D01*
X10049Y-10691D02*
X10005Y-10895D01*
X10005Y-10895D02*
X10000Y-11000D01*
G54D46*
X14500Y-10500D02*
X14500Y-11500D01*
X14500Y-11500D02*
X12500Y-11500D01*
X12500Y-11500D02*
X12500Y-10500D01*
X12500Y-10500D02*
X14500Y-10500D01*
G54D47*
X18500Y-24500D02*
X18500Y-20500D01*
X18500Y-20500D02*
X20500Y-20500D01*
X20500Y-20500D02*
X20500Y-24500D01*
X20500Y-24500D02*
X18500Y-24500D01*
G54D18*
X21532Y-18503D02*
X21532Y-12497D01*
X21532Y-12497D02*
X22468Y-12497D01*
X22468Y-12497D02*
X22468Y-18503D01*
X22468Y-18503D02*
X21532Y-18503D01*
G54D48*
X13377Y-17109D02*
X13377Y-16992D01*
X13260Y-14769D02*
X13416Y-14769D01*
X13338Y-14847D02*
X13338Y-14691D01*
X13455Y-14613D02*
X12519Y-14613D01*
X12519Y-14613D02*
X12519Y-14769D01*
X13455Y-17187D02*
X12519Y-17187D01*
X12519Y-17187D02*
X12519Y-14652D01*
X13455Y-14301D02*
X13455Y-14613D01*
X13455Y-17499D02*
X13455Y-17187D01*
X10491Y-17499D02*
X10491Y-14301D01*
X10491Y-17499D02*
X13455Y-17499D01*
X10491Y-14301D02*
X13455Y-14301D01*
G54D47*
X25200Y-23750D02*
X25166Y-23875D01*
X25166Y-23875D02*
X25075Y-23966D01*
X25075Y-23966D02*
X24950Y-24000D01*
X24950Y-24000D02*
X24825Y-23966D01*
X24825Y-23966D02*
X24734Y-23875D01*
X24734Y-23875D02*
X24700Y-23750D01*
X24700Y-23750D02*
X24734Y-23625D01*
X24734Y-23625D02*
X24825Y-23534D01*
X24825Y-23534D02*
X24950Y-23500D01*
X24950Y-23500D02*
X25075Y-23534D01*
X25075Y-23534D02*
X25166Y-23625D01*
X25166Y-23625D02*
X25200Y-23750D01*
X24800Y-24200D02*
X24710Y-24200D01*
X24710Y-24200D02*
X24710Y-24500D01*
X24800Y-24500D02*
X24800Y-24200D01*
X31950Y-24500D02*
X32200Y-24250D01*
X32200Y-24250D02*
X32200Y-16750D01*
X32200Y-16750D02*
X31950Y-16500D01*
X31950Y-16500D02*
X24450Y-16500D01*
X24450Y-16500D02*
X24200Y-16750D01*
X24200Y-16750D02*
X24200Y-24250D01*
X24200Y-24250D02*
X24450Y-24500D01*
X24450Y-24500D02*
X31950Y-24500D01*
G54D48*
X39100Y-16010D02*
X38200Y-16010D01*
X38200Y-16010D02*
X38200Y-15510D01*
X38200Y-15510D02*
X39100Y-15510D01*
X39100Y-15510D02*
X39100Y-16010D01*
X38200Y-14310D02*
X39100Y-14310D01*
X39100Y-14310D02*
X39100Y-14810D01*
X39100Y-14810D02*
X38200Y-14810D01*
X38200Y-14810D02*
X38200Y-14310D01*
X28780Y-26190D02*
X27880Y-26190D01*
X27880Y-26190D02*
X27880Y-25690D01*
X27880Y-25690D02*
X28780Y-25690D01*
X28780Y-25690D02*
X28780Y-26190D01*
X30580Y-26800D02*
X30580Y-27700D01*
X30580Y-27700D02*
X30080Y-27700D01*
X30080Y-27700D02*
X30080Y-26800D01*
X30080Y-26800D02*
X30580Y-26800D01*
X40360Y-17980D02*
X39460Y-17980D01*
X39460Y-17980D02*
X39460Y-17480D01*
X39460Y-17480D02*
X40360Y-17480D01*
X40360Y-17480D02*
X40360Y-17980D01*
X39480Y-23100D02*
X40380Y-23100D01*
X40380Y-23100D02*
X40380Y-23600D01*
X40380Y-23600D02*
X39480Y-23600D01*
X39480Y-23600D02*
X39480Y-23100D01*
X35230Y-22660D02*
X36130Y-22660D01*
X36130Y-22660D02*
X36130Y-23160D01*
X36130Y-23160D02*
X35230Y-23160D01*
X35230Y-23160D02*
X35230Y-22660D01*
X33550Y-23450D02*
X33550Y-24350D01*
X33550Y-24350D02*
X33050Y-24350D01*
X33050Y-24350D02*
X33050Y-23450D01*
X33050Y-23450D02*
X33550Y-23450D01*
X33660Y-20660D02*
X33660Y-21560D01*
X33660Y-21560D02*
X33160Y-21560D01*
X33160Y-21560D02*
X33160Y-20660D01*
X33160Y-20660D02*
X33660Y-20660D01*
X34340Y-18690D02*
X34340Y-19590D01*
X34340Y-19590D02*
X33840Y-19590D01*
X33840Y-19590D02*
X33840Y-18690D01*
X33840Y-18690D02*
X34340Y-18690D01*
X32350Y-16900D02*
X32350Y-16000D01*
X32350Y-16000D02*
X32850Y-16000D01*
X32850Y-16000D02*
X32850Y-16900D01*
X32850Y-16900D02*
X32350Y-16900D01*
X27250Y-15000D02*
X28150Y-15000D01*
X28150Y-15000D02*
X28150Y-15500D01*
X28150Y-15500D02*
X27250Y-15500D01*
X27250Y-15500D02*
X27250Y-15000D01*
X24054Y-16370D02*
X24054Y-15470D01*
X24054Y-15470D02*
X24554Y-15470D01*
X24554Y-15470D02*
X24554Y-16370D01*
X24554Y-16370D02*
X24054Y-16370D01*
X29050Y-15050D02*
X29950Y-15050D01*
X29950Y-15050D02*
X29950Y-15550D01*
X29950Y-15550D02*
X29050Y-15550D01*
X29050Y-15550D02*
X29050Y-15050D01*
X22480Y-19840D02*
X22480Y-18940D01*
X22480Y-18940D02*
X22980Y-18940D01*
X22980Y-18940D02*
X22980Y-19840D01*
X22980Y-19840D02*
X22480Y-19840D01*
X22670Y-21960D02*
X22670Y-21060D01*
X22670Y-21060D02*
X23170Y-21060D01*
X23170Y-21060D02*
X23170Y-21960D01*
X23170Y-21960D02*
X22670Y-21960D01*
X22900Y-24300D02*
X22900Y-23400D01*
X22900Y-23400D02*
X23400Y-23400D01*
X23400Y-23400D02*
X23400Y-24300D01*
X23400Y-24300D02*
X22900Y-24300D01*
X31250Y-25940D02*
X30350Y-25940D01*
X30350Y-25940D02*
X30350Y-25440D01*
X30350Y-25440D02*
X31250Y-25440D01*
X31250Y-25440D02*
X31250Y-25940D01*
X15950Y-18350D02*
X15050Y-18350D01*
X15050Y-18350D02*
X15050Y-17850D01*
X15050Y-17850D02*
X15950Y-17850D01*
X15950Y-17850D02*
X15950Y-18350D01*
X15950Y-20150D02*
X15050Y-20150D01*
X15050Y-20150D02*
X15050Y-19650D01*
X15050Y-19650D02*
X15950Y-19650D01*
X15950Y-19650D02*
X15950Y-20150D01*
X15950Y-18950D02*
X15050Y-18950D01*
X15050Y-18950D02*
X15050Y-18450D01*
X15050Y-18450D02*
X15950Y-18450D01*
X15950Y-18450D02*
X15950Y-18950D01*
X15950Y-19550D02*
X15050Y-19550D01*
X15050Y-19550D02*
X15050Y-19050D01*
X15050Y-19050D02*
X15950Y-19050D01*
X15950Y-19050D02*
X15950Y-19550D01*
X15950Y-23150D02*
X15050Y-23150D01*
X15050Y-23150D02*
X15050Y-22650D01*
X15050Y-22650D02*
X15950Y-22650D01*
X15950Y-22650D02*
X15950Y-23150D01*
X15050Y-22050D02*
X15950Y-22050D01*
X15950Y-22050D02*
X15950Y-22550D01*
X15950Y-22550D02*
X15050Y-22550D01*
X15050Y-22550D02*
X15050Y-22050D01*
X15950Y-21350D02*
X15050Y-21350D01*
X15050Y-21350D02*
X15050Y-20850D01*
X15050Y-20850D02*
X15950Y-20850D01*
X15950Y-20850D02*
X15950Y-21350D01*
X15950Y-20750D02*
X15050Y-20750D01*
X15050Y-20750D02*
X15050Y-20250D01*
X15050Y-20250D02*
X15950Y-20250D01*
X15950Y-20250D02*
X15950Y-20750D01*
X15050Y-21450D02*
X15950Y-21450D01*
X15950Y-21450D02*
X15950Y-21950D01*
X15950Y-21950D02*
X15050Y-21950D01*
X15050Y-21950D02*
X15050Y-21450D01*
X15950Y-15380D02*
X15050Y-15380D01*
X15050Y-15380D02*
X15050Y-14880D01*
X15050Y-14880D02*
X15950Y-14880D01*
X15950Y-14880D02*
X15950Y-15380D01*
X15950Y-15980D02*
X15050Y-15980D01*
X15050Y-15980D02*
X15050Y-15480D01*
X15050Y-15480D02*
X15950Y-15480D01*
X15950Y-15480D02*
X15950Y-15980D01*
X11510Y-12110D02*
X12410Y-12110D01*
X12410Y-12110D02*
X12410Y-12610D01*
X12410Y-12610D02*
X11510Y-12610D01*
X11510Y-12610D02*
X11510Y-12110D01*
X15050Y-13680D02*
X15950Y-13680D01*
X15950Y-13680D02*
X15950Y-14180D01*
X15950Y-14180D02*
X15050Y-14180D01*
X15050Y-14180D02*
X15050Y-13680D01*
X15050Y-14280D02*
X15950Y-14280D01*
X15950Y-14280D02*
X15950Y-14780D01*
X15950Y-14780D02*
X15050Y-14780D01*
X15050Y-14780D02*
X15050Y-14280D01*
X15950Y-16580D02*
X15050Y-16580D01*
X15050Y-16580D02*
X15050Y-16080D01*
X15050Y-16080D02*
X15950Y-16080D01*
X15950Y-16080D02*
X15950Y-16580D01*
X10440Y-12110D02*
X11340Y-12110D01*
X11340Y-12110D02*
X11340Y-12610D01*
X11340Y-12610D02*
X10440Y-12610D01*
X10440Y-12610D02*
X10440Y-12110D01*
X20400Y-14900D02*
X19500Y-14900D01*
X19500Y-14900D02*
X19500Y-14400D01*
X19500Y-14400D02*
X20400Y-14400D01*
X20400Y-14400D02*
X20400Y-14900D01*
X20400Y-14200D02*
X19500Y-14200D01*
X19500Y-14200D02*
X19500Y-13700D01*
X19500Y-13700D02*
X20400Y-13700D01*
X20400Y-13700D02*
X20400Y-14200D01*
X13708Y-12000D02*
X13708Y-12312D01*
X13708Y-12312D02*
X13981Y-12156D01*
X13981Y-12156D02*
X13708Y-12000D01*
X13435Y-11844D02*
X13318Y-11844D01*
X13318Y-11844D02*
X13318Y-12468D01*
X13318Y-12468D02*
X13435Y-12468D01*
X13435Y-12468D02*
X14098Y-12468D01*
X14098Y-12468D02*
X14098Y-11844D01*
X14098Y-11844D02*
X13981Y-11844D01*
X13435Y-11844D02*
X13435Y-12468D01*
X13435Y-12468D02*
X13981Y-12468D01*
X13981Y-12468D02*
X13981Y-11844D01*
X13981Y-11844D02*
X13435Y-11844D01*
X27588Y-26983D02*
X27588Y-27217D01*
X28446Y-27763D02*
X28914Y-27763D01*
X29772Y-26983D02*
X29772Y-27217D01*
X28446Y-26437D02*
X28914Y-26437D01*
X16900Y-22700D02*
X16600Y-22500D01*
X17600Y-22700D02*
X16575Y-22700D01*
X16575Y-22700D02*
X16575Y-22100D01*
X16575Y-22100D02*
X17600Y-22100D01*
X17600Y-22100D02*
X17600Y-22700D01*
X17300Y-20400D02*
X17600Y-20600D01*
X16600Y-20400D02*
X17625Y-20400D01*
X17625Y-20400D02*
X17625Y-21000D01*
X17625Y-21000D02*
X16600Y-21000D01*
X16600Y-21000D02*
X16600Y-20400D01*
X17100Y-27500D02*
X16800Y-27300D01*
X17800Y-27500D02*
X16775Y-27500D01*
X16775Y-27500D02*
X16775Y-26900D01*
X16775Y-26900D02*
X17800Y-26900D01*
X17800Y-26900D02*
X17800Y-27500D01*
X32260Y-27400D02*
X31960Y-27200D01*
X32960Y-27400D02*
X31935Y-27400D01*
X31935Y-27400D02*
X31935Y-26800D01*
X31935Y-26800D02*
X32960Y-26800D01*
X32960Y-26800D02*
X32960Y-27400D01*
G54D18*
X14510Y-29571D02*
X46490Y-29571D01*
X14510Y-30429D02*
X14510Y-29571D01*
X46490Y-30429D02*
X14510Y-30429D01*
X46490Y-30429D02*
X46490Y-29571D01*
X47525Y-28456D02*
X47525Y-12466D01*
X47525Y-12466D02*
X49475Y-12466D01*
X49475Y-12466D02*
X49475Y-28495D01*
X47525Y-28456D02*
X49475Y-28456D01*
X47479Y-28495D02*
X47479Y-12544D01*
X46621Y-28495D02*
X47479Y-28495D01*
X47479Y-12544D02*
X46621Y-12544D01*
X46621Y-28495D02*
X46621Y-12583D01*
X14510Y-10571D02*
X46490Y-10571D01*
X14510Y-11429D02*
X14510Y-10571D01*
X46490Y-11429D02*
X14510Y-11429D01*
X46490Y-11429D02*
X46490Y-10571D01*
G54D48*
X15050Y-13080D02*
X15950Y-13080D01*
X15950Y-13080D02*
X15950Y-13580D01*
X15950Y-13580D02*
X15050Y-13580D01*
X15050Y-13580D02*
X15050Y-13080D01*
X16830Y-13090D02*
X17730Y-13090D01*
X17730Y-13090D02*
X17730Y-13590D01*
X17730Y-13590D02*
X16830Y-13590D01*
X16830Y-13590D02*
X16830Y-13090D01*
X36280Y-13490D02*
X37180Y-13490D01*
X37190Y-14540D02*
X36290Y-14540D01*
X36280Y-15140D02*
X37180Y-15140D01*
X37190Y-16190D02*
X36290Y-16190D01*
X19478Y-28458D02*
X18893Y-28458D01*
X19439Y-26742D02*
X18893Y-26742D01*
X18542Y-28107D02*
X18542Y-27093D01*
X18893Y-26742D02*
X18542Y-27093D01*
X18893Y-28458D02*
X18542Y-28107D01*
X19439Y-28458D02*
X20258Y-28458D01*
X20258Y-28458D02*
X20258Y-26742D01*
X20258Y-26742D02*
X19439Y-26742D01*
X19946Y-28107D02*
X19946Y-27054D01*
X20169Y-27600D02*
X20152Y-27759D01*
X20152Y-27759D02*
X20102Y-27912D01*
X20102Y-27912D02*
X20022Y-28052D01*
X20022Y-28052D02*
X19914Y-28171D01*
X19914Y-28171D02*
X19784Y-28265D01*
X19784Y-28265D02*
X19637Y-28331D01*
X19637Y-28331D02*
X19480Y-28364D01*
X19480Y-28364D02*
X19320Y-28364D01*
X19320Y-28364D02*
X19163Y-28331D01*
X19163Y-28331D02*
X19016Y-28265D01*
X19016Y-28265D02*
X18886Y-28171D01*
X18886Y-28171D02*
X18778Y-28052D01*
X18778Y-28052D02*
X18698Y-27912D01*
X18698Y-27912D02*
X18648Y-27759D01*
X18648Y-27759D02*
X18631Y-27600D01*
X18631Y-27600D02*
X18648Y-27441D01*
X18648Y-27441D02*
X18698Y-27288D01*
X18698Y-27288D02*
X18778Y-27148D01*
X18778Y-27148D02*
X18886Y-27029D01*
X18886Y-27029D02*
X19016Y-26935D01*
X19016Y-26935D02*
X19163Y-26869D01*
X19163Y-26869D02*
X19320Y-26836D01*
X19320Y-26836D02*
X19480Y-26836D01*
X19480Y-26836D02*
X19637Y-26869D01*
X19637Y-26869D02*
X19784Y-26935D01*
X19784Y-26935D02*
X19914Y-27029D01*
X19914Y-27029D02*
X20022Y-27148D01*
X20022Y-27148D02*
X20102Y-27288D01*
X20102Y-27288D02*
X20152Y-27441D01*
X20152Y-27441D02*
X20169Y-27600D01*
X17178Y-26308D02*
X16593Y-26308D01*
X17139Y-24592D02*
X16593Y-24592D01*
X16242Y-25957D02*
X16242Y-24943D01*
X16593Y-24592D02*
X16242Y-24943D01*
X16593Y-26308D02*
X16242Y-25957D01*
X17139Y-26308D02*
X17958Y-26308D01*
X17958Y-26308D02*
X17958Y-24592D01*
X17958Y-24592D02*
X17139Y-24592D01*
X17646Y-25957D02*
X17646Y-24904D01*
X17869Y-25450D02*
X17852Y-25609D01*
X17852Y-25609D02*
X17802Y-25762D01*
X17802Y-25762D02*
X17722Y-25902D01*
X17722Y-25902D02*
X17614Y-26021D01*
X17614Y-26021D02*
X17484Y-26115D01*
X17484Y-26115D02*
X17337Y-26181D01*
X17337Y-26181D02*
X17180Y-26214D01*
X17180Y-26214D02*
X17020Y-26214D01*
X17020Y-26214D02*
X16863Y-26181D01*
X16863Y-26181D02*
X16716Y-26115D01*
X16716Y-26115D02*
X16586Y-26021D01*
X16586Y-26021D02*
X16478Y-25902D01*
X16478Y-25902D02*
X16398Y-25762D01*
X16398Y-25762D02*
X16348Y-25609D01*
X16348Y-25609D02*
X16331Y-25450D01*
X16331Y-25450D02*
X16348Y-25291D01*
X16348Y-25291D02*
X16398Y-25138D01*
X16398Y-25138D02*
X16478Y-24998D01*
X16478Y-24998D02*
X16586Y-24879D01*
X16586Y-24879D02*
X16716Y-24785D01*
X16716Y-24785D02*
X16863Y-24719D01*
X16863Y-24719D02*
X17020Y-24686D01*
X17020Y-24686D02*
X17180Y-24686D01*
X17180Y-24686D02*
X17337Y-24719D01*
X17337Y-24719D02*
X17484Y-24785D01*
X17484Y-24785D02*
X17614Y-24879D01*
X17614Y-24879D02*
X17722Y-24998D01*
X17722Y-24998D02*
X17802Y-25138D01*
X17802Y-25138D02*
X17852Y-25291D01*
X17852Y-25291D02*
X17869Y-25450D01*
X34578Y-28358D02*
X33993Y-28358D01*
X34539Y-26642D02*
X33993Y-26642D01*
X33642Y-28007D02*
X33642Y-26993D01*
X33993Y-26642D02*
X33642Y-26993D01*
X33993Y-28358D02*
X33642Y-28007D01*
X34539Y-28358D02*
X35358Y-28358D01*
X35358Y-28358D02*
X35358Y-26642D01*
X35358Y-26642D02*
X34539Y-26642D01*
X35046Y-28007D02*
X35046Y-26954D01*
X35269Y-27500D02*
X35252Y-27659D01*
X35252Y-27659D02*
X35202Y-27812D01*
X35202Y-27812D02*
X35122Y-27952D01*
X35122Y-27952D02*
X35014Y-28071D01*
X35014Y-28071D02*
X34884Y-28165D01*
X34884Y-28165D02*
X34737Y-28231D01*
X34737Y-28231D02*
X34580Y-28264D01*
X34580Y-28264D02*
X34420Y-28264D01*
X34420Y-28264D02*
X34263Y-28231D01*
X34263Y-28231D02*
X34116Y-28165D01*
X34116Y-28165D02*
X33986Y-28071D01*
X33986Y-28071D02*
X33878Y-27952D01*
X33878Y-27952D02*
X33798Y-27812D01*
X33798Y-27812D02*
X33748Y-27659D01*
X33748Y-27659D02*
X33731Y-27500D01*
X33731Y-27500D02*
X33748Y-27341D01*
X33748Y-27341D02*
X33798Y-27188D01*
X33798Y-27188D02*
X33878Y-27048D01*
X33878Y-27048D02*
X33986Y-26929D01*
X33986Y-26929D02*
X34116Y-26835D01*
X34116Y-26835D02*
X34263Y-26769D01*
X34263Y-26769D02*
X34420Y-26736D01*
X34420Y-26736D02*
X34580Y-26736D01*
X34580Y-26736D02*
X34737Y-26769D01*
X34737Y-26769D02*
X34884Y-26835D01*
X34884Y-26835D02*
X35014Y-26929D01*
X35014Y-26929D02*
X35122Y-27048D01*
X35122Y-27048D02*
X35202Y-27188D01*
X35202Y-27188D02*
X35252Y-27341D01*
X35252Y-27341D02*
X35269Y-27500D01*
X27710Y-25960D02*
X26810Y-25960D01*
X26810Y-25960D02*
X26810Y-25460D01*
X26810Y-25460D02*
X27710Y-25460D01*
X27710Y-25460D02*
X27710Y-25960D01*
X13234Y-21107D02*
X13234Y-21540D01*
X13234Y-18981D02*
X13234Y-19453D01*
X11265Y-21737D02*
X12250Y-21737D01*
X11265Y-18823D02*
X12250Y-18823D01*
X10084Y-18823D02*
X09691Y-18823D01*
X09691Y-18823D02*
X09691Y-21737D01*
X09691Y-21737D02*
X10084Y-21737D01*
G54D49*
X12454Y-24220D02*
X12454Y-27613D01*
X12454Y-27613D02*
X13234Y-27613D01*
X13234Y-27613D02*
X13234Y-24220D01*
X13234Y-24220D02*
X12454Y-24220D01*
X14833Y-25390D02*
X14170Y-25390D01*
X14170Y-25390D02*
X14170Y-26404D01*
X14170Y-26404D02*
X14872Y-26404D01*
X10309Y-27730D02*
X10309Y-27964D01*
X13351Y-28588D02*
X11011Y-28588D01*
X14248Y-28588D02*
X14209Y-28588D01*
X13039Y-23791D02*
X11011Y-23791D01*
X14872Y-28042D02*
X14872Y-23791D01*
X14872Y-23791D02*
X14521Y-23791D01*
G54D16*
X36940Y-21790D02*
X36913Y-21890D01*
X36913Y-21890D02*
X36840Y-21963D01*
X36840Y-21963D02*
X36740Y-21990D01*
X36740Y-21990D02*
X36640Y-21963D01*
X36640Y-21963D02*
X36567Y-21890D01*
X36567Y-21890D02*
X36540Y-21790D01*
X36540Y-21790D02*
X36567Y-21690D01*
X36567Y-21690D02*
X36640Y-21617D01*
X36640Y-21617D02*
X36740Y-21590D01*
X36740Y-21590D02*
X36840Y-21617D01*
X36840Y-21617D02*
X36913Y-21690D01*
X36913Y-21690D02*
X36940Y-21790D01*
X43365Y-22115D02*
X43365Y-18965D01*
X36415Y-18965D02*
X43365Y-18965D01*
X36415Y-18965D02*
X36415Y-22115D01*
X43365Y-22115D02*
X36415Y-22115D01*
G54D48*
X18410Y-15444D02*
X18410Y-15756D01*
X18410Y-15756D02*
X18683Y-15600D01*
X18683Y-15600D02*
X18410Y-15444D01*
X18137Y-15288D02*
X18020Y-15288D01*
X18020Y-15288D02*
X18020Y-15912D01*
X18020Y-15912D02*
X18137Y-15912D01*
X18137Y-15912D02*
X18800Y-15912D01*
X18800Y-15912D02*
X18800Y-15288D01*
X18800Y-15288D02*
X18683Y-15288D01*
X18137Y-15288D02*
X18137Y-15912D01*
X18137Y-15912D02*
X18683Y-15912D01*
X18683Y-15912D02*
X18683Y-15288D01*
X18683Y-15288D02*
X18137Y-15288D01*
X18400Y-16214D02*
X18400Y-16526D01*
X18400Y-16526D02*
X18673Y-16370D01*
X18673Y-16370D02*
X18400Y-16214D01*
X18127Y-16058D02*
X18010Y-16058D01*
X18010Y-16058D02*
X18010Y-16682D01*
X18010Y-16682D02*
X18127Y-16682D01*
X18127Y-16682D02*
X18790Y-16682D01*
X18790Y-16682D02*
X18790Y-16058D01*
X18790Y-16058D02*
X18673Y-16058D01*
X18127Y-16058D02*
X18127Y-16682D01*
X18127Y-16682D02*
X18673Y-16682D01*
X18673Y-16682D02*
X18673Y-16058D01*
X18673Y-16058D02*
X18127Y-16058D01*
X15950Y-17750D02*
X15050Y-17750D01*
X15050Y-17750D02*
X15050Y-17250D01*
X15050Y-17250D02*
X15950Y-17250D01*
X15950Y-17250D02*
X15950Y-17750D01*
X15050Y-16670D02*
X15950Y-16670D01*
X15950Y-16670D02*
X15950Y-17170D01*
X15950Y-17170D02*
X15050Y-17170D01*
X15050Y-17170D02*
X15050Y-16670D01*
G54D50*
X14300Y-10700D02*
X14300Y-11300D01*
X14300Y-11300D02*
X13700Y-11300D01*
X13700Y-11300D02*
X13700Y-10700D01*
X13700Y-10700D02*
X14300Y-10700D01*
X13300Y-11000D02*
X13293Y-11062D01*
X13293Y-11062D02*
X13274Y-11122D01*
X13274Y-11122D02*
X13242Y-11176D01*
X13242Y-11176D02*
X13200Y-11222D01*
X13200Y-11222D02*
X13150Y-11259D01*
X13150Y-11259D02*
X13092Y-11285D01*
X13092Y-11285D02*
X13031Y-11298D01*
X13031Y-11298D02*
X12969Y-11298D01*
X12969Y-11298D02*
X12908Y-11285D01*
X12908Y-11285D02*
X12850Y-11259D01*
X12850Y-11259D02*
X12800Y-11222D01*
X12800Y-11222D02*
X12758Y-11176D01*
X12758Y-11176D02*
X12726Y-11122D01*
X12726Y-11122D02*
X12707Y-11062D01*
X12707Y-11062D02*
X12700Y-11000D01*
X12700Y-11000D02*
X12707Y-10938D01*
X12707Y-10938D02*
X12726Y-10878D01*
X12726Y-10878D02*
X12758Y-10824D01*
X12758Y-10824D02*
X12800Y-10778D01*
X12800Y-10778D02*
X12850Y-10741D01*
X12850Y-10741D02*
X12908Y-10715D01*
X12908Y-10715D02*
X12969Y-10702D01*
X12969Y-10702D02*
X13031Y-10702D01*
X13031Y-10702D02*
X13092Y-10715D01*
X13092Y-10715D02*
X13150Y-10741D01*
X13150Y-10741D02*
X13200Y-10778D01*
X13200Y-10778D02*
X13242Y-10824D01*
X13242Y-10824D02*
X13274Y-10878D01*
X13274Y-10878D02*
X13293Y-10938D01*
X13293Y-10938D02*
X13300Y-11000D01*
X20300Y-24300D02*
X19700Y-24300D01*
X19700Y-24300D02*
X19700Y-23700D01*
X19700Y-23700D02*
X20300Y-23700D01*
X20300Y-23700D02*
X20300Y-24300D01*
X19300Y-24000D02*
X19293Y-24062D01*
X19293Y-24062D02*
X19274Y-24122D01*
X19274Y-24122D02*
X19242Y-24176D01*
X19242Y-24176D02*
X19200Y-24222D01*
X19200Y-24222D02*
X19150Y-24259D01*
X19150Y-24259D02*
X19092Y-24285D01*
X19092Y-24285D02*
X19031Y-24298D01*
X19031Y-24298D02*
X18969Y-24298D01*
X18969Y-24298D02*
X18908Y-24285D01*
X18908Y-24285D02*
X18850Y-24259D01*
X18850Y-24259D02*
X18800Y-24222D01*
X18800Y-24222D02*
X18758Y-24176D01*
X18758Y-24176D02*
X18726Y-24122D01*
X18726Y-24122D02*
X18707Y-24062D01*
X18707Y-24062D02*
X18700Y-24000D01*
X18700Y-24000D02*
X18707Y-23938D01*
X18707Y-23938D02*
X18726Y-23878D01*
X18726Y-23878D02*
X18758Y-23824D01*
X18758Y-23824D02*
X18800Y-23778D01*
X18800Y-23778D02*
X18850Y-23741D01*
X18850Y-23741D02*
X18908Y-23715D01*
X18908Y-23715D02*
X18969Y-23702D01*
X18969Y-23702D02*
X19031Y-23702D01*
X19031Y-23702D02*
X19092Y-23715D01*
X19092Y-23715D02*
X19150Y-23741D01*
X19150Y-23741D02*
X19200Y-23778D01*
X19200Y-23778D02*
X19242Y-23824D01*
X19242Y-23824D02*
X19274Y-23878D01*
X19274Y-23878D02*
X19293Y-23938D01*
X19293Y-23938D02*
X19300Y-24000D01*
X20300Y-23000D02*
X20293Y-23062D01*
X20293Y-23062D02*
X20274Y-23122D01*
X20274Y-23122D02*
X20242Y-23176D01*
X20242Y-23176D02*
X20200Y-23222D01*
X20200Y-23222D02*
X20150Y-23259D01*
X20150Y-23259D02*
X20092Y-23285D01*
X20092Y-23285D02*
X20031Y-23298D01*
X20031Y-23298D02*
X19969Y-23298D01*
X19969Y-23298D02*
X19908Y-23285D01*
X19908Y-23285D02*
X19850Y-23259D01*
X19850Y-23259D02*
X19800Y-23222D01*
X19800Y-23222D02*
X19758Y-23176D01*
X19758Y-23176D02*
X19726Y-23122D01*
X19726Y-23122D02*
X19707Y-23062D01*
X19707Y-23062D02*
X19700Y-23000D01*
X19700Y-23000D02*
X19707Y-22938D01*
X19707Y-22938D02*
X19726Y-22878D01*
X19726Y-22878D02*
X19758Y-22824D01*
X19758Y-22824D02*
X19800Y-22778D01*
X19800Y-22778D02*
X19850Y-22741D01*
X19850Y-22741D02*
X19908Y-22715D01*
X19908Y-22715D02*
X19969Y-22702D01*
X19969Y-22702D02*
X20031Y-22702D01*
X20031Y-22702D02*
X20092Y-22715D01*
X20092Y-22715D02*
X20150Y-22741D01*
X20150Y-22741D02*
X20200Y-22778D01*
X20200Y-22778D02*
X20242Y-22824D01*
X20242Y-22824D02*
X20274Y-22878D01*
X20274Y-22878D02*
X20293Y-22938D01*
X20293Y-22938D02*
X20300Y-23000D01*
X19300Y-23000D02*
X19293Y-23062D01*
X19293Y-23062D02*
X19274Y-23122D01*
X19274Y-23122D02*
X19242Y-23176D01*
X19242Y-23176D02*
X19200Y-23222D01*
X19200Y-23222D02*
X19150Y-23259D01*
X19150Y-23259D02*
X19092Y-23285D01*
X19092Y-23285D02*
X19031Y-23298D01*
X19031Y-23298D02*
X18969Y-23298D01*
X18969Y-23298D02*
X18908Y-23285D01*
X18908Y-23285D02*
X18850Y-23259D01*
X18850Y-23259D02*
X18800Y-23222D01*
X18800Y-23222D02*
X18758Y-23176D01*
X18758Y-23176D02*
X18726Y-23122D01*
X18726Y-23122D02*
X18707Y-23062D01*
X18707Y-23062D02*
X18700Y-23000D01*
X18700Y-23000D02*
X18707Y-22938D01*
X18707Y-22938D02*
X18726Y-22878D01*
X18726Y-22878D02*
X18758Y-22824D01*
X18758Y-22824D02*
X18800Y-22778D01*
X18800Y-22778D02*
X18850Y-22741D01*
X18850Y-22741D02*
X18908Y-22715D01*
X18908Y-22715D02*
X18969Y-22702D01*
X18969Y-22702D02*
X19031Y-22702D01*
X19031Y-22702D02*
X19092Y-22715D01*
X19092Y-22715D02*
X19150Y-22741D01*
X19150Y-22741D02*
X19200Y-22778D01*
X19200Y-22778D02*
X19242Y-22824D01*
X19242Y-22824D02*
X19274Y-22878D01*
X19274Y-22878D02*
X19293Y-22938D01*
X19293Y-22938D02*
X19300Y-23000D01*
X20300Y-22000D02*
X20293Y-22062D01*
X20293Y-22062D02*
X20274Y-22122D01*
X20274Y-22122D02*
X20242Y-22176D01*
X20242Y-22176D02*
X20200Y-22222D01*
X20200Y-22222D02*
X20150Y-22259D01*
X20150Y-22259D02*
X20092Y-22285D01*
X20092Y-22285D02*
X20031Y-22298D01*
X20031Y-22298D02*
X19969Y-22298D01*
X19969Y-22298D02*
X19908Y-22285D01*
X19908Y-22285D02*
X19850Y-22259D01*
X19850Y-22259D02*
X19800Y-22222D01*
X19800Y-22222D02*
X19758Y-22176D01*
X19758Y-22176D02*
X19726Y-22122D01*
X19726Y-22122D02*
X19707Y-22062D01*
X19707Y-22062D02*
X19700Y-22000D01*
X19700Y-22000D02*
X19707Y-21938D01*
X19707Y-21938D02*
X19726Y-21878D01*
X19726Y-21878D02*
X19758Y-21824D01*
X19758Y-21824D02*
X19800Y-21778D01*
X19800Y-21778D02*
X19850Y-21741D01*
X19850Y-21741D02*
X19908Y-21715D01*
X19908Y-21715D02*
X19969Y-21702D01*
X19969Y-21702D02*
X20031Y-21702D01*
X20031Y-21702D02*
X20092Y-21715D01*
X20092Y-21715D02*
X20150Y-21741D01*
X20150Y-21741D02*
X20200Y-21778D01*
X20200Y-21778D02*
X20242Y-21824D01*
X20242Y-21824D02*
X20274Y-21878D01*
X20274Y-21878D02*
X20293Y-21938D01*
X20293Y-21938D02*
X20300Y-22000D01*
X19300Y-22000D02*
X19293Y-22062D01*
X19293Y-22062D02*
X19274Y-22122D01*
X19274Y-22122D02*
X19242Y-22176D01*
X19242Y-22176D02*
X19200Y-22222D01*
X19200Y-22222D02*
X19150Y-22259D01*
X19150Y-22259D02*
X19092Y-22285D01*
X19092Y-22285D02*
X19031Y-22298D01*
X19031Y-22298D02*
X18969Y-22298D01*
X18969Y-22298D02*
X18908Y-22285D01*
X18908Y-22285D02*
X18850Y-22259D01*
X18850Y-22259D02*
X18800Y-22222D01*
X18800Y-22222D02*
X18758Y-22176D01*
X18758Y-22176D02*
X18726Y-22122D01*
X18726Y-22122D02*
X18707Y-22062D01*
X18707Y-22062D02*
X18700Y-22000D01*
X18700Y-22000D02*
X18707Y-21938D01*
X18707Y-21938D02*
X18726Y-21878D01*
X18726Y-21878D02*
X18758Y-21824D01*
X18758Y-21824D02*
X18800Y-21778D01*
X18800Y-21778D02*
X18850Y-21741D01*
X18850Y-21741D02*
X18908Y-21715D01*
X18908Y-21715D02*
X18969Y-21702D01*
X18969Y-21702D02*
X19031Y-21702D01*
X19031Y-21702D02*
X19092Y-21715D01*
X19092Y-21715D02*
X19150Y-21741D01*
X19150Y-21741D02*
X19200Y-21778D01*
X19200Y-21778D02*
X19242Y-21824D01*
X19242Y-21824D02*
X19274Y-21878D01*
X19274Y-21878D02*
X19293Y-21938D01*
X19293Y-21938D02*
X19300Y-22000D01*
X20300Y-21000D02*
X20293Y-21062D01*
X20293Y-21062D02*
X20274Y-21122D01*
X20274Y-21122D02*
X20242Y-21176D01*
X20242Y-21176D02*
X20200Y-21222D01*
X20200Y-21222D02*
X20150Y-21259D01*
X20150Y-21259D02*
X20092Y-21285D01*
X20092Y-21285D02*
X20031Y-21298D01*
X20031Y-21298D02*
X19969Y-21298D01*
X19969Y-21298D02*
X19908Y-21285D01*
X19908Y-21285D02*
X19850Y-21259D01*
X19850Y-21259D02*
X19800Y-21222D01*
X19800Y-21222D02*
X19758Y-21176D01*
X19758Y-21176D02*
X19726Y-21122D01*
X19726Y-21122D02*
X19707Y-21062D01*
X19707Y-21062D02*
X19700Y-21000D01*
X19700Y-21000D02*
X19707Y-20938D01*
X19707Y-20938D02*
X19726Y-20878D01*
X19726Y-20878D02*
X19758Y-20824D01*
X19758Y-20824D02*
X19800Y-20778D01*
X19800Y-20778D02*
X19850Y-20741D01*
X19850Y-20741D02*
X19908Y-20715D01*
X19908Y-20715D02*
X19969Y-20702D01*
X19969Y-20702D02*
X20031Y-20702D01*
X20031Y-20702D02*
X20092Y-20715D01*
X20092Y-20715D02*
X20150Y-20741D01*
X20150Y-20741D02*
X20200Y-20778D01*
X20200Y-20778D02*
X20242Y-20824D01*
X20242Y-20824D02*
X20274Y-20878D01*
X20274Y-20878D02*
X20293Y-20938D01*
X20293Y-20938D02*
X20300Y-21000D01*
X19300Y-21000D02*
X19293Y-21062D01*
X19293Y-21062D02*
X19274Y-21122D01*
X19274Y-21122D02*
X19242Y-21176D01*
X19242Y-21176D02*
X19200Y-21222D01*
X19200Y-21222D02*
X19150Y-21259D01*
X19150Y-21259D02*
X19092Y-21285D01*
X19092Y-21285D02*
X19031Y-21298D01*
X19031Y-21298D02*
X18969Y-21298D01*
X18969Y-21298D02*
X18908Y-21285D01*
X18908Y-21285D02*
X18850Y-21259D01*
X18850Y-21259D02*
X18800Y-21222D01*
X18800Y-21222D02*
X18758Y-21176D01*
X18758Y-21176D02*
X18726Y-21122D01*
X18726Y-21122D02*
X18707Y-21062D01*
X18707Y-21062D02*
X18700Y-21000D01*
X18700Y-21000D02*
X18707Y-20938D01*
X18707Y-20938D02*
X18726Y-20878D01*
X18726Y-20878D02*
X18758Y-20824D01*
X18758Y-20824D02*
X18800Y-20778D01*
X18800Y-20778D02*
X18850Y-20741D01*
X18850Y-20741D02*
X18908Y-20715D01*
X18908Y-20715D02*
X18969Y-20702D01*
X18969Y-20702D02*
X19031Y-20702D01*
X19031Y-20702D02*
X19092Y-20715D01*
X19092Y-20715D02*
X19150Y-20741D01*
X19150Y-20741D02*
X19200Y-20778D01*
X19200Y-20778D02*
X19242Y-20824D01*
X19242Y-20824D02*
X19274Y-20878D01*
X19274Y-20878D02*
X19293Y-20938D01*
X19293Y-20938D02*
X19300Y-21000D01*
X22300Y-18300D02*
X21700Y-18300D01*
X21700Y-18300D02*
X21700Y-17700D01*
X21700Y-17700D02*
X22300Y-17700D01*
X22300Y-17700D02*
X22300Y-18300D01*
X22300Y-17000D02*
X22293Y-17062D01*
X22293Y-17062D02*
X22274Y-17122D01*
X22274Y-17122D02*
X22242Y-17176D01*
X22242Y-17176D02*
X22200Y-17222D01*
X22200Y-17222D02*
X22150Y-17259D01*
X22150Y-17259D02*
X22092Y-17285D01*
X22092Y-17285D02*
X22031Y-17298D01*
X22031Y-17298D02*
X21969Y-17298D01*
X21969Y-17298D02*
X21908Y-17285D01*
X21908Y-17285D02*
X21850Y-17259D01*
X21850Y-17259D02*
X21800Y-17222D01*
X21800Y-17222D02*
X21758Y-17176D01*
X21758Y-17176D02*
X21726Y-17122D01*
X21726Y-17122D02*
X21707Y-17062D01*
X21707Y-17062D02*
X21700Y-17000D01*
X21700Y-17000D02*
X21707Y-16938D01*
X21707Y-16938D02*
X21726Y-16878D01*
X21726Y-16878D02*
X21758Y-16824D01*
X21758Y-16824D02*
X21800Y-16778D01*
X21800Y-16778D02*
X21850Y-16741D01*
X21850Y-16741D02*
X21908Y-16715D01*
X21908Y-16715D02*
X21969Y-16702D01*
X21969Y-16702D02*
X22031Y-16702D01*
X22031Y-16702D02*
X22092Y-16715D01*
X22092Y-16715D02*
X22150Y-16741D01*
X22150Y-16741D02*
X22200Y-16778D01*
X22200Y-16778D02*
X22242Y-16824D01*
X22242Y-16824D02*
X22274Y-16878D01*
X22274Y-16878D02*
X22293Y-16938D01*
X22293Y-16938D02*
X22300Y-17000D01*
X22300Y-16000D02*
X22293Y-16062D01*
X22293Y-16062D02*
X22274Y-16122D01*
X22274Y-16122D02*
X22242Y-16176D01*
X22242Y-16176D02*
X22200Y-16222D01*
X22200Y-16222D02*
X22150Y-16259D01*
X22150Y-16259D02*
X22092Y-16285D01*
X22092Y-16285D02*
X22031Y-16298D01*
X22031Y-16298D02*
X21969Y-16298D01*
X21969Y-16298D02*
X21908Y-16285D01*
X21908Y-16285D02*
X21850Y-16259D01*
X21850Y-16259D02*
X21800Y-16222D01*
X21800Y-16222D02*
X21758Y-16176D01*
X21758Y-16176D02*
X21726Y-16122D01*
X21726Y-16122D02*
X21707Y-16062D01*
X21707Y-16062D02*
X21700Y-16000D01*
X21700Y-16000D02*
X21707Y-15938D01*
X21707Y-15938D02*
X21726Y-15878D01*
X21726Y-15878D02*
X21758Y-15824D01*
X21758Y-15824D02*
X21800Y-15778D01*
X21800Y-15778D02*
X21850Y-15741D01*
X21850Y-15741D02*
X21908Y-15715D01*
X21908Y-15715D02*
X21969Y-15702D01*
X21969Y-15702D02*
X22031Y-15702D01*
X22031Y-15702D02*
X22092Y-15715D01*
X22092Y-15715D02*
X22150Y-15741D01*
X22150Y-15741D02*
X22200Y-15778D01*
X22200Y-15778D02*
X22242Y-15824D01*
X22242Y-15824D02*
X22274Y-15878D01*
X22274Y-15878D02*
X22293Y-15938D01*
X22293Y-15938D02*
X22300Y-16000D01*
X22300Y-15000D02*
X22293Y-15062D01*
X22293Y-15062D02*
X22274Y-15122D01*
X22274Y-15122D02*
X22242Y-15176D01*
X22242Y-15176D02*
X22200Y-15222D01*
X22200Y-15222D02*
X22150Y-15259D01*
X22150Y-15259D02*
X22092Y-15285D01*
X22092Y-15285D02*
X22031Y-15298D01*
X22031Y-15298D02*
X21969Y-15298D01*
X21969Y-15298D02*
X21908Y-15285D01*
X21908Y-15285D02*
X21850Y-15259D01*
X21850Y-15259D02*
X21800Y-15222D01*
X21800Y-15222D02*
X21758Y-15176D01*
X21758Y-15176D02*
X21726Y-15122D01*
X21726Y-15122D02*
X21707Y-15062D01*
X21707Y-15062D02*
X21700Y-15000D01*
X21700Y-15000D02*
X21707Y-14938D01*
X21707Y-14938D02*
X21726Y-14878D01*
X21726Y-14878D02*
X21758Y-14824D01*
X21758Y-14824D02*
X21800Y-14778D01*
X21800Y-14778D02*
X21850Y-14741D01*
X21850Y-14741D02*
X21908Y-14715D01*
X21908Y-14715D02*
X21969Y-14702D01*
X21969Y-14702D02*
X22031Y-14702D01*
X22031Y-14702D02*
X22092Y-14715D01*
X22092Y-14715D02*
X22150Y-14741D01*
X22150Y-14741D02*
X22200Y-14778D01*
X22200Y-14778D02*
X22242Y-14824D01*
X22242Y-14824D02*
X22274Y-14878D01*
X22274Y-14878D02*
X22293Y-14938D01*
X22293Y-14938D02*
X22300Y-15000D01*
X22300Y-14000D02*
X22293Y-14062D01*
X22293Y-14062D02*
X22274Y-14122D01*
X22274Y-14122D02*
X22242Y-14176D01*
X22242Y-14176D02*
X22200Y-14222D01*
X22200Y-14222D02*
X22150Y-14259D01*
X22150Y-14259D02*
X22092Y-14285D01*
X22092Y-14285D02*
X22031Y-14298D01*
X22031Y-14298D02*
X21969Y-14298D01*
X21969Y-14298D02*
X21908Y-14285D01*
X21908Y-14285D02*
X21850Y-14259D01*
X21850Y-14259D02*
X21800Y-14222D01*
X21800Y-14222D02*
X21758Y-14176D01*
X21758Y-14176D02*
X21726Y-14122D01*
X21726Y-14122D02*
X21707Y-14062D01*
X21707Y-14062D02*
X21700Y-14000D01*
X21700Y-14000D02*
X21707Y-13938D01*
X21707Y-13938D02*
X21726Y-13878D01*
X21726Y-13878D02*
X21758Y-13824D01*
X21758Y-13824D02*
X21800Y-13778D01*
X21800Y-13778D02*
X21850Y-13741D01*
X21850Y-13741D02*
X21908Y-13715D01*
X21908Y-13715D02*
X21969Y-13702D01*
X21969Y-13702D02*
X22031Y-13702D01*
X22031Y-13702D02*
X22092Y-13715D01*
X22092Y-13715D02*
X22150Y-13741D01*
X22150Y-13741D02*
X22200Y-13778D01*
X22200Y-13778D02*
X22242Y-13824D01*
X22242Y-13824D02*
X22274Y-13878D01*
X22274Y-13878D02*
X22293Y-13938D01*
X22293Y-13938D02*
X22300Y-14000D01*
X22300Y-13000D02*
X22293Y-13062D01*
X22293Y-13062D02*
X22274Y-13122D01*
X22274Y-13122D02*
X22242Y-13176D01*
X22242Y-13176D02*
X22200Y-13222D01*
X22200Y-13222D02*
X22150Y-13259D01*
X22150Y-13259D02*
X22092Y-13285D01*
X22092Y-13285D02*
X22031Y-13298D01*
X22031Y-13298D02*
X21969Y-13298D01*
X21969Y-13298D02*
X21908Y-13285D01*
X21908Y-13285D02*
X21850Y-13259D01*
X21850Y-13259D02*
X21800Y-13222D01*
X21800Y-13222D02*
X21758Y-13176D01*
X21758Y-13176D02*
X21726Y-13122D01*
X21726Y-13122D02*
X21707Y-13062D01*
X21707Y-13062D02*
X21700Y-13000D01*
X21700Y-13000D02*
X21707Y-12938D01*
X21707Y-12938D02*
X21726Y-12878D01*
X21726Y-12878D02*
X21758Y-12824D01*
X21758Y-12824D02*
X21800Y-12778D01*
X21800Y-12778D02*
X21850Y-12741D01*
X21850Y-12741D02*
X21908Y-12715D01*
X21908Y-12715D02*
X21969Y-12702D01*
X21969Y-12702D02*
X22031Y-12702D01*
X22031Y-12702D02*
X22092Y-12715D01*
X22092Y-12715D02*
X22150Y-12741D01*
X22150Y-12741D02*
X22200Y-12778D01*
X22200Y-12778D02*
X22242Y-12824D01*
X22242Y-12824D02*
X22274Y-12878D01*
X22274Y-12878D02*
X22293Y-12938D01*
X22293Y-12938D02*
X22300Y-13000D01*
X46300Y-29700D02*
X46300Y-30300D01*
X46300Y-30300D02*
X45700Y-30300D01*
X45700Y-30300D02*
X45700Y-29700D01*
X45700Y-29700D02*
X46300Y-29700D01*
X38300Y-30000D02*
X38293Y-30062D01*
X38293Y-30062D02*
X38274Y-30122D01*
X38274Y-30122D02*
X38242Y-30176D01*
X38242Y-30176D02*
X38200Y-30222D01*
X38200Y-30222D02*
X38150Y-30259D01*
X38150Y-30259D02*
X38092Y-30285D01*
X38092Y-30285D02*
X38031Y-30298D01*
X38031Y-30298D02*
X37969Y-30298D01*
X37969Y-30298D02*
X37908Y-30285D01*
X37908Y-30285D02*
X37850Y-30259D01*
X37850Y-30259D02*
X37800Y-30222D01*
X37800Y-30222D02*
X37758Y-30176D01*
X37758Y-30176D02*
X37726Y-30122D01*
X37726Y-30122D02*
X37707Y-30062D01*
X37707Y-30062D02*
X37700Y-30000D01*
X37700Y-30000D02*
X37707Y-29938D01*
X37707Y-29938D02*
X37726Y-29878D01*
X37726Y-29878D02*
X37758Y-29824D01*
X37758Y-29824D02*
X37800Y-29778D01*
X37800Y-29778D02*
X37850Y-29741D01*
X37850Y-29741D02*
X37908Y-29715D01*
X37908Y-29715D02*
X37969Y-29702D01*
X37969Y-29702D02*
X38031Y-29702D01*
X38031Y-29702D02*
X38092Y-29715D01*
X38092Y-29715D02*
X38150Y-29741D01*
X38150Y-29741D02*
X38200Y-29778D01*
X38200Y-29778D02*
X38242Y-29824D01*
X38242Y-29824D02*
X38274Y-29878D01*
X38274Y-29878D02*
X38293Y-29938D01*
X38293Y-29938D02*
X38300Y-30000D01*
X45300Y-30000D02*
X45293Y-30062D01*
X45293Y-30062D02*
X45274Y-30122D01*
X45274Y-30122D02*
X45242Y-30176D01*
X45242Y-30176D02*
X45200Y-30222D01*
X45200Y-30222D02*
X45150Y-30259D01*
X45150Y-30259D02*
X45092Y-30285D01*
X45092Y-30285D02*
X45031Y-30298D01*
X45031Y-30298D02*
X44969Y-30298D01*
X44969Y-30298D02*
X44908Y-30285D01*
X44908Y-30285D02*
X44850Y-30259D01*
X44850Y-30259D02*
X44800Y-30222D01*
X44800Y-30222D02*
X44758Y-30176D01*
X44758Y-30176D02*
X44726Y-30122D01*
X44726Y-30122D02*
X44707Y-30062D01*
X44707Y-30062D02*
X44700Y-30000D01*
X44700Y-30000D02*
X44707Y-29938D01*
X44707Y-29938D02*
X44726Y-29878D01*
X44726Y-29878D02*
X44758Y-29824D01*
X44758Y-29824D02*
X44800Y-29778D01*
X44800Y-29778D02*
X44850Y-29741D01*
X44850Y-29741D02*
X44908Y-29715D01*
X44908Y-29715D02*
X44969Y-29702D01*
X44969Y-29702D02*
X45031Y-29702D01*
X45031Y-29702D02*
X45092Y-29715D01*
X45092Y-29715D02*
X45150Y-29741D01*
X45150Y-29741D02*
X45200Y-29778D01*
X45200Y-29778D02*
X45242Y-29824D01*
X45242Y-29824D02*
X45274Y-29878D01*
X45274Y-29878D02*
X45293Y-29938D01*
X45293Y-29938D02*
X45300Y-30000D01*
X37300Y-30000D02*
X37293Y-30062D01*
X37293Y-30062D02*
X37274Y-30122D01*
X37274Y-30122D02*
X37242Y-30176D01*
X37242Y-30176D02*
X37200Y-30222D01*
X37200Y-30222D02*
X37150Y-30259D01*
X37150Y-30259D02*
X37092Y-30285D01*
X37092Y-30285D02*
X37031Y-30298D01*
X37031Y-30298D02*
X36969Y-30298D01*
X36969Y-30298D02*
X36908Y-30285D01*
X36908Y-30285D02*
X36850Y-30259D01*
X36850Y-30259D02*
X36800Y-30222D01*
X36800Y-30222D02*
X36758Y-30176D01*
X36758Y-30176D02*
X36726Y-30122D01*
X36726Y-30122D02*
X36707Y-30062D01*
X36707Y-30062D02*
X36700Y-30000D01*
X36700Y-30000D02*
X36707Y-29938D01*
X36707Y-29938D02*
X36726Y-29878D01*
X36726Y-29878D02*
X36758Y-29824D01*
X36758Y-29824D02*
X36800Y-29778D01*
X36800Y-29778D02*
X36850Y-29741D01*
X36850Y-29741D02*
X36908Y-29715D01*
X36908Y-29715D02*
X36969Y-29702D01*
X36969Y-29702D02*
X37031Y-29702D01*
X37031Y-29702D02*
X37092Y-29715D01*
X37092Y-29715D02*
X37150Y-29741D01*
X37150Y-29741D02*
X37200Y-29778D01*
X37200Y-29778D02*
X37242Y-29824D01*
X37242Y-29824D02*
X37274Y-29878D01*
X37274Y-29878D02*
X37293Y-29938D01*
X37293Y-29938D02*
X37300Y-30000D01*
X44300Y-30000D02*
X44293Y-30062D01*
X44293Y-30062D02*
X44274Y-30122D01*
X44274Y-30122D02*
X44242Y-30176D01*
X44242Y-30176D02*
X44200Y-30222D01*
X44200Y-30222D02*
X44150Y-30259D01*
X44150Y-30259D02*
X44092Y-30285D01*
X44092Y-30285D02*
X44031Y-30298D01*
X44031Y-30298D02*
X43969Y-30298D01*
X43969Y-30298D02*
X43908Y-30285D01*
X43908Y-30285D02*
X43850Y-30259D01*
X43850Y-30259D02*
X43800Y-30222D01*
X43800Y-30222D02*
X43758Y-30176D01*
X43758Y-30176D02*
X43726Y-30122D01*
X43726Y-30122D02*
X43707Y-30062D01*
X43707Y-30062D02*
X43700Y-30000D01*
X43700Y-30000D02*
X43707Y-29938D01*
X43707Y-29938D02*
X43726Y-29878D01*
X43726Y-29878D02*
X43758Y-29824D01*
X43758Y-29824D02*
X43800Y-29778D01*
X43800Y-29778D02*
X43850Y-29741D01*
X43850Y-29741D02*
X43908Y-29715D01*
X43908Y-29715D02*
X43969Y-29702D01*
X43969Y-29702D02*
X44031Y-29702D01*
X44031Y-29702D02*
X44092Y-29715D01*
X44092Y-29715D02*
X44150Y-29741D01*
X44150Y-29741D02*
X44200Y-29778D01*
X44200Y-29778D02*
X44242Y-29824D01*
X44242Y-29824D02*
X44274Y-29878D01*
X44274Y-29878D02*
X44293Y-29938D01*
X44293Y-29938D02*
X44300Y-30000D01*
X36300Y-30000D02*
X36293Y-30062D01*
X36293Y-30062D02*
X36274Y-30122D01*
X36274Y-30122D02*
X36242Y-30176D01*
X36242Y-30176D02*
X36200Y-30222D01*
X36200Y-30222D02*
X36150Y-30259D01*
X36150Y-30259D02*
X36092Y-30285D01*
X36092Y-30285D02*
X36031Y-30298D01*
X36031Y-30298D02*
X35969Y-30298D01*
X35969Y-30298D02*
X35908Y-30285D01*
X35908Y-30285D02*
X35850Y-30259D01*
X35850Y-30259D02*
X35800Y-30222D01*
X35800Y-30222D02*
X35758Y-30176D01*
X35758Y-30176D02*
X35726Y-30122D01*
X35726Y-30122D02*
X35707Y-30062D01*
X35707Y-30062D02*
X35700Y-30000D01*
X35700Y-30000D02*
X35707Y-29938D01*
X35707Y-29938D02*
X35726Y-29878D01*
X35726Y-29878D02*
X35758Y-29824D01*
X35758Y-29824D02*
X35800Y-29778D01*
X35800Y-29778D02*
X35850Y-29741D01*
X35850Y-29741D02*
X35908Y-29715D01*
X35908Y-29715D02*
X35969Y-29702D01*
X35969Y-29702D02*
X36031Y-29702D01*
X36031Y-29702D02*
X36092Y-29715D01*
X36092Y-29715D02*
X36150Y-29741D01*
X36150Y-29741D02*
X36200Y-29778D01*
X36200Y-29778D02*
X36242Y-29824D01*
X36242Y-29824D02*
X36274Y-29878D01*
X36274Y-29878D02*
X36293Y-29938D01*
X36293Y-29938D02*
X36300Y-30000D01*
X43300Y-30000D02*
X43293Y-30062D01*
X43293Y-30062D02*
X43274Y-30122D01*
X43274Y-30122D02*
X43242Y-30176D01*
X43242Y-30176D02*
X43200Y-30222D01*
X43200Y-30222D02*
X43150Y-30259D01*
X43150Y-30259D02*
X43092Y-30285D01*
X43092Y-30285D02*
X43031Y-30298D01*
X43031Y-30298D02*
X42969Y-30298D01*
X42969Y-30298D02*
X42908Y-30285D01*
X42908Y-30285D02*
X42850Y-30259D01*
X42850Y-30259D02*
X42800Y-30222D01*
X42800Y-30222D02*
X42758Y-30176D01*
X42758Y-30176D02*
X42726Y-30122D01*
X42726Y-30122D02*
X42707Y-30062D01*
X42707Y-30062D02*
X42700Y-30000D01*
X42700Y-30000D02*
X42707Y-29938D01*
X42707Y-29938D02*
X42726Y-29878D01*
X42726Y-29878D02*
X42758Y-29824D01*
X42758Y-29824D02*
X42800Y-29778D01*
X42800Y-29778D02*
X42850Y-29741D01*
X42850Y-29741D02*
X42908Y-29715D01*
X42908Y-29715D02*
X42969Y-29702D01*
X42969Y-29702D02*
X43031Y-29702D01*
X43031Y-29702D02*
X43092Y-29715D01*
X43092Y-29715D02*
X43150Y-29741D01*
X43150Y-29741D02*
X43200Y-29778D01*
X43200Y-29778D02*
X43242Y-29824D01*
X43242Y-29824D02*
X43274Y-29878D01*
X43274Y-29878D02*
X43293Y-29938D01*
X43293Y-29938D02*
X43300Y-30000D01*
X35300Y-30000D02*
X35293Y-30062D01*
X35293Y-30062D02*
X35274Y-30122D01*
X35274Y-30122D02*
X35242Y-30176D01*
X35242Y-30176D02*
X35200Y-30222D01*
X35200Y-30222D02*
X35150Y-30259D01*
X35150Y-30259D02*
X35092Y-30285D01*
X35092Y-30285D02*
X35031Y-30298D01*
X35031Y-30298D02*
X34969Y-30298D01*
X34969Y-30298D02*
X34908Y-30285D01*
X34908Y-30285D02*
X34850Y-30259D01*
X34850Y-30259D02*
X34800Y-30222D01*
X34800Y-30222D02*
X34758Y-30176D01*
X34758Y-30176D02*
X34726Y-30122D01*
X34726Y-30122D02*
X34707Y-30062D01*
X34707Y-30062D02*
X34700Y-30000D01*
X34700Y-30000D02*
X34707Y-29938D01*
X34707Y-29938D02*
X34726Y-29878D01*
X34726Y-29878D02*
X34758Y-29824D01*
X34758Y-29824D02*
X34800Y-29778D01*
X34800Y-29778D02*
X34850Y-29741D01*
X34850Y-29741D02*
X34908Y-29715D01*
X34908Y-29715D02*
X34969Y-29702D01*
X34969Y-29702D02*
X35031Y-29702D01*
X35031Y-29702D02*
X35092Y-29715D01*
X35092Y-29715D02*
X35150Y-29741D01*
X35150Y-29741D02*
X35200Y-29778D01*
X35200Y-29778D02*
X35242Y-29824D01*
X35242Y-29824D02*
X35274Y-29878D01*
X35274Y-29878D02*
X35293Y-29938D01*
X35293Y-29938D02*
X35300Y-30000D01*
X42300Y-30000D02*
X42293Y-30062D01*
X42293Y-30062D02*
X42274Y-30122D01*
X42274Y-30122D02*
X42242Y-30176D01*
X42242Y-30176D02*
X42200Y-30222D01*
X42200Y-30222D02*
X42150Y-30259D01*
X42150Y-30259D02*
X42092Y-30285D01*
X42092Y-30285D02*
X42031Y-30298D01*
X42031Y-30298D02*
X41969Y-30298D01*
X41969Y-30298D02*
X41908Y-30285D01*
X41908Y-30285D02*
X41850Y-30259D01*
X41850Y-30259D02*
X41800Y-30222D01*
X41800Y-30222D02*
X41758Y-30176D01*
X41758Y-30176D02*
X41726Y-30122D01*
X41726Y-30122D02*
X41707Y-30062D01*
X41707Y-30062D02*
X41700Y-30000D01*
X41700Y-30000D02*
X41707Y-29938D01*
X41707Y-29938D02*
X41726Y-29878D01*
X41726Y-29878D02*
X41758Y-29824D01*
X41758Y-29824D02*
X41800Y-29778D01*
X41800Y-29778D02*
X41850Y-29741D01*
X41850Y-29741D02*
X41908Y-29715D01*
X41908Y-29715D02*
X41969Y-29702D01*
X41969Y-29702D02*
X42031Y-29702D01*
X42031Y-29702D02*
X42092Y-29715D01*
X42092Y-29715D02*
X42150Y-29741D01*
X42150Y-29741D02*
X42200Y-29778D01*
X42200Y-29778D02*
X42242Y-29824D01*
X42242Y-29824D02*
X42274Y-29878D01*
X42274Y-29878D02*
X42293Y-29938D01*
X42293Y-29938D02*
X42300Y-30000D01*
X34300Y-30000D02*
X34293Y-30062D01*
X34293Y-30062D02*
X34274Y-30122D01*
X34274Y-30122D02*
X34242Y-30176D01*
X34242Y-30176D02*
X34200Y-30222D01*
X34200Y-30222D02*
X34150Y-30259D01*
X34150Y-30259D02*
X34092Y-30285D01*
X34092Y-30285D02*
X34031Y-30298D01*
X34031Y-30298D02*
X33969Y-30298D01*
X33969Y-30298D02*
X33908Y-30285D01*
X33908Y-30285D02*
X33850Y-30259D01*
X33850Y-30259D02*
X33800Y-30222D01*
X33800Y-30222D02*
X33758Y-30176D01*
X33758Y-30176D02*
X33726Y-30122D01*
X33726Y-30122D02*
X33707Y-30062D01*
X33707Y-30062D02*
X33700Y-30000D01*
X33700Y-30000D02*
X33707Y-29938D01*
X33707Y-29938D02*
X33726Y-29878D01*
X33726Y-29878D02*
X33758Y-29824D01*
X33758Y-29824D02*
X33800Y-29778D01*
X33800Y-29778D02*
X33850Y-29741D01*
X33850Y-29741D02*
X33908Y-29715D01*
X33908Y-29715D02*
X33969Y-29702D01*
X33969Y-29702D02*
X34031Y-29702D01*
X34031Y-29702D02*
X34092Y-29715D01*
X34092Y-29715D02*
X34150Y-29741D01*
X34150Y-29741D02*
X34200Y-29778D01*
X34200Y-29778D02*
X34242Y-29824D01*
X34242Y-29824D02*
X34274Y-29878D01*
X34274Y-29878D02*
X34293Y-29938D01*
X34293Y-29938D02*
X34300Y-30000D01*
X41300Y-30000D02*
X41293Y-30062D01*
X41293Y-30062D02*
X41274Y-30122D01*
X41274Y-30122D02*
X41242Y-30176D01*
X41242Y-30176D02*
X41200Y-30222D01*
X41200Y-30222D02*
X41150Y-30259D01*
X41150Y-30259D02*
X41092Y-30285D01*
X41092Y-30285D02*
X41031Y-30298D01*
X41031Y-30298D02*
X40969Y-30298D01*
X40969Y-30298D02*
X40908Y-30285D01*
X40908Y-30285D02*
X40850Y-30259D01*
X40850Y-30259D02*
X40800Y-30222D01*
X40800Y-30222D02*
X40758Y-30176D01*
X40758Y-30176D02*
X40726Y-30122D01*
X40726Y-30122D02*
X40707Y-30062D01*
X40707Y-30062D02*
X40700Y-30000D01*
X40700Y-30000D02*
X40707Y-29938D01*
X40707Y-29938D02*
X40726Y-29878D01*
X40726Y-29878D02*
X40758Y-29824D01*
X40758Y-29824D02*
X40800Y-29778D01*
X40800Y-29778D02*
X40850Y-29741D01*
X40850Y-29741D02*
X40908Y-29715D01*
X40908Y-29715D02*
X40969Y-29702D01*
X40969Y-29702D02*
X41031Y-29702D01*
X41031Y-29702D02*
X41092Y-29715D01*
X41092Y-29715D02*
X41150Y-29741D01*
X41150Y-29741D02*
X41200Y-29778D01*
X41200Y-29778D02*
X41242Y-29824D01*
X41242Y-29824D02*
X41274Y-29878D01*
X41274Y-29878D02*
X41293Y-29938D01*
X41293Y-29938D02*
X41300Y-30000D01*
X33300Y-30000D02*
X33293Y-30062D01*
X33293Y-30062D02*
X33274Y-30122D01*
X33274Y-30122D02*
X33242Y-30176D01*
X33242Y-30176D02*
X33200Y-30222D01*
X33200Y-30222D02*
X33150Y-30259D01*
X33150Y-30259D02*
X33092Y-30285D01*
X33092Y-30285D02*
X33031Y-30298D01*
X33031Y-30298D02*
X32969Y-30298D01*
X32969Y-30298D02*
X32908Y-30285D01*
X32908Y-30285D02*
X32850Y-30259D01*
X32850Y-30259D02*
X32800Y-30222D01*
X32800Y-30222D02*
X32758Y-30176D01*
X32758Y-30176D02*
X32726Y-30122D01*
X32726Y-30122D02*
X32707Y-30062D01*
X32707Y-30062D02*
X32700Y-30000D01*
X32700Y-30000D02*
X32707Y-29938D01*
X32707Y-29938D02*
X32726Y-29878D01*
X32726Y-29878D02*
X32758Y-29824D01*
X32758Y-29824D02*
X32800Y-29778D01*
X32800Y-29778D02*
X32850Y-29741D01*
X32850Y-29741D02*
X32908Y-29715D01*
X32908Y-29715D02*
X32969Y-29702D01*
X32969Y-29702D02*
X33031Y-29702D01*
X33031Y-29702D02*
X33092Y-29715D01*
X33092Y-29715D02*
X33150Y-29741D01*
X33150Y-29741D02*
X33200Y-29778D01*
X33200Y-29778D02*
X33242Y-29824D01*
X33242Y-29824D02*
X33274Y-29878D01*
X33274Y-29878D02*
X33293Y-29938D01*
X33293Y-29938D02*
X33300Y-30000D01*
X40300Y-30000D02*
X40293Y-30062D01*
X40293Y-30062D02*
X40274Y-30122D01*
X40274Y-30122D02*
X40242Y-30176D01*
X40242Y-30176D02*
X40200Y-30222D01*
X40200Y-30222D02*
X40150Y-30259D01*
X40150Y-30259D02*
X40092Y-30285D01*
X40092Y-30285D02*
X40031Y-30298D01*
X40031Y-30298D02*
X39969Y-30298D01*
X39969Y-30298D02*
X39908Y-30285D01*
X39908Y-30285D02*
X39850Y-30259D01*
X39850Y-30259D02*
X39800Y-30222D01*
X39800Y-30222D02*
X39758Y-30176D01*
X39758Y-30176D02*
X39726Y-30122D01*
X39726Y-30122D02*
X39707Y-30062D01*
X39707Y-30062D02*
X39700Y-30000D01*
X39700Y-30000D02*
X39707Y-29938D01*
X39707Y-29938D02*
X39726Y-29878D01*
X39726Y-29878D02*
X39758Y-29824D01*
X39758Y-29824D02*
X39800Y-29778D01*
X39800Y-29778D02*
X39850Y-29741D01*
X39850Y-29741D02*
X39908Y-29715D01*
X39908Y-29715D02*
X39969Y-29702D01*
X39969Y-29702D02*
X40031Y-29702D01*
X40031Y-29702D02*
X40092Y-29715D01*
X40092Y-29715D02*
X40150Y-29741D01*
X40150Y-29741D02*
X40200Y-29778D01*
X40200Y-29778D02*
X40242Y-29824D01*
X40242Y-29824D02*
X40274Y-29878D01*
X40274Y-29878D02*
X40293Y-29938D01*
X40293Y-29938D02*
X40300Y-30000D01*
X32300Y-30000D02*
X32293Y-30062D01*
X32293Y-30062D02*
X32274Y-30122D01*
X32274Y-30122D02*
X32242Y-30176D01*
X32242Y-30176D02*
X32200Y-30222D01*
X32200Y-30222D02*
X32150Y-30259D01*
X32150Y-30259D02*
X32092Y-30285D01*
X32092Y-30285D02*
X32031Y-30298D01*
X32031Y-30298D02*
X31969Y-30298D01*
X31969Y-30298D02*
X31908Y-30285D01*
X31908Y-30285D02*
X31850Y-30259D01*
X31850Y-30259D02*
X31800Y-30222D01*
X31800Y-30222D02*
X31758Y-30176D01*
X31758Y-30176D02*
X31726Y-30122D01*
X31726Y-30122D02*
X31707Y-30062D01*
X31707Y-30062D02*
X31700Y-30000D01*
X31700Y-30000D02*
X31707Y-29938D01*
X31707Y-29938D02*
X31726Y-29878D01*
X31726Y-29878D02*
X31758Y-29824D01*
X31758Y-29824D02*
X31800Y-29778D01*
X31800Y-29778D02*
X31850Y-29741D01*
X31850Y-29741D02*
X31908Y-29715D01*
X31908Y-29715D02*
X31969Y-29702D01*
X31969Y-29702D02*
X32031Y-29702D01*
X32031Y-29702D02*
X32092Y-29715D01*
X32092Y-29715D02*
X32150Y-29741D01*
X32150Y-29741D02*
X32200Y-29778D01*
X32200Y-29778D02*
X32242Y-29824D01*
X32242Y-29824D02*
X32274Y-29878D01*
X32274Y-29878D02*
X32293Y-29938D01*
X32293Y-29938D02*
X32300Y-30000D01*
X39300Y-30000D02*
X39293Y-30062D01*
X39293Y-30062D02*
X39274Y-30122D01*
X39274Y-30122D02*
X39242Y-30176D01*
X39242Y-30176D02*
X39200Y-30222D01*
X39200Y-30222D02*
X39150Y-30259D01*
X39150Y-30259D02*
X39092Y-30285D01*
X39092Y-30285D02*
X39031Y-30298D01*
X39031Y-30298D02*
X38969Y-30298D01*
X38969Y-30298D02*
X38908Y-30285D01*
X38908Y-30285D02*
X38850Y-30259D01*
X38850Y-30259D02*
X38800Y-30222D01*
X38800Y-30222D02*
X38758Y-30176D01*
X38758Y-30176D02*
X38726Y-30122D01*
X38726Y-30122D02*
X38707Y-30062D01*
X38707Y-30062D02*
X38700Y-30000D01*
X38700Y-30000D02*
X38707Y-29938D01*
X38707Y-29938D02*
X38726Y-29878D01*
X38726Y-29878D02*
X38758Y-29824D01*
X38758Y-29824D02*
X38800Y-29778D01*
X38800Y-29778D02*
X38850Y-29741D01*
X38850Y-29741D02*
X38908Y-29715D01*
X38908Y-29715D02*
X38969Y-29702D01*
X38969Y-29702D02*
X39031Y-29702D01*
X39031Y-29702D02*
X39092Y-29715D01*
X39092Y-29715D02*
X39150Y-29741D01*
X39150Y-29741D02*
X39200Y-29778D01*
X39200Y-29778D02*
X39242Y-29824D01*
X39242Y-29824D02*
X39274Y-29878D01*
X39274Y-29878D02*
X39293Y-29938D01*
X39293Y-29938D02*
X39300Y-30000D01*
X31300Y-30000D02*
X31293Y-30062D01*
X31293Y-30062D02*
X31274Y-30122D01*
X31274Y-30122D02*
X31242Y-30176D01*
X31242Y-30176D02*
X31200Y-30222D01*
X31200Y-30222D02*
X31150Y-30259D01*
X31150Y-30259D02*
X31092Y-30285D01*
X31092Y-30285D02*
X31031Y-30298D01*
X31031Y-30298D02*
X30969Y-30298D01*
X30969Y-30298D02*
X30908Y-30285D01*
X30908Y-30285D02*
X30850Y-30259D01*
X30850Y-30259D02*
X30800Y-30222D01*
X30800Y-30222D02*
X30758Y-30176D01*
X30758Y-30176D02*
X30726Y-30122D01*
X30726Y-30122D02*
X30707Y-30062D01*
X30707Y-30062D02*
X30700Y-30000D01*
X30700Y-30000D02*
X30707Y-29938D01*
X30707Y-29938D02*
X30726Y-29878D01*
X30726Y-29878D02*
X30758Y-29824D01*
X30758Y-29824D02*
X30800Y-29778D01*
X30800Y-29778D02*
X30850Y-29741D01*
X30850Y-29741D02*
X30908Y-29715D01*
X30908Y-29715D02*
X30969Y-29702D01*
X30969Y-29702D02*
X31031Y-29702D01*
X31031Y-29702D02*
X31092Y-29715D01*
X31092Y-29715D02*
X31150Y-29741D01*
X31150Y-29741D02*
X31200Y-29778D01*
X31200Y-29778D02*
X31242Y-29824D01*
X31242Y-29824D02*
X31274Y-29878D01*
X31274Y-29878D02*
X31293Y-29938D01*
X31293Y-29938D02*
X31300Y-30000D01*
X30300Y-30000D02*
X30293Y-30062D01*
X30293Y-30062D02*
X30274Y-30122D01*
X30274Y-30122D02*
X30242Y-30176D01*
X30242Y-30176D02*
X30200Y-30222D01*
X30200Y-30222D02*
X30150Y-30259D01*
X30150Y-30259D02*
X30092Y-30285D01*
X30092Y-30285D02*
X30031Y-30298D01*
X30031Y-30298D02*
X29969Y-30298D01*
X29969Y-30298D02*
X29908Y-30285D01*
X29908Y-30285D02*
X29850Y-30259D01*
X29850Y-30259D02*
X29800Y-30222D01*
X29800Y-30222D02*
X29758Y-30176D01*
X29758Y-30176D02*
X29726Y-30122D01*
X29726Y-30122D02*
X29707Y-30062D01*
X29707Y-30062D02*
X29700Y-30000D01*
X29700Y-30000D02*
X29707Y-29938D01*
X29707Y-29938D02*
X29726Y-29878D01*
X29726Y-29878D02*
X29758Y-29824D01*
X29758Y-29824D02*
X29800Y-29778D01*
X29800Y-29778D02*
X29850Y-29741D01*
X29850Y-29741D02*
X29908Y-29715D01*
X29908Y-29715D02*
X29969Y-29702D01*
X29969Y-29702D02*
X30031Y-29702D01*
X30031Y-29702D02*
X30092Y-29715D01*
X30092Y-29715D02*
X30150Y-29741D01*
X30150Y-29741D02*
X30200Y-29778D01*
X30200Y-29778D02*
X30242Y-29824D01*
X30242Y-29824D02*
X30274Y-29878D01*
X30274Y-29878D02*
X30293Y-29938D01*
X30293Y-29938D02*
X30300Y-30000D01*
X29300Y-30000D02*
X29293Y-30062D01*
X29293Y-30062D02*
X29274Y-30122D01*
X29274Y-30122D02*
X29242Y-30176D01*
X29242Y-30176D02*
X29200Y-30222D01*
X29200Y-30222D02*
X29150Y-30259D01*
X29150Y-30259D02*
X29092Y-30285D01*
X29092Y-30285D02*
X29031Y-30298D01*
X29031Y-30298D02*
X28969Y-30298D01*
X28969Y-30298D02*
X28908Y-30285D01*
X28908Y-30285D02*
X28850Y-30259D01*
X28850Y-30259D02*
X28800Y-30222D01*
X28800Y-30222D02*
X28758Y-30176D01*
X28758Y-30176D02*
X28726Y-30122D01*
X28726Y-30122D02*
X28707Y-30062D01*
X28707Y-30062D02*
X28700Y-30000D01*
X28700Y-30000D02*
X28707Y-29938D01*
X28707Y-29938D02*
X28726Y-29878D01*
X28726Y-29878D02*
X28758Y-29824D01*
X28758Y-29824D02*
X28800Y-29778D01*
X28800Y-29778D02*
X28850Y-29741D01*
X28850Y-29741D02*
X28908Y-29715D01*
X28908Y-29715D02*
X28969Y-29702D01*
X28969Y-29702D02*
X29031Y-29702D01*
X29031Y-29702D02*
X29092Y-29715D01*
X29092Y-29715D02*
X29150Y-29741D01*
X29150Y-29741D02*
X29200Y-29778D01*
X29200Y-29778D02*
X29242Y-29824D01*
X29242Y-29824D02*
X29274Y-29878D01*
X29274Y-29878D02*
X29293Y-29938D01*
X29293Y-29938D02*
X29300Y-30000D01*
X28300Y-30000D02*
X28293Y-30062D01*
X28293Y-30062D02*
X28274Y-30122D01*
X28274Y-30122D02*
X28242Y-30176D01*
X28242Y-30176D02*
X28200Y-30222D01*
X28200Y-30222D02*
X28150Y-30259D01*
X28150Y-30259D02*
X28092Y-30285D01*
X28092Y-30285D02*
X28031Y-30298D01*
X28031Y-30298D02*
X27969Y-30298D01*
X27969Y-30298D02*
X27908Y-30285D01*
X27908Y-30285D02*
X27850Y-30259D01*
X27850Y-30259D02*
X27800Y-30222D01*
X27800Y-30222D02*
X27758Y-30176D01*
X27758Y-30176D02*
X27726Y-30122D01*
X27726Y-30122D02*
X27707Y-30062D01*
X27707Y-30062D02*
X27700Y-30000D01*
X27700Y-30000D02*
X27707Y-29938D01*
X27707Y-29938D02*
X27726Y-29878D01*
X27726Y-29878D02*
X27758Y-29824D01*
X27758Y-29824D02*
X27800Y-29778D01*
X27800Y-29778D02*
X27850Y-29741D01*
X27850Y-29741D02*
X27908Y-29715D01*
X27908Y-29715D02*
X27969Y-29702D01*
X27969Y-29702D02*
X28031Y-29702D01*
X28031Y-29702D02*
X28092Y-29715D01*
X28092Y-29715D02*
X28150Y-29741D01*
X28150Y-29741D02*
X28200Y-29778D01*
X28200Y-29778D02*
X28242Y-29824D01*
X28242Y-29824D02*
X28274Y-29878D01*
X28274Y-29878D02*
X28293Y-29938D01*
X28293Y-29938D02*
X28300Y-30000D01*
X27300Y-30000D02*
X27293Y-30062D01*
X27293Y-30062D02*
X27274Y-30122D01*
X27274Y-30122D02*
X27242Y-30176D01*
X27242Y-30176D02*
X27200Y-30222D01*
X27200Y-30222D02*
X27150Y-30259D01*
X27150Y-30259D02*
X27092Y-30285D01*
X27092Y-30285D02*
X27031Y-30298D01*
X27031Y-30298D02*
X26969Y-30298D01*
X26969Y-30298D02*
X26908Y-30285D01*
X26908Y-30285D02*
X26850Y-30259D01*
X26850Y-30259D02*
X26800Y-30222D01*
X26800Y-30222D02*
X26758Y-30176D01*
X26758Y-30176D02*
X26726Y-30122D01*
X26726Y-30122D02*
X26707Y-30062D01*
X26707Y-30062D02*
X26700Y-30000D01*
X26700Y-30000D02*
X26707Y-29938D01*
X26707Y-29938D02*
X26726Y-29878D01*
X26726Y-29878D02*
X26758Y-29824D01*
X26758Y-29824D02*
X26800Y-29778D01*
X26800Y-29778D02*
X26850Y-29741D01*
X26850Y-29741D02*
X26908Y-29715D01*
X26908Y-29715D02*
X26969Y-29702D01*
X26969Y-29702D02*
X27031Y-29702D01*
X27031Y-29702D02*
X27092Y-29715D01*
X27092Y-29715D02*
X27150Y-29741D01*
X27150Y-29741D02*
X27200Y-29778D01*
X27200Y-29778D02*
X27242Y-29824D01*
X27242Y-29824D02*
X27274Y-29878D01*
X27274Y-29878D02*
X27293Y-29938D01*
X27293Y-29938D02*
X27300Y-30000D01*
X26300Y-30000D02*
X26293Y-30062D01*
X26293Y-30062D02*
X26274Y-30122D01*
X26274Y-30122D02*
X26242Y-30176D01*
X26242Y-30176D02*
X26200Y-30222D01*
X26200Y-30222D02*
X26150Y-30259D01*
X26150Y-30259D02*
X26092Y-30285D01*
X26092Y-30285D02*
X26031Y-30298D01*
X26031Y-30298D02*
X25969Y-30298D01*
X25969Y-30298D02*
X25908Y-30285D01*
X25908Y-30285D02*
X25850Y-30259D01*
X25850Y-30259D02*
X25800Y-30222D01*
X25800Y-30222D02*
X25758Y-30176D01*
X25758Y-30176D02*
X25726Y-30122D01*
X25726Y-30122D02*
X25707Y-30062D01*
X25707Y-30062D02*
X25700Y-30000D01*
X25700Y-30000D02*
X25707Y-29938D01*
X25707Y-29938D02*
X25726Y-29878D01*
X25726Y-29878D02*
X25758Y-29824D01*
X25758Y-29824D02*
X25800Y-29778D01*
X25800Y-29778D02*
X25850Y-29741D01*
X25850Y-29741D02*
X25908Y-29715D01*
X25908Y-29715D02*
X25969Y-29702D01*
X25969Y-29702D02*
X26031Y-29702D01*
X26031Y-29702D02*
X26092Y-29715D01*
X26092Y-29715D02*
X26150Y-29741D01*
X26150Y-29741D02*
X26200Y-29778D01*
X26200Y-29778D02*
X26242Y-29824D01*
X26242Y-29824D02*
X26274Y-29878D01*
X26274Y-29878D02*
X26293Y-29938D01*
X26293Y-29938D02*
X26300Y-30000D01*
X25300Y-30000D02*
X25293Y-30062D01*
X25293Y-30062D02*
X25274Y-30122D01*
X25274Y-30122D02*
X25242Y-30176D01*
X25242Y-30176D02*
X25200Y-30222D01*
X25200Y-30222D02*
X25150Y-30259D01*
X25150Y-30259D02*
X25092Y-30285D01*
X25092Y-30285D02*
X25031Y-30298D01*
X25031Y-30298D02*
X24969Y-30298D01*
X24969Y-30298D02*
X24908Y-30285D01*
X24908Y-30285D02*
X24850Y-30259D01*
X24850Y-30259D02*
X24800Y-30222D01*
X24800Y-30222D02*
X24758Y-30176D01*
X24758Y-30176D02*
X24726Y-30122D01*
X24726Y-30122D02*
X24707Y-30062D01*
X24707Y-30062D02*
X24700Y-30000D01*
X24700Y-30000D02*
X24707Y-29938D01*
X24707Y-29938D02*
X24726Y-29878D01*
X24726Y-29878D02*
X24758Y-29824D01*
X24758Y-29824D02*
X24800Y-29778D01*
X24800Y-29778D02*
X24850Y-29741D01*
X24850Y-29741D02*
X24908Y-29715D01*
X24908Y-29715D02*
X24969Y-29702D01*
X24969Y-29702D02*
X25031Y-29702D01*
X25031Y-29702D02*
X25092Y-29715D01*
X25092Y-29715D02*
X25150Y-29741D01*
X25150Y-29741D02*
X25200Y-29778D01*
X25200Y-29778D02*
X25242Y-29824D01*
X25242Y-29824D02*
X25274Y-29878D01*
X25274Y-29878D02*
X25293Y-29938D01*
X25293Y-29938D02*
X25300Y-30000D01*
X24300Y-30000D02*
X24293Y-30062D01*
X24293Y-30062D02*
X24274Y-30122D01*
X24274Y-30122D02*
X24242Y-30176D01*
X24242Y-30176D02*
X24200Y-30222D01*
X24200Y-30222D02*
X24150Y-30259D01*
X24150Y-30259D02*
X24092Y-30285D01*
X24092Y-30285D02*
X24031Y-30298D01*
X24031Y-30298D02*
X23969Y-30298D01*
X23969Y-30298D02*
X23908Y-30285D01*
X23908Y-30285D02*
X23850Y-30259D01*
X23850Y-30259D02*
X23800Y-30222D01*
X23800Y-30222D02*
X23758Y-30176D01*
X23758Y-30176D02*
X23726Y-30122D01*
X23726Y-30122D02*
X23707Y-30062D01*
X23707Y-30062D02*
X23700Y-30000D01*
X23700Y-30000D02*
X23707Y-29938D01*
X23707Y-29938D02*
X23726Y-29878D01*
X23726Y-29878D02*
X23758Y-29824D01*
X23758Y-29824D02*
X23800Y-29778D01*
X23800Y-29778D02*
X23850Y-29741D01*
X23850Y-29741D02*
X23908Y-29715D01*
X23908Y-29715D02*
X23969Y-29702D01*
X23969Y-29702D02*
X24031Y-29702D01*
X24031Y-29702D02*
X24092Y-29715D01*
X24092Y-29715D02*
X24150Y-29741D01*
X24150Y-29741D02*
X24200Y-29778D01*
X24200Y-29778D02*
X24242Y-29824D01*
X24242Y-29824D02*
X24274Y-29878D01*
X24274Y-29878D02*
X24293Y-29938D01*
X24293Y-29938D02*
X24300Y-30000D01*
X23300Y-30000D02*
X23293Y-30062D01*
X23293Y-30062D02*
X23274Y-30122D01*
X23274Y-30122D02*
X23242Y-30176D01*
X23242Y-30176D02*
X23200Y-30222D01*
X23200Y-30222D02*
X23150Y-30259D01*
X23150Y-30259D02*
X23092Y-30285D01*
X23092Y-30285D02*
X23031Y-30298D01*
X23031Y-30298D02*
X22969Y-30298D01*
X22969Y-30298D02*
X22908Y-30285D01*
X22908Y-30285D02*
X22850Y-30259D01*
X22850Y-30259D02*
X22800Y-30222D01*
X22800Y-30222D02*
X22758Y-30176D01*
X22758Y-30176D02*
X22726Y-30122D01*
X22726Y-30122D02*
X22707Y-30062D01*
X22707Y-30062D02*
X22700Y-30000D01*
X22700Y-30000D02*
X22707Y-29938D01*
X22707Y-29938D02*
X22726Y-29878D01*
X22726Y-29878D02*
X22758Y-29824D01*
X22758Y-29824D02*
X22800Y-29778D01*
X22800Y-29778D02*
X22850Y-29741D01*
X22850Y-29741D02*
X22908Y-29715D01*
X22908Y-29715D02*
X22969Y-29702D01*
X22969Y-29702D02*
X23031Y-29702D01*
X23031Y-29702D02*
X23092Y-29715D01*
X23092Y-29715D02*
X23150Y-29741D01*
X23150Y-29741D02*
X23200Y-29778D01*
X23200Y-29778D02*
X23242Y-29824D01*
X23242Y-29824D02*
X23274Y-29878D01*
X23274Y-29878D02*
X23293Y-29938D01*
X23293Y-29938D02*
X23300Y-30000D01*
X22300Y-30000D02*
X22293Y-30062D01*
X22293Y-30062D02*
X22274Y-30122D01*
X22274Y-30122D02*
X22242Y-30176D01*
X22242Y-30176D02*
X22200Y-30222D01*
X22200Y-30222D02*
X22150Y-30259D01*
X22150Y-30259D02*
X22092Y-30285D01*
X22092Y-30285D02*
X22031Y-30298D01*
X22031Y-30298D02*
X21969Y-30298D01*
X21969Y-30298D02*
X21908Y-30285D01*
X21908Y-30285D02*
X21850Y-30259D01*
X21850Y-30259D02*
X21800Y-30222D01*
X21800Y-30222D02*
X21758Y-30176D01*
X21758Y-30176D02*
X21726Y-30122D01*
X21726Y-30122D02*
X21707Y-30062D01*
X21707Y-30062D02*
X21700Y-30000D01*
X21700Y-30000D02*
X21707Y-29938D01*
X21707Y-29938D02*
X21726Y-29878D01*
X21726Y-29878D02*
X21758Y-29824D01*
X21758Y-29824D02*
X21800Y-29778D01*
X21800Y-29778D02*
X21850Y-29741D01*
X21850Y-29741D02*
X21908Y-29715D01*
X21908Y-29715D02*
X21969Y-29702D01*
X21969Y-29702D02*
X22031Y-29702D01*
X22031Y-29702D02*
X22092Y-29715D01*
X22092Y-29715D02*
X22150Y-29741D01*
X22150Y-29741D02*
X22200Y-29778D01*
X22200Y-29778D02*
X22242Y-29824D01*
X22242Y-29824D02*
X22274Y-29878D01*
X22274Y-29878D02*
X22293Y-29938D01*
X22293Y-29938D02*
X22300Y-30000D01*
X21300Y-30000D02*
X21293Y-30062D01*
X21293Y-30062D02*
X21274Y-30122D01*
X21274Y-30122D02*
X21242Y-30176D01*
X21242Y-30176D02*
X21200Y-30222D01*
X21200Y-30222D02*
X21150Y-30259D01*
X21150Y-30259D02*
X21092Y-30285D01*
X21092Y-30285D02*
X21031Y-30298D01*
X21031Y-30298D02*
X20969Y-30298D01*
X20969Y-30298D02*
X20908Y-30285D01*
X20908Y-30285D02*
X20850Y-30259D01*
X20850Y-30259D02*
X20800Y-30222D01*
X20800Y-30222D02*
X20758Y-30176D01*
X20758Y-30176D02*
X20726Y-30122D01*
X20726Y-30122D02*
X20707Y-30062D01*
X20707Y-30062D02*
X20700Y-30000D01*
X20700Y-30000D02*
X20707Y-29938D01*
X20707Y-29938D02*
X20726Y-29878D01*
X20726Y-29878D02*
X20758Y-29824D01*
X20758Y-29824D02*
X20800Y-29778D01*
X20800Y-29778D02*
X20850Y-29741D01*
X20850Y-29741D02*
X20908Y-29715D01*
X20908Y-29715D02*
X20969Y-29702D01*
X20969Y-29702D02*
X21031Y-29702D01*
X21031Y-29702D02*
X21092Y-29715D01*
X21092Y-29715D02*
X21150Y-29741D01*
X21150Y-29741D02*
X21200Y-29778D01*
X21200Y-29778D02*
X21242Y-29824D01*
X21242Y-29824D02*
X21274Y-29878D01*
X21274Y-29878D02*
X21293Y-29938D01*
X21293Y-29938D02*
X21300Y-30000D01*
X20300Y-30000D02*
X20293Y-30062D01*
X20293Y-30062D02*
X20274Y-30122D01*
X20274Y-30122D02*
X20242Y-30176D01*
X20242Y-30176D02*
X20200Y-30222D01*
X20200Y-30222D02*
X20150Y-30259D01*
X20150Y-30259D02*
X20092Y-30285D01*
X20092Y-30285D02*
X20031Y-30298D01*
X20031Y-30298D02*
X19969Y-30298D01*
X19969Y-30298D02*
X19908Y-30285D01*
X19908Y-30285D02*
X19850Y-30259D01*
X19850Y-30259D02*
X19800Y-30222D01*
X19800Y-30222D02*
X19758Y-30176D01*
X19758Y-30176D02*
X19726Y-30122D01*
X19726Y-30122D02*
X19707Y-30062D01*
X19707Y-30062D02*
X19700Y-30000D01*
X19700Y-30000D02*
X19707Y-29938D01*
X19707Y-29938D02*
X19726Y-29878D01*
X19726Y-29878D02*
X19758Y-29824D01*
X19758Y-29824D02*
X19800Y-29778D01*
X19800Y-29778D02*
X19850Y-29741D01*
X19850Y-29741D02*
X19908Y-29715D01*
X19908Y-29715D02*
X19969Y-29702D01*
X19969Y-29702D02*
X20031Y-29702D01*
X20031Y-29702D02*
X20092Y-29715D01*
X20092Y-29715D02*
X20150Y-29741D01*
X20150Y-29741D02*
X20200Y-29778D01*
X20200Y-29778D02*
X20242Y-29824D01*
X20242Y-29824D02*
X20274Y-29878D01*
X20274Y-29878D02*
X20293Y-29938D01*
X20293Y-29938D02*
X20300Y-30000D01*
X19300Y-30000D02*
X19293Y-30062D01*
X19293Y-30062D02*
X19274Y-30122D01*
X19274Y-30122D02*
X19242Y-30176D01*
X19242Y-30176D02*
X19200Y-30222D01*
X19200Y-30222D02*
X19150Y-30259D01*
X19150Y-30259D02*
X19092Y-30285D01*
X19092Y-30285D02*
X19031Y-30298D01*
X19031Y-30298D02*
X18969Y-30298D01*
X18969Y-30298D02*
X18908Y-30285D01*
X18908Y-30285D02*
X18850Y-30259D01*
X18850Y-30259D02*
X18800Y-30222D01*
X18800Y-30222D02*
X18758Y-30176D01*
X18758Y-30176D02*
X18726Y-30122D01*
X18726Y-30122D02*
X18707Y-30062D01*
X18707Y-30062D02*
X18700Y-30000D01*
X18700Y-30000D02*
X18707Y-29938D01*
X18707Y-29938D02*
X18726Y-29878D01*
X18726Y-29878D02*
X18758Y-29824D01*
X18758Y-29824D02*
X18800Y-29778D01*
X18800Y-29778D02*
X18850Y-29741D01*
X18850Y-29741D02*
X18908Y-29715D01*
X18908Y-29715D02*
X18969Y-29702D01*
X18969Y-29702D02*
X19031Y-29702D01*
X19031Y-29702D02*
X19092Y-29715D01*
X19092Y-29715D02*
X19150Y-29741D01*
X19150Y-29741D02*
X19200Y-29778D01*
X19200Y-29778D02*
X19242Y-29824D01*
X19242Y-29824D02*
X19274Y-29878D01*
X19274Y-29878D02*
X19293Y-29938D01*
X19293Y-29938D02*
X19300Y-30000D01*
X18300Y-30000D02*
X18293Y-30062D01*
X18293Y-30062D02*
X18274Y-30122D01*
X18274Y-30122D02*
X18242Y-30176D01*
X18242Y-30176D02*
X18200Y-30222D01*
X18200Y-30222D02*
X18150Y-30259D01*
X18150Y-30259D02*
X18092Y-30285D01*
X18092Y-30285D02*
X18031Y-30298D01*
X18031Y-30298D02*
X17969Y-30298D01*
X17969Y-30298D02*
X17908Y-30285D01*
X17908Y-30285D02*
X17850Y-30259D01*
X17850Y-30259D02*
X17800Y-30222D01*
X17800Y-30222D02*
X17758Y-30176D01*
X17758Y-30176D02*
X17726Y-30122D01*
X17726Y-30122D02*
X17707Y-30062D01*
X17707Y-30062D02*
X17700Y-30000D01*
X17700Y-30000D02*
X17707Y-29938D01*
X17707Y-29938D02*
X17726Y-29878D01*
X17726Y-29878D02*
X17758Y-29824D01*
X17758Y-29824D02*
X17800Y-29778D01*
X17800Y-29778D02*
X17850Y-29741D01*
X17850Y-29741D02*
X17908Y-29715D01*
X17908Y-29715D02*
X17969Y-29702D01*
X17969Y-29702D02*
X18031Y-29702D01*
X18031Y-29702D02*
X18092Y-29715D01*
X18092Y-29715D02*
X18150Y-29741D01*
X18150Y-29741D02*
X18200Y-29778D01*
X18200Y-29778D02*
X18242Y-29824D01*
X18242Y-29824D02*
X18274Y-29878D01*
X18274Y-29878D02*
X18293Y-29938D01*
X18293Y-29938D02*
X18300Y-30000D01*
X17300Y-30000D02*
X17293Y-30062D01*
X17293Y-30062D02*
X17274Y-30122D01*
X17274Y-30122D02*
X17242Y-30176D01*
X17242Y-30176D02*
X17200Y-30222D01*
X17200Y-30222D02*
X17150Y-30259D01*
X17150Y-30259D02*
X17092Y-30285D01*
X17092Y-30285D02*
X17031Y-30298D01*
X17031Y-30298D02*
X16969Y-30298D01*
X16969Y-30298D02*
X16908Y-30285D01*
X16908Y-30285D02*
X16850Y-30259D01*
X16850Y-30259D02*
X16800Y-30222D01*
X16800Y-30222D02*
X16758Y-30176D01*
X16758Y-30176D02*
X16726Y-30122D01*
X16726Y-30122D02*
X16707Y-30062D01*
X16707Y-30062D02*
X16700Y-30000D01*
X16700Y-30000D02*
X16707Y-29938D01*
X16707Y-29938D02*
X16726Y-29878D01*
X16726Y-29878D02*
X16758Y-29824D01*
X16758Y-29824D02*
X16800Y-29778D01*
X16800Y-29778D02*
X16850Y-29741D01*
X16850Y-29741D02*
X16908Y-29715D01*
X16908Y-29715D02*
X16969Y-29702D01*
X16969Y-29702D02*
X17031Y-29702D01*
X17031Y-29702D02*
X17092Y-29715D01*
X17092Y-29715D02*
X17150Y-29741D01*
X17150Y-29741D02*
X17200Y-29778D01*
X17200Y-29778D02*
X17242Y-29824D01*
X17242Y-29824D02*
X17274Y-29878D01*
X17274Y-29878D02*
X17293Y-29938D01*
X17293Y-29938D02*
X17300Y-30000D01*
X16300Y-30000D02*
X16293Y-30062D01*
X16293Y-30062D02*
X16274Y-30122D01*
X16274Y-30122D02*
X16242Y-30176D01*
X16242Y-30176D02*
X16200Y-30222D01*
X16200Y-30222D02*
X16150Y-30259D01*
X16150Y-30259D02*
X16092Y-30285D01*
X16092Y-30285D02*
X16031Y-30298D01*
X16031Y-30298D02*
X15969Y-30298D01*
X15969Y-30298D02*
X15908Y-30285D01*
X15908Y-30285D02*
X15850Y-30259D01*
X15850Y-30259D02*
X15800Y-30222D01*
X15800Y-30222D02*
X15758Y-30176D01*
X15758Y-30176D02*
X15726Y-30122D01*
X15726Y-30122D02*
X15707Y-30062D01*
X15707Y-30062D02*
X15700Y-30000D01*
X15700Y-30000D02*
X15707Y-29938D01*
X15707Y-29938D02*
X15726Y-29878D01*
X15726Y-29878D02*
X15758Y-29824D01*
X15758Y-29824D02*
X15800Y-29778D01*
X15800Y-29778D02*
X15850Y-29741D01*
X15850Y-29741D02*
X15908Y-29715D01*
X15908Y-29715D02*
X15969Y-29702D01*
X15969Y-29702D02*
X16031Y-29702D01*
X16031Y-29702D02*
X16092Y-29715D01*
X16092Y-29715D02*
X16150Y-29741D01*
X16150Y-29741D02*
X16200Y-29778D01*
X16200Y-29778D02*
X16242Y-29824D01*
X16242Y-29824D02*
X16274Y-29878D01*
X16274Y-29878D02*
X16293Y-29938D01*
X16293Y-29938D02*
X16300Y-30000D01*
X15300Y-30000D02*
X15293Y-30062D01*
X15293Y-30062D02*
X15274Y-30122D01*
X15274Y-30122D02*
X15242Y-30176D01*
X15242Y-30176D02*
X15200Y-30222D01*
X15200Y-30222D02*
X15150Y-30259D01*
X15150Y-30259D02*
X15092Y-30285D01*
X15092Y-30285D02*
X15031Y-30298D01*
X15031Y-30298D02*
X14969Y-30298D01*
X14969Y-30298D02*
X14908Y-30285D01*
X14908Y-30285D02*
X14850Y-30259D01*
X14850Y-30259D02*
X14800Y-30222D01*
X14800Y-30222D02*
X14758Y-30176D01*
X14758Y-30176D02*
X14726Y-30122D01*
X14726Y-30122D02*
X14707Y-30062D01*
X14707Y-30062D02*
X14700Y-30000D01*
X14700Y-30000D02*
X14707Y-29938D01*
X14707Y-29938D02*
X14726Y-29878D01*
X14726Y-29878D02*
X14758Y-29824D01*
X14758Y-29824D02*
X14800Y-29778D01*
X14800Y-29778D02*
X14850Y-29741D01*
X14850Y-29741D02*
X14908Y-29715D01*
X14908Y-29715D02*
X14969Y-29702D01*
X14969Y-29702D02*
X15031Y-29702D01*
X15031Y-29702D02*
X15092Y-29715D01*
X15092Y-29715D02*
X15150Y-29741D01*
X15150Y-29741D02*
X15200Y-29778D01*
X15200Y-29778D02*
X15242Y-29824D01*
X15242Y-29824D02*
X15274Y-29878D01*
X15274Y-29878D02*
X15293Y-29938D01*
X15293Y-29938D02*
X15300Y-30000D01*
X49300Y-28282D02*
X48700Y-28282D01*
X48700Y-28282D02*
X48700Y-27682D01*
X48700Y-27682D02*
X49300Y-27682D01*
X49300Y-27682D02*
X49300Y-28282D01*
X48300Y-27982D02*
X48293Y-28044D01*
X48293Y-28044D02*
X48274Y-28104D01*
X48274Y-28104D02*
X48242Y-28158D01*
X48242Y-28158D02*
X48200Y-28204D01*
X48200Y-28204D02*
X48150Y-28241D01*
X48150Y-28241D02*
X48092Y-28267D01*
X48092Y-28267D02*
X48031Y-28280D01*
X48031Y-28280D02*
X47969Y-28280D01*
X47969Y-28280D02*
X47908Y-28267D01*
X47908Y-28267D02*
X47850Y-28241D01*
X47850Y-28241D02*
X47800Y-28204D01*
X47800Y-28204D02*
X47758Y-28158D01*
X47758Y-28158D02*
X47726Y-28104D01*
X47726Y-28104D02*
X47707Y-28044D01*
X47707Y-28044D02*
X47700Y-27982D01*
X47700Y-27982D02*
X47707Y-27920D01*
X47707Y-27920D02*
X47726Y-27860D01*
X47726Y-27860D02*
X47758Y-27806D01*
X47758Y-27806D02*
X47800Y-27760D01*
X47800Y-27760D02*
X47850Y-27723D01*
X47850Y-27723D02*
X47908Y-27697D01*
X47908Y-27697D02*
X47969Y-27684D01*
X47969Y-27684D02*
X48031Y-27684D01*
X48031Y-27684D02*
X48092Y-27697D01*
X48092Y-27697D02*
X48150Y-27723D01*
X48150Y-27723D02*
X48200Y-27760D01*
X48200Y-27760D02*
X48242Y-27806D01*
X48242Y-27806D02*
X48274Y-27860D01*
X48274Y-27860D02*
X48293Y-27920D01*
X48293Y-27920D02*
X48300Y-27982D01*
X49300Y-26982D02*
X49293Y-27044D01*
X49293Y-27044D02*
X49274Y-27104D01*
X49274Y-27104D02*
X49242Y-27158D01*
X49242Y-27158D02*
X49200Y-27204D01*
X49200Y-27204D02*
X49150Y-27241D01*
X49150Y-27241D02*
X49092Y-27267D01*
X49092Y-27267D02*
X49031Y-27280D01*
X49031Y-27280D02*
X48969Y-27280D01*
X48969Y-27280D02*
X48908Y-27267D01*
X48908Y-27267D02*
X48850Y-27241D01*
X48850Y-27241D02*
X48800Y-27204D01*
X48800Y-27204D02*
X48758Y-27158D01*
X48758Y-27158D02*
X48726Y-27104D01*
X48726Y-27104D02*
X48707Y-27044D01*
X48707Y-27044D02*
X48700Y-26982D01*
X48700Y-26982D02*
X48707Y-26920D01*
X48707Y-26920D02*
X48726Y-26860D01*
X48726Y-26860D02*
X48758Y-26806D01*
X48758Y-26806D02*
X48800Y-26760D01*
X48800Y-26760D02*
X48850Y-26723D01*
X48850Y-26723D02*
X48908Y-26697D01*
X48908Y-26697D02*
X48969Y-26684D01*
X48969Y-26684D02*
X49031Y-26684D01*
X49031Y-26684D02*
X49092Y-26697D01*
X49092Y-26697D02*
X49150Y-26723D01*
X49150Y-26723D02*
X49200Y-26760D01*
X49200Y-26760D02*
X49242Y-26806D01*
X49242Y-26806D02*
X49274Y-26860D01*
X49274Y-26860D02*
X49293Y-26920D01*
X49293Y-26920D02*
X49300Y-26982D01*
X48300Y-26982D02*
X48293Y-27044D01*
X48293Y-27044D02*
X48274Y-27104D01*
X48274Y-27104D02*
X48242Y-27158D01*
X48242Y-27158D02*
X48200Y-27204D01*
X48200Y-27204D02*
X48150Y-27241D01*
X48150Y-27241D02*
X48092Y-27267D01*
X48092Y-27267D02*
X48031Y-27280D01*
X48031Y-27280D02*
X47969Y-27280D01*
X47969Y-27280D02*
X47908Y-27267D01*
X47908Y-27267D02*
X47850Y-27241D01*
X47850Y-27241D02*
X47800Y-27204D01*
X47800Y-27204D02*
X47758Y-27158D01*
X47758Y-27158D02*
X47726Y-27104D01*
X47726Y-27104D02*
X47707Y-27044D01*
X47707Y-27044D02*
X47700Y-26982D01*
X47700Y-26982D02*
X47707Y-26920D01*
X47707Y-26920D02*
X47726Y-26860D01*
X47726Y-26860D02*
X47758Y-26806D01*
X47758Y-26806D02*
X47800Y-26760D01*
X47800Y-26760D02*
X47850Y-26723D01*
X47850Y-26723D02*
X47908Y-26697D01*
X47908Y-26697D02*
X47969Y-26684D01*
X47969Y-26684D02*
X48031Y-26684D01*
X48031Y-26684D02*
X48092Y-26697D01*
X48092Y-26697D02*
X48150Y-26723D01*
X48150Y-26723D02*
X48200Y-26760D01*
X48200Y-26760D02*
X48242Y-26806D01*
X48242Y-26806D02*
X48274Y-26860D01*
X48274Y-26860D02*
X48293Y-26920D01*
X48293Y-26920D02*
X48300Y-26982D01*
X49300Y-25982D02*
X49293Y-26044D01*
X49293Y-26044D02*
X49274Y-26104D01*
X49274Y-26104D02*
X49242Y-26158D01*
X49242Y-26158D02*
X49200Y-26204D01*
X49200Y-26204D02*
X49150Y-26241D01*
X49150Y-26241D02*
X49092Y-26267D01*
X49092Y-26267D02*
X49031Y-26280D01*
X49031Y-26280D02*
X48969Y-26280D01*
X48969Y-26280D02*
X48908Y-26267D01*
X48908Y-26267D02*
X48850Y-26241D01*
X48850Y-26241D02*
X48800Y-26204D01*
X48800Y-26204D02*
X48758Y-26158D01*
X48758Y-26158D02*
X48726Y-26104D01*
X48726Y-26104D02*
X48707Y-26044D01*
X48707Y-26044D02*
X48700Y-25982D01*
X48700Y-25982D02*
X48707Y-25920D01*
X48707Y-25920D02*
X48726Y-25860D01*
X48726Y-25860D02*
X48758Y-25806D01*
X48758Y-25806D02*
X48800Y-25760D01*
X48800Y-25760D02*
X48850Y-25723D01*
X48850Y-25723D02*
X48908Y-25697D01*
X48908Y-25697D02*
X48969Y-25684D01*
X48969Y-25684D02*
X49031Y-25684D01*
X49031Y-25684D02*
X49092Y-25697D01*
X49092Y-25697D02*
X49150Y-25723D01*
X49150Y-25723D02*
X49200Y-25760D01*
X49200Y-25760D02*
X49242Y-25806D01*
X49242Y-25806D02*
X49274Y-25860D01*
X49274Y-25860D02*
X49293Y-25920D01*
X49293Y-25920D02*
X49300Y-25982D01*
X48300Y-25982D02*
X48293Y-26044D01*
X48293Y-26044D02*
X48274Y-26104D01*
X48274Y-26104D02*
X48242Y-26158D01*
X48242Y-26158D02*
X48200Y-26204D01*
X48200Y-26204D02*
X48150Y-26241D01*
X48150Y-26241D02*
X48092Y-26267D01*
X48092Y-26267D02*
X48031Y-26280D01*
X48031Y-26280D02*
X47969Y-26280D01*
X47969Y-26280D02*
X47908Y-26267D01*
X47908Y-26267D02*
X47850Y-26241D01*
X47850Y-26241D02*
X47800Y-26204D01*
X47800Y-26204D02*
X47758Y-26158D01*
X47758Y-26158D02*
X47726Y-26104D01*
X47726Y-26104D02*
X47707Y-26044D01*
X47707Y-26044D02*
X47700Y-25982D01*
X47700Y-25982D02*
X47707Y-25920D01*
X47707Y-25920D02*
X47726Y-25860D01*
X47726Y-25860D02*
X47758Y-25806D01*
X47758Y-25806D02*
X47800Y-25760D01*
X47800Y-25760D02*
X47850Y-25723D01*
X47850Y-25723D02*
X47908Y-25697D01*
X47908Y-25697D02*
X47969Y-25684D01*
X47969Y-25684D02*
X48031Y-25684D01*
X48031Y-25684D02*
X48092Y-25697D01*
X48092Y-25697D02*
X48150Y-25723D01*
X48150Y-25723D02*
X48200Y-25760D01*
X48200Y-25760D02*
X48242Y-25806D01*
X48242Y-25806D02*
X48274Y-25860D01*
X48274Y-25860D02*
X48293Y-25920D01*
X48293Y-25920D02*
X48300Y-25982D01*
X49300Y-24982D02*
X49293Y-25044D01*
X49293Y-25044D02*
X49274Y-25104D01*
X49274Y-25104D02*
X49242Y-25158D01*
X49242Y-25158D02*
X49200Y-25204D01*
X49200Y-25204D02*
X49150Y-25241D01*
X49150Y-25241D02*
X49092Y-25267D01*
X49092Y-25267D02*
X49031Y-25280D01*
X49031Y-25280D02*
X48969Y-25280D01*
X48969Y-25280D02*
X48908Y-25267D01*
X48908Y-25267D02*
X48850Y-25241D01*
X48850Y-25241D02*
X48800Y-25204D01*
X48800Y-25204D02*
X48758Y-25158D01*
X48758Y-25158D02*
X48726Y-25104D01*
X48726Y-25104D02*
X48707Y-25044D01*
X48707Y-25044D02*
X48700Y-24982D01*
X48700Y-24982D02*
X48707Y-24920D01*
X48707Y-24920D02*
X48726Y-24860D01*
X48726Y-24860D02*
X48758Y-24806D01*
X48758Y-24806D02*
X48800Y-24760D01*
X48800Y-24760D02*
X48850Y-24723D01*
X48850Y-24723D02*
X48908Y-24697D01*
X48908Y-24697D02*
X48969Y-24684D01*
X48969Y-24684D02*
X49031Y-24684D01*
X49031Y-24684D02*
X49092Y-24697D01*
X49092Y-24697D02*
X49150Y-24723D01*
X49150Y-24723D02*
X49200Y-24760D01*
X49200Y-24760D02*
X49242Y-24806D01*
X49242Y-24806D02*
X49274Y-24860D01*
X49274Y-24860D02*
X49293Y-24920D01*
X49293Y-24920D02*
X49300Y-24982D01*
X48300Y-24982D02*
X48293Y-25044D01*
X48293Y-25044D02*
X48274Y-25104D01*
X48274Y-25104D02*
X48242Y-25158D01*
X48242Y-25158D02*
X48200Y-25204D01*
X48200Y-25204D02*
X48150Y-25241D01*
X48150Y-25241D02*
X48092Y-25267D01*
X48092Y-25267D02*
X48031Y-25280D01*
X48031Y-25280D02*
X47969Y-25280D01*
X47969Y-25280D02*
X47908Y-25267D01*
X47908Y-25267D02*
X47850Y-25241D01*
X47850Y-25241D02*
X47800Y-25204D01*
X47800Y-25204D02*
X47758Y-25158D01*
X47758Y-25158D02*
X47726Y-25104D01*
X47726Y-25104D02*
X47707Y-25044D01*
X47707Y-25044D02*
X47700Y-24982D01*
X47700Y-24982D02*
X47707Y-24920D01*
X47707Y-24920D02*
X47726Y-24860D01*
X47726Y-24860D02*
X47758Y-24806D01*
X47758Y-24806D02*
X47800Y-24760D01*
X47800Y-24760D02*
X47850Y-24723D01*
X47850Y-24723D02*
X47908Y-24697D01*
X47908Y-24697D02*
X47969Y-24684D01*
X47969Y-24684D02*
X48031Y-24684D01*
X48031Y-24684D02*
X48092Y-24697D01*
X48092Y-24697D02*
X48150Y-24723D01*
X48150Y-24723D02*
X48200Y-24760D01*
X48200Y-24760D02*
X48242Y-24806D01*
X48242Y-24806D02*
X48274Y-24860D01*
X48274Y-24860D02*
X48293Y-24920D01*
X48293Y-24920D02*
X48300Y-24982D01*
X49300Y-23982D02*
X49293Y-24044D01*
X49293Y-24044D02*
X49274Y-24104D01*
X49274Y-24104D02*
X49242Y-24158D01*
X49242Y-24158D02*
X49200Y-24204D01*
X49200Y-24204D02*
X49150Y-24241D01*
X49150Y-24241D02*
X49092Y-24267D01*
X49092Y-24267D02*
X49031Y-24280D01*
X49031Y-24280D02*
X48969Y-24280D01*
X48969Y-24280D02*
X48908Y-24267D01*
X48908Y-24267D02*
X48850Y-24241D01*
X48850Y-24241D02*
X48800Y-24204D01*
X48800Y-24204D02*
X48758Y-24158D01*
X48758Y-24158D02*
X48726Y-24104D01*
X48726Y-24104D02*
X48707Y-24044D01*
X48707Y-24044D02*
X48700Y-23982D01*
X48700Y-23982D02*
X48707Y-23920D01*
X48707Y-23920D02*
X48726Y-23860D01*
X48726Y-23860D02*
X48758Y-23806D01*
X48758Y-23806D02*
X48800Y-23760D01*
X48800Y-23760D02*
X48850Y-23723D01*
X48850Y-23723D02*
X48908Y-23697D01*
X48908Y-23697D02*
X48969Y-23684D01*
X48969Y-23684D02*
X49031Y-23684D01*
X49031Y-23684D02*
X49092Y-23697D01*
X49092Y-23697D02*
X49150Y-23723D01*
X49150Y-23723D02*
X49200Y-23760D01*
X49200Y-23760D02*
X49242Y-23806D01*
X49242Y-23806D02*
X49274Y-23860D01*
X49274Y-23860D02*
X49293Y-23920D01*
X49293Y-23920D02*
X49300Y-23982D01*
X48300Y-23982D02*
X48293Y-24044D01*
X48293Y-24044D02*
X48274Y-24104D01*
X48274Y-24104D02*
X48242Y-24158D01*
X48242Y-24158D02*
X48200Y-24204D01*
X48200Y-24204D02*
X48150Y-24241D01*
X48150Y-24241D02*
X48092Y-24267D01*
X48092Y-24267D02*
X48031Y-24280D01*
X48031Y-24280D02*
X47969Y-24280D01*
X47969Y-24280D02*
X47908Y-24267D01*
X47908Y-24267D02*
X47850Y-24241D01*
X47850Y-24241D02*
X47800Y-24204D01*
X47800Y-24204D02*
X47758Y-24158D01*
X47758Y-24158D02*
X47726Y-24104D01*
X47726Y-24104D02*
X47707Y-24044D01*
X47707Y-24044D02*
X47700Y-23982D01*
X47700Y-23982D02*
X47707Y-23920D01*
X47707Y-23920D02*
X47726Y-23860D01*
X47726Y-23860D02*
X47758Y-23806D01*
X47758Y-23806D02*
X47800Y-23760D01*
X47800Y-23760D02*
X47850Y-23723D01*
X47850Y-23723D02*
X47908Y-23697D01*
X47908Y-23697D02*
X47969Y-23684D01*
X47969Y-23684D02*
X48031Y-23684D01*
X48031Y-23684D02*
X48092Y-23697D01*
X48092Y-23697D02*
X48150Y-23723D01*
X48150Y-23723D02*
X48200Y-23760D01*
X48200Y-23760D02*
X48242Y-23806D01*
X48242Y-23806D02*
X48274Y-23860D01*
X48274Y-23860D02*
X48293Y-23920D01*
X48293Y-23920D02*
X48300Y-23982D01*
X49300Y-22982D02*
X49293Y-23044D01*
X49293Y-23044D02*
X49274Y-23104D01*
X49274Y-23104D02*
X49242Y-23158D01*
X49242Y-23158D02*
X49200Y-23204D01*
X49200Y-23204D02*
X49150Y-23241D01*
X49150Y-23241D02*
X49092Y-23267D01*
X49092Y-23267D02*
X49031Y-23280D01*
X49031Y-23280D02*
X48969Y-23280D01*
X48969Y-23280D02*
X48908Y-23267D01*
X48908Y-23267D02*
X48850Y-23241D01*
X48850Y-23241D02*
X48800Y-23204D01*
X48800Y-23204D02*
X48758Y-23158D01*
X48758Y-23158D02*
X48726Y-23104D01*
X48726Y-23104D02*
X48707Y-23044D01*
X48707Y-23044D02*
X48700Y-22982D01*
X48700Y-22982D02*
X48707Y-22920D01*
X48707Y-22920D02*
X48726Y-22860D01*
X48726Y-22860D02*
X48758Y-22806D01*
X48758Y-22806D02*
X48800Y-22760D01*
X48800Y-22760D02*
X48850Y-22723D01*
X48850Y-22723D02*
X48908Y-22697D01*
X48908Y-22697D02*
X48969Y-22684D01*
X48969Y-22684D02*
X49031Y-22684D01*
X49031Y-22684D02*
X49092Y-22697D01*
X49092Y-22697D02*
X49150Y-22723D01*
X49150Y-22723D02*
X49200Y-22760D01*
X49200Y-22760D02*
X49242Y-22806D01*
X49242Y-22806D02*
X49274Y-22860D01*
X49274Y-22860D02*
X49293Y-22920D01*
X49293Y-22920D02*
X49300Y-22982D01*
X48300Y-22982D02*
X48293Y-23044D01*
X48293Y-23044D02*
X48274Y-23104D01*
X48274Y-23104D02*
X48242Y-23158D01*
X48242Y-23158D02*
X48200Y-23204D01*
X48200Y-23204D02*
X48150Y-23241D01*
X48150Y-23241D02*
X48092Y-23267D01*
X48092Y-23267D02*
X48031Y-23280D01*
X48031Y-23280D02*
X47969Y-23280D01*
X47969Y-23280D02*
X47908Y-23267D01*
X47908Y-23267D02*
X47850Y-23241D01*
X47850Y-23241D02*
X47800Y-23204D01*
X47800Y-23204D02*
X47758Y-23158D01*
X47758Y-23158D02*
X47726Y-23104D01*
X47726Y-23104D02*
X47707Y-23044D01*
X47707Y-23044D02*
X47700Y-22982D01*
X47700Y-22982D02*
X47707Y-22920D01*
X47707Y-22920D02*
X47726Y-22860D01*
X47726Y-22860D02*
X47758Y-22806D01*
X47758Y-22806D02*
X47800Y-22760D01*
X47800Y-22760D02*
X47850Y-22723D01*
X47850Y-22723D02*
X47908Y-22697D01*
X47908Y-22697D02*
X47969Y-22684D01*
X47969Y-22684D02*
X48031Y-22684D01*
X48031Y-22684D02*
X48092Y-22697D01*
X48092Y-22697D02*
X48150Y-22723D01*
X48150Y-22723D02*
X48200Y-22760D01*
X48200Y-22760D02*
X48242Y-22806D01*
X48242Y-22806D02*
X48274Y-22860D01*
X48274Y-22860D02*
X48293Y-22920D01*
X48293Y-22920D02*
X48300Y-22982D01*
X49300Y-21982D02*
X49293Y-22044D01*
X49293Y-22044D02*
X49274Y-22104D01*
X49274Y-22104D02*
X49242Y-22158D01*
X49242Y-22158D02*
X49200Y-22204D01*
X49200Y-22204D02*
X49150Y-22241D01*
X49150Y-22241D02*
X49092Y-22267D01*
X49092Y-22267D02*
X49031Y-22280D01*
X49031Y-22280D02*
X48969Y-22280D01*
X48969Y-22280D02*
X48908Y-22267D01*
X48908Y-22267D02*
X48850Y-22241D01*
X48850Y-22241D02*
X48800Y-22204D01*
X48800Y-22204D02*
X48758Y-22158D01*
X48758Y-22158D02*
X48726Y-22104D01*
X48726Y-22104D02*
X48707Y-22044D01*
X48707Y-22044D02*
X48700Y-21982D01*
X48700Y-21982D02*
X48707Y-21920D01*
X48707Y-21920D02*
X48726Y-21860D01*
X48726Y-21860D02*
X48758Y-21806D01*
X48758Y-21806D02*
X48800Y-21760D01*
X48800Y-21760D02*
X48850Y-21723D01*
X48850Y-21723D02*
X48908Y-21697D01*
X48908Y-21697D02*
X48969Y-21684D01*
X48969Y-21684D02*
X49031Y-21684D01*
X49031Y-21684D02*
X49092Y-21697D01*
X49092Y-21697D02*
X49150Y-21723D01*
X49150Y-21723D02*
X49200Y-21760D01*
X49200Y-21760D02*
X49242Y-21806D01*
X49242Y-21806D02*
X49274Y-21860D01*
X49274Y-21860D02*
X49293Y-21920D01*
X49293Y-21920D02*
X49300Y-21982D01*
X48300Y-21982D02*
X48293Y-22044D01*
X48293Y-22044D02*
X48274Y-22104D01*
X48274Y-22104D02*
X48242Y-22158D01*
X48242Y-22158D02*
X48200Y-22204D01*
X48200Y-22204D02*
X48150Y-22241D01*
X48150Y-22241D02*
X48092Y-22267D01*
X48092Y-22267D02*
X48031Y-22280D01*
X48031Y-22280D02*
X47969Y-22280D01*
X47969Y-22280D02*
X47908Y-22267D01*
X47908Y-22267D02*
X47850Y-22241D01*
X47850Y-22241D02*
X47800Y-22204D01*
X47800Y-22204D02*
X47758Y-22158D01*
X47758Y-22158D02*
X47726Y-22104D01*
X47726Y-22104D02*
X47707Y-22044D01*
X47707Y-22044D02*
X47700Y-21982D01*
X47700Y-21982D02*
X47707Y-21920D01*
X47707Y-21920D02*
X47726Y-21860D01*
X47726Y-21860D02*
X47758Y-21806D01*
X47758Y-21806D02*
X47800Y-21760D01*
X47800Y-21760D02*
X47850Y-21723D01*
X47850Y-21723D02*
X47908Y-21697D01*
X47908Y-21697D02*
X47969Y-21684D01*
X47969Y-21684D02*
X48031Y-21684D01*
X48031Y-21684D02*
X48092Y-21697D01*
X48092Y-21697D02*
X48150Y-21723D01*
X48150Y-21723D02*
X48200Y-21760D01*
X48200Y-21760D02*
X48242Y-21806D01*
X48242Y-21806D02*
X48274Y-21860D01*
X48274Y-21860D02*
X48293Y-21920D01*
X48293Y-21920D02*
X48300Y-21982D01*
X49300Y-20982D02*
X49293Y-21044D01*
X49293Y-21044D02*
X49274Y-21104D01*
X49274Y-21104D02*
X49242Y-21158D01*
X49242Y-21158D02*
X49200Y-21204D01*
X49200Y-21204D02*
X49150Y-21241D01*
X49150Y-21241D02*
X49092Y-21267D01*
X49092Y-21267D02*
X49031Y-21280D01*
X49031Y-21280D02*
X48969Y-21280D01*
X48969Y-21280D02*
X48908Y-21267D01*
X48908Y-21267D02*
X48850Y-21241D01*
X48850Y-21241D02*
X48800Y-21204D01*
X48800Y-21204D02*
X48758Y-21158D01*
X48758Y-21158D02*
X48726Y-21104D01*
X48726Y-21104D02*
X48707Y-21044D01*
X48707Y-21044D02*
X48700Y-20982D01*
X48700Y-20982D02*
X48707Y-20920D01*
X48707Y-20920D02*
X48726Y-20860D01*
X48726Y-20860D02*
X48758Y-20806D01*
X48758Y-20806D02*
X48800Y-20760D01*
X48800Y-20760D02*
X48850Y-20723D01*
X48850Y-20723D02*
X48908Y-20697D01*
X48908Y-20697D02*
X48969Y-20684D01*
X48969Y-20684D02*
X49031Y-20684D01*
X49031Y-20684D02*
X49092Y-20697D01*
X49092Y-20697D02*
X49150Y-20723D01*
X49150Y-20723D02*
X49200Y-20760D01*
X49200Y-20760D02*
X49242Y-20806D01*
X49242Y-20806D02*
X49274Y-20860D01*
X49274Y-20860D02*
X49293Y-20920D01*
X49293Y-20920D02*
X49300Y-20982D01*
X48300Y-20982D02*
X48293Y-21044D01*
X48293Y-21044D02*
X48274Y-21104D01*
X48274Y-21104D02*
X48242Y-21158D01*
X48242Y-21158D02*
X48200Y-21204D01*
X48200Y-21204D02*
X48150Y-21241D01*
X48150Y-21241D02*
X48092Y-21267D01*
X48092Y-21267D02*
X48031Y-21280D01*
X48031Y-21280D02*
X47969Y-21280D01*
X47969Y-21280D02*
X47908Y-21267D01*
X47908Y-21267D02*
X47850Y-21241D01*
X47850Y-21241D02*
X47800Y-21204D01*
X47800Y-21204D02*
X47758Y-21158D01*
X47758Y-21158D02*
X47726Y-21104D01*
X47726Y-21104D02*
X47707Y-21044D01*
X47707Y-21044D02*
X47700Y-20982D01*
X47700Y-20982D02*
X47707Y-20920D01*
X47707Y-20920D02*
X47726Y-20860D01*
X47726Y-20860D02*
X47758Y-20806D01*
X47758Y-20806D02*
X47800Y-20760D01*
X47800Y-20760D02*
X47850Y-20723D01*
X47850Y-20723D02*
X47908Y-20697D01*
X47908Y-20697D02*
X47969Y-20684D01*
X47969Y-20684D02*
X48031Y-20684D01*
X48031Y-20684D02*
X48092Y-20697D01*
X48092Y-20697D02*
X48150Y-20723D01*
X48150Y-20723D02*
X48200Y-20760D01*
X48200Y-20760D02*
X48242Y-20806D01*
X48242Y-20806D02*
X48274Y-20860D01*
X48274Y-20860D02*
X48293Y-20920D01*
X48293Y-20920D02*
X48300Y-20982D01*
X49300Y-19982D02*
X49293Y-20044D01*
X49293Y-20044D02*
X49274Y-20104D01*
X49274Y-20104D02*
X49242Y-20158D01*
X49242Y-20158D02*
X49200Y-20204D01*
X49200Y-20204D02*
X49150Y-20241D01*
X49150Y-20241D02*
X49092Y-20267D01*
X49092Y-20267D02*
X49031Y-20280D01*
X49031Y-20280D02*
X48969Y-20280D01*
X48969Y-20280D02*
X48908Y-20267D01*
X48908Y-20267D02*
X48850Y-20241D01*
X48850Y-20241D02*
X48800Y-20204D01*
X48800Y-20204D02*
X48758Y-20158D01*
X48758Y-20158D02*
X48726Y-20104D01*
X48726Y-20104D02*
X48707Y-20044D01*
X48707Y-20044D02*
X48700Y-19982D01*
X48700Y-19982D02*
X48707Y-19920D01*
X48707Y-19920D02*
X48726Y-19860D01*
X48726Y-19860D02*
X48758Y-19806D01*
X48758Y-19806D02*
X48800Y-19760D01*
X48800Y-19760D02*
X48850Y-19723D01*
X48850Y-19723D02*
X48908Y-19697D01*
X48908Y-19697D02*
X48969Y-19684D01*
X48969Y-19684D02*
X49031Y-19684D01*
X49031Y-19684D02*
X49092Y-19697D01*
X49092Y-19697D02*
X49150Y-19723D01*
X49150Y-19723D02*
X49200Y-19760D01*
X49200Y-19760D02*
X49242Y-19806D01*
X49242Y-19806D02*
X49274Y-19860D01*
X49274Y-19860D02*
X49293Y-19920D01*
X49293Y-19920D02*
X49300Y-19982D01*
X48300Y-19982D02*
X48293Y-20044D01*
X48293Y-20044D02*
X48274Y-20104D01*
X48274Y-20104D02*
X48242Y-20158D01*
X48242Y-20158D02*
X48200Y-20204D01*
X48200Y-20204D02*
X48150Y-20241D01*
X48150Y-20241D02*
X48092Y-20267D01*
X48092Y-20267D02*
X48031Y-20280D01*
X48031Y-20280D02*
X47969Y-20280D01*
X47969Y-20280D02*
X47908Y-20267D01*
X47908Y-20267D02*
X47850Y-20241D01*
X47850Y-20241D02*
X47800Y-20204D01*
X47800Y-20204D02*
X47758Y-20158D01*
X47758Y-20158D02*
X47726Y-20104D01*
X47726Y-20104D02*
X47707Y-20044D01*
X47707Y-20044D02*
X47700Y-19982D01*
X47700Y-19982D02*
X47707Y-19920D01*
X47707Y-19920D02*
X47726Y-19860D01*
X47726Y-19860D02*
X47758Y-19806D01*
X47758Y-19806D02*
X47800Y-19760D01*
X47800Y-19760D02*
X47850Y-19723D01*
X47850Y-19723D02*
X47908Y-19697D01*
X47908Y-19697D02*
X47969Y-19684D01*
X47969Y-19684D02*
X48031Y-19684D01*
X48031Y-19684D02*
X48092Y-19697D01*
X48092Y-19697D02*
X48150Y-19723D01*
X48150Y-19723D02*
X48200Y-19760D01*
X48200Y-19760D02*
X48242Y-19806D01*
X48242Y-19806D02*
X48274Y-19860D01*
X48274Y-19860D02*
X48293Y-19920D01*
X48293Y-19920D02*
X48300Y-19982D01*
X49300Y-18982D02*
X49293Y-19044D01*
X49293Y-19044D02*
X49274Y-19104D01*
X49274Y-19104D02*
X49242Y-19158D01*
X49242Y-19158D02*
X49200Y-19204D01*
X49200Y-19204D02*
X49150Y-19241D01*
X49150Y-19241D02*
X49092Y-19267D01*
X49092Y-19267D02*
X49031Y-19280D01*
X49031Y-19280D02*
X48969Y-19280D01*
X48969Y-19280D02*
X48908Y-19267D01*
X48908Y-19267D02*
X48850Y-19241D01*
X48850Y-19241D02*
X48800Y-19204D01*
X48800Y-19204D02*
X48758Y-19158D01*
X48758Y-19158D02*
X48726Y-19104D01*
X48726Y-19104D02*
X48707Y-19044D01*
X48707Y-19044D02*
X48700Y-18982D01*
X48700Y-18982D02*
X48707Y-18920D01*
X48707Y-18920D02*
X48726Y-18860D01*
X48726Y-18860D02*
X48758Y-18806D01*
X48758Y-18806D02*
X48800Y-18760D01*
X48800Y-18760D02*
X48850Y-18723D01*
X48850Y-18723D02*
X48908Y-18697D01*
X48908Y-18697D02*
X48969Y-18684D01*
X48969Y-18684D02*
X49031Y-18684D01*
X49031Y-18684D02*
X49092Y-18697D01*
X49092Y-18697D02*
X49150Y-18723D01*
X49150Y-18723D02*
X49200Y-18760D01*
X49200Y-18760D02*
X49242Y-18806D01*
X49242Y-18806D02*
X49274Y-18860D01*
X49274Y-18860D02*
X49293Y-18920D01*
X49293Y-18920D02*
X49300Y-18982D01*
X48300Y-18982D02*
X48293Y-19044D01*
X48293Y-19044D02*
X48274Y-19104D01*
X48274Y-19104D02*
X48242Y-19158D01*
X48242Y-19158D02*
X48200Y-19204D01*
X48200Y-19204D02*
X48150Y-19241D01*
X48150Y-19241D02*
X48092Y-19267D01*
X48092Y-19267D02*
X48031Y-19280D01*
X48031Y-19280D02*
X47969Y-19280D01*
X47969Y-19280D02*
X47908Y-19267D01*
X47908Y-19267D02*
X47850Y-19241D01*
X47850Y-19241D02*
X47800Y-19204D01*
X47800Y-19204D02*
X47758Y-19158D01*
X47758Y-19158D02*
X47726Y-19104D01*
X47726Y-19104D02*
X47707Y-19044D01*
X47707Y-19044D02*
X47700Y-18982D01*
X47700Y-18982D02*
X47707Y-18920D01*
X47707Y-18920D02*
X47726Y-18860D01*
X47726Y-18860D02*
X47758Y-18806D01*
X47758Y-18806D02*
X47800Y-18760D01*
X47800Y-18760D02*
X47850Y-18723D01*
X47850Y-18723D02*
X47908Y-18697D01*
X47908Y-18697D02*
X47969Y-18684D01*
X47969Y-18684D02*
X48031Y-18684D01*
X48031Y-18684D02*
X48092Y-18697D01*
X48092Y-18697D02*
X48150Y-18723D01*
X48150Y-18723D02*
X48200Y-18760D01*
X48200Y-18760D02*
X48242Y-18806D01*
X48242Y-18806D02*
X48274Y-18860D01*
X48274Y-18860D02*
X48293Y-18920D01*
X48293Y-18920D02*
X48300Y-18982D01*
X49300Y-17982D02*
X49293Y-18044D01*
X49293Y-18044D02*
X49274Y-18104D01*
X49274Y-18104D02*
X49242Y-18158D01*
X49242Y-18158D02*
X49200Y-18204D01*
X49200Y-18204D02*
X49150Y-18241D01*
X49150Y-18241D02*
X49092Y-18267D01*
X49092Y-18267D02*
X49031Y-18280D01*
X49031Y-18280D02*
X48969Y-18280D01*
X48969Y-18280D02*
X48908Y-18267D01*
X48908Y-18267D02*
X48850Y-18241D01*
X48850Y-18241D02*
X48800Y-18204D01*
X48800Y-18204D02*
X48758Y-18158D01*
X48758Y-18158D02*
X48726Y-18104D01*
X48726Y-18104D02*
X48707Y-18044D01*
X48707Y-18044D02*
X48700Y-17982D01*
X48700Y-17982D02*
X48707Y-17920D01*
X48707Y-17920D02*
X48726Y-17860D01*
X48726Y-17860D02*
X48758Y-17806D01*
X48758Y-17806D02*
X48800Y-17760D01*
X48800Y-17760D02*
X48850Y-17723D01*
X48850Y-17723D02*
X48908Y-17697D01*
X48908Y-17697D02*
X48969Y-17684D01*
X48969Y-17684D02*
X49031Y-17684D01*
X49031Y-17684D02*
X49092Y-17697D01*
X49092Y-17697D02*
X49150Y-17723D01*
X49150Y-17723D02*
X49200Y-17760D01*
X49200Y-17760D02*
X49242Y-17806D01*
X49242Y-17806D02*
X49274Y-17860D01*
X49274Y-17860D02*
X49293Y-17920D01*
X49293Y-17920D02*
X49300Y-17982D01*
X48300Y-17982D02*
X48293Y-18044D01*
X48293Y-18044D02*
X48274Y-18104D01*
X48274Y-18104D02*
X48242Y-18158D01*
X48242Y-18158D02*
X48200Y-18204D01*
X48200Y-18204D02*
X48150Y-18241D01*
X48150Y-18241D02*
X48092Y-18267D01*
X48092Y-18267D02*
X48031Y-18280D01*
X48031Y-18280D02*
X47969Y-18280D01*
X47969Y-18280D02*
X47908Y-18267D01*
X47908Y-18267D02*
X47850Y-18241D01*
X47850Y-18241D02*
X47800Y-18204D01*
X47800Y-18204D02*
X47758Y-18158D01*
X47758Y-18158D02*
X47726Y-18104D01*
X47726Y-18104D02*
X47707Y-18044D01*
X47707Y-18044D02*
X47700Y-17982D01*
X47700Y-17982D02*
X47707Y-17920D01*
X47707Y-17920D02*
X47726Y-17860D01*
X47726Y-17860D02*
X47758Y-17806D01*
X47758Y-17806D02*
X47800Y-17760D01*
X47800Y-17760D02*
X47850Y-17723D01*
X47850Y-17723D02*
X47908Y-17697D01*
X47908Y-17697D02*
X47969Y-17684D01*
X47969Y-17684D02*
X48031Y-17684D01*
X48031Y-17684D02*
X48092Y-17697D01*
X48092Y-17697D02*
X48150Y-17723D01*
X48150Y-17723D02*
X48200Y-17760D01*
X48200Y-17760D02*
X48242Y-17806D01*
X48242Y-17806D02*
X48274Y-17860D01*
X48274Y-17860D02*
X48293Y-17920D01*
X48293Y-17920D02*
X48300Y-17982D01*
X49300Y-16982D02*
X49293Y-17044D01*
X49293Y-17044D02*
X49274Y-17104D01*
X49274Y-17104D02*
X49242Y-17158D01*
X49242Y-17158D02*
X49200Y-17204D01*
X49200Y-17204D02*
X49150Y-17241D01*
X49150Y-17241D02*
X49092Y-17267D01*
X49092Y-17267D02*
X49031Y-17280D01*
X49031Y-17280D02*
X48969Y-17280D01*
X48969Y-17280D02*
X48908Y-17267D01*
X48908Y-17267D02*
X48850Y-17241D01*
X48850Y-17241D02*
X48800Y-17204D01*
X48800Y-17204D02*
X48758Y-17158D01*
X48758Y-17158D02*
X48726Y-17104D01*
X48726Y-17104D02*
X48707Y-17044D01*
X48707Y-17044D02*
X48700Y-16982D01*
X48700Y-16982D02*
X48707Y-16920D01*
X48707Y-16920D02*
X48726Y-16860D01*
X48726Y-16860D02*
X48758Y-16806D01*
X48758Y-16806D02*
X48800Y-16760D01*
X48800Y-16760D02*
X48850Y-16723D01*
X48850Y-16723D02*
X48908Y-16697D01*
X48908Y-16697D02*
X48969Y-16684D01*
X48969Y-16684D02*
X49031Y-16684D01*
X49031Y-16684D02*
X49092Y-16697D01*
X49092Y-16697D02*
X49150Y-16723D01*
X49150Y-16723D02*
X49200Y-16760D01*
X49200Y-16760D02*
X49242Y-16806D01*
X49242Y-16806D02*
X49274Y-16860D01*
X49274Y-16860D02*
X49293Y-16920D01*
X49293Y-16920D02*
X49300Y-16982D01*
X48300Y-16982D02*
X48293Y-17044D01*
X48293Y-17044D02*
X48274Y-17104D01*
X48274Y-17104D02*
X48242Y-17158D01*
X48242Y-17158D02*
X48200Y-17204D01*
X48200Y-17204D02*
X48150Y-17241D01*
X48150Y-17241D02*
X48092Y-17267D01*
X48092Y-17267D02*
X48031Y-17280D01*
X48031Y-17280D02*
X47969Y-17280D01*
X47969Y-17280D02*
X47908Y-17267D01*
X47908Y-17267D02*
X47850Y-17241D01*
X47850Y-17241D02*
X47800Y-17204D01*
X47800Y-17204D02*
X47758Y-17158D01*
X47758Y-17158D02*
X47726Y-17104D01*
X47726Y-17104D02*
X47707Y-17044D01*
X47707Y-17044D02*
X47700Y-16982D01*
X47700Y-16982D02*
X47707Y-16920D01*
X47707Y-16920D02*
X47726Y-16860D01*
X47726Y-16860D02*
X47758Y-16806D01*
X47758Y-16806D02*
X47800Y-16760D01*
X47800Y-16760D02*
X47850Y-16723D01*
X47850Y-16723D02*
X47908Y-16697D01*
X47908Y-16697D02*
X47969Y-16684D01*
X47969Y-16684D02*
X48031Y-16684D01*
X48031Y-16684D02*
X48092Y-16697D01*
X48092Y-16697D02*
X48150Y-16723D01*
X48150Y-16723D02*
X48200Y-16760D01*
X48200Y-16760D02*
X48242Y-16806D01*
X48242Y-16806D02*
X48274Y-16860D01*
X48274Y-16860D02*
X48293Y-16920D01*
X48293Y-16920D02*
X48300Y-16982D01*
X49300Y-15982D02*
X49293Y-16044D01*
X49293Y-16044D02*
X49274Y-16104D01*
X49274Y-16104D02*
X49242Y-16158D01*
X49242Y-16158D02*
X49200Y-16204D01*
X49200Y-16204D02*
X49150Y-16241D01*
X49150Y-16241D02*
X49092Y-16267D01*
X49092Y-16267D02*
X49031Y-16280D01*
X49031Y-16280D02*
X48969Y-16280D01*
X48969Y-16280D02*
X48908Y-16267D01*
X48908Y-16267D02*
X48850Y-16241D01*
X48850Y-16241D02*
X48800Y-16204D01*
X48800Y-16204D02*
X48758Y-16158D01*
X48758Y-16158D02*
X48726Y-16104D01*
X48726Y-16104D02*
X48707Y-16044D01*
X48707Y-16044D02*
X48700Y-15982D01*
X48700Y-15982D02*
X48707Y-15920D01*
X48707Y-15920D02*
X48726Y-15860D01*
X48726Y-15860D02*
X48758Y-15806D01*
X48758Y-15806D02*
X48800Y-15760D01*
X48800Y-15760D02*
X48850Y-15723D01*
X48850Y-15723D02*
X48908Y-15697D01*
X48908Y-15697D02*
X48969Y-15684D01*
X48969Y-15684D02*
X49031Y-15684D01*
X49031Y-15684D02*
X49092Y-15697D01*
X49092Y-15697D02*
X49150Y-15723D01*
X49150Y-15723D02*
X49200Y-15760D01*
X49200Y-15760D02*
X49242Y-15806D01*
X49242Y-15806D02*
X49274Y-15860D01*
X49274Y-15860D02*
X49293Y-15920D01*
X49293Y-15920D02*
X49300Y-15982D01*
X48300Y-15982D02*
X48293Y-16044D01*
X48293Y-16044D02*
X48274Y-16104D01*
X48274Y-16104D02*
X48242Y-16158D01*
X48242Y-16158D02*
X48200Y-16204D01*
X48200Y-16204D02*
X48150Y-16241D01*
X48150Y-16241D02*
X48092Y-16267D01*
X48092Y-16267D02*
X48031Y-16280D01*
X48031Y-16280D02*
X47969Y-16280D01*
X47969Y-16280D02*
X47908Y-16267D01*
X47908Y-16267D02*
X47850Y-16241D01*
X47850Y-16241D02*
X47800Y-16204D01*
X47800Y-16204D02*
X47758Y-16158D01*
X47758Y-16158D02*
X47726Y-16104D01*
X47726Y-16104D02*
X47707Y-16044D01*
X47707Y-16044D02*
X47700Y-15982D01*
X47700Y-15982D02*
X47707Y-15920D01*
X47707Y-15920D02*
X47726Y-15860D01*
X47726Y-15860D02*
X47758Y-15806D01*
X47758Y-15806D02*
X47800Y-15760D01*
X47800Y-15760D02*
X47850Y-15723D01*
X47850Y-15723D02*
X47908Y-15697D01*
X47908Y-15697D02*
X47969Y-15684D01*
X47969Y-15684D02*
X48031Y-15684D01*
X48031Y-15684D02*
X48092Y-15697D01*
X48092Y-15697D02*
X48150Y-15723D01*
X48150Y-15723D02*
X48200Y-15760D01*
X48200Y-15760D02*
X48242Y-15806D01*
X48242Y-15806D02*
X48274Y-15860D01*
X48274Y-15860D02*
X48293Y-15920D01*
X48293Y-15920D02*
X48300Y-15982D01*
X49300Y-14982D02*
X49293Y-15044D01*
X49293Y-15044D02*
X49274Y-15104D01*
X49274Y-15104D02*
X49242Y-15158D01*
X49242Y-15158D02*
X49200Y-15204D01*
X49200Y-15204D02*
X49150Y-15241D01*
X49150Y-15241D02*
X49092Y-15267D01*
X49092Y-15267D02*
X49031Y-15280D01*
X49031Y-15280D02*
X48969Y-15280D01*
X48969Y-15280D02*
X48908Y-15267D01*
X48908Y-15267D02*
X48850Y-15241D01*
X48850Y-15241D02*
X48800Y-15204D01*
X48800Y-15204D02*
X48758Y-15158D01*
X48758Y-15158D02*
X48726Y-15104D01*
X48726Y-15104D02*
X48707Y-15044D01*
X48707Y-15044D02*
X48700Y-14982D01*
X48700Y-14982D02*
X48707Y-14920D01*
X48707Y-14920D02*
X48726Y-14860D01*
X48726Y-14860D02*
X48758Y-14806D01*
X48758Y-14806D02*
X48800Y-14760D01*
X48800Y-14760D02*
X48850Y-14723D01*
X48850Y-14723D02*
X48908Y-14697D01*
X48908Y-14697D02*
X48969Y-14684D01*
X48969Y-14684D02*
X49031Y-14684D01*
X49031Y-14684D02*
X49092Y-14697D01*
X49092Y-14697D02*
X49150Y-14723D01*
X49150Y-14723D02*
X49200Y-14760D01*
X49200Y-14760D02*
X49242Y-14806D01*
X49242Y-14806D02*
X49274Y-14860D01*
X49274Y-14860D02*
X49293Y-14920D01*
X49293Y-14920D02*
X49300Y-14982D01*
X48300Y-14982D02*
X48293Y-15044D01*
X48293Y-15044D02*
X48274Y-15104D01*
X48274Y-15104D02*
X48242Y-15158D01*
X48242Y-15158D02*
X48200Y-15204D01*
X48200Y-15204D02*
X48150Y-15241D01*
X48150Y-15241D02*
X48092Y-15267D01*
X48092Y-15267D02*
X48031Y-15280D01*
X48031Y-15280D02*
X47969Y-15280D01*
X47969Y-15280D02*
X47908Y-15267D01*
X47908Y-15267D02*
X47850Y-15241D01*
X47850Y-15241D02*
X47800Y-15204D01*
X47800Y-15204D02*
X47758Y-15158D01*
X47758Y-15158D02*
X47726Y-15104D01*
X47726Y-15104D02*
X47707Y-15044D01*
X47707Y-15044D02*
X47700Y-14982D01*
X47700Y-14982D02*
X47707Y-14920D01*
X47707Y-14920D02*
X47726Y-14860D01*
X47726Y-14860D02*
X47758Y-14806D01*
X47758Y-14806D02*
X47800Y-14760D01*
X47800Y-14760D02*
X47850Y-14723D01*
X47850Y-14723D02*
X47908Y-14697D01*
X47908Y-14697D02*
X47969Y-14684D01*
X47969Y-14684D02*
X48031Y-14684D01*
X48031Y-14684D02*
X48092Y-14697D01*
X48092Y-14697D02*
X48150Y-14723D01*
X48150Y-14723D02*
X48200Y-14760D01*
X48200Y-14760D02*
X48242Y-14806D01*
X48242Y-14806D02*
X48274Y-14860D01*
X48274Y-14860D02*
X48293Y-14920D01*
X48293Y-14920D02*
X48300Y-14982D01*
X49300Y-13982D02*
X49293Y-14044D01*
X49293Y-14044D02*
X49274Y-14104D01*
X49274Y-14104D02*
X49242Y-14158D01*
X49242Y-14158D02*
X49200Y-14204D01*
X49200Y-14204D02*
X49150Y-14241D01*
X49150Y-14241D02*
X49092Y-14267D01*
X49092Y-14267D02*
X49031Y-14280D01*
X49031Y-14280D02*
X48969Y-14280D01*
X48969Y-14280D02*
X48908Y-14267D01*
X48908Y-14267D02*
X48850Y-14241D01*
X48850Y-14241D02*
X48800Y-14204D01*
X48800Y-14204D02*
X48758Y-14158D01*
X48758Y-14158D02*
X48726Y-14104D01*
X48726Y-14104D02*
X48707Y-14044D01*
X48707Y-14044D02*
X48700Y-13982D01*
X48700Y-13982D02*
X48707Y-13920D01*
X48707Y-13920D02*
X48726Y-13860D01*
X48726Y-13860D02*
X48758Y-13806D01*
X48758Y-13806D02*
X48800Y-13760D01*
X48800Y-13760D02*
X48850Y-13723D01*
X48850Y-13723D02*
X48908Y-13697D01*
X48908Y-13697D02*
X48969Y-13684D01*
X48969Y-13684D02*
X49031Y-13684D01*
X49031Y-13684D02*
X49092Y-13697D01*
X49092Y-13697D02*
X49150Y-13723D01*
X49150Y-13723D02*
X49200Y-13760D01*
X49200Y-13760D02*
X49242Y-13806D01*
X49242Y-13806D02*
X49274Y-13860D01*
X49274Y-13860D02*
X49293Y-13920D01*
X49293Y-13920D02*
X49300Y-13982D01*
X48300Y-13982D02*
X48293Y-14044D01*
X48293Y-14044D02*
X48274Y-14104D01*
X48274Y-14104D02*
X48242Y-14158D01*
X48242Y-14158D02*
X48200Y-14204D01*
X48200Y-14204D02*
X48150Y-14241D01*
X48150Y-14241D02*
X48092Y-14267D01*
X48092Y-14267D02*
X48031Y-14280D01*
X48031Y-14280D02*
X47969Y-14280D01*
X47969Y-14280D02*
X47908Y-14267D01*
X47908Y-14267D02*
X47850Y-14241D01*
X47850Y-14241D02*
X47800Y-14204D01*
X47800Y-14204D02*
X47758Y-14158D01*
X47758Y-14158D02*
X47726Y-14104D01*
X47726Y-14104D02*
X47707Y-14044D01*
X47707Y-14044D02*
X47700Y-13982D01*
X47700Y-13982D02*
X47707Y-13920D01*
X47707Y-13920D02*
X47726Y-13860D01*
X47726Y-13860D02*
X47758Y-13806D01*
X47758Y-13806D02*
X47800Y-13760D01*
X47800Y-13760D02*
X47850Y-13723D01*
X47850Y-13723D02*
X47908Y-13697D01*
X47908Y-13697D02*
X47969Y-13684D01*
X47969Y-13684D02*
X48031Y-13684D01*
X48031Y-13684D02*
X48092Y-13697D01*
X48092Y-13697D02*
X48150Y-13723D01*
X48150Y-13723D02*
X48200Y-13760D01*
X48200Y-13760D02*
X48242Y-13806D01*
X48242Y-13806D02*
X48274Y-13860D01*
X48274Y-13860D02*
X48293Y-13920D01*
X48293Y-13920D02*
X48300Y-13982D01*
X49300Y-12982D02*
X49293Y-13044D01*
X49293Y-13044D02*
X49274Y-13104D01*
X49274Y-13104D02*
X49242Y-13158D01*
X49242Y-13158D02*
X49200Y-13204D01*
X49200Y-13204D02*
X49150Y-13241D01*
X49150Y-13241D02*
X49092Y-13267D01*
X49092Y-13267D02*
X49031Y-13280D01*
X49031Y-13280D02*
X48969Y-13280D01*
X48969Y-13280D02*
X48908Y-13267D01*
X48908Y-13267D02*
X48850Y-13241D01*
X48850Y-13241D02*
X48800Y-13204D01*
X48800Y-13204D02*
X48758Y-13158D01*
X48758Y-13158D02*
X48726Y-13104D01*
X48726Y-13104D02*
X48707Y-13044D01*
X48707Y-13044D02*
X48700Y-12982D01*
X48700Y-12982D02*
X48707Y-12920D01*
X48707Y-12920D02*
X48726Y-12860D01*
X48726Y-12860D02*
X48758Y-12806D01*
X48758Y-12806D02*
X48800Y-12760D01*
X48800Y-12760D02*
X48850Y-12723D01*
X48850Y-12723D02*
X48908Y-12697D01*
X48908Y-12697D02*
X48969Y-12684D01*
X48969Y-12684D02*
X49031Y-12684D01*
X49031Y-12684D02*
X49092Y-12697D01*
X49092Y-12697D02*
X49150Y-12723D01*
X49150Y-12723D02*
X49200Y-12760D01*
X49200Y-12760D02*
X49242Y-12806D01*
X49242Y-12806D02*
X49274Y-12860D01*
X49274Y-12860D02*
X49293Y-12920D01*
X49293Y-12920D02*
X49300Y-12982D01*
X48300Y-12982D02*
X48293Y-13044D01*
X48293Y-13044D02*
X48274Y-13104D01*
X48274Y-13104D02*
X48242Y-13158D01*
X48242Y-13158D02*
X48200Y-13204D01*
X48200Y-13204D02*
X48150Y-13241D01*
X48150Y-13241D02*
X48092Y-13267D01*
X48092Y-13267D02*
X48031Y-13280D01*
X48031Y-13280D02*
X47969Y-13280D01*
X47969Y-13280D02*
X47908Y-13267D01*
X47908Y-13267D02*
X47850Y-13241D01*
X47850Y-13241D02*
X47800Y-13204D01*
X47800Y-13204D02*
X47758Y-13158D01*
X47758Y-13158D02*
X47726Y-13104D01*
X47726Y-13104D02*
X47707Y-13044D01*
X47707Y-13044D02*
X47700Y-12982D01*
X47700Y-12982D02*
X47707Y-12920D01*
X47707Y-12920D02*
X47726Y-12860D01*
X47726Y-12860D02*
X47758Y-12806D01*
X47758Y-12806D02*
X47800Y-12760D01*
X47800Y-12760D02*
X47850Y-12723D01*
X47850Y-12723D02*
X47908Y-12697D01*
X47908Y-12697D02*
X47969Y-12684D01*
X47969Y-12684D02*
X48031Y-12684D01*
X48031Y-12684D02*
X48092Y-12697D01*
X48092Y-12697D02*
X48150Y-12723D01*
X48150Y-12723D02*
X48200Y-12760D01*
X48200Y-12760D02*
X48242Y-12806D01*
X48242Y-12806D02*
X48274Y-12860D01*
X48274Y-12860D02*
X48293Y-12920D01*
X48293Y-12920D02*
X48300Y-12982D01*
X47350Y-28300D02*
X46750Y-28300D01*
X46750Y-28300D02*
X46750Y-27700D01*
X46750Y-27700D02*
X47350Y-27700D01*
X47350Y-27700D02*
X47350Y-28300D01*
X47350Y-20000D02*
X47343Y-20062D01*
X47343Y-20062D02*
X47324Y-20122D01*
X47324Y-20122D02*
X47292Y-20176D01*
X47292Y-20176D02*
X47250Y-20222D01*
X47250Y-20222D02*
X47200Y-20259D01*
X47200Y-20259D02*
X47142Y-20285D01*
X47142Y-20285D02*
X47081Y-20298D01*
X47081Y-20298D02*
X47019Y-20298D01*
X47019Y-20298D02*
X46958Y-20285D01*
X46958Y-20285D02*
X46900Y-20259D01*
X46900Y-20259D02*
X46850Y-20222D01*
X46850Y-20222D02*
X46808Y-20176D01*
X46808Y-20176D02*
X46776Y-20122D01*
X46776Y-20122D02*
X46757Y-20062D01*
X46757Y-20062D02*
X46750Y-20000D01*
X46750Y-20000D02*
X46757Y-19938D01*
X46757Y-19938D02*
X46776Y-19878D01*
X46776Y-19878D02*
X46808Y-19824D01*
X46808Y-19824D02*
X46850Y-19778D01*
X46850Y-19778D02*
X46900Y-19741D01*
X46900Y-19741D02*
X46958Y-19715D01*
X46958Y-19715D02*
X47019Y-19702D01*
X47019Y-19702D02*
X47081Y-19702D01*
X47081Y-19702D02*
X47142Y-19715D01*
X47142Y-19715D02*
X47200Y-19741D01*
X47200Y-19741D02*
X47250Y-19778D01*
X47250Y-19778D02*
X47292Y-19824D01*
X47292Y-19824D02*
X47324Y-19878D01*
X47324Y-19878D02*
X47343Y-19938D01*
X47343Y-19938D02*
X47350Y-20000D01*
X47350Y-27000D02*
X47343Y-27062D01*
X47343Y-27062D02*
X47324Y-27122D01*
X47324Y-27122D02*
X47292Y-27176D01*
X47292Y-27176D02*
X47250Y-27222D01*
X47250Y-27222D02*
X47200Y-27259D01*
X47200Y-27259D02*
X47142Y-27285D01*
X47142Y-27285D02*
X47081Y-27298D01*
X47081Y-27298D02*
X47019Y-27298D01*
X47019Y-27298D02*
X46958Y-27285D01*
X46958Y-27285D02*
X46900Y-27259D01*
X46900Y-27259D02*
X46850Y-27222D01*
X46850Y-27222D02*
X46808Y-27176D01*
X46808Y-27176D02*
X46776Y-27122D01*
X46776Y-27122D02*
X46757Y-27062D01*
X46757Y-27062D02*
X46750Y-27000D01*
X46750Y-27000D02*
X46757Y-26938D01*
X46757Y-26938D02*
X46776Y-26878D01*
X46776Y-26878D02*
X46808Y-26824D01*
X46808Y-26824D02*
X46850Y-26778D01*
X46850Y-26778D02*
X46900Y-26741D01*
X46900Y-26741D02*
X46958Y-26715D01*
X46958Y-26715D02*
X47019Y-26702D01*
X47019Y-26702D02*
X47081Y-26702D01*
X47081Y-26702D02*
X47142Y-26715D01*
X47142Y-26715D02*
X47200Y-26741D01*
X47200Y-26741D02*
X47250Y-26778D01*
X47250Y-26778D02*
X47292Y-26824D01*
X47292Y-26824D02*
X47324Y-26878D01*
X47324Y-26878D02*
X47343Y-26938D01*
X47343Y-26938D02*
X47350Y-27000D01*
X47350Y-19000D02*
X47343Y-19062D01*
X47343Y-19062D02*
X47324Y-19122D01*
X47324Y-19122D02*
X47292Y-19176D01*
X47292Y-19176D02*
X47250Y-19222D01*
X47250Y-19222D02*
X47200Y-19259D01*
X47200Y-19259D02*
X47142Y-19285D01*
X47142Y-19285D02*
X47081Y-19298D01*
X47081Y-19298D02*
X47019Y-19298D01*
X47019Y-19298D02*
X46958Y-19285D01*
X46958Y-19285D02*
X46900Y-19259D01*
X46900Y-19259D02*
X46850Y-19222D01*
X46850Y-19222D02*
X46808Y-19176D01*
X46808Y-19176D02*
X46776Y-19122D01*
X46776Y-19122D02*
X46757Y-19062D01*
X46757Y-19062D02*
X46750Y-19000D01*
X46750Y-19000D02*
X46757Y-18938D01*
X46757Y-18938D02*
X46776Y-18878D01*
X46776Y-18878D02*
X46808Y-18824D01*
X46808Y-18824D02*
X46850Y-18778D01*
X46850Y-18778D02*
X46900Y-18741D01*
X46900Y-18741D02*
X46958Y-18715D01*
X46958Y-18715D02*
X47019Y-18702D01*
X47019Y-18702D02*
X47081Y-18702D01*
X47081Y-18702D02*
X47142Y-18715D01*
X47142Y-18715D02*
X47200Y-18741D01*
X47200Y-18741D02*
X47250Y-18778D01*
X47250Y-18778D02*
X47292Y-18824D01*
X47292Y-18824D02*
X47324Y-18878D01*
X47324Y-18878D02*
X47343Y-18938D01*
X47343Y-18938D02*
X47350Y-19000D01*
X47350Y-26000D02*
X47343Y-26062D01*
X47343Y-26062D02*
X47324Y-26122D01*
X47324Y-26122D02*
X47292Y-26176D01*
X47292Y-26176D02*
X47250Y-26222D01*
X47250Y-26222D02*
X47200Y-26259D01*
X47200Y-26259D02*
X47142Y-26285D01*
X47142Y-26285D02*
X47081Y-26298D01*
X47081Y-26298D02*
X47019Y-26298D01*
X47019Y-26298D02*
X46958Y-26285D01*
X46958Y-26285D02*
X46900Y-26259D01*
X46900Y-26259D02*
X46850Y-26222D01*
X46850Y-26222D02*
X46808Y-26176D01*
X46808Y-26176D02*
X46776Y-26122D01*
X46776Y-26122D02*
X46757Y-26062D01*
X46757Y-26062D02*
X46750Y-26000D01*
X46750Y-26000D02*
X46757Y-25938D01*
X46757Y-25938D02*
X46776Y-25878D01*
X46776Y-25878D02*
X46808Y-25824D01*
X46808Y-25824D02*
X46850Y-25778D01*
X46850Y-25778D02*
X46900Y-25741D01*
X46900Y-25741D02*
X46958Y-25715D01*
X46958Y-25715D02*
X47019Y-25702D01*
X47019Y-25702D02*
X47081Y-25702D01*
X47081Y-25702D02*
X47142Y-25715D01*
X47142Y-25715D02*
X47200Y-25741D01*
X47200Y-25741D02*
X47250Y-25778D01*
X47250Y-25778D02*
X47292Y-25824D01*
X47292Y-25824D02*
X47324Y-25878D01*
X47324Y-25878D02*
X47343Y-25938D01*
X47343Y-25938D02*
X47350Y-26000D01*
X47350Y-18000D02*
X47343Y-18062D01*
X47343Y-18062D02*
X47324Y-18122D01*
X47324Y-18122D02*
X47292Y-18176D01*
X47292Y-18176D02*
X47250Y-18222D01*
X47250Y-18222D02*
X47200Y-18259D01*
X47200Y-18259D02*
X47142Y-18285D01*
X47142Y-18285D02*
X47081Y-18298D01*
X47081Y-18298D02*
X47019Y-18298D01*
X47019Y-18298D02*
X46958Y-18285D01*
X46958Y-18285D02*
X46900Y-18259D01*
X46900Y-18259D02*
X46850Y-18222D01*
X46850Y-18222D02*
X46808Y-18176D01*
X46808Y-18176D02*
X46776Y-18122D01*
X46776Y-18122D02*
X46757Y-18062D01*
X46757Y-18062D02*
X46750Y-18000D01*
X46750Y-18000D02*
X46757Y-17938D01*
X46757Y-17938D02*
X46776Y-17878D01*
X46776Y-17878D02*
X46808Y-17824D01*
X46808Y-17824D02*
X46850Y-17778D01*
X46850Y-17778D02*
X46900Y-17741D01*
X46900Y-17741D02*
X46958Y-17715D01*
X46958Y-17715D02*
X47019Y-17702D01*
X47019Y-17702D02*
X47081Y-17702D01*
X47081Y-17702D02*
X47142Y-17715D01*
X47142Y-17715D02*
X47200Y-17741D01*
X47200Y-17741D02*
X47250Y-17778D01*
X47250Y-17778D02*
X47292Y-17824D01*
X47292Y-17824D02*
X47324Y-17878D01*
X47324Y-17878D02*
X47343Y-17938D01*
X47343Y-17938D02*
X47350Y-18000D01*
X47350Y-25000D02*
X47343Y-25062D01*
X47343Y-25062D02*
X47324Y-25122D01*
X47324Y-25122D02*
X47292Y-25176D01*
X47292Y-25176D02*
X47250Y-25222D01*
X47250Y-25222D02*
X47200Y-25259D01*
X47200Y-25259D02*
X47142Y-25285D01*
X47142Y-25285D02*
X47081Y-25298D01*
X47081Y-25298D02*
X47019Y-25298D01*
X47019Y-25298D02*
X46958Y-25285D01*
X46958Y-25285D02*
X46900Y-25259D01*
X46900Y-25259D02*
X46850Y-25222D01*
X46850Y-25222D02*
X46808Y-25176D01*
X46808Y-25176D02*
X46776Y-25122D01*
X46776Y-25122D02*
X46757Y-25062D01*
X46757Y-25062D02*
X46750Y-25000D01*
X46750Y-25000D02*
X46757Y-24938D01*
X46757Y-24938D02*
X46776Y-24878D01*
X46776Y-24878D02*
X46808Y-24824D01*
X46808Y-24824D02*
X46850Y-24778D01*
X46850Y-24778D02*
X46900Y-24741D01*
X46900Y-24741D02*
X46958Y-24715D01*
X46958Y-24715D02*
X47019Y-24702D01*
X47019Y-24702D02*
X47081Y-24702D01*
X47081Y-24702D02*
X47142Y-24715D01*
X47142Y-24715D02*
X47200Y-24741D01*
X47200Y-24741D02*
X47250Y-24778D01*
X47250Y-24778D02*
X47292Y-24824D01*
X47292Y-24824D02*
X47324Y-24878D01*
X47324Y-24878D02*
X47343Y-24938D01*
X47343Y-24938D02*
X47350Y-25000D01*
X47350Y-17000D02*
X47343Y-17062D01*
X47343Y-17062D02*
X47324Y-17122D01*
X47324Y-17122D02*
X47292Y-17176D01*
X47292Y-17176D02*
X47250Y-17222D01*
X47250Y-17222D02*
X47200Y-17259D01*
X47200Y-17259D02*
X47142Y-17285D01*
X47142Y-17285D02*
X47081Y-17298D01*
X47081Y-17298D02*
X47019Y-17298D01*
X47019Y-17298D02*
X46958Y-17285D01*
X46958Y-17285D02*
X46900Y-17259D01*
X46900Y-17259D02*
X46850Y-17222D01*
X46850Y-17222D02*
X46808Y-17176D01*
X46808Y-17176D02*
X46776Y-17122D01*
X46776Y-17122D02*
X46757Y-17062D01*
X46757Y-17062D02*
X46750Y-17000D01*
X46750Y-17000D02*
X46757Y-16938D01*
X46757Y-16938D02*
X46776Y-16878D01*
X46776Y-16878D02*
X46808Y-16824D01*
X46808Y-16824D02*
X46850Y-16778D01*
X46850Y-16778D02*
X46900Y-16741D01*
X46900Y-16741D02*
X46958Y-16715D01*
X46958Y-16715D02*
X47019Y-16702D01*
X47019Y-16702D02*
X47081Y-16702D01*
X47081Y-16702D02*
X47142Y-16715D01*
X47142Y-16715D02*
X47200Y-16741D01*
X47200Y-16741D02*
X47250Y-16778D01*
X47250Y-16778D02*
X47292Y-16824D01*
X47292Y-16824D02*
X47324Y-16878D01*
X47324Y-16878D02*
X47343Y-16938D01*
X47343Y-16938D02*
X47350Y-17000D01*
X47350Y-24000D02*
X47343Y-24062D01*
X47343Y-24062D02*
X47324Y-24122D01*
X47324Y-24122D02*
X47292Y-24176D01*
X47292Y-24176D02*
X47250Y-24222D01*
X47250Y-24222D02*
X47200Y-24259D01*
X47200Y-24259D02*
X47142Y-24285D01*
X47142Y-24285D02*
X47081Y-24298D01*
X47081Y-24298D02*
X47019Y-24298D01*
X47019Y-24298D02*
X46958Y-24285D01*
X46958Y-24285D02*
X46900Y-24259D01*
X46900Y-24259D02*
X46850Y-24222D01*
X46850Y-24222D02*
X46808Y-24176D01*
X46808Y-24176D02*
X46776Y-24122D01*
X46776Y-24122D02*
X46757Y-24062D01*
X46757Y-24062D02*
X46750Y-24000D01*
X46750Y-24000D02*
X46757Y-23938D01*
X46757Y-23938D02*
X46776Y-23878D01*
X46776Y-23878D02*
X46808Y-23824D01*
X46808Y-23824D02*
X46850Y-23778D01*
X46850Y-23778D02*
X46900Y-23741D01*
X46900Y-23741D02*
X46958Y-23715D01*
X46958Y-23715D02*
X47019Y-23702D01*
X47019Y-23702D02*
X47081Y-23702D01*
X47081Y-23702D02*
X47142Y-23715D01*
X47142Y-23715D02*
X47200Y-23741D01*
X47200Y-23741D02*
X47250Y-23778D01*
X47250Y-23778D02*
X47292Y-23824D01*
X47292Y-23824D02*
X47324Y-23878D01*
X47324Y-23878D02*
X47343Y-23938D01*
X47343Y-23938D02*
X47350Y-24000D01*
X47350Y-16000D02*
X47343Y-16062D01*
X47343Y-16062D02*
X47324Y-16122D01*
X47324Y-16122D02*
X47292Y-16176D01*
X47292Y-16176D02*
X47250Y-16222D01*
X47250Y-16222D02*
X47200Y-16259D01*
X47200Y-16259D02*
X47142Y-16285D01*
X47142Y-16285D02*
X47081Y-16298D01*
X47081Y-16298D02*
X47019Y-16298D01*
X47019Y-16298D02*
X46958Y-16285D01*
X46958Y-16285D02*
X46900Y-16259D01*
X46900Y-16259D02*
X46850Y-16222D01*
X46850Y-16222D02*
X46808Y-16176D01*
X46808Y-16176D02*
X46776Y-16122D01*
X46776Y-16122D02*
X46757Y-16062D01*
X46757Y-16062D02*
X46750Y-16000D01*
X46750Y-16000D02*
X46757Y-15938D01*
X46757Y-15938D02*
X46776Y-15878D01*
X46776Y-15878D02*
X46808Y-15824D01*
X46808Y-15824D02*
X46850Y-15778D01*
X46850Y-15778D02*
X46900Y-15741D01*
X46900Y-15741D02*
X46958Y-15715D01*
X46958Y-15715D02*
X47019Y-15702D01*
X47019Y-15702D02*
X47081Y-15702D01*
X47081Y-15702D02*
X47142Y-15715D01*
X47142Y-15715D02*
X47200Y-15741D01*
X47200Y-15741D02*
X47250Y-15778D01*
X47250Y-15778D02*
X47292Y-15824D01*
X47292Y-15824D02*
X47324Y-15878D01*
X47324Y-15878D02*
X47343Y-15938D01*
X47343Y-15938D02*
X47350Y-16000D01*
X47350Y-23000D02*
X47343Y-23062D01*
X47343Y-23062D02*
X47324Y-23122D01*
X47324Y-23122D02*
X47292Y-23176D01*
X47292Y-23176D02*
X47250Y-23222D01*
X47250Y-23222D02*
X47200Y-23259D01*
X47200Y-23259D02*
X47142Y-23285D01*
X47142Y-23285D02*
X47081Y-23298D01*
X47081Y-23298D02*
X47019Y-23298D01*
X47019Y-23298D02*
X46958Y-23285D01*
X46958Y-23285D02*
X46900Y-23259D01*
X46900Y-23259D02*
X46850Y-23222D01*
X46850Y-23222D02*
X46808Y-23176D01*
X46808Y-23176D02*
X46776Y-23122D01*
X46776Y-23122D02*
X46757Y-23062D01*
X46757Y-23062D02*
X46750Y-23000D01*
X46750Y-23000D02*
X46757Y-22938D01*
X46757Y-22938D02*
X46776Y-22878D01*
X46776Y-22878D02*
X46808Y-22824D01*
X46808Y-22824D02*
X46850Y-22778D01*
X46850Y-22778D02*
X46900Y-22741D01*
X46900Y-22741D02*
X46958Y-22715D01*
X46958Y-22715D02*
X47019Y-22702D01*
X47019Y-22702D02*
X47081Y-22702D01*
X47081Y-22702D02*
X47142Y-22715D01*
X47142Y-22715D02*
X47200Y-22741D01*
X47200Y-22741D02*
X47250Y-22778D01*
X47250Y-22778D02*
X47292Y-22824D01*
X47292Y-22824D02*
X47324Y-22878D01*
X47324Y-22878D02*
X47343Y-22938D01*
X47343Y-22938D02*
X47350Y-23000D01*
X47350Y-15000D02*
X47343Y-15062D01*
X47343Y-15062D02*
X47324Y-15122D01*
X47324Y-15122D02*
X47292Y-15176D01*
X47292Y-15176D02*
X47250Y-15222D01*
X47250Y-15222D02*
X47200Y-15259D01*
X47200Y-15259D02*
X47142Y-15285D01*
X47142Y-15285D02*
X47081Y-15298D01*
X47081Y-15298D02*
X47019Y-15298D01*
X47019Y-15298D02*
X46958Y-15285D01*
X46958Y-15285D02*
X46900Y-15259D01*
X46900Y-15259D02*
X46850Y-15222D01*
X46850Y-15222D02*
X46808Y-15176D01*
X46808Y-15176D02*
X46776Y-15122D01*
X46776Y-15122D02*
X46757Y-15062D01*
X46757Y-15062D02*
X46750Y-15000D01*
X46750Y-15000D02*
X46757Y-14938D01*
X46757Y-14938D02*
X46776Y-14878D01*
X46776Y-14878D02*
X46808Y-14824D01*
X46808Y-14824D02*
X46850Y-14778D01*
X46850Y-14778D02*
X46900Y-14741D01*
X46900Y-14741D02*
X46958Y-14715D01*
X46958Y-14715D02*
X47019Y-14702D01*
X47019Y-14702D02*
X47081Y-14702D01*
X47081Y-14702D02*
X47142Y-14715D01*
X47142Y-14715D02*
X47200Y-14741D01*
X47200Y-14741D02*
X47250Y-14778D01*
X47250Y-14778D02*
X47292Y-14824D01*
X47292Y-14824D02*
X47324Y-14878D01*
X47324Y-14878D02*
X47343Y-14938D01*
X47343Y-14938D02*
X47350Y-15000D01*
X47350Y-22000D02*
X47343Y-22062D01*
X47343Y-22062D02*
X47324Y-22122D01*
X47324Y-22122D02*
X47292Y-22176D01*
X47292Y-22176D02*
X47250Y-22222D01*
X47250Y-22222D02*
X47200Y-22259D01*
X47200Y-22259D02*
X47142Y-22285D01*
X47142Y-22285D02*
X47081Y-22298D01*
X47081Y-22298D02*
X47019Y-22298D01*
X47019Y-22298D02*
X46958Y-22285D01*
X46958Y-22285D02*
X46900Y-22259D01*
X46900Y-22259D02*
X46850Y-22222D01*
X46850Y-22222D02*
X46808Y-22176D01*
X46808Y-22176D02*
X46776Y-22122D01*
X46776Y-22122D02*
X46757Y-22062D01*
X46757Y-22062D02*
X46750Y-22000D01*
X46750Y-22000D02*
X46757Y-21938D01*
X46757Y-21938D02*
X46776Y-21878D01*
X46776Y-21878D02*
X46808Y-21824D01*
X46808Y-21824D02*
X46850Y-21778D01*
X46850Y-21778D02*
X46900Y-21741D01*
X46900Y-21741D02*
X46958Y-21715D01*
X46958Y-21715D02*
X47019Y-21702D01*
X47019Y-21702D02*
X47081Y-21702D01*
X47081Y-21702D02*
X47142Y-21715D01*
X47142Y-21715D02*
X47200Y-21741D01*
X47200Y-21741D02*
X47250Y-21778D01*
X47250Y-21778D02*
X47292Y-21824D01*
X47292Y-21824D02*
X47324Y-21878D01*
X47324Y-21878D02*
X47343Y-21938D01*
X47343Y-21938D02*
X47350Y-22000D01*
X47350Y-14000D02*
X47343Y-14062D01*
X47343Y-14062D02*
X47324Y-14122D01*
X47324Y-14122D02*
X47292Y-14176D01*
X47292Y-14176D02*
X47250Y-14222D01*
X47250Y-14222D02*
X47200Y-14259D01*
X47200Y-14259D02*
X47142Y-14285D01*
X47142Y-14285D02*
X47081Y-14298D01*
X47081Y-14298D02*
X47019Y-14298D01*
X47019Y-14298D02*
X46958Y-14285D01*
X46958Y-14285D02*
X46900Y-14259D01*
X46900Y-14259D02*
X46850Y-14222D01*
X46850Y-14222D02*
X46808Y-14176D01*
X46808Y-14176D02*
X46776Y-14122D01*
X46776Y-14122D02*
X46757Y-14062D01*
X46757Y-14062D02*
X46750Y-14000D01*
X46750Y-14000D02*
X46757Y-13938D01*
X46757Y-13938D02*
X46776Y-13878D01*
X46776Y-13878D02*
X46808Y-13824D01*
X46808Y-13824D02*
X46850Y-13778D01*
X46850Y-13778D02*
X46900Y-13741D01*
X46900Y-13741D02*
X46958Y-13715D01*
X46958Y-13715D02*
X47019Y-13702D01*
X47019Y-13702D02*
X47081Y-13702D01*
X47081Y-13702D02*
X47142Y-13715D01*
X47142Y-13715D02*
X47200Y-13741D01*
X47200Y-13741D02*
X47250Y-13778D01*
X47250Y-13778D02*
X47292Y-13824D01*
X47292Y-13824D02*
X47324Y-13878D01*
X47324Y-13878D02*
X47343Y-13938D01*
X47343Y-13938D02*
X47350Y-14000D01*
X47350Y-21000D02*
X47343Y-21062D01*
X47343Y-21062D02*
X47324Y-21122D01*
X47324Y-21122D02*
X47292Y-21176D01*
X47292Y-21176D02*
X47250Y-21222D01*
X47250Y-21222D02*
X47200Y-21259D01*
X47200Y-21259D02*
X47142Y-21285D01*
X47142Y-21285D02*
X47081Y-21298D01*
X47081Y-21298D02*
X47019Y-21298D01*
X47019Y-21298D02*
X46958Y-21285D01*
X46958Y-21285D02*
X46900Y-21259D01*
X46900Y-21259D02*
X46850Y-21222D01*
X46850Y-21222D02*
X46808Y-21176D01*
X46808Y-21176D02*
X46776Y-21122D01*
X46776Y-21122D02*
X46757Y-21062D01*
X46757Y-21062D02*
X46750Y-21000D01*
X46750Y-21000D02*
X46757Y-20938D01*
X46757Y-20938D02*
X46776Y-20878D01*
X46776Y-20878D02*
X46808Y-20824D01*
X46808Y-20824D02*
X46850Y-20778D01*
X46850Y-20778D02*
X46900Y-20741D01*
X46900Y-20741D02*
X46958Y-20715D01*
X46958Y-20715D02*
X47019Y-20702D01*
X47019Y-20702D02*
X47081Y-20702D01*
X47081Y-20702D02*
X47142Y-20715D01*
X47142Y-20715D02*
X47200Y-20741D01*
X47200Y-20741D02*
X47250Y-20778D01*
X47250Y-20778D02*
X47292Y-20824D01*
X47292Y-20824D02*
X47324Y-20878D01*
X47324Y-20878D02*
X47343Y-20938D01*
X47343Y-20938D02*
X47350Y-21000D01*
X47350Y-13000D02*
X47343Y-13062D01*
X47343Y-13062D02*
X47324Y-13122D01*
X47324Y-13122D02*
X47292Y-13176D01*
X47292Y-13176D02*
X47250Y-13222D01*
X47250Y-13222D02*
X47200Y-13259D01*
X47200Y-13259D02*
X47142Y-13285D01*
X47142Y-13285D02*
X47081Y-13298D01*
X47081Y-13298D02*
X47019Y-13298D01*
X47019Y-13298D02*
X46958Y-13285D01*
X46958Y-13285D02*
X46900Y-13259D01*
X46900Y-13259D02*
X46850Y-13222D01*
X46850Y-13222D02*
X46808Y-13176D01*
X46808Y-13176D02*
X46776Y-13122D01*
X46776Y-13122D02*
X46757Y-13062D01*
X46757Y-13062D02*
X46750Y-13000D01*
X46750Y-13000D02*
X46757Y-12938D01*
X46757Y-12938D02*
X46776Y-12878D01*
X46776Y-12878D02*
X46808Y-12824D01*
X46808Y-12824D02*
X46850Y-12778D01*
X46850Y-12778D02*
X46900Y-12741D01*
X46900Y-12741D02*
X46958Y-12715D01*
X46958Y-12715D02*
X47019Y-12702D01*
X47019Y-12702D02*
X47081Y-12702D01*
X47081Y-12702D02*
X47142Y-12715D01*
X47142Y-12715D02*
X47200Y-12741D01*
X47200Y-12741D02*
X47250Y-12778D01*
X47250Y-12778D02*
X47292Y-12824D01*
X47292Y-12824D02*
X47324Y-12878D01*
X47324Y-12878D02*
X47343Y-12938D01*
X47343Y-12938D02*
X47350Y-13000D01*
X46300Y-10700D02*
X46300Y-11300D01*
X46300Y-11300D02*
X45700Y-11300D01*
X45700Y-11300D02*
X45700Y-10700D01*
X45700Y-10700D02*
X46300Y-10700D01*
X38300Y-11000D02*
X38293Y-11062D01*
X38293Y-11062D02*
X38274Y-11122D01*
X38274Y-11122D02*
X38242Y-11176D01*
X38242Y-11176D02*
X38200Y-11222D01*
X38200Y-11222D02*
X38150Y-11259D01*
X38150Y-11259D02*
X38092Y-11285D01*
X38092Y-11285D02*
X38031Y-11298D01*
X38031Y-11298D02*
X37969Y-11298D01*
X37969Y-11298D02*
X37908Y-11285D01*
X37908Y-11285D02*
X37850Y-11259D01*
X37850Y-11259D02*
X37800Y-11222D01*
X37800Y-11222D02*
X37758Y-11176D01*
X37758Y-11176D02*
X37726Y-11122D01*
X37726Y-11122D02*
X37707Y-11062D01*
X37707Y-11062D02*
X37700Y-11000D01*
X37700Y-11000D02*
X37707Y-10938D01*
X37707Y-10938D02*
X37726Y-10878D01*
X37726Y-10878D02*
X37758Y-10824D01*
X37758Y-10824D02*
X37800Y-10778D01*
X37800Y-10778D02*
X37850Y-10741D01*
X37850Y-10741D02*
X37908Y-10715D01*
X37908Y-10715D02*
X37969Y-10702D01*
X37969Y-10702D02*
X38031Y-10702D01*
X38031Y-10702D02*
X38092Y-10715D01*
X38092Y-10715D02*
X38150Y-10741D01*
X38150Y-10741D02*
X38200Y-10778D01*
X38200Y-10778D02*
X38242Y-10824D01*
X38242Y-10824D02*
X38274Y-10878D01*
X38274Y-10878D02*
X38293Y-10938D01*
X38293Y-10938D02*
X38300Y-11000D01*
X45300Y-11000D02*
X45293Y-11062D01*
X45293Y-11062D02*
X45274Y-11122D01*
X45274Y-11122D02*
X45242Y-11176D01*
X45242Y-11176D02*
X45200Y-11222D01*
X45200Y-11222D02*
X45150Y-11259D01*
X45150Y-11259D02*
X45092Y-11285D01*
X45092Y-11285D02*
X45031Y-11298D01*
X45031Y-11298D02*
X44969Y-11298D01*
X44969Y-11298D02*
X44908Y-11285D01*
X44908Y-11285D02*
X44850Y-11259D01*
X44850Y-11259D02*
X44800Y-11222D01*
X44800Y-11222D02*
X44758Y-11176D01*
X44758Y-11176D02*
X44726Y-11122D01*
X44726Y-11122D02*
X44707Y-11062D01*
X44707Y-11062D02*
X44700Y-11000D01*
X44700Y-11000D02*
X44707Y-10938D01*
X44707Y-10938D02*
X44726Y-10878D01*
X44726Y-10878D02*
X44758Y-10824D01*
X44758Y-10824D02*
X44800Y-10778D01*
X44800Y-10778D02*
X44850Y-10741D01*
X44850Y-10741D02*
X44908Y-10715D01*
X44908Y-10715D02*
X44969Y-10702D01*
X44969Y-10702D02*
X45031Y-10702D01*
X45031Y-10702D02*
X45092Y-10715D01*
X45092Y-10715D02*
X45150Y-10741D01*
X45150Y-10741D02*
X45200Y-10778D01*
X45200Y-10778D02*
X45242Y-10824D01*
X45242Y-10824D02*
X45274Y-10878D01*
X45274Y-10878D02*
X45293Y-10938D01*
X45293Y-10938D02*
X45300Y-11000D01*
X37300Y-11000D02*
X37293Y-11062D01*
X37293Y-11062D02*
X37274Y-11122D01*
X37274Y-11122D02*
X37242Y-11176D01*
X37242Y-11176D02*
X37200Y-11222D01*
X37200Y-11222D02*
X37150Y-11259D01*
X37150Y-11259D02*
X37092Y-11285D01*
X37092Y-11285D02*
X37031Y-11298D01*
X37031Y-11298D02*
X36969Y-11298D01*
X36969Y-11298D02*
X36908Y-11285D01*
X36908Y-11285D02*
X36850Y-11259D01*
X36850Y-11259D02*
X36800Y-11222D01*
X36800Y-11222D02*
X36758Y-11176D01*
X36758Y-11176D02*
X36726Y-11122D01*
X36726Y-11122D02*
X36707Y-11062D01*
X36707Y-11062D02*
X36700Y-11000D01*
X36700Y-11000D02*
X36707Y-10938D01*
X36707Y-10938D02*
X36726Y-10878D01*
X36726Y-10878D02*
X36758Y-10824D01*
X36758Y-10824D02*
X36800Y-10778D01*
X36800Y-10778D02*
X36850Y-10741D01*
X36850Y-10741D02*
X36908Y-10715D01*
X36908Y-10715D02*
X36969Y-10702D01*
X36969Y-10702D02*
X37031Y-10702D01*
X37031Y-10702D02*
X37092Y-10715D01*
X37092Y-10715D02*
X37150Y-10741D01*
X37150Y-10741D02*
X37200Y-10778D01*
X37200Y-10778D02*
X37242Y-10824D01*
X37242Y-10824D02*
X37274Y-10878D01*
X37274Y-10878D02*
X37293Y-10938D01*
X37293Y-10938D02*
X37300Y-11000D01*
X44300Y-11000D02*
X44293Y-11062D01*
X44293Y-11062D02*
X44274Y-11122D01*
X44274Y-11122D02*
X44242Y-11176D01*
X44242Y-11176D02*
X44200Y-11222D01*
X44200Y-11222D02*
X44150Y-11259D01*
X44150Y-11259D02*
X44092Y-11285D01*
X44092Y-11285D02*
X44031Y-11298D01*
X44031Y-11298D02*
X43969Y-11298D01*
X43969Y-11298D02*
X43908Y-11285D01*
X43908Y-11285D02*
X43850Y-11259D01*
X43850Y-11259D02*
X43800Y-11222D01*
X43800Y-11222D02*
X43758Y-11176D01*
X43758Y-11176D02*
X43726Y-11122D01*
X43726Y-11122D02*
X43707Y-11062D01*
X43707Y-11062D02*
X43700Y-11000D01*
X43700Y-11000D02*
X43707Y-10938D01*
X43707Y-10938D02*
X43726Y-10878D01*
X43726Y-10878D02*
X43758Y-10824D01*
X43758Y-10824D02*
X43800Y-10778D01*
X43800Y-10778D02*
X43850Y-10741D01*
X43850Y-10741D02*
X43908Y-10715D01*
X43908Y-10715D02*
X43969Y-10702D01*
X43969Y-10702D02*
X44031Y-10702D01*
X44031Y-10702D02*
X44092Y-10715D01*
X44092Y-10715D02*
X44150Y-10741D01*
X44150Y-10741D02*
X44200Y-10778D01*
X44200Y-10778D02*
X44242Y-10824D01*
X44242Y-10824D02*
X44274Y-10878D01*
X44274Y-10878D02*
X44293Y-10938D01*
X44293Y-10938D02*
X44300Y-11000D01*
X36300Y-11000D02*
X36293Y-11062D01*
X36293Y-11062D02*
X36274Y-11122D01*
X36274Y-11122D02*
X36242Y-11176D01*
X36242Y-11176D02*
X36200Y-11222D01*
X36200Y-11222D02*
X36150Y-11259D01*
X36150Y-11259D02*
X36092Y-11285D01*
X36092Y-11285D02*
X36031Y-11298D01*
X36031Y-11298D02*
X35969Y-11298D01*
X35969Y-11298D02*
X35908Y-11285D01*
X35908Y-11285D02*
X35850Y-11259D01*
X35850Y-11259D02*
X35800Y-11222D01*
X35800Y-11222D02*
X35758Y-11176D01*
X35758Y-11176D02*
X35726Y-11122D01*
X35726Y-11122D02*
X35707Y-11062D01*
X35707Y-11062D02*
X35700Y-11000D01*
X35700Y-11000D02*
X35707Y-10938D01*
X35707Y-10938D02*
X35726Y-10878D01*
X35726Y-10878D02*
X35758Y-10824D01*
X35758Y-10824D02*
X35800Y-10778D01*
X35800Y-10778D02*
X35850Y-10741D01*
X35850Y-10741D02*
X35908Y-10715D01*
X35908Y-10715D02*
X35969Y-10702D01*
X35969Y-10702D02*
X36031Y-10702D01*
X36031Y-10702D02*
X36092Y-10715D01*
X36092Y-10715D02*
X36150Y-10741D01*
X36150Y-10741D02*
X36200Y-10778D01*
X36200Y-10778D02*
X36242Y-10824D01*
X36242Y-10824D02*
X36274Y-10878D01*
X36274Y-10878D02*
X36293Y-10938D01*
X36293Y-10938D02*
X36300Y-11000D01*
X43300Y-11000D02*
X43293Y-11062D01*
X43293Y-11062D02*
X43274Y-11122D01*
X43274Y-11122D02*
X43242Y-11176D01*
X43242Y-11176D02*
X43200Y-11222D01*
X43200Y-11222D02*
X43150Y-11259D01*
X43150Y-11259D02*
X43092Y-11285D01*
X43092Y-11285D02*
X43031Y-11298D01*
X43031Y-11298D02*
X42969Y-11298D01*
X42969Y-11298D02*
X42908Y-11285D01*
X42908Y-11285D02*
X42850Y-11259D01*
X42850Y-11259D02*
X42800Y-11222D01*
X42800Y-11222D02*
X42758Y-11176D01*
X42758Y-11176D02*
X42726Y-11122D01*
X42726Y-11122D02*
X42707Y-11062D01*
X42707Y-11062D02*
X42700Y-11000D01*
X42700Y-11000D02*
X42707Y-10938D01*
X42707Y-10938D02*
X42726Y-10878D01*
X42726Y-10878D02*
X42758Y-10824D01*
X42758Y-10824D02*
X42800Y-10778D01*
X42800Y-10778D02*
X42850Y-10741D01*
X42850Y-10741D02*
X42908Y-10715D01*
X42908Y-10715D02*
X42969Y-10702D01*
X42969Y-10702D02*
X43031Y-10702D01*
X43031Y-10702D02*
X43092Y-10715D01*
X43092Y-10715D02*
X43150Y-10741D01*
X43150Y-10741D02*
X43200Y-10778D01*
X43200Y-10778D02*
X43242Y-10824D01*
X43242Y-10824D02*
X43274Y-10878D01*
X43274Y-10878D02*
X43293Y-10938D01*
X43293Y-10938D02*
X43300Y-11000D01*
X35300Y-11000D02*
X35293Y-11062D01*
X35293Y-11062D02*
X35274Y-11122D01*
X35274Y-11122D02*
X35242Y-11176D01*
X35242Y-11176D02*
X35200Y-11222D01*
X35200Y-11222D02*
X35150Y-11259D01*
X35150Y-11259D02*
X35092Y-11285D01*
X35092Y-11285D02*
X35031Y-11298D01*
X35031Y-11298D02*
X34969Y-11298D01*
X34969Y-11298D02*
X34908Y-11285D01*
X34908Y-11285D02*
X34850Y-11259D01*
X34850Y-11259D02*
X34800Y-11222D01*
X34800Y-11222D02*
X34758Y-11176D01*
X34758Y-11176D02*
X34726Y-11122D01*
X34726Y-11122D02*
X34707Y-11062D01*
X34707Y-11062D02*
X34700Y-11000D01*
X34700Y-11000D02*
X34707Y-10938D01*
X34707Y-10938D02*
X34726Y-10878D01*
X34726Y-10878D02*
X34758Y-10824D01*
X34758Y-10824D02*
X34800Y-10778D01*
X34800Y-10778D02*
X34850Y-10741D01*
X34850Y-10741D02*
X34908Y-10715D01*
X34908Y-10715D02*
X34969Y-10702D01*
X34969Y-10702D02*
X35031Y-10702D01*
X35031Y-10702D02*
X35092Y-10715D01*
X35092Y-10715D02*
X35150Y-10741D01*
X35150Y-10741D02*
X35200Y-10778D01*
X35200Y-10778D02*
X35242Y-10824D01*
X35242Y-10824D02*
X35274Y-10878D01*
X35274Y-10878D02*
X35293Y-10938D01*
X35293Y-10938D02*
X35300Y-11000D01*
X42300Y-11000D02*
X42293Y-11062D01*
X42293Y-11062D02*
X42274Y-11122D01*
X42274Y-11122D02*
X42242Y-11176D01*
X42242Y-11176D02*
X42200Y-11222D01*
X42200Y-11222D02*
X42150Y-11259D01*
X42150Y-11259D02*
X42092Y-11285D01*
X42092Y-11285D02*
X42031Y-11298D01*
X42031Y-11298D02*
X41969Y-11298D01*
X41969Y-11298D02*
X41908Y-11285D01*
X41908Y-11285D02*
X41850Y-11259D01*
X41850Y-11259D02*
X41800Y-11222D01*
X41800Y-11222D02*
X41758Y-11176D01*
X41758Y-11176D02*
X41726Y-11122D01*
X41726Y-11122D02*
X41707Y-11062D01*
X41707Y-11062D02*
X41700Y-11000D01*
X41700Y-11000D02*
X41707Y-10938D01*
X41707Y-10938D02*
X41726Y-10878D01*
X41726Y-10878D02*
X41758Y-10824D01*
X41758Y-10824D02*
X41800Y-10778D01*
X41800Y-10778D02*
X41850Y-10741D01*
X41850Y-10741D02*
X41908Y-10715D01*
X41908Y-10715D02*
X41969Y-10702D01*
X41969Y-10702D02*
X42031Y-10702D01*
X42031Y-10702D02*
X42092Y-10715D01*
X42092Y-10715D02*
X42150Y-10741D01*
X42150Y-10741D02*
X42200Y-10778D01*
X42200Y-10778D02*
X42242Y-10824D01*
X42242Y-10824D02*
X42274Y-10878D01*
X42274Y-10878D02*
X42293Y-10938D01*
X42293Y-10938D02*
X42300Y-11000D01*
X34300Y-11000D02*
X34293Y-11062D01*
X34293Y-11062D02*
X34274Y-11122D01*
X34274Y-11122D02*
X34242Y-11176D01*
X34242Y-11176D02*
X34200Y-11222D01*
X34200Y-11222D02*
X34150Y-11259D01*
X34150Y-11259D02*
X34092Y-11285D01*
X34092Y-11285D02*
X34031Y-11298D01*
X34031Y-11298D02*
X33969Y-11298D01*
X33969Y-11298D02*
X33908Y-11285D01*
X33908Y-11285D02*
X33850Y-11259D01*
X33850Y-11259D02*
X33800Y-11222D01*
X33800Y-11222D02*
X33758Y-11176D01*
X33758Y-11176D02*
X33726Y-11122D01*
X33726Y-11122D02*
X33707Y-11062D01*
X33707Y-11062D02*
X33700Y-11000D01*
X33700Y-11000D02*
X33707Y-10938D01*
X33707Y-10938D02*
X33726Y-10878D01*
X33726Y-10878D02*
X33758Y-10824D01*
X33758Y-10824D02*
X33800Y-10778D01*
X33800Y-10778D02*
X33850Y-10741D01*
X33850Y-10741D02*
X33908Y-10715D01*
X33908Y-10715D02*
X33969Y-10702D01*
X33969Y-10702D02*
X34031Y-10702D01*
X34031Y-10702D02*
X34092Y-10715D01*
X34092Y-10715D02*
X34150Y-10741D01*
X34150Y-10741D02*
X34200Y-10778D01*
X34200Y-10778D02*
X34242Y-10824D01*
X34242Y-10824D02*
X34274Y-10878D01*
X34274Y-10878D02*
X34293Y-10938D01*
X34293Y-10938D02*
X34300Y-11000D01*
X41300Y-11000D02*
X41293Y-11062D01*
X41293Y-11062D02*
X41274Y-11122D01*
X41274Y-11122D02*
X41242Y-11176D01*
X41242Y-11176D02*
X41200Y-11222D01*
X41200Y-11222D02*
X41150Y-11259D01*
X41150Y-11259D02*
X41092Y-11285D01*
X41092Y-11285D02*
X41031Y-11298D01*
X41031Y-11298D02*
X40969Y-11298D01*
X40969Y-11298D02*
X40908Y-11285D01*
X40908Y-11285D02*
X40850Y-11259D01*
X40850Y-11259D02*
X40800Y-11222D01*
X40800Y-11222D02*
X40758Y-11176D01*
X40758Y-11176D02*
X40726Y-11122D01*
X40726Y-11122D02*
X40707Y-11062D01*
X40707Y-11062D02*
X40700Y-11000D01*
X40700Y-11000D02*
X40707Y-10938D01*
X40707Y-10938D02*
X40726Y-10878D01*
X40726Y-10878D02*
X40758Y-10824D01*
X40758Y-10824D02*
X40800Y-10778D01*
X40800Y-10778D02*
X40850Y-10741D01*
X40850Y-10741D02*
X40908Y-10715D01*
X40908Y-10715D02*
X40969Y-10702D01*
X40969Y-10702D02*
X41031Y-10702D01*
X41031Y-10702D02*
X41092Y-10715D01*
X41092Y-10715D02*
X41150Y-10741D01*
X41150Y-10741D02*
X41200Y-10778D01*
X41200Y-10778D02*
X41242Y-10824D01*
X41242Y-10824D02*
X41274Y-10878D01*
X41274Y-10878D02*
X41293Y-10938D01*
X41293Y-10938D02*
X41300Y-11000D01*
X33300Y-11000D02*
X33293Y-11062D01*
X33293Y-11062D02*
X33274Y-11122D01*
X33274Y-11122D02*
X33242Y-11176D01*
X33242Y-11176D02*
X33200Y-11222D01*
X33200Y-11222D02*
X33150Y-11259D01*
X33150Y-11259D02*
X33092Y-11285D01*
X33092Y-11285D02*
X33031Y-11298D01*
X33031Y-11298D02*
X32969Y-11298D01*
X32969Y-11298D02*
X32908Y-11285D01*
X32908Y-11285D02*
X32850Y-11259D01*
X32850Y-11259D02*
X32800Y-11222D01*
X32800Y-11222D02*
X32758Y-11176D01*
X32758Y-11176D02*
X32726Y-11122D01*
X32726Y-11122D02*
X32707Y-11062D01*
X32707Y-11062D02*
X32700Y-11000D01*
X32700Y-11000D02*
X32707Y-10938D01*
X32707Y-10938D02*
X32726Y-10878D01*
X32726Y-10878D02*
X32758Y-10824D01*
X32758Y-10824D02*
X32800Y-10778D01*
X32800Y-10778D02*
X32850Y-10741D01*
X32850Y-10741D02*
X32908Y-10715D01*
X32908Y-10715D02*
X32969Y-10702D01*
X32969Y-10702D02*
X33031Y-10702D01*
X33031Y-10702D02*
X33092Y-10715D01*
X33092Y-10715D02*
X33150Y-10741D01*
X33150Y-10741D02*
X33200Y-10778D01*
X33200Y-10778D02*
X33242Y-10824D01*
X33242Y-10824D02*
X33274Y-10878D01*
X33274Y-10878D02*
X33293Y-10938D01*
X33293Y-10938D02*
X33300Y-11000D01*
X40300Y-11000D02*
X40293Y-11062D01*
X40293Y-11062D02*
X40274Y-11122D01*
X40274Y-11122D02*
X40242Y-11176D01*
X40242Y-11176D02*
X40200Y-11222D01*
X40200Y-11222D02*
X40150Y-11259D01*
X40150Y-11259D02*
X40092Y-11285D01*
X40092Y-11285D02*
X40031Y-11298D01*
X40031Y-11298D02*
X39969Y-11298D01*
X39969Y-11298D02*
X39908Y-11285D01*
X39908Y-11285D02*
X39850Y-11259D01*
X39850Y-11259D02*
X39800Y-11222D01*
X39800Y-11222D02*
X39758Y-11176D01*
X39758Y-11176D02*
X39726Y-11122D01*
X39726Y-11122D02*
X39707Y-11062D01*
X39707Y-11062D02*
X39700Y-11000D01*
X39700Y-11000D02*
X39707Y-10938D01*
X39707Y-10938D02*
X39726Y-10878D01*
X39726Y-10878D02*
X39758Y-10824D01*
X39758Y-10824D02*
X39800Y-10778D01*
X39800Y-10778D02*
X39850Y-10741D01*
X39850Y-10741D02*
X39908Y-10715D01*
X39908Y-10715D02*
X39969Y-10702D01*
X39969Y-10702D02*
X40031Y-10702D01*
X40031Y-10702D02*
X40092Y-10715D01*
X40092Y-10715D02*
X40150Y-10741D01*
X40150Y-10741D02*
X40200Y-10778D01*
X40200Y-10778D02*
X40242Y-10824D01*
X40242Y-10824D02*
X40274Y-10878D01*
X40274Y-10878D02*
X40293Y-10938D01*
X40293Y-10938D02*
X40300Y-11000D01*
X32300Y-11000D02*
X32293Y-11062D01*
X32293Y-11062D02*
X32274Y-11122D01*
X32274Y-11122D02*
X32242Y-11176D01*
X32242Y-11176D02*
X32200Y-11222D01*
X32200Y-11222D02*
X32150Y-11259D01*
X32150Y-11259D02*
X32092Y-11285D01*
X32092Y-11285D02*
X32031Y-11298D01*
X32031Y-11298D02*
X31969Y-11298D01*
X31969Y-11298D02*
X31908Y-11285D01*
X31908Y-11285D02*
X31850Y-11259D01*
X31850Y-11259D02*
X31800Y-11222D01*
X31800Y-11222D02*
X31758Y-11176D01*
X31758Y-11176D02*
X31726Y-11122D01*
X31726Y-11122D02*
X31707Y-11062D01*
X31707Y-11062D02*
X31700Y-11000D01*
X31700Y-11000D02*
X31707Y-10938D01*
X31707Y-10938D02*
X31726Y-10878D01*
X31726Y-10878D02*
X31758Y-10824D01*
X31758Y-10824D02*
X31800Y-10778D01*
X31800Y-10778D02*
X31850Y-10741D01*
X31850Y-10741D02*
X31908Y-10715D01*
X31908Y-10715D02*
X31969Y-10702D01*
X31969Y-10702D02*
X32031Y-10702D01*
X32031Y-10702D02*
X32092Y-10715D01*
X32092Y-10715D02*
X32150Y-10741D01*
X32150Y-10741D02*
X32200Y-10778D01*
X32200Y-10778D02*
X32242Y-10824D01*
X32242Y-10824D02*
X32274Y-10878D01*
X32274Y-10878D02*
X32293Y-10938D01*
X32293Y-10938D02*
X32300Y-11000D01*
X39300Y-11000D02*
X39293Y-11062D01*
X39293Y-11062D02*
X39274Y-11122D01*
X39274Y-11122D02*
X39242Y-11176D01*
X39242Y-11176D02*
X39200Y-11222D01*
X39200Y-11222D02*
X39150Y-11259D01*
X39150Y-11259D02*
X39092Y-11285D01*
X39092Y-11285D02*
X39031Y-11298D01*
X39031Y-11298D02*
X38969Y-11298D01*
X38969Y-11298D02*
X38908Y-11285D01*
X38908Y-11285D02*
X38850Y-11259D01*
X38850Y-11259D02*
X38800Y-11222D01*
X38800Y-11222D02*
X38758Y-11176D01*
X38758Y-11176D02*
X38726Y-11122D01*
X38726Y-11122D02*
X38707Y-11062D01*
X38707Y-11062D02*
X38700Y-11000D01*
X38700Y-11000D02*
X38707Y-10938D01*
X38707Y-10938D02*
X38726Y-10878D01*
X38726Y-10878D02*
X38758Y-10824D01*
X38758Y-10824D02*
X38800Y-10778D01*
X38800Y-10778D02*
X38850Y-10741D01*
X38850Y-10741D02*
X38908Y-10715D01*
X38908Y-10715D02*
X38969Y-10702D01*
X38969Y-10702D02*
X39031Y-10702D01*
X39031Y-10702D02*
X39092Y-10715D01*
X39092Y-10715D02*
X39150Y-10741D01*
X39150Y-10741D02*
X39200Y-10778D01*
X39200Y-10778D02*
X39242Y-10824D01*
X39242Y-10824D02*
X39274Y-10878D01*
X39274Y-10878D02*
X39293Y-10938D01*
X39293Y-10938D02*
X39300Y-11000D01*
X31300Y-11000D02*
X31293Y-11062D01*
X31293Y-11062D02*
X31274Y-11122D01*
X31274Y-11122D02*
X31242Y-11176D01*
X31242Y-11176D02*
X31200Y-11222D01*
X31200Y-11222D02*
X31150Y-11259D01*
X31150Y-11259D02*
X31092Y-11285D01*
X31092Y-11285D02*
X31031Y-11298D01*
X31031Y-11298D02*
X30969Y-11298D01*
X30969Y-11298D02*
X30908Y-11285D01*
X30908Y-11285D02*
X30850Y-11259D01*
X30850Y-11259D02*
X30800Y-11222D01*
X30800Y-11222D02*
X30758Y-11176D01*
X30758Y-11176D02*
X30726Y-11122D01*
X30726Y-11122D02*
X30707Y-11062D01*
X30707Y-11062D02*
X30700Y-11000D01*
X30700Y-11000D02*
X30707Y-10938D01*
X30707Y-10938D02*
X30726Y-10878D01*
X30726Y-10878D02*
X30758Y-10824D01*
X30758Y-10824D02*
X30800Y-10778D01*
X30800Y-10778D02*
X30850Y-10741D01*
X30850Y-10741D02*
X30908Y-10715D01*
X30908Y-10715D02*
X30969Y-10702D01*
X30969Y-10702D02*
X31031Y-10702D01*
X31031Y-10702D02*
X31092Y-10715D01*
X31092Y-10715D02*
X31150Y-10741D01*
X31150Y-10741D02*
X31200Y-10778D01*
X31200Y-10778D02*
X31242Y-10824D01*
X31242Y-10824D02*
X31274Y-10878D01*
X31274Y-10878D02*
X31293Y-10938D01*
X31293Y-10938D02*
X31300Y-11000D01*
X30300Y-11000D02*
X30293Y-11062D01*
X30293Y-11062D02*
X30274Y-11122D01*
X30274Y-11122D02*
X30242Y-11176D01*
X30242Y-11176D02*
X30200Y-11222D01*
X30200Y-11222D02*
X30150Y-11259D01*
X30150Y-11259D02*
X30092Y-11285D01*
X30092Y-11285D02*
X30031Y-11298D01*
X30031Y-11298D02*
X29969Y-11298D01*
X29969Y-11298D02*
X29908Y-11285D01*
X29908Y-11285D02*
X29850Y-11259D01*
X29850Y-11259D02*
X29800Y-11222D01*
X29800Y-11222D02*
X29758Y-11176D01*
X29758Y-11176D02*
X29726Y-11122D01*
X29726Y-11122D02*
X29707Y-11062D01*
X29707Y-11062D02*
X29700Y-11000D01*
X29700Y-11000D02*
X29707Y-10938D01*
X29707Y-10938D02*
X29726Y-10878D01*
X29726Y-10878D02*
X29758Y-10824D01*
X29758Y-10824D02*
X29800Y-10778D01*
X29800Y-10778D02*
X29850Y-10741D01*
X29850Y-10741D02*
X29908Y-10715D01*
X29908Y-10715D02*
X29969Y-10702D01*
X29969Y-10702D02*
X30031Y-10702D01*
X30031Y-10702D02*
X30092Y-10715D01*
X30092Y-10715D02*
X30150Y-10741D01*
X30150Y-10741D02*
X30200Y-10778D01*
X30200Y-10778D02*
X30242Y-10824D01*
X30242Y-10824D02*
X30274Y-10878D01*
X30274Y-10878D02*
X30293Y-10938D01*
X30293Y-10938D02*
X30300Y-11000D01*
X29300Y-11000D02*
X29293Y-11062D01*
X29293Y-11062D02*
X29274Y-11122D01*
X29274Y-11122D02*
X29242Y-11176D01*
X29242Y-11176D02*
X29200Y-11222D01*
X29200Y-11222D02*
X29150Y-11259D01*
X29150Y-11259D02*
X29092Y-11285D01*
X29092Y-11285D02*
X29031Y-11298D01*
X29031Y-11298D02*
X28969Y-11298D01*
X28969Y-11298D02*
X28908Y-11285D01*
X28908Y-11285D02*
X28850Y-11259D01*
X28850Y-11259D02*
X28800Y-11222D01*
X28800Y-11222D02*
X28758Y-11176D01*
X28758Y-11176D02*
X28726Y-11122D01*
X28726Y-11122D02*
X28707Y-11062D01*
X28707Y-11062D02*
X28700Y-11000D01*
X28700Y-11000D02*
X28707Y-10938D01*
X28707Y-10938D02*
X28726Y-10878D01*
X28726Y-10878D02*
X28758Y-10824D01*
X28758Y-10824D02*
X28800Y-10778D01*
X28800Y-10778D02*
X28850Y-10741D01*
X28850Y-10741D02*
X28908Y-10715D01*
X28908Y-10715D02*
X28969Y-10702D01*
X28969Y-10702D02*
X29031Y-10702D01*
X29031Y-10702D02*
X29092Y-10715D01*
X29092Y-10715D02*
X29150Y-10741D01*
X29150Y-10741D02*
X29200Y-10778D01*
X29200Y-10778D02*
X29242Y-10824D01*
X29242Y-10824D02*
X29274Y-10878D01*
X29274Y-10878D02*
X29293Y-10938D01*
X29293Y-10938D02*
X29300Y-11000D01*
X28300Y-11000D02*
X28293Y-11062D01*
X28293Y-11062D02*
X28274Y-11122D01*
X28274Y-11122D02*
X28242Y-11176D01*
X28242Y-11176D02*
X28200Y-11222D01*
X28200Y-11222D02*
X28150Y-11259D01*
X28150Y-11259D02*
X28092Y-11285D01*
X28092Y-11285D02*
X28031Y-11298D01*
X28031Y-11298D02*
X27969Y-11298D01*
X27969Y-11298D02*
X27908Y-11285D01*
X27908Y-11285D02*
X27850Y-11259D01*
X27850Y-11259D02*
X27800Y-11222D01*
X27800Y-11222D02*
X27758Y-11176D01*
X27758Y-11176D02*
X27726Y-11122D01*
X27726Y-11122D02*
X27707Y-11062D01*
X27707Y-11062D02*
X27700Y-11000D01*
X27700Y-11000D02*
X27707Y-10938D01*
X27707Y-10938D02*
X27726Y-10878D01*
X27726Y-10878D02*
X27758Y-10824D01*
X27758Y-10824D02*
X27800Y-10778D01*
X27800Y-10778D02*
X27850Y-10741D01*
X27850Y-10741D02*
X27908Y-10715D01*
X27908Y-10715D02*
X27969Y-10702D01*
X27969Y-10702D02*
X28031Y-10702D01*
X28031Y-10702D02*
X28092Y-10715D01*
X28092Y-10715D02*
X28150Y-10741D01*
X28150Y-10741D02*
X28200Y-10778D01*
X28200Y-10778D02*
X28242Y-10824D01*
X28242Y-10824D02*
X28274Y-10878D01*
X28274Y-10878D02*
X28293Y-10938D01*
X28293Y-10938D02*
X28300Y-11000D01*
X27300Y-11000D02*
X27293Y-11062D01*
X27293Y-11062D02*
X27274Y-11122D01*
X27274Y-11122D02*
X27242Y-11176D01*
X27242Y-11176D02*
X27200Y-11222D01*
X27200Y-11222D02*
X27150Y-11259D01*
X27150Y-11259D02*
X27092Y-11285D01*
X27092Y-11285D02*
X27031Y-11298D01*
X27031Y-11298D02*
X26969Y-11298D01*
X26969Y-11298D02*
X26908Y-11285D01*
X26908Y-11285D02*
X26850Y-11259D01*
X26850Y-11259D02*
X26800Y-11222D01*
X26800Y-11222D02*
X26758Y-11176D01*
X26758Y-11176D02*
X26726Y-11122D01*
X26726Y-11122D02*
X26707Y-11062D01*
X26707Y-11062D02*
X26700Y-11000D01*
X26700Y-11000D02*
X26707Y-10938D01*
X26707Y-10938D02*
X26726Y-10878D01*
X26726Y-10878D02*
X26758Y-10824D01*
X26758Y-10824D02*
X26800Y-10778D01*
X26800Y-10778D02*
X26850Y-10741D01*
X26850Y-10741D02*
X26908Y-10715D01*
X26908Y-10715D02*
X26969Y-10702D01*
X26969Y-10702D02*
X27031Y-10702D01*
X27031Y-10702D02*
X27092Y-10715D01*
X27092Y-10715D02*
X27150Y-10741D01*
X27150Y-10741D02*
X27200Y-10778D01*
X27200Y-10778D02*
X27242Y-10824D01*
X27242Y-10824D02*
X27274Y-10878D01*
X27274Y-10878D02*
X27293Y-10938D01*
X27293Y-10938D02*
X27300Y-11000D01*
X26300Y-11000D02*
X26293Y-11062D01*
X26293Y-11062D02*
X26274Y-11122D01*
X26274Y-11122D02*
X26242Y-11176D01*
X26242Y-11176D02*
X26200Y-11222D01*
X26200Y-11222D02*
X26150Y-11259D01*
X26150Y-11259D02*
X26092Y-11285D01*
X26092Y-11285D02*
X26031Y-11298D01*
X26031Y-11298D02*
X25969Y-11298D01*
X25969Y-11298D02*
X25908Y-11285D01*
X25908Y-11285D02*
X25850Y-11259D01*
X25850Y-11259D02*
X25800Y-11222D01*
X25800Y-11222D02*
X25758Y-11176D01*
X25758Y-11176D02*
X25726Y-11122D01*
X25726Y-11122D02*
X25707Y-11062D01*
X25707Y-11062D02*
X25700Y-11000D01*
X25700Y-11000D02*
X25707Y-10938D01*
X25707Y-10938D02*
X25726Y-10878D01*
X25726Y-10878D02*
X25758Y-10824D01*
X25758Y-10824D02*
X25800Y-10778D01*
X25800Y-10778D02*
X25850Y-10741D01*
X25850Y-10741D02*
X25908Y-10715D01*
X25908Y-10715D02*
X25969Y-10702D01*
X25969Y-10702D02*
X26031Y-10702D01*
X26031Y-10702D02*
X26092Y-10715D01*
X26092Y-10715D02*
X26150Y-10741D01*
X26150Y-10741D02*
X26200Y-10778D01*
X26200Y-10778D02*
X26242Y-10824D01*
X26242Y-10824D02*
X26274Y-10878D01*
X26274Y-10878D02*
X26293Y-10938D01*
X26293Y-10938D02*
X26300Y-11000D01*
X25300Y-11000D02*
X25293Y-11062D01*
X25293Y-11062D02*
X25274Y-11122D01*
X25274Y-11122D02*
X25242Y-11176D01*
X25242Y-11176D02*
X25200Y-11222D01*
X25200Y-11222D02*
X25150Y-11259D01*
X25150Y-11259D02*
X25092Y-11285D01*
X25092Y-11285D02*
X25031Y-11298D01*
X25031Y-11298D02*
X24969Y-11298D01*
X24969Y-11298D02*
X24908Y-11285D01*
X24908Y-11285D02*
X24850Y-11259D01*
X24850Y-11259D02*
X24800Y-11222D01*
X24800Y-11222D02*
X24758Y-11176D01*
X24758Y-11176D02*
X24726Y-11122D01*
X24726Y-11122D02*
X24707Y-11062D01*
X24707Y-11062D02*
X24700Y-11000D01*
X24700Y-11000D02*
X24707Y-10938D01*
X24707Y-10938D02*
X24726Y-10878D01*
X24726Y-10878D02*
X24758Y-10824D01*
X24758Y-10824D02*
X24800Y-10778D01*
X24800Y-10778D02*
X24850Y-10741D01*
X24850Y-10741D02*
X24908Y-10715D01*
X24908Y-10715D02*
X24969Y-10702D01*
X24969Y-10702D02*
X25031Y-10702D01*
X25031Y-10702D02*
X25092Y-10715D01*
X25092Y-10715D02*
X25150Y-10741D01*
X25150Y-10741D02*
X25200Y-10778D01*
X25200Y-10778D02*
X25242Y-10824D01*
X25242Y-10824D02*
X25274Y-10878D01*
X25274Y-10878D02*
X25293Y-10938D01*
X25293Y-10938D02*
X25300Y-11000D01*
X24300Y-11000D02*
X24293Y-11062D01*
X24293Y-11062D02*
X24274Y-11122D01*
X24274Y-11122D02*
X24242Y-11176D01*
X24242Y-11176D02*
X24200Y-11222D01*
X24200Y-11222D02*
X24150Y-11259D01*
X24150Y-11259D02*
X24092Y-11285D01*
X24092Y-11285D02*
X24031Y-11298D01*
X24031Y-11298D02*
X23969Y-11298D01*
X23969Y-11298D02*
X23908Y-11285D01*
X23908Y-11285D02*
X23850Y-11259D01*
X23850Y-11259D02*
X23800Y-11222D01*
X23800Y-11222D02*
X23758Y-11176D01*
X23758Y-11176D02*
X23726Y-11122D01*
X23726Y-11122D02*
X23707Y-11062D01*
X23707Y-11062D02*
X23700Y-11000D01*
X23700Y-11000D02*
X23707Y-10938D01*
X23707Y-10938D02*
X23726Y-10878D01*
X23726Y-10878D02*
X23758Y-10824D01*
X23758Y-10824D02*
X23800Y-10778D01*
X23800Y-10778D02*
X23850Y-10741D01*
X23850Y-10741D02*
X23908Y-10715D01*
X23908Y-10715D02*
X23969Y-10702D01*
X23969Y-10702D02*
X24031Y-10702D01*
X24031Y-10702D02*
X24092Y-10715D01*
X24092Y-10715D02*
X24150Y-10741D01*
X24150Y-10741D02*
X24200Y-10778D01*
X24200Y-10778D02*
X24242Y-10824D01*
X24242Y-10824D02*
X24274Y-10878D01*
X24274Y-10878D02*
X24293Y-10938D01*
X24293Y-10938D02*
X24300Y-11000D01*
X23300Y-11000D02*
X23293Y-11062D01*
X23293Y-11062D02*
X23274Y-11122D01*
X23274Y-11122D02*
X23242Y-11176D01*
X23242Y-11176D02*
X23200Y-11222D01*
X23200Y-11222D02*
X23150Y-11259D01*
X23150Y-11259D02*
X23092Y-11285D01*
X23092Y-11285D02*
X23031Y-11298D01*
X23031Y-11298D02*
X22969Y-11298D01*
X22969Y-11298D02*
X22908Y-11285D01*
X22908Y-11285D02*
X22850Y-11259D01*
X22850Y-11259D02*
X22800Y-11222D01*
X22800Y-11222D02*
X22758Y-11176D01*
X22758Y-11176D02*
X22726Y-11122D01*
X22726Y-11122D02*
X22707Y-11062D01*
X22707Y-11062D02*
X22700Y-11000D01*
X22700Y-11000D02*
X22707Y-10938D01*
X22707Y-10938D02*
X22726Y-10878D01*
X22726Y-10878D02*
X22758Y-10824D01*
X22758Y-10824D02*
X22800Y-10778D01*
X22800Y-10778D02*
X22850Y-10741D01*
X22850Y-10741D02*
X22908Y-10715D01*
X22908Y-10715D02*
X22969Y-10702D01*
X22969Y-10702D02*
X23031Y-10702D01*
X23031Y-10702D02*
X23092Y-10715D01*
X23092Y-10715D02*
X23150Y-10741D01*
X23150Y-10741D02*
X23200Y-10778D01*
X23200Y-10778D02*
X23242Y-10824D01*
X23242Y-10824D02*
X23274Y-10878D01*
X23274Y-10878D02*
X23293Y-10938D01*
X23293Y-10938D02*
X23300Y-11000D01*
X22300Y-11000D02*
X22293Y-11062D01*
X22293Y-11062D02*
X22274Y-11122D01*
X22274Y-11122D02*
X22242Y-11176D01*
X22242Y-11176D02*
X22200Y-11222D01*
X22200Y-11222D02*
X22150Y-11259D01*
X22150Y-11259D02*
X22092Y-11285D01*
X22092Y-11285D02*
X22031Y-11298D01*
X22031Y-11298D02*
X21969Y-11298D01*
X21969Y-11298D02*
X21908Y-11285D01*
X21908Y-11285D02*
X21850Y-11259D01*
X21850Y-11259D02*
X21800Y-11222D01*
X21800Y-11222D02*
X21758Y-11176D01*
X21758Y-11176D02*
X21726Y-11122D01*
X21726Y-11122D02*
X21707Y-11062D01*
X21707Y-11062D02*
X21700Y-11000D01*
X21700Y-11000D02*
X21707Y-10938D01*
X21707Y-10938D02*
X21726Y-10878D01*
X21726Y-10878D02*
X21758Y-10824D01*
X21758Y-10824D02*
X21800Y-10778D01*
X21800Y-10778D02*
X21850Y-10741D01*
X21850Y-10741D02*
X21908Y-10715D01*
X21908Y-10715D02*
X21969Y-10702D01*
X21969Y-10702D02*
X22031Y-10702D01*
X22031Y-10702D02*
X22092Y-10715D01*
X22092Y-10715D02*
X22150Y-10741D01*
X22150Y-10741D02*
X22200Y-10778D01*
X22200Y-10778D02*
X22242Y-10824D01*
X22242Y-10824D02*
X22274Y-10878D01*
X22274Y-10878D02*
X22293Y-10938D01*
X22293Y-10938D02*
X22300Y-11000D01*
X21300Y-11000D02*
X21293Y-11062D01*
X21293Y-11062D02*
X21274Y-11122D01*
X21274Y-11122D02*
X21242Y-11176D01*
X21242Y-11176D02*
X21200Y-11222D01*
X21200Y-11222D02*
X21150Y-11259D01*
X21150Y-11259D02*
X21092Y-11285D01*
X21092Y-11285D02*
X21031Y-11298D01*
X21031Y-11298D02*
X20969Y-11298D01*
X20969Y-11298D02*
X20908Y-11285D01*
X20908Y-11285D02*
X20850Y-11259D01*
X20850Y-11259D02*
X20800Y-11222D01*
X20800Y-11222D02*
X20758Y-11176D01*
X20758Y-11176D02*
X20726Y-11122D01*
X20726Y-11122D02*
X20707Y-11062D01*
X20707Y-11062D02*
X20700Y-11000D01*
X20700Y-11000D02*
X20707Y-10938D01*
X20707Y-10938D02*
X20726Y-10878D01*
X20726Y-10878D02*
X20758Y-10824D01*
X20758Y-10824D02*
X20800Y-10778D01*
X20800Y-10778D02*
X20850Y-10741D01*
X20850Y-10741D02*
X20908Y-10715D01*
X20908Y-10715D02*
X20969Y-10702D01*
X20969Y-10702D02*
X21031Y-10702D01*
X21031Y-10702D02*
X21092Y-10715D01*
X21092Y-10715D02*
X21150Y-10741D01*
X21150Y-10741D02*
X21200Y-10778D01*
X21200Y-10778D02*
X21242Y-10824D01*
X21242Y-10824D02*
X21274Y-10878D01*
X21274Y-10878D02*
X21293Y-10938D01*
X21293Y-10938D02*
X21300Y-11000D01*
X20300Y-11000D02*
X20293Y-11062D01*
X20293Y-11062D02*
X20274Y-11122D01*
X20274Y-11122D02*
X20242Y-11176D01*
X20242Y-11176D02*
X20200Y-11222D01*
X20200Y-11222D02*
X20150Y-11259D01*
X20150Y-11259D02*
X20092Y-11285D01*
X20092Y-11285D02*
X20031Y-11298D01*
X20031Y-11298D02*
X19969Y-11298D01*
X19969Y-11298D02*
X19908Y-11285D01*
X19908Y-11285D02*
X19850Y-11259D01*
X19850Y-11259D02*
X19800Y-11222D01*
X19800Y-11222D02*
X19758Y-11176D01*
X19758Y-11176D02*
X19726Y-11122D01*
X19726Y-11122D02*
X19707Y-11062D01*
X19707Y-11062D02*
X19700Y-11000D01*
X19700Y-11000D02*
X19707Y-10938D01*
X19707Y-10938D02*
X19726Y-10878D01*
X19726Y-10878D02*
X19758Y-10824D01*
X19758Y-10824D02*
X19800Y-10778D01*
X19800Y-10778D02*
X19850Y-10741D01*
X19850Y-10741D02*
X19908Y-10715D01*
X19908Y-10715D02*
X19969Y-10702D01*
X19969Y-10702D02*
X20031Y-10702D01*
X20031Y-10702D02*
X20092Y-10715D01*
X20092Y-10715D02*
X20150Y-10741D01*
X20150Y-10741D02*
X20200Y-10778D01*
X20200Y-10778D02*
X20242Y-10824D01*
X20242Y-10824D02*
X20274Y-10878D01*
X20274Y-10878D02*
X20293Y-10938D01*
X20293Y-10938D02*
X20300Y-11000D01*
X19300Y-11000D02*
X19293Y-11062D01*
X19293Y-11062D02*
X19274Y-11122D01*
X19274Y-11122D02*
X19242Y-11176D01*
X19242Y-11176D02*
X19200Y-11222D01*
X19200Y-11222D02*
X19150Y-11259D01*
X19150Y-11259D02*
X19092Y-11285D01*
X19092Y-11285D02*
X19031Y-11298D01*
X19031Y-11298D02*
X18969Y-11298D01*
X18969Y-11298D02*
X18908Y-11285D01*
X18908Y-11285D02*
X18850Y-11259D01*
X18850Y-11259D02*
X18800Y-11222D01*
X18800Y-11222D02*
X18758Y-11176D01*
X18758Y-11176D02*
X18726Y-11122D01*
X18726Y-11122D02*
X18707Y-11062D01*
X18707Y-11062D02*
X18700Y-11000D01*
X18700Y-11000D02*
X18707Y-10938D01*
X18707Y-10938D02*
X18726Y-10878D01*
X18726Y-10878D02*
X18758Y-10824D01*
X18758Y-10824D02*
X18800Y-10778D01*
X18800Y-10778D02*
X18850Y-10741D01*
X18850Y-10741D02*
X18908Y-10715D01*
X18908Y-10715D02*
X18969Y-10702D01*
X18969Y-10702D02*
X19031Y-10702D01*
X19031Y-10702D02*
X19092Y-10715D01*
X19092Y-10715D02*
X19150Y-10741D01*
X19150Y-10741D02*
X19200Y-10778D01*
X19200Y-10778D02*
X19242Y-10824D01*
X19242Y-10824D02*
X19274Y-10878D01*
X19274Y-10878D02*
X19293Y-10938D01*
X19293Y-10938D02*
X19300Y-11000D01*
X18300Y-11000D02*
X18293Y-11062D01*
X18293Y-11062D02*
X18274Y-11122D01*
X18274Y-11122D02*
X18242Y-11176D01*
X18242Y-11176D02*
X18200Y-11222D01*
X18200Y-11222D02*
X18150Y-11259D01*
X18150Y-11259D02*
X18092Y-11285D01*
X18092Y-11285D02*
X18031Y-11298D01*
X18031Y-11298D02*
X17969Y-11298D01*
X17969Y-11298D02*
X17908Y-11285D01*
X17908Y-11285D02*
X17850Y-11259D01*
X17850Y-11259D02*
X17800Y-11222D01*
X17800Y-11222D02*
X17758Y-11176D01*
X17758Y-11176D02*
X17726Y-11122D01*
X17726Y-11122D02*
X17707Y-11062D01*
X17707Y-11062D02*
X17700Y-11000D01*
X17700Y-11000D02*
X17707Y-10938D01*
X17707Y-10938D02*
X17726Y-10878D01*
X17726Y-10878D02*
X17758Y-10824D01*
X17758Y-10824D02*
X17800Y-10778D01*
X17800Y-10778D02*
X17850Y-10741D01*
X17850Y-10741D02*
X17908Y-10715D01*
X17908Y-10715D02*
X17969Y-10702D01*
X17969Y-10702D02*
X18031Y-10702D01*
X18031Y-10702D02*
X18092Y-10715D01*
X18092Y-10715D02*
X18150Y-10741D01*
X18150Y-10741D02*
X18200Y-10778D01*
X18200Y-10778D02*
X18242Y-10824D01*
X18242Y-10824D02*
X18274Y-10878D01*
X18274Y-10878D02*
X18293Y-10938D01*
X18293Y-10938D02*
X18300Y-11000D01*
X17300Y-11000D02*
X17293Y-11062D01*
X17293Y-11062D02*
X17274Y-11122D01*
X17274Y-11122D02*
X17242Y-11176D01*
X17242Y-11176D02*
X17200Y-11222D01*
X17200Y-11222D02*
X17150Y-11259D01*
X17150Y-11259D02*
X17092Y-11285D01*
X17092Y-11285D02*
X17031Y-11298D01*
X17031Y-11298D02*
X16969Y-11298D01*
X16969Y-11298D02*
X16908Y-11285D01*
X16908Y-11285D02*
X16850Y-11259D01*
X16850Y-11259D02*
X16800Y-11222D01*
X16800Y-11222D02*
X16758Y-11176D01*
X16758Y-11176D02*
X16726Y-11122D01*
X16726Y-11122D02*
X16707Y-11062D01*
X16707Y-11062D02*
X16700Y-11000D01*
X16700Y-11000D02*
X16707Y-10938D01*
X16707Y-10938D02*
X16726Y-10878D01*
X16726Y-10878D02*
X16758Y-10824D01*
X16758Y-10824D02*
X16800Y-10778D01*
X16800Y-10778D02*
X16850Y-10741D01*
X16850Y-10741D02*
X16908Y-10715D01*
X16908Y-10715D02*
X16969Y-10702D01*
X16969Y-10702D02*
X17031Y-10702D01*
X17031Y-10702D02*
X17092Y-10715D01*
X17092Y-10715D02*
X17150Y-10741D01*
X17150Y-10741D02*
X17200Y-10778D01*
X17200Y-10778D02*
X17242Y-10824D01*
X17242Y-10824D02*
X17274Y-10878D01*
X17274Y-10878D02*
X17293Y-10938D01*
X17293Y-10938D02*
X17300Y-11000D01*
X16300Y-11000D02*
X16293Y-11062D01*
X16293Y-11062D02*
X16274Y-11122D01*
X16274Y-11122D02*
X16242Y-11176D01*
X16242Y-11176D02*
X16200Y-11222D01*
X16200Y-11222D02*
X16150Y-11259D01*
X16150Y-11259D02*
X16092Y-11285D01*
X16092Y-11285D02*
X16031Y-11298D01*
X16031Y-11298D02*
X15969Y-11298D01*
X15969Y-11298D02*
X15908Y-11285D01*
X15908Y-11285D02*
X15850Y-11259D01*
X15850Y-11259D02*
X15800Y-11222D01*
X15800Y-11222D02*
X15758Y-11176D01*
X15758Y-11176D02*
X15726Y-11122D01*
X15726Y-11122D02*
X15707Y-11062D01*
X15707Y-11062D02*
X15700Y-11000D01*
X15700Y-11000D02*
X15707Y-10938D01*
X15707Y-10938D02*
X15726Y-10878D01*
X15726Y-10878D02*
X15758Y-10824D01*
X15758Y-10824D02*
X15800Y-10778D01*
X15800Y-10778D02*
X15850Y-10741D01*
X15850Y-10741D02*
X15908Y-10715D01*
X15908Y-10715D02*
X15969Y-10702D01*
X15969Y-10702D02*
X16031Y-10702D01*
X16031Y-10702D02*
X16092Y-10715D01*
X16092Y-10715D02*
X16150Y-10741D01*
X16150Y-10741D02*
X16200Y-10778D01*
X16200Y-10778D02*
X16242Y-10824D01*
X16242Y-10824D02*
X16274Y-10878D01*
X16274Y-10878D02*
X16293Y-10938D01*
X16293Y-10938D02*
X16300Y-11000D01*
X15300Y-11000D02*
X15293Y-11062D01*
X15293Y-11062D02*
X15274Y-11122D01*
X15274Y-11122D02*
X15242Y-11176D01*
X15242Y-11176D02*
X15200Y-11222D01*
X15200Y-11222D02*
X15150Y-11259D01*
X15150Y-11259D02*
X15092Y-11285D01*
X15092Y-11285D02*
X15031Y-11298D01*
X15031Y-11298D02*
X14969Y-11298D01*
X14969Y-11298D02*
X14908Y-11285D01*
X14908Y-11285D02*
X14850Y-11259D01*
X14850Y-11259D02*
X14800Y-11222D01*
X14800Y-11222D02*
X14758Y-11176D01*
X14758Y-11176D02*
X14726Y-11122D01*
X14726Y-11122D02*
X14707Y-11062D01*
X14707Y-11062D02*
X14700Y-11000D01*
X14700Y-11000D02*
X14707Y-10938D01*
X14707Y-10938D02*
X14726Y-10878D01*
X14726Y-10878D02*
X14758Y-10824D01*
X14758Y-10824D02*
X14800Y-10778D01*
X14800Y-10778D02*
X14850Y-10741D01*
X14850Y-10741D02*
X14908Y-10715D01*
X14908Y-10715D02*
X14969Y-10702D01*
X14969Y-10702D02*
X15031Y-10702D01*
X15031Y-10702D02*
X15092Y-10715D01*
X15092Y-10715D02*
X15150Y-10741D01*
X15150Y-10741D02*
X15200Y-10778D01*
X15200Y-10778D02*
X15242Y-10824D01*
X15242Y-10824D02*
X15274Y-10878D01*
X15274Y-10878D02*
X15293Y-10938D01*
X15293Y-10938D02*
X15300Y-11000D01*
X12033Y-19414D02*
X12029Y-19450D01*
X12029Y-19450D02*
X12017Y-19485D01*
X12017Y-19485D02*
X11999Y-19518D01*
X11999Y-19518D02*
X11974Y-19545D01*
X11974Y-19545D02*
X11944Y-19567D01*
X11944Y-19567D02*
X11910Y-19582D01*
X11910Y-19582D02*
X11874Y-19590D01*
X11874Y-19590D02*
X11838Y-19590D01*
X11838Y-19590D02*
X11802Y-19582D01*
X11802Y-19582D02*
X11768Y-19567D01*
X11768Y-19567D02*
X11738Y-19545D01*
X11738Y-19545D02*
X11713Y-19518D01*
X11713Y-19518D02*
X11695Y-19485D01*
X11695Y-19485D02*
X11683Y-19450D01*
X11683Y-19450D02*
X11679Y-19414D01*
X11679Y-19414D02*
X11683Y-19378D01*
X11683Y-19378D02*
X11695Y-19343D01*
X11695Y-19343D02*
X11713Y-19310D01*
X11713Y-19310D02*
X11738Y-19283D01*
X11738Y-19283D02*
X11768Y-19261D01*
X11768Y-19261D02*
X11802Y-19246D01*
X11802Y-19246D02*
X11838Y-19238D01*
X11838Y-19238D02*
X11874Y-19238D01*
X11874Y-19238D02*
X11910Y-19246D01*
X11910Y-19246D02*
X11944Y-19261D01*
X11944Y-19261D02*
X11974Y-19283D01*
X11974Y-19283D02*
X11999Y-19310D01*
X11999Y-19310D02*
X12017Y-19343D01*
X12017Y-19343D02*
X12029Y-19378D01*
X12029Y-19378D02*
X12033Y-19414D01*
X12033Y-21146D02*
X12029Y-21182D01*
X12029Y-21182D02*
X12017Y-21217D01*
X12017Y-21217D02*
X11999Y-21250D01*
X11999Y-21250D02*
X11974Y-21277D01*
X11974Y-21277D02*
X11944Y-21299D01*
X11944Y-21299D02*
X11910Y-21314D01*
X11910Y-21314D02*
X11874Y-21322D01*
X11874Y-21322D02*
X11838Y-21322D01*
X11838Y-21322D02*
X11802Y-21314D01*
X11802Y-21314D02*
X11768Y-21299D01*
X11768Y-21299D02*
X11738Y-21277D01*
X11738Y-21277D02*
X11713Y-21250D01*
X11713Y-21250D02*
X11695Y-21217D01*
X11695Y-21217D02*
X11683Y-21182D01*
X11683Y-21182D02*
X11679Y-21146D01*
X11679Y-21146D02*
X11683Y-21110D01*
X11683Y-21110D02*
X11695Y-21075D01*
X11695Y-21075D02*
X11713Y-21042D01*
X11713Y-21042D02*
X11738Y-21015D01*
X11738Y-21015D02*
X11768Y-20993D01*
X11768Y-20993D02*
X11802Y-20978D01*
X11802Y-20978D02*
X11838Y-20970D01*
X11838Y-20970D02*
X11874Y-20970D01*
X11874Y-20970D02*
X11910Y-20978D01*
X11910Y-20978D02*
X11944Y-20993D01*
X11944Y-20993D02*
X11974Y-21015D01*
X11974Y-21015D02*
X11999Y-21042D01*
X11999Y-21042D02*
X12017Y-21075D01*
X12017Y-21075D02*
X12029Y-21110D01*
X12029Y-21110D02*
X12033Y-21146D01*
G54D46*
X13187Y-11900D02*
X13187Y-11600D01*
X13187Y-11600D02*
X13412Y-11600D01*
X13412Y-11600D02*
X13450Y-11634D01*
X13450Y-11634D02*
X13450Y-11734D01*
X13450Y-11734D02*
X13412Y-11767D01*
X13412Y-11767D02*
X13187Y-11767D01*
X13655Y-11900D02*
X13805Y-11900D01*
X13730Y-11900D02*
X13730Y-11600D01*
X13730Y-11634D02*
X13655Y-11700D01*
G54D48*
X11347Y-29625D02*
X11380Y-29587D01*
X11380Y-29587D02*
X11380Y-29400D01*
X11380Y-29400D02*
X11347Y-29362D01*
X11347Y-29362D02*
X11247Y-29362D01*
X11247Y-29362D02*
X11214Y-29400D01*
X11214Y-29400D02*
X11214Y-29587D01*
X11214Y-29587D02*
X11180Y-29625D01*
X11180Y-29625D02*
X11114Y-29625D01*
X11114Y-29625D02*
X11080Y-29587D01*
X11080Y-29587D02*
X11080Y-29400D01*
X11080Y-29400D02*
X11114Y-29362D01*
X11380Y-29204D02*
X11080Y-29204D01*
X11080Y-29242D02*
X11080Y-29017D01*
X11080Y-29017D02*
X11114Y-28979D01*
X11114Y-28979D02*
X11347Y-28979D01*
X11347Y-28979D02*
X11380Y-29017D01*
X11380Y-29017D02*
X11380Y-29242D01*
X11380Y-28784D02*
X11380Y-28634D01*
X11380Y-28709D02*
X11080Y-28709D01*
X11114Y-28709D02*
X11180Y-28784D01*
X12397Y-29674D02*
X12430Y-29636D01*
X12430Y-29636D02*
X12430Y-29449D01*
X12430Y-29449D02*
X12397Y-29411D01*
X12397Y-29411D02*
X12297Y-29411D01*
X12297Y-29411D02*
X12264Y-29449D01*
X12264Y-29449D02*
X12264Y-29636D01*
X12264Y-29636D02*
X12230Y-29674D01*
X12230Y-29674D02*
X12164Y-29674D01*
X12164Y-29674D02*
X12130Y-29636D01*
X12130Y-29636D02*
X12130Y-29449D01*
X12130Y-29449D02*
X12164Y-29411D01*
X12430Y-29253D02*
X12130Y-29253D01*
X12130Y-29291D02*
X12130Y-29066D01*
X12130Y-29066D02*
X12164Y-29028D01*
X12164Y-29028D02*
X12397Y-29028D01*
X12397Y-29028D02*
X12430Y-29066D01*
X12430Y-29066D02*
X12430Y-29291D01*
M02*
