G04 (Genere par PCBnew (20080825c)) le 10/4/2010-23:02:40*
G01*
G70*
G90*
%MOIN*%
G04 Gerber Fmt 3.4, Leading zero omitted, Abs format*
%FSLAX34Y34*%
G04 APERTURE LIST*
%ADD10C,0.015000*%
%ADD11R,0.060000X0.060000*%
%ADD12C,0.060000*%
%ADD13C,0.157500*%
%ADD14C,0.039400*%
%ADD15C,0.027000*%
%ADD16C,0.035600*%
%ADD17C,0.008000*%
%ADD18C,0.032000*%
%ADD19C,0.016000*%
%ADD20C,0.010000*%
%ADD21R,0.137800X0.063000*%
%ADD22R,0.181100X0.039400*%
%ADD23R,0.010000X0.060000*%
%ADD24R,0.060000X0.010000*%
%ADD25R,0.047200X0.019700*%
%ADD26R,0.027600X0.035400*%
%ADD27R,0.035400X0.027600*%
%ADD28R,0.025000X0.045000*%
%ADD29R,0.039400X0.039400*%
%ADD30R,0.059100X0.047200*%
%ADD31R,0.074800X0.043300*%
%ADD32R,0.033500X0.011000*%
%ADD33R,0.078700X0.039400*%
%ADD34R,0.098400X0.019700*%
%ADD35R,0.098400X0.078700*%
%ADD36R,0.094500X0.078700*%
%ADD37R,0.039400X0.055100*%
%ADD38C,0.006000*%
%ADD39C,0.012000*%
%ADD40C,0.005000*%
%ADD41C,0.001000*%
%ADD42R,0.080000X0.080000*%
%ADD43C,0.080000*%
%ADD44C,0.177500*%
%ADD45C,0.059400*%
%ADD46R,0.157800X0.083000*%
%ADD47R,0.201100X0.059400*%
%ADD48R,0.030000X0.080000*%
%ADD49R,0.080000X0.030000*%
%ADD50R,0.067200X0.039700*%
%ADD51R,0.047600X0.055400*%
%ADD52R,0.055400X0.047600*%
%ADD53R,0.045000X0.065000*%
%ADD54R,0.059400X0.059400*%
%ADD55R,0.079100X0.067200*%
%ADD56R,0.094800X0.063300*%
%ADD57R,0.053500X0.031000*%
%ADD58R,0.098700X0.059400*%
%ADD59R,0.118400X0.039700*%
%ADD60R,0.118400X0.098700*%
%ADD61R,0.114500X0.098700*%
%ADD62R,0.059400X0.075100*%
G04 APERTURE END LIST*
G54D10*
X49000Y-31000D02*
X11000Y-31000D01*
X11000Y-10000D02*
X49000Y-10000D01*
X50000Y-11000D02*
X50000Y-30000D01*
X10000Y-11000D02*
X10000Y-30000D01*
X10000Y-30000D02*
X10022Y-30208D01*
X10022Y-30208D02*
X10086Y-30407D01*
X10086Y-30407D02*
X10191Y-30588D01*
X10191Y-30588D02*
X10331Y-30743D01*
X10331Y-30743D02*
X10500Y-30866D01*
X10500Y-30866D02*
X10691Y-30951D01*
X10691Y-30951D02*
X10895Y-30995D01*
X10895Y-30995D02*
X11000Y-31000D01*
X49000Y-31000D02*
X49208Y-30978D01*
X49208Y-30978D02*
X49407Y-30914D01*
X49407Y-30914D02*
X49588Y-30809D01*
X49588Y-30809D02*
X49743Y-30669D01*
X49743Y-30669D02*
X49866Y-30500D01*
X49866Y-30500D02*
X49951Y-30309D01*
X49951Y-30309D02*
X49995Y-30105D01*
X49995Y-30105D02*
X50000Y-30000D01*
X50000Y-11000D02*
X49978Y-10792D01*
X49978Y-10792D02*
X49914Y-10593D01*
X49914Y-10593D02*
X49809Y-10412D01*
X49809Y-10412D02*
X49669Y-10257D01*
X49669Y-10257D02*
X49500Y-10134D01*
X49500Y-10134D02*
X49309Y-10049D01*
X49309Y-10049D02*
X49105Y-10005D01*
X49105Y-10005D02*
X49000Y-10000D01*
X11000Y-10000D02*
X10792Y-10022D01*
X10792Y-10022D02*
X10593Y-10086D01*
X10593Y-10086D02*
X10412Y-10191D01*
X10412Y-10191D02*
X10257Y-10331D01*
X10257Y-10331D02*
X10134Y-10500D01*
X10134Y-10500D02*
X10049Y-10691D01*
X10049Y-10691D02*
X10005Y-10895D01*
X10005Y-10895D02*
X10000Y-11000D01*
G54D11*
X10650Y-26250D03*
G54D12*
X10650Y-25250D03*
G54D11*
X20000Y-23000D03*
G54D12*
X19000Y-23000D03*
X20000Y-22000D03*
X19000Y-22000D03*
X20000Y-21000D03*
X19000Y-21000D03*
X20000Y-20000D03*
X19000Y-20000D03*
G54D11*
X19000Y-15000D03*
G54D12*
X20000Y-15000D03*
X19000Y-16000D03*
X20000Y-16000D03*
X19000Y-17000D03*
X20000Y-17000D03*
X19000Y-18000D03*
X20000Y-18000D03*
G54D11*
X22000Y-23000D03*
G54D12*
X22000Y-22000D03*
X22000Y-21000D03*
X22000Y-20000D03*
X22000Y-19000D03*
X22000Y-18000D03*
G54D13*
X14394Y-25750D03*
X13213Y-27600D03*
X12031Y-25867D03*
G54D14*
X12100Y-19247D03*
X12100Y-21353D03*
G54D11*
X46000Y-30000D03*
G54D12*
X38000Y-30000D03*
X45000Y-30000D03*
X37000Y-30000D03*
X44000Y-30000D03*
X36000Y-30000D03*
X43000Y-30000D03*
X35000Y-30000D03*
X42000Y-30000D03*
X34000Y-30000D03*
X41000Y-30000D03*
X33000Y-30000D03*
X40000Y-30000D03*
X32000Y-30000D03*
X39000Y-30000D03*
X31000Y-30000D03*
X30000Y-30000D03*
X29000Y-30000D03*
X28000Y-30000D03*
X27000Y-30000D03*
X26000Y-30000D03*
X25000Y-30000D03*
X24000Y-30000D03*
X23000Y-30000D03*
X22000Y-30000D03*
X21000Y-30000D03*
X20000Y-30000D03*
X19000Y-30000D03*
X18000Y-30000D03*
X17000Y-30000D03*
X16000Y-30000D03*
X15000Y-30000D03*
G54D11*
X49000Y-27982D03*
G54D12*
X48000Y-27982D03*
X49000Y-26982D03*
X48000Y-26982D03*
X49000Y-25982D03*
X48000Y-25982D03*
X49000Y-24982D03*
X48000Y-24982D03*
X49000Y-23982D03*
X48000Y-23982D03*
X49000Y-22982D03*
X48000Y-22982D03*
X49000Y-21982D03*
X48000Y-21982D03*
X49000Y-20982D03*
X48000Y-20982D03*
X49000Y-19982D03*
X48000Y-19982D03*
X49000Y-18982D03*
X48000Y-18982D03*
X49000Y-17982D03*
X48000Y-17982D03*
X49000Y-16982D03*
X48000Y-16982D03*
X49000Y-15982D03*
X48000Y-15982D03*
X49000Y-14982D03*
X48000Y-14982D03*
X49000Y-13982D03*
X48000Y-13982D03*
X49000Y-12982D03*
X48000Y-12982D03*
G54D11*
X47050Y-28000D03*
G54D12*
X47050Y-20000D03*
X47050Y-27000D03*
X47050Y-19000D03*
X47050Y-26000D03*
X47050Y-18000D03*
X47050Y-25000D03*
X47050Y-17000D03*
X47050Y-24000D03*
X47050Y-16000D03*
X47050Y-23000D03*
X47050Y-15000D03*
X47050Y-22000D03*
X47050Y-14000D03*
X47050Y-21000D03*
X47050Y-13000D03*
G54D11*
X46000Y-11000D03*
G54D12*
X38000Y-11000D03*
X45000Y-11000D03*
X37000Y-11000D03*
X44000Y-11000D03*
X36000Y-11000D03*
X43000Y-11000D03*
X35000Y-11000D03*
X42000Y-11000D03*
X34000Y-11000D03*
X41000Y-11000D03*
X33000Y-11000D03*
X40000Y-11000D03*
X32000Y-11000D03*
X39000Y-11000D03*
X31000Y-11000D03*
X30000Y-11000D03*
X29000Y-11000D03*
X28000Y-11000D03*
X27000Y-11000D03*
X26000Y-11000D03*
X25000Y-11000D03*
X24000Y-11000D03*
X23000Y-11000D03*
X22000Y-11000D03*
X21000Y-11000D03*
X20000Y-11000D03*
X19000Y-11000D03*
X18000Y-11000D03*
X17000Y-11000D03*
X16000Y-11000D03*
X15000Y-11000D03*
G54D15*
X15800Y-15850D03*
X14750Y-18100D03*
X14500Y-16350D03*
X31550Y-19150D03*
X33250Y-15950D03*
X29200Y-14700D03*
X28350Y-15350D03*
X23150Y-23200D03*
X12650Y-12250D03*
X18100Y-22850D03*
X14450Y-20950D03*
X23150Y-18700D03*
X22950Y-20450D03*
X25100Y-15600D03*
X22100Y-27050D03*
X18400Y-27650D03*
X20050Y-24900D03*
X31750Y-21450D03*
X31650Y-23350D03*
X25700Y-27000D03*
X29900Y-26200D03*
G54D16*
X34300Y-26500D03*
G54D15*
X30950Y-26000D03*
X41150Y-27350D03*
X38350Y-28000D03*
X46250Y-20450D03*
X42350Y-20550D03*
X37750Y-21350D03*
X31350Y-22150D03*
X11400Y-13400D03*
X14550Y-12650D03*
X39750Y-27650D03*
X29350Y-24200D03*
X28050Y-20200D03*
X29300Y-22100D03*
X23350Y-16800D03*
X23000Y-17100D03*
X22600Y-16300D03*
X31450Y-18750D03*
X24900Y-24150D03*
G54D16*
X19700Y-27800D03*
G54D15*
X31650Y-22950D03*
X34450Y-21050D03*
X28450Y-25500D03*
X41100Y-25950D03*
X42450Y-27850D03*
X38400Y-26750D03*
X23650Y-15450D03*
X20400Y-13350D03*
X22750Y-21750D03*
X23150Y-24500D03*
X14450Y-22350D03*
X18000Y-21150D03*
X31500Y-15500D03*
X27450Y-14500D03*
X28850Y-15300D03*
X46050Y-19700D03*
X42100Y-20200D03*
X22650Y-19600D03*
X37400Y-21150D03*
G54D16*
X17600Y-23800D03*
X19500Y-26250D03*
X31000Y-26400D03*
G54D15*
X17250Y-14900D03*
X12550Y-13800D03*
X13150Y-14900D03*
X17700Y-14450D03*
X17700Y-13300D03*
X14850Y-21700D03*
X14000Y-19600D03*
X14350Y-23200D03*
X45250Y-25650D03*
X37950Y-25450D03*
X37800Y-25100D03*
X37650Y-24750D03*
X37500Y-24400D03*
X25400Y-24000D03*
X25300Y-23650D03*
X24850Y-23500D03*
X40850Y-24000D03*
X42500Y-23800D03*
X35950Y-24050D03*
X37400Y-24000D03*
X28100Y-23700D03*
X28100Y-23350D03*
X28000Y-23000D03*
X28000Y-22650D03*
X27950Y-22300D03*
X32000Y-12300D03*
X30300Y-22150D03*
X31000Y-12300D03*
X30300Y-22550D03*
X30300Y-22950D03*
X30000Y-12300D03*
X30500Y-23400D03*
X29000Y-12300D03*
G54D16*
X31450Y-26050D03*
G54D15*
X41250Y-18100D03*
X33800Y-18050D03*
X41250Y-17700D03*
X33600Y-17700D03*
X46000Y-20800D03*
X46200Y-17000D03*
X43750Y-15100D03*
X34500Y-16050D03*
X38500Y-15350D03*
X33850Y-14800D03*
X39250Y-25050D03*
X41150Y-21300D03*
X37700Y-15350D03*
X33700Y-15250D03*
X38750Y-25050D03*
X40800Y-21100D03*
X25800Y-17550D03*
X28300Y-14400D03*
X34800Y-20100D03*
X37550Y-19950D03*
X38000Y-20000D03*
X25800Y-18000D03*
X28300Y-14800D03*
X34750Y-20450D03*
X26300Y-18450D03*
X22900Y-28800D03*
X26050Y-18700D03*
X22500Y-28800D03*
X43950Y-22800D03*
X31550Y-13150D03*
X25100Y-19000D03*
X28250Y-13500D03*
X37400Y-15950D03*
X46000Y-18800D03*
X43450Y-19000D03*
X41000Y-22050D03*
X31450Y-20150D03*
X29200Y-18200D03*
X28100Y-18150D03*
X40100Y-22200D03*
X22100Y-28800D03*
X26250Y-19650D03*
X31900Y-12850D03*
X37950Y-15950D03*
X21350Y-15250D03*
X24050Y-14650D03*
X37550Y-18650D03*
X26200Y-14450D03*
X28000Y-13200D03*
X28300Y-13950D03*
X31300Y-13500D03*
X25250Y-19900D03*
X25600Y-20100D03*
X29100Y-14250D03*
X30800Y-14250D03*
X26050Y-19950D03*
X25950Y-20600D03*
X25750Y-20950D03*
X25500Y-21200D03*
X24500Y-21500D03*
X24950Y-22650D03*
X32450Y-29100D03*
X28050Y-21600D03*
X33450Y-29100D03*
X28000Y-20550D03*
X33100Y-29250D03*
X27950Y-20900D03*
X32700Y-29350D03*
X28000Y-21250D03*
X32250Y-29400D03*
X28000Y-21950D03*
X43950Y-22150D03*
X44200Y-26400D03*
X43700Y-22500D03*
X43900Y-25950D03*
X29450Y-21650D03*
X28700Y-12600D03*
X29350Y-21200D03*
X28450Y-12850D03*
X37250Y-28400D03*
X33200Y-22500D03*
X31800Y-22200D03*
X37000Y-28700D03*
X29150Y-23850D03*
X34800Y-21250D03*
X42500Y-23450D03*
X34750Y-20800D03*
X42500Y-23100D03*
X42300Y-18600D03*
X33900Y-20250D03*
X34150Y-19950D03*
X42300Y-18200D03*
X34300Y-19500D03*
X42300Y-17750D03*
X42300Y-17350D03*
X33950Y-19350D03*
X39300Y-20900D03*
X31850Y-20050D03*
X31550Y-19800D03*
X39600Y-21200D03*
X46100Y-21350D03*
X31350Y-19450D03*
X39950Y-21500D03*
X31950Y-18700D03*
X40250Y-21850D03*
X41250Y-18900D03*
X33850Y-18650D03*
X33600Y-18350D03*
X41250Y-18500D03*
X43782Y-16618D03*
X43900Y-21500D03*
X32150Y-14550D03*
X43922Y-16178D03*
X31450Y-14400D03*
X44250Y-21850D03*
X41000Y-22450D03*
X31000Y-14550D03*
X42300Y-16750D03*
X30600Y-14550D03*
X45200Y-27150D03*
X30700Y-16750D03*
X43450Y-18650D03*
X39400Y-18550D03*
X30700Y-17100D03*
X30750Y-17500D03*
X39400Y-18950D03*
X45650Y-25200D03*
X45850Y-16100D03*
X40150Y-23750D03*
X31350Y-20550D03*
X45550Y-16400D03*
X39850Y-23450D03*
X31850Y-20850D03*
X45750Y-16750D03*
X31450Y-21150D03*
X39550Y-23150D03*
X45700Y-17100D03*
X31350Y-21600D03*
X39300Y-22850D03*
X28100Y-17200D03*
X27700Y-17200D03*
X27300Y-17200D03*
X26250Y-15250D03*
X25900Y-15150D03*
X25550Y-15250D03*
X22300Y-14950D03*
X16250Y-18100D03*
X22600Y-16800D03*
X21000Y-17400D03*
X31950Y-18350D03*
X31650Y-18150D03*
X31350Y-17950D03*
X31050Y-17750D03*
X43700Y-21200D03*
X43650Y-17050D03*
X31850Y-14950D03*
X10400Y-13300D03*
X12850Y-14200D03*
G54D17*
X29350Y-24200D02*
X29634Y-24484D01*
X29634Y-24484D02*
X30326Y-24484D01*
X30326Y-24484D02*
X32000Y-26158D01*
X32000Y-26158D02*
X32000Y-27520D01*
X32000Y-27520D02*
X31626Y-27894D01*
X31626Y-27894D02*
X31626Y-29524D01*
X31626Y-29524D02*
X31500Y-29650D01*
X31500Y-29650D02*
X31500Y-30150D01*
X31500Y-30150D02*
X31800Y-30450D01*
X31800Y-30450D02*
X39300Y-30450D01*
X39300Y-30450D02*
X39500Y-30250D01*
X39500Y-30250D02*
X39500Y-27900D01*
X39500Y-27900D02*
X39750Y-27650D01*
X28350Y-20500D02*
X28050Y-20200D01*
X28350Y-20670D02*
X28350Y-20500D01*
X29089Y-21409D02*
X28350Y-20670D01*
X29089Y-21888D02*
X29089Y-21409D01*
X29300Y-22099D02*
X29089Y-21888D01*
X29300Y-22100D02*
X29300Y-22099D01*
X20924Y-21076D02*
X20000Y-22000D01*
X20924Y-18156D02*
X20924Y-21076D01*
X21618Y-17462D02*
X20924Y-18156D01*
X23238Y-17462D02*
X21618Y-17462D01*
X23350Y-17350D02*
X23238Y-17462D01*
X23350Y-16800D02*
X23350Y-17350D01*
X20762Y-20238D02*
X20000Y-21000D01*
X20762Y-18088D02*
X20762Y-20238D01*
X21550Y-17300D02*
X20762Y-18088D01*
X22800Y-17300D02*
X21550Y-17300D01*
X23000Y-17100D02*
X22800Y-17300D01*
X22600Y-16300D02*
X22300Y-16600D01*
X22300Y-16600D02*
X21250Y-16600D01*
X21250Y-16600D02*
X20600Y-17250D01*
X20600Y-17250D02*
X20600Y-18500D01*
X20600Y-18500D02*
X19500Y-19600D01*
X19500Y-19600D02*
X19500Y-20500D01*
X19500Y-20500D02*
X19000Y-21000D01*
G54D18*
X20000Y-14350D02*
X20000Y-15000D01*
X19450Y-13800D02*
X20000Y-14350D01*
X12550Y-13800D02*
X19450Y-13800D01*
X20750Y-15250D02*
X20000Y-16000D01*
X13150Y-14900D02*
X13848Y-14202D01*
X13848Y-14202D02*
X17452Y-14202D01*
X17452Y-14202D02*
X17700Y-14450D01*
X17700Y-13300D02*
X17798Y-13398D01*
X17798Y-13398D02*
X19648Y-13398D01*
X19648Y-13398D02*
X20750Y-14500D01*
X20750Y-14500D02*
X20750Y-15250D01*
G54D19*
X14750Y-21700D02*
X14850Y-21700D01*
X14000Y-20950D02*
X14750Y-21700D01*
X14000Y-19600D02*
X14000Y-20950D01*
G54D18*
X18550Y-19000D02*
X19000Y-19000D01*
X14350Y-23200D02*
X18550Y-19000D01*
X19000Y-19000D02*
X20000Y-18000D01*
G54D17*
X46388Y-25038D02*
X46850Y-25500D01*
X46388Y-23498D02*
X46388Y-25038D01*
X46158Y-23268D02*
X46388Y-23498D01*
X45782Y-23268D02*
X46158Y-23268D01*
X43566Y-25484D02*
X45782Y-23268D01*
X40104Y-25484D02*
X43566Y-25484D01*
X39306Y-24686D02*
X40104Y-25484D01*
X38714Y-24686D02*
X39306Y-24686D01*
X37950Y-25450D02*
X38714Y-24686D01*
X46850Y-25500D02*
X47482Y-25500D01*
X47482Y-25500D02*
X48000Y-24982D01*
X46550Y-24250D02*
X46800Y-24500D01*
X46800Y-24500D02*
X47482Y-24500D01*
X47482Y-24500D02*
X48000Y-23982D01*
X37800Y-25100D02*
X38376Y-24524D01*
X38376Y-24524D02*
X39374Y-24524D01*
X39374Y-24524D02*
X40172Y-25322D01*
X40172Y-25322D02*
X43488Y-25322D01*
X43488Y-25322D02*
X45810Y-23000D01*
X45810Y-23000D02*
X46120Y-23000D01*
X46120Y-23000D02*
X46550Y-23430D01*
X46550Y-23430D02*
X46550Y-24250D01*
X46150Y-22800D02*
X46850Y-23500D01*
X47482Y-23500D02*
X48000Y-22982D01*
X46850Y-23500D02*
X47482Y-23500D01*
X37650Y-24750D02*
X38038Y-24362D01*
X38038Y-24362D02*
X39442Y-24362D01*
X39442Y-24362D02*
X40240Y-25160D01*
X40240Y-25160D02*
X43420Y-25160D01*
X43420Y-25160D02*
X45780Y-22800D01*
X45780Y-22800D02*
X46150Y-22800D01*
X43352Y-24998D02*
X45850Y-22500D01*
X40308Y-24998D02*
X43352Y-24998D01*
X39510Y-24200D02*
X40308Y-24998D01*
X37700Y-24200D02*
X39510Y-24200D01*
X45850Y-22500D02*
X47482Y-22500D01*
X47482Y-22500D02*
X48000Y-21982D01*
X37500Y-24400D02*
X37700Y-24200D01*
X24800Y-13000D02*
X23300Y-11500D01*
X25568Y-21668D02*
X25568Y-21750D01*
X23300Y-11500D02*
X19500Y-11500D01*
X19500Y-11500D02*
X19000Y-11000D01*
X24800Y-20900D02*
X25568Y-21668D01*
X24800Y-13000D02*
X24800Y-20900D01*
X25568Y-23832D02*
X25568Y-21750D01*
X25568Y-21750D02*
X25568Y-21748D01*
X25400Y-24000D02*
X25568Y-23832D01*
X25406Y-21736D02*
X25406Y-21816D01*
X18000Y-11000D02*
X18662Y-11662D01*
X23212Y-11662D02*
X18662Y-11662D01*
X24588Y-13038D02*
X23212Y-11662D01*
X24588Y-13038D02*
X24588Y-20918D01*
X24588Y-20918D02*
X25406Y-21736D01*
X25406Y-23544D02*
X25406Y-21816D01*
X25300Y-23650D02*
X25406Y-23544D01*
X23144Y-11824D02*
X17824Y-11824D01*
X25244Y-21804D02*
X25244Y-21900D01*
X24376Y-13056D02*
X23144Y-11824D01*
X17824Y-11824D02*
X17000Y-11000D01*
X24376Y-20936D02*
X25244Y-21804D01*
X24376Y-13056D02*
X24376Y-20936D01*
X24850Y-23500D02*
X25244Y-23106D01*
X25244Y-21894D02*
X25244Y-21900D01*
X25244Y-21900D02*
X25244Y-23106D01*
X42300Y-24000D02*
X40850Y-24000D01*
X42500Y-23800D02*
X42300Y-24000D01*
X35950Y-24050D02*
X36000Y-24000D01*
X36000Y-24000D02*
X37400Y-24000D01*
X28000Y-23800D02*
X28000Y-30000D01*
X28100Y-23700D02*
X28000Y-23800D01*
X27838Y-23562D02*
X27838Y-29162D01*
X28050Y-23350D02*
X27838Y-23562D01*
X28100Y-23350D02*
X28050Y-23350D01*
X27000Y-30000D02*
X27838Y-29162D01*
X27676Y-23324D02*
X27676Y-28332D01*
X28000Y-23000D02*
X28000Y-23000D01*
X28000Y-23000D02*
X27676Y-23324D01*
X27676Y-28320D02*
X27676Y-28332D01*
X26000Y-30000D02*
X26250Y-30000D01*
X27676Y-28332D02*
X27676Y-28696D01*
X26925Y-29447D02*
X27676Y-28696D01*
X26803Y-29447D02*
X26925Y-29447D01*
X26250Y-30000D02*
X26803Y-29447D01*
X27514Y-28232D02*
X27514Y-28628D01*
X27514Y-23036D02*
X27514Y-23086D01*
X27900Y-22650D02*
X27514Y-23036D01*
X28000Y-22650D02*
X27900Y-22650D01*
X27514Y-28232D02*
X27514Y-27488D01*
X27514Y-23086D02*
X27514Y-27488D01*
X25300Y-30000D02*
X25000Y-30000D01*
X25300Y-30000D02*
X26017Y-29283D01*
X26017Y-29283D02*
X26859Y-29283D01*
X26859Y-29283D02*
X27514Y-28628D01*
X24000Y-30000D02*
X24879Y-29121D01*
X24879Y-29121D02*
X24879Y-29121D01*
X24879Y-29121D02*
X27350Y-26650D01*
X27350Y-22896D02*
X27350Y-26650D01*
X27946Y-22300D02*
X27350Y-22896D01*
X27950Y-22300D02*
X27946Y-22300D01*
X27950Y-22300D02*
X27950Y-22300D01*
X32000Y-12300D02*
X30300Y-14000D01*
X30300Y-14000D02*
X30300Y-22150D01*
X30138Y-21912D02*
X30000Y-22050D01*
X30138Y-13912D02*
X30138Y-21912D01*
X30000Y-22050D02*
X30000Y-22250D01*
X31010Y-12310D02*
X31010Y-13040D01*
X31000Y-12300D02*
X31010Y-12310D01*
X30000Y-22250D02*
X30300Y-22550D01*
X31010Y-13040D02*
X30138Y-13912D01*
X29976Y-12324D02*
X30000Y-12300D01*
X29976Y-21844D02*
X29976Y-12324D01*
X29800Y-22020D02*
X29976Y-21844D01*
X29800Y-22020D02*
X29800Y-22450D01*
X29800Y-22450D02*
X30300Y-22950D01*
X29600Y-21950D02*
X29800Y-21750D01*
X30450Y-23350D02*
X30500Y-23400D01*
X30300Y-23350D02*
X30450Y-23350D01*
X29600Y-22650D02*
X30300Y-23350D01*
X29000Y-12300D02*
X29800Y-13100D01*
X29600Y-21950D02*
X29600Y-22650D01*
X29800Y-13100D02*
X29800Y-21750D01*
X41036Y-17886D02*
X41250Y-18100D01*
X33968Y-17886D02*
X41036Y-17886D01*
X33804Y-18050D02*
X33968Y-17886D01*
X33800Y-18050D02*
X33804Y-18050D01*
X41250Y-17700D02*
X41226Y-17724D01*
X33874Y-17724D02*
X41226Y-17724D01*
X33850Y-17700D02*
X33874Y-17724D01*
X33600Y-17700D02*
X33850Y-17700D01*
X45862Y-20662D02*
X45858Y-20662D01*
X46000Y-20800D02*
X45862Y-20662D01*
X46200Y-17100D02*
X46200Y-17000D01*
X45528Y-17772D02*
X46200Y-17100D01*
X45528Y-20332D02*
X45528Y-17772D01*
X45858Y-20662D02*
X45528Y-20332D01*
X43412Y-15438D02*
X43750Y-15100D01*
X39212Y-15438D02*
X43412Y-15438D01*
X38403Y-16247D02*
X39212Y-15438D01*
X34697Y-16247D02*
X38403Y-16247D01*
X34697Y-16247D02*
X34500Y-16050D01*
X38000Y-30000D02*
X38000Y-26300D01*
X34389Y-14800D02*
X33850Y-14800D01*
X35188Y-15599D02*
X34389Y-14800D01*
X36821Y-15599D02*
X35188Y-15599D01*
X37420Y-15000D02*
X36821Y-15599D01*
X38150Y-15000D02*
X37420Y-15000D01*
X38500Y-15350D02*
X38150Y-15000D01*
X38000Y-26300D02*
X39250Y-25050D01*
X37000Y-30000D02*
X37000Y-29150D01*
X37300Y-15350D02*
X37700Y-15350D01*
X36889Y-15761D02*
X37300Y-15350D01*
X35120Y-15761D02*
X36889Y-15761D01*
X34785Y-15426D02*
X35120Y-15761D01*
X33876Y-15426D02*
X34785Y-15426D01*
X33700Y-15250D02*
X33876Y-15426D01*
X37600Y-26200D02*
X38750Y-25050D01*
X37600Y-28550D02*
X37600Y-26200D01*
X37000Y-29150D02*
X37600Y-28550D01*
X37550Y-19950D02*
X37290Y-19950D01*
X26376Y-16324D02*
X28300Y-14400D01*
X26376Y-16974D02*
X26376Y-16324D01*
X25800Y-17550D02*
X26376Y-16974D01*
X34800Y-20100D02*
X34800Y-19930D01*
X34800Y-19930D02*
X35386Y-19344D01*
X35386Y-19344D02*
X36684Y-19344D01*
X36684Y-19344D02*
X37290Y-19950D01*
X28131Y-14800D02*
X28130Y-14800D01*
X26538Y-16393D02*
X28131Y-14800D01*
X26538Y-17262D02*
X26538Y-16393D01*
X25800Y-18000D02*
X26538Y-17262D01*
X28130Y-14800D02*
X28300Y-14800D01*
X38000Y-20000D02*
X38000Y-20450D01*
X37600Y-20850D02*
X38000Y-20450D01*
X37250Y-20850D02*
X37600Y-20850D01*
X37036Y-21064D02*
X37250Y-20850D01*
X36536Y-21064D02*
X37036Y-21064D01*
X35414Y-21064D02*
X36536Y-21064D01*
X34800Y-20450D02*
X35414Y-21064D01*
X34750Y-20450D02*
X34800Y-20450D01*
X22900Y-28800D02*
X22895Y-28795D01*
X22895Y-28795D02*
X22895Y-28295D01*
X22895Y-28295D02*
X26702Y-24488D01*
X26702Y-24488D02*
X26702Y-18852D01*
X26702Y-18852D02*
X26300Y-18450D01*
X26265Y-18715D02*
X26540Y-18990D01*
X26065Y-18715D02*
X26265Y-18715D01*
X26050Y-18700D02*
X26065Y-18715D01*
X22500Y-28800D02*
X22505Y-28795D01*
X22505Y-28795D02*
X22505Y-28455D01*
X22505Y-28455D02*
X26540Y-24420D01*
X26540Y-24420D02*
X26540Y-18990D01*
X44900Y-22300D02*
X44950Y-22250D01*
X44950Y-22250D02*
X44950Y-21670D01*
X44950Y-21670D02*
X44710Y-21430D01*
X44710Y-21430D02*
X44710Y-16510D01*
X44710Y-16510D02*
X44910Y-16310D01*
X46540Y-17240D02*
X46540Y-16420D01*
X46791Y-17491D02*
X46540Y-17240D01*
X46791Y-17491D02*
X47491Y-17491D01*
X45944Y-15824D02*
X45396Y-15824D01*
X45396Y-15824D02*
X44910Y-16310D01*
X43950Y-22800D02*
X44400Y-22800D01*
X44400Y-22800D02*
X44900Y-22300D01*
X47491Y-17491D02*
X48000Y-16982D01*
X46540Y-16420D02*
X45944Y-15824D01*
X32962Y-14262D02*
X32962Y-15250D01*
X32962Y-15250D02*
X32962Y-15264D01*
X32426Y-13726D02*
X32962Y-14262D01*
X32126Y-13726D02*
X32426Y-13726D01*
X31550Y-13150D02*
X32126Y-13726D01*
X26850Y-15390D02*
X26850Y-14750D01*
X25276Y-16964D02*
X26850Y-15390D01*
X25276Y-18824D02*
X25276Y-16964D01*
X25100Y-19000D02*
X25276Y-18824D01*
X26850Y-14750D02*
X26850Y-14650D01*
X26850Y-14650D02*
X28000Y-13500D01*
X28000Y-13500D02*
X28250Y-13500D01*
X32962Y-15250D02*
X32962Y-15262D01*
X37265Y-16085D02*
X37400Y-15950D01*
X34984Y-16085D02*
X37265Y-16085D01*
X34649Y-15750D02*
X34984Y-16085D01*
X33450Y-15750D02*
X34649Y-15750D01*
X32962Y-15262D02*
X33450Y-15750D01*
X46000Y-18800D02*
X46300Y-18500D01*
X43450Y-19941D02*
X43450Y-19000D01*
X46300Y-18500D02*
X47482Y-18500D01*
X43188Y-21783D02*
X43188Y-20203D01*
X42683Y-22288D02*
X43188Y-21783D01*
X41238Y-22288D02*
X42683Y-22288D01*
X41000Y-22050D02*
X41238Y-22288D01*
X39900Y-22000D02*
X38928Y-22000D01*
X38278Y-22648D02*
X38926Y-22000D01*
X34661Y-22648D02*
X38278Y-22648D01*
X34661Y-22648D02*
X32410Y-20397D01*
X32410Y-20397D02*
X31697Y-20397D01*
X31697Y-20397D02*
X31450Y-20150D01*
X29200Y-18200D02*
X29150Y-18150D01*
X29150Y-18150D02*
X28100Y-18150D01*
X38928Y-22000D02*
X38926Y-22000D01*
X39900Y-22000D02*
X40100Y-22200D01*
X47482Y-18500D02*
X48000Y-17982D01*
X43188Y-20203D02*
X43450Y-19941D01*
X22100Y-28630D02*
X22100Y-28800D01*
X26378Y-24352D02*
X22100Y-28630D01*
X26378Y-19778D02*
X26378Y-24352D01*
X26250Y-19650D02*
X26378Y-19778D01*
X31900Y-12970D02*
X31900Y-12850D01*
X33124Y-14194D02*
X31900Y-12970D01*
X33124Y-15194D02*
X33124Y-14194D01*
X33518Y-15588D02*
X33124Y-15194D01*
X34717Y-15588D02*
X33518Y-15588D01*
X35052Y-15923D02*
X34717Y-15588D01*
X36996Y-15923D02*
X35052Y-15923D01*
X37269Y-15650D02*
X36996Y-15923D01*
X37650Y-15650D02*
X37269Y-15650D01*
X37950Y-15950D02*
X37650Y-15650D01*
X21950Y-14650D02*
X23650Y-14650D01*
X21350Y-15250D02*
X21950Y-14650D01*
X23650Y-14650D02*
X24050Y-14650D01*
X26200Y-14450D02*
X27450Y-13200D01*
X27450Y-13200D02*
X28000Y-13200D01*
X48000Y-19982D02*
X48168Y-19982D01*
X25438Y-19712D02*
X25250Y-19900D01*
X25438Y-17032D02*
X25438Y-19712D01*
X27985Y-14485D02*
X25438Y-17032D01*
X27985Y-14415D02*
X27985Y-14485D01*
X28300Y-13950D02*
X27985Y-14265D01*
X31300Y-13750D02*
X31300Y-13500D01*
X31438Y-13888D02*
X31300Y-13750D01*
X32348Y-13888D02*
X31438Y-13888D01*
X32800Y-14340D02*
X32348Y-13888D01*
X32800Y-15989D02*
X32800Y-14340D01*
X33077Y-16266D02*
X32800Y-15989D01*
X34328Y-16266D02*
X33077Y-16266D01*
X34471Y-16409D02*
X34328Y-16266D01*
X34471Y-16409D02*
X38469Y-16409D01*
X38469Y-16409D02*
X39278Y-15600D01*
X39278Y-15600D02*
X43849Y-15600D01*
X43849Y-15600D02*
X46999Y-12450D01*
X49150Y-12450D02*
X46999Y-12450D01*
X49550Y-12850D02*
X49150Y-12450D01*
X49550Y-19150D02*
X49550Y-12850D01*
X49250Y-19450D02*
X49550Y-19150D01*
X48700Y-19450D02*
X49250Y-19450D01*
X48168Y-19982D02*
X48700Y-19450D01*
X27985Y-14415D02*
X27985Y-14265D01*
X26700Y-16461D02*
X26700Y-17550D01*
X25600Y-18650D02*
X26700Y-17550D01*
X28416Y-15084D02*
X28077Y-15084D01*
X28600Y-14900D02*
X28416Y-15084D01*
X28600Y-14750D02*
X28600Y-14900D01*
X29100Y-14250D02*
X28600Y-14750D01*
X25600Y-18650D02*
X25600Y-20100D01*
X48000Y-18982D02*
X48000Y-18800D01*
X31000Y-14050D02*
X30800Y-14250D01*
X32280Y-14050D02*
X31000Y-14050D01*
X32612Y-14382D02*
X32280Y-14050D01*
X32612Y-16032D02*
X32612Y-14382D01*
X33008Y-16428D02*
X32612Y-16032D01*
X34260Y-16428D02*
X33008Y-16428D01*
X34409Y-16577D02*
X34260Y-16428D01*
X34409Y-16577D02*
X38542Y-16577D01*
X38542Y-16577D02*
X39343Y-15776D01*
X39343Y-15776D02*
X44282Y-15776D01*
X44282Y-15776D02*
X46558Y-13500D01*
X48300Y-13500D02*
X46558Y-13500D01*
X48500Y-13700D02*
X48300Y-13500D01*
X48500Y-18300D02*
X48500Y-13700D01*
X48000Y-18800D02*
X48500Y-18300D01*
X26700Y-16461D02*
X28077Y-15084D01*
X19000Y-30000D02*
X20050Y-28950D01*
X26216Y-20116D02*
X26050Y-19950D01*
X26216Y-20516D02*
X26216Y-20116D01*
X20050Y-28950D02*
X21550Y-28950D01*
X21550Y-28950D02*
X26216Y-24284D01*
X26216Y-20516D02*
X26216Y-24284D01*
X18000Y-30000D02*
X19212Y-28788D01*
X26054Y-20704D02*
X25950Y-20600D01*
X26054Y-20954D02*
X26054Y-20704D01*
X21482Y-28788D02*
X19212Y-28788D01*
X21482Y-28788D02*
X26054Y-24216D01*
X26054Y-24216D02*
X26054Y-20954D01*
X17000Y-30000D02*
X18374Y-28626D01*
X25892Y-24148D02*
X25892Y-21300D01*
X25892Y-21300D02*
X25892Y-21292D01*
X21414Y-28626D02*
X25892Y-24148D01*
X21414Y-28626D02*
X18374Y-28626D01*
X25892Y-21092D02*
X25892Y-21300D01*
X25750Y-20950D02*
X25892Y-21092D01*
X16000Y-30000D02*
X17536Y-28464D01*
X25730Y-24080D02*
X25730Y-21700D01*
X25730Y-21700D02*
X25730Y-21680D01*
X21346Y-28464D02*
X25730Y-24080D01*
X21346Y-28464D02*
X17536Y-28464D01*
X25730Y-21700D02*
X25730Y-21430D01*
X25730Y-21430D02*
X25500Y-21200D01*
X25082Y-22332D02*
X25082Y-22336D01*
X25082Y-21922D02*
X25082Y-22332D01*
X25082Y-21922D02*
X25082Y-21882D01*
X25082Y-21882D02*
X24700Y-21500D01*
X24500Y-21500D02*
X24700Y-21500D01*
X24950Y-22650D02*
X25082Y-22518D01*
X25082Y-22518D02*
X25082Y-22332D01*
X28150Y-21600D02*
X28438Y-21888D01*
X28438Y-22488D02*
X28438Y-21888D01*
X30110Y-24160D02*
X28438Y-22488D01*
X30476Y-24160D02*
X30110Y-24160D01*
X32328Y-26012D02*
X30476Y-24160D01*
X32328Y-27668D02*
X32328Y-26012D01*
X31950Y-28046D02*
X32328Y-27668D01*
X31950Y-28600D02*
X31950Y-28046D01*
X32450Y-29100D02*
X31950Y-28600D01*
X28050Y-21600D02*
X28150Y-21600D01*
X32850Y-27770D02*
X33600Y-28520D01*
X33600Y-28950D02*
X33450Y-29100D01*
X33600Y-28520D02*
X33600Y-28950D01*
X32850Y-27768D02*
X32850Y-27770D01*
X32838Y-27756D02*
X32850Y-27768D01*
X32838Y-25828D02*
X32838Y-27756D01*
X30682Y-23672D02*
X32838Y-25828D01*
X30372Y-23672D02*
X30682Y-23672D01*
X30372Y-23672D02*
X29050Y-22350D01*
X28927Y-21477D02*
X28900Y-21450D01*
X28927Y-21477D02*
X28927Y-22223D01*
X28650Y-21200D02*
X28000Y-20550D01*
X28650Y-21200D02*
X28900Y-21450D01*
X29050Y-22346D02*
X28927Y-22223D01*
X29050Y-22346D02*
X29050Y-22350D01*
X28927Y-22223D02*
X28924Y-22220D01*
X29048Y-22348D02*
X29050Y-22350D01*
X33000Y-28900D02*
X32350Y-28250D01*
X33000Y-29150D02*
X33000Y-28900D01*
X33100Y-29250D02*
X33000Y-29150D01*
X28300Y-21100D02*
X28762Y-21562D01*
X28762Y-22312D02*
X28762Y-21562D01*
X28886Y-22436D02*
X28762Y-22312D01*
X32676Y-27780D02*
X32350Y-28106D01*
X30612Y-23836D02*
X32676Y-25900D01*
X30286Y-23836D02*
X30612Y-23836D01*
X28886Y-22436D02*
X30286Y-23836D01*
X32676Y-25900D02*
X32676Y-27780D01*
X32350Y-28106D02*
X32350Y-28250D01*
X28300Y-21100D02*
X28150Y-20950D01*
X28150Y-20950D02*
X28100Y-20900D01*
X28100Y-20900D02*
X27950Y-20900D01*
X32800Y-29250D02*
X32700Y-29350D01*
X32800Y-28950D02*
X32800Y-29250D01*
X32150Y-28300D02*
X32800Y-28950D01*
X32150Y-28280D02*
X32150Y-28300D01*
X32500Y-27726D02*
X32150Y-28076D01*
X32500Y-25954D02*
X32500Y-27726D01*
X30544Y-23998D02*
X32500Y-25954D01*
X30198Y-23998D02*
X30544Y-23998D01*
X30198Y-23998D02*
X28725Y-22525D01*
X32150Y-28280D02*
X32150Y-28076D01*
X28100Y-21250D02*
X28000Y-21250D01*
X28600Y-21750D02*
X28100Y-21250D01*
X28600Y-22400D02*
X28600Y-21750D01*
X28725Y-22525D02*
X28600Y-22400D01*
X28724Y-22524D02*
X28725Y-22525D01*
X31788Y-28938D02*
X32250Y-29400D01*
X31788Y-27962D02*
X31788Y-28938D01*
X32166Y-27584D02*
X31788Y-27962D01*
X32166Y-26094D02*
X32166Y-27584D01*
X30394Y-24322D02*
X32166Y-26094D01*
X29890Y-24170D02*
X29976Y-24256D01*
X28410Y-22690D02*
X29890Y-24170D01*
X28250Y-22530D02*
X28410Y-22690D01*
X30042Y-24322D02*
X30394Y-24322D01*
X30042Y-24322D02*
X29976Y-24256D01*
X28250Y-22530D02*
X28250Y-22150D01*
X28250Y-22150D02*
X28050Y-21950D01*
X28050Y-21950D02*
X28000Y-21950D01*
X43950Y-22150D02*
X44350Y-22150D01*
X48000Y-14982D02*
X47968Y-14982D01*
X47968Y-14982D02*
X47450Y-15500D01*
X47450Y-15500D02*
X45150Y-15500D01*
X45150Y-15500D02*
X44536Y-16114D01*
X44386Y-16264D02*
X44536Y-16114D01*
X44386Y-21569D02*
X44386Y-16264D01*
X44550Y-21733D02*
X44386Y-21569D01*
X44550Y-21950D02*
X44550Y-21733D01*
X44350Y-22150D02*
X44550Y-21950D01*
X44400Y-22500D02*
X44470Y-22500D01*
X46882Y-16532D02*
X47450Y-16532D01*
X47450Y-16532D02*
X48000Y-15982D01*
X44698Y-16252D02*
X45288Y-15662D01*
X45288Y-15662D02*
X46012Y-15662D01*
X46882Y-16532D02*
X46012Y-15662D01*
X44548Y-16402D02*
X44698Y-16252D01*
X44548Y-21498D02*
X44548Y-16402D01*
X44750Y-21700D02*
X44548Y-21498D01*
X44750Y-22220D02*
X44750Y-21700D01*
X44470Y-22500D02*
X44750Y-22220D01*
X43700Y-22500D02*
X44400Y-22500D01*
X44400Y-22500D02*
X44450Y-22500D01*
X29638Y-21462D02*
X29450Y-21650D01*
X29638Y-21462D02*
X29638Y-20450D01*
X29638Y-13538D02*
X29638Y-20450D01*
X29638Y-20450D02*
X29638Y-20462D01*
X28700Y-12600D02*
X29638Y-13538D01*
X29476Y-21050D02*
X29476Y-21074D01*
X29476Y-21074D02*
X29350Y-21200D01*
X29476Y-21050D02*
X29476Y-20000D01*
X29476Y-13876D02*
X28450Y-12850D01*
X29476Y-20024D02*
X29476Y-20000D01*
X29476Y-20000D02*
X29476Y-13876D01*
X37100Y-28250D02*
X37250Y-28400D01*
X35150Y-28250D02*
X37100Y-28250D01*
X32360Y-22940D02*
X32360Y-23614D01*
X32360Y-22940D02*
X32800Y-22500D01*
X32800Y-22500D02*
X33200Y-22500D01*
X34710Y-28250D02*
X35150Y-28250D01*
X33824Y-25550D02*
X33824Y-27364D01*
X33824Y-25550D02*
X33824Y-25084D01*
X32937Y-24191D02*
X32937Y-24197D01*
X33824Y-25084D02*
X32937Y-24197D01*
X32360Y-23614D02*
X32937Y-24191D01*
X33824Y-27364D02*
X34710Y-28250D01*
X34680Y-28450D02*
X33662Y-27432D01*
X32198Y-22598D02*
X32198Y-23052D01*
X31800Y-22200D02*
X32198Y-22598D01*
X36750Y-28450D02*
X37000Y-28700D01*
X34680Y-28450D02*
X36750Y-28450D01*
X33662Y-25152D02*
X33662Y-25450D01*
X32198Y-23688D02*
X32205Y-23695D01*
X32205Y-23695D02*
X33662Y-25152D01*
X33662Y-25450D02*
X33662Y-27432D01*
X32198Y-23688D02*
X32198Y-23052D01*
X28162Y-24838D02*
X28162Y-25100D01*
X28162Y-24838D02*
X29150Y-23850D01*
X23000Y-30000D02*
X23550Y-30550D01*
X28162Y-29377D02*
X28162Y-25100D01*
X28500Y-29715D02*
X28162Y-29377D01*
X28500Y-30300D02*
X28500Y-29715D01*
X28250Y-30550D02*
X28500Y-30300D01*
X23550Y-30550D02*
X28250Y-30550D01*
X28162Y-25100D02*
X28162Y-25088D01*
X39788Y-20050D02*
X39728Y-20050D01*
X40086Y-20348D02*
X39788Y-20050D01*
X40086Y-20772D02*
X40086Y-20348D01*
X40274Y-20960D02*
X40086Y-20772D01*
X40274Y-21172D02*
X40274Y-20960D01*
X40412Y-21310D02*
X40274Y-21172D01*
X40412Y-21628D02*
X40412Y-21310D01*
X40550Y-21766D02*
X40412Y-21628D01*
X40550Y-23250D02*
X40550Y-21766D01*
X39020Y-20050D02*
X39728Y-20050D01*
X38500Y-20570D02*
X39020Y-20050D01*
X38500Y-20570D02*
X38500Y-21230D01*
X37942Y-21788D02*
X38500Y-21230D01*
X35338Y-21788D02*
X37942Y-21788D01*
X34800Y-21250D02*
X35338Y-21788D01*
X42500Y-23450D02*
X42450Y-23450D01*
X42450Y-23450D02*
X42062Y-23838D01*
X42062Y-23838D02*
X41138Y-23838D01*
X40550Y-23250D02*
X41138Y-23838D01*
X40712Y-21698D02*
X40712Y-22776D01*
X40574Y-21560D02*
X40712Y-21698D01*
X40574Y-21242D02*
X40574Y-21560D01*
X40436Y-21104D02*
X40574Y-21242D01*
X40436Y-20892D02*
X40436Y-21104D01*
X40248Y-20704D02*
X40436Y-20892D01*
X40248Y-20280D02*
X40248Y-20704D01*
X39856Y-19888D02*
X40248Y-20280D01*
X39798Y-19888D02*
X39856Y-19888D01*
X34800Y-20850D02*
X34750Y-20800D01*
X37874Y-21626D02*
X38338Y-21162D01*
X38338Y-20502D02*
X38338Y-21162D01*
X38338Y-20502D02*
X38952Y-19888D01*
X38952Y-19888D02*
X39798Y-19888D01*
X34900Y-20950D02*
X35576Y-21626D01*
X34800Y-20850D02*
X34900Y-20950D01*
X35576Y-21626D02*
X37874Y-21626D01*
X40712Y-22788D02*
X40712Y-22776D01*
X40712Y-22776D02*
X40712Y-22812D01*
X40712Y-23182D02*
X40712Y-22788D01*
X41206Y-23676D02*
X40712Y-23182D01*
X41874Y-23676D02*
X41206Y-23676D01*
X42450Y-23100D02*
X41874Y-23676D01*
X42500Y-23100D02*
X42450Y-23100D01*
X41724Y-19726D02*
X42300Y-19150D01*
X38438Y-19726D02*
X41724Y-19726D01*
X38362Y-19650D02*
X38438Y-19726D01*
X37220Y-19650D02*
X38362Y-19650D01*
X36752Y-19182D02*
X37220Y-19650D01*
X35318Y-19182D02*
X36752Y-19182D01*
X34800Y-19700D02*
X35318Y-19182D01*
X42300Y-18600D02*
X42300Y-19150D01*
X34774Y-19726D02*
X34800Y-19700D01*
X34800Y-19700D02*
X34250Y-20250D01*
X33900Y-20250D02*
X34250Y-20250D01*
X35198Y-19020D02*
X34654Y-19564D01*
X36820Y-19020D02*
X35198Y-19020D01*
X37236Y-19436D02*
X36820Y-19020D01*
X38386Y-19436D02*
X37236Y-19436D01*
X38514Y-19564D02*
X38386Y-19436D01*
X41600Y-19564D02*
X38514Y-19564D01*
X34418Y-19800D02*
X34654Y-19564D01*
X34300Y-19800D02*
X34418Y-19800D01*
X34150Y-19950D02*
X34300Y-19800D01*
X41636Y-19564D02*
X41950Y-19250D01*
X41636Y-19564D02*
X41600Y-19564D01*
X41950Y-18350D02*
X41950Y-19250D01*
X41950Y-18350D02*
X42100Y-18200D01*
X42100Y-18200D02*
X42300Y-18200D01*
X34942Y-18858D02*
X34400Y-19400D01*
X36896Y-18858D02*
X34942Y-18858D01*
X37312Y-19274D02*
X36896Y-18858D01*
X38460Y-19274D02*
X37312Y-19274D01*
X38586Y-19400D02*
X38460Y-19274D01*
X38816Y-19400D02*
X38586Y-19400D01*
X34300Y-19500D02*
X34400Y-19400D01*
X41750Y-18000D02*
X41750Y-19150D01*
X38816Y-19400D02*
X41500Y-19400D01*
X41500Y-19400D02*
X41750Y-19150D01*
X41750Y-18000D02*
X42000Y-17750D01*
X42000Y-17750D02*
X42300Y-17750D01*
X34172Y-19238D02*
X34062Y-19238D01*
X34714Y-18696D02*
X34172Y-19238D01*
X36964Y-18696D02*
X34714Y-18696D01*
X37380Y-19112D02*
X36964Y-18696D01*
X38528Y-19112D02*
X37380Y-19112D01*
X38654Y-19238D02*
X38528Y-19112D01*
X38760Y-19238D02*
X38654Y-19238D01*
X41412Y-19238D02*
X41550Y-19100D01*
X41550Y-17700D02*
X41550Y-19100D01*
X41550Y-17700D02*
X41900Y-17350D01*
X41900Y-17350D02*
X42300Y-17350D01*
X38760Y-19238D02*
X41412Y-19238D01*
X33950Y-19350D02*
X34062Y-19238D01*
X34712Y-22449D02*
X38201Y-22449D01*
X39300Y-20900D02*
X39300Y-21350D01*
X31850Y-20050D02*
X31856Y-20044D01*
X31856Y-20044D02*
X32300Y-20044D01*
X38201Y-22449D02*
X39300Y-21350D01*
X32300Y-20044D02*
X32307Y-20044D01*
X32307Y-20044D02*
X34712Y-22449D01*
X39300Y-20900D02*
X39300Y-20900D01*
X31596Y-19754D02*
X31550Y-19800D01*
X31596Y-19754D02*
X32246Y-19754D01*
X39076Y-20700D02*
X39000Y-20776D01*
X34779Y-22287D02*
X38133Y-22287D01*
X32242Y-19750D02*
X32246Y-19754D01*
X32246Y-19754D02*
X34779Y-22287D01*
X38133Y-22287D02*
X39000Y-21420D01*
X39000Y-20776D02*
X39000Y-21420D01*
X39600Y-21200D02*
X39600Y-20750D01*
X39600Y-20750D02*
X39450Y-20600D01*
X39450Y-20600D02*
X39176Y-20600D01*
X39176Y-20600D02*
X39076Y-20700D01*
X46750Y-22000D02*
X46100Y-21350D01*
X46750Y-22000D02*
X47050Y-22000D01*
X38078Y-22112D02*
X38838Y-21352D01*
X38838Y-20696D02*
X39134Y-20400D01*
X38838Y-20696D02*
X38838Y-21352D01*
X39550Y-20400D02*
X39134Y-20400D01*
X32200Y-19450D02*
X34862Y-22112D01*
X34862Y-22112D02*
X38078Y-22112D01*
X32200Y-19450D02*
X31350Y-19450D01*
X39950Y-21124D02*
X39950Y-21500D01*
X39950Y-21124D02*
X39762Y-20936D01*
X39762Y-20936D02*
X39762Y-20612D01*
X39762Y-20612D02*
X39550Y-20400D01*
X32000Y-18750D02*
X32000Y-19000D01*
X34950Y-21950D02*
X38010Y-21950D01*
X32000Y-19000D02*
X34950Y-21950D01*
X39700Y-20238D02*
X39062Y-20238D01*
X38010Y-21950D02*
X38676Y-21284D01*
X38676Y-20624D02*
X38676Y-21284D01*
X38676Y-20624D02*
X39062Y-20238D01*
X32000Y-18750D02*
X31950Y-18700D01*
X39688Y-20238D02*
X39700Y-20238D01*
X40250Y-21850D02*
X40250Y-21386D01*
X39700Y-20250D02*
X39700Y-20238D01*
X39924Y-20474D02*
X39700Y-20250D01*
X39924Y-20856D02*
X39924Y-20474D01*
X40112Y-21044D02*
X39924Y-20856D01*
X40112Y-21248D02*
X40112Y-21044D01*
X40250Y-21386D02*
X40112Y-21248D01*
X40560Y-18210D02*
X41250Y-18900D01*
X34289Y-18210D02*
X40560Y-18210D01*
X33850Y-18649D02*
X34289Y-18210D01*
X33850Y-18650D02*
X33850Y-18649D01*
X40798Y-18048D02*
X41250Y-18500D01*
X34224Y-18048D02*
X40798Y-18048D01*
X33922Y-18350D02*
X34224Y-18048D01*
X33600Y-18350D02*
X33922Y-18350D01*
X44062Y-21338D02*
X43900Y-21500D01*
X44062Y-16898D02*
X44062Y-21338D01*
X43264Y-16100D02*
X43782Y-16618D01*
X43782Y-16618D02*
X44062Y-16898D01*
X39478Y-16100D02*
X43264Y-16100D01*
X32150Y-16550D02*
X32352Y-16752D01*
X32150Y-14550D02*
X32150Y-16550D01*
X38672Y-16906D02*
X39478Y-16100D01*
X34266Y-16906D02*
X38672Y-16906D01*
X34112Y-16752D02*
X34266Y-16906D01*
X32352Y-16752D02*
X34112Y-16752D01*
X38609Y-16739D02*
X39410Y-15938D01*
X39410Y-15938D02*
X43682Y-15938D01*
X31450Y-14400D02*
X31600Y-14250D01*
X31600Y-14250D02*
X32250Y-14250D01*
X32250Y-14250D02*
X32450Y-14450D01*
X32450Y-14450D02*
X32450Y-16100D01*
X32450Y-16100D02*
X32940Y-16590D01*
X32940Y-16590D02*
X34192Y-16590D01*
X34192Y-16590D02*
X34341Y-16739D01*
X34341Y-16739D02*
X38609Y-16739D01*
X44224Y-21876D02*
X44250Y-21850D01*
X44224Y-16480D02*
X44224Y-21876D01*
X43682Y-15938D02*
X43922Y-16178D01*
X43922Y-16178D02*
X44224Y-16480D01*
X33936Y-17076D02*
X34090Y-17230D01*
X33934Y-17076D02*
X33936Y-17076D01*
X32100Y-17076D02*
X33934Y-17076D01*
X34090Y-17230D02*
X38808Y-17230D01*
X38808Y-17230D02*
X39576Y-16462D01*
X39576Y-16462D02*
X42408Y-16462D01*
X42408Y-16462D02*
X43738Y-17792D01*
X43738Y-17792D02*
X43738Y-20762D01*
X43738Y-20762D02*
X43350Y-21150D01*
X43350Y-21150D02*
X43350Y-21850D01*
X43350Y-21850D02*
X42750Y-22450D01*
X41000Y-22450D02*
X42750Y-22450D01*
X30864Y-16288D02*
X30624Y-16048D01*
X31238Y-16288D02*
X30864Y-16288D01*
X32026Y-17076D02*
X31238Y-16288D01*
X30624Y-16048D02*
X30624Y-14926D01*
X30624Y-14926D02*
X31000Y-14550D01*
X32100Y-17076D02*
X32026Y-17076D01*
X42300Y-16750D02*
X42162Y-16888D01*
X42162Y-16888D02*
X39412Y-16888D01*
X38900Y-17400D02*
X39412Y-16888D01*
X34030Y-17400D02*
X38900Y-17400D01*
X33868Y-17238D02*
X34030Y-17400D01*
X33868Y-17238D02*
X31938Y-17238D01*
X30600Y-14550D02*
X30462Y-14688D01*
X30462Y-14688D02*
X30462Y-15596D01*
X31938Y-17238D02*
X31150Y-16450D01*
X31150Y-16450D02*
X30796Y-16450D01*
X30796Y-16450D02*
X30462Y-16116D01*
X30462Y-16116D02*
X30462Y-15596D01*
X33962Y-17562D02*
X33800Y-17400D01*
X38968Y-17562D02*
X33962Y-17562D01*
X39480Y-17050D02*
X38968Y-17562D01*
X39500Y-17050D02*
X39480Y-17050D01*
X42900Y-18650D02*
X43450Y-18650D01*
X42900Y-18650D02*
X42600Y-18350D01*
X42600Y-18350D02*
X42600Y-17250D01*
X42600Y-17250D02*
X42400Y-17050D01*
X42400Y-17050D02*
X39500Y-17050D01*
X33800Y-17400D02*
X31860Y-17400D01*
X31860Y-17400D02*
X31210Y-16750D01*
X31210Y-16750D02*
X30700Y-16750D01*
X30700Y-17100D02*
X30800Y-17200D01*
X30800Y-17200D02*
X31430Y-17200D01*
X31430Y-17200D02*
X33140Y-18910D01*
X33140Y-18910D02*
X33144Y-18914D01*
X33140Y-18910D02*
X34040Y-18910D01*
X39222Y-18372D02*
X39400Y-18550D01*
X34578Y-18372D02*
X39222Y-18372D01*
X34040Y-18910D02*
X34578Y-18372D01*
X34104Y-19076D02*
X33076Y-19076D01*
X34646Y-18534D02*
X34104Y-19076D01*
X37046Y-18534D02*
X34646Y-18534D01*
X37462Y-18950D02*
X37046Y-18534D01*
X39392Y-18950D02*
X37462Y-18950D01*
X39400Y-18942D02*
X39392Y-18950D01*
X39400Y-18942D02*
X39400Y-18950D01*
X30750Y-17500D02*
X30800Y-17450D01*
X30800Y-17450D02*
X31450Y-17450D01*
X31450Y-17450D02*
X33076Y-19076D01*
X45074Y-16376D02*
X44874Y-16576D01*
X45850Y-16100D02*
X45350Y-16100D01*
X45350Y-16100D02*
X45074Y-16376D01*
X45027Y-22403D02*
X45114Y-22316D01*
X43080Y-24350D02*
X45027Y-22403D01*
X40750Y-24350D02*
X43080Y-24350D01*
X40750Y-24350D02*
X40150Y-23750D01*
X45114Y-21604D02*
X45114Y-22316D01*
X44872Y-21362D02*
X45114Y-21604D01*
X44872Y-16960D02*
X44872Y-21362D01*
X44874Y-16958D02*
X44872Y-16960D01*
X44874Y-16576D02*
X44874Y-16958D01*
X32342Y-20559D02*
X34593Y-22810D01*
X34593Y-22810D02*
X38348Y-22810D01*
X40150Y-23750D02*
X40150Y-22750D01*
X40150Y-22750D02*
X39588Y-22188D01*
X39588Y-22188D02*
X38970Y-22188D01*
X38348Y-22810D02*
X38970Y-22188D01*
X32342Y-20559D02*
X31359Y-20559D01*
X31350Y-20550D02*
X31359Y-20559D01*
X45550Y-16400D02*
X45281Y-16400D01*
X45042Y-16639D02*
X45042Y-21302D01*
X45281Y-16400D02*
X45042Y-16639D01*
X45276Y-21536D02*
X45042Y-21302D01*
X45042Y-21302D02*
X45034Y-21294D01*
X39850Y-23850D02*
X39850Y-23450D01*
X45276Y-22384D02*
X43148Y-24512D01*
X39850Y-23850D02*
X40512Y-24512D01*
X40512Y-24512D02*
X43148Y-24512D01*
X45276Y-22384D02*
X45276Y-21536D01*
X39850Y-22750D02*
X39850Y-23450D01*
X39450Y-22350D02*
X39850Y-22750D01*
X39050Y-22350D02*
X39450Y-22350D01*
X38428Y-22972D02*
X39050Y-22350D01*
X34522Y-22972D02*
X38428Y-22972D01*
X31850Y-20850D02*
X32400Y-20850D01*
X32400Y-20850D02*
X34522Y-22972D01*
X45438Y-22452D02*
X45438Y-21467D01*
X45438Y-22452D02*
X45395Y-22495D01*
X43216Y-24674D02*
X45395Y-22495D01*
X40444Y-24674D02*
X43216Y-24674D01*
X39550Y-23780D02*
X40444Y-24674D01*
X39550Y-23150D02*
X39550Y-23780D01*
X45500Y-16750D02*
X45750Y-16750D01*
X45204Y-17046D02*
X45500Y-16750D01*
X45204Y-21233D02*
X45204Y-17046D01*
X45438Y-21467D02*
X45204Y-21233D01*
X32570Y-21250D02*
X32569Y-21250D01*
X32585Y-21265D02*
X34458Y-23138D01*
X32570Y-21250D02*
X32585Y-21265D01*
X38536Y-23138D02*
X39124Y-22550D01*
X39400Y-22550D02*
X39124Y-22550D01*
X39600Y-22750D02*
X39400Y-22550D01*
X39600Y-23100D02*
X39600Y-22750D01*
X39600Y-23100D02*
X39550Y-23150D01*
X34458Y-23138D02*
X38536Y-23138D01*
X31950Y-21150D02*
X31450Y-21150D01*
X32088Y-21012D02*
X31950Y-21150D01*
X32331Y-21012D02*
X32088Y-21012D01*
X32569Y-21250D02*
X32331Y-21012D01*
X45700Y-17100D02*
X45489Y-17100D01*
X40376Y-24836D02*
X43284Y-24836D01*
X39250Y-23710D02*
X40376Y-24836D01*
X39250Y-23050D02*
X39250Y-23710D01*
X39300Y-23000D02*
X39250Y-23050D01*
X45600Y-22520D02*
X43284Y-24836D01*
X39300Y-23000D02*
X39300Y-22850D01*
X45600Y-21399D02*
X45600Y-22520D01*
X45366Y-21165D02*
X45600Y-21399D01*
X45366Y-17223D02*
X45366Y-21165D01*
X45489Y-17100D02*
X45366Y-17223D01*
X34390Y-23300D02*
X34040Y-22950D01*
X34650Y-23300D02*
X34390Y-23300D01*
X34650Y-23300D02*
X38850Y-23300D01*
X39300Y-22850D02*
X38850Y-23300D01*
X32890Y-21800D02*
X34040Y-22950D01*
X31550Y-21800D02*
X32890Y-21800D01*
X31350Y-21600D02*
X31550Y-21800D01*
X27188Y-18112D02*
X28100Y-17200D01*
X27188Y-22512D02*
X27188Y-18112D01*
X27188Y-26582D02*
X24811Y-28959D01*
X27188Y-22512D02*
X27188Y-26582D01*
X24811Y-28959D02*
X24811Y-28959D01*
X24313Y-29457D02*
X24811Y-28959D01*
X22743Y-29457D02*
X24313Y-29457D01*
X22200Y-30000D02*
X22743Y-29457D01*
X22200Y-30000D02*
X22000Y-30000D01*
X27026Y-17874D02*
X27700Y-17200D01*
X27026Y-22420D02*
X27026Y-17874D01*
X27019Y-26519D02*
X27026Y-26512D01*
X24750Y-28790D02*
X24748Y-28790D01*
X24245Y-29295D02*
X24750Y-28790D01*
X21905Y-29295D02*
X24245Y-29295D01*
X21200Y-30000D02*
X21905Y-29295D01*
X21200Y-30000D02*
X21000Y-30000D01*
X27026Y-26512D02*
X27026Y-22420D01*
X24748Y-28790D02*
X27019Y-26519D01*
X26864Y-17636D02*
X27300Y-17200D01*
X26864Y-22352D02*
X26864Y-17636D01*
X26864Y-22352D02*
X26864Y-22450D01*
X20000Y-30000D02*
X20867Y-29133D01*
X26864Y-26444D02*
X26864Y-22450D01*
X26864Y-22450D02*
X26864Y-22424D01*
X24680Y-28628D02*
X26864Y-26444D01*
X24680Y-28628D02*
X24682Y-28628D01*
X24682Y-28628D02*
X24177Y-29133D01*
X24177Y-29133D02*
X20867Y-29133D01*
X25874Y-12498D02*
X26250Y-12122D01*
X25874Y-14674D02*
X25874Y-12498D01*
X26250Y-15050D02*
X25874Y-14674D01*
X26250Y-15250D02*
X26250Y-15050D01*
X26250Y-12122D02*
X26372Y-12000D01*
X26372Y-12000D02*
X34400Y-12000D01*
X35000Y-12000D02*
X36000Y-11000D01*
X34400Y-12000D02*
X35000Y-12000D01*
X35000Y-11000D02*
X34200Y-11800D01*
X25712Y-12330D02*
X25915Y-12127D01*
X25712Y-14912D02*
X25712Y-12330D01*
X25900Y-15100D02*
X25712Y-14912D01*
X25900Y-15100D02*
X25900Y-15150D01*
X25915Y-12127D02*
X26242Y-11800D01*
X26242Y-11800D02*
X34200Y-11800D01*
X25900Y-15150D02*
X25915Y-15135D01*
X26150Y-11600D02*
X33400Y-11600D01*
X33400Y-11600D02*
X34000Y-11000D01*
X25550Y-12200D02*
X25550Y-15250D01*
X25550Y-12200D02*
X26150Y-11600D01*
X19600Y-16500D02*
X17850Y-16500D01*
X22150Y-14950D02*
X20600Y-16500D01*
X19600Y-16500D02*
X20600Y-16500D01*
X22300Y-14950D02*
X22150Y-14950D01*
X17850Y-16500D02*
X16250Y-18100D01*
X21350Y-16900D02*
X21180Y-16900D01*
X22600Y-16800D02*
X22500Y-16900D01*
X22500Y-16900D02*
X21350Y-16900D01*
X21180Y-16900D02*
X21076Y-17004D01*
X21076Y-17004D02*
X21017Y-17063D01*
X21017Y-17063D02*
X21017Y-17383D01*
X21017Y-17383D02*
X21000Y-17400D01*
X31086Y-18714D02*
X31350Y-18450D01*
X31350Y-18450D02*
X31850Y-18450D01*
X31850Y-18450D02*
X31950Y-18350D01*
X31086Y-18714D02*
X31086Y-21850D01*
X31086Y-21850D02*
X31086Y-21856D01*
X33500Y-25870D02*
X33500Y-27500D01*
X33500Y-25570D02*
X33500Y-25870D01*
X31350Y-23420D02*
X33500Y-25570D01*
X31350Y-23350D02*
X31350Y-23420D01*
X31086Y-22886D02*
X31350Y-23150D01*
X31350Y-23150D02*
X31350Y-23350D01*
X31086Y-21850D02*
X31086Y-22886D01*
X33500Y-27500D02*
X36000Y-30000D01*
X33324Y-25624D02*
X33324Y-25874D01*
X31188Y-23488D02*
X33324Y-25624D01*
X31188Y-23288D02*
X31188Y-23488D01*
X35000Y-30000D02*
X35000Y-29230D01*
X33324Y-27554D02*
X35000Y-29230D01*
X33324Y-25874D02*
X33324Y-27554D01*
X30924Y-18607D02*
X30924Y-21924D01*
X31550Y-18250D02*
X31650Y-18150D01*
X31281Y-18250D02*
X31550Y-18250D01*
X30924Y-18607D02*
X31281Y-18250D01*
X30924Y-21924D02*
X30924Y-22954D01*
X30924Y-22954D02*
X31188Y-23218D01*
X31188Y-23218D02*
X31188Y-23288D01*
X33162Y-25862D02*
X33162Y-27622D01*
X31026Y-23286D02*
X31026Y-23288D01*
X31026Y-23556D02*
X31026Y-23288D01*
X34614Y-29386D02*
X34000Y-30000D01*
X34614Y-29074D02*
X34614Y-29386D01*
X33162Y-27622D02*
X34614Y-29074D01*
X33162Y-25862D02*
X33162Y-25692D01*
X33162Y-25692D02*
X31026Y-23556D01*
X30762Y-23022D02*
X31026Y-23286D01*
X31026Y-23286D02*
X31020Y-23280D01*
X31020Y-23280D02*
X31026Y-23286D01*
X30762Y-22000D02*
X30762Y-23022D01*
X30762Y-18538D02*
X30762Y-22000D01*
X30762Y-22000D02*
X30762Y-22012D01*
X30762Y-18538D02*
X31350Y-17950D01*
X33000Y-25760D02*
X30984Y-23744D01*
X33000Y-25850D02*
X33000Y-25760D01*
X30864Y-23624D02*
X30984Y-23744D01*
X30864Y-23354D02*
X30864Y-23624D01*
X30600Y-23090D02*
X30864Y-23354D01*
X30600Y-18200D02*
X30600Y-23090D01*
X30600Y-18200D02*
X31050Y-17750D01*
X33000Y-27690D02*
X33047Y-27737D01*
X34050Y-28950D02*
X33000Y-30000D01*
X34050Y-28740D02*
X34050Y-28950D01*
X33047Y-27737D02*
X34050Y-28740D01*
X33000Y-25850D02*
X33000Y-27690D01*
X43900Y-17500D02*
X43900Y-17300D01*
X43700Y-21100D02*
X43900Y-20900D01*
X43900Y-20900D02*
X43900Y-17500D01*
X43700Y-21200D02*
X43700Y-21100D01*
X43900Y-17300D02*
X43650Y-17050D01*
X39508Y-16300D02*
X42900Y-16300D01*
X42900Y-16300D02*
X43650Y-17050D01*
X32094Y-16914D02*
X31850Y-16670D01*
X34044Y-16914D02*
X32094Y-16914D01*
X34198Y-17068D02*
X34044Y-16914D01*
X34198Y-17068D02*
X38740Y-17068D01*
X38740Y-17068D02*
X39508Y-16300D01*
X31850Y-14950D02*
X31850Y-16670D01*
X11300Y-14200D02*
X12850Y-14200D01*
X10400Y-13300D02*
X11300Y-14200D01*
M02*
