G04 (Genere par PCBnew (20080825c)) le 10/4/2010-23:02:41*
G01*
G70*
G90*
%MOIN*%
G04 Gerber Fmt 3.4, Leading zero omitted, Abs format*
%FSLAX34Y34*%
G04 APERTURE LIST*
%ADD10C,0.015000*%
%ADD11R,0.060000X0.060000*%
%ADD12C,0.060000*%
%ADD13C,0.157500*%
%ADD14C,0.039400*%
%ADD15C,0.027000*%
%ADD16C,0.035600*%
%ADD17C,0.008000*%
%ADD18C,0.032000*%
%ADD19C,0.016000*%
%ADD20C,0.010000*%
%ADD21R,0.137800X0.063000*%
%ADD22R,0.181100X0.039400*%
%ADD23R,0.010000X0.060000*%
%ADD24R,0.060000X0.010000*%
%ADD25R,0.047200X0.019700*%
%ADD26R,0.027600X0.035400*%
%ADD27R,0.035400X0.027600*%
%ADD28R,0.025000X0.045000*%
%ADD29R,0.039400X0.039400*%
%ADD30R,0.059100X0.047200*%
%ADD31R,0.074800X0.043300*%
%ADD32R,0.033500X0.011000*%
%ADD33R,0.078700X0.039400*%
%ADD34R,0.098400X0.019700*%
%ADD35R,0.098400X0.078700*%
%ADD36R,0.094500X0.078700*%
%ADD37R,0.039400X0.055100*%
%ADD38C,0.006000*%
%ADD39C,0.012000*%
%ADD40C,0.005000*%
%ADD41C,0.001000*%
%ADD42R,0.080000X0.080000*%
%ADD43C,0.080000*%
%ADD44C,0.177500*%
%ADD45C,0.059400*%
%ADD46R,0.157800X0.083000*%
%ADD47R,0.201100X0.059400*%
%ADD48R,0.030000X0.080000*%
%ADD49R,0.080000X0.030000*%
%ADD50R,0.067200X0.039700*%
%ADD51R,0.047600X0.055400*%
%ADD52R,0.055400X0.047600*%
%ADD53R,0.045000X0.065000*%
%ADD54R,0.059400X0.059400*%
%ADD55R,0.079100X0.067200*%
%ADD56R,0.094800X0.063300*%
%ADD57R,0.053500X0.031000*%
%ADD58R,0.098700X0.059400*%
%ADD59R,0.118400X0.039700*%
%ADD60R,0.118400X0.098700*%
%ADD61R,0.114500X0.098700*%
%ADD62R,0.059400X0.075100*%
G04 APERTURE END LIST*
G54D10*
X49000Y-31000D02*
X11000Y-31000D01*
X11000Y-10000D02*
X49000Y-10000D01*
X50000Y-11000D02*
X50000Y-30000D01*
X10000Y-11000D02*
X10000Y-30000D01*
X10000Y-30000D02*
X10022Y-30208D01*
X10022Y-30208D02*
X10086Y-30407D01*
X10086Y-30407D02*
X10191Y-30588D01*
X10191Y-30588D02*
X10331Y-30743D01*
X10331Y-30743D02*
X10500Y-30866D01*
X10500Y-30866D02*
X10691Y-30951D01*
X10691Y-30951D02*
X10895Y-30995D01*
X10895Y-30995D02*
X11000Y-31000D01*
X49000Y-31000D02*
X49208Y-30978D01*
X49208Y-30978D02*
X49407Y-30914D01*
X49407Y-30914D02*
X49588Y-30809D01*
X49588Y-30809D02*
X49743Y-30669D01*
X49743Y-30669D02*
X49866Y-30500D01*
X49866Y-30500D02*
X49951Y-30309D01*
X49951Y-30309D02*
X49995Y-30105D01*
X49995Y-30105D02*
X50000Y-30000D01*
X50000Y-11000D02*
X49978Y-10792D01*
X49978Y-10792D02*
X49914Y-10593D01*
X49914Y-10593D02*
X49809Y-10412D01*
X49809Y-10412D02*
X49669Y-10257D01*
X49669Y-10257D02*
X49500Y-10134D01*
X49500Y-10134D02*
X49309Y-10049D01*
X49309Y-10049D02*
X49105Y-10005D01*
X49105Y-10005D02*
X49000Y-10000D01*
X11000Y-10000D02*
X10792Y-10022D01*
X10792Y-10022D02*
X10593Y-10086D01*
X10593Y-10086D02*
X10412Y-10191D01*
X10412Y-10191D02*
X10257Y-10331D01*
X10257Y-10331D02*
X10134Y-10500D01*
X10134Y-10500D02*
X10049Y-10691D01*
X10049Y-10691D02*
X10005Y-10895D01*
X10005Y-10895D02*
X10000Y-11000D01*
G54D11*
X10650Y-26250D03*
G54D12*
X10650Y-25250D03*
G54D11*
X20000Y-23000D03*
G54D12*
X19000Y-23000D03*
X20000Y-22000D03*
X19000Y-22000D03*
X20000Y-21000D03*
X19000Y-21000D03*
X20000Y-20000D03*
X19000Y-20000D03*
G54D11*
X19000Y-15000D03*
G54D12*
X20000Y-15000D03*
X19000Y-16000D03*
X20000Y-16000D03*
X19000Y-17000D03*
X20000Y-17000D03*
X19000Y-18000D03*
X20000Y-18000D03*
G54D11*
X22000Y-23000D03*
G54D12*
X22000Y-22000D03*
X22000Y-21000D03*
X22000Y-20000D03*
X22000Y-19000D03*
X22000Y-18000D03*
G54D13*
X14394Y-25750D03*
X13213Y-27600D03*
X12031Y-25867D03*
G54D14*
X12100Y-19247D03*
X12100Y-21353D03*
G54D11*
X46000Y-30000D03*
G54D12*
X38000Y-30000D03*
X45000Y-30000D03*
X37000Y-30000D03*
X44000Y-30000D03*
X36000Y-30000D03*
X43000Y-30000D03*
X35000Y-30000D03*
X42000Y-30000D03*
X34000Y-30000D03*
X41000Y-30000D03*
X33000Y-30000D03*
X40000Y-30000D03*
X32000Y-30000D03*
X39000Y-30000D03*
X31000Y-30000D03*
X30000Y-30000D03*
X29000Y-30000D03*
X28000Y-30000D03*
X27000Y-30000D03*
X26000Y-30000D03*
X25000Y-30000D03*
X24000Y-30000D03*
X23000Y-30000D03*
X22000Y-30000D03*
X21000Y-30000D03*
X20000Y-30000D03*
X19000Y-30000D03*
X18000Y-30000D03*
X17000Y-30000D03*
X16000Y-30000D03*
X15000Y-30000D03*
G54D11*
X49000Y-27982D03*
G54D12*
X48000Y-27982D03*
X49000Y-26982D03*
X48000Y-26982D03*
X49000Y-25982D03*
X48000Y-25982D03*
X49000Y-24982D03*
X48000Y-24982D03*
X49000Y-23982D03*
X48000Y-23982D03*
X49000Y-22982D03*
X48000Y-22982D03*
X49000Y-21982D03*
X48000Y-21982D03*
X49000Y-20982D03*
X48000Y-20982D03*
X49000Y-19982D03*
X48000Y-19982D03*
X49000Y-18982D03*
X48000Y-18982D03*
X49000Y-17982D03*
X48000Y-17982D03*
X49000Y-16982D03*
X48000Y-16982D03*
X49000Y-15982D03*
X48000Y-15982D03*
X49000Y-14982D03*
X48000Y-14982D03*
X49000Y-13982D03*
X48000Y-13982D03*
X49000Y-12982D03*
X48000Y-12982D03*
G54D11*
X47050Y-28000D03*
G54D12*
X47050Y-20000D03*
X47050Y-27000D03*
X47050Y-19000D03*
X47050Y-26000D03*
X47050Y-18000D03*
X47050Y-25000D03*
X47050Y-17000D03*
X47050Y-24000D03*
X47050Y-16000D03*
X47050Y-23000D03*
X47050Y-15000D03*
X47050Y-22000D03*
X47050Y-14000D03*
X47050Y-21000D03*
X47050Y-13000D03*
G54D11*
X46000Y-11000D03*
G54D12*
X38000Y-11000D03*
X45000Y-11000D03*
X37000Y-11000D03*
X44000Y-11000D03*
X36000Y-11000D03*
X43000Y-11000D03*
X35000Y-11000D03*
X42000Y-11000D03*
X34000Y-11000D03*
X41000Y-11000D03*
X33000Y-11000D03*
X40000Y-11000D03*
X32000Y-11000D03*
X39000Y-11000D03*
X31000Y-11000D03*
X30000Y-11000D03*
X29000Y-11000D03*
X28000Y-11000D03*
X27000Y-11000D03*
X26000Y-11000D03*
X25000Y-11000D03*
X24000Y-11000D03*
X23000Y-11000D03*
X22000Y-11000D03*
X21000Y-11000D03*
X20000Y-11000D03*
X19000Y-11000D03*
X18000Y-11000D03*
X17000Y-11000D03*
X16000Y-11000D03*
X15000Y-11000D03*
G54D15*
X15800Y-15850D03*
X14750Y-18100D03*
X14500Y-16350D03*
X31550Y-19150D03*
X33250Y-15950D03*
X29200Y-14700D03*
X28350Y-15350D03*
X23150Y-23200D03*
X12650Y-12250D03*
X18100Y-22850D03*
X14450Y-20950D03*
X23150Y-18700D03*
X22950Y-20450D03*
X25100Y-15600D03*
X22100Y-27050D03*
X18400Y-27650D03*
X20050Y-24900D03*
X31750Y-21450D03*
X31650Y-23350D03*
X25700Y-27000D03*
X29900Y-26200D03*
G54D16*
X34300Y-26500D03*
G54D15*
X30950Y-26000D03*
X41150Y-27350D03*
X38350Y-28000D03*
X46250Y-20450D03*
X42350Y-20550D03*
X37750Y-21350D03*
X31350Y-22150D03*
X11400Y-13400D03*
X14550Y-12650D03*
X39750Y-27650D03*
X29350Y-24200D03*
X28050Y-20200D03*
X29300Y-22100D03*
X23350Y-16800D03*
X23000Y-17100D03*
X22600Y-16300D03*
X31450Y-18750D03*
X24900Y-24150D03*
G54D16*
X19700Y-27800D03*
G54D15*
X31650Y-22950D03*
X34450Y-21050D03*
X28450Y-25500D03*
X41100Y-25950D03*
X42450Y-27850D03*
X38400Y-26750D03*
X23650Y-15450D03*
X20400Y-13350D03*
X22750Y-21750D03*
X23150Y-24500D03*
X14450Y-22350D03*
X18000Y-21150D03*
X31500Y-15500D03*
X27450Y-14500D03*
X28850Y-15300D03*
X46050Y-19700D03*
X42100Y-20200D03*
X22650Y-19600D03*
X37400Y-21150D03*
G54D16*
X17600Y-23800D03*
X19500Y-26250D03*
X31000Y-26400D03*
G54D15*
X17250Y-14900D03*
X12550Y-13800D03*
X13150Y-14900D03*
X17700Y-14450D03*
X17700Y-13300D03*
X14850Y-21700D03*
X14000Y-19600D03*
X14350Y-23200D03*
X45250Y-25650D03*
X37950Y-25450D03*
X37800Y-25100D03*
X37650Y-24750D03*
X37500Y-24400D03*
X25400Y-24000D03*
X25300Y-23650D03*
X24850Y-23500D03*
X40850Y-24000D03*
X42500Y-23800D03*
X35950Y-24050D03*
X37400Y-24000D03*
X28100Y-23700D03*
X28100Y-23350D03*
X28000Y-23000D03*
X28000Y-22650D03*
X27950Y-22300D03*
X32000Y-12300D03*
X30300Y-22150D03*
X31000Y-12300D03*
X30300Y-22550D03*
X30300Y-22950D03*
X30000Y-12300D03*
X30500Y-23400D03*
X29000Y-12300D03*
G54D16*
X31450Y-26050D03*
G54D15*
X41250Y-18100D03*
X33800Y-18050D03*
X41250Y-17700D03*
X33600Y-17700D03*
X46000Y-20800D03*
X46200Y-17000D03*
X43750Y-15100D03*
X34500Y-16050D03*
X38500Y-15350D03*
X33850Y-14800D03*
X39250Y-25050D03*
X41150Y-21300D03*
X37700Y-15350D03*
X33700Y-15250D03*
X38750Y-25050D03*
X40800Y-21100D03*
X25800Y-17550D03*
X28300Y-14400D03*
X34800Y-20100D03*
X37550Y-19950D03*
X38000Y-20000D03*
X25800Y-18000D03*
X28300Y-14800D03*
X34750Y-20450D03*
X26300Y-18450D03*
X22900Y-28800D03*
X26050Y-18700D03*
X22500Y-28800D03*
X43950Y-22800D03*
X31550Y-13150D03*
X25100Y-19000D03*
X28250Y-13500D03*
X37400Y-15950D03*
X46000Y-18800D03*
X43450Y-19000D03*
X41000Y-22050D03*
X31450Y-20150D03*
X29200Y-18200D03*
X28100Y-18150D03*
X40100Y-22200D03*
X22100Y-28800D03*
X26250Y-19650D03*
X31900Y-12850D03*
X37950Y-15950D03*
X21350Y-15250D03*
X24050Y-14650D03*
X37550Y-18650D03*
X26200Y-14450D03*
X28000Y-13200D03*
X28300Y-13950D03*
X31300Y-13500D03*
X25250Y-19900D03*
X25600Y-20100D03*
X29100Y-14250D03*
X30800Y-14250D03*
X26050Y-19950D03*
X25950Y-20600D03*
X25750Y-20950D03*
X25500Y-21200D03*
X24500Y-21500D03*
X24950Y-22650D03*
X32450Y-29100D03*
X28050Y-21600D03*
X33450Y-29100D03*
X28000Y-20550D03*
X33100Y-29250D03*
X27950Y-20900D03*
X32700Y-29350D03*
X28000Y-21250D03*
X32250Y-29400D03*
X28000Y-21950D03*
X43950Y-22150D03*
X44200Y-26400D03*
X43700Y-22500D03*
X43900Y-25950D03*
X29450Y-21650D03*
X28700Y-12600D03*
X29350Y-21200D03*
X28450Y-12850D03*
X37250Y-28400D03*
X33200Y-22500D03*
X31800Y-22200D03*
X37000Y-28700D03*
X29150Y-23850D03*
X34800Y-21250D03*
X42500Y-23450D03*
X34750Y-20800D03*
X42500Y-23100D03*
X42300Y-18600D03*
X33900Y-20250D03*
X34150Y-19950D03*
X42300Y-18200D03*
X34300Y-19500D03*
X42300Y-17750D03*
X42300Y-17350D03*
X33950Y-19350D03*
X39300Y-20900D03*
X31850Y-20050D03*
X31550Y-19800D03*
X39600Y-21200D03*
X46100Y-21350D03*
X31350Y-19450D03*
X39950Y-21500D03*
X31950Y-18700D03*
X40250Y-21850D03*
X41250Y-18900D03*
X33850Y-18650D03*
X33600Y-18350D03*
X41250Y-18500D03*
X43782Y-16618D03*
X43900Y-21500D03*
X32150Y-14550D03*
X43922Y-16178D03*
X31450Y-14400D03*
X44250Y-21850D03*
X41000Y-22450D03*
X31000Y-14550D03*
X42300Y-16750D03*
X30600Y-14550D03*
X45200Y-27150D03*
X30700Y-16750D03*
X43450Y-18650D03*
X39400Y-18550D03*
X30700Y-17100D03*
X30750Y-17500D03*
X39400Y-18950D03*
X45650Y-25200D03*
X45850Y-16100D03*
X40150Y-23750D03*
X31350Y-20550D03*
X45550Y-16400D03*
X39850Y-23450D03*
X31850Y-20850D03*
X45750Y-16750D03*
X31450Y-21150D03*
X39550Y-23150D03*
X45700Y-17100D03*
X31350Y-21600D03*
X39300Y-22850D03*
X28100Y-17200D03*
X27700Y-17200D03*
X27300Y-17200D03*
X26250Y-15250D03*
X25900Y-15150D03*
X25550Y-15250D03*
X22300Y-14950D03*
X16250Y-18100D03*
X22600Y-16800D03*
X21000Y-17400D03*
X31950Y-18350D03*
X31650Y-18150D03*
X31350Y-17950D03*
X31050Y-17750D03*
X43700Y-21200D03*
X43650Y-17050D03*
X31850Y-14950D03*
X10400Y-13300D03*
X12850Y-14200D03*
G54D17*
X31450Y-18750D02*
X31550Y-18750D01*
X31550Y-18750D02*
X32400Y-19600D01*
X34450Y-21050D02*
X33850Y-21050D01*
X32400Y-19600D02*
X33850Y-21050D01*
X24550Y-24500D02*
X23150Y-24500D01*
X24900Y-24150D02*
X24550Y-24500D01*
X19350Y-24500D02*
X23150Y-24500D01*
X18800Y-25050D02*
X19350Y-24500D01*
X18800Y-26950D02*
X18800Y-25050D01*
X19650Y-27800D02*
X18800Y-26950D01*
X19700Y-27800D02*
X19650Y-27800D01*
X31650Y-22950D02*
X31150Y-22950D01*
X31150Y-22950D02*
X31100Y-22900D01*
X30950Y-18750D02*
X31450Y-18750D01*
X31100Y-22900D02*
X30800Y-22600D01*
X30800Y-22600D02*
X30800Y-18900D01*
X30800Y-18900D02*
X30950Y-18750D01*
X28450Y-25500D02*
X29000Y-25500D01*
X31100Y-23950D02*
X31100Y-22900D01*
X31150Y-24000D02*
X31100Y-23950D01*
X29900Y-24000D02*
X31150Y-24000D01*
X29900Y-24700D02*
X29900Y-24000D01*
X29100Y-25500D02*
X29900Y-24700D01*
X29000Y-25500D02*
X29100Y-25500D01*
X34150Y-21050D02*
X34450Y-21050D01*
X26250Y-25500D02*
X24900Y-24150D01*
X28450Y-25500D02*
X26250Y-25500D01*
X42450Y-26500D02*
X42450Y-27850D01*
X41900Y-25950D02*
X42450Y-26500D01*
X41100Y-25950D02*
X41900Y-25950D01*
X39200Y-25950D02*
X41100Y-25950D01*
X38400Y-26750D02*
X39200Y-25950D01*
X22200Y-15450D02*
X23650Y-15450D01*
X21650Y-14900D02*
X22200Y-15450D01*
X21650Y-14600D02*
X21650Y-14900D01*
X20400Y-13350D02*
X21650Y-14600D01*
X22700Y-19900D02*
X22700Y-20050D01*
X22700Y-20250D02*
X22700Y-20050D01*
X22400Y-20550D02*
X22700Y-20250D01*
X22200Y-20550D02*
X22400Y-20550D01*
X22200Y-20550D02*
X21650Y-20550D01*
X21650Y-20550D02*
X21500Y-20400D01*
X21100Y-20000D02*
X20000Y-20000D01*
X21500Y-20400D02*
X21100Y-20000D01*
X22500Y-22000D02*
X22000Y-22000D01*
X22750Y-21750D02*
X22500Y-22000D01*
X22000Y-22000D02*
X21450Y-21450D01*
X21450Y-20350D02*
X21500Y-20400D01*
X21450Y-21450D02*
X21450Y-20350D01*
X22750Y-24100D02*
X22750Y-21750D01*
X23150Y-24500D02*
X22750Y-24100D01*
X17150Y-25050D02*
X18800Y-25050D01*
X14450Y-22350D02*
X17150Y-25050D01*
X19500Y-20500D02*
X20000Y-20000D01*
X18600Y-20500D02*
X19500Y-20500D01*
X18000Y-21100D02*
X18600Y-20500D01*
X18000Y-21150D02*
X18000Y-21100D01*
X31500Y-15500D02*
X30650Y-16350D01*
X30650Y-16350D02*
X28900Y-16350D01*
X27500Y-16350D02*
X26750Y-15600D01*
X26750Y-15600D02*
X26750Y-15200D01*
X26750Y-15200D02*
X27450Y-14500D01*
X28900Y-16350D02*
X27500Y-16350D01*
X28900Y-15350D02*
X28900Y-16350D01*
X28850Y-15300D02*
X28900Y-15350D01*
X31500Y-15500D02*
X31500Y-17050D01*
X32400Y-17950D02*
X32400Y-19600D01*
X31500Y-17050D02*
X32400Y-17950D01*
X49350Y-19500D02*
X49550Y-19300D01*
X46250Y-19500D02*
X49350Y-19500D01*
X46050Y-19700D02*
X46250Y-19500D01*
X48482Y-13500D02*
X48000Y-13982D01*
X49550Y-19300D02*
X49550Y-14750D01*
X49550Y-14750D02*
X49550Y-13850D01*
X49550Y-13850D02*
X49200Y-13500D01*
X49200Y-13500D02*
X48482Y-13500D01*
X23650Y-15950D02*
X23650Y-15450D01*
X23650Y-15950D02*
X23650Y-15950D01*
G54D18*
X22000Y-22000D02*
X22000Y-21000D01*
G54D17*
X19700Y-27800D02*
X28900Y-27800D01*
X37250Y-27900D02*
X38400Y-26750D01*
X29000Y-27900D02*
X37250Y-27900D01*
X28900Y-27800D02*
X29000Y-27900D01*
X42450Y-27850D02*
X44900Y-27850D01*
X49550Y-29250D02*
X49550Y-19300D01*
X49450Y-29350D02*
X49550Y-29250D01*
X46400Y-29350D02*
X49450Y-29350D01*
X44900Y-27850D02*
X46400Y-29350D01*
X22700Y-19650D02*
X22700Y-19900D01*
X22700Y-19900D02*
X22700Y-20000D01*
X22650Y-19600D02*
X22700Y-19650D01*
X23650Y-15950D02*
X23650Y-16000D01*
X24000Y-16350D02*
X27500Y-16350D01*
X23650Y-16000D02*
X24000Y-16350D01*
G54D18*
X19000Y-18000D02*
X19000Y-17000D01*
X19000Y-17000D02*
X19000Y-16000D01*
X19000Y-15000D02*
X19000Y-16000D01*
X19000Y-18000D02*
X19000Y-18900D01*
X19000Y-18900D02*
X17600Y-20300D01*
X17600Y-20300D02*
X17600Y-23800D01*
X19850Y-26600D02*
X19500Y-26250D01*
X30800Y-26600D02*
X19850Y-26600D01*
X31000Y-26400D02*
X30800Y-26600D01*
X18950Y-15050D02*
X19000Y-15000D01*
X17400Y-15050D02*
X18950Y-15050D01*
X17250Y-14900D02*
X17400Y-15050D01*
G54D17*
X41250Y-18100D02*
X41550Y-18400D01*
X47050Y-18200D02*
X47050Y-18000D01*
X46150Y-19100D02*
X47050Y-18200D01*
X45900Y-19100D02*
X46150Y-19100D01*
X45324Y-19676D02*
X45900Y-19100D01*
X44474Y-19676D02*
X45324Y-19676D01*
X44450Y-19676D02*
X44474Y-19676D01*
X42673Y-19676D02*
X44450Y-19676D01*
X41550Y-18553D02*
X42673Y-19676D01*
X41550Y-18553D02*
X41550Y-18400D01*
X41250Y-17700D02*
X41750Y-18200D01*
X44536Y-19514D02*
X47050Y-17000D01*
X42741Y-19514D02*
X44536Y-19514D01*
X41750Y-18523D02*
X42741Y-19514D01*
X41750Y-18200D02*
X41750Y-18523D01*
X47050Y-16150D02*
X47050Y-16000D01*
X45800Y-17400D02*
X46200Y-17000D01*
X46200Y-17000D02*
X47050Y-16150D01*
X43550Y-17400D02*
X45800Y-17400D01*
X43200Y-17050D02*
X43550Y-17400D01*
X43200Y-15650D02*
X43200Y-17050D01*
X43750Y-15100D02*
X43200Y-15650D01*
X38500Y-15670D02*
X38500Y-15350D01*
X40562Y-17732D02*
X38500Y-15670D01*
X40562Y-20432D02*
X40562Y-17732D01*
X41150Y-21020D02*
X40562Y-20432D01*
X41150Y-21300D02*
X41150Y-21020D01*
X40400Y-20700D02*
X40800Y-21100D01*
X40400Y-17800D02*
X40400Y-20700D01*
X37950Y-15350D02*
X40400Y-17800D01*
X37700Y-15350D02*
X37950Y-15350D01*
X47050Y-26000D02*
X45512Y-24462D01*
X40462Y-24462D02*
X45512Y-24462D01*
X39000Y-23000D02*
X40462Y-24462D01*
X38976Y-22976D02*
X39000Y-23000D01*
X37550Y-19950D02*
X38976Y-21376D01*
X38976Y-21376D02*
X38950Y-21350D01*
X38976Y-21376D02*
X38976Y-22976D01*
X38976Y-22976D02*
X39000Y-23000D01*
X40550Y-23510D02*
X40550Y-24100D01*
X40550Y-24100D02*
X40750Y-24300D01*
X40750Y-24300D02*
X46350Y-24300D01*
X46350Y-24300D02*
X47050Y-25000D01*
X38000Y-20000D02*
X38250Y-20000D01*
X38250Y-20000D02*
X39000Y-20750D01*
X39000Y-20750D02*
X39000Y-21026D01*
X39000Y-21026D02*
X39138Y-21164D01*
X39138Y-21164D02*
X39138Y-22098D01*
X39138Y-22098D02*
X40550Y-23510D01*
X39300Y-20900D02*
X39300Y-22030D01*
X46950Y-24100D02*
X47050Y-24000D01*
X41370Y-24100D02*
X46950Y-24100D01*
X39300Y-22030D02*
X41370Y-24100D01*
X39600Y-21200D02*
X39600Y-22100D01*
X46950Y-23100D02*
X47050Y-23000D01*
X43800Y-23100D02*
X46950Y-23100D01*
X43450Y-22750D02*
X43800Y-23100D01*
X40250Y-22750D02*
X43450Y-22750D01*
X39600Y-22100D02*
X40250Y-22750D01*
X46100Y-21350D02*
X45812Y-21638D01*
X45812Y-21638D02*
X45268Y-21638D01*
X45268Y-21638D02*
X44368Y-20738D01*
X43532Y-20738D02*
X44368Y-20738D01*
X42782Y-21488D02*
X42785Y-21485D01*
X42785Y-21485D02*
X43532Y-20738D01*
X42785Y-21485D02*
X42785Y-21487D01*
X40000Y-21550D02*
X39950Y-21500D01*
X42722Y-21550D02*
X42736Y-21536D01*
X42736Y-21536D02*
X42785Y-21487D01*
X42736Y-21536D02*
X42734Y-21536D01*
X40038Y-21588D02*
X39950Y-21500D01*
X41168Y-21588D02*
X40038Y-21588D01*
X41718Y-22138D02*
X41168Y-21588D01*
X42132Y-22138D02*
X41718Y-22138D01*
X42734Y-21536D02*
X42132Y-22138D01*
X47050Y-21000D02*
X46250Y-21800D01*
X42200Y-22300D02*
X42750Y-21750D01*
X41650Y-22300D02*
X42200Y-22300D01*
X41100Y-21750D02*
X41650Y-22300D01*
X40850Y-21750D02*
X41100Y-21750D01*
X45200Y-21800D02*
X46250Y-21800D01*
X44300Y-20900D02*
X45200Y-21800D01*
X43600Y-20900D02*
X44300Y-20900D01*
X42750Y-21750D02*
X43600Y-20900D01*
X40750Y-21850D02*
X40250Y-21850D01*
X40750Y-21850D02*
X40850Y-21750D01*
X47050Y-20000D02*
X42350Y-20000D01*
X42350Y-20000D02*
X41250Y-18900D01*
X41250Y-18500D02*
X41267Y-18500D01*
X42605Y-19838D02*
X44450Y-19838D01*
X44450Y-19838D02*
X44462Y-19838D01*
X41267Y-18500D02*
X42605Y-19838D01*
X44450Y-19838D02*
X45512Y-19838D01*
X46712Y-19338D02*
X47050Y-19000D01*
X46012Y-19338D02*
X46712Y-19338D01*
X45512Y-19838D02*
X46012Y-19338D01*
X47050Y-14000D02*
X44400Y-16650D01*
X43814Y-16650D02*
X44400Y-16650D01*
X43814Y-16650D02*
X43782Y-16618D01*
X47050Y-13000D02*
X46500Y-13550D01*
X46500Y-14320D02*
X46500Y-13550D01*
X44635Y-16185D02*
X46500Y-14320D01*
X43929Y-16185D02*
X44635Y-16185D01*
X43929Y-16185D02*
X43922Y-16178D01*
X48500Y-26482D02*
X48000Y-25982D01*
X48500Y-27150D02*
X48500Y-26482D01*
X48150Y-27500D02*
X48500Y-27150D01*
X45550Y-27500D02*
X48150Y-27500D01*
X45200Y-27150D02*
X45550Y-27500D01*
X47050Y-27000D02*
X45850Y-25800D01*
X45850Y-25800D02*
X45850Y-25400D01*
X45850Y-25400D02*
X45650Y-25200D01*
X47050Y-15000D02*
X46350Y-15000D01*
X44300Y-17050D02*
X46350Y-15000D01*
X44300Y-17050D02*
X43650Y-17050D01*
X22000Y-21000D02*
X22600Y-21000D01*
X22000Y-21000D02*
X21400Y-21000D01*
X22000Y-22000D02*
X22600Y-22000D01*
X22000Y-22000D02*
X21400Y-22000D01*
X20000Y-20000D02*
X20000Y-19400D01*
X20000Y-20000D02*
X20600Y-20000D01*
G54D20*
X49600Y-10800D02*
X49600Y-30200D01*
X49500Y-28600D02*
X49500Y-30400D01*
X49500Y-27300D02*
X49500Y-27400D01*
X49500Y-26300D02*
X49500Y-26700D01*
X49500Y-25300D02*
X49500Y-25700D01*
X49500Y-24300D02*
X49500Y-24700D01*
X49500Y-23300D02*
X49500Y-23700D01*
X49500Y-22300D02*
X49500Y-22700D01*
X49500Y-21300D02*
X49500Y-21700D01*
X49500Y-20300D02*
X49500Y-20700D01*
X49500Y-19300D02*
X49500Y-19700D01*
X49500Y-18300D02*
X49500Y-18700D01*
X49500Y-17300D02*
X49500Y-17700D01*
X49500Y-16300D02*
X49500Y-16700D01*
X49500Y-15300D02*
X49500Y-15700D01*
X49500Y-14300D02*
X49500Y-14700D01*
X49500Y-13300D02*
X49500Y-13700D01*
X49500Y-10600D02*
X49500Y-12700D01*
X49400Y-28600D02*
X49400Y-30500D01*
X49400Y-26400D02*
X49400Y-26600D01*
X49400Y-25400D02*
X49400Y-25600D01*
X49400Y-24400D02*
X49400Y-24600D01*
X49400Y-23400D02*
X49400Y-23600D01*
X49400Y-22400D02*
X49400Y-22600D01*
X49400Y-21400D02*
X49400Y-21600D01*
X49400Y-20400D02*
X49400Y-20600D01*
X49400Y-19400D02*
X49400Y-19600D01*
X49400Y-18400D02*
X49400Y-18600D01*
X49400Y-17400D02*
X49400Y-17600D01*
X49400Y-16400D02*
X49400Y-16600D01*
X49400Y-15400D02*
X49400Y-15600D01*
X49400Y-14400D02*
X49400Y-14600D01*
X49400Y-13400D02*
X49400Y-13600D01*
X49400Y-10500D02*
X49400Y-12600D01*
X49300Y-28600D02*
X49300Y-30500D01*
X49300Y-10500D02*
X49300Y-12500D01*
X49200Y-28600D02*
X49200Y-30600D01*
X49200Y-10400D02*
X49200Y-12400D01*
X49100Y-28600D02*
X49100Y-30600D01*
X49100Y-10400D02*
X49100Y-12400D01*
X49000Y-28600D02*
X49000Y-30600D01*
X49000Y-10400D02*
X49000Y-12400D01*
X48900Y-28600D02*
X48900Y-30600D01*
X48900Y-10400D02*
X48900Y-12400D01*
X48800Y-28600D02*
X48800Y-30600D01*
X48800Y-10400D02*
X48800Y-12400D01*
X48700Y-28600D02*
X48700Y-30600D01*
X48700Y-10400D02*
X48700Y-12500D01*
X48600Y-28600D02*
X48600Y-30600D01*
X48600Y-19400D02*
X48600Y-19600D01*
X48600Y-14400D02*
X48600Y-14600D01*
X48600Y-13400D02*
X48600Y-13600D01*
X48600Y-10400D02*
X48600Y-12600D01*
X48500Y-28900D02*
X48500Y-30600D01*
X48500Y-14300D02*
X48500Y-14400D01*
X48500Y-13300D02*
X48500Y-13700D01*
X48500Y-10400D02*
X48500Y-12700D01*
X48400Y-28900D02*
X48400Y-30600D01*
X48400Y-13400D02*
X48400Y-13600D01*
X48400Y-10400D02*
X48400Y-12600D01*
X48300Y-28900D02*
X48300Y-30600D01*
X48300Y-10400D02*
X48300Y-12500D01*
X48200Y-28900D02*
X48200Y-30600D01*
X48200Y-10400D02*
X48200Y-12400D01*
X48100Y-28900D02*
X48100Y-30600D01*
X48100Y-10400D02*
X48100Y-12400D01*
X48000Y-28900D02*
X48000Y-30600D01*
X48000Y-10400D02*
X48000Y-12400D01*
X47900Y-28900D02*
X47900Y-30600D01*
X47900Y-10400D02*
X47900Y-12400D01*
X47800Y-28900D02*
X47800Y-30600D01*
X47800Y-10400D02*
X47800Y-12400D01*
X47700Y-28900D02*
X47700Y-30600D01*
X47700Y-10400D02*
X47700Y-12500D01*
X47600Y-28900D02*
X47600Y-30600D01*
X47600Y-13400D02*
X47600Y-13600D01*
X47600Y-10400D02*
X47600Y-12600D01*
X47500Y-28900D02*
X47500Y-30600D01*
X47500Y-10400D02*
X47500Y-12300D01*
X47400Y-28900D02*
X47400Y-30600D01*
X47400Y-10400D02*
X47400Y-12300D01*
X47300Y-28900D02*
X47300Y-30600D01*
X47300Y-10400D02*
X47300Y-12300D01*
X47200Y-28900D02*
X47200Y-30600D01*
X47200Y-10400D02*
X47200Y-12300D01*
X47100Y-28900D02*
X47100Y-30600D01*
X47100Y-10400D02*
X47100Y-12300D01*
X47000Y-28900D02*
X47000Y-30600D01*
X47000Y-10400D02*
X47000Y-12300D01*
X46900Y-28900D02*
X46900Y-30600D01*
X46900Y-10400D02*
X46900Y-12300D01*
X46800Y-28900D02*
X46800Y-30600D01*
X46800Y-10400D02*
X46800Y-12300D01*
X46700Y-28900D02*
X46700Y-30600D01*
X46700Y-10400D02*
X46700Y-12300D01*
X46600Y-28900D02*
X46600Y-30600D01*
X46600Y-10400D02*
X46600Y-12300D01*
X46500Y-28900D02*
X46500Y-29400D01*
X46500Y-11600D02*
X46500Y-12300D01*
X46400Y-28900D02*
X46400Y-29400D01*
X46400Y-11600D02*
X46400Y-12300D01*
X46300Y-28900D02*
X46300Y-29400D01*
X46300Y-11600D02*
X46300Y-12300D01*
X46200Y-28900D02*
X46200Y-29400D01*
X46200Y-11600D02*
X46200Y-12300D01*
X46100Y-28900D02*
X46100Y-29400D01*
X46100Y-11600D02*
X46100Y-12300D01*
X46000Y-28800D02*
X46000Y-29400D01*
X46000Y-11600D02*
X46000Y-12300D01*
X45900Y-28700D02*
X45900Y-29400D01*
X45900Y-11600D02*
X45900Y-12300D01*
X45800Y-28600D02*
X45800Y-29400D01*
X45800Y-11600D02*
X45800Y-12300D01*
X45700Y-28500D02*
X45700Y-29400D01*
X45700Y-11600D02*
X45700Y-12300D01*
X45600Y-28400D02*
X45600Y-29400D01*
X45600Y-11600D02*
X45600Y-12300D01*
X45500Y-28300D02*
X45500Y-29400D01*
X45400Y-30400D02*
X45400Y-30600D01*
X45400Y-28200D02*
X45400Y-29600D01*
X45300Y-30500D02*
X45300Y-30600D01*
X45300Y-28100D02*
X45300Y-29500D01*
X45200Y-28000D02*
X45200Y-29400D01*
X45100Y-27900D02*
X45100Y-29400D01*
X45000Y-27800D02*
X45000Y-29400D01*
X44900Y-27700D02*
X44900Y-29400D01*
X44800Y-27600D02*
X44800Y-29400D01*
X44700Y-30500D02*
X44700Y-30600D01*
X44700Y-27500D02*
X44700Y-29500D01*
X44600Y-30400D02*
X44600Y-30600D01*
X44600Y-27400D02*
X44600Y-29600D01*
X44500Y-30300D02*
X44500Y-30600D01*
X44500Y-27300D02*
X44500Y-29700D01*
X44400Y-30400D02*
X44400Y-30600D01*
X44400Y-27200D02*
X44400Y-29600D01*
X44300Y-30500D02*
X44300Y-30600D01*
X44300Y-27100D02*
X44300Y-29500D01*
X44200Y-27000D02*
X44200Y-29400D01*
X44100Y-26900D02*
X44100Y-29400D01*
X44000Y-26800D02*
X44000Y-29400D01*
X43900Y-26700D02*
X43900Y-29400D01*
X43800Y-26600D02*
X43800Y-29400D01*
X43700Y-30500D02*
X43700Y-30600D01*
X43700Y-26500D02*
X43700Y-29500D01*
X43600Y-30400D02*
X43600Y-30600D01*
X43600Y-26400D02*
X43600Y-29600D01*
X43500Y-30300D02*
X43500Y-30600D01*
X43500Y-26300D02*
X43500Y-29700D01*
X43400Y-30400D02*
X43400Y-30600D01*
X43400Y-26200D02*
X43400Y-29600D01*
X43300Y-30500D02*
X43300Y-30600D01*
X43300Y-26100D02*
X43300Y-29500D01*
X43200Y-26000D02*
X43200Y-29400D01*
X43100Y-25900D02*
X43100Y-29400D01*
X43000Y-25800D02*
X43000Y-29400D01*
X42900Y-25700D02*
X42900Y-29400D01*
X42800Y-25600D02*
X42800Y-29400D01*
X42700Y-30500D02*
X42700Y-30600D01*
X42700Y-25500D02*
X42700Y-29500D01*
X42600Y-30400D02*
X42600Y-30600D01*
X42600Y-25400D02*
X42600Y-29600D01*
X42500Y-30300D02*
X42500Y-30600D01*
X42500Y-25400D02*
X42500Y-29700D01*
X42400Y-30400D02*
X42400Y-30600D01*
X42400Y-25400D02*
X42400Y-29600D01*
X42300Y-30500D02*
X42300Y-30600D01*
X42300Y-25400D02*
X42300Y-29500D01*
X42200Y-25400D02*
X42200Y-29400D01*
X42100Y-25400D02*
X42100Y-29400D01*
X42000Y-25400D02*
X42000Y-29400D01*
X41900Y-25400D02*
X41900Y-29400D01*
X41800Y-25400D02*
X41800Y-29400D01*
X41700Y-30500D02*
X41700Y-30600D01*
X41700Y-25400D02*
X41700Y-29500D01*
X41600Y-30400D02*
X41600Y-30600D01*
X41600Y-25400D02*
X41600Y-29600D01*
X41500Y-30300D02*
X41500Y-30600D01*
X41500Y-27600D02*
X41500Y-29700D01*
X41500Y-25400D02*
X41500Y-27100D01*
X41400Y-30400D02*
X41400Y-30600D01*
X41400Y-27700D02*
X41400Y-29600D01*
X41400Y-25400D02*
X41400Y-27000D01*
X41300Y-30500D02*
X41300Y-30600D01*
X41300Y-27800D02*
X41300Y-29500D01*
X41300Y-25400D02*
X41300Y-26900D01*
X41200Y-27800D02*
X41200Y-29400D01*
X41200Y-25400D02*
X41200Y-26900D01*
X41100Y-27800D02*
X41100Y-29400D01*
X41100Y-25400D02*
X41100Y-26900D01*
X41000Y-27800D02*
X41000Y-29400D01*
X41000Y-25400D02*
X41000Y-26900D01*
X40900Y-27700D02*
X40900Y-29400D01*
X40900Y-25400D02*
X40900Y-27000D01*
X40800Y-27600D02*
X40800Y-29400D01*
X40800Y-25400D02*
X40800Y-27100D01*
X40700Y-30500D02*
X40700Y-30600D01*
X40700Y-25400D02*
X40700Y-29500D01*
X40600Y-30400D02*
X40600Y-30600D01*
X40600Y-25400D02*
X40600Y-29600D01*
X40500Y-30300D02*
X40500Y-30600D01*
X40500Y-25400D02*
X40500Y-29700D01*
X40400Y-30400D02*
X40400Y-30600D01*
X40400Y-25400D02*
X40400Y-29600D01*
X40300Y-30500D02*
X40300Y-30600D01*
X40300Y-25400D02*
X40300Y-29500D01*
X40200Y-25400D02*
X40200Y-29400D01*
X40100Y-27900D02*
X40100Y-29400D01*
X40100Y-25400D02*
X40100Y-27400D01*
X40000Y-28000D02*
X40000Y-29400D01*
X40000Y-25400D02*
X40000Y-27300D01*
X39900Y-28100D02*
X39900Y-29400D01*
X39900Y-25400D02*
X39900Y-27200D01*
X39800Y-28100D02*
X39800Y-29400D01*
X39800Y-25400D02*
X39800Y-27200D01*
X39700Y-30500D02*
X39700Y-30600D01*
X39700Y-28100D02*
X39700Y-29500D01*
X39700Y-25400D02*
X39700Y-27200D01*
X39600Y-30400D02*
X39600Y-30600D01*
X39600Y-28100D02*
X39600Y-29600D01*
X39600Y-25400D02*
X39600Y-27200D01*
X39500Y-30300D02*
X39500Y-30600D01*
X39500Y-28000D02*
X39500Y-29700D01*
X39500Y-25400D02*
X39500Y-27300D01*
X39400Y-30400D02*
X39400Y-30600D01*
X39400Y-27900D02*
X39400Y-29600D01*
X39400Y-25500D02*
X39400Y-27400D01*
X39300Y-30500D02*
X39300Y-30600D01*
X39300Y-25500D02*
X39300Y-29500D01*
X39200Y-25500D02*
X39200Y-29400D01*
X39100Y-25500D02*
X39100Y-29400D01*
X39000Y-25400D02*
X39000Y-29400D01*
X38900Y-25500D02*
X38900Y-29400D01*
X38800Y-25500D02*
X38800Y-29400D01*
X38700Y-30500D02*
X38700Y-30600D01*
X38700Y-28200D02*
X38700Y-29500D01*
X38700Y-25500D02*
X38700Y-27800D01*
X38600Y-30400D02*
X38600Y-30600D01*
X38600Y-28300D02*
X38600Y-29600D01*
X38600Y-25500D02*
X38600Y-27700D01*
X38500Y-30300D02*
X38500Y-30600D01*
X38500Y-28400D02*
X38500Y-29700D01*
X38500Y-25400D02*
X38500Y-27600D01*
X38400Y-30400D02*
X38400Y-30600D01*
X38400Y-28400D02*
X38400Y-29600D01*
X38400Y-25400D02*
X38400Y-27600D01*
X38300Y-30500D02*
X38300Y-30600D01*
X38300Y-28400D02*
X38300Y-29500D01*
X38300Y-25700D02*
X38300Y-27600D01*
X38200Y-28400D02*
X38200Y-29400D01*
X38200Y-25800D02*
X38200Y-27600D01*
X38100Y-28300D02*
X38100Y-29400D01*
X38100Y-25900D02*
X38100Y-27700D01*
X38000Y-28200D02*
X38000Y-29400D01*
X38000Y-25900D02*
X38000Y-27800D01*
X37900Y-25900D02*
X37900Y-29400D01*
X37800Y-25900D02*
X37800Y-29400D01*
X37700Y-30500D02*
X37700Y-30600D01*
X37700Y-25800D02*
X37700Y-29500D01*
X37600Y-30400D02*
X37600Y-30600D01*
X37600Y-28600D02*
X37600Y-29600D01*
X37600Y-25700D02*
X37600Y-28200D01*
X37500Y-30300D02*
X37500Y-30600D01*
X37500Y-28700D02*
X37500Y-29700D01*
X37500Y-25400D02*
X37500Y-28100D01*
X37400Y-30400D02*
X37400Y-30600D01*
X37400Y-28800D02*
X37400Y-29600D01*
X37400Y-27700D02*
X37400Y-28000D01*
X37300Y-30500D02*
X37300Y-30600D01*
X37300Y-29000D02*
X37300Y-29500D01*
X37300Y-27700D02*
X37300Y-28000D01*
X37200Y-29100D02*
X37200Y-29400D01*
X37200Y-27700D02*
X37200Y-28000D01*
X37100Y-29100D02*
X37100Y-29400D01*
X37100Y-27700D02*
X37100Y-28000D01*
X37000Y-29100D02*
X37000Y-29400D01*
X37000Y-27700D02*
X37000Y-28100D01*
X36900Y-29100D02*
X36900Y-29400D01*
X36900Y-27700D02*
X36900Y-28200D01*
X36800Y-29100D02*
X36800Y-29400D01*
X36800Y-27700D02*
X36800Y-28300D01*
X36700Y-30500D02*
X36700Y-30600D01*
X36700Y-29000D02*
X36700Y-29500D01*
X36700Y-27700D02*
X36700Y-28400D01*
X36600Y-30400D02*
X36600Y-30600D01*
X36600Y-27700D02*
X36600Y-29600D01*
X36500Y-30300D02*
X36500Y-30600D01*
X36500Y-27700D02*
X36500Y-29700D01*
X36400Y-30400D02*
X36400Y-30600D01*
X36400Y-27700D02*
X36400Y-29600D01*
X36300Y-30500D02*
X36300Y-30600D01*
X36300Y-27700D02*
X36300Y-29500D01*
X36200Y-27700D02*
X36200Y-29400D01*
X36100Y-27700D02*
X36100Y-29400D01*
X36000Y-27700D02*
X36000Y-29400D01*
X35900Y-27700D02*
X35900Y-29400D01*
X35800Y-27700D02*
X35800Y-29400D01*
X35700Y-30500D02*
X35700Y-30600D01*
X35700Y-27700D02*
X35700Y-29500D01*
X35600Y-30400D02*
X35600Y-30600D01*
X35600Y-27700D02*
X35600Y-29600D01*
X35500Y-30300D02*
X35500Y-30600D01*
X35500Y-27700D02*
X35500Y-29700D01*
X35400Y-30400D02*
X35400Y-30600D01*
X35400Y-27700D02*
X35400Y-29600D01*
X35400Y-11400D02*
X35400Y-12100D01*
X35400Y-10400D02*
X35400Y-10600D01*
X35300Y-30500D02*
X35300Y-30600D01*
X35300Y-27700D02*
X35300Y-29500D01*
X35300Y-11500D02*
X35300Y-12200D01*
X35300Y-10400D02*
X35300Y-10500D01*
X35200Y-27700D02*
X35200Y-29400D01*
X35200Y-11600D02*
X35200Y-12300D01*
X35100Y-27700D02*
X35100Y-29400D01*
X35100Y-11600D02*
X35100Y-12400D01*
X35000Y-27700D02*
X35000Y-29400D01*
X35000Y-11600D02*
X35000Y-12500D01*
X34900Y-27700D02*
X34900Y-29400D01*
X34900Y-11600D02*
X34900Y-12600D01*
X34800Y-27700D02*
X34800Y-29400D01*
X34800Y-11600D02*
X34800Y-12700D01*
X34700Y-30500D02*
X34700Y-30600D01*
X34700Y-27700D02*
X34700Y-29500D01*
X34700Y-11500D02*
X34700Y-12800D01*
X34700Y-10400D02*
X34700Y-10500D01*
X34600Y-30400D02*
X34600Y-30600D01*
X34600Y-27700D02*
X34600Y-29600D01*
X34600Y-11400D02*
X34600Y-12900D01*
X34600Y-10400D02*
X34600Y-10600D01*
X34500Y-30300D02*
X34500Y-30600D01*
X34500Y-27700D02*
X34500Y-29700D01*
X34500Y-16500D02*
X34500Y-19100D01*
X34500Y-11300D02*
X34500Y-15600D01*
X34500Y-10400D02*
X34500Y-10700D01*
X34400Y-30400D02*
X34400Y-30600D01*
X34400Y-27700D02*
X34400Y-29600D01*
X34400Y-21000D02*
X34400Y-21400D01*
X34400Y-16500D02*
X34400Y-19100D01*
X34400Y-11400D02*
X34400Y-15600D01*
X34400Y-10400D02*
X34400Y-10600D01*
X34300Y-30500D02*
X34300Y-30600D01*
X34300Y-27700D02*
X34300Y-29500D01*
X34300Y-20400D02*
X34300Y-21500D01*
X34300Y-16400D02*
X34300Y-19100D01*
X34300Y-11500D02*
X34300Y-15700D01*
X34300Y-10400D02*
X34300Y-10500D01*
X34200Y-27700D02*
X34200Y-29400D01*
X34200Y-20500D02*
X34200Y-21600D01*
X34200Y-18900D02*
X34200Y-19000D01*
X34200Y-16300D02*
X34200Y-18400D01*
X34200Y-15000D02*
X34200Y-15800D01*
X34200Y-11600D02*
X34200Y-14600D01*
X34100Y-27700D02*
X34100Y-29400D01*
X34100Y-20600D02*
X34100Y-21700D01*
X34100Y-15100D02*
X34100Y-17800D01*
X34100Y-11600D02*
X34100Y-14500D01*
X34000Y-27700D02*
X34000Y-29400D01*
X34000Y-20700D02*
X34000Y-21800D01*
X34000Y-15500D02*
X34000Y-17700D01*
X34000Y-11600D02*
X34000Y-14400D01*
X33900Y-27700D02*
X33900Y-29400D01*
X33900Y-20700D02*
X33900Y-21900D01*
X33900Y-15600D02*
X33900Y-17400D01*
X33900Y-11600D02*
X33900Y-14400D01*
X33800Y-29300D02*
X33800Y-29400D01*
X33800Y-27700D02*
X33800Y-28900D01*
X33800Y-20700D02*
X33800Y-22000D01*
X33800Y-15700D02*
X33800Y-17300D01*
X33800Y-11600D02*
X33800Y-14400D01*
X33700Y-30500D02*
X33700Y-30600D01*
X33700Y-29400D02*
X33700Y-29500D01*
X33700Y-27700D02*
X33700Y-28800D01*
X33700Y-20600D02*
X33700Y-22100D01*
X33700Y-19700D02*
X33700Y-19900D01*
X33700Y-15700D02*
X33700Y-17300D01*
X33700Y-11500D02*
X33700Y-14400D01*
X33700Y-10400D02*
X33700Y-10500D01*
X33600Y-30400D02*
X33600Y-30600D01*
X33600Y-29500D02*
X33600Y-29600D01*
X33600Y-27700D02*
X33600Y-28700D01*
X33600Y-20500D02*
X33600Y-22200D01*
X33600Y-19600D02*
X33600Y-20000D01*
X33600Y-19000D02*
X33600Y-19100D01*
X33600Y-16200D02*
X33600Y-17300D01*
X33600Y-11400D02*
X33600Y-14500D01*
X33600Y-10400D02*
X33600Y-10600D01*
X33500Y-30300D02*
X33500Y-30600D01*
X33500Y-29500D02*
X33500Y-29700D01*
X33500Y-27700D02*
X33500Y-28700D01*
X33500Y-18900D02*
X33500Y-22200D01*
X33500Y-16300D02*
X33500Y-17300D01*
X33500Y-11300D02*
X33500Y-14600D01*
X33500Y-10400D02*
X33500Y-10700D01*
X33400Y-30400D02*
X33400Y-30600D01*
X33400Y-29500D02*
X33400Y-29600D01*
X33400Y-27700D02*
X33400Y-28700D01*
X33400Y-18700D02*
X33400Y-22100D01*
X33400Y-16400D02*
X33400Y-17300D01*
X33400Y-11400D02*
X33400Y-15000D01*
X33400Y-10400D02*
X33400Y-10600D01*
X33300Y-30500D02*
X33300Y-30600D01*
X33300Y-27700D02*
X33300Y-28700D01*
X33300Y-18600D02*
X33300Y-22100D01*
X33300Y-18000D02*
X33300Y-18100D01*
X33300Y-16400D02*
X33300Y-17400D01*
X33300Y-11500D02*
X33300Y-15500D01*
X33300Y-10400D02*
X33300Y-10500D01*
X33200Y-27700D02*
X33200Y-28800D01*
X33200Y-16400D02*
X33200Y-22100D01*
X33200Y-11600D02*
X33200Y-15500D01*
X33100Y-27700D02*
X33100Y-28800D01*
X33100Y-16400D02*
X33100Y-22100D01*
X33100Y-11600D02*
X33100Y-15500D01*
X33000Y-27700D02*
X33000Y-28800D01*
X33000Y-16300D02*
X33000Y-22100D01*
X33000Y-11600D02*
X33000Y-15600D01*
X32900Y-27700D02*
X32900Y-28900D01*
X32900Y-16200D02*
X32900Y-22200D01*
X32900Y-11600D02*
X32900Y-15700D01*
X32800Y-27700D02*
X32800Y-28900D01*
X32800Y-11600D02*
X32800Y-22200D01*
X32700Y-30500D02*
X32700Y-30600D01*
X32700Y-27700D02*
X32700Y-28800D01*
X32700Y-11500D02*
X32700Y-22200D01*
X32700Y-10400D02*
X32700Y-10500D01*
X32600Y-30400D02*
X32600Y-30600D01*
X32600Y-27700D02*
X32600Y-28700D01*
X32600Y-11400D02*
X32600Y-22200D01*
X32600Y-10400D02*
X32600Y-10600D01*
X32500Y-30300D02*
X32500Y-30600D01*
X32500Y-27700D02*
X32500Y-28700D01*
X32500Y-14800D02*
X32500Y-22200D01*
X32500Y-11300D02*
X32500Y-14300D01*
X32500Y-10400D02*
X32500Y-10700D01*
X32400Y-30400D02*
X32400Y-30600D01*
X32400Y-27700D02*
X32400Y-28700D01*
X32400Y-14900D02*
X32400Y-22200D01*
X32400Y-11400D02*
X32400Y-14200D01*
X32400Y-10400D02*
X32400Y-10600D01*
X32300Y-30500D02*
X32300Y-30600D01*
X32300Y-27700D02*
X32300Y-28700D01*
X32300Y-18900D02*
X32300Y-22200D01*
X32300Y-15000D02*
X32300Y-18100D01*
X32300Y-12600D02*
X32300Y-14100D01*
X32300Y-11500D02*
X32300Y-12000D01*
X32300Y-10400D02*
X32300Y-10500D01*
X32200Y-27700D02*
X32200Y-28800D01*
X32200Y-21100D02*
X32200Y-22200D01*
X32200Y-20300D02*
X32200Y-20600D01*
X32200Y-19000D02*
X32200Y-19800D01*
X32200Y-15200D02*
X32200Y-18000D01*
X32200Y-13100D02*
X32200Y-14100D01*
X32200Y-11600D02*
X32200Y-11900D01*
X32100Y-27700D02*
X32100Y-28900D01*
X32100Y-21700D02*
X32100Y-21900D01*
X32100Y-20400D02*
X32100Y-20500D01*
X32100Y-19100D02*
X32100Y-19700D01*
X32100Y-15300D02*
X32100Y-17900D01*
X32100Y-13200D02*
X32100Y-14100D01*
X32100Y-11600D02*
X32100Y-11900D01*
X32000Y-27700D02*
X32000Y-29100D01*
X32000Y-19100D02*
X32000Y-19600D01*
X32000Y-15400D02*
X32000Y-17900D01*
X32000Y-13300D02*
X32000Y-14100D01*
X32000Y-11600D02*
X32000Y-11900D01*
X31900Y-27700D02*
X31900Y-29200D01*
X31900Y-19400D02*
X31900Y-19600D01*
X31900Y-15400D02*
X31900Y-17800D01*
X31900Y-13400D02*
X31900Y-14200D01*
X31900Y-11600D02*
X31900Y-11900D01*
X31800Y-27700D02*
X31800Y-29400D01*
X31800Y-23800D02*
X31800Y-24100D01*
X31800Y-22600D02*
X31800Y-22900D01*
X31800Y-15400D02*
X31800Y-17700D01*
X31800Y-13500D02*
X31800Y-14200D01*
X31800Y-11600D02*
X31800Y-11900D01*
X31700Y-30500D02*
X31700Y-30600D01*
X31700Y-27700D02*
X31700Y-29500D01*
X31700Y-23800D02*
X31700Y-24100D01*
X31700Y-22600D02*
X31700Y-22900D01*
X31700Y-15400D02*
X31700Y-17700D01*
X31700Y-13600D02*
X31700Y-14100D01*
X31700Y-11500D02*
X31700Y-12000D01*
X31700Y-10400D02*
X31700Y-10500D01*
X31600Y-30400D02*
X31600Y-30600D01*
X31600Y-27700D02*
X31600Y-29600D01*
X31600Y-23800D02*
X31600Y-24100D01*
X31600Y-22600D02*
X31600Y-22900D01*
X31600Y-15300D02*
X31600Y-17600D01*
X31600Y-13800D02*
X31600Y-14000D01*
X31600Y-11400D02*
X31600Y-12600D01*
X31600Y-10400D02*
X31600Y-10600D01*
X31500Y-30300D02*
X31500Y-30600D01*
X31500Y-27700D02*
X31500Y-29700D01*
X31500Y-23800D02*
X31500Y-24100D01*
X31500Y-22600D02*
X31500Y-22900D01*
X31500Y-18600D02*
X31500Y-18700D01*
X31500Y-15200D02*
X31500Y-17500D01*
X31500Y-13900D02*
X31500Y-14000D01*
X31500Y-11300D02*
X31500Y-12700D01*
X31500Y-10400D02*
X31500Y-10700D01*
X31400Y-30400D02*
X31400Y-30600D01*
X31400Y-27700D02*
X31400Y-29600D01*
X31400Y-23700D02*
X31400Y-24100D01*
X31400Y-22600D02*
X31400Y-23000D01*
X31400Y-18500D02*
X31400Y-18700D01*
X31400Y-14800D02*
X31400Y-17500D01*
X31400Y-13900D02*
X31400Y-14000D01*
X31400Y-11400D02*
X31400Y-12700D01*
X31400Y-10400D02*
X31400Y-10600D01*
X31300Y-30500D02*
X31300Y-30600D01*
X31300Y-27700D02*
X31300Y-29500D01*
X31300Y-23600D02*
X31300Y-24100D01*
X31300Y-22600D02*
X31300Y-23100D01*
X31300Y-18400D02*
X31300Y-18800D01*
X31300Y-14800D02*
X31300Y-17400D01*
X31300Y-13900D02*
X31300Y-14000D01*
X31300Y-12600D02*
X31300Y-12800D01*
X31300Y-11500D02*
X31300Y-12000D01*
X31300Y-10400D02*
X31300Y-10500D01*
X31200Y-27700D02*
X31200Y-29400D01*
X31200Y-22600D02*
X31200Y-24100D01*
X31200Y-18400D02*
X31200Y-18900D01*
X31200Y-14900D02*
X31200Y-17300D01*
X31200Y-13900D02*
X31200Y-14100D01*
X31200Y-12700D02*
X31200Y-12900D01*
X31200Y-11600D02*
X31200Y-11900D01*
X31100Y-27700D02*
X31100Y-29400D01*
X31100Y-22500D02*
X31100Y-24100D01*
X31100Y-19800D02*
X31100Y-19900D01*
X31100Y-18300D02*
X31100Y-19100D01*
X31100Y-15000D02*
X31100Y-17300D01*
X31100Y-13900D02*
X31100Y-14000D01*
X31100Y-12700D02*
X31100Y-13100D01*
X31100Y-11600D02*
X31100Y-11900D01*
X31000Y-27700D02*
X31000Y-29400D01*
X31000Y-22400D02*
X31000Y-24100D01*
X31000Y-21800D02*
X31000Y-21900D01*
X31000Y-20800D02*
X31000Y-21400D01*
X31000Y-19700D02*
X31000Y-20300D01*
X31000Y-18200D02*
X31000Y-19200D01*
X31000Y-15000D02*
X31000Y-16500D01*
X31000Y-13800D02*
X31000Y-13900D01*
X31000Y-12700D02*
X31000Y-13200D01*
X31000Y-11600D02*
X31000Y-11900D01*
X30900Y-27700D02*
X30900Y-29400D01*
X30900Y-18200D02*
X30900Y-24100D01*
X30900Y-15000D02*
X30900Y-16400D01*
X30900Y-12700D02*
X30900Y-13800D01*
X30900Y-11600D02*
X30900Y-11900D01*
X30800Y-27700D02*
X30800Y-29400D01*
X30800Y-23700D02*
X30800Y-24100D01*
X30800Y-18100D02*
X30800Y-23100D01*
X30800Y-14900D02*
X30800Y-16300D01*
X30800Y-12700D02*
X30800Y-13800D01*
X30800Y-11600D02*
X30800Y-11900D01*
X30700Y-30500D02*
X30700Y-30600D01*
X30700Y-27700D02*
X30700Y-29500D01*
X30700Y-23800D02*
X30700Y-24100D01*
X30700Y-18000D02*
X30700Y-23000D01*
X30700Y-15000D02*
X30700Y-16300D01*
X30700Y-12600D02*
X30700Y-13800D01*
X30700Y-11500D02*
X30700Y-12000D01*
X30700Y-10400D02*
X30700Y-10500D01*
X30600Y-30400D02*
X30600Y-30600D01*
X30600Y-27700D02*
X30600Y-29600D01*
X30600Y-23800D02*
X30600Y-24100D01*
X30600Y-17900D02*
X30600Y-21900D01*
X30600Y-15000D02*
X30600Y-16300D01*
X30600Y-11400D02*
X30600Y-13900D01*
X30600Y-10400D02*
X30600Y-10600D01*
X30500Y-30300D02*
X30500Y-30600D01*
X30500Y-27700D02*
X30500Y-29700D01*
X30500Y-23800D02*
X30500Y-24100D01*
X30500Y-17800D02*
X30500Y-21800D01*
X30500Y-15000D02*
X30500Y-16400D01*
X30500Y-11300D02*
X30500Y-14000D01*
X30500Y-10400D02*
X30500Y-10700D01*
X30400Y-30400D02*
X30400Y-30600D01*
X30400Y-27700D02*
X30400Y-29600D01*
X30400Y-23800D02*
X30400Y-24100D01*
X30400Y-17700D02*
X30400Y-21700D01*
X30400Y-14900D02*
X30400Y-16500D01*
X30400Y-11400D02*
X30400Y-14200D01*
X30400Y-10400D02*
X30400Y-10600D01*
X30300Y-30500D02*
X30300Y-30600D01*
X30300Y-27700D02*
X30300Y-29500D01*
X30300Y-23800D02*
X30300Y-24100D01*
X30300Y-14800D02*
X30300Y-21700D01*
X30300Y-12600D02*
X30300Y-14300D01*
X30300Y-11500D02*
X30300Y-12000D01*
X30300Y-10400D02*
X30300Y-10500D01*
X30200Y-27700D02*
X30200Y-29400D01*
X30200Y-23700D02*
X30200Y-24100D01*
X30200Y-12700D02*
X30200Y-21700D01*
X30200Y-11600D02*
X30200Y-11900D01*
X30100Y-27700D02*
X30100Y-29400D01*
X30100Y-23300D02*
X30100Y-24100D01*
X30100Y-12700D02*
X30100Y-21800D01*
X30100Y-11600D02*
X30100Y-11900D01*
X30000Y-27100D02*
X30000Y-29400D01*
X30000Y-23200D02*
X30000Y-25800D01*
X30000Y-12700D02*
X30000Y-21900D01*
X30000Y-11600D02*
X30000Y-11900D01*
X29900Y-27100D02*
X29900Y-29400D01*
X29900Y-12700D02*
X29900Y-25800D01*
X29900Y-11600D02*
X29900Y-11900D01*
X29800Y-27100D02*
X29800Y-29400D01*
X29800Y-21900D02*
X29800Y-25800D01*
X29800Y-12700D02*
X29800Y-21400D01*
X29800Y-11600D02*
X29800Y-11900D01*
X29700Y-30500D02*
X29700Y-30600D01*
X29700Y-27100D02*
X29700Y-29500D01*
X29700Y-24400D02*
X29700Y-25800D01*
X29700Y-22000D02*
X29700Y-24000D01*
X29700Y-12600D02*
X29700Y-21000D01*
X29700Y-11500D02*
X29700Y-12000D01*
X29700Y-10400D02*
X29700Y-10500D01*
X29600Y-30400D02*
X29600Y-30600D01*
X29600Y-27100D02*
X29600Y-29600D01*
X29600Y-24500D02*
X29600Y-25900D01*
X29600Y-22400D02*
X29600Y-23900D01*
X29600Y-11400D02*
X29600Y-20900D01*
X29600Y-10400D02*
X29600Y-10600D01*
X29500Y-30300D02*
X29500Y-30600D01*
X29500Y-27100D02*
X29500Y-29700D01*
X29500Y-24600D02*
X29500Y-26100D01*
X29500Y-22500D02*
X29500Y-23600D01*
X29500Y-18500D02*
X29500Y-20800D01*
X29500Y-15000D02*
X29500Y-17900D01*
X29500Y-11300D02*
X29500Y-14400D01*
X29500Y-10400D02*
X29500Y-10700D01*
X29400Y-30400D02*
X29400Y-30600D01*
X29400Y-27100D02*
X29400Y-29600D01*
X29400Y-24600D02*
X29400Y-26100D01*
X29400Y-22500D02*
X29400Y-23500D01*
X29400Y-18600D02*
X29400Y-20800D01*
X29400Y-15100D02*
X29400Y-17800D01*
X29400Y-11400D02*
X29400Y-14000D01*
X29400Y-10400D02*
X29400Y-10600D01*
X29300Y-30500D02*
X29300Y-30600D01*
X29300Y-27100D02*
X29300Y-29500D01*
X29300Y-24600D02*
X29300Y-26100D01*
X29300Y-22500D02*
X29300Y-23400D01*
X29300Y-18600D02*
X29300Y-20800D01*
X29300Y-15100D02*
X29300Y-17800D01*
X29300Y-12600D02*
X29300Y-13900D01*
X29300Y-11500D02*
X29300Y-12000D01*
X29300Y-10400D02*
X29300Y-10500D01*
X29200Y-27100D02*
X29200Y-29400D01*
X29200Y-24600D02*
X29200Y-26100D01*
X29200Y-22500D02*
X29200Y-23400D01*
X29200Y-18600D02*
X29200Y-20800D01*
X29200Y-15100D02*
X29200Y-17800D01*
X29200Y-12700D02*
X29200Y-13800D01*
X29200Y-11600D02*
X29200Y-11900D01*
X29100Y-27100D02*
X29100Y-29400D01*
X29100Y-24500D02*
X29100Y-26100D01*
X29100Y-22500D02*
X29100Y-23400D01*
X29100Y-18600D02*
X29100Y-20900D01*
X29100Y-15100D02*
X29100Y-17800D01*
X29100Y-12700D02*
X29100Y-13800D01*
X29100Y-11600D02*
X29100Y-11900D01*
X29000Y-27100D02*
X29000Y-29400D01*
X29000Y-24400D02*
X29000Y-26100D01*
X29000Y-22400D02*
X29000Y-23400D01*
X29000Y-21400D02*
X29000Y-21800D01*
X29000Y-18600D02*
X29000Y-21000D01*
X29000Y-15100D02*
X29000Y-17800D01*
X29000Y-12900D02*
X29000Y-13800D01*
X29000Y-11600D02*
X29000Y-11900D01*
X28900Y-27100D02*
X28900Y-29400D01*
X28900Y-24200D02*
X28900Y-26100D01*
X28900Y-18500D02*
X28900Y-23500D01*
X28900Y-15000D02*
X28900Y-17900D01*
X28900Y-13000D02*
X28900Y-13900D01*
X28900Y-11600D02*
X28900Y-11900D01*
X28800Y-27100D02*
X28800Y-29400D01*
X28800Y-24100D02*
X28800Y-26100D01*
X28800Y-14500D02*
X28800Y-23600D01*
X28800Y-13100D02*
X28800Y-14000D01*
X28800Y-11600D02*
X28800Y-11900D01*
X28700Y-30500D02*
X28700Y-30600D01*
X28700Y-27100D02*
X28700Y-29500D01*
X28700Y-15600D02*
X28700Y-26100D01*
X28700Y-13200D02*
X28700Y-15100D01*
X28700Y-11500D02*
X28700Y-12000D01*
X28700Y-10400D02*
X28700Y-10500D01*
X28600Y-30400D02*
X28600Y-30600D01*
X28600Y-27100D02*
X28600Y-29600D01*
X28600Y-15700D02*
X28600Y-26100D01*
X28600Y-11400D02*
X28600Y-12200D01*
X28600Y-10400D02*
X28600Y-10600D01*
X28500Y-30300D02*
X28500Y-30600D01*
X28500Y-27100D02*
X28500Y-29700D01*
X28500Y-15800D02*
X28500Y-26100D01*
X28500Y-11300D02*
X28500Y-12200D01*
X28500Y-10400D02*
X28500Y-10700D01*
X28400Y-30400D02*
X28400Y-30600D01*
X28400Y-27100D02*
X28400Y-29600D01*
X28400Y-24000D02*
X28400Y-26100D01*
X28400Y-21800D02*
X28400Y-23100D01*
X28400Y-20400D02*
X28400Y-21400D01*
X28400Y-18400D02*
X28400Y-20000D01*
X28400Y-17500D02*
X28400Y-17900D01*
X28400Y-15800D02*
X28400Y-16900D01*
X28400Y-11400D02*
X28400Y-12300D01*
X28400Y-10400D02*
X28400Y-10600D01*
X28300Y-30500D02*
X28300Y-30600D01*
X28300Y-27100D02*
X28300Y-29500D01*
X28300Y-24100D02*
X28300Y-26100D01*
X28300Y-18500D02*
X28300Y-19900D01*
X28300Y-17600D02*
X28300Y-17800D01*
X28300Y-15800D02*
X28300Y-16800D01*
X28300Y-11500D02*
X28300Y-12400D01*
X28300Y-10400D02*
X28300Y-10500D01*
X28200Y-27100D02*
X28200Y-29400D01*
X28200Y-24100D02*
X28200Y-26100D01*
X28200Y-18600D02*
X28200Y-19800D01*
X28200Y-17600D02*
X28200Y-17700D01*
X28200Y-15800D02*
X28200Y-16800D01*
X28200Y-11600D02*
X28200Y-12500D01*
X28100Y-27100D02*
X28100Y-29400D01*
X28100Y-24100D02*
X28100Y-26100D01*
X28100Y-18600D02*
X28100Y-19800D01*
X28100Y-17600D02*
X28100Y-17700D01*
X28100Y-15700D02*
X28100Y-16800D01*
X28100Y-11600D02*
X28100Y-12600D01*
X28000Y-27100D02*
X28000Y-29400D01*
X28000Y-24100D02*
X28000Y-26100D01*
X28000Y-18600D02*
X28000Y-19800D01*
X28000Y-17600D02*
X28000Y-17700D01*
X28000Y-15600D02*
X28000Y-16800D01*
X28000Y-11600D02*
X28000Y-12800D01*
X27900Y-27100D02*
X27900Y-29400D01*
X27900Y-24100D02*
X27900Y-26100D01*
X27900Y-18500D02*
X27900Y-19800D01*
X27900Y-17600D02*
X27900Y-17800D01*
X27900Y-13700D02*
X27900Y-16800D01*
X27900Y-11600D02*
X27900Y-12800D01*
X27800Y-27100D02*
X27800Y-29400D01*
X27800Y-24000D02*
X27800Y-26100D01*
X27800Y-18400D02*
X27800Y-19900D01*
X27800Y-17600D02*
X27800Y-17900D01*
X27800Y-13600D02*
X27800Y-16800D01*
X27800Y-11600D02*
X27800Y-12800D01*
X27700Y-30500D02*
X27700Y-30600D01*
X27700Y-27100D02*
X27700Y-29500D01*
X27700Y-23300D02*
X27700Y-26100D01*
X27700Y-17600D02*
X27700Y-20000D01*
X27700Y-13500D02*
X27700Y-16800D01*
X27700Y-11500D02*
X27700Y-12900D01*
X27700Y-10400D02*
X27700Y-10500D01*
X27600Y-30400D02*
X27600Y-30600D01*
X27600Y-27100D02*
X27600Y-29600D01*
X27600Y-22500D02*
X27600Y-26100D01*
X27600Y-21100D02*
X27600Y-22100D01*
X27600Y-17600D02*
X27600Y-20700D01*
X27600Y-11400D02*
X27600Y-16800D01*
X27600Y-10400D02*
X27600Y-10600D01*
X27500Y-30300D02*
X27500Y-30600D01*
X27500Y-27100D02*
X27500Y-29700D01*
X27500Y-17600D02*
X27500Y-26100D01*
X27500Y-11300D02*
X27500Y-16800D01*
X27500Y-10400D02*
X27500Y-10700D01*
X27400Y-30400D02*
X27400Y-30600D01*
X27400Y-27100D02*
X27400Y-29600D01*
X27400Y-17600D02*
X27400Y-26100D01*
X27400Y-11400D02*
X27400Y-16800D01*
X27400Y-10400D02*
X27400Y-10600D01*
X27300Y-30500D02*
X27300Y-30600D01*
X27300Y-27100D02*
X27300Y-29500D01*
X27300Y-17600D02*
X27300Y-26100D01*
X27300Y-11500D02*
X27300Y-16800D01*
X27300Y-10400D02*
X27300Y-10500D01*
X27200Y-27100D02*
X27200Y-29400D01*
X27200Y-17600D02*
X27200Y-26100D01*
X27200Y-11600D02*
X27200Y-16800D01*
X27100Y-27100D02*
X27100Y-29400D01*
X27100Y-17600D02*
X27100Y-26100D01*
X27100Y-11600D02*
X27100Y-16800D01*
X27000Y-27100D02*
X27000Y-29400D01*
X27000Y-17500D02*
X27000Y-26100D01*
X27000Y-11600D02*
X27000Y-16900D01*
X26900Y-27100D02*
X26900Y-29400D01*
X26900Y-11600D02*
X26900Y-26100D01*
X26800Y-27100D02*
X26800Y-29400D01*
X26800Y-11600D02*
X26800Y-26100D01*
X26700Y-30500D02*
X26700Y-30600D01*
X26700Y-27100D02*
X26700Y-29500D01*
X26700Y-11500D02*
X26700Y-26100D01*
X26700Y-10400D02*
X26700Y-10500D01*
X26600Y-30400D02*
X26600Y-30600D01*
X26600Y-27100D02*
X26600Y-29600D01*
X26600Y-19900D02*
X26600Y-26100D01*
X26600Y-18700D02*
X26600Y-19400D01*
X26600Y-15500D02*
X26600Y-18200D01*
X26600Y-11400D02*
X26600Y-15000D01*
X26600Y-10400D02*
X26600Y-10600D01*
X26500Y-30300D02*
X26500Y-30600D01*
X26500Y-27100D02*
X26500Y-29700D01*
X26500Y-20000D02*
X26500Y-26100D01*
X26500Y-18800D02*
X26500Y-19300D01*
X26500Y-15600D02*
X26500Y-18100D01*
X26500Y-14700D02*
X26500Y-14900D01*
X26500Y-11300D02*
X26500Y-14200D01*
X26500Y-10400D02*
X26500Y-10700D01*
X26400Y-30400D02*
X26400Y-30600D01*
X26400Y-27100D02*
X26400Y-29600D01*
X26400Y-20200D02*
X26400Y-26100D01*
X26400Y-18900D02*
X26400Y-19200D01*
X26400Y-15700D02*
X26400Y-18000D01*
X26400Y-11400D02*
X26400Y-14100D01*
X26400Y-10400D02*
X26400Y-10600D01*
X26300Y-30500D02*
X26300Y-30600D01*
X26300Y-27100D02*
X26300Y-29500D01*
X26300Y-20800D02*
X26300Y-26100D01*
X26300Y-20300D02*
X26300Y-20400D01*
X26300Y-19000D02*
X26300Y-19200D01*
X26300Y-15700D02*
X26300Y-18000D01*
X26300Y-11500D02*
X26300Y-14000D01*
X26300Y-10400D02*
X26300Y-10500D01*
X26200Y-27100D02*
X26200Y-29400D01*
X26200Y-20900D02*
X26200Y-26100D01*
X26200Y-19100D02*
X26200Y-19200D01*
X26200Y-15700D02*
X26200Y-18000D01*
X26200Y-11600D02*
X26200Y-14000D01*
X26100Y-27100D02*
X26100Y-29400D01*
X26100Y-21200D02*
X26100Y-26100D01*
X26100Y-19100D02*
X26100Y-19200D01*
X26100Y-15700D02*
X26100Y-17300D01*
X26100Y-11600D02*
X26100Y-14000D01*
X26000Y-27300D02*
X26000Y-29400D01*
X26000Y-21300D02*
X26000Y-26100D01*
X26000Y-19100D02*
X26000Y-19300D01*
X26000Y-15600D02*
X26000Y-17200D01*
X26000Y-11600D02*
X26000Y-14100D01*
X25900Y-27400D02*
X25900Y-29400D01*
X25900Y-21400D02*
X25900Y-26100D01*
X25900Y-19100D02*
X25900Y-19400D01*
X25900Y-15600D02*
X25900Y-17100D01*
X25900Y-11600D02*
X25900Y-14200D01*
X25800Y-27400D02*
X25800Y-29400D01*
X25800Y-21500D02*
X25800Y-26100D01*
X25800Y-19000D02*
X25800Y-19600D01*
X25800Y-15600D02*
X25800Y-17100D01*
X25800Y-11600D02*
X25800Y-14700D01*
X25700Y-30500D02*
X25700Y-30600D01*
X25700Y-27400D02*
X25700Y-29500D01*
X25700Y-24300D02*
X25700Y-26100D01*
X25700Y-21600D02*
X25700Y-23700D01*
X25700Y-18900D02*
X25700Y-19700D01*
X25700Y-18400D02*
X25700Y-18500D01*
X25700Y-15700D02*
X25700Y-17100D01*
X25700Y-11500D02*
X25700Y-14800D01*
X25700Y-10400D02*
X25700Y-10500D01*
X25600Y-30400D02*
X25600Y-30600D01*
X25600Y-27400D02*
X25600Y-29600D01*
X25600Y-24400D02*
X25600Y-26100D01*
X25600Y-21600D02*
X25600Y-23400D01*
X25600Y-18400D02*
X25600Y-19700D01*
X25600Y-15700D02*
X25600Y-17200D01*
X25600Y-11400D02*
X25600Y-14800D01*
X25600Y-10400D02*
X25600Y-10600D01*
X25500Y-30300D02*
X25500Y-30600D01*
X25500Y-27400D02*
X25500Y-29700D01*
X25500Y-24400D02*
X25500Y-26100D01*
X25500Y-21600D02*
X25500Y-23300D01*
X25500Y-20500D02*
X25500Y-20600D01*
X25500Y-18300D02*
X25500Y-19600D01*
X25500Y-15700D02*
X25500Y-17300D01*
X25500Y-11300D02*
X25500Y-14800D01*
X25500Y-10400D02*
X25500Y-10700D01*
X25400Y-30400D02*
X25400Y-30600D01*
X25400Y-27300D02*
X25400Y-29600D01*
X25400Y-24400D02*
X25400Y-26100D01*
X25400Y-21600D02*
X25400Y-23200D01*
X25400Y-20500D02*
X25400Y-20700D01*
X25400Y-19300D02*
X25400Y-19500D01*
X25400Y-15900D02*
X25400Y-18700D01*
X25400Y-11400D02*
X25400Y-14800D01*
X25400Y-10400D02*
X25400Y-10600D01*
X25300Y-30500D02*
X25300Y-30600D01*
X25300Y-27100D02*
X25300Y-29500D01*
X25300Y-24400D02*
X25300Y-26100D01*
X25300Y-22900D02*
X25300Y-23200D01*
X25300Y-21600D02*
X25300Y-22400D01*
X25300Y-20400D02*
X25300Y-20800D01*
X25300Y-19400D02*
X25300Y-19500D01*
X25300Y-16000D02*
X25300Y-18600D01*
X25300Y-11500D02*
X25300Y-14900D01*
X25300Y-10400D02*
X25300Y-10500D01*
X25200Y-27100D02*
X25200Y-29400D01*
X25200Y-24400D02*
X25200Y-26100D01*
X25200Y-23000D02*
X25200Y-23200D01*
X25200Y-21500D02*
X25200Y-22300D01*
X25200Y-20300D02*
X25200Y-20900D01*
X25200Y-19400D02*
X25200Y-19500D01*
X25200Y-16000D02*
X25200Y-18600D01*
X25200Y-11600D02*
X25200Y-15000D01*
X25100Y-27100D02*
X25100Y-29400D01*
X25100Y-24300D02*
X25100Y-26100D01*
X25100Y-23100D02*
X25100Y-23200D01*
X25100Y-20300D02*
X25100Y-22200D01*
X25100Y-19400D02*
X25100Y-19500D01*
X25100Y-16000D02*
X25100Y-18600D01*
X25100Y-11600D02*
X25100Y-15200D01*
X25000Y-27100D02*
X25000Y-29400D01*
X25000Y-23900D02*
X25000Y-26100D01*
X25000Y-20200D02*
X25000Y-22200D01*
X25000Y-19400D02*
X25000Y-19600D01*
X25000Y-16000D02*
X25000Y-18600D01*
X25000Y-11600D02*
X25000Y-15200D01*
X24900Y-27100D02*
X24900Y-29400D01*
X24900Y-23900D02*
X24900Y-26100D01*
X24900Y-20100D02*
X24900Y-22200D01*
X24900Y-19400D02*
X24900Y-19700D01*
X24900Y-16000D02*
X24900Y-18600D01*
X24900Y-11600D02*
X24900Y-15200D01*
X24800Y-27100D02*
X24800Y-29400D01*
X24800Y-23900D02*
X24800Y-26100D01*
X24800Y-21800D02*
X24800Y-22200D01*
X24800Y-19300D02*
X24800Y-21200D01*
X24800Y-15900D02*
X24800Y-18700D01*
X24800Y-11600D02*
X24800Y-15300D01*
X24700Y-30500D02*
X24700Y-30600D01*
X24700Y-27100D02*
X24700Y-29500D01*
X24700Y-23900D02*
X24700Y-26100D01*
X24700Y-23000D02*
X24700Y-23100D01*
X24700Y-21900D02*
X24700Y-22300D01*
X24700Y-11500D02*
X24700Y-21100D01*
X24700Y-10400D02*
X24700Y-10500D01*
X24600Y-30400D02*
X24600Y-30600D01*
X24600Y-27100D02*
X24600Y-29600D01*
X24600Y-23800D02*
X24600Y-26100D01*
X24600Y-22900D02*
X24600Y-23200D01*
X24600Y-21900D02*
X24600Y-22400D01*
X24600Y-11400D02*
X24600Y-21100D01*
X24600Y-10400D02*
X24600Y-10600D01*
X24500Y-30300D02*
X24500Y-30600D01*
X24500Y-27100D02*
X24500Y-29700D01*
X24500Y-23700D02*
X24500Y-26100D01*
X24500Y-21900D02*
X24500Y-23300D01*
X24500Y-11300D02*
X24500Y-21100D01*
X24500Y-10400D02*
X24500Y-10700D01*
X24400Y-30400D02*
X24400Y-30600D01*
X24400Y-27100D02*
X24400Y-29600D01*
X24400Y-21900D02*
X24400Y-26100D01*
X24400Y-14900D02*
X24400Y-21100D01*
X24400Y-11400D02*
X24400Y-14400D01*
X24400Y-10400D02*
X24400Y-10600D01*
X24300Y-30500D02*
X24300Y-30600D01*
X24300Y-27100D02*
X24300Y-29500D01*
X24300Y-21900D02*
X24300Y-26100D01*
X24300Y-15000D02*
X24300Y-21100D01*
X24300Y-11500D02*
X24300Y-14300D01*
X24300Y-10400D02*
X24300Y-10500D01*
X24200Y-27100D02*
X24200Y-29400D01*
X24200Y-21800D02*
X24200Y-26100D01*
X24200Y-15100D02*
X24200Y-21200D01*
X24200Y-11600D02*
X24200Y-14200D01*
X24100Y-27100D02*
X24100Y-29400D01*
X24100Y-15100D02*
X24100Y-26100D01*
X24100Y-11600D02*
X24100Y-14200D01*
X24000Y-27100D02*
X24000Y-29400D01*
X24000Y-15100D02*
X24000Y-26100D01*
X24000Y-11600D02*
X24000Y-14200D01*
X23900Y-27100D02*
X23900Y-29400D01*
X23900Y-15100D02*
X23900Y-26100D01*
X23900Y-11600D02*
X23900Y-14200D01*
X23800Y-27100D02*
X23800Y-29400D01*
X23800Y-15000D02*
X23800Y-26100D01*
X23800Y-11600D02*
X23800Y-14300D01*
X23700Y-30500D02*
X23700Y-30600D01*
X23700Y-27100D02*
X23700Y-29500D01*
X23700Y-17000D02*
X23700Y-26100D01*
X23700Y-14900D02*
X23700Y-16600D01*
X23700Y-11500D02*
X23700Y-14400D01*
X23700Y-10400D02*
X23700Y-10500D01*
X23600Y-30400D02*
X23600Y-30600D01*
X23600Y-27100D02*
X23600Y-29600D01*
X23600Y-17100D02*
X23600Y-26100D01*
X23600Y-11400D02*
X23600Y-16500D01*
X23600Y-10400D02*
X23600Y-10600D01*
X23500Y-30300D02*
X23500Y-30600D01*
X23500Y-27100D02*
X23500Y-29700D01*
X23500Y-23400D02*
X23500Y-26100D01*
X23500Y-18900D02*
X23500Y-23000D01*
X23500Y-17200D02*
X23500Y-18500D01*
X23500Y-11300D02*
X23500Y-16400D01*
X23500Y-10400D02*
X23500Y-10700D01*
X23400Y-30400D02*
X23400Y-30600D01*
X23400Y-27100D02*
X23400Y-29600D01*
X23400Y-23500D02*
X23400Y-26100D01*
X23400Y-19000D02*
X23400Y-22900D01*
X23400Y-17200D02*
X23400Y-18400D01*
X23400Y-11400D02*
X23400Y-16400D01*
X23400Y-10400D02*
X23400Y-10600D01*
X23300Y-30500D02*
X23300Y-30600D01*
X23300Y-27100D02*
X23300Y-29500D01*
X23300Y-23600D02*
X23300Y-26100D01*
X23300Y-20700D02*
X23300Y-22800D01*
X23300Y-19100D02*
X23300Y-20200D01*
X23300Y-17400D02*
X23300Y-18300D01*
X23300Y-11500D02*
X23300Y-16400D01*
X23300Y-10400D02*
X23300Y-10500D01*
X23200Y-29100D02*
X23200Y-29400D01*
X23200Y-27100D02*
X23200Y-28500D01*
X23200Y-23600D02*
X23200Y-26100D01*
X23200Y-20800D02*
X23200Y-22800D01*
X23200Y-19100D02*
X23200Y-20100D01*
X23200Y-17500D02*
X23200Y-18300D01*
X23200Y-11600D02*
X23200Y-16400D01*
X23100Y-29200D02*
X23100Y-29400D01*
X23100Y-27100D02*
X23100Y-28400D01*
X23100Y-23600D02*
X23100Y-26100D01*
X23100Y-20900D02*
X23100Y-22800D01*
X23100Y-19100D02*
X23100Y-20000D01*
X23100Y-17500D02*
X23100Y-18300D01*
X23100Y-11600D02*
X23100Y-16500D01*
X23000Y-29200D02*
X23000Y-29400D01*
X23000Y-27100D02*
X23000Y-28400D01*
X23000Y-23600D02*
X23000Y-26100D01*
X23000Y-20900D02*
X23000Y-22800D01*
X23000Y-19100D02*
X23000Y-20000D01*
X23000Y-17500D02*
X23000Y-18300D01*
X23000Y-11600D02*
X23000Y-16600D01*
X22900Y-29200D02*
X22900Y-29400D01*
X22900Y-27100D02*
X22900Y-28400D01*
X22900Y-23500D02*
X22900Y-26100D01*
X22900Y-20900D02*
X22900Y-22900D01*
X22900Y-19000D02*
X22900Y-20000D01*
X22900Y-17500D02*
X22900Y-18400D01*
X22900Y-11600D02*
X22900Y-16000D01*
X22800Y-29200D02*
X22800Y-29400D01*
X22800Y-27100D02*
X22800Y-28400D01*
X22800Y-23400D02*
X22800Y-26100D01*
X22800Y-20900D02*
X22800Y-23000D01*
X22800Y-18900D02*
X22800Y-20000D01*
X22800Y-17500D02*
X22800Y-18500D01*
X22800Y-11600D02*
X22800Y-15900D01*
X22700Y-30500D02*
X22700Y-30600D01*
X22700Y-29200D02*
X22700Y-29500D01*
X22700Y-27100D02*
X22700Y-28400D01*
X22700Y-20800D02*
X22700Y-26100D01*
X22700Y-17400D02*
X22700Y-20100D01*
X22700Y-11500D02*
X22700Y-15900D01*
X22700Y-10400D02*
X22700Y-10500D01*
X22600Y-30400D02*
X22600Y-30600D01*
X22600Y-29200D02*
X22600Y-29600D01*
X22600Y-27100D02*
X22600Y-28400D01*
X22600Y-20700D02*
X22600Y-26100D01*
X22600Y-17200D02*
X22600Y-20200D01*
X22600Y-15200D02*
X22600Y-15900D01*
X22600Y-11400D02*
X22600Y-14700D01*
X22600Y-10400D02*
X22600Y-10600D01*
X22500Y-30300D02*
X22500Y-30600D01*
X22500Y-29200D02*
X22500Y-29700D01*
X22500Y-27100D02*
X22500Y-28400D01*
X22500Y-23600D02*
X22500Y-26100D01*
X22500Y-22300D02*
X22500Y-22400D01*
X22500Y-21300D02*
X22500Y-21700D01*
X22500Y-20300D02*
X22500Y-20700D01*
X22500Y-19300D02*
X22500Y-19700D01*
X22500Y-18300D02*
X22500Y-18700D01*
X22500Y-17200D02*
X22500Y-17700D01*
X22500Y-15300D02*
X22500Y-15900D01*
X22500Y-11300D02*
X22500Y-14600D01*
X22500Y-10400D02*
X22500Y-10700D01*
X22400Y-30400D02*
X22400Y-30600D01*
X22400Y-29200D02*
X22400Y-29600D01*
X22400Y-27300D02*
X22400Y-28400D01*
X22400Y-23600D02*
X22400Y-26100D01*
X22400Y-21400D02*
X22400Y-21600D01*
X22400Y-20400D02*
X22400Y-20600D01*
X22400Y-19400D02*
X22400Y-19600D01*
X22400Y-18400D02*
X22400Y-18600D01*
X22400Y-17200D02*
X22400Y-17600D01*
X22400Y-15400D02*
X22400Y-15900D01*
X22400Y-11400D02*
X22400Y-14500D01*
X22400Y-10400D02*
X22400Y-10600D01*
X22300Y-30500D02*
X22300Y-30600D01*
X22300Y-29200D02*
X22300Y-29500D01*
X22300Y-27400D02*
X22300Y-28400D01*
X22300Y-23600D02*
X22300Y-26100D01*
X22300Y-17100D02*
X22300Y-17500D01*
X22300Y-15400D02*
X22300Y-16000D01*
X22300Y-11500D02*
X22300Y-14500D01*
X22300Y-10400D02*
X22300Y-10500D01*
X22200Y-29200D02*
X22200Y-29400D01*
X22200Y-27500D02*
X22200Y-28400D01*
X22200Y-23600D02*
X22200Y-26100D01*
X22200Y-15400D02*
X22200Y-17400D01*
X22200Y-11600D02*
X22200Y-14500D01*
X22100Y-29200D02*
X22100Y-29400D01*
X22100Y-27500D02*
X22100Y-28400D01*
X22100Y-23600D02*
X22100Y-26100D01*
X22100Y-15300D02*
X22100Y-17400D01*
X22100Y-11600D02*
X22100Y-14600D01*
X22000Y-29200D02*
X22000Y-29400D01*
X22000Y-27500D02*
X22000Y-28400D01*
X22000Y-23600D02*
X22000Y-26100D01*
X22000Y-15200D02*
X22000Y-17400D01*
X22000Y-11600D02*
X22000Y-14700D01*
X21900Y-29200D02*
X21900Y-29400D01*
X21900Y-27400D02*
X21900Y-28400D01*
X21900Y-23600D02*
X21900Y-26100D01*
X21900Y-11600D02*
X21900Y-17400D01*
X21800Y-29100D02*
X21800Y-29400D01*
X21800Y-27300D02*
X21800Y-28500D01*
X21800Y-23600D02*
X21800Y-26100D01*
X21800Y-11600D02*
X21800Y-17400D01*
X21700Y-30500D02*
X21700Y-30600D01*
X21700Y-27100D02*
X21700Y-29500D01*
X21700Y-23600D02*
X21700Y-26100D01*
X21700Y-15500D02*
X21700Y-17500D01*
X21700Y-11500D02*
X21700Y-15000D01*
X21700Y-10400D02*
X21700Y-10500D01*
X21600Y-30400D02*
X21600Y-30600D01*
X21600Y-27100D02*
X21600Y-29600D01*
X21600Y-23600D02*
X21600Y-26100D01*
X21600Y-21400D02*
X21600Y-21600D01*
X21600Y-20400D02*
X21600Y-20600D01*
X21600Y-19400D02*
X21600Y-19600D01*
X21600Y-18400D02*
X21600Y-18600D01*
X21600Y-15600D02*
X21600Y-17600D01*
X21600Y-11400D02*
X21600Y-14900D01*
X21600Y-10400D02*
X21600Y-10600D01*
X21500Y-30300D02*
X21500Y-30600D01*
X21500Y-27100D02*
X21500Y-29700D01*
X21500Y-23600D02*
X21500Y-26100D01*
X21500Y-22300D02*
X21500Y-22400D01*
X21500Y-21300D02*
X21500Y-21700D01*
X21500Y-20300D02*
X21500Y-20700D01*
X21500Y-19300D02*
X21500Y-19700D01*
X21500Y-18300D02*
X21500Y-18700D01*
X21500Y-15700D02*
X21500Y-17700D01*
X21500Y-11300D02*
X21500Y-14800D01*
X21500Y-10400D02*
X21500Y-10700D01*
X21400Y-30400D02*
X21400Y-30600D01*
X21400Y-27100D02*
X21400Y-29600D01*
X21400Y-15700D02*
X21400Y-26100D01*
X21400Y-11400D02*
X21400Y-14800D01*
X21400Y-10400D02*
X21400Y-10600D01*
X21300Y-30500D02*
X21300Y-30600D01*
X21300Y-27100D02*
X21300Y-29500D01*
X21300Y-17700D02*
X21300Y-26100D01*
X21300Y-15700D02*
X21300Y-17100D01*
X21300Y-11500D02*
X21300Y-14800D01*
X21300Y-10400D02*
X21300Y-10500D01*
X21200Y-27100D02*
X21200Y-29400D01*
X21200Y-17800D02*
X21200Y-26100D01*
X21200Y-15700D02*
X21200Y-17000D01*
X21200Y-11600D02*
X21200Y-14800D01*
X21100Y-27100D02*
X21100Y-29400D01*
X21100Y-17800D02*
X21100Y-26100D01*
X21100Y-15600D02*
X21100Y-17000D01*
X21100Y-11600D02*
X21100Y-14900D01*
X21000Y-27100D02*
X21000Y-29400D01*
X21000Y-17800D02*
X21000Y-26100D01*
X21000Y-15500D02*
X21000Y-17000D01*
X21000Y-11600D02*
X21000Y-15000D01*
X20900Y-27100D02*
X20900Y-29400D01*
X20900Y-17800D02*
X20900Y-26100D01*
X20900Y-11600D02*
X20900Y-17000D01*
X20800Y-27100D02*
X20800Y-29400D01*
X20800Y-17800D02*
X20800Y-26100D01*
X20800Y-11600D02*
X20800Y-17000D01*
X20700Y-30500D02*
X20700Y-30600D01*
X20700Y-27100D02*
X20700Y-29500D01*
X20700Y-17700D02*
X20700Y-26100D01*
X20700Y-11500D02*
X20700Y-17100D01*
X20700Y-10400D02*
X20700Y-10500D01*
X20600Y-30400D02*
X20600Y-30600D01*
X20600Y-27100D02*
X20600Y-29600D01*
X20600Y-11400D02*
X20600Y-26100D01*
X20600Y-10400D02*
X20600Y-10600D01*
X20500Y-30300D02*
X20500Y-30600D01*
X20500Y-27100D02*
X20500Y-29700D01*
X20500Y-23600D02*
X20500Y-26100D01*
X20500Y-22300D02*
X20500Y-22400D01*
X20500Y-21300D02*
X20500Y-21700D01*
X20500Y-20300D02*
X20500Y-20700D01*
X20500Y-18300D02*
X20500Y-19700D01*
X20500Y-17300D02*
X20500Y-17700D01*
X20500Y-16300D02*
X20500Y-16700D01*
X20500Y-15300D02*
X20500Y-15700D01*
X20500Y-11300D02*
X20500Y-14700D01*
X20500Y-10400D02*
X20500Y-10700D01*
X20400Y-30400D02*
X20400Y-30600D01*
X20400Y-27100D02*
X20400Y-29600D01*
X20400Y-25100D02*
X20400Y-26100D01*
X20400Y-23600D02*
X20400Y-24700D01*
X20400Y-21400D02*
X20400Y-21600D01*
X20400Y-20400D02*
X20400Y-20600D01*
X20400Y-18400D02*
X20400Y-19600D01*
X20400Y-17400D02*
X20400Y-17600D01*
X20400Y-16400D02*
X20400Y-16600D01*
X20400Y-15400D02*
X20400Y-15600D01*
X20400Y-11400D02*
X20400Y-14600D01*
X20400Y-10400D02*
X20400Y-10600D01*
X20300Y-30500D02*
X20300Y-30600D01*
X20300Y-27100D02*
X20300Y-29500D01*
X20300Y-25200D02*
X20300Y-26100D01*
X20300Y-23600D02*
X20300Y-24600D01*
X20300Y-18500D02*
X20300Y-19500D01*
X20300Y-11500D02*
X20300Y-14500D01*
X20300Y-10400D02*
X20300Y-10500D01*
X20200Y-27100D02*
X20200Y-29400D01*
X20200Y-25300D02*
X20200Y-26100D01*
X20200Y-23600D02*
X20200Y-24500D01*
X20200Y-18600D02*
X20200Y-19400D01*
X20200Y-11600D02*
X20200Y-14400D01*
X20100Y-27100D02*
X20100Y-29400D01*
X20100Y-25300D02*
X20100Y-26100D01*
X20100Y-23600D02*
X20100Y-24500D01*
X20100Y-18600D02*
X20100Y-19400D01*
X20100Y-11600D02*
X20100Y-14400D01*
X20000Y-27100D02*
X20000Y-29400D01*
X20000Y-25300D02*
X20000Y-26100D01*
X20000Y-23600D02*
X20000Y-24500D01*
X20000Y-18600D02*
X20000Y-19400D01*
X20000Y-11600D02*
X20000Y-14400D01*
X19900Y-27100D02*
X19900Y-29400D01*
X19900Y-25300D02*
X19900Y-26000D01*
X19900Y-23600D02*
X19900Y-24500D01*
X19900Y-18600D02*
X19900Y-19400D01*
X19900Y-11600D02*
X19900Y-14400D01*
X19800Y-27100D02*
X19800Y-29400D01*
X19800Y-25200D02*
X19800Y-25900D01*
X19800Y-23600D02*
X19800Y-24600D01*
X19800Y-18600D02*
X19800Y-19400D01*
X19800Y-11600D02*
X19800Y-14400D01*
X19700Y-30500D02*
X19700Y-30600D01*
X19700Y-27000D02*
X19700Y-29500D01*
X19700Y-25100D02*
X19700Y-25800D01*
X19700Y-23600D02*
X19700Y-24700D01*
X19700Y-18500D02*
X19700Y-19500D01*
X19700Y-11500D02*
X19700Y-14500D01*
X19700Y-10400D02*
X19700Y-10500D01*
X19600Y-30400D02*
X19600Y-30600D01*
X19600Y-27000D02*
X19600Y-29600D01*
X19600Y-23600D02*
X19600Y-25800D01*
X19600Y-20400D02*
X19600Y-20600D01*
X19600Y-18400D02*
X19600Y-19600D01*
X19600Y-11400D02*
X19600Y-14600D01*
X19600Y-10400D02*
X19600Y-10600D01*
X19500Y-30300D02*
X19500Y-30600D01*
X19500Y-26900D02*
X19500Y-29700D01*
X19500Y-23600D02*
X19500Y-25800D01*
X19500Y-20300D02*
X19500Y-20700D01*
X19500Y-18300D02*
X19500Y-19700D01*
X19500Y-11300D02*
X19500Y-14400D01*
X19500Y-10400D02*
X19500Y-10700D01*
X19400Y-30400D02*
X19400Y-30600D01*
X19400Y-26800D02*
X19400Y-29600D01*
X19400Y-23400D02*
X19400Y-25800D01*
X19400Y-20400D02*
X19400Y-20600D01*
X19400Y-19000D02*
X19400Y-19600D01*
X19400Y-11400D02*
X19400Y-14400D01*
X19400Y-10400D02*
X19400Y-10600D01*
X19300Y-30500D02*
X19300Y-30600D01*
X19300Y-26700D02*
X19300Y-29500D01*
X19300Y-23500D02*
X19300Y-25800D01*
X19300Y-19200D02*
X19300Y-19500D01*
X19300Y-11500D02*
X19300Y-14400D01*
X19300Y-10400D02*
X19300Y-10500D01*
X19200Y-26600D02*
X19200Y-29400D01*
X19200Y-23600D02*
X19200Y-25900D01*
X19200Y-19300D02*
X19200Y-19400D01*
X19200Y-11600D02*
X19200Y-14400D01*
X19100Y-26500D02*
X19100Y-29400D01*
X19100Y-23600D02*
X19100Y-26000D01*
X19100Y-11600D02*
X19100Y-14400D01*
X19000Y-23600D02*
X19000Y-29400D01*
X19000Y-11600D02*
X19000Y-14400D01*
X18900Y-23600D02*
X18900Y-29400D01*
X18900Y-11600D02*
X18900Y-14400D01*
X18800Y-23600D02*
X18800Y-29400D01*
X18800Y-11600D02*
X18800Y-14400D01*
X18700Y-30500D02*
X18700Y-30600D01*
X18700Y-27900D02*
X18700Y-29500D01*
X18700Y-23500D02*
X18700Y-27400D01*
X18700Y-11500D02*
X18700Y-14400D01*
X18700Y-10400D02*
X18700Y-10500D01*
X18600Y-30400D02*
X18600Y-30600D01*
X18600Y-28000D02*
X18600Y-29600D01*
X18600Y-23400D02*
X18600Y-27300D01*
X18600Y-22400D02*
X18600Y-22600D01*
X18600Y-21400D02*
X18600Y-21600D01*
X18600Y-20400D02*
X18600Y-20600D01*
X18600Y-11400D02*
X18600Y-14400D01*
X18600Y-10400D02*
X18600Y-10600D01*
X18500Y-30300D02*
X18500Y-30600D01*
X18500Y-28100D02*
X18500Y-29700D01*
X18500Y-23300D02*
X18500Y-27200D01*
X18500Y-22300D02*
X18500Y-22700D01*
X18500Y-21300D02*
X18500Y-21700D01*
X18500Y-20300D02*
X18500Y-20700D01*
X18500Y-18300D02*
X18500Y-18800D01*
X18500Y-17300D02*
X18500Y-17700D01*
X18500Y-16300D02*
X18500Y-16700D01*
X18500Y-15600D02*
X18500Y-15700D01*
X18500Y-11300D02*
X18500Y-14400D01*
X18500Y-10400D02*
X18500Y-10700D01*
X18400Y-30400D02*
X18400Y-30600D01*
X18400Y-28100D02*
X18400Y-29600D01*
X18400Y-23100D02*
X18400Y-27200D01*
X18400Y-20100D02*
X18400Y-22600D01*
X18400Y-15500D02*
X18400Y-18900D01*
X18400Y-11400D02*
X18400Y-14600D01*
X18400Y-10400D02*
X18400Y-10600D01*
X18300Y-30500D02*
X18300Y-30600D01*
X18300Y-28100D02*
X18300Y-29500D01*
X18300Y-23200D02*
X18300Y-27200D01*
X18300Y-20200D02*
X18300Y-22500D01*
X18300Y-15500D02*
X18300Y-19000D01*
X18300Y-11500D02*
X18300Y-14600D01*
X18300Y-10400D02*
X18300Y-10500D01*
X18200Y-28000D02*
X18200Y-29400D01*
X18200Y-23300D02*
X18200Y-27300D01*
X18200Y-20300D02*
X18200Y-22400D01*
X18200Y-15500D02*
X18200Y-19100D01*
X18200Y-11600D02*
X18200Y-14600D01*
X18100Y-27900D02*
X18100Y-29400D01*
X18100Y-23300D02*
X18100Y-27400D01*
X18100Y-20400D02*
X18100Y-22400D01*
X18100Y-15500D02*
X18100Y-19200D01*
X18100Y-11600D02*
X18100Y-14600D01*
X18000Y-24000D02*
X18000Y-29400D01*
X18000Y-15500D02*
X18000Y-19300D01*
X18000Y-13600D02*
X18000Y-14200D01*
X18000Y-11600D02*
X18000Y-13000D01*
X17900Y-24200D02*
X17900Y-29400D01*
X17900Y-15500D02*
X17900Y-19400D01*
X17900Y-13700D02*
X17900Y-14100D01*
X17900Y-11600D02*
X17900Y-12900D01*
X17800Y-24200D02*
X17800Y-29400D01*
X17800Y-15500D02*
X17800Y-19500D01*
X17800Y-13700D02*
X17800Y-14000D01*
X17800Y-11600D02*
X17800Y-12900D01*
X17700Y-30500D02*
X17700Y-30600D01*
X17700Y-24300D02*
X17700Y-29500D01*
X17700Y-15500D02*
X17700Y-19600D01*
X17700Y-13700D02*
X17700Y-14000D01*
X17700Y-11500D02*
X17700Y-12900D01*
X17700Y-10400D02*
X17700Y-10500D01*
X17600Y-30400D02*
X17600Y-30600D01*
X17600Y-24300D02*
X17600Y-29600D01*
X17600Y-15500D02*
X17600Y-19700D01*
X17600Y-13700D02*
X17600Y-14000D01*
X17600Y-11400D02*
X17600Y-12900D01*
X17600Y-10400D02*
X17600Y-10600D01*
X17500Y-30300D02*
X17500Y-30600D01*
X17500Y-24300D02*
X17500Y-29700D01*
X17500Y-15500D02*
X17500Y-19800D01*
X17500Y-13700D02*
X17500Y-14100D01*
X17500Y-11300D02*
X17500Y-12900D01*
X17500Y-10400D02*
X17500Y-10700D01*
X17400Y-30400D02*
X17400Y-30600D01*
X17400Y-24200D02*
X17400Y-29600D01*
X17400Y-15500D02*
X17400Y-19900D01*
X17400Y-13600D02*
X17400Y-14200D01*
X17400Y-11400D02*
X17400Y-13000D01*
X17400Y-10400D02*
X17400Y-10600D01*
X17300Y-30500D02*
X17300Y-30600D01*
X17300Y-24200D02*
X17300Y-29500D01*
X17300Y-15500D02*
X17300Y-20000D01*
X17300Y-11500D02*
X17300Y-14400D01*
X17300Y-10400D02*
X17300Y-10500D01*
X17200Y-24000D02*
X17200Y-29400D01*
X17200Y-15500D02*
X17200Y-20200D01*
X17200Y-11600D02*
X17200Y-14400D01*
X17100Y-15400D02*
X17100Y-29400D01*
X17100Y-11600D02*
X17100Y-14500D01*
X17000Y-15300D02*
X17000Y-29400D01*
X17000Y-11600D02*
X17000Y-14500D01*
X16900Y-15200D02*
X16900Y-29400D01*
X16900Y-11600D02*
X16900Y-14600D01*
X16800Y-11600D02*
X16800Y-29400D01*
X16700Y-30500D02*
X16700Y-30600D01*
X16700Y-11500D02*
X16700Y-29500D01*
X16700Y-10400D02*
X16700Y-10500D01*
X16600Y-30400D02*
X16600Y-30600D01*
X16600Y-18300D02*
X16600Y-29600D01*
X16600Y-11400D02*
X16600Y-17900D01*
X16600Y-10400D02*
X16600Y-10600D01*
X16500Y-30300D02*
X16500Y-30600D01*
X16500Y-18400D02*
X16500Y-29700D01*
X16500Y-11300D02*
X16500Y-17800D01*
X16500Y-10400D02*
X16500Y-10700D01*
X16400Y-30400D02*
X16400Y-30600D01*
X16400Y-18500D02*
X16400Y-29600D01*
X16400Y-11400D02*
X16400Y-17700D01*
X16400Y-10400D02*
X16400Y-10600D01*
X16300Y-30500D02*
X16300Y-30600D01*
X16300Y-18500D02*
X16300Y-29500D01*
X16300Y-11500D02*
X16300Y-17700D01*
X16300Y-10400D02*
X16300Y-10500D01*
X16200Y-18500D02*
X16200Y-29400D01*
X16200Y-11600D02*
X16200Y-17700D01*
X16100Y-18500D02*
X16100Y-29400D01*
X16100Y-16100D02*
X16100Y-17700D01*
X16100Y-11600D02*
X16100Y-15600D01*
X16000Y-18400D02*
X16000Y-29400D01*
X16000Y-16200D02*
X16000Y-17800D01*
X16000Y-11600D02*
X16000Y-15500D01*
X15900Y-18300D02*
X15900Y-29400D01*
X15900Y-16300D02*
X15900Y-17900D01*
X15900Y-11600D02*
X15900Y-15400D01*
X15800Y-16300D02*
X15800Y-29400D01*
X15800Y-11600D02*
X15800Y-15400D01*
X15700Y-30500D02*
X15700Y-30600D01*
X15700Y-16300D02*
X15700Y-29500D01*
X15700Y-11500D02*
X15700Y-15400D01*
X15700Y-10400D02*
X15700Y-10500D01*
X15600Y-30400D02*
X15600Y-30600D01*
X15600Y-16200D02*
X15600Y-29600D01*
X15600Y-11400D02*
X15600Y-15500D01*
X15600Y-10400D02*
X15600Y-10600D01*
X15500Y-30300D02*
X15500Y-30600D01*
X15500Y-16100D02*
X15500Y-29700D01*
X15500Y-11300D02*
X15500Y-15600D01*
X15500Y-10400D02*
X15500Y-10700D01*
X15400Y-30400D02*
X15400Y-30600D01*
X15400Y-26100D02*
X15400Y-29600D01*
X15400Y-11400D02*
X15400Y-25400D01*
X15400Y-10400D02*
X15400Y-10600D01*
X15300Y-30500D02*
X15300Y-30600D01*
X15300Y-26300D02*
X15300Y-29500D01*
X15300Y-11500D02*
X15300Y-25200D01*
X15300Y-10400D02*
X15300Y-10500D01*
X15200Y-26500D02*
X15200Y-29400D01*
X15200Y-21900D02*
X15200Y-25000D01*
X15200Y-11600D02*
X15200Y-21500D01*
X15100Y-26600D02*
X15100Y-29400D01*
X15100Y-22000D02*
X15100Y-24900D01*
X15100Y-18300D02*
X15100Y-21400D01*
X15100Y-11600D02*
X15100Y-17900D01*
X15000Y-26600D02*
X15000Y-29400D01*
X15000Y-22100D02*
X15000Y-24900D01*
X15000Y-18400D02*
X15000Y-21300D01*
X15000Y-11600D02*
X15000Y-17800D01*
X14900Y-26700D02*
X14900Y-29400D01*
X14900Y-22100D02*
X14900Y-24800D01*
X14900Y-18500D02*
X14900Y-21300D01*
X14900Y-12900D02*
X14900Y-17700D01*
X14900Y-11600D02*
X14900Y-12400D01*
X14800Y-26800D02*
X14800Y-29400D01*
X14800Y-22100D02*
X14800Y-24700D01*
X14800Y-21200D02*
X14800Y-21300D01*
X14800Y-18500D02*
X14800Y-20700D01*
X14800Y-16600D02*
X14800Y-17700D01*
X14800Y-13000D02*
X14800Y-16100D01*
X14800Y-11600D02*
X14800Y-12300D01*
X14700Y-30500D02*
X14700Y-30600D01*
X14700Y-26800D02*
X14700Y-29500D01*
X14700Y-23400D02*
X14700Y-24700D01*
X14700Y-22100D02*
X14700Y-23000D01*
X14700Y-18500D02*
X14700Y-20600D01*
X14700Y-16700D02*
X14700Y-17700D01*
X14700Y-13100D02*
X14700Y-16000D01*
X14700Y-11500D02*
X14700Y-12200D01*
X14700Y-10400D02*
X14700Y-10500D01*
X14600Y-30400D02*
X14600Y-30600D01*
X14600Y-26800D02*
X14600Y-29600D01*
X14600Y-23500D02*
X14600Y-24700D01*
X14600Y-22000D02*
X14600Y-22900D01*
X14600Y-18500D02*
X14600Y-20500D01*
X14600Y-16800D02*
X14600Y-17700D01*
X14600Y-13100D02*
X14600Y-15900D01*
X14600Y-11400D02*
X14600Y-12200D01*
X14600Y-10400D02*
X14600Y-10600D01*
X14500Y-30300D02*
X14500Y-30600D01*
X14500Y-26800D02*
X14500Y-29700D01*
X14500Y-23600D02*
X14500Y-24700D01*
X14500Y-21900D02*
X14500Y-22800D01*
X14500Y-21400D02*
X14500Y-21500D01*
X14500Y-18400D02*
X14500Y-20500D01*
X14500Y-16800D02*
X14500Y-17800D01*
X14500Y-13100D02*
X14500Y-15900D01*
X14500Y-11300D02*
X14500Y-12200D01*
X14500Y-10400D02*
X14500Y-10700D01*
X14400Y-26800D02*
X14400Y-30600D01*
X14400Y-23600D02*
X14400Y-24700D01*
X14400Y-21400D02*
X14400Y-22800D01*
X14400Y-18300D02*
X14400Y-20500D01*
X14400Y-16800D02*
X14400Y-17900D01*
X14400Y-13100D02*
X14400Y-15900D01*
X14400Y-10400D02*
X14400Y-12200D01*
X14300Y-26800D02*
X14300Y-30600D01*
X14300Y-23600D02*
X14300Y-24700D01*
X14300Y-21400D02*
X14300Y-22800D01*
X14300Y-19900D02*
X14300Y-20500D01*
X14300Y-16700D02*
X14300Y-19300D01*
X14300Y-13000D02*
X14300Y-16000D01*
X14300Y-10400D02*
X14300Y-12300D01*
X14200Y-28000D02*
X14200Y-30600D01*
X14200Y-26800D02*
X14200Y-27200D01*
X14200Y-23600D02*
X14200Y-24700D01*
X14200Y-21300D02*
X14200Y-22800D01*
X14200Y-20000D02*
X14200Y-20600D01*
X14200Y-16600D02*
X14200Y-19200D01*
X14200Y-12900D02*
X14200Y-16100D01*
X14200Y-10400D02*
X14200Y-12400D01*
X14100Y-28200D02*
X14100Y-30600D01*
X14100Y-26800D02*
X14100Y-27000D01*
X14100Y-23500D02*
X14100Y-24700D01*
X14100Y-21200D02*
X14100Y-22900D01*
X14100Y-20000D02*
X14100Y-20700D01*
X14100Y-10400D02*
X14100Y-19200D01*
X14000Y-28300D02*
X14000Y-30600D01*
X14000Y-26800D02*
X14000Y-26900D01*
X14000Y-23400D02*
X14000Y-24700D01*
X14000Y-20000D02*
X14000Y-23000D01*
X14000Y-10400D02*
X14000Y-19200D01*
X13900Y-28400D02*
X13900Y-30600D01*
X13900Y-26700D02*
X13900Y-26800D01*
X13900Y-20000D02*
X13900Y-24800D01*
X13900Y-10400D02*
X13900Y-19200D01*
X13800Y-28500D02*
X13800Y-30600D01*
X13800Y-20000D02*
X13800Y-24800D01*
X13800Y-10400D02*
X13800Y-19200D01*
X13700Y-28600D02*
X13700Y-30600D01*
X13700Y-19900D02*
X13700Y-24900D01*
X13700Y-10400D02*
X13700Y-19300D01*
X13600Y-28600D02*
X13600Y-30600D01*
X13600Y-26500D02*
X13600Y-26600D01*
X13600Y-10400D02*
X13600Y-25000D01*
X13500Y-28600D02*
X13500Y-30600D01*
X13500Y-26300D02*
X13500Y-26600D01*
X13500Y-15100D02*
X13500Y-25200D01*
X13500Y-10400D02*
X13500Y-14700D01*
X13400Y-28700D02*
X13400Y-30600D01*
X13400Y-26100D02*
X13400Y-26500D01*
X13400Y-15200D02*
X13400Y-25400D01*
X13400Y-10400D02*
X13400Y-14600D01*
X13300Y-28700D02*
X13300Y-30600D01*
X13300Y-15300D02*
X13300Y-26500D01*
X13300Y-10400D02*
X13300Y-14500D01*
X13200Y-28700D02*
X13200Y-30600D01*
X13200Y-15300D02*
X13200Y-26500D01*
X13200Y-14400D02*
X13200Y-14500D01*
X13200Y-10400D02*
X13200Y-14000D01*
X13100Y-28700D02*
X13100Y-30600D01*
X13100Y-15300D02*
X13100Y-26500D01*
X13100Y-10400D02*
X13100Y-13900D01*
X13000Y-28700D02*
X13000Y-30600D01*
X13000Y-26300D02*
X13000Y-26500D01*
X13000Y-15300D02*
X13000Y-25400D01*
X13000Y-12500D02*
X13000Y-13800D01*
X13000Y-10400D02*
X13000Y-12000D01*
X12900Y-28600D02*
X12900Y-30600D01*
X12900Y-26500D02*
X12900Y-26600D01*
X12900Y-15200D02*
X12900Y-25300D01*
X12900Y-12600D02*
X12900Y-13600D01*
X12900Y-10400D02*
X12900Y-11900D01*
X12800Y-28600D02*
X12800Y-30600D01*
X12800Y-15100D02*
X12800Y-25100D01*
X12800Y-14600D02*
X12800Y-14700D01*
X12800Y-12700D02*
X12800Y-13500D01*
X12800Y-10400D02*
X12800Y-11800D01*
X12700Y-28600D02*
X12700Y-30600D01*
X12700Y-14600D02*
X12700Y-25000D01*
X12700Y-12700D02*
X12700Y-13400D01*
X12700Y-10400D02*
X12700Y-11800D01*
X12600Y-28500D02*
X12600Y-30600D01*
X12600Y-14500D02*
X12600Y-25000D01*
X12600Y-12700D02*
X12600Y-13400D01*
X12600Y-10400D02*
X12600Y-11800D01*
X12500Y-28400D02*
X12500Y-30600D01*
X12500Y-21600D02*
X12500Y-24900D01*
X12500Y-19500D02*
X12500Y-21100D01*
X12500Y-14400D02*
X12500Y-19000D01*
X12500Y-12700D02*
X12500Y-13400D01*
X12500Y-10400D02*
X12500Y-11800D01*
X12400Y-28300D02*
X12400Y-30600D01*
X12400Y-21700D02*
X12400Y-24800D01*
X12400Y-19600D02*
X12400Y-21000D01*
X12400Y-14200D02*
X12400Y-18900D01*
X12400Y-12600D02*
X12400Y-13400D01*
X12400Y-10400D02*
X12400Y-11900D01*
X12300Y-28100D02*
X12300Y-30600D01*
X12300Y-26900D02*
X12300Y-27100D01*
X12300Y-21800D02*
X12300Y-24800D01*
X12300Y-19700D02*
X12300Y-20900D01*
X12300Y-14100D02*
X12300Y-18800D01*
X12300Y-12500D02*
X12300Y-13500D01*
X12300Y-10400D02*
X12300Y-12000D01*
X12200Y-27900D02*
X12200Y-30600D01*
X12200Y-26900D02*
X12200Y-27300D01*
X12200Y-21800D02*
X12200Y-24800D01*
X12200Y-19700D02*
X12200Y-20900D01*
X12200Y-14000D02*
X12200Y-18800D01*
X12200Y-10400D02*
X12200Y-13600D01*
X12100Y-27000D02*
X12100Y-30600D01*
X12100Y-21800D02*
X12100Y-24800D01*
X12100Y-19700D02*
X12100Y-20900D01*
X12100Y-10400D02*
X12100Y-18800D01*
X12000Y-27000D02*
X12000Y-30600D01*
X12000Y-21800D02*
X12000Y-24800D01*
X12000Y-19700D02*
X12000Y-20900D01*
X12000Y-10400D02*
X12000Y-18800D01*
X11900Y-26900D02*
X11900Y-30600D01*
X11900Y-21800D02*
X11900Y-24800D01*
X11900Y-19700D02*
X11900Y-20900D01*
X11900Y-10400D02*
X11900Y-18800D01*
X11800Y-26900D02*
X11800Y-30600D01*
X11800Y-21700D02*
X11800Y-24800D01*
X11800Y-19600D02*
X11800Y-21000D01*
X11800Y-10400D02*
X11800Y-18900D01*
X11700Y-26900D02*
X11700Y-30600D01*
X11700Y-21600D02*
X11700Y-24800D01*
X11700Y-19500D02*
X11700Y-21100D01*
X11700Y-13700D02*
X11700Y-19000D01*
X11700Y-10400D02*
X11700Y-13100D01*
X11600Y-26900D02*
X11600Y-30600D01*
X11600Y-13800D02*
X11600Y-24900D01*
X11600Y-10400D02*
X11600Y-13000D01*
X11500Y-26800D02*
X11500Y-30600D01*
X11500Y-13800D02*
X11500Y-24900D01*
X11500Y-10400D02*
X11500Y-13000D01*
X11400Y-26700D02*
X11400Y-30600D01*
X11400Y-13800D02*
X11400Y-25000D01*
X11400Y-10400D02*
X11400Y-13000D01*
X11300Y-26700D02*
X11300Y-30600D01*
X11300Y-13800D02*
X11300Y-25100D01*
X11300Y-10400D02*
X11300Y-13000D01*
X11200Y-26900D02*
X11200Y-30600D01*
X11200Y-13800D02*
X11200Y-25200D01*
X11200Y-10400D02*
X11200Y-13000D01*
X11100Y-26900D02*
X11100Y-30600D01*
X11100Y-13700D02*
X11100Y-24900D01*
X11100Y-10400D02*
X11100Y-13100D01*
X11000Y-26900D02*
X11000Y-30600D01*
X11000Y-10400D02*
X11000Y-24800D01*
X10900Y-26900D02*
X10900Y-30600D01*
X10900Y-10400D02*
X10900Y-24700D01*
X10800Y-26900D02*
X10800Y-30600D01*
X10800Y-10400D02*
X10800Y-24700D01*
X10700Y-26900D02*
X10700Y-30500D01*
X10700Y-13600D02*
X10700Y-24700D01*
X10700Y-10500D02*
X10700Y-13000D01*
X10600Y-26900D02*
X10600Y-30500D01*
X10600Y-13700D02*
X10600Y-24700D01*
X10600Y-10500D02*
X10600Y-12900D01*
X10500Y-26900D02*
X10500Y-30400D01*
X10500Y-13700D02*
X10500Y-24700D01*
X10500Y-10600D02*
X10500Y-12900D01*
X10400Y-26900D02*
X10400Y-30200D01*
X10400Y-13700D02*
X10400Y-24700D01*
X10400Y-10800D02*
X10400Y-12900D01*
X10800Y-30600D02*
X49200Y-30600D01*
X46600Y-30500D02*
X49400Y-30500D01*
X45300Y-30500D02*
X45400Y-30500D01*
X44300Y-30500D02*
X44700Y-30500D01*
X43300Y-30500D02*
X43700Y-30500D01*
X42300Y-30500D02*
X42700Y-30500D01*
X41300Y-30500D02*
X41700Y-30500D01*
X40300Y-30500D02*
X40700Y-30500D01*
X39300Y-30500D02*
X39700Y-30500D01*
X38300Y-30500D02*
X38700Y-30500D01*
X37300Y-30500D02*
X37700Y-30500D01*
X36300Y-30500D02*
X36700Y-30500D01*
X35300Y-30500D02*
X35700Y-30500D01*
X34300Y-30500D02*
X34700Y-30500D01*
X33300Y-30500D02*
X33700Y-30500D01*
X32300Y-30500D02*
X32700Y-30500D01*
X31300Y-30500D02*
X31700Y-30500D01*
X30300Y-30500D02*
X30700Y-30500D01*
X29300Y-30500D02*
X29700Y-30500D01*
X28300Y-30500D02*
X28700Y-30500D01*
X27300Y-30500D02*
X27700Y-30500D01*
X26300Y-30500D02*
X26700Y-30500D01*
X25300Y-30500D02*
X25700Y-30500D01*
X24300Y-30500D02*
X24700Y-30500D01*
X23300Y-30500D02*
X23700Y-30500D01*
X22300Y-30500D02*
X22700Y-30500D01*
X21300Y-30500D02*
X21700Y-30500D01*
X20300Y-30500D02*
X20700Y-30500D01*
X19300Y-30500D02*
X19700Y-30500D01*
X18300Y-30500D02*
X18700Y-30500D01*
X17300Y-30500D02*
X17700Y-30500D01*
X16300Y-30500D02*
X16700Y-30500D01*
X15300Y-30500D02*
X15700Y-30500D01*
X10600Y-30500D02*
X14700Y-30500D01*
X46600Y-30400D02*
X49500Y-30400D01*
X44400Y-30400D02*
X44600Y-30400D01*
X43400Y-30400D02*
X43600Y-30400D01*
X42400Y-30400D02*
X42600Y-30400D01*
X41400Y-30400D02*
X41600Y-30400D01*
X40400Y-30400D02*
X40600Y-30400D01*
X39400Y-30400D02*
X39600Y-30400D01*
X38400Y-30400D02*
X38600Y-30400D01*
X37400Y-30400D02*
X37600Y-30400D01*
X36400Y-30400D02*
X36600Y-30400D01*
X35400Y-30400D02*
X35600Y-30400D01*
X34400Y-30400D02*
X34600Y-30400D01*
X33400Y-30400D02*
X33600Y-30400D01*
X32400Y-30400D02*
X32600Y-30400D01*
X31400Y-30400D02*
X31600Y-30400D01*
X30400Y-30400D02*
X30600Y-30400D01*
X29400Y-30400D02*
X29600Y-30400D01*
X28400Y-30400D02*
X28600Y-30400D01*
X27400Y-30400D02*
X27600Y-30400D01*
X26400Y-30400D02*
X26600Y-30400D01*
X25400Y-30400D02*
X25600Y-30400D01*
X24400Y-30400D02*
X24600Y-30400D01*
X23400Y-30400D02*
X23600Y-30400D01*
X22400Y-30400D02*
X22600Y-30400D01*
X21400Y-30400D02*
X21600Y-30400D01*
X20400Y-30400D02*
X20600Y-30400D01*
X19400Y-30400D02*
X19600Y-30400D01*
X18400Y-30400D02*
X18600Y-30400D01*
X17400Y-30400D02*
X17600Y-30400D01*
X16400Y-30400D02*
X16600Y-30400D01*
X15400Y-30400D02*
X15600Y-30400D01*
X10500Y-30400D02*
X14600Y-30400D01*
X46600Y-30300D02*
X49500Y-30300D01*
X10500Y-30300D02*
X14500Y-30300D01*
X46600Y-30200D02*
X49600Y-30200D01*
X10400Y-30200D02*
X14400Y-30200D01*
X46600Y-30100D02*
X49600Y-30100D01*
X10400Y-30100D02*
X14400Y-30100D01*
X46600Y-30000D02*
X49600Y-30000D01*
X10400Y-30000D02*
X14400Y-30000D01*
X46600Y-29900D02*
X49600Y-29900D01*
X10400Y-29900D02*
X14400Y-29900D01*
X46600Y-29800D02*
X49600Y-29800D01*
X10400Y-29800D02*
X14400Y-29800D01*
X46600Y-29700D02*
X49600Y-29700D01*
X10400Y-29700D02*
X14500Y-29700D01*
X46600Y-29600D02*
X49600Y-29600D01*
X44400Y-29600D02*
X44600Y-29600D01*
X43400Y-29600D02*
X43600Y-29600D01*
X42400Y-29600D02*
X42600Y-29600D01*
X41400Y-29600D02*
X41600Y-29600D01*
X40400Y-29600D02*
X40600Y-29600D01*
X39400Y-29600D02*
X39600Y-29600D01*
X38400Y-29600D02*
X38600Y-29600D01*
X37400Y-29600D02*
X37600Y-29600D01*
X36400Y-29600D02*
X36600Y-29600D01*
X35400Y-29600D02*
X35600Y-29600D01*
X34400Y-29600D02*
X34600Y-29600D01*
X33400Y-29600D02*
X33600Y-29600D01*
X31400Y-29600D02*
X31600Y-29600D01*
X30400Y-29600D02*
X30600Y-29600D01*
X29400Y-29600D02*
X29600Y-29600D01*
X28400Y-29600D02*
X28600Y-29600D01*
X27400Y-29600D02*
X27600Y-29600D01*
X26400Y-29600D02*
X26600Y-29600D01*
X25400Y-29600D02*
X25600Y-29600D01*
X24400Y-29600D02*
X24600Y-29600D01*
X23400Y-29600D02*
X23600Y-29600D01*
X22400Y-29600D02*
X22600Y-29600D01*
X21400Y-29600D02*
X21600Y-29600D01*
X20400Y-29600D02*
X20600Y-29600D01*
X19400Y-29600D02*
X19600Y-29600D01*
X18400Y-29600D02*
X18600Y-29600D01*
X17400Y-29600D02*
X17600Y-29600D01*
X16400Y-29600D02*
X16600Y-29600D01*
X15400Y-29600D02*
X15600Y-29600D01*
X10400Y-29600D02*
X14600Y-29600D01*
X46600Y-29500D02*
X49600Y-29500D01*
X45300Y-29500D02*
X45400Y-29500D01*
X44300Y-29500D02*
X44700Y-29500D01*
X43300Y-29500D02*
X43700Y-29500D01*
X42300Y-29500D02*
X42700Y-29500D01*
X41300Y-29500D02*
X41700Y-29500D01*
X40300Y-29500D02*
X40700Y-29500D01*
X39300Y-29500D02*
X39700Y-29500D01*
X38300Y-29500D02*
X38700Y-29500D01*
X37300Y-29500D02*
X37700Y-29500D01*
X36300Y-29500D02*
X36700Y-29500D01*
X35300Y-29500D02*
X35700Y-29500D01*
X34300Y-29500D02*
X34700Y-29500D01*
X33400Y-29500D02*
X33700Y-29500D01*
X31300Y-29500D02*
X31700Y-29500D01*
X30300Y-29500D02*
X30700Y-29500D01*
X29300Y-29500D02*
X29700Y-29500D01*
X28300Y-29500D02*
X28700Y-29500D01*
X27300Y-29500D02*
X27700Y-29500D01*
X26300Y-29500D02*
X26700Y-29500D01*
X25300Y-29500D02*
X25700Y-29500D01*
X24300Y-29500D02*
X24700Y-29500D01*
X23300Y-29500D02*
X23700Y-29500D01*
X22300Y-29500D02*
X22700Y-29500D01*
X21300Y-29500D02*
X21700Y-29500D01*
X20300Y-29500D02*
X20700Y-29500D01*
X19300Y-29500D02*
X19700Y-29500D01*
X18300Y-29500D02*
X18700Y-29500D01*
X17300Y-29500D02*
X17700Y-29500D01*
X16300Y-29500D02*
X16700Y-29500D01*
X15300Y-29500D02*
X15700Y-29500D01*
X10400Y-29500D02*
X14700Y-29500D01*
X33700Y-29400D02*
X49600Y-29400D01*
X10400Y-29400D02*
X31800Y-29400D01*
X33800Y-29300D02*
X49600Y-29300D01*
X10400Y-29300D02*
X31800Y-29300D01*
X33900Y-29200D02*
X49600Y-29200D01*
X10400Y-29200D02*
X31900Y-29200D01*
X33900Y-29100D02*
X49600Y-29100D01*
X23200Y-29100D02*
X32000Y-29100D01*
X10400Y-29100D02*
X21800Y-29100D01*
X37300Y-29000D02*
X49600Y-29000D01*
X33900Y-29000D02*
X36700Y-29000D01*
X23300Y-29000D02*
X32000Y-29000D01*
X10400Y-29000D02*
X21700Y-29000D01*
X37400Y-28900D02*
X49600Y-28900D01*
X33800Y-28900D02*
X36600Y-28900D01*
X32800Y-28900D02*
X32900Y-28900D01*
X23300Y-28900D02*
X32100Y-28900D01*
X10400Y-28900D02*
X21700Y-28900D01*
X48600Y-28800D02*
X49600Y-28800D01*
X37400Y-28800D02*
X46000Y-28800D01*
X33700Y-28800D02*
X36600Y-28800D01*
X32700Y-28800D02*
X33200Y-28800D01*
X23300Y-28800D02*
X32200Y-28800D01*
X10400Y-28800D02*
X21700Y-28800D01*
X48600Y-28700D02*
X49600Y-28700D01*
X37500Y-28700D02*
X45900Y-28700D01*
X23300Y-28700D02*
X36600Y-28700D01*
X10400Y-28700D02*
X21700Y-28700D01*
X48600Y-28600D02*
X49600Y-28600D01*
X37600Y-28600D02*
X45800Y-28600D01*
X23300Y-28600D02*
X36600Y-28600D01*
X13500Y-28600D02*
X21700Y-28600D01*
X10400Y-28600D02*
X12900Y-28600D01*
X37700Y-28500D02*
X45700Y-28500D01*
X23200Y-28500D02*
X36600Y-28500D01*
X13800Y-28500D02*
X21800Y-28500D01*
X10400Y-28500D02*
X12600Y-28500D01*
X37700Y-28400D02*
X45600Y-28400D01*
X13900Y-28400D02*
X36700Y-28400D01*
X10400Y-28400D02*
X12500Y-28400D01*
X38600Y-28300D02*
X45500Y-28300D01*
X37700Y-28300D02*
X38100Y-28300D01*
X14000Y-28300D02*
X36800Y-28300D01*
X10400Y-28300D02*
X12400Y-28300D01*
X38700Y-28200D02*
X45400Y-28200D01*
X37600Y-28200D02*
X38000Y-28200D01*
X14100Y-28200D02*
X36900Y-28200D01*
X10400Y-28200D02*
X12300Y-28200D01*
X38800Y-28100D02*
X45300Y-28100D01*
X37500Y-28100D02*
X37900Y-28100D01*
X14200Y-28100D02*
X37000Y-28100D01*
X10400Y-28100D02*
X12300Y-28100D01*
X40000Y-28000D02*
X45200Y-28000D01*
X38800Y-28000D02*
X39500Y-28000D01*
X18600Y-28000D02*
X37900Y-28000D01*
X14200Y-28000D02*
X18200Y-28000D01*
X10400Y-28000D02*
X12200Y-28000D01*
X40100Y-27900D02*
X45100Y-27900D01*
X38800Y-27900D02*
X39400Y-27900D01*
X18700Y-27900D02*
X37900Y-27900D01*
X14300Y-27900D02*
X18100Y-27900D01*
X10400Y-27900D02*
X12200Y-27900D01*
X40200Y-27800D02*
X45000Y-27800D01*
X38700Y-27800D02*
X39300Y-27800D01*
X18800Y-27800D02*
X38000Y-27800D01*
X14300Y-27800D02*
X18000Y-27800D01*
X10400Y-27800D02*
X12100Y-27800D01*
X41400Y-27700D02*
X44900Y-27700D01*
X40200Y-27700D02*
X40900Y-27700D01*
X38600Y-27700D02*
X39300Y-27700D01*
X18800Y-27700D02*
X38100Y-27700D01*
X14300Y-27700D02*
X18000Y-27700D01*
X10400Y-27700D02*
X12100Y-27700D01*
X41500Y-27600D02*
X44800Y-27600D01*
X40200Y-27600D02*
X40800Y-27600D01*
X37500Y-27600D02*
X39300Y-27600D01*
X18800Y-27600D02*
X30000Y-27600D01*
X14300Y-27600D02*
X18000Y-27600D01*
X10400Y-27600D02*
X12100Y-27600D01*
X41600Y-27500D02*
X44700Y-27500D01*
X40200Y-27500D02*
X40700Y-27500D01*
X37500Y-27500D02*
X39300Y-27500D01*
X18800Y-27500D02*
X30000Y-27500D01*
X14300Y-27500D02*
X18000Y-27500D01*
X10400Y-27500D02*
X12100Y-27500D01*
X49400Y-27400D02*
X49600Y-27400D01*
X41600Y-27400D02*
X44600Y-27400D01*
X40100Y-27400D02*
X40700Y-27400D01*
X37500Y-27400D02*
X39400Y-27400D01*
X22300Y-27400D02*
X30000Y-27400D01*
X18700Y-27400D02*
X21900Y-27400D01*
X14300Y-27400D02*
X18100Y-27400D01*
X10400Y-27400D02*
X12100Y-27400D01*
X49500Y-27300D02*
X49600Y-27300D01*
X41600Y-27300D02*
X44500Y-27300D01*
X40000Y-27300D02*
X40700Y-27300D01*
X37500Y-27300D02*
X39500Y-27300D01*
X26000Y-27300D02*
X30000Y-27300D01*
X22400Y-27300D02*
X25400Y-27300D01*
X18600Y-27300D02*
X21800Y-27300D01*
X14300Y-27300D02*
X18200Y-27300D01*
X10400Y-27300D02*
X12200Y-27300D01*
X41600Y-27200D02*
X44400Y-27200D01*
X37500Y-27200D02*
X40700Y-27200D01*
X26100Y-27200D02*
X30000Y-27200D01*
X22500Y-27200D02*
X25300Y-27200D01*
X14200Y-27200D02*
X21700Y-27200D01*
X10400Y-27200D02*
X12200Y-27200D01*
X41500Y-27100D02*
X44300Y-27100D01*
X37500Y-27100D02*
X40800Y-27100D01*
X26100Y-27100D02*
X30000Y-27100D01*
X22500Y-27100D02*
X25300Y-27100D01*
X14200Y-27100D02*
X21700Y-27100D01*
X10400Y-27100D02*
X12300Y-27100D01*
X41400Y-27000D02*
X44200Y-27000D01*
X37500Y-27000D02*
X40900Y-27000D01*
X14100Y-27000D02*
X19700Y-27000D01*
X10400Y-27000D02*
X12300Y-27000D01*
X37500Y-26900D02*
X44100Y-26900D01*
X14000Y-26900D02*
X19500Y-26900D01*
X12200Y-26900D02*
X12400Y-26900D01*
X10400Y-26900D02*
X11900Y-26900D01*
X37500Y-26800D02*
X44000Y-26800D01*
X13900Y-26800D02*
X19400Y-26800D01*
X11300Y-26800D02*
X11500Y-26800D01*
X49500Y-26700D02*
X49600Y-26700D01*
X37500Y-26700D02*
X43900Y-26700D01*
X14900Y-26700D02*
X19300Y-26700D01*
X13800Y-26700D02*
X13900Y-26700D01*
X11300Y-26700D02*
X11400Y-26700D01*
X49400Y-26600D02*
X49600Y-26600D01*
X37500Y-26600D02*
X43800Y-26600D01*
X15000Y-26600D02*
X19200Y-26600D01*
X13500Y-26600D02*
X13700Y-26600D01*
X12800Y-26600D02*
X12900Y-26600D01*
X49300Y-26500D02*
X49600Y-26500D01*
X37500Y-26500D02*
X43700Y-26500D01*
X15200Y-26500D02*
X19100Y-26500D01*
X12900Y-26500D02*
X13600Y-26500D01*
X49400Y-26400D02*
X49600Y-26400D01*
X37500Y-26400D02*
X43600Y-26400D01*
X15300Y-26400D02*
X19000Y-26400D01*
X13000Y-26400D02*
X13500Y-26400D01*
X49500Y-26300D02*
X49600Y-26300D01*
X37500Y-26300D02*
X43500Y-26300D01*
X15300Y-26300D02*
X19000Y-26300D01*
X13000Y-26300D02*
X13500Y-26300D01*
X37500Y-26200D02*
X43400Y-26200D01*
X15400Y-26200D02*
X19000Y-26200D01*
X13100Y-26200D02*
X13400Y-26200D01*
X37500Y-26100D02*
X43300Y-26100D01*
X20000Y-26100D02*
X29500Y-26100D01*
X15400Y-26100D02*
X19000Y-26100D01*
X13100Y-26100D02*
X13400Y-26100D01*
X37500Y-26000D02*
X43200Y-26000D01*
X19900Y-26000D02*
X29500Y-26000D01*
X15500Y-26000D02*
X19100Y-26000D01*
X13100Y-26000D02*
X13300Y-26000D01*
X37500Y-25900D02*
X43100Y-25900D01*
X19800Y-25900D02*
X29600Y-25900D01*
X15500Y-25900D02*
X19200Y-25900D01*
X13100Y-25900D02*
X13300Y-25900D01*
X38200Y-25800D02*
X43000Y-25800D01*
X37500Y-25800D02*
X37700Y-25800D01*
X15500Y-25800D02*
X30000Y-25800D01*
X13100Y-25800D02*
X13300Y-25800D01*
X49500Y-25700D02*
X49600Y-25700D01*
X38300Y-25700D02*
X42900Y-25700D01*
X37500Y-25700D02*
X37600Y-25700D01*
X15500Y-25700D02*
X30000Y-25700D01*
X13100Y-25700D02*
X13300Y-25700D01*
X49400Y-25600D02*
X49600Y-25600D01*
X38400Y-25600D02*
X42800Y-25600D01*
X15500Y-25600D02*
X30000Y-25600D01*
X13100Y-25600D02*
X13300Y-25600D01*
X49300Y-25500D02*
X49600Y-25500D01*
X38400Y-25500D02*
X42700Y-25500D01*
X15500Y-25500D02*
X30000Y-25500D01*
X13100Y-25500D02*
X13300Y-25500D01*
X49400Y-25400D02*
X49600Y-25400D01*
X39500Y-25400D02*
X42600Y-25400D01*
X38400Y-25400D02*
X38500Y-25400D01*
X15400Y-25400D02*
X30000Y-25400D01*
X13000Y-25400D02*
X13400Y-25400D01*
X49500Y-25300D02*
X49600Y-25300D01*
X15400Y-25300D02*
X30000Y-25300D01*
X12900Y-25300D02*
X13400Y-25300D01*
X20300Y-25200D02*
X30000Y-25200D01*
X15300Y-25200D02*
X19800Y-25200D01*
X12900Y-25200D02*
X13500Y-25200D01*
X20400Y-25100D02*
X30000Y-25100D01*
X15300Y-25100D02*
X19700Y-25100D01*
X12800Y-25100D02*
X13500Y-25100D01*
X11200Y-25100D02*
X11300Y-25100D01*
X20500Y-25000D02*
X30000Y-25000D01*
X15200Y-25000D02*
X19600Y-25000D01*
X12600Y-25000D02*
X13600Y-25000D01*
X11200Y-25000D02*
X11400Y-25000D01*
X20500Y-24900D02*
X30000Y-24900D01*
X15000Y-24900D02*
X19600Y-24900D01*
X12500Y-24900D02*
X13700Y-24900D01*
X11100Y-24900D02*
X11600Y-24900D01*
X20500Y-24800D02*
X30000Y-24800D01*
X14900Y-24800D02*
X19600Y-24800D01*
X11000Y-24800D02*
X13900Y-24800D01*
X49500Y-24700D02*
X49600Y-24700D01*
X20400Y-24700D02*
X30000Y-24700D01*
X10400Y-24700D02*
X19700Y-24700D01*
X49400Y-24600D02*
X49600Y-24600D01*
X20300Y-24600D02*
X30000Y-24600D01*
X10400Y-24600D02*
X19800Y-24600D01*
X49300Y-24500D02*
X49600Y-24500D01*
X29600Y-24500D02*
X30000Y-24500D01*
X10400Y-24500D02*
X29100Y-24500D01*
X49400Y-24400D02*
X49600Y-24400D01*
X29700Y-24400D02*
X30000Y-24400D01*
X10400Y-24400D02*
X29000Y-24400D01*
X49500Y-24300D02*
X49600Y-24300D01*
X29800Y-24300D02*
X30000Y-24300D01*
X25700Y-24300D02*
X28900Y-24300D01*
X10400Y-24300D02*
X25100Y-24300D01*
X29800Y-24200D02*
X30000Y-24200D01*
X25800Y-24200D02*
X28900Y-24200D01*
X17800Y-24200D02*
X25000Y-24200D01*
X10400Y-24200D02*
X17400Y-24200D01*
X29800Y-24100D02*
X31800Y-24100D01*
X25800Y-24100D02*
X28800Y-24100D01*
X18000Y-24100D02*
X25000Y-24100D01*
X10400Y-24100D02*
X17200Y-24100D01*
X29700Y-24000D02*
X31800Y-24000D01*
X28400Y-24000D02*
X28700Y-24000D01*
X25800Y-24000D02*
X27800Y-24000D01*
X18000Y-24000D02*
X25000Y-24000D01*
X10400Y-24000D02*
X17200Y-24000D01*
X29600Y-23900D02*
X31800Y-23900D01*
X28500Y-23900D02*
X28700Y-23900D01*
X25800Y-23900D02*
X27700Y-23900D01*
X18100Y-23900D02*
X25000Y-23900D01*
X10400Y-23900D02*
X17100Y-23900D01*
X29600Y-23800D02*
X31800Y-23800D01*
X28500Y-23800D02*
X28700Y-23800D01*
X25800Y-23800D02*
X27700Y-23800D01*
X18100Y-23800D02*
X24600Y-23800D01*
X10400Y-23800D02*
X17100Y-23800D01*
X49500Y-23700D02*
X49600Y-23700D01*
X30800Y-23700D02*
X31400Y-23700D01*
X29600Y-23700D02*
X30200Y-23700D01*
X28500Y-23700D02*
X28700Y-23700D01*
X25700Y-23700D02*
X27700Y-23700D01*
X18100Y-23700D02*
X24500Y-23700D01*
X10400Y-23700D02*
X17100Y-23700D01*
X49400Y-23600D02*
X49600Y-23600D01*
X30900Y-23600D02*
X31300Y-23600D01*
X29500Y-23600D02*
X30100Y-23600D01*
X28500Y-23600D02*
X28800Y-23600D01*
X25700Y-23600D02*
X27700Y-23600D01*
X18100Y-23600D02*
X24400Y-23600D01*
X10400Y-23600D02*
X17100Y-23600D01*
X49300Y-23500D02*
X49600Y-23500D01*
X30900Y-23500D02*
X31200Y-23500D01*
X29400Y-23500D02*
X30100Y-23500D01*
X28500Y-23500D02*
X28900Y-23500D01*
X25700Y-23500D02*
X27700Y-23500D01*
X23400Y-23500D02*
X24400Y-23500D01*
X22600Y-23500D02*
X22900Y-23500D01*
X20600Y-23500D02*
X21400Y-23500D01*
X19300Y-23500D02*
X19400Y-23500D01*
X18100Y-23500D02*
X18700Y-23500D01*
X14600Y-23500D02*
X17100Y-23500D01*
X10400Y-23500D02*
X14100Y-23500D01*
X49400Y-23400D02*
X49600Y-23400D01*
X30900Y-23400D02*
X31200Y-23400D01*
X28500Y-23400D02*
X30100Y-23400D01*
X25600Y-23400D02*
X27700Y-23400D01*
X23500Y-23400D02*
X24400Y-23400D01*
X22600Y-23400D02*
X22800Y-23400D01*
X20600Y-23400D02*
X21400Y-23400D01*
X18100Y-23400D02*
X18600Y-23400D01*
X14700Y-23400D02*
X17100Y-23400D01*
X10400Y-23400D02*
X14000Y-23400D01*
X49500Y-23300D02*
X49600Y-23300D01*
X30900Y-23300D02*
X31200Y-23300D01*
X28500Y-23300D02*
X30100Y-23300D01*
X25500Y-23300D02*
X27700Y-23300D01*
X23600Y-23300D02*
X24500Y-23300D01*
X22600Y-23300D02*
X22700Y-23300D01*
X20600Y-23300D02*
X21400Y-23300D01*
X18100Y-23300D02*
X18500Y-23300D01*
X14800Y-23300D02*
X17100Y-23300D01*
X10400Y-23300D02*
X13900Y-23300D01*
X30900Y-23200D02*
X31200Y-23200D01*
X28500Y-23200D02*
X30000Y-23200D01*
X25100Y-23200D02*
X27600Y-23200D01*
X23600Y-23200D02*
X24600Y-23200D01*
X22600Y-23200D02*
X22700Y-23200D01*
X20600Y-23200D02*
X21400Y-23200D01*
X18300Y-23200D02*
X18400Y-23200D01*
X14800Y-23200D02*
X17100Y-23200D01*
X10400Y-23200D02*
X13900Y-23200D01*
X30800Y-23100D02*
X31300Y-23100D01*
X28400Y-23100D02*
X29900Y-23100D01*
X23600Y-23100D02*
X27600Y-23100D01*
X22600Y-23100D02*
X22700Y-23100D01*
X20600Y-23100D02*
X21400Y-23100D01*
X14800Y-23100D02*
X17100Y-23100D01*
X10400Y-23100D02*
X13900Y-23100D01*
X30700Y-23000D02*
X31400Y-23000D01*
X28400Y-23000D02*
X29900Y-23000D01*
X25200Y-23000D02*
X27600Y-23000D01*
X23500Y-23000D02*
X24700Y-23000D01*
X22600Y-23000D02*
X22800Y-23000D01*
X20600Y-23000D02*
X21400Y-23000D01*
X14700Y-23000D02*
X17100Y-23000D01*
X10400Y-23000D02*
X14000Y-23000D01*
X30700Y-22900D02*
X31800Y-22900D01*
X28400Y-22900D02*
X29900Y-22900D01*
X25300Y-22900D02*
X27600Y-22900D01*
X23400Y-22900D02*
X24600Y-22900D01*
X22600Y-22900D02*
X22900Y-22900D01*
X20600Y-22900D02*
X21400Y-22900D01*
X14600Y-22900D02*
X17100Y-22900D01*
X10400Y-22900D02*
X14100Y-22900D01*
X30700Y-22800D02*
X31800Y-22800D01*
X28400Y-22800D02*
X29900Y-22800D01*
X25400Y-22800D02*
X27600Y-22800D01*
X22600Y-22800D02*
X24500Y-22800D01*
X20600Y-22800D02*
X21400Y-22800D01*
X10400Y-22800D02*
X17100Y-22800D01*
X49500Y-22700D02*
X49600Y-22700D01*
X30700Y-22700D02*
X31800Y-22700D01*
X28400Y-22700D02*
X29900Y-22700D01*
X25400Y-22700D02*
X27600Y-22700D01*
X22600Y-22700D02*
X24500Y-22700D01*
X20600Y-22700D02*
X21400Y-22700D01*
X10400Y-22700D02*
X17100Y-22700D01*
X49400Y-22600D02*
X49600Y-22600D01*
X30700Y-22600D02*
X31800Y-22600D01*
X28400Y-22600D02*
X29900Y-22600D01*
X25400Y-22600D02*
X27600Y-22600D01*
X22600Y-22600D02*
X24500Y-22600D01*
X20600Y-22600D02*
X21400Y-22600D01*
X18400Y-22600D02*
X18600Y-22600D01*
X10400Y-22600D02*
X17100Y-22600D01*
X49300Y-22500D02*
X49600Y-22500D01*
X30700Y-22500D02*
X31100Y-22500D01*
X28400Y-22500D02*
X29900Y-22500D01*
X25400Y-22500D02*
X27600Y-22500D01*
X22600Y-22500D02*
X24500Y-22500D01*
X20600Y-22500D02*
X21400Y-22500D01*
X18300Y-22500D02*
X18700Y-22500D01*
X10400Y-22500D02*
X17100Y-22500D01*
X49400Y-22400D02*
X49600Y-22400D01*
X30700Y-22400D02*
X31000Y-22400D01*
X29600Y-22400D02*
X29900Y-22400D01*
X28400Y-22400D02*
X29000Y-22400D01*
X25300Y-22400D02*
X27500Y-22400D01*
X22400Y-22400D02*
X24600Y-22400D01*
X20400Y-22400D02*
X21600Y-22400D01*
X18100Y-22400D02*
X18600Y-22400D01*
X10400Y-22400D02*
X17100Y-22400D01*
X49500Y-22300D02*
X49600Y-22300D01*
X30700Y-22300D02*
X30900Y-22300D01*
X29700Y-22300D02*
X29900Y-22300D01*
X28400Y-22300D02*
X28900Y-22300D01*
X25200Y-22300D02*
X27500Y-22300D01*
X22500Y-22300D02*
X24700Y-22300D01*
X20500Y-22300D02*
X21500Y-22300D01*
X18100Y-22300D02*
X18500Y-22300D01*
X10400Y-22300D02*
X17100Y-22300D01*
X33500Y-22200D02*
X33600Y-22200D01*
X32200Y-22200D02*
X32900Y-22200D01*
X30700Y-22200D02*
X30900Y-22200D01*
X29700Y-22200D02*
X29900Y-22200D01*
X28400Y-22200D02*
X28900Y-22200D01*
X22600Y-22200D02*
X27500Y-22200D01*
X20600Y-22200D02*
X21400Y-22200D01*
X18100Y-22200D02*
X18400Y-22200D01*
X10400Y-22200D02*
X17100Y-22200D01*
X32200Y-22100D02*
X33700Y-22100D01*
X30700Y-22100D02*
X30900Y-22100D01*
X29700Y-22100D02*
X29900Y-22100D01*
X28400Y-22100D02*
X28900Y-22100D01*
X22600Y-22100D02*
X27600Y-22100D01*
X20600Y-22100D02*
X21400Y-22100D01*
X18100Y-22100D02*
X18400Y-22100D01*
X10400Y-22100D02*
X17100Y-22100D01*
X32200Y-22000D02*
X33800Y-22000D01*
X30700Y-22000D02*
X30900Y-22000D01*
X29700Y-22000D02*
X29900Y-22000D01*
X28400Y-22000D02*
X28900Y-22000D01*
X22600Y-22000D02*
X27600Y-22000D01*
X20600Y-22000D02*
X21400Y-22000D01*
X18100Y-22000D02*
X18400Y-22000D01*
X15100Y-22000D02*
X17100Y-22000D01*
X10400Y-22000D02*
X14600Y-22000D01*
X32100Y-21900D02*
X33900Y-21900D01*
X30600Y-21900D02*
X31000Y-21900D01*
X29800Y-21900D02*
X30000Y-21900D01*
X28400Y-21900D02*
X28900Y-21900D01*
X22600Y-21900D02*
X27600Y-21900D01*
X20600Y-21900D02*
X21400Y-21900D01*
X18100Y-21900D02*
X18400Y-21900D01*
X15200Y-21900D02*
X17100Y-21900D01*
X10400Y-21900D02*
X14500Y-21900D01*
X32000Y-21800D02*
X34000Y-21800D01*
X30500Y-21800D02*
X31000Y-21800D01*
X29900Y-21800D02*
X30100Y-21800D01*
X28400Y-21800D02*
X29000Y-21800D01*
X24800Y-21800D02*
X27600Y-21800D01*
X22600Y-21800D02*
X24200Y-21800D01*
X20600Y-21800D02*
X21400Y-21800D01*
X18100Y-21800D02*
X18400Y-21800D01*
X15300Y-21800D02*
X17100Y-21800D01*
X10400Y-21800D02*
X14400Y-21800D01*
X49500Y-21700D02*
X49600Y-21700D01*
X32100Y-21700D02*
X34100Y-21700D01*
X29900Y-21700D02*
X30900Y-21700D01*
X28500Y-21700D02*
X29000Y-21700D01*
X24900Y-21700D02*
X27600Y-21700D01*
X22500Y-21700D02*
X24100Y-21700D01*
X20500Y-21700D02*
X21500Y-21700D01*
X18100Y-21700D02*
X18500Y-21700D01*
X15300Y-21700D02*
X17100Y-21700D01*
X12400Y-21700D02*
X14400Y-21700D01*
X10400Y-21700D02*
X11800Y-21700D01*
X49400Y-21600D02*
X49600Y-21600D01*
X32200Y-21600D02*
X34200Y-21600D01*
X29900Y-21600D02*
X30900Y-21600D01*
X28500Y-21600D02*
X29000Y-21600D01*
X24900Y-21600D02*
X27600Y-21600D01*
X22400Y-21600D02*
X24100Y-21600D01*
X20400Y-21600D02*
X21600Y-21600D01*
X18100Y-21600D02*
X18600Y-21600D01*
X15300Y-21600D02*
X17100Y-21600D01*
X12500Y-21600D02*
X14400Y-21600D01*
X10400Y-21600D02*
X11700Y-21600D01*
X49300Y-21500D02*
X49600Y-21500D01*
X32200Y-21500D02*
X34300Y-21500D01*
X29900Y-21500D02*
X30900Y-21500D01*
X28500Y-21500D02*
X29000Y-21500D01*
X25800Y-21500D02*
X27600Y-21500D01*
X24900Y-21500D02*
X25200Y-21500D01*
X22300Y-21500D02*
X24100Y-21500D01*
X20300Y-21500D02*
X21700Y-21500D01*
X18100Y-21500D02*
X18700Y-21500D01*
X15200Y-21500D02*
X17100Y-21500D01*
X12600Y-21500D02*
X14500Y-21500D01*
X10400Y-21500D02*
X11600Y-21500D01*
X49400Y-21400D02*
X49600Y-21400D01*
X32200Y-21400D02*
X34400Y-21400D01*
X29800Y-21400D02*
X31000Y-21400D01*
X28400Y-21400D02*
X29000Y-21400D01*
X25900Y-21400D02*
X27600Y-21400D01*
X24900Y-21400D02*
X25100Y-21400D01*
X22400Y-21400D02*
X24100Y-21400D01*
X20400Y-21400D02*
X21600Y-21400D01*
X18100Y-21400D02*
X18600Y-21400D01*
X15100Y-21400D02*
X17100Y-21400D01*
X12600Y-21400D02*
X14600Y-21400D01*
X10400Y-21400D02*
X11600Y-21400D01*
X49500Y-21300D02*
X49600Y-21300D01*
X32200Y-21300D02*
X34400Y-21300D01*
X29800Y-21300D02*
X31000Y-21300D01*
X28400Y-21300D02*
X28900Y-21300D01*
X26000Y-21300D02*
X27600Y-21300D01*
X24900Y-21300D02*
X25100Y-21300D01*
X22500Y-21300D02*
X24100Y-21300D01*
X20500Y-21300D02*
X21500Y-21300D01*
X18100Y-21300D02*
X18500Y-21300D01*
X14700Y-21300D02*
X17100Y-21300D01*
X12600Y-21300D02*
X14200Y-21300D01*
X10400Y-21300D02*
X11600Y-21300D01*
X32100Y-21200D02*
X34400Y-21200D01*
X29800Y-21200D02*
X31000Y-21200D01*
X28400Y-21200D02*
X28900Y-21200D01*
X26100Y-21200D02*
X27600Y-21200D01*
X24800Y-21200D02*
X25100Y-21200D01*
X22600Y-21200D02*
X24200Y-21200D01*
X20600Y-21200D02*
X21400Y-21200D01*
X18100Y-21200D02*
X18400Y-21200D01*
X14800Y-21200D02*
X17100Y-21200D01*
X12600Y-21200D02*
X14100Y-21200D01*
X10400Y-21200D02*
X11600Y-21200D01*
X32200Y-21100D02*
X34400Y-21100D01*
X29800Y-21100D02*
X31000Y-21100D01*
X28400Y-21100D02*
X28900Y-21100D01*
X26200Y-21100D02*
X27600Y-21100D01*
X22600Y-21100D02*
X25100Y-21100D01*
X20600Y-21100D02*
X21400Y-21100D01*
X18100Y-21100D02*
X18400Y-21100D01*
X14900Y-21100D02*
X17100Y-21100D01*
X12500Y-21100D02*
X14000Y-21100D01*
X10400Y-21100D02*
X11700Y-21100D01*
X32300Y-21000D02*
X34400Y-21000D01*
X29700Y-21000D02*
X31000Y-21000D01*
X28400Y-21000D02*
X29000Y-21000D01*
X26200Y-21000D02*
X27500Y-21000D01*
X22600Y-21000D02*
X25100Y-21000D01*
X20600Y-21000D02*
X21400Y-21000D01*
X18100Y-21000D02*
X18400Y-21000D01*
X14900Y-21000D02*
X17100Y-21000D01*
X12400Y-21000D02*
X14000Y-21000D01*
X10400Y-21000D02*
X11800Y-21000D01*
X32300Y-20900D02*
X34300Y-20900D01*
X29600Y-20900D02*
X31100Y-20900D01*
X28400Y-20900D02*
X29100Y-20900D01*
X26200Y-20900D02*
X27500Y-20900D01*
X22600Y-20900D02*
X25200Y-20900D01*
X20600Y-20900D02*
X21400Y-20900D01*
X18100Y-20900D02*
X18400Y-20900D01*
X14900Y-20900D02*
X17100Y-20900D01*
X10400Y-20900D02*
X14000Y-20900D01*
X32300Y-20800D02*
X34300Y-20800D01*
X28400Y-20800D02*
X31000Y-20800D01*
X26300Y-20800D02*
X27500Y-20800D01*
X23200Y-20800D02*
X25300Y-20800D01*
X22600Y-20800D02*
X22700Y-20800D01*
X20600Y-20800D02*
X21400Y-20800D01*
X18100Y-20800D02*
X18400Y-20800D01*
X14900Y-20800D02*
X17100Y-20800D01*
X10400Y-20800D02*
X14000Y-20800D01*
X49500Y-20700D02*
X49600Y-20700D01*
X32300Y-20700D02*
X34300Y-20700D01*
X28400Y-20700D02*
X30900Y-20700D01*
X26400Y-20700D02*
X27600Y-20700D01*
X23300Y-20700D02*
X25400Y-20700D01*
X22500Y-20700D02*
X22600Y-20700D01*
X20500Y-20700D02*
X21500Y-20700D01*
X18100Y-20700D02*
X18500Y-20700D01*
X14800Y-20700D02*
X17100Y-20700D01*
X10400Y-20700D02*
X14100Y-20700D01*
X49400Y-20600D02*
X49600Y-20600D01*
X34100Y-20600D02*
X34300Y-20600D01*
X32200Y-20600D02*
X33700Y-20600D01*
X28400Y-20600D02*
X30900Y-20600D01*
X26400Y-20600D02*
X27600Y-20600D01*
X23400Y-20600D02*
X25500Y-20600D01*
X22400Y-20600D02*
X22500Y-20600D01*
X20400Y-20600D02*
X21600Y-20600D01*
X19400Y-20600D02*
X19600Y-20600D01*
X18100Y-20600D02*
X18600Y-20600D01*
X14700Y-20600D02*
X17100Y-20600D01*
X10400Y-20600D02*
X14200Y-20600D01*
X49300Y-20500D02*
X49600Y-20500D01*
X34200Y-20500D02*
X34300Y-20500D01*
X32100Y-20500D02*
X33600Y-20500D01*
X28400Y-20500D02*
X30900Y-20500D01*
X26400Y-20500D02*
X27600Y-20500D01*
X23400Y-20500D02*
X25500Y-20500D01*
X22300Y-20500D02*
X22500Y-20500D01*
X20300Y-20500D02*
X21700Y-20500D01*
X19300Y-20500D02*
X19700Y-20500D01*
X18100Y-20500D02*
X18700Y-20500D01*
X10400Y-20500D02*
X17100Y-20500D01*
X49400Y-20400D02*
X49600Y-20400D01*
X32100Y-20400D02*
X33500Y-20400D01*
X28400Y-20400D02*
X30900Y-20400D01*
X26300Y-20400D02*
X27600Y-20400D01*
X23400Y-20400D02*
X25300Y-20400D01*
X22400Y-20400D02*
X22500Y-20400D01*
X20400Y-20400D02*
X21600Y-20400D01*
X19400Y-20400D02*
X19600Y-20400D01*
X18100Y-20400D02*
X18600Y-20400D01*
X10400Y-20400D02*
X17100Y-20400D01*
X49500Y-20300D02*
X49600Y-20300D01*
X32200Y-20300D02*
X33500Y-20300D01*
X28500Y-20300D02*
X31000Y-20300D01*
X26300Y-20300D02*
X27600Y-20300D01*
X23400Y-20300D02*
X25200Y-20300D01*
X20500Y-20300D02*
X21500Y-20300D01*
X18200Y-20300D02*
X18500Y-20300D01*
X10400Y-20300D02*
X17100Y-20300D01*
X32300Y-20200D02*
X33500Y-20200D01*
X28500Y-20200D02*
X31000Y-20200D01*
X26400Y-20200D02*
X27600Y-20200D01*
X23300Y-20200D02*
X25000Y-20200D01*
X20600Y-20200D02*
X21400Y-20200D01*
X18300Y-20200D02*
X18400Y-20200D01*
X10400Y-20200D02*
X17200Y-20200D01*
X32300Y-20100D02*
X33500Y-20100D01*
X28500Y-20100D02*
X31000Y-20100D01*
X26500Y-20100D02*
X27600Y-20100D01*
X23200Y-20100D02*
X24900Y-20100D01*
X22600Y-20100D02*
X22700Y-20100D01*
X20600Y-20100D02*
X21400Y-20100D01*
X10400Y-20100D02*
X17200Y-20100D01*
X32300Y-20000D02*
X33600Y-20000D01*
X28400Y-20000D02*
X31000Y-20000D01*
X26500Y-20000D02*
X27700Y-20000D01*
X22600Y-20000D02*
X24800Y-20000D01*
X20600Y-20000D02*
X21400Y-20000D01*
X10400Y-20000D02*
X17300Y-20000D01*
X32300Y-19900D02*
X33700Y-19900D01*
X28300Y-19900D02*
X31100Y-19900D01*
X26600Y-19900D02*
X27800Y-19900D01*
X22600Y-19900D02*
X24800Y-19900D01*
X20600Y-19900D02*
X21400Y-19900D01*
X14300Y-19900D02*
X17400Y-19900D01*
X10400Y-19900D02*
X13700Y-19900D01*
X32200Y-19800D02*
X33700Y-19800D01*
X26700Y-19800D02*
X31100Y-19800D01*
X22600Y-19800D02*
X24800Y-19800D01*
X20600Y-19800D02*
X21400Y-19800D01*
X14400Y-19800D02*
X17500Y-19800D01*
X10400Y-19800D02*
X13600Y-19800D01*
X49500Y-19700D02*
X49600Y-19700D01*
X32100Y-19700D02*
X33700Y-19700D01*
X26700Y-19700D02*
X31000Y-19700D01*
X25600Y-19700D02*
X25700Y-19700D01*
X22500Y-19700D02*
X24900Y-19700D01*
X20500Y-19700D02*
X21500Y-19700D01*
X14400Y-19700D02*
X17600Y-19700D01*
X10400Y-19700D02*
X13600Y-19700D01*
X49400Y-19600D02*
X49600Y-19600D01*
X31900Y-19600D02*
X33600Y-19600D01*
X26700Y-19600D02*
X30900Y-19600D01*
X25500Y-19600D02*
X25800Y-19600D01*
X22400Y-19600D02*
X25000Y-19600D01*
X20400Y-19600D02*
X21600Y-19600D01*
X19400Y-19600D02*
X19600Y-19600D01*
X14400Y-19600D02*
X17700Y-19600D01*
X12400Y-19600D02*
X13600Y-19600D01*
X10400Y-19600D02*
X11800Y-19600D01*
X49300Y-19500D02*
X49600Y-19500D01*
X48600Y-19500D02*
X48700Y-19500D01*
X31800Y-19500D02*
X33500Y-19500D01*
X26700Y-19500D02*
X30900Y-19500D01*
X22300Y-19500D02*
X25800Y-19500D01*
X20300Y-19500D02*
X21700Y-19500D01*
X19300Y-19500D02*
X19700Y-19500D01*
X14400Y-19500D02*
X17800Y-19500D01*
X12500Y-19500D02*
X13600Y-19500D01*
X10400Y-19500D02*
X11700Y-19500D01*
X49400Y-19400D02*
X49600Y-19400D01*
X31900Y-19400D02*
X33500Y-19400D01*
X26600Y-19400D02*
X30900Y-19400D01*
X22400Y-19400D02*
X25900Y-19400D01*
X19100Y-19400D02*
X21600Y-19400D01*
X14400Y-19400D02*
X17900Y-19400D01*
X12600Y-19400D02*
X13600Y-19400D01*
X10400Y-19400D02*
X11600Y-19400D01*
X49500Y-19300D02*
X49600Y-19300D01*
X32000Y-19300D02*
X33500Y-19300D01*
X26500Y-19300D02*
X30900Y-19300D01*
X25400Y-19300D02*
X26000Y-19300D01*
X22500Y-19300D02*
X24800Y-19300D01*
X19200Y-19300D02*
X21500Y-19300D01*
X14300Y-19300D02*
X18000Y-19300D01*
X12600Y-19300D02*
X13700Y-19300D01*
X10400Y-19300D02*
X11600Y-19300D01*
X32000Y-19200D02*
X33500Y-19200D01*
X25500Y-19200D02*
X31000Y-19200D01*
X22600Y-19200D02*
X24700Y-19200D01*
X19300Y-19200D02*
X21400Y-19200D01*
X12600Y-19200D02*
X18100Y-19200D01*
X10400Y-19200D02*
X11600Y-19200D01*
X34300Y-19100D02*
X34500Y-19100D01*
X32000Y-19100D02*
X33600Y-19100D01*
X25500Y-19100D02*
X31100Y-19100D01*
X22600Y-19100D02*
X24700Y-19100D01*
X19400Y-19100D02*
X21400Y-19100D01*
X12600Y-19100D02*
X18200Y-19100D01*
X10400Y-19100D02*
X11600Y-19100D01*
X34200Y-19000D02*
X34500Y-19000D01*
X32200Y-19000D02*
X33600Y-19000D01*
X26300Y-19000D02*
X31100Y-19000D01*
X25500Y-19000D02*
X25800Y-19000D01*
X23400Y-19000D02*
X24700Y-19000D01*
X22600Y-19000D02*
X22900Y-19000D01*
X19400Y-19000D02*
X21400Y-19000D01*
X12500Y-19000D02*
X18300Y-19000D01*
X10400Y-19000D02*
X11700Y-19000D01*
X34200Y-18900D02*
X34500Y-18900D01*
X32300Y-18900D02*
X33500Y-18900D01*
X26400Y-18900D02*
X31200Y-18900D01*
X25500Y-18900D02*
X25700Y-18900D01*
X23500Y-18900D02*
X24700Y-18900D01*
X22600Y-18900D02*
X22800Y-18900D01*
X19500Y-18900D02*
X21400Y-18900D01*
X12400Y-18900D02*
X18400Y-18900D01*
X10400Y-18900D02*
X11800Y-18900D01*
X34300Y-18800D02*
X34500Y-18800D01*
X32400Y-18800D02*
X33400Y-18800D01*
X26500Y-18800D02*
X31300Y-18800D01*
X25500Y-18800D02*
X25600Y-18800D01*
X23600Y-18800D02*
X24700Y-18800D01*
X22600Y-18800D02*
X22700Y-18800D01*
X19500Y-18800D02*
X21400Y-18800D01*
X10400Y-18800D02*
X18500Y-18800D01*
X49500Y-18700D02*
X49600Y-18700D01*
X34300Y-18700D02*
X34500Y-18700D01*
X32400Y-18700D02*
X33400Y-18700D01*
X26600Y-18700D02*
X31500Y-18700D01*
X25400Y-18700D02*
X25600Y-18700D01*
X23600Y-18700D02*
X24800Y-18700D01*
X22500Y-18700D02*
X22700Y-18700D01*
X19500Y-18700D02*
X21500Y-18700D01*
X10400Y-18700D02*
X18500Y-18700D01*
X49400Y-18600D02*
X49600Y-18600D01*
X34300Y-18600D02*
X34500Y-18600D01*
X32400Y-18600D02*
X33300Y-18600D01*
X26700Y-18600D02*
X31500Y-18600D01*
X23600Y-18600D02*
X25600Y-18600D01*
X22400Y-18600D02*
X22700Y-18600D01*
X19500Y-18600D02*
X21600Y-18600D01*
X10400Y-18600D02*
X18500Y-18600D01*
X49300Y-18500D02*
X49600Y-18500D01*
X34300Y-18500D02*
X34500Y-18500D01*
X32400Y-18500D02*
X33200Y-18500D01*
X29500Y-18500D02*
X31400Y-18500D01*
X28300Y-18500D02*
X28900Y-18500D01*
X26700Y-18500D02*
X27900Y-18500D01*
X23500Y-18500D02*
X25700Y-18500D01*
X22300Y-18500D02*
X22800Y-18500D01*
X20300Y-18500D02*
X21700Y-18500D01*
X19500Y-18500D02*
X19700Y-18500D01*
X10400Y-18500D02*
X18500Y-18500D01*
X49400Y-18400D02*
X49600Y-18400D01*
X34200Y-18400D02*
X34500Y-18400D01*
X32400Y-18400D02*
X33200Y-18400D01*
X29600Y-18400D02*
X31300Y-18400D01*
X28400Y-18400D02*
X28800Y-18400D01*
X26700Y-18400D02*
X27800Y-18400D01*
X23400Y-18400D02*
X25800Y-18400D01*
X22400Y-18400D02*
X22900Y-18400D01*
X20400Y-18400D02*
X21600Y-18400D01*
X19500Y-18400D02*
X19600Y-18400D01*
X16500Y-18400D02*
X18500Y-18400D01*
X15000Y-18400D02*
X16000Y-18400D01*
X10400Y-18400D02*
X14500Y-18400D01*
X49500Y-18300D02*
X49600Y-18300D01*
X34100Y-18300D02*
X34500Y-18300D01*
X32400Y-18300D02*
X33200Y-18300D01*
X29600Y-18300D02*
X31100Y-18300D01*
X28500Y-18300D02*
X28800Y-18300D01*
X26700Y-18300D02*
X27700Y-18300D01*
X22500Y-18300D02*
X25500Y-18300D01*
X20500Y-18300D02*
X21500Y-18300D01*
X16600Y-18300D02*
X18500Y-18300D01*
X15100Y-18300D02*
X15900Y-18300D01*
X10400Y-18300D02*
X14400Y-18300D01*
X34200Y-18200D02*
X34500Y-18200D01*
X32400Y-18200D02*
X33200Y-18200D01*
X29600Y-18200D02*
X31000Y-18200D01*
X28500Y-18200D02*
X28800Y-18200D01*
X26600Y-18200D02*
X27700Y-18200D01*
X22600Y-18200D02*
X25400Y-18200D01*
X20600Y-18200D02*
X21400Y-18200D01*
X16700Y-18200D02*
X18400Y-18200D01*
X15200Y-18200D02*
X15800Y-18200D01*
X10400Y-18200D02*
X14300Y-18200D01*
X34200Y-18100D02*
X34500Y-18100D01*
X32300Y-18100D02*
X33300Y-18100D01*
X29600Y-18100D02*
X30800Y-18100D01*
X28500Y-18100D02*
X28800Y-18100D01*
X26500Y-18100D02*
X27700Y-18100D01*
X22600Y-18100D02*
X25400Y-18100D01*
X20600Y-18100D02*
X21400Y-18100D01*
X16700Y-18100D02*
X18400Y-18100D01*
X15200Y-18100D02*
X15800Y-18100D01*
X10400Y-18100D02*
X14300Y-18100D01*
X34200Y-18000D02*
X34500Y-18000D01*
X32200Y-18000D02*
X33300Y-18000D01*
X29600Y-18000D02*
X30700Y-18000D01*
X28500Y-18000D02*
X28800Y-18000D01*
X26200Y-18000D02*
X27700Y-18000D01*
X22600Y-18000D02*
X25400Y-18000D01*
X20600Y-18000D02*
X21400Y-18000D01*
X16700Y-18000D02*
X18400Y-18000D01*
X15200Y-18000D02*
X15800Y-18000D01*
X10400Y-18000D02*
X14300Y-18000D01*
X34200Y-17900D02*
X34500Y-17900D01*
X32000Y-17900D02*
X33200Y-17900D01*
X29500Y-17900D02*
X30600Y-17900D01*
X28400Y-17900D02*
X28900Y-17900D01*
X26200Y-17900D02*
X27800Y-17900D01*
X22600Y-17900D02*
X25400Y-17900D01*
X20600Y-17900D02*
X21400Y-17900D01*
X16600Y-17900D02*
X18400Y-17900D01*
X15100Y-17900D02*
X15900Y-17900D01*
X10400Y-17900D02*
X14400Y-17900D01*
X34100Y-17800D02*
X34500Y-17800D01*
X31900Y-17800D02*
X33200Y-17800D01*
X28300Y-17800D02*
X30500Y-17800D01*
X26200Y-17800D02*
X27900Y-17800D01*
X22600Y-17800D02*
X25400Y-17800D01*
X20600Y-17800D02*
X21400Y-17800D01*
X16500Y-17800D02*
X18400Y-17800D01*
X15000Y-17800D02*
X16000Y-17800D01*
X10400Y-17800D02*
X14500Y-17800D01*
X49500Y-17700D02*
X49600Y-17700D01*
X34000Y-17700D02*
X34500Y-17700D01*
X31700Y-17700D02*
X33200Y-17700D01*
X26200Y-17700D02*
X30400Y-17700D01*
X22500Y-17700D02*
X25400Y-17700D01*
X21300Y-17700D02*
X21500Y-17700D01*
X20500Y-17700D02*
X20700Y-17700D01*
X10400Y-17700D02*
X18500Y-17700D01*
X49400Y-17600D02*
X49600Y-17600D01*
X34000Y-17600D02*
X34500Y-17600D01*
X31600Y-17600D02*
X33200Y-17600D01*
X26200Y-17600D02*
X30300Y-17600D01*
X22400Y-17600D02*
X25400Y-17600D01*
X21400Y-17600D02*
X21600Y-17600D01*
X20400Y-17600D02*
X20600Y-17600D01*
X10400Y-17600D02*
X18500Y-17600D01*
X49300Y-17500D02*
X49600Y-17500D01*
X34000Y-17500D02*
X34500Y-17500D01*
X31400Y-17500D02*
X33200Y-17500D01*
X28400Y-17500D02*
X30300Y-17500D01*
X26200Y-17500D02*
X27000Y-17500D01*
X22300Y-17500D02*
X25400Y-17500D01*
X21400Y-17500D02*
X21700Y-17500D01*
X20300Y-17500D02*
X20600Y-17500D01*
X10400Y-17500D02*
X18500Y-17500D01*
X49400Y-17400D02*
X49600Y-17400D01*
X33900Y-17400D02*
X34500Y-17400D01*
X31300Y-17400D02*
X33300Y-17400D01*
X28500Y-17400D02*
X30300Y-17400D01*
X26200Y-17400D02*
X26900Y-17400D01*
X23300Y-17400D02*
X25400Y-17400D01*
X21400Y-17400D02*
X22700Y-17400D01*
X20400Y-17400D02*
X20600Y-17400D01*
X10400Y-17400D02*
X18500Y-17400D01*
X49500Y-17300D02*
X49600Y-17300D01*
X31100Y-17300D02*
X34500Y-17300D01*
X28500Y-17300D02*
X30300Y-17300D01*
X26100Y-17300D02*
X26900Y-17300D01*
X23400Y-17300D02*
X25500Y-17300D01*
X21400Y-17300D02*
X22600Y-17300D01*
X20500Y-17300D02*
X20600Y-17300D01*
X10400Y-17300D02*
X18500Y-17300D01*
X31100Y-17200D02*
X34500Y-17200D01*
X28500Y-17200D02*
X30300Y-17200D01*
X26000Y-17200D02*
X26900Y-17200D01*
X23400Y-17200D02*
X25600Y-17200D01*
X21400Y-17200D02*
X22600Y-17200D01*
X10400Y-17200D02*
X18400Y-17200D01*
X31100Y-17100D02*
X34500Y-17100D01*
X28500Y-17100D02*
X30300Y-17100D01*
X23600Y-17100D02*
X26900Y-17100D01*
X21300Y-17100D02*
X22300Y-17100D01*
X20600Y-17100D02*
X20700Y-17100D01*
X10400Y-17100D02*
X18400Y-17100D01*
X31100Y-17000D02*
X34500Y-17000D01*
X28500Y-17000D02*
X30300Y-17000D01*
X23700Y-17000D02*
X26900Y-17000D01*
X20600Y-17000D02*
X22200Y-17000D01*
X10400Y-17000D02*
X18400Y-17000D01*
X31100Y-16900D02*
X34500Y-16900D01*
X28400Y-16900D02*
X30300Y-16900D01*
X23800Y-16900D02*
X27000Y-16900D01*
X20600Y-16900D02*
X22200Y-16900D01*
X10400Y-16900D02*
X18400Y-16900D01*
X31100Y-16800D02*
X34500Y-16800D01*
X23800Y-16800D02*
X30300Y-16800D01*
X20600Y-16800D02*
X22200Y-16800D01*
X10400Y-16800D02*
X18400Y-16800D01*
X49500Y-16700D02*
X49600Y-16700D01*
X31100Y-16700D02*
X34500Y-16700D01*
X23800Y-16700D02*
X30300Y-16700D01*
X20500Y-16700D02*
X22200Y-16700D01*
X14700Y-16700D02*
X18500Y-16700D01*
X10400Y-16700D02*
X14300Y-16700D01*
X49400Y-16600D02*
X49600Y-16600D01*
X31100Y-16600D02*
X34500Y-16600D01*
X23700Y-16600D02*
X30300Y-16600D01*
X20400Y-16600D02*
X22200Y-16600D01*
X14800Y-16600D02*
X18500Y-16600D01*
X10400Y-16600D02*
X14200Y-16600D01*
X49300Y-16500D02*
X49600Y-16500D01*
X31000Y-16500D02*
X34500Y-16500D01*
X23600Y-16500D02*
X30400Y-16500D01*
X23000Y-16500D02*
X23100Y-16500D01*
X20300Y-16500D02*
X22200Y-16500D01*
X14900Y-16500D02*
X18500Y-16500D01*
X10400Y-16500D02*
X14100Y-16500D01*
X49400Y-16400D02*
X49600Y-16400D01*
X30900Y-16400D02*
X34300Y-16400D01*
X23000Y-16400D02*
X30500Y-16400D01*
X20400Y-16400D02*
X22200Y-16400D01*
X14900Y-16400D02*
X18500Y-16400D01*
X10400Y-16400D02*
X14100Y-16400D01*
X49500Y-16300D02*
X49600Y-16300D01*
X33500Y-16300D02*
X34200Y-16300D01*
X23000Y-16300D02*
X33000Y-16300D01*
X20500Y-16300D02*
X22200Y-16300D01*
X14900Y-16300D02*
X18500Y-16300D01*
X10400Y-16300D02*
X14100Y-16300D01*
X33600Y-16200D02*
X34100Y-16200D01*
X23000Y-16200D02*
X32900Y-16200D01*
X20600Y-16200D02*
X22200Y-16200D01*
X16000Y-16200D02*
X18400Y-16200D01*
X14900Y-16200D02*
X15600Y-16200D01*
X10400Y-16200D02*
X14100Y-16200D01*
X33700Y-16100D02*
X34100Y-16100D01*
X23000Y-16100D02*
X32800Y-16100D01*
X20600Y-16100D02*
X22200Y-16100D01*
X16100Y-16100D02*
X18400Y-16100D01*
X14800Y-16100D02*
X15500Y-16100D01*
X10400Y-16100D02*
X14200Y-16100D01*
X33700Y-16000D02*
X34100Y-16000D01*
X22900Y-16000D02*
X32800Y-16000D01*
X20600Y-16000D02*
X22300Y-16000D01*
X16200Y-16000D02*
X18400Y-16000D01*
X14700Y-16000D02*
X15400Y-16000D01*
X10400Y-16000D02*
X14300Y-16000D01*
X33700Y-15900D02*
X34100Y-15900D01*
X25400Y-15900D02*
X32800Y-15900D01*
X20600Y-15900D02*
X24800Y-15900D01*
X16200Y-15900D02*
X18400Y-15900D01*
X10400Y-15900D02*
X15400Y-15900D01*
X33700Y-15800D02*
X34200Y-15800D01*
X25500Y-15800D02*
X32800Y-15800D01*
X20600Y-15800D02*
X24700Y-15800D01*
X16200Y-15800D02*
X18400Y-15800D01*
X10400Y-15800D02*
X15400Y-15800D01*
X49500Y-15700D02*
X49600Y-15700D01*
X33600Y-15700D02*
X34300Y-15700D01*
X28600Y-15700D02*
X32900Y-15700D01*
X25500Y-15700D02*
X28100Y-15700D01*
X20500Y-15700D02*
X24700Y-15700D01*
X16200Y-15700D02*
X18500Y-15700D01*
X10400Y-15700D02*
X15400Y-15700D01*
X49400Y-15600D02*
X49600Y-15600D01*
X33900Y-15600D02*
X34500Y-15600D01*
X28700Y-15600D02*
X33000Y-15600D01*
X26500Y-15600D02*
X28000Y-15600D01*
X25800Y-15600D02*
X26000Y-15600D01*
X21600Y-15600D02*
X24700Y-15600D01*
X20400Y-15600D02*
X21100Y-15600D01*
X16100Y-15600D02*
X18500Y-15600D01*
X10400Y-15600D02*
X15500Y-15600D01*
X49300Y-15500D02*
X49600Y-15500D01*
X34000Y-15500D02*
X34500Y-15500D01*
X28800Y-15500D02*
X33400Y-15500D01*
X26600Y-15500D02*
X27900Y-15500D01*
X21700Y-15500D02*
X24700Y-15500D01*
X20300Y-15500D02*
X21000Y-15500D01*
X16000Y-15500D02*
X18400Y-15500D01*
X10400Y-15500D02*
X15600Y-15500D01*
X49400Y-15400D02*
X49600Y-15400D01*
X34100Y-15400D02*
X34500Y-15400D01*
X28800Y-15400D02*
X33300Y-15400D01*
X26700Y-15400D02*
X27900Y-15400D01*
X21800Y-15400D02*
X24700Y-15400D01*
X20400Y-15400D02*
X20900Y-15400D01*
X10400Y-15400D02*
X17100Y-15400D01*
X49500Y-15300D02*
X49600Y-15300D01*
X34100Y-15300D02*
X34500Y-15300D01*
X32100Y-15300D02*
X33300Y-15300D01*
X28800Y-15300D02*
X31600Y-15300D01*
X26700Y-15300D02*
X27900Y-15300D01*
X22500Y-15300D02*
X24800Y-15300D01*
X21800Y-15300D02*
X22100Y-15300D01*
X20500Y-15300D02*
X20900Y-15300D01*
X10400Y-15300D02*
X17000Y-15300D01*
X34100Y-15200D02*
X34500Y-15200D01*
X32200Y-15200D02*
X33300Y-15200D01*
X28800Y-15200D02*
X31500Y-15200D01*
X26700Y-15200D02*
X27900Y-15200D01*
X22600Y-15200D02*
X25100Y-15200D01*
X21800Y-15200D02*
X22000Y-15200D01*
X20600Y-15200D02*
X20900Y-15200D01*
X13400Y-15200D02*
X16900Y-15200D01*
X10400Y-15200D02*
X12900Y-15200D01*
X34100Y-15100D02*
X34500Y-15100D01*
X32300Y-15100D02*
X33300Y-15100D01*
X28700Y-15100D02*
X31400Y-15100D01*
X26700Y-15100D02*
X28000Y-15100D01*
X22700Y-15100D02*
X25100Y-15100D01*
X21800Y-15100D02*
X21900Y-15100D01*
X20600Y-15100D02*
X20900Y-15100D01*
X13500Y-15100D02*
X16800Y-15100D01*
X10400Y-15100D02*
X12800Y-15100D01*
X34200Y-15000D02*
X34500Y-15000D01*
X32300Y-15000D02*
X33400Y-15000D01*
X29500Y-15000D02*
X31400Y-15000D01*
X28700Y-15000D02*
X28900Y-15000D01*
X26600Y-15000D02*
X27900Y-15000D01*
X24300Y-15000D02*
X25200Y-15000D01*
X22700Y-15000D02*
X23800Y-15000D01*
X21700Y-15000D02*
X21900Y-15000D01*
X20600Y-15000D02*
X21000Y-15000D01*
X13600Y-15000D02*
X16800Y-15000D01*
X10400Y-15000D02*
X12700Y-15000D01*
X34300Y-14900D02*
X34500Y-14900D01*
X32400Y-14900D02*
X33400Y-14900D01*
X31200Y-14900D02*
X31400Y-14900D01*
X29600Y-14900D02*
X30400Y-14900D01*
X28700Y-14900D02*
X28800Y-14900D01*
X26500Y-14900D02*
X27900Y-14900D01*
X24400Y-14900D02*
X25300Y-14900D01*
X22700Y-14900D02*
X23700Y-14900D01*
X21600Y-14900D02*
X21900Y-14900D01*
X20600Y-14900D02*
X21100Y-14900D01*
X13600Y-14900D02*
X16800Y-14900D01*
X10400Y-14900D02*
X12700Y-14900D01*
X34300Y-14800D02*
X34500Y-14800D01*
X32500Y-14800D02*
X33400Y-14800D01*
X31300Y-14800D02*
X31400Y-14800D01*
X29600Y-14800D02*
X30300Y-14800D01*
X28700Y-14800D02*
X28800Y-14800D01*
X26400Y-14800D02*
X27900Y-14800D01*
X24500Y-14800D02*
X25700Y-14800D01*
X22700Y-14800D02*
X23600Y-14800D01*
X20600Y-14800D02*
X21900Y-14800D01*
X13600Y-14800D02*
X16800Y-14800D01*
X10400Y-14800D02*
X12700Y-14800D01*
X49500Y-14700D02*
X49600Y-14700D01*
X34300Y-14700D02*
X34500Y-14700D01*
X32600Y-14700D02*
X33400Y-14700D01*
X29600Y-14700D02*
X30200Y-14700D01*
X28700Y-14700D02*
X28800Y-14700D01*
X26500Y-14700D02*
X27900Y-14700D01*
X24500Y-14700D02*
X25900Y-14700D01*
X22600Y-14700D02*
X23600Y-14700D01*
X20500Y-14700D02*
X22000Y-14700D01*
X13500Y-14700D02*
X16800Y-14700D01*
X10400Y-14700D02*
X12800Y-14700D01*
X49400Y-14600D02*
X49600Y-14600D01*
X34200Y-14600D02*
X34500Y-14600D01*
X32600Y-14600D02*
X33500Y-14600D01*
X29600Y-14600D02*
X30200Y-14600D01*
X28700Y-14600D02*
X28800Y-14600D01*
X26600Y-14600D02*
X27900Y-14600D01*
X24500Y-14600D02*
X25800Y-14600D01*
X22500Y-14600D02*
X23600Y-14600D01*
X20400Y-14600D02*
X22100Y-14600D01*
X18100Y-14600D02*
X18400Y-14600D01*
X13400Y-14600D02*
X16900Y-14600D01*
X10400Y-14600D02*
X12900Y-14600D01*
X49300Y-14500D02*
X49600Y-14500D01*
X48600Y-14500D02*
X48700Y-14500D01*
X34100Y-14500D02*
X34500Y-14500D01*
X32600Y-14500D02*
X33600Y-14500D01*
X29600Y-14500D02*
X30200Y-14500D01*
X28700Y-14500D02*
X28800Y-14500D01*
X26600Y-14500D02*
X27900Y-14500D01*
X24500Y-14500D02*
X25800Y-14500D01*
X20300Y-14500D02*
X23600Y-14500D01*
X19600Y-14500D02*
X19700Y-14500D01*
X18100Y-14500D02*
X18400Y-14500D01*
X13100Y-14500D02*
X17100Y-14500D01*
X10400Y-14500D02*
X12600Y-14500D01*
X49400Y-14400D02*
X49600Y-14400D01*
X48400Y-14400D02*
X48600Y-14400D01*
X32600Y-14400D02*
X34500Y-14400D01*
X29500Y-14400D02*
X30200Y-14400D01*
X26600Y-14400D02*
X27900Y-14400D01*
X24400Y-14400D02*
X25800Y-14400D01*
X18100Y-14400D02*
X23700Y-14400D01*
X13200Y-14400D02*
X17300Y-14400D01*
X10400Y-14400D02*
X12500Y-14400D01*
X49500Y-14300D02*
X49600Y-14300D01*
X32500Y-14300D02*
X34500Y-14300D01*
X29500Y-14300D02*
X30300Y-14300D01*
X26600Y-14300D02*
X27900Y-14300D01*
X24300Y-14300D02*
X25800Y-14300D01*
X18100Y-14300D02*
X23800Y-14300D01*
X13300Y-14300D02*
X17300Y-14300D01*
X10400Y-14300D02*
X12400Y-14300D01*
X32400Y-14200D02*
X34500Y-14200D01*
X31800Y-14200D02*
X31900Y-14200D01*
X29500Y-14200D02*
X30400Y-14200D01*
X26500Y-14200D02*
X27900Y-14200D01*
X18000Y-14200D02*
X25900Y-14200D01*
X13300Y-14200D02*
X17400Y-14200D01*
X10400Y-14200D02*
X12400Y-14200D01*
X31700Y-14100D02*
X34500Y-14100D01*
X29500Y-14100D02*
X30400Y-14100D01*
X26400Y-14100D02*
X27900Y-14100D01*
X17900Y-14100D02*
X26000Y-14100D01*
X13300Y-14100D02*
X17500Y-14100D01*
X10400Y-14100D02*
X12300Y-14100D01*
X31100Y-14000D02*
X34500Y-14000D01*
X29400Y-14000D02*
X30500Y-14000D01*
X28700Y-14000D02*
X28800Y-14000D01*
X13200Y-14000D02*
X27900Y-14000D01*
X10400Y-14000D02*
X12200Y-14000D01*
X31000Y-13900D02*
X34500Y-13900D01*
X29300Y-13900D02*
X30600Y-13900D01*
X28700Y-13900D02*
X28900Y-13900D01*
X13100Y-13900D02*
X27900Y-13900D01*
X10400Y-13900D02*
X12100Y-13900D01*
X31600Y-13800D02*
X34500Y-13800D01*
X28700Y-13800D02*
X31000Y-13800D01*
X13000Y-13800D02*
X27900Y-13800D01*
X10400Y-13800D02*
X12100Y-13800D01*
X49500Y-13700D02*
X49600Y-13700D01*
X31700Y-13700D02*
X34500Y-13700D01*
X28600Y-13700D02*
X30900Y-13700D01*
X13000Y-13700D02*
X27900Y-13700D01*
X11700Y-13700D02*
X12100Y-13700D01*
X10400Y-13700D02*
X11100Y-13700D01*
X49400Y-13600D02*
X49600Y-13600D01*
X48400Y-13600D02*
X48600Y-13600D01*
X31700Y-13600D02*
X34500Y-13600D01*
X28700Y-13600D02*
X30900Y-13600D01*
X18000Y-13600D02*
X27800Y-13600D01*
X12900Y-13600D02*
X17400Y-13600D01*
X11800Y-13600D02*
X12200Y-13600D01*
X10700Y-13600D02*
X11000Y-13600D01*
X49300Y-13500D02*
X49600Y-13500D01*
X48300Y-13500D02*
X48700Y-13500D01*
X47600Y-13500D02*
X47700Y-13500D01*
X31800Y-13500D02*
X34500Y-13500D01*
X28700Y-13500D02*
X30900Y-13500D01*
X18100Y-13500D02*
X27700Y-13500D01*
X12800Y-13500D02*
X17300Y-13500D01*
X11800Y-13500D02*
X12300Y-13500D01*
X10800Y-13500D02*
X11000Y-13500D01*
X49400Y-13400D02*
X49600Y-13400D01*
X48400Y-13400D02*
X48600Y-13400D01*
X31900Y-13400D02*
X34500Y-13400D01*
X28700Y-13400D02*
X30900Y-13400D01*
X18100Y-13400D02*
X27600Y-13400D01*
X11800Y-13400D02*
X17300Y-13400D01*
X10800Y-13400D02*
X11000Y-13400D01*
X49500Y-13300D02*
X49600Y-13300D01*
X32000Y-13300D02*
X34500Y-13300D01*
X28600Y-13300D02*
X30900Y-13300D01*
X18100Y-13300D02*
X27600Y-13300D01*
X11800Y-13300D02*
X17300Y-13300D01*
X10800Y-13300D02*
X11000Y-13300D01*
X32100Y-13200D02*
X34500Y-13200D01*
X28700Y-13200D02*
X31000Y-13200D01*
X18100Y-13200D02*
X27600Y-13200D01*
X11800Y-13200D02*
X17300Y-13200D01*
X10800Y-13200D02*
X11000Y-13200D01*
X32200Y-13100D02*
X34500Y-13100D01*
X28800Y-13100D02*
X31100Y-13100D01*
X18100Y-13100D02*
X27600Y-13100D01*
X11700Y-13100D02*
X17300Y-13100D01*
X10800Y-13100D02*
X11100Y-13100D01*
X32300Y-13000D02*
X34500Y-13000D01*
X28900Y-13000D02*
X31100Y-13000D01*
X18000Y-13000D02*
X27600Y-13000D01*
X14800Y-13000D02*
X17400Y-13000D01*
X10700Y-13000D02*
X14300Y-13000D01*
X32300Y-12900D02*
X34600Y-12900D01*
X29000Y-12900D02*
X31200Y-12900D01*
X14900Y-12900D02*
X27700Y-12900D01*
X10400Y-12900D02*
X14200Y-12900D01*
X32300Y-12800D02*
X34700Y-12800D01*
X29100Y-12800D02*
X31300Y-12800D01*
X15000Y-12800D02*
X28000Y-12800D01*
X10400Y-12800D02*
X14100Y-12800D01*
X49500Y-12700D02*
X49600Y-12700D01*
X32300Y-12700D02*
X34800Y-12700D01*
X29100Y-12700D02*
X31500Y-12700D01*
X15000Y-12700D02*
X28000Y-12700D01*
X10400Y-12700D02*
X14100Y-12700D01*
X49400Y-12600D02*
X49600Y-12600D01*
X48400Y-12600D02*
X48600Y-12600D01*
X32300Y-12600D02*
X34900Y-12600D01*
X31300Y-12600D02*
X31600Y-12600D01*
X30300Y-12600D02*
X30700Y-12600D01*
X29300Y-12600D02*
X29700Y-12600D01*
X15000Y-12600D02*
X28100Y-12600D01*
X12900Y-12600D02*
X14100Y-12600D01*
X10400Y-12600D02*
X12400Y-12600D01*
X49300Y-12500D02*
X49600Y-12500D01*
X48300Y-12500D02*
X48700Y-12500D01*
X47600Y-12500D02*
X47700Y-12500D01*
X32400Y-12500D02*
X35000Y-12500D01*
X31400Y-12500D02*
X31600Y-12500D01*
X30400Y-12500D02*
X30600Y-12500D01*
X29400Y-12500D02*
X29600Y-12500D01*
X15000Y-12500D02*
X28200Y-12500D01*
X13000Y-12500D02*
X14100Y-12500D01*
X10400Y-12500D02*
X12300Y-12500D01*
X47600Y-12400D02*
X49600Y-12400D01*
X32400Y-12400D02*
X35100Y-12400D01*
X31400Y-12400D02*
X31600Y-12400D01*
X30400Y-12400D02*
X30600Y-12400D01*
X29400Y-12400D02*
X29600Y-12400D01*
X14900Y-12400D02*
X28300Y-12400D01*
X13100Y-12400D02*
X14200Y-12400D01*
X10400Y-12400D02*
X12200Y-12400D01*
X45600Y-12300D02*
X49600Y-12300D01*
X32400Y-12300D02*
X35200Y-12300D01*
X31400Y-12300D02*
X31600Y-12300D01*
X30400Y-12300D02*
X30600Y-12300D01*
X29400Y-12300D02*
X29600Y-12300D01*
X14800Y-12300D02*
X28400Y-12300D01*
X13100Y-12300D02*
X14300Y-12300D01*
X10400Y-12300D02*
X12200Y-12300D01*
X45600Y-12200D02*
X49600Y-12200D01*
X32400Y-12200D02*
X35300Y-12200D01*
X31400Y-12200D02*
X31600Y-12200D01*
X30400Y-12200D02*
X30600Y-12200D01*
X29400Y-12200D02*
X29600Y-12200D01*
X13100Y-12200D02*
X28600Y-12200D01*
X10400Y-12200D02*
X12200Y-12200D01*
X45600Y-12100D02*
X49600Y-12100D01*
X32400Y-12100D02*
X35400Y-12100D01*
X31400Y-12100D02*
X31600Y-12100D01*
X30400Y-12100D02*
X30600Y-12100D01*
X29400Y-12100D02*
X29600Y-12100D01*
X13100Y-12100D02*
X28600Y-12100D01*
X10400Y-12100D02*
X12200Y-12100D01*
X45600Y-12000D02*
X49600Y-12000D01*
X32300Y-12000D02*
X35400Y-12000D01*
X31300Y-12000D02*
X31700Y-12000D01*
X30300Y-12000D02*
X30700Y-12000D01*
X29300Y-12000D02*
X29700Y-12000D01*
X13000Y-12000D02*
X28700Y-12000D01*
X10400Y-12000D02*
X12300Y-12000D01*
X45600Y-11900D02*
X49600Y-11900D01*
X12900Y-11900D02*
X35400Y-11900D01*
X10400Y-11900D02*
X12400Y-11900D01*
X45600Y-11800D02*
X49600Y-11800D01*
X10400Y-11800D02*
X35400Y-11800D01*
X45600Y-11700D02*
X49600Y-11700D01*
X10400Y-11700D02*
X35400Y-11700D01*
X45600Y-11600D02*
X49600Y-11600D01*
X10400Y-11600D02*
X35400Y-11600D01*
X46600Y-11500D02*
X49600Y-11500D01*
X35300Y-11500D02*
X35400Y-11500D01*
X34300Y-11500D02*
X34700Y-11500D01*
X33300Y-11500D02*
X33700Y-11500D01*
X32300Y-11500D02*
X32700Y-11500D01*
X31300Y-11500D02*
X31700Y-11500D01*
X30300Y-11500D02*
X30700Y-11500D01*
X29300Y-11500D02*
X29700Y-11500D01*
X28300Y-11500D02*
X28700Y-11500D01*
X27300Y-11500D02*
X27700Y-11500D01*
X26300Y-11500D02*
X26700Y-11500D01*
X25300Y-11500D02*
X25700Y-11500D01*
X24300Y-11500D02*
X24700Y-11500D01*
X23300Y-11500D02*
X23700Y-11500D01*
X22300Y-11500D02*
X22700Y-11500D01*
X21300Y-11500D02*
X21700Y-11500D01*
X20300Y-11500D02*
X20700Y-11500D01*
X19300Y-11500D02*
X19700Y-11500D01*
X18300Y-11500D02*
X18700Y-11500D01*
X17300Y-11500D02*
X17700Y-11500D01*
X16300Y-11500D02*
X16700Y-11500D01*
X15300Y-11500D02*
X15700Y-11500D01*
X10400Y-11500D02*
X14700Y-11500D01*
X46600Y-11400D02*
X49600Y-11400D01*
X34400Y-11400D02*
X34600Y-11400D01*
X33400Y-11400D02*
X33600Y-11400D01*
X32400Y-11400D02*
X32600Y-11400D01*
X31400Y-11400D02*
X31600Y-11400D01*
X30400Y-11400D02*
X30600Y-11400D01*
X29400Y-11400D02*
X29600Y-11400D01*
X28400Y-11400D02*
X28600Y-11400D01*
X27400Y-11400D02*
X27600Y-11400D01*
X26400Y-11400D02*
X26600Y-11400D01*
X25400Y-11400D02*
X25600Y-11400D01*
X24400Y-11400D02*
X24600Y-11400D01*
X23400Y-11400D02*
X23600Y-11400D01*
X22400Y-11400D02*
X22600Y-11400D01*
X21400Y-11400D02*
X21600Y-11400D01*
X20400Y-11400D02*
X20600Y-11400D01*
X19400Y-11400D02*
X19600Y-11400D01*
X18400Y-11400D02*
X18600Y-11400D01*
X17400Y-11400D02*
X17600Y-11400D01*
X16400Y-11400D02*
X16600Y-11400D01*
X15400Y-11400D02*
X15600Y-11400D01*
X10400Y-11400D02*
X14600Y-11400D01*
X46600Y-11300D02*
X49600Y-11300D01*
X10400Y-11300D02*
X14500Y-11300D01*
X46600Y-11200D02*
X49600Y-11200D01*
X10400Y-11200D02*
X14400Y-11200D01*
X46600Y-11100D02*
X49600Y-11100D01*
X10400Y-11100D02*
X14400Y-11100D01*
X46600Y-11000D02*
X49600Y-11000D01*
X10400Y-11000D02*
X14400Y-11000D01*
X46600Y-10900D02*
X49600Y-10900D01*
X10400Y-10900D02*
X14400Y-10900D01*
X46600Y-10800D02*
X49600Y-10800D01*
X10400Y-10800D02*
X14400Y-10800D01*
X46600Y-10700D02*
X49500Y-10700D01*
X10500Y-10700D02*
X14500Y-10700D01*
X46600Y-10600D02*
X49500Y-10600D01*
X34400Y-10600D02*
X34600Y-10600D01*
X33400Y-10600D02*
X33600Y-10600D01*
X32400Y-10600D02*
X32600Y-10600D01*
X31400Y-10600D02*
X31600Y-10600D01*
X30400Y-10600D02*
X30600Y-10600D01*
X29400Y-10600D02*
X29600Y-10600D01*
X28400Y-10600D02*
X28600Y-10600D01*
X27400Y-10600D02*
X27600Y-10600D01*
X26400Y-10600D02*
X26600Y-10600D01*
X25400Y-10600D02*
X25600Y-10600D01*
X24400Y-10600D02*
X24600Y-10600D01*
X23400Y-10600D02*
X23600Y-10600D01*
X22400Y-10600D02*
X22600Y-10600D01*
X21400Y-10600D02*
X21600Y-10600D01*
X20400Y-10600D02*
X20600Y-10600D01*
X19400Y-10600D02*
X19600Y-10600D01*
X18400Y-10600D02*
X18600Y-10600D01*
X17400Y-10600D02*
X17600Y-10600D01*
X16400Y-10600D02*
X16600Y-10600D01*
X15400Y-10600D02*
X15600Y-10600D01*
X10500Y-10600D02*
X14600Y-10600D01*
X46600Y-10500D02*
X49400Y-10500D01*
X35300Y-10500D02*
X35400Y-10500D01*
X34300Y-10500D02*
X34700Y-10500D01*
X33300Y-10500D02*
X33700Y-10500D01*
X32300Y-10500D02*
X32700Y-10500D01*
X31300Y-10500D02*
X31700Y-10500D01*
X30300Y-10500D02*
X30700Y-10500D01*
X29300Y-10500D02*
X29700Y-10500D01*
X28300Y-10500D02*
X28700Y-10500D01*
X27300Y-10500D02*
X27700Y-10500D01*
X26300Y-10500D02*
X26700Y-10500D01*
X25300Y-10500D02*
X25700Y-10500D01*
X24300Y-10500D02*
X24700Y-10500D01*
X23300Y-10500D02*
X23700Y-10500D01*
X22300Y-10500D02*
X22700Y-10500D01*
X21300Y-10500D02*
X21700Y-10500D01*
X20300Y-10500D02*
X20700Y-10500D01*
X19300Y-10500D02*
X19700Y-10500D01*
X18300Y-10500D02*
X18700Y-10500D01*
X17300Y-10500D02*
X17700Y-10500D01*
X16300Y-10500D02*
X16700Y-10500D01*
X15300Y-10500D02*
X15700Y-10500D01*
X10600Y-10500D02*
X14700Y-10500D01*
X45600Y-10400D02*
X49200Y-10400D01*
X10800Y-10400D02*
X35400Y-10400D01*
X44400Y-11400D02*
X44400Y-13700D01*
X44300Y-11500D02*
X44300Y-13800D01*
X44200Y-11600D02*
X44200Y-13900D01*
X44100Y-11600D02*
X44100Y-14000D01*
X44000Y-11600D02*
X44000Y-14100D01*
X43900Y-11600D02*
X43900Y-14200D01*
X43800Y-11600D02*
X43800Y-14300D01*
X43700Y-11500D02*
X43700Y-14400D01*
X43600Y-11400D02*
X43600Y-14500D01*
X43500Y-11300D02*
X43500Y-14600D01*
X43400Y-11400D02*
X43400Y-14700D01*
X43300Y-11500D02*
X43300Y-14800D01*
X43200Y-11600D02*
X43200Y-14900D01*
X43100Y-11600D02*
X43100Y-15000D01*
X43000Y-11600D02*
X43000Y-15000D01*
X42900Y-11600D02*
X42900Y-15000D01*
X42800Y-11600D02*
X42800Y-15000D01*
X42700Y-11500D02*
X42700Y-15000D01*
X42600Y-11400D02*
X42600Y-15000D01*
X42500Y-11300D02*
X42500Y-15000D01*
X42400Y-11400D02*
X42400Y-15000D01*
X42300Y-11500D02*
X42300Y-15000D01*
X42200Y-11600D02*
X42200Y-15000D01*
X42100Y-11600D02*
X42100Y-15000D01*
X42000Y-11600D02*
X42000Y-15000D01*
X41900Y-11600D02*
X41900Y-15000D01*
X41800Y-11600D02*
X41800Y-15000D01*
X41700Y-11500D02*
X41700Y-15000D01*
X41600Y-11400D02*
X41600Y-15000D01*
X41500Y-11300D02*
X41500Y-15000D01*
X41400Y-11400D02*
X41400Y-15000D01*
X41300Y-11500D02*
X41300Y-15000D01*
X41200Y-11600D02*
X41200Y-15000D01*
X41100Y-11600D02*
X41100Y-15000D01*
X41000Y-11600D02*
X41000Y-15000D01*
X40900Y-11600D02*
X40900Y-15000D01*
X40800Y-11600D02*
X40800Y-15000D01*
X40700Y-11500D02*
X40700Y-15000D01*
X40600Y-11400D02*
X40600Y-15000D01*
X40500Y-11300D02*
X40500Y-15000D01*
X40400Y-11400D02*
X40400Y-15000D01*
X40300Y-11500D02*
X40300Y-15000D01*
X40200Y-11600D02*
X40200Y-15000D01*
X40100Y-11600D02*
X40100Y-15000D01*
X40000Y-11600D02*
X40000Y-15000D01*
X39900Y-11600D02*
X39900Y-15000D01*
X39800Y-11600D02*
X39800Y-15000D01*
X39700Y-11500D02*
X39700Y-15000D01*
X39600Y-11400D02*
X39600Y-15000D01*
X39500Y-11300D02*
X39500Y-15000D01*
X39400Y-11400D02*
X39400Y-15000D01*
X39300Y-11500D02*
X39300Y-15000D01*
X39200Y-11600D02*
X39200Y-15000D01*
X39100Y-11600D02*
X39100Y-15000D01*
X39000Y-11600D02*
X39000Y-15000D01*
X38900Y-11600D02*
X38900Y-15000D01*
X38800Y-11600D02*
X38800Y-15000D01*
X38700Y-11500D02*
X38700Y-15000D01*
X38600Y-11400D02*
X38600Y-14900D01*
X38500Y-11300D02*
X38500Y-14900D01*
X38400Y-11400D02*
X38400Y-14900D01*
X38300Y-11500D02*
X38300Y-15000D01*
X38200Y-11600D02*
X38200Y-15000D01*
X38100Y-11600D02*
X38100Y-15000D01*
X38000Y-11600D02*
X38000Y-15000D01*
X37900Y-11600D02*
X37900Y-15000D01*
X37800Y-11600D02*
X37800Y-14900D01*
X37700Y-11500D02*
X37700Y-14900D01*
X37600Y-11400D02*
X37600Y-14900D01*
X37500Y-11300D02*
X37500Y-15000D01*
X37400Y-11400D02*
X37400Y-15000D01*
X37300Y-11500D02*
X37300Y-15000D01*
X37200Y-11600D02*
X37200Y-15000D01*
X37100Y-11600D02*
X37100Y-15000D01*
X37000Y-11600D02*
X37000Y-27200D01*
X36900Y-11600D02*
X36900Y-27200D01*
X36800Y-11600D02*
X36800Y-27200D01*
X36700Y-11500D02*
X36700Y-27200D01*
X36600Y-11400D02*
X36600Y-27200D01*
X36500Y-11600D02*
X36500Y-27200D01*
X36400Y-11700D02*
X36400Y-27200D01*
X36300Y-24300D02*
X36300Y-27200D01*
X36300Y-11800D02*
X36300Y-23800D01*
X36200Y-24400D02*
X36200Y-27200D01*
X36200Y-11900D02*
X36200Y-23700D01*
X36100Y-24500D02*
X36100Y-27200D01*
X36100Y-12000D02*
X36100Y-23600D01*
X36000Y-24500D02*
X36000Y-27200D01*
X36000Y-12100D02*
X36000Y-23600D01*
X35900Y-24500D02*
X35900Y-27200D01*
X35900Y-12200D02*
X35900Y-23600D01*
X35800Y-24500D02*
X35800Y-27200D01*
X35800Y-12300D02*
X35800Y-23600D01*
X35700Y-24400D02*
X35700Y-27200D01*
X35700Y-12400D02*
X35700Y-23700D01*
X35600Y-24300D02*
X35600Y-27200D01*
X35600Y-12400D02*
X35600Y-23800D01*
X35500Y-12500D02*
X35500Y-27200D01*
X35400Y-12600D02*
X35400Y-27200D01*
X35300Y-12700D02*
X35300Y-27200D01*
X35200Y-12800D02*
X35200Y-27200D01*
X35100Y-21500D02*
X35100Y-27200D01*
X35100Y-12900D02*
X35100Y-19800D01*
X35000Y-21600D02*
X35000Y-27200D01*
X35000Y-13000D02*
X35000Y-19700D01*
X34900Y-21700D02*
X34900Y-27200D01*
X34800Y-21700D02*
X34800Y-27200D01*
X34700Y-26700D02*
X34700Y-27200D01*
X34700Y-21700D02*
X34700Y-26300D01*
X34600Y-26900D02*
X34600Y-27200D01*
X34600Y-21800D02*
X34600Y-26100D01*
X34500Y-26900D02*
X34500Y-27200D01*
X34500Y-21900D02*
X34500Y-26100D01*
X34400Y-27000D02*
X34400Y-27200D01*
X34400Y-22000D02*
X34400Y-26000D01*
X34300Y-27000D02*
X34300Y-27200D01*
X34300Y-22100D02*
X34300Y-26000D01*
X34200Y-27000D02*
X34200Y-27200D01*
X34200Y-22200D02*
X34200Y-26000D01*
X34100Y-26900D02*
X34100Y-27200D01*
X34100Y-22300D02*
X34100Y-26100D01*
X34000Y-26900D02*
X34000Y-27200D01*
X34000Y-22400D02*
X34000Y-26100D01*
X33900Y-26700D02*
X33900Y-27200D01*
X33900Y-22500D02*
X33900Y-26300D01*
X33800Y-22600D02*
X33800Y-27200D01*
X33700Y-22700D02*
X33700Y-27200D01*
X33600Y-22700D02*
X33600Y-27200D01*
X33500Y-22800D02*
X33500Y-27200D01*
X33400Y-22900D02*
X33400Y-27200D01*
X33300Y-22900D02*
X33300Y-27200D01*
X33200Y-22900D02*
X33200Y-27200D01*
X33100Y-22900D02*
X33100Y-27200D01*
X33000Y-22900D02*
X33000Y-27200D01*
X32900Y-22800D02*
X32900Y-27200D01*
X32800Y-22700D02*
X32800Y-27200D01*
X32700Y-22700D02*
X32700Y-27200D01*
X32600Y-22700D02*
X32600Y-27200D01*
X32500Y-22700D02*
X32500Y-27200D01*
X32400Y-22700D02*
X32400Y-27200D01*
X32300Y-22700D02*
X32300Y-27200D01*
X32200Y-22700D02*
X32200Y-27200D01*
X32100Y-24500D02*
X32100Y-27200D01*
X32000Y-24500D02*
X32000Y-27200D01*
X31900Y-24500D02*
X31900Y-27200D01*
X31800Y-24500D02*
X31800Y-27200D01*
X31700Y-24500D02*
X31700Y-27200D01*
X31600Y-24500D02*
X31600Y-27200D01*
X31500Y-24500D02*
X31500Y-27200D01*
X31400Y-26600D02*
X31400Y-27200D01*
X31400Y-24500D02*
X31400Y-26200D01*
X31300Y-26800D02*
X31300Y-27200D01*
X31300Y-24500D02*
X31300Y-25800D01*
X31200Y-26800D02*
X31200Y-27200D01*
X31200Y-24500D02*
X31200Y-25700D01*
X31100Y-26900D02*
X31100Y-27200D01*
X31100Y-24500D02*
X31100Y-25600D01*
X31000Y-27000D02*
X31000Y-27200D01*
X31000Y-24500D02*
X31000Y-25600D01*
X30900Y-27000D02*
X30900Y-27200D01*
X30900Y-24500D02*
X30900Y-25600D01*
X30800Y-27100D02*
X30800Y-27200D01*
X30800Y-24500D02*
X30800Y-25600D01*
X30700Y-27100D02*
X30700Y-27200D01*
X30700Y-24500D02*
X30700Y-25700D01*
X30600Y-27100D02*
X30600Y-27200D01*
X30600Y-24500D02*
X30600Y-25800D01*
X30500Y-27100D02*
X30500Y-27200D01*
X30500Y-24500D02*
X30500Y-26100D01*
X30400Y-27100D02*
X30400Y-27200D01*
X30400Y-24500D02*
X30400Y-26100D01*
X30400Y-27200D02*
X37000Y-27200D01*
X30400Y-27100D02*
X37000Y-27100D01*
X30900Y-27000D02*
X37000Y-27000D01*
X34500Y-26900D02*
X37000Y-26900D01*
X31100Y-26900D02*
X34100Y-26900D01*
X34700Y-26800D02*
X37000Y-26800D01*
X31200Y-26800D02*
X33900Y-26800D01*
X34700Y-26700D02*
X37000Y-26700D01*
X31400Y-26700D02*
X33900Y-26700D01*
X34800Y-26600D02*
X37000Y-26600D01*
X31400Y-26600D02*
X33800Y-26600D01*
X34800Y-26500D02*
X37000Y-26500D01*
X31500Y-26500D02*
X33800Y-26500D01*
X34800Y-26400D02*
X37000Y-26400D01*
X31500Y-26400D02*
X33800Y-26400D01*
X34700Y-26300D02*
X37000Y-26300D01*
X31500Y-26300D02*
X33900Y-26300D01*
X34700Y-26200D02*
X37000Y-26200D01*
X31400Y-26200D02*
X33900Y-26200D01*
X34500Y-26100D02*
X37000Y-26100D01*
X31400Y-26100D02*
X34100Y-26100D01*
X30400Y-26100D02*
X30500Y-26100D01*
X31400Y-26000D02*
X37000Y-26000D01*
X30400Y-26000D02*
X30500Y-26000D01*
X31400Y-25900D02*
X37000Y-25900D01*
X30400Y-25900D02*
X30500Y-25900D01*
X31300Y-25800D02*
X37000Y-25800D01*
X30400Y-25800D02*
X30600Y-25800D01*
X31200Y-25700D02*
X37000Y-25700D01*
X30400Y-25700D02*
X30700Y-25700D01*
X30400Y-25600D02*
X37000Y-25600D01*
X30400Y-25500D02*
X37000Y-25500D01*
X30400Y-25400D02*
X37000Y-25400D01*
X30400Y-25300D02*
X37000Y-25300D01*
X30400Y-25200D02*
X37000Y-25200D01*
X30400Y-25100D02*
X37000Y-25100D01*
X30400Y-25000D02*
X37000Y-25000D01*
X30400Y-24900D02*
X37000Y-24900D01*
X30400Y-24800D02*
X37000Y-24800D01*
X30400Y-24700D02*
X37000Y-24700D01*
X30400Y-24600D02*
X37000Y-24600D01*
X30400Y-24500D02*
X37000Y-24500D01*
X36200Y-24400D02*
X37000Y-24400D01*
X32200Y-24400D02*
X35700Y-24400D01*
X36300Y-24300D02*
X37000Y-24300D01*
X32200Y-24300D02*
X35600Y-24300D01*
X36400Y-24200D02*
X37000Y-24200D01*
X32200Y-24200D02*
X35500Y-24200D01*
X36400Y-24100D02*
X37000Y-24100D01*
X32200Y-24100D02*
X35500Y-24100D01*
X36400Y-24000D02*
X37000Y-24000D01*
X32200Y-24000D02*
X35500Y-24000D01*
X36400Y-23900D02*
X37000Y-23900D01*
X32200Y-23900D02*
X35500Y-23900D01*
X36300Y-23800D02*
X37000Y-23800D01*
X32200Y-23800D02*
X35600Y-23800D01*
X36200Y-23700D02*
X37000Y-23700D01*
X32200Y-23700D02*
X35700Y-23700D01*
X32200Y-23600D02*
X37000Y-23600D01*
X32200Y-23500D02*
X37000Y-23500D01*
X32200Y-23400D02*
X37000Y-23400D01*
X32200Y-23300D02*
X37000Y-23300D01*
X32200Y-23200D02*
X37000Y-23200D01*
X32200Y-23100D02*
X37000Y-23100D01*
X32200Y-23000D02*
X37000Y-23000D01*
X32200Y-22900D02*
X37000Y-22900D01*
X33500Y-22800D02*
X37000Y-22800D01*
X32200Y-22800D02*
X32900Y-22800D01*
X33600Y-22700D02*
X37000Y-22700D01*
X32200Y-22700D02*
X32800Y-22700D01*
X33800Y-22600D02*
X37000Y-22600D01*
X33900Y-22500D02*
X37000Y-22500D01*
X34000Y-22400D02*
X37000Y-22400D01*
X34100Y-22300D02*
X37000Y-22300D01*
X34200Y-22200D02*
X37000Y-22200D01*
X34300Y-22100D02*
X37000Y-22100D01*
X34400Y-22000D02*
X37000Y-22000D01*
X34500Y-21900D02*
X37000Y-21900D01*
X34600Y-21800D02*
X37000Y-21800D01*
X34700Y-21700D02*
X37000Y-21700D01*
X35000Y-21600D02*
X37000Y-21600D01*
X35100Y-21500D02*
X37000Y-21500D01*
X35200Y-21400D02*
X37000Y-21400D01*
X35200Y-21300D02*
X37000Y-21300D01*
X35200Y-21200D02*
X37000Y-21200D01*
X35200Y-21100D02*
X37000Y-21100D01*
X35100Y-21000D02*
X37000Y-21000D01*
X35200Y-20900D02*
X37000Y-20900D01*
X35200Y-20800D02*
X37000Y-20800D01*
X35200Y-20700D02*
X37000Y-20700D01*
X35200Y-20600D02*
X37000Y-20600D01*
X35200Y-20500D02*
X37000Y-20500D01*
X35200Y-20400D02*
X37000Y-20400D01*
X35200Y-20300D02*
X37000Y-20300D01*
X35200Y-20200D02*
X37000Y-20200D01*
X35200Y-20100D02*
X37000Y-20100D01*
X35200Y-20000D02*
X37000Y-20000D01*
X35200Y-19900D02*
X37000Y-19900D01*
X35100Y-19800D02*
X37000Y-19800D01*
X35000Y-19700D02*
X37000Y-19700D01*
X35000Y-19600D02*
X37000Y-19600D01*
X35000Y-19500D02*
X37000Y-19500D01*
X35000Y-19400D02*
X37000Y-19400D01*
X35000Y-19300D02*
X37000Y-19300D01*
X35000Y-19200D02*
X37000Y-19200D01*
X35000Y-19100D02*
X37000Y-19100D01*
X35000Y-19000D02*
X37000Y-19000D01*
X35000Y-18900D02*
X37000Y-18900D01*
X35000Y-18800D02*
X37000Y-18800D01*
X35000Y-18700D02*
X37000Y-18700D01*
X35000Y-18600D02*
X37000Y-18600D01*
X35000Y-18500D02*
X37000Y-18500D01*
X35000Y-18400D02*
X37000Y-18400D01*
X35000Y-18300D02*
X37000Y-18300D01*
X35000Y-18200D02*
X37000Y-18200D01*
X35000Y-18100D02*
X37000Y-18100D01*
X35000Y-18000D02*
X37000Y-18000D01*
X35000Y-17900D02*
X37000Y-17900D01*
X35000Y-17800D02*
X37000Y-17800D01*
X35000Y-17700D02*
X37000Y-17700D01*
X35000Y-17600D02*
X37000Y-17600D01*
X35000Y-17500D02*
X37000Y-17500D01*
X35000Y-17400D02*
X37000Y-17400D01*
X35000Y-17300D02*
X37000Y-17300D01*
X35000Y-17200D02*
X37000Y-17200D01*
X35000Y-17100D02*
X37000Y-17100D01*
X35000Y-17000D02*
X37000Y-17000D01*
X35000Y-16900D02*
X37000Y-16900D01*
X35000Y-16800D02*
X37000Y-16800D01*
X35000Y-16700D02*
X37000Y-16700D01*
X35000Y-16600D02*
X37000Y-16600D01*
X35000Y-16500D02*
X37000Y-16500D01*
X35000Y-16400D02*
X37000Y-16400D01*
X35000Y-16300D02*
X37000Y-16300D01*
X35000Y-16200D02*
X37000Y-16200D01*
X35000Y-16100D02*
X37000Y-16100D01*
X35000Y-16000D02*
X37000Y-16000D01*
X35000Y-15900D02*
X37000Y-15900D01*
X35000Y-15800D02*
X37000Y-15800D01*
X35000Y-15700D02*
X37000Y-15700D01*
X35000Y-15600D02*
X37000Y-15600D01*
X35000Y-15500D02*
X37000Y-15500D01*
X35000Y-15400D02*
X37000Y-15400D01*
X35000Y-15300D02*
X37000Y-15300D01*
X35000Y-15200D02*
X37000Y-15200D01*
X35000Y-15100D02*
X37000Y-15100D01*
X38700Y-15000D02*
X43100Y-15000D01*
X37900Y-15000D02*
X38300Y-15000D01*
X35000Y-15000D02*
X37500Y-15000D01*
X35000Y-14900D02*
X43200Y-14900D01*
X35000Y-14800D02*
X43300Y-14800D01*
X35000Y-14700D02*
X43400Y-14700D01*
X35000Y-14600D02*
X43500Y-14600D01*
X35000Y-14500D02*
X43600Y-14500D01*
X35000Y-14400D02*
X43700Y-14400D01*
X35000Y-14300D02*
X43800Y-14300D01*
X35000Y-14200D02*
X43900Y-14200D01*
X35000Y-14100D02*
X44000Y-14100D01*
X35000Y-14000D02*
X44100Y-14000D01*
X35000Y-13900D02*
X44200Y-13900D01*
X35000Y-13800D02*
X44300Y-13800D01*
X35000Y-13700D02*
X44400Y-13700D01*
X35000Y-13600D02*
X44400Y-13600D01*
X35000Y-13500D02*
X44400Y-13500D01*
X35000Y-13400D02*
X44400Y-13400D01*
X35000Y-13300D02*
X44400Y-13300D01*
X35000Y-13200D02*
X44400Y-13200D01*
X35000Y-13100D02*
X44400Y-13100D01*
X35000Y-13000D02*
X44400Y-13000D01*
X35100Y-12900D02*
X44400Y-12900D01*
X35200Y-12800D02*
X44400Y-12800D01*
X35300Y-12700D02*
X44400Y-12700D01*
X35400Y-12600D02*
X44400Y-12600D01*
X35500Y-12500D02*
X44400Y-12500D01*
X35600Y-12400D02*
X44400Y-12400D01*
X35800Y-12300D02*
X44400Y-12300D01*
X35900Y-12200D02*
X44400Y-12200D01*
X36000Y-12100D02*
X44400Y-12100D01*
X36100Y-12000D02*
X44400Y-12000D01*
X36200Y-11900D02*
X44400Y-11900D01*
X36300Y-11800D02*
X44400Y-11800D01*
X36400Y-11700D02*
X44400Y-11700D01*
X36500Y-11600D02*
X44400Y-11600D01*
X44300Y-11500D02*
X44400Y-11500D01*
X43300Y-11500D02*
X43700Y-11500D01*
X42300Y-11500D02*
X42700Y-11500D01*
X41300Y-11500D02*
X41700Y-11500D01*
X40300Y-11500D02*
X40700Y-11500D01*
X39300Y-11500D02*
X39700Y-11500D01*
X38300Y-11500D02*
X38700Y-11500D01*
X37300Y-11500D02*
X37700Y-11500D01*
X36600Y-11500D02*
X36700Y-11500D01*
X43400Y-11400D02*
X43600Y-11400D01*
X42400Y-11400D02*
X42600Y-11400D01*
X41400Y-11400D02*
X41600Y-11400D01*
X40400Y-11400D02*
X40600Y-11400D01*
X39400Y-11400D02*
X39600Y-11400D01*
X38400Y-11400D02*
X38600Y-11400D01*
X37400Y-11400D02*
X37600Y-11400D01*
M02*
