G04 (Genere par PCBnew (20080825c)) le 17/12/2010-15:33:38*
G01*
G70*
G90*
%MOIN*%
G04 Gerber Fmt 3.4, Leading zero omitted, Abs format*
%FSLAX34Y34*%
G04 APERTURE LIST*
%ADD10C,0.015000*%
%ADD11R,0.060000X0.060000*%
%ADD12C,0.060000*%
%ADD13C,0.035400*%
%ADD14C,0.027000*%
%ADD15C,0.036000*%
%ADD16C,0.008000*%
%ADD17C,0.026000*%
%ADD18C,0.010000*%
%ADD19R,0.137800X0.063000*%
%ADD20R,0.181100X0.039400*%
%ADD21R,0.010000X0.060000*%
%ADD22R,0.060000X0.010000*%
%ADD23R,0.027600X0.035400*%
%ADD24R,0.035400X0.027600*%
%ADD25R,0.025000X0.045000*%
%ADD26R,0.059100X0.047200*%
%ADD27R,0.074800X0.043300*%
%ADD28R,0.039400X0.055100*%
%ADD29R,0.039400X0.039400*%
%ADD30R,0.098400X0.039400*%
%ADD31R,0.033500X0.011000*%
%ADD32R,0.039400X0.118100*%
%ADD33R,0.098400X0.019700*%
%ADD34R,0.098400X0.078700*%
%ADD35R,0.094500X0.078700*%
%ADD36R,0.068900X0.027600*%
%ADD37R,0.059100X0.051200*%
%ADD38R,0.059100X0.059100*%
%ADD39R,0.059100X0.031500*%
%ADD40R,0.039400X0.059100*%
%ADD41R,0.061000X0.039400*%
%ADD42R,0.055100X0.031500*%
%ADD43R,0.019700X0.047200*%
%ADD44C,0.016000*%
%ADD45C,0.032000*%
G04 APERTURE END LIST*
G54D10*
X49000Y-31000D02*
X11000Y-31000D01*
X11000Y-10000D02*
X49000Y-10000D01*
X50000Y-11000D02*
X50000Y-30000D01*
X10000Y-11000D02*
X10000Y-30000D01*
X10000Y-30000D02*
X10022Y-30208D01*
X10022Y-30208D02*
X10086Y-30407D01*
X10086Y-30407D02*
X10191Y-30588D01*
X10191Y-30588D02*
X10331Y-30743D01*
X10331Y-30743D02*
X10500Y-30866D01*
X10500Y-30866D02*
X10691Y-30951D01*
X10691Y-30951D02*
X10895Y-30995D01*
X10895Y-30995D02*
X11000Y-31000D01*
X49000Y-31000D02*
X49208Y-30978D01*
X49208Y-30978D02*
X49407Y-30914D01*
X49407Y-30914D02*
X49588Y-30809D01*
X49588Y-30809D02*
X49743Y-30669D01*
X49743Y-30669D02*
X49866Y-30500D01*
X49866Y-30500D02*
X49951Y-30309D01*
X49951Y-30309D02*
X49995Y-30105D01*
X49995Y-30105D02*
X50000Y-30000D01*
X50000Y-11000D02*
X49978Y-10792D01*
X49978Y-10792D02*
X49914Y-10593D01*
X49914Y-10593D02*
X49809Y-10412D01*
X49809Y-10412D02*
X49669Y-10257D01*
X49669Y-10257D02*
X49500Y-10134D01*
X49500Y-10134D02*
X49309Y-10049D01*
X49309Y-10049D02*
X49105Y-10005D01*
X49105Y-10005D02*
X49000Y-10000D01*
X11000Y-10000D02*
X10792Y-10022D01*
X10792Y-10022D02*
X10593Y-10086D01*
X10593Y-10086D02*
X10412Y-10191D01*
X10412Y-10191D02*
X10257Y-10331D01*
X10257Y-10331D02*
X10134Y-10500D01*
X10134Y-10500D02*
X10049Y-10691D01*
X10049Y-10691D02*
X10005Y-10895D01*
X10005Y-10895D02*
X10000Y-11000D01*
G54D11*
X14000Y-11000D03*
G54D12*
X13000Y-11000D03*
G54D11*
X20000Y-24000D03*
G54D12*
X19000Y-24000D03*
X20000Y-23000D03*
X19000Y-23000D03*
X20000Y-22000D03*
X19000Y-22000D03*
X20000Y-21000D03*
X19000Y-21000D03*
G54D11*
X22000Y-18000D03*
G54D12*
X22000Y-17000D03*
X22000Y-16000D03*
X22000Y-15000D03*
X22000Y-14000D03*
X22000Y-13000D03*
G54D19*
X11109Y-17239D03*
G54D20*
X13157Y-16294D03*
G54D19*
X11109Y-14561D03*
G54D20*
X13157Y-15506D03*
G54D21*
X24755Y-24825D03*
X24955Y-24825D03*
X25150Y-24825D03*
X25345Y-24825D03*
X25545Y-24825D03*
X25740Y-24825D03*
X25935Y-24825D03*
X26135Y-24825D03*
X26330Y-24825D03*
X26525Y-24825D03*
X26725Y-24825D03*
X26920Y-24825D03*
X27115Y-24825D03*
X27315Y-24825D03*
X27510Y-24825D03*
X27705Y-24825D03*
X27905Y-24825D03*
X28100Y-24825D03*
X28300Y-24825D03*
X28495Y-24825D03*
X28695Y-24825D03*
X28890Y-24825D03*
X29085Y-24825D03*
X29285Y-24825D03*
X29480Y-24825D03*
X29675Y-24825D03*
X29875Y-24825D03*
X30070Y-24825D03*
X30265Y-24825D03*
X30465Y-24825D03*
X30660Y-24825D03*
X30855Y-24825D03*
X31055Y-24825D03*
X31250Y-24825D03*
X31445Y-24825D03*
X31645Y-24825D03*
G54D22*
X32525Y-18235D03*
X32525Y-18040D03*
X32525Y-17845D03*
X32525Y-17645D03*
X32525Y-17450D03*
X32525Y-17255D03*
X32525Y-17055D03*
X23875Y-18040D03*
X23875Y-18235D03*
X23875Y-18435D03*
X23875Y-18630D03*
X23875Y-18825D03*
X23875Y-19025D03*
X23875Y-19220D03*
X23875Y-19415D03*
X23875Y-19615D03*
X23875Y-19810D03*
X23875Y-20005D03*
X23875Y-20205D03*
X23875Y-20400D03*
X23875Y-20600D03*
X23875Y-20795D03*
X23875Y-20995D03*
X23875Y-21190D03*
X23875Y-21385D03*
X23875Y-21585D03*
X23875Y-21780D03*
X23875Y-21975D03*
X23875Y-22175D03*
X23875Y-22370D03*
X23875Y-22565D03*
X23875Y-22765D03*
X23875Y-22960D03*
X23875Y-23155D03*
X23875Y-23355D03*
X23875Y-23550D03*
X23875Y-23745D03*
X23875Y-23945D03*
X32525Y-23945D03*
X32525Y-23745D03*
X32525Y-23550D03*
X32525Y-23355D03*
X32525Y-23155D03*
X32525Y-22960D03*
X32525Y-22765D03*
X32525Y-22565D03*
X32525Y-22370D03*
X32525Y-22175D03*
X32525Y-21975D03*
X32525Y-21780D03*
X32525Y-21585D03*
X32525Y-21385D03*
X32525Y-21190D03*
X32525Y-20995D03*
X32525Y-20795D03*
X32525Y-20600D03*
X32525Y-20400D03*
X32525Y-20205D03*
X32525Y-20005D03*
X32525Y-19810D03*
X32525Y-19615D03*
X32525Y-19415D03*
X32525Y-19220D03*
X32525Y-19025D03*
X32525Y-18825D03*
X32525Y-18630D03*
X32525Y-18435D03*
G54D21*
X30660Y-16175D03*
X30465Y-16175D03*
X30265Y-16175D03*
X30070Y-16175D03*
X29875Y-16175D03*
X29675Y-16175D03*
X29480Y-16175D03*
X29285Y-16175D03*
X29085Y-16175D03*
X28890Y-16175D03*
X28695Y-16175D03*
X28495Y-16175D03*
X28300Y-16175D03*
X28100Y-16175D03*
X27905Y-16175D03*
X27705Y-16175D03*
X27510Y-16175D03*
X27315Y-16175D03*
X27115Y-16175D03*
X26920Y-16175D03*
X26725Y-16175D03*
X26525Y-16175D03*
X26330Y-16175D03*
X26135Y-16175D03*
X25935Y-16175D03*
X25740Y-16175D03*
X25545Y-16175D03*
X25345Y-16175D03*
X25150Y-16175D03*
X24955Y-16175D03*
X24755Y-16175D03*
X31645Y-16175D03*
X31445Y-16175D03*
X31250Y-16175D03*
X31055Y-16175D03*
X30855Y-16175D03*
G54D22*
X23875Y-17055D03*
X23875Y-17255D03*
X23875Y-17450D03*
X23875Y-17645D03*
X23875Y-17845D03*
G54D23*
X38906Y-15760D03*
X38394Y-15760D03*
X38394Y-14560D03*
X38906Y-14560D03*
X28586Y-25940D03*
X28074Y-25940D03*
G54D24*
X30330Y-26994D03*
X30330Y-27506D03*
G54D23*
X40166Y-17730D03*
X39654Y-17730D03*
X39674Y-23350D03*
X40186Y-23350D03*
X35424Y-22910D03*
X35936Y-22910D03*
G54D24*
X33300Y-23644D03*
X33300Y-24156D03*
X33410Y-20854D03*
X33410Y-21366D03*
X34090Y-18884D03*
X34090Y-19396D03*
X32600Y-16706D03*
X32600Y-16194D03*
G54D23*
X27444Y-15250D03*
X27956Y-15250D03*
G54D24*
X24304Y-16176D03*
X24304Y-15664D03*
G54D23*
X29244Y-15300D03*
X29756Y-15300D03*
G54D24*
X22730Y-19646D03*
X22730Y-19134D03*
X22920Y-21766D03*
X22920Y-21254D03*
X23150Y-24106D03*
X23150Y-23594D03*
G54D23*
X31056Y-25690D03*
X30544Y-25690D03*
X15756Y-18100D03*
X15244Y-18100D03*
X15756Y-19900D03*
X15244Y-19900D03*
X15756Y-18700D03*
X15244Y-18700D03*
X15756Y-19300D03*
X15244Y-19300D03*
X15756Y-22900D03*
X15244Y-22900D03*
X15244Y-22300D03*
X15756Y-22300D03*
X15756Y-21100D03*
X15244Y-21100D03*
X15756Y-20500D03*
X15244Y-20500D03*
X15244Y-21700D03*
X15756Y-21700D03*
X15756Y-15130D03*
X15244Y-15130D03*
X15756Y-15730D03*
X15244Y-15730D03*
X11704Y-12360D03*
X12216Y-12360D03*
X15244Y-13930D03*
X15756Y-13930D03*
X15244Y-14530D03*
X15756Y-14530D03*
X15756Y-16330D03*
X15244Y-16330D03*
X10634Y-12360D03*
X11146Y-12360D03*
G54D25*
X20250Y-14650D03*
X19650Y-14650D03*
X20250Y-13950D03*
X19650Y-13950D03*
G54D26*
X13137Y-12156D03*
X14279Y-12156D03*
G54D27*
X27952Y-27553D03*
X29408Y-27553D03*
X29408Y-26647D03*
X27952Y-26647D03*
G54D28*
X17100Y-21967D03*
X17474Y-22833D03*
X16725Y-22833D03*
X17100Y-21133D03*
X16726Y-20267D03*
X17475Y-20267D03*
X17300Y-26767D03*
X17674Y-27633D03*
X16925Y-27633D03*
X32460Y-26667D03*
X32834Y-27533D03*
X32085Y-27533D03*
G54D11*
X46000Y-30000D03*
G54D12*
X38000Y-30000D03*
X45000Y-30000D03*
X37000Y-30000D03*
X44000Y-30000D03*
X36000Y-30000D03*
X43000Y-30000D03*
X35000Y-30000D03*
X42000Y-30000D03*
X34000Y-30000D03*
X41000Y-30000D03*
X33000Y-30000D03*
X40000Y-30000D03*
X32000Y-30000D03*
X39000Y-30000D03*
X31000Y-30000D03*
X30000Y-30000D03*
X29000Y-30000D03*
X28000Y-30000D03*
X27000Y-30000D03*
X26000Y-30000D03*
X25000Y-30000D03*
X24000Y-30000D03*
X23000Y-30000D03*
X22000Y-30000D03*
X21000Y-30000D03*
X20000Y-30000D03*
X19000Y-30000D03*
X18000Y-30000D03*
X17000Y-30000D03*
X16000Y-30000D03*
X15000Y-30000D03*
G54D11*
X49000Y-27982D03*
G54D12*
X48000Y-27982D03*
X49000Y-26982D03*
X48000Y-26982D03*
X49000Y-25982D03*
X48000Y-25982D03*
X49000Y-24982D03*
X48000Y-24982D03*
X49000Y-23982D03*
X48000Y-23982D03*
X49000Y-22982D03*
X48000Y-22982D03*
X49000Y-21982D03*
X48000Y-21982D03*
X49000Y-20982D03*
X48000Y-20982D03*
X49000Y-19982D03*
X48000Y-19982D03*
X49000Y-18982D03*
X48000Y-18982D03*
X49000Y-17982D03*
X48000Y-17982D03*
X49000Y-16982D03*
X48000Y-16982D03*
X49000Y-15982D03*
X48000Y-15982D03*
X49000Y-14982D03*
X48000Y-14982D03*
X49000Y-13982D03*
X48000Y-13982D03*
X49000Y-12982D03*
X48000Y-12982D03*
G54D11*
X47050Y-28000D03*
G54D12*
X47050Y-20000D03*
X47050Y-27000D03*
X47050Y-19000D03*
X47050Y-26000D03*
X47050Y-18000D03*
X47050Y-25000D03*
X47050Y-17000D03*
X47050Y-24000D03*
X47050Y-16000D03*
X47050Y-23000D03*
X47050Y-15000D03*
X47050Y-22000D03*
X47050Y-14000D03*
X47050Y-21000D03*
X47050Y-13000D03*
G54D11*
X46000Y-11000D03*
G54D12*
X38000Y-11000D03*
X45000Y-11000D03*
X37000Y-11000D03*
X44000Y-11000D03*
X36000Y-11000D03*
X43000Y-11000D03*
X35000Y-11000D03*
X42000Y-11000D03*
X34000Y-11000D03*
X41000Y-11000D03*
X33000Y-11000D03*
X40000Y-11000D03*
X32000Y-11000D03*
X39000Y-11000D03*
X31000Y-11000D03*
X30000Y-11000D03*
X29000Y-11000D03*
X28000Y-11000D03*
X27000Y-11000D03*
X26000Y-11000D03*
X25000Y-11000D03*
X24000Y-11000D03*
X23000Y-11000D03*
X22000Y-11000D03*
X21000Y-11000D03*
X20000Y-11000D03*
X19000Y-11000D03*
X18000Y-11000D03*
X17000Y-11000D03*
X16000Y-11000D03*
X15000Y-11000D03*
G54D23*
X15244Y-13330D03*
X15756Y-13330D03*
G54D25*
X16980Y-13340D03*
X17580Y-13340D03*
G54D29*
X37577Y-13695D03*
X37577Y-14325D03*
X35923Y-14325D03*
X35923Y-13695D03*
X37577Y-15345D03*
X37577Y-15975D03*
X35923Y-15975D03*
X35923Y-15345D03*
G54D30*
X20059Y-27600D03*
X18741Y-27600D03*
X17759Y-25450D03*
X16441Y-25450D03*
X35159Y-27500D03*
X33841Y-27500D03*
G54D31*
X10839Y-13002D03*
X10839Y-13199D03*
X10839Y-13396D03*
X10839Y-13593D03*
X10839Y-13790D03*
X12001Y-13002D03*
X12001Y-13199D03*
X12001Y-13396D03*
X12001Y-13593D03*
X12001Y-13790D03*
G54D32*
X11420Y-13396D03*
G54D23*
X27516Y-25710D03*
X27004Y-25710D03*
G54D33*
X12840Y-19650D03*
G54D34*
X10675Y-22052D03*
X10675Y-18508D03*
X12840Y-18508D03*
G54D35*
X12840Y-22052D03*
G54D33*
X12840Y-19965D03*
X12840Y-20280D03*
X12840Y-20595D03*
X12840Y-20910D03*
G54D13*
X11856Y-19414D03*
X11856Y-21146D03*
G54D36*
X10504Y-26170D03*
X10504Y-25737D03*
X10504Y-25304D03*
X10504Y-24871D03*
X10504Y-26603D03*
X10504Y-27036D03*
X10504Y-24438D03*
X10504Y-27469D03*
G54D37*
X10544Y-23957D03*
G54D38*
X10544Y-28434D03*
G54D39*
X13545Y-23847D03*
G54D40*
X14136Y-23985D03*
G54D41*
X14705Y-28375D03*
G54D42*
X13752Y-28572D03*
G54D43*
X36583Y-22680D03*
X36898Y-22680D03*
X37213Y-22680D03*
X37528Y-22680D03*
X37843Y-22680D03*
X38158Y-22680D03*
X38473Y-22680D03*
X38788Y-22680D03*
X39103Y-22680D03*
X39418Y-22680D03*
X39733Y-22680D03*
X40050Y-22680D03*
X40370Y-22680D03*
X40677Y-22680D03*
X40992Y-22680D03*
X41307Y-22680D03*
X41622Y-22680D03*
X41937Y-22680D03*
X42252Y-22680D03*
X42567Y-22680D03*
X42882Y-22680D03*
X43197Y-22680D03*
X36583Y-18349D03*
X36898Y-18350D03*
X37213Y-18350D03*
X37528Y-18350D03*
X37843Y-18350D03*
X38158Y-18350D03*
X38473Y-18350D03*
X38788Y-18350D03*
X39100Y-18350D03*
X39420Y-18350D03*
X39733Y-18350D03*
X40047Y-18350D03*
X40362Y-18350D03*
X40677Y-18350D03*
X40992Y-18350D03*
X41307Y-18350D03*
X41622Y-18350D03*
X41937Y-18350D03*
X42252Y-18350D03*
X42567Y-18350D03*
X42882Y-18350D03*
X43197Y-18350D03*
G54D26*
X17839Y-15600D03*
X18981Y-15600D03*
X17829Y-16370D03*
X18971Y-16370D03*
G54D23*
X15756Y-17500D03*
X15244Y-17500D03*
X15244Y-16920D03*
X15756Y-16920D03*
G54D14*
X40040Y-17220D03*
X34590Y-19450D03*
X34100Y-21190D03*
X40030Y-23870D03*
X22260Y-19260D03*
X18000Y-13340D03*
X14704Y-15984D03*
G54D15*
X16394Y-27643D03*
X20062Y-27013D03*
X18585Y-25459D03*
X13596Y-20912D03*
X12213Y-11930D03*
X13160Y-16821D03*
G54D14*
X23734Y-15656D03*
X22340Y-21540D03*
X22880Y-24570D03*
X14780Y-21100D03*
X14810Y-19900D03*
X14780Y-18100D03*
X17440Y-23440D03*
X11190Y-25300D03*
X27810Y-14780D03*
X38230Y-15120D03*
X27210Y-26580D03*
X26620Y-25710D03*
X30150Y-15310D03*
X33160Y-16190D03*
X30840Y-27310D03*
G54D15*
X35960Y-27500D03*
X32330Y-28150D03*
G54D14*
X30700Y-26120D03*
X34080Y-24280D03*
X22500Y-22560D03*
X33890Y-15850D03*
X33200Y-15560D03*
X29140Y-21480D03*
X26100Y-21400D03*
X20630Y-20850D03*
X22270Y-22260D03*
X35040Y-22760D03*
X40390Y-17080D03*
X39680Y-23860D03*
X34590Y-19090D03*
X33840Y-20930D03*
X22270Y-19650D03*
G54D15*
X18753Y-26957D03*
G54D14*
X20614Y-13946D03*
X16576Y-21350D03*
X23734Y-16052D03*
X22400Y-21930D03*
X14790Y-22300D03*
X27440Y-14800D03*
X11140Y-26170D03*
X23210Y-24550D03*
X37570Y-13200D03*
X39300Y-15760D03*
X27030Y-26300D03*
X29750Y-14790D03*
X32470Y-15850D03*
X25620Y-25410D03*
X33830Y-24040D03*
G54D15*
X14277Y-12689D03*
X16610Y-15110D03*
X12480Y-13960D03*
X23570Y-26910D03*
X20710Y-26520D03*
X10320Y-13980D03*
X13160Y-15010D03*
X17140Y-15600D03*
G54D14*
X16330Y-17500D03*
X24550Y-25430D03*
X45950Y-27110D03*
X24740Y-24200D03*
X45960Y-26740D03*
X24980Y-23910D03*
X45940Y-26400D03*
X25200Y-23640D03*
X25450Y-23360D03*
X45940Y-26030D03*
X23680Y-26000D03*
X23430Y-26250D03*
X23110Y-26510D03*
X37840Y-24190D03*
X26190Y-23370D03*
X37530Y-23920D03*
X26400Y-23100D03*
X37210Y-23620D03*
X26600Y-22830D03*
X36900Y-23360D03*
X26930Y-22720D03*
X36580Y-23110D03*
X27320Y-22630D03*
X43620Y-21690D03*
X27970Y-17380D03*
X36580Y-17500D03*
X28200Y-24250D03*
X28300Y-25390D03*
X28640Y-24250D03*
X28790Y-25420D03*
X29070Y-24250D03*
X29680Y-22080D03*
X28610Y-12990D03*
X30060Y-22070D03*
X28750Y-12660D03*
X28890Y-12360D03*
X30410Y-22080D03*
X30760Y-22080D03*
X29010Y-12040D03*
X31060Y-26060D03*
G54D15*
X33840Y-27020D03*
G54D14*
X31820Y-25340D03*
X31450Y-24110D03*
X31740Y-24280D03*
X40650Y-18890D03*
X35640Y-18960D03*
X40310Y-19040D03*
X35490Y-18660D03*
X35720Y-18400D03*
X39660Y-18890D03*
X35010Y-22220D03*
X39050Y-22020D03*
X36650Y-22020D03*
X27680Y-19430D03*
X36840Y-21740D03*
X39180Y-21710D03*
X34820Y-21950D03*
X27520Y-19140D03*
X11120Y-26590D03*
X45860Y-14960D03*
X37520Y-17810D03*
X27400Y-18820D03*
X41910Y-21960D03*
X26500Y-19070D03*
X33650Y-22030D03*
X26490Y-19980D03*
X29790Y-13690D03*
X27430Y-13690D03*
X25580Y-13690D03*
X23940Y-13690D03*
X21780Y-20520D03*
X45070Y-16070D03*
X44690Y-16040D03*
X21640Y-20840D03*
X24010Y-13320D03*
X25570Y-13340D03*
X27420Y-13340D03*
X30020Y-13340D03*
X28740Y-21340D03*
X26560Y-21370D03*
X33230Y-15210D03*
X33930Y-15460D03*
X17000Y-23940D03*
X17620Y-24560D03*
X20850Y-24920D03*
X22780Y-24920D03*
X23260Y-23150D03*
X38160Y-17810D03*
X26840Y-19260D03*
X37840Y-17620D03*
X27130Y-19070D03*
X40530Y-16720D03*
X38920Y-16720D03*
X33390Y-21800D03*
X33080Y-21920D03*
X31140Y-24270D03*
X30830Y-23960D03*
X29390Y-23890D03*
X43740Y-21360D03*
X36900Y-17770D03*
X31690Y-17320D03*
X43620Y-21010D03*
X37220Y-17640D03*
X31890Y-17040D03*
X42980Y-19730D03*
X41100Y-19580D03*
X35170Y-20650D03*
X43200Y-19400D03*
X35540Y-20510D03*
X41340Y-19810D03*
X43460Y-19110D03*
X35920Y-20420D03*
X41590Y-20060D03*
X43730Y-18870D03*
X36260Y-20310D03*
X41830Y-20340D03*
X41310Y-19060D03*
X36250Y-19280D03*
X35920Y-19180D03*
X40990Y-18930D03*
X38930Y-18890D03*
X30830Y-17910D03*
X38470Y-18850D03*
X30530Y-17710D03*
X42390Y-23250D03*
X43680Y-24540D03*
X29840Y-18950D03*
X45550Y-22070D03*
X43197Y-17715D03*
X30020Y-17810D03*
X45890Y-21950D03*
X29830Y-17470D03*
X41720Y-19060D03*
X29440Y-19300D03*
X34530Y-21710D03*
X29170Y-18770D03*
X34320Y-21440D03*
X43200Y-21880D03*
X28890Y-18490D03*
X42880Y-22090D03*
X28590Y-18270D03*
X42560Y-21880D03*
X28420Y-17930D03*
X42250Y-22100D03*
X28240Y-17600D03*
X25690Y-18010D03*
X25340Y-18140D03*
X25000Y-18110D03*
X23310Y-16600D03*
X15730Y-23750D03*
X16240Y-23600D03*
X22680Y-16520D03*
X17650Y-18710D03*
X18640Y-18700D03*
X17630Y-19300D03*
X18360Y-19000D03*
X31130Y-18130D03*
X39260Y-18880D03*
X25590Y-17250D03*
X15800Y-29250D03*
X23050Y-17670D03*
X25270Y-17490D03*
X15710Y-28890D03*
X22940Y-18060D03*
X25000Y-17730D03*
X15800Y-28510D03*
X23120Y-18390D03*
G54D15*
X14304Y-16904D03*
X17190Y-16370D03*
G54D14*
X12100Y-14080D03*
X10410Y-13400D03*
G54D16*
X32525Y-23745D02*
X32889Y-23745D01*
X32889Y-23745D02*
X33300Y-24156D01*
X29675Y-16175D02*
X29675Y-15381D01*
X29675Y-15381D02*
X29756Y-15300D01*
X27510Y-16175D02*
X27510Y-15696D01*
X27510Y-15696D02*
X27956Y-15250D01*
X23875Y-23745D02*
X23301Y-23745D01*
X23301Y-23745D02*
X23150Y-23594D01*
G54D44*
X15244Y-15730D02*
X15244Y-16330D01*
X15244Y-17500D02*
X15244Y-18100D01*
G54D16*
X30660Y-24825D02*
X30465Y-24825D01*
X22730Y-19134D02*
X23014Y-19134D01*
X23100Y-19220D02*
X23875Y-19220D01*
X23014Y-19134D02*
X23100Y-19220D01*
X39654Y-17730D02*
X39654Y-17416D01*
X39654Y-17416D02*
X39850Y-17220D01*
X39850Y-17220D02*
X40040Y-17220D01*
X32525Y-19220D02*
X33914Y-19220D01*
X33914Y-19220D02*
X34090Y-19396D01*
X34090Y-19396D02*
X34536Y-19396D01*
X34536Y-19396D02*
X34590Y-19450D01*
X32525Y-21190D02*
X33234Y-21190D01*
X33234Y-21190D02*
X33410Y-21366D01*
X33410Y-21366D02*
X33924Y-21366D01*
X33924Y-21366D02*
X34100Y-21190D01*
X40050Y-22680D02*
X40050Y-23214D01*
X40050Y-23214D02*
X40186Y-23350D01*
X40186Y-23350D02*
X40186Y-23714D01*
X40186Y-23714D02*
X40030Y-23870D01*
X39733Y-18350D02*
X39733Y-17809D01*
X39733Y-17809D02*
X39654Y-17730D01*
X22730Y-19134D02*
X22386Y-19134D01*
X22386Y-19134D02*
X22260Y-19260D01*
X12216Y-12360D02*
X12216Y-12787D01*
X12216Y-12787D02*
X12001Y-13002D01*
X17580Y-13340D02*
X18000Y-13340D01*
X15244Y-15730D02*
X14958Y-15730D01*
X14958Y-15730D02*
X14704Y-15984D01*
G54D17*
X16925Y-27633D02*
X16404Y-27633D01*
X16404Y-27633D02*
X16394Y-27643D01*
X20059Y-27600D02*
X20059Y-27016D01*
X20059Y-27016D02*
X20062Y-27013D01*
X17759Y-25450D02*
X18576Y-25450D01*
X18576Y-25450D02*
X18585Y-25459D01*
G54D16*
X12840Y-20910D02*
X13594Y-20910D01*
X13594Y-20910D02*
X13596Y-20912D01*
X12216Y-12360D02*
X12216Y-11933D01*
X12216Y-11933D02*
X12213Y-11930D01*
G54D17*
X13157Y-16294D02*
X13157Y-16818D01*
X13157Y-16818D02*
X13160Y-16821D01*
G54D16*
X24955Y-16175D02*
X24955Y-15755D01*
X24864Y-15664D02*
X24304Y-15664D01*
X24955Y-15755D02*
X24864Y-15664D01*
X24304Y-15664D02*
X23742Y-15664D01*
X23742Y-15664D02*
X23734Y-15656D01*
X23875Y-21190D02*
X22984Y-21190D01*
X22984Y-21190D02*
X22920Y-21254D01*
X22920Y-21254D02*
X22626Y-21254D01*
X22626Y-21254D02*
X22340Y-21540D01*
X22850Y-23594D02*
X22724Y-23720D01*
X22850Y-23594D02*
X23150Y-23594D01*
X22724Y-24414D02*
X22880Y-24570D01*
X22724Y-23720D02*
X22724Y-24414D01*
X15244Y-21100D02*
X14780Y-21100D01*
X15244Y-19900D02*
X14810Y-19900D01*
X15244Y-18100D02*
X14780Y-18100D01*
G54D17*
X17474Y-22833D02*
X17474Y-23406D01*
X17474Y-23406D02*
X17440Y-23440D01*
G54D16*
X10504Y-25304D02*
X11186Y-25304D01*
X11186Y-25304D02*
X11190Y-25300D01*
X37577Y-15345D02*
X35923Y-15345D01*
X27956Y-15250D02*
X27956Y-14926D01*
X27956Y-14926D02*
X27810Y-14780D01*
X38394Y-14560D02*
X38394Y-14956D01*
X38394Y-14956D02*
X38230Y-15120D01*
X37577Y-15345D02*
X38005Y-15345D01*
X38005Y-15345D02*
X38230Y-15120D01*
X27705Y-24825D02*
X27705Y-25265D01*
X27004Y-25516D02*
X27010Y-25510D01*
X27004Y-25516D02*
X27004Y-25710D01*
X27705Y-25265D02*
X27610Y-25360D01*
X27610Y-25360D02*
X27160Y-25360D01*
X27160Y-25360D02*
X27010Y-25510D01*
X28074Y-25940D02*
X28074Y-26156D01*
X27220Y-26570D02*
X27210Y-26580D01*
X27220Y-26520D02*
X27220Y-26570D01*
X27960Y-26270D02*
X27680Y-26270D01*
X28074Y-26156D02*
X27960Y-26270D01*
X27680Y-26270D02*
X27470Y-26270D01*
X27470Y-26270D02*
X27220Y-26520D01*
X26620Y-25710D02*
X27004Y-25710D01*
X30660Y-24825D02*
X30660Y-25574D01*
X30660Y-25574D02*
X30544Y-25690D01*
X29756Y-15300D02*
X30140Y-15300D01*
X30140Y-15300D02*
X30150Y-15310D01*
X32525Y-17255D02*
X33055Y-17255D01*
X33160Y-17150D02*
X33160Y-16190D01*
X33055Y-17255D02*
X33160Y-17150D01*
X32600Y-16194D02*
X33156Y-16194D01*
X33156Y-16194D02*
X33160Y-16190D01*
X30330Y-27506D02*
X30644Y-27506D01*
X30644Y-27506D02*
X30840Y-27310D01*
G54D17*
X35159Y-27500D02*
X35960Y-27500D01*
X32085Y-27905D02*
X32330Y-28150D01*
X32085Y-27905D02*
X32085Y-27533D01*
G54D16*
X30544Y-25690D02*
X30544Y-25964D01*
X30544Y-25964D02*
X30700Y-26120D01*
X33300Y-24156D02*
X33546Y-24156D01*
X33546Y-24156D02*
X33680Y-24290D01*
X33680Y-24290D02*
X34070Y-24290D01*
X34070Y-24290D02*
X34080Y-24280D01*
X32525Y-21780D02*
X32830Y-21780D01*
X33244Y-21366D02*
X33410Y-21366D01*
X32830Y-21780D02*
X33244Y-21366D01*
G54D17*
X13000Y-11000D02*
X13000Y-12019D01*
X13000Y-12019D02*
X13137Y-12156D01*
G54D16*
X38379Y-15775D02*
X38394Y-15760D01*
X19000Y-21000D02*
X19490Y-21490D01*
X19490Y-23490D02*
X20000Y-24000D01*
X19490Y-21490D02*
X19490Y-23490D01*
X23476Y-21975D02*
X23875Y-21975D01*
X23111Y-22340D02*
X23476Y-21975D01*
X22720Y-22340D02*
X23111Y-22340D01*
X22500Y-22560D02*
X22720Y-22340D01*
X35923Y-15975D02*
X37577Y-15975D01*
X37577Y-15975D02*
X38179Y-15975D01*
X38179Y-15975D02*
X38394Y-15760D01*
X29480Y-24825D02*
X29480Y-24320D01*
X29767Y-21443D02*
X29825Y-21443D01*
X29150Y-22060D02*
X29767Y-21443D01*
X29150Y-23990D02*
X29150Y-22060D01*
X29480Y-24320D02*
X29150Y-23990D01*
X31700Y-20958D02*
X31450Y-21208D01*
X34015Y-15975D02*
X35923Y-15975D01*
X33890Y-15850D02*
X34015Y-15975D01*
X32420Y-15560D02*
X33200Y-15560D01*
X32170Y-15810D02*
X32420Y-15560D01*
X32170Y-15810D02*
X32170Y-16400D01*
X31450Y-17120D02*
X32170Y-16400D01*
X31215Y-21443D02*
X31450Y-21208D01*
X29825Y-21443D02*
X31215Y-21443D01*
X31450Y-17120D02*
X31450Y-17424D01*
X31450Y-17424D02*
X31700Y-17674D01*
X31700Y-17674D02*
X31700Y-20958D01*
X23875Y-21975D02*
X25525Y-21975D01*
X29177Y-21443D02*
X29825Y-21443D01*
X29140Y-21480D02*
X29177Y-21443D01*
X25525Y-21975D02*
X26100Y-21400D01*
X23875Y-17055D02*
X23105Y-17055D01*
X20630Y-18520D02*
X20630Y-20850D01*
X21620Y-17530D02*
X20630Y-18520D01*
X22630Y-17530D02*
X21620Y-17530D01*
X23105Y-17055D02*
X22630Y-17530D01*
X23875Y-21780D02*
X23471Y-21780D01*
X23471Y-21780D02*
X23056Y-22195D01*
X22335Y-22195D02*
X23056Y-22195D01*
X22270Y-22260D02*
X22335Y-22195D01*
X23875Y-17255D02*
X23479Y-17255D01*
X22202Y-18552D02*
X22260Y-18552D01*
X22202Y-18552D02*
X20958Y-19796D01*
X20958Y-19796D02*
X20958Y-21042D01*
X20958Y-21042D02*
X20000Y-22000D01*
X23479Y-17255D02*
X23105Y-17255D01*
X23105Y-17255D02*
X22470Y-17890D01*
X22470Y-17890D02*
X22470Y-18466D01*
X22470Y-18466D02*
X22384Y-18552D01*
X22384Y-18552D02*
X22260Y-18552D01*
X19000Y-22000D02*
X18510Y-21510D01*
X22660Y-16170D02*
X22330Y-16500D01*
X23490Y-16170D02*
X22660Y-16170D01*
X23900Y-16580D02*
X23490Y-16170D01*
X25260Y-16580D02*
X23900Y-16580D01*
X18510Y-20800D02*
X18510Y-21510D01*
X18810Y-20500D02*
X18510Y-20800D01*
X20020Y-20500D02*
X18810Y-20500D01*
X20488Y-20032D02*
X20020Y-20500D01*
X20488Y-18462D02*
X20488Y-20032D01*
X21495Y-17455D02*
X20488Y-18462D01*
X21495Y-16785D02*
X21495Y-17455D01*
X21780Y-16500D02*
X21495Y-16785D01*
X22330Y-16500D02*
X21780Y-16500D01*
X25345Y-16495D02*
X25345Y-16175D01*
X25345Y-16495D02*
X25260Y-16580D01*
X32525Y-23550D02*
X33206Y-23550D01*
X33206Y-23550D02*
X33300Y-23644D01*
X32525Y-17055D02*
X32525Y-16781D01*
X32525Y-16781D02*
X32600Y-16706D01*
X29480Y-16175D02*
X29480Y-15536D01*
X29480Y-15536D02*
X29244Y-15300D01*
X27315Y-16175D02*
X27315Y-15379D01*
X27315Y-15379D02*
X27444Y-15250D01*
X23875Y-23945D02*
X23311Y-23945D01*
X23311Y-23945D02*
X23150Y-24106D01*
X20250Y-14650D02*
X20250Y-13950D01*
G54D45*
X17707Y-27600D02*
X17674Y-27633D01*
X18741Y-27600D02*
X17707Y-27600D01*
X17707Y-27600D02*
X17674Y-27633D01*
G54D16*
X35190Y-22910D02*
X35040Y-22760D01*
X35190Y-22910D02*
X35424Y-22910D01*
X23875Y-19415D02*
X22961Y-19415D01*
X22961Y-19415D02*
X22730Y-19646D01*
X40166Y-17730D02*
X40166Y-17474D01*
X40390Y-17250D02*
X40390Y-17080D01*
X40166Y-17474D02*
X40390Y-17250D01*
X39674Y-23854D02*
X39680Y-23860D01*
X39674Y-23854D02*
X39674Y-23350D01*
X32525Y-19025D02*
X33949Y-19025D01*
X33949Y-19025D02*
X34090Y-18884D01*
X34090Y-18884D02*
X34384Y-18884D01*
X34384Y-18884D02*
X34590Y-19090D01*
X40047Y-18350D02*
X40047Y-17849D01*
X40047Y-17849D02*
X40166Y-17730D01*
X32525Y-20995D02*
X33269Y-20995D01*
X33269Y-20995D02*
X33410Y-20854D01*
X33410Y-20854D02*
X33764Y-20854D01*
X33764Y-20854D02*
X33840Y-20930D01*
X39733Y-22680D02*
X39733Y-23291D01*
X39733Y-23291D02*
X39674Y-23350D01*
X22730Y-19646D02*
X22274Y-19646D01*
X22274Y-19646D02*
X22270Y-19650D01*
G54D17*
X18741Y-27600D02*
X18741Y-26969D01*
X18741Y-26969D02*
X18753Y-26957D01*
G54D16*
X20250Y-13950D02*
X20610Y-13950D01*
X20610Y-13950D02*
X20614Y-13946D01*
X17100Y-21133D02*
X16793Y-21133D01*
X16793Y-21133D02*
X16576Y-21350D01*
X24304Y-16176D02*
X24754Y-16176D01*
X24754Y-16176D02*
X24755Y-16175D01*
X24304Y-16176D02*
X23858Y-16176D01*
X23858Y-16176D02*
X23734Y-16052D01*
X23875Y-21385D02*
X23535Y-21385D01*
X23154Y-21766D02*
X22920Y-21766D01*
X23535Y-21385D02*
X23154Y-21766D01*
X22920Y-21766D02*
X22564Y-21766D01*
X22564Y-21766D02*
X22400Y-21930D01*
X15244Y-22300D02*
X14790Y-22300D01*
X35923Y-13695D02*
X37577Y-13695D01*
X27444Y-15250D02*
X27444Y-14804D01*
X27444Y-14804D02*
X27440Y-14800D01*
X10504Y-26170D02*
X11140Y-26170D01*
X23150Y-24106D02*
X23150Y-24490D01*
X23150Y-24490D02*
X23210Y-24550D01*
X37577Y-13695D02*
X37577Y-13207D01*
X37577Y-13207D02*
X37570Y-13200D01*
X38906Y-15760D02*
X39300Y-15760D01*
X27905Y-24825D02*
X27905Y-25321D01*
X27905Y-25321D02*
X27516Y-25710D01*
X27516Y-25710D02*
X27516Y-25814D01*
X27516Y-25814D02*
X27030Y-26300D01*
X29244Y-15300D02*
X29244Y-14936D01*
X29390Y-14790D02*
X29750Y-14790D01*
X29244Y-14936D02*
X29390Y-14790D01*
X32320Y-16000D02*
X32470Y-15850D01*
X32320Y-16490D02*
X32320Y-16000D01*
X32536Y-16706D02*
X32320Y-16490D01*
X32536Y-16706D02*
X32600Y-16706D01*
X25740Y-24825D02*
X25740Y-25290D01*
X25740Y-25290D02*
X25620Y-25410D01*
X33300Y-23644D02*
X33434Y-23644D01*
X33434Y-23644D02*
X33830Y-24040D01*
G54D17*
X18000Y-19000D02*
X18000Y-23598D01*
X18971Y-16370D02*
X18971Y-17099D01*
X18000Y-18070D02*
X18971Y-17099D01*
X18000Y-19000D02*
X18000Y-18070D01*
X16441Y-25157D02*
X16441Y-25450D01*
X18000Y-23598D02*
X16441Y-25157D01*
X14279Y-12687D02*
X14279Y-12156D01*
X14279Y-12687D02*
X14277Y-12689D01*
X16441Y-25450D02*
X16441Y-25908D01*
X16441Y-25908D02*
X17300Y-26767D01*
G54D16*
X12001Y-13593D02*
X12001Y-13790D01*
X12001Y-13790D02*
X12310Y-13790D01*
G54D17*
X16610Y-15960D02*
X16610Y-15110D01*
X16240Y-16330D02*
X16610Y-15960D01*
X16240Y-16330D02*
X15756Y-16330D01*
G54D16*
X12310Y-13790D02*
X12480Y-13960D01*
G54D17*
X15756Y-15130D02*
X16590Y-15130D01*
X16590Y-15130D02*
X16610Y-15110D01*
X16610Y-15110D02*
X18810Y-15110D01*
X18981Y-15281D02*
X18981Y-15600D01*
X18810Y-15110D02*
X18981Y-15281D01*
X18971Y-16370D02*
X18971Y-15610D01*
X18971Y-15610D02*
X18981Y-15600D01*
X17300Y-26767D02*
X18343Y-26767D01*
X32113Y-26667D02*
X32460Y-26667D01*
X30690Y-28090D02*
X32113Y-26667D01*
X24750Y-28090D02*
X30690Y-28090D01*
X23570Y-26910D02*
X24750Y-28090D01*
X18590Y-26520D02*
X20710Y-26520D01*
X18343Y-26767D02*
X18590Y-26520D01*
G54D16*
X10839Y-13593D02*
X10839Y-13790D01*
X10420Y-13790D02*
X10839Y-13790D01*
X10320Y-13980D02*
X10320Y-13890D01*
X10320Y-13890D02*
X10420Y-13790D01*
X10634Y-12360D02*
X10530Y-12360D01*
X10530Y-12360D02*
X10170Y-12720D01*
X10170Y-12720D02*
X10170Y-13830D01*
X10170Y-13830D02*
X10320Y-13980D01*
G54D17*
X13157Y-15506D02*
X13157Y-15013D01*
X13157Y-15013D02*
X13160Y-15010D01*
X17839Y-15600D02*
X17140Y-15600D01*
G54D16*
X15756Y-17500D02*
X15756Y-16920D01*
X24755Y-24825D02*
X24755Y-25225D01*
X16330Y-17500D02*
X15756Y-17500D01*
X24755Y-25225D02*
X24550Y-25430D01*
X24740Y-24200D02*
X24955Y-24415D01*
X24955Y-24415D02*
X24955Y-24825D01*
X25150Y-24825D02*
X25150Y-24080D01*
X24980Y-23910D02*
X25150Y-24080D01*
X25345Y-24825D02*
X25345Y-23785D01*
X25200Y-23640D02*
X25345Y-23785D01*
X25545Y-23455D02*
X25545Y-24825D01*
X25545Y-23455D02*
X25450Y-23360D01*
X25935Y-24825D02*
X25935Y-26055D01*
X23906Y-26226D02*
X23680Y-26000D01*
X25764Y-26226D02*
X23906Y-26226D01*
X25935Y-26055D02*
X25764Y-26226D01*
X26135Y-24825D02*
X26135Y-26138D01*
X26135Y-26138D02*
X25905Y-26368D01*
X25905Y-26368D02*
X23548Y-26368D01*
X23548Y-26368D02*
X23430Y-26250D01*
X26330Y-24825D02*
X26330Y-26170D01*
X26330Y-26170D02*
X25990Y-26510D01*
X25990Y-26510D02*
X23110Y-26510D01*
X15244Y-13330D02*
X15244Y-12556D01*
X21480Y-10480D02*
X22000Y-11000D01*
X16860Y-10480D02*
X21480Y-10480D01*
X16510Y-10830D02*
X16860Y-10480D01*
X16510Y-11290D02*
X16510Y-10830D01*
X15244Y-12556D02*
X16510Y-11290D01*
X37843Y-24187D02*
X37843Y-22680D01*
X37843Y-24187D02*
X37840Y-24190D01*
X26525Y-23705D02*
X26190Y-23370D01*
X26525Y-23705D02*
X26525Y-24825D01*
X37528Y-23918D02*
X37528Y-22680D01*
X37528Y-23918D02*
X37530Y-23920D01*
X26725Y-23425D02*
X26400Y-23100D01*
X26725Y-23425D02*
X26725Y-24825D01*
X37213Y-23617D02*
X37210Y-23620D01*
X37213Y-23617D02*
X37213Y-22680D01*
X26920Y-23150D02*
X26600Y-22830D01*
X26920Y-23150D02*
X26920Y-24825D01*
X36898Y-22680D02*
X36898Y-23358D01*
X36898Y-23358D02*
X36900Y-23360D01*
X27115Y-22905D02*
X26930Y-22720D01*
X27115Y-22905D02*
X27115Y-24825D01*
X36583Y-23107D02*
X36580Y-23110D01*
X36583Y-23107D02*
X36583Y-22680D01*
X27315Y-22635D02*
X27315Y-24825D01*
X27315Y-22635D02*
X27320Y-22630D01*
X36583Y-19433D02*
X36583Y-18349D01*
X38014Y-20864D02*
X36583Y-19433D01*
X38014Y-20864D02*
X42844Y-20864D01*
X42844Y-20864D02*
X43620Y-21640D01*
X43620Y-21690D02*
X43620Y-21640D01*
X27510Y-24825D02*
X27510Y-22800D01*
X27970Y-20402D02*
X27970Y-17380D01*
X36580Y-17500D02*
X36583Y-17503D01*
X36583Y-17503D02*
X36583Y-18349D01*
X27510Y-22800D02*
X27510Y-22790D01*
X27510Y-22790D02*
X27970Y-22330D01*
X27970Y-22330D02*
X27970Y-20402D01*
X28100Y-24825D02*
X28100Y-24350D01*
X28100Y-24350D02*
X28200Y-24250D01*
X28300Y-24825D02*
X28300Y-25390D01*
X28495Y-24825D02*
X28495Y-24395D01*
X28495Y-24395D02*
X28640Y-24250D01*
X28695Y-24825D02*
X28695Y-25325D01*
X28695Y-25325D02*
X28790Y-25420D01*
X28890Y-24825D02*
X28890Y-24430D01*
X28890Y-24430D02*
X29070Y-24250D01*
X27952Y-27553D02*
X28257Y-27553D01*
X28586Y-27224D02*
X28586Y-26614D01*
X28586Y-26614D02*
X28586Y-25940D01*
X28257Y-27553D02*
X28586Y-27224D01*
X29085Y-24825D02*
X29085Y-26115D01*
X29085Y-26115D02*
X28586Y-26614D01*
X29408Y-26647D02*
X29983Y-26647D01*
X29983Y-26647D02*
X30330Y-26994D01*
X29285Y-24825D02*
X29285Y-26524D01*
X29285Y-26524D02*
X29408Y-26647D01*
X29675Y-24825D02*
X29675Y-22085D01*
X29675Y-22085D02*
X29680Y-22080D01*
X28610Y-12990D02*
X28700Y-12900D01*
X28700Y-12900D02*
X29900Y-12900D01*
X29900Y-12900D02*
X30894Y-11906D01*
X30894Y-11906D02*
X36094Y-11906D01*
X36094Y-11906D02*
X37000Y-11000D01*
X29875Y-24825D02*
X29875Y-22255D01*
X29875Y-22255D02*
X30060Y-22070D01*
X35236Y-11764D02*
X36000Y-11000D01*
X30836Y-11764D02*
X35236Y-11764D01*
X30000Y-12600D02*
X30836Y-11764D01*
X28810Y-12600D02*
X30000Y-12600D01*
X28750Y-12660D02*
X28810Y-12600D01*
X30070Y-24825D02*
X30070Y-22420D01*
X34378Y-11622D02*
X35000Y-11000D01*
X30778Y-11622D02*
X34378Y-11622D01*
X30120Y-12280D02*
X30778Y-11622D01*
X28970Y-12280D02*
X30120Y-12280D01*
X28890Y-12360D02*
X28970Y-12280D01*
X30070Y-22420D02*
X30410Y-22080D01*
X30265Y-24825D02*
X30265Y-22575D01*
X33520Y-11480D02*
X34000Y-11000D01*
X30720Y-11480D02*
X33520Y-11480D01*
X30294Y-11906D02*
X30720Y-11480D01*
X29144Y-11906D02*
X30294Y-11906D01*
X30265Y-22575D02*
X30760Y-22080D01*
X29010Y-12040D02*
X29144Y-11906D01*
X30855Y-24825D02*
X31055Y-24825D01*
G54D17*
X32834Y-27533D02*
X33808Y-27533D01*
X33808Y-27533D02*
X33841Y-27500D01*
G54D16*
X30855Y-24825D02*
X30855Y-25489D01*
X30855Y-25489D02*
X31056Y-25690D01*
G54D17*
X33841Y-27500D02*
X33841Y-27021D01*
G54D16*
X31056Y-26056D02*
X31060Y-26060D01*
X31056Y-26056D02*
X31056Y-25690D01*
G54D17*
X33841Y-27021D02*
X33840Y-27020D01*
G54D16*
X31250Y-24825D02*
X31250Y-25240D01*
X31250Y-25240D02*
X31350Y-25340D01*
X31350Y-25340D02*
X31820Y-25340D01*
X31445Y-24825D02*
X31445Y-24115D01*
X31445Y-24115D02*
X31450Y-24110D01*
X31645Y-24825D02*
X31645Y-24375D01*
X31645Y-24375D02*
X31740Y-24280D01*
X40677Y-18350D02*
X40677Y-17805D01*
X41346Y-16744D02*
X45780Y-16744D01*
X40677Y-17413D02*
X41346Y-16744D01*
X40677Y-17805D02*
X40677Y-17413D01*
X45780Y-16744D02*
X45794Y-16744D01*
X45794Y-16744D02*
X47050Y-18000D01*
X32525Y-18235D02*
X33545Y-18235D01*
X40677Y-18863D02*
X40677Y-18350D01*
X40650Y-18890D02*
X40677Y-18863D01*
X35450Y-18960D02*
X35640Y-18960D01*
X34644Y-18154D02*
X35450Y-18960D01*
X33626Y-18154D02*
X34644Y-18154D01*
X33545Y-18235D02*
X33626Y-18154D01*
X47050Y-17000D02*
X46652Y-16602D01*
X40535Y-17355D02*
X41288Y-16602D01*
X40535Y-17906D02*
X40535Y-17355D01*
X40362Y-18079D02*
X40535Y-17906D01*
X40362Y-18079D02*
X40362Y-18350D01*
X41288Y-16602D02*
X46652Y-16602D01*
X40362Y-18350D02*
X40362Y-18988D01*
X40362Y-18988D02*
X40310Y-19040D01*
X32553Y-18012D02*
X32525Y-18040D01*
X35490Y-18660D02*
X35350Y-18660D01*
X35350Y-18660D02*
X34702Y-18012D01*
X34702Y-18012D02*
X32553Y-18012D01*
X47050Y-16000D02*
X46850Y-15800D01*
X39386Y-17484D02*
X39420Y-17450D01*
X39386Y-17996D02*
X39386Y-17484D01*
X39420Y-18030D02*
X39386Y-17996D01*
X39420Y-18030D02*
X39420Y-18350D01*
X41070Y-15800D02*
X46370Y-15800D01*
X39420Y-17450D02*
X41070Y-15800D01*
X46370Y-15800D02*
X46850Y-15800D01*
X32525Y-17845D02*
X34735Y-17845D01*
X35290Y-18400D02*
X35720Y-18400D01*
X34735Y-17845D02*
X35290Y-18400D01*
X39420Y-18650D02*
X39420Y-18350D01*
X39420Y-18650D02*
X39660Y-18890D01*
X32525Y-17645D02*
X33165Y-17645D01*
X35382Y-12776D02*
X42224Y-12776D01*
X35215Y-12943D02*
X35382Y-12776D01*
X35215Y-12945D02*
X35215Y-12943D01*
X33612Y-14548D02*
X35215Y-12945D01*
X33612Y-14548D02*
X33612Y-17198D01*
X33165Y-17645D02*
X33612Y-17198D01*
X42224Y-12776D02*
X44000Y-11000D01*
X32525Y-17450D02*
X33160Y-17450D01*
X41376Y-12624D02*
X43000Y-11000D01*
X35316Y-12624D02*
X41376Y-12624D01*
X33470Y-14470D02*
X35316Y-12624D01*
X33470Y-14470D02*
X33470Y-17140D01*
X33160Y-17450D02*
X33470Y-17140D01*
X39103Y-22680D02*
X39103Y-23365D01*
X46192Y-25142D02*
X47050Y-26000D01*
X40092Y-25142D02*
X46192Y-25142D01*
X39103Y-24153D02*
X40092Y-25142D01*
X39103Y-23365D02*
X39103Y-24153D01*
X39103Y-22680D02*
X39103Y-22073D01*
X27828Y-18708D02*
X27828Y-19282D01*
X27558Y-18438D02*
X27828Y-18708D01*
X24695Y-18438D02*
X27558Y-18438D01*
X24297Y-18040D02*
X24695Y-18438D01*
X24297Y-18040D02*
X23875Y-18040D01*
X35210Y-22020D02*
X35010Y-22220D01*
X36650Y-22020D02*
X35210Y-22020D01*
X39103Y-22073D02*
X39050Y-22020D01*
X27828Y-19282D02*
X27680Y-19430D01*
X39418Y-22680D02*
X39418Y-24258D01*
X40160Y-25000D02*
X47050Y-25000D01*
X39418Y-24258D02*
X40160Y-25000D01*
X39418Y-22680D02*
X39418Y-21948D01*
X36840Y-21740D02*
X36830Y-21740D01*
X39418Y-21948D02*
X39180Y-21710D01*
X36840Y-21740D02*
X35030Y-21740D01*
X27686Y-18766D02*
X27686Y-18974D01*
X27500Y-18580D02*
X27686Y-18766D01*
X24637Y-18580D02*
X27500Y-18580D01*
X24292Y-18235D02*
X24637Y-18580D01*
X24292Y-18235D02*
X23875Y-18235D01*
X34820Y-21950D02*
X35030Y-21740D01*
X27686Y-18974D02*
X27520Y-19140D01*
X16000Y-30000D02*
X16896Y-29104D01*
X21100Y-19854D02*
X21100Y-19860D01*
X22260Y-18694D02*
X21100Y-19854D01*
X23220Y-18694D02*
X22260Y-18694D01*
X23479Y-18435D02*
X23220Y-18694D01*
X23479Y-18435D02*
X23875Y-18435D01*
X20096Y-29104D02*
X16896Y-29104D01*
X21100Y-19860D02*
X21100Y-28100D01*
X21100Y-28100D02*
X20096Y-29104D01*
X10504Y-26603D02*
X11107Y-26603D01*
X11107Y-26603D02*
X11120Y-26590D01*
X17000Y-30000D02*
X17754Y-29246D01*
X21258Y-28142D02*
X20154Y-29246D01*
X21258Y-28142D02*
X21258Y-20808D01*
X20154Y-29246D02*
X17754Y-29246D01*
X21258Y-20808D02*
X21258Y-20784D01*
X21258Y-20808D02*
X21258Y-19902D01*
X23484Y-18630D02*
X23875Y-18630D01*
X23278Y-18836D02*
X23484Y-18630D01*
X22318Y-18836D02*
X23278Y-18836D01*
X21258Y-19896D02*
X22318Y-18836D01*
X21258Y-19902D02*
X21258Y-19896D01*
X45730Y-15090D02*
X45860Y-14960D01*
X40780Y-15090D02*
X45730Y-15090D01*
X37528Y-18350D02*
X37528Y-17818D01*
X39401Y-16469D02*
X40780Y-15090D01*
X38621Y-16469D02*
X39401Y-16469D01*
X37520Y-17570D02*
X38621Y-16469D01*
X37520Y-17810D02*
X37520Y-17570D01*
X37528Y-17818D02*
X37520Y-17810D01*
X23875Y-18825D02*
X27395Y-18825D01*
X27400Y-18820D02*
X27395Y-18825D01*
X48000Y-17982D02*
X47988Y-17982D01*
X46306Y-21070D02*
X46896Y-20480D01*
X46306Y-23146D02*
X46306Y-21070D01*
X45950Y-23502D02*
X46306Y-23146D01*
X45950Y-23502D02*
X43870Y-23502D01*
X47988Y-17982D02*
X47520Y-18450D01*
X47520Y-18450D02*
X47520Y-20210D01*
X47520Y-20210D02*
X47250Y-20480D01*
X47250Y-20480D02*
X46896Y-20480D01*
X41622Y-22680D02*
X41622Y-23022D01*
X41622Y-23022D02*
X42102Y-23502D01*
X42102Y-23502D02*
X43870Y-23502D01*
X43870Y-23502D02*
X43874Y-23502D01*
X41622Y-22680D02*
X41622Y-22248D01*
X41622Y-22248D02*
X41910Y-21960D01*
X26500Y-19070D02*
X26455Y-19025D01*
X26455Y-19025D02*
X23875Y-19025D01*
X21400Y-20540D02*
X21400Y-20950D01*
X21400Y-28200D02*
X20212Y-29388D01*
X21400Y-20950D02*
X21400Y-28200D01*
X20212Y-29388D02*
X18612Y-29388D01*
X18000Y-30000D02*
X18612Y-29388D01*
X23456Y-19615D02*
X23875Y-19615D01*
X23456Y-19615D02*
X22928Y-20143D01*
X22928Y-20143D02*
X21797Y-20143D01*
X21797Y-20143D02*
X21400Y-20540D01*
X38158Y-22680D02*
X38158Y-22338D01*
X35936Y-22504D02*
X35936Y-22910D01*
X36170Y-22270D02*
X35936Y-22504D01*
X38090Y-22270D02*
X36170Y-22270D01*
X38158Y-22338D02*
X38090Y-22270D01*
X35936Y-22504D02*
X34934Y-22504D01*
X34490Y-22060D02*
X34460Y-22030D01*
X33650Y-22030D02*
X34460Y-22030D01*
X26320Y-19810D02*
X26490Y-19980D01*
X26320Y-19810D02*
X23875Y-19810D01*
X34934Y-22504D02*
X34490Y-22060D01*
X34480Y-22050D02*
X34490Y-22060D01*
X23875Y-20005D02*
X23459Y-20005D01*
X27430Y-13690D02*
X29790Y-13690D01*
X23940Y-13690D02*
X25580Y-13690D01*
X21940Y-20520D02*
X21780Y-20520D01*
X22175Y-20285D02*
X21940Y-20520D01*
X23179Y-20285D02*
X22175Y-20285D01*
X23459Y-20005D02*
X23179Y-20285D01*
X23875Y-20205D02*
X23458Y-20205D01*
X21820Y-20840D02*
X21640Y-20840D01*
X22233Y-20427D02*
X21820Y-20840D01*
X23236Y-20427D02*
X22233Y-20427D01*
X23458Y-20205D02*
X23236Y-20427D01*
X24010Y-13320D02*
X24030Y-13340D01*
X24030Y-13340D02*
X25570Y-13340D01*
X27420Y-13340D02*
X30020Y-13340D01*
X21584Y-27400D02*
X21584Y-21276D01*
X22291Y-20569D02*
X21584Y-21276D01*
X23294Y-20569D02*
X22291Y-20569D01*
X23463Y-20400D02*
X23294Y-20569D01*
X23463Y-20400D02*
X23875Y-20400D01*
X21584Y-27400D02*
X21584Y-27416D01*
X21584Y-27400D02*
X21584Y-28216D01*
X19470Y-29530D02*
X19000Y-30000D01*
X20270Y-29530D02*
X19470Y-29530D01*
X21584Y-28216D02*
X20270Y-29530D01*
X20000Y-30000D02*
X21726Y-28274D01*
X22349Y-20711D02*
X21726Y-21334D01*
X23352Y-20711D02*
X22349Y-20711D01*
X23463Y-20600D02*
X23352Y-20711D01*
X23463Y-20600D02*
X23875Y-20600D01*
X21726Y-21334D02*
X21726Y-28274D01*
X21000Y-30000D02*
X21868Y-29132D01*
X22407Y-20853D02*
X21868Y-21392D01*
X23415Y-20853D02*
X22407Y-20853D01*
X23473Y-20795D02*
X23415Y-20853D01*
X23473Y-20795D02*
X23875Y-20795D01*
X21868Y-21392D02*
X21868Y-29132D01*
X23875Y-20995D02*
X22465Y-20995D01*
X22010Y-29990D02*
X22000Y-30000D01*
X22010Y-21450D02*
X22010Y-29990D01*
X22465Y-20995D02*
X22010Y-21450D01*
X38906Y-14560D02*
X38906Y-14266D01*
X37835Y-14325D02*
X37935Y-14225D01*
X37835Y-14325D02*
X37577Y-14325D01*
X38906Y-14266D02*
X38750Y-14110D01*
X37935Y-14225D02*
X38050Y-14110D01*
X38050Y-14110D02*
X38750Y-14110D01*
X35923Y-14325D02*
X37577Y-14325D01*
X35923Y-14325D02*
X34035Y-14325D01*
X29380Y-21301D02*
X30064Y-21301D01*
X29309Y-21230D02*
X29380Y-21301D01*
X28850Y-21230D02*
X29309Y-21230D01*
X28740Y-21340D02*
X28850Y-21230D01*
X26698Y-21508D02*
X26560Y-21370D01*
X26698Y-22152D02*
X26698Y-21508D01*
X26564Y-22286D02*
X26698Y-22152D01*
X25764Y-22286D02*
X26564Y-22286D01*
X25285Y-22765D02*
X25764Y-22286D01*
X25285Y-22765D02*
X23875Y-22765D01*
X31308Y-17062D02*
X31308Y-17380D01*
X32028Y-16342D02*
X31308Y-17062D01*
X32028Y-15752D02*
X32028Y-16342D01*
X32362Y-15418D02*
X32028Y-15752D01*
X32962Y-15418D02*
X32362Y-15418D01*
X33170Y-15210D02*
X32962Y-15418D01*
X33230Y-15210D02*
X33170Y-15210D01*
X33754Y-15284D02*
X33930Y-15460D01*
X33754Y-14606D02*
X33754Y-15284D01*
X34035Y-14325D02*
X33754Y-14606D01*
X31308Y-17380D02*
X31308Y-17482D01*
X31308Y-17482D02*
X31558Y-17732D01*
X31558Y-17732D02*
X31558Y-20900D01*
X31558Y-20900D02*
X31157Y-21301D01*
X31157Y-21301D02*
X30064Y-21301D01*
X23875Y-21585D02*
X25565Y-21585D01*
X26350Y-21160D02*
X26560Y-21370D01*
X25990Y-21160D02*
X26350Y-21160D01*
X25565Y-21585D02*
X25990Y-21160D01*
X25530Y-29530D02*
X26000Y-30000D01*
X23390Y-29530D02*
X25530Y-29530D01*
X22156Y-28296D02*
X23390Y-29530D01*
X22156Y-23494D02*
X22156Y-23494D01*
X22156Y-23494D02*
X22156Y-23552D01*
X22156Y-23552D02*
X22156Y-28296D01*
X23875Y-22175D02*
X23477Y-22175D01*
X22156Y-23244D02*
X22156Y-23552D01*
X22918Y-22482D02*
X22156Y-23244D01*
X23170Y-22482D02*
X22918Y-22482D01*
X23477Y-22175D02*
X23170Y-22482D01*
X27000Y-30000D02*
X26388Y-29388D01*
X22298Y-23302D02*
X22298Y-23552D01*
X22976Y-22624D02*
X22298Y-23302D01*
X23228Y-22624D02*
X22976Y-22624D01*
X23482Y-22370D02*
X23228Y-22624D01*
X23482Y-22370D02*
X23875Y-22370D01*
X22298Y-23552D02*
X22298Y-28238D01*
X22298Y-28238D02*
X23448Y-29388D01*
X23448Y-29388D02*
X26388Y-29388D01*
X28000Y-30000D02*
X27246Y-29246D01*
X22440Y-23360D02*
X22440Y-23610D01*
X23032Y-22768D02*
X22440Y-23360D01*
X23284Y-22768D02*
X23032Y-22768D01*
X23487Y-22565D02*
X23284Y-22768D01*
X23487Y-22565D02*
X23875Y-22565D01*
X22440Y-23610D02*
X22440Y-28180D01*
X22440Y-28180D02*
X23506Y-29246D01*
X23506Y-29246D02*
X27246Y-29246D01*
X23875Y-22960D02*
X23460Y-22960D01*
X15244Y-23174D02*
X15244Y-22900D01*
X15390Y-23320D02*
X15244Y-23174D01*
X16380Y-23320D02*
X15390Y-23320D01*
X17000Y-23940D02*
X16380Y-23320D01*
X20490Y-24560D02*
X17620Y-24560D01*
X20850Y-24920D02*
X20490Y-24560D01*
X22582Y-24722D02*
X22780Y-24920D01*
X22582Y-23418D02*
X22582Y-24722D01*
X23460Y-22960D02*
X23410Y-22910D01*
X23410Y-22910D02*
X23090Y-22910D01*
X23090Y-22910D02*
X22582Y-23418D01*
X23875Y-23155D02*
X23265Y-23155D01*
X23265Y-23155D02*
X23260Y-23150D01*
X46306Y-13064D02*
X46910Y-12460D01*
X38260Y-17810D02*
X40838Y-15232D01*
X38160Y-17810D02*
X38260Y-17810D01*
X46910Y-12460D02*
X48220Y-12460D01*
X48220Y-12460D02*
X48490Y-12730D01*
X48490Y-12730D02*
X48490Y-14492D01*
X48490Y-14492D02*
X48000Y-14982D01*
X40838Y-15232D02*
X46218Y-15232D01*
X46218Y-15232D02*
X46306Y-15144D01*
X46306Y-15144D02*
X46306Y-13064D01*
X38158Y-18350D02*
X38158Y-17812D01*
X38158Y-17812D02*
X38160Y-17810D01*
X23875Y-23355D02*
X24905Y-23355D01*
X24905Y-23355D02*
X25832Y-22428D01*
X25832Y-22428D02*
X26622Y-22428D01*
X26622Y-22428D02*
X26840Y-22210D01*
X26840Y-22210D02*
X26840Y-19260D01*
X48000Y-15982D02*
X47522Y-16460D01*
X38020Y-17620D02*
X38920Y-16720D01*
X37840Y-17620D02*
X38020Y-17620D01*
X37843Y-17623D02*
X37840Y-17620D01*
X27130Y-19070D02*
X27130Y-21200D01*
X27130Y-21200D02*
X27130Y-22120D01*
X27130Y-22120D02*
X26680Y-22570D01*
X26680Y-22570D02*
X25890Y-22570D01*
X25890Y-22570D02*
X24910Y-23550D01*
X24910Y-23550D02*
X23875Y-23550D01*
X37843Y-17623D02*
X37843Y-18350D01*
X47522Y-16460D02*
X40790Y-16460D01*
X40790Y-16460D02*
X40530Y-16720D01*
X32525Y-23945D02*
X32525Y-24205D01*
X37240Y-26240D02*
X41000Y-30000D01*
X34560Y-26240D02*
X37240Y-26240D01*
X32525Y-24205D02*
X34560Y-26240D01*
X32525Y-23355D02*
X33580Y-23355D01*
X36338Y-26098D02*
X38098Y-26098D01*
X38098Y-26098D02*
X42000Y-30000D01*
X33580Y-23355D02*
X33595Y-23355D01*
X33595Y-23355D02*
X34340Y-24100D01*
X34340Y-24100D02*
X34340Y-25382D01*
X34340Y-25382D02*
X35056Y-26098D01*
X35056Y-26098D02*
X36338Y-26098D01*
X32525Y-23155D02*
X33595Y-23155D01*
X35552Y-25956D02*
X36424Y-25956D01*
X34610Y-25014D02*
X35552Y-25956D01*
X34610Y-24170D02*
X34610Y-25014D01*
X33994Y-23554D02*
X34610Y-24170D01*
X33595Y-23155D02*
X33994Y-23554D01*
X36396Y-25956D02*
X36424Y-25956D01*
X36424Y-25956D02*
X38956Y-25956D01*
X38956Y-25956D02*
X43000Y-30000D01*
X32525Y-22960D02*
X33600Y-22960D01*
X36450Y-25814D02*
X36450Y-25810D01*
X36096Y-25814D02*
X36450Y-25814D01*
X35032Y-24750D02*
X36096Y-25814D01*
X35032Y-24392D02*
X35032Y-24750D01*
X34094Y-23454D02*
X35032Y-24392D01*
X33600Y-22960D02*
X34094Y-23454D01*
X36450Y-25810D02*
X36450Y-25810D01*
X36450Y-25810D02*
X39810Y-25810D01*
X39810Y-25810D02*
X44000Y-30000D01*
X32525Y-22765D02*
X33605Y-22765D01*
X40668Y-25668D02*
X45000Y-30000D01*
X36508Y-25668D02*
X40668Y-25668D01*
X33605Y-22765D02*
X36508Y-25668D01*
X32525Y-22565D02*
X32955Y-22565D01*
X33350Y-21840D02*
X33390Y-21800D01*
X33350Y-22170D02*
X33350Y-21840D01*
X32955Y-22565D02*
X33350Y-22170D01*
X32525Y-22370D02*
X32950Y-22370D01*
X33080Y-22240D02*
X33080Y-21920D01*
X32950Y-22370D02*
X33080Y-22240D01*
X32525Y-22175D02*
X31805Y-22175D01*
X31140Y-22840D02*
X31140Y-24270D01*
X31805Y-22175D02*
X31140Y-22840D01*
X32525Y-21975D02*
X31585Y-21975D01*
X30830Y-22730D02*
X30830Y-23960D01*
X31585Y-21975D02*
X30830Y-22730D01*
X32525Y-21585D02*
X29825Y-21585D01*
X29390Y-22020D02*
X29390Y-23890D01*
X29825Y-21585D02*
X29390Y-22020D01*
X36898Y-19548D02*
X36898Y-18350D01*
X36898Y-19548D02*
X38072Y-20722D01*
X38072Y-20722D02*
X42902Y-20722D01*
X42902Y-20722D02*
X43540Y-21360D01*
X43540Y-21360D02*
X43740Y-21360D01*
X32525Y-21385D02*
X32035Y-21385D01*
X36898Y-17772D02*
X36898Y-18350D01*
X36900Y-17770D02*
X36898Y-17772D01*
X32035Y-21385D02*
X31848Y-21198D01*
X31848Y-21198D02*
X31848Y-17478D01*
X31848Y-17478D02*
X31690Y-17320D01*
X37213Y-18350D02*
X37213Y-19663D01*
X43190Y-20580D02*
X43620Y-21010D01*
X41830Y-20580D02*
X43190Y-20580D01*
X37213Y-19663D02*
X38130Y-20580D01*
X38130Y-20580D02*
X41830Y-20580D01*
X32525Y-20795D02*
X32095Y-20795D01*
X37213Y-17647D02*
X37213Y-18350D01*
X37220Y-17640D02*
X37213Y-17647D01*
X31990Y-17140D02*
X31890Y-17040D01*
X31990Y-17270D02*
X31990Y-17140D01*
X32095Y-20795D02*
X31990Y-20690D01*
X31990Y-20690D02*
X31990Y-17270D01*
X41937Y-18350D02*
X41937Y-18687D01*
X42980Y-19730D02*
X42980Y-19730D01*
X41937Y-18687D02*
X42980Y-19730D01*
X32525Y-20600D02*
X35120Y-20600D01*
X42036Y-19730D02*
X42980Y-19730D01*
X41866Y-19560D02*
X42036Y-19730D01*
X41120Y-19560D02*
X41866Y-19560D01*
X41100Y-19580D02*
X41120Y-19560D01*
X35120Y-20600D02*
X35170Y-20650D01*
X42252Y-18350D02*
X42252Y-18692D01*
X42930Y-19400D02*
X43200Y-19400D01*
X42252Y-18722D02*
X42930Y-19400D01*
X42252Y-18350D02*
X42252Y-18722D01*
X32525Y-20400D02*
X33446Y-20400D01*
X42086Y-19980D02*
X42904Y-19980D01*
X41916Y-19810D02*
X42086Y-19980D01*
X41730Y-19810D02*
X41916Y-19810D01*
X35440Y-20410D02*
X35540Y-20510D01*
X35217Y-20410D02*
X35440Y-20410D01*
X33446Y-20400D02*
X33456Y-20410D01*
X33456Y-20410D02*
X35217Y-20410D01*
X41340Y-19810D02*
X41730Y-19810D01*
X43300Y-19500D02*
X43300Y-19750D01*
X43300Y-19750D02*
X43070Y-19980D01*
X43070Y-19980D02*
X42904Y-19980D01*
X42904Y-19980D02*
X42896Y-19980D01*
X43300Y-19500D02*
X43200Y-19400D01*
X42567Y-18350D02*
X42567Y-18717D01*
X42567Y-18717D02*
X42960Y-19110D01*
X42960Y-19110D02*
X43460Y-19110D01*
X32525Y-20205D02*
X33515Y-20205D01*
X33578Y-20268D02*
X35307Y-20268D01*
X33515Y-20205D02*
X33578Y-20268D01*
X35307Y-20268D02*
X35768Y-20268D01*
X35768Y-20268D02*
X35920Y-20420D01*
X43460Y-19110D02*
X43460Y-19790D01*
X42024Y-20122D02*
X42816Y-20122D01*
X41942Y-20040D02*
X42024Y-20122D01*
X41610Y-20040D02*
X41942Y-20040D01*
X41590Y-20060D02*
X41610Y-20040D01*
X43128Y-20122D02*
X42816Y-20122D01*
X43460Y-19790D02*
X43128Y-20122D01*
X42882Y-18350D02*
X42882Y-18732D01*
X43020Y-18870D02*
X43730Y-18870D01*
X42882Y-18732D02*
X43020Y-18870D01*
X32525Y-20005D02*
X33515Y-20005D01*
X33636Y-20126D02*
X35687Y-20126D01*
X33515Y-20005D02*
X33636Y-20126D01*
X35687Y-20126D02*
X36076Y-20126D01*
X36076Y-20126D02*
X36260Y-20310D01*
X43730Y-18870D02*
X43730Y-19720D01*
X41830Y-20340D02*
X41906Y-20264D01*
X41906Y-20264D02*
X43186Y-20264D01*
X43186Y-20264D02*
X43730Y-19720D01*
X40370Y-22680D02*
X40370Y-23000D01*
X46970Y-24080D02*
X47050Y-24000D01*
X41450Y-24080D02*
X46970Y-24080D01*
X40370Y-23000D02*
X41450Y-24080D01*
X32525Y-19810D02*
X33520Y-19810D01*
X40370Y-21870D02*
X40370Y-22680D01*
X39960Y-21460D02*
X40370Y-21870D01*
X37760Y-21460D02*
X39960Y-21460D01*
X36284Y-19984D02*
X37760Y-21460D01*
X33694Y-19984D02*
X36284Y-19984D01*
X33520Y-19810D02*
X33694Y-19984D01*
X40677Y-22680D02*
X40677Y-23107D01*
X46112Y-23938D02*
X47050Y-23000D01*
X41508Y-23938D02*
X46112Y-23938D01*
X40677Y-23107D02*
X41508Y-23938D01*
X40677Y-21975D02*
X40677Y-22680D01*
X33525Y-19615D02*
X32525Y-19615D01*
X33752Y-19842D02*
X33525Y-19615D01*
X33752Y-19842D02*
X36362Y-19842D01*
X36362Y-19842D02*
X37828Y-21308D01*
X37828Y-21308D02*
X40010Y-21308D01*
X40010Y-21308D02*
X40677Y-21975D01*
X40992Y-22680D02*
X40992Y-23222D01*
X41566Y-23796D02*
X45240Y-23796D01*
X45240Y-23796D02*
X45254Y-23796D01*
X40992Y-23222D02*
X41566Y-23796D01*
X45240Y-23796D02*
X46055Y-23796D01*
X46590Y-22460D02*
X47050Y-22000D01*
X46590Y-23261D02*
X46590Y-22460D01*
X46055Y-23796D02*
X46590Y-23261D01*
X32525Y-19415D02*
X33525Y-19415D01*
X40992Y-22082D02*
X40992Y-22680D01*
X40076Y-21166D02*
X40992Y-22082D01*
X37906Y-21166D02*
X40076Y-21166D01*
X36440Y-19700D02*
X37906Y-21166D01*
X33810Y-19700D02*
X36440Y-19700D01*
X33525Y-19415D02*
X33810Y-19700D01*
X41307Y-22680D02*
X41307Y-23327D01*
X46448Y-21602D02*
X47050Y-21000D01*
X46448Y-23204D02*
X46448Y-21602D01*
X45998Y-23654D02*
X46448Y-23204D01*
X44396Y-23654D02*
X45998Y-23654D01*
X41307Y-23327D02*
X41634Y-23654D01*
X41634Y-23654D02*
X44396Y-23654D01*
X32525Y-18825D02*
X33555Y-18825D01*
X37966Y-21016D02*
X36508Y-19558D01*
X37966Y-21016D02*
X40138Y-21016D01*
X40138Y-21016D02*
X41307Y-22185D01*
X41307Y-22185D02*
X41307Y-22680D01*
X33555Y-18825D02*
X33800Y-18580D01*
X33800Y-18580D02*
X34470Y-18580D01*
X34470Y-18580D02*
X35448Y-19558D01*
X35448Y-19558D02*
X36508Y-19558D01*
X41307Y-18350D02*
X41307Y-17519D01*
X41462Y-17028D02*
X44070Y-17028D01*
X44070Y-17028D02*
X44078Y-17028D01*
X41307Y-17183D02*
X41462Y-17028D01*
X41307Y-17519D02*
X41307Y-17183D01*
X44070Y-17028D02*
X45678Y-17028D01*
X46448Y-19398D02*
X47050Y-20000D01*
X46448Y-17798D02*
X46448Y-19398D01*
X45678Y-17028D02*
X46448Y-17798D01*
X32525Y-18630D02*
X33550Y-18630D01*
X41307Y-19057D02*
X41307Y-18350D01*
X41310Y-19060D02*
X41307Y-19057D01*
X33550Y-18630D02*
X33742Y-18438D01*
X33742Y-18438D02*
X34528Y-18438D01*
X34528Y-18438D02*
X35506Y-19416D01*
X35506Y-19416D02*
X36114Y-19416D01*
X36114Y-19416D02*
X36250Y-19280D01*
X40992Y-18350D02*
X40992Y-17662D01*
X46590Y-18540D02*
X47050Y-19000D01*
X46590Y-17740D02*
X46590Y-18540D01*
X45736Y-16886D02*
X46590Y-17740D01*
X44936Y-16886D02*
X45736Y-16886D01*
X40992Y-17662D02*
X40992Y-17298D01*
X40992Y-17298D02*
X41404Y-16886D01*
X41404Y-16886D02*
X44936Y-16886D01*
X40992Y-18350D02*
X40992Y-18928D01*
X33545Y-18435D02*
X32525Y-18435D01*
X33684Y-18296D02*
X33545Y-18435D01*
X34586Y-18296D02*
X33684Y-18296D01*
X35565Y-19275D02*
X34586Y-18296D01*
X35825Y-19275D02*
X35565Y-19275D01*
X35920Y-19180D02*
X35825Y-19275D01*
X40992Y-18928D02*
X40990Y-18930D01*
X38788Y-18350D02*
X38788Y-17738D01*
X46590Y-14460D02*
X47050Y-14000D01*
X46590Y-15260D02*
X46590Y-14460D01*
X46334Y-15516D02*
X46590Y-15260D01*
X38788Y-17738D02*
X38788Y-17682D01*
X38788Y-17682D02*
X40954Y-15516D01*
X40954Y-15516D02*
X46334Y-15516D01*
X38788Y-18350D02*
X38788Y-18748D01*
X38788Y-18748D02*
X38930Y-18890D01*
X30660Y-16175D02*
X30660Y-17490D01*
X30660Y-17490D02*
X30830Y-17660D01*
X30830Y-17660D02*
X30830Y-17910D01*
X38473Y-18350D02*
X38473Y-17881D01*
X46448Y-13602D02*
X47050Y-13000D01*
X46448Y-15202D02*
X46448Y-13602D01*
X46276Y-15374D02*
X46448Y-15202D01*
X38473Y-17881D02*
X38473Y-17797D01*
X38473Y-17797D02*
X40896Y-15374D01*
X40896Y-15374D02*
X46276Y-15374D01*
X38473Y-18350D02*
X38473Y-18847D01*
X38473Y-18847D02*
X38470Y-18850D01*
X30465Y-16175D02*
X30465Y-17645D01*
X30465Y-17645D02*
X30530Y-17710D01*
X48000Y-27982D02*
X47992Y-27982D01*
X41940Y-22683D02*
X41937Y-22680D01*
X41940Y-23130D02*
X41940Y-22683D01*
X42060Y-23250D02*
X41940Y-23130D01*
X42390Y-23250D02*
X42060Y-23250D01*
X43680Y-24540D02*
X43680Y-24540D01*
X47230Y-24540D02*
X43680Y-24540D01*
X47230Y-24540D02*
X47500Y-24810D01*
X47500Y-24810D02*
X47500Y-27490D01*
X47992Y-27982D02*
X47500Y-27490D01*
X30265Y-18525D02*
X29840Y-18950D01*
X30265Y-18525D02*
X30265Y-16175D01*
X43600Y-17312D02*
X43197Y-17715D01*
X45562Y-17312D02*
X44235Y-17312D01*
X46022Y-17772D02*
X45562Y-17312D01*
X46022Y-21388D02*
X46022Y-17772D01*
X45550Y-21860D02*
X46022Y-21388D01*
X45550Y-22070D02*
X45550Y-21860D01*
X43600Y-17312D02*
X44235Y-17312D01*
X43197Y-17730D02*
X43197Y-18350D01*
X43197Y-17730D02*
X43197Y-17715D01*
X30070Y-16175D02*
X30070Y-17760D01*
X30020Y-17810D02*
X30070Y-17760D01*
X41622Y-17388D02*
X41622Y-18350D01*
X41840Y-17170D02*
X41622Y-17388D01*
X45620Y-17170D02*
X41840Y-17170D01*
X46164Y-17714D02*
X45620Y-17170D01*
X46164Y-21676D02*
X46164Y-17714D01*
X45890Y-21950D02*
X46164Y-21676D01*
X41622Y-18350D02*
X41622Y-18962D01*
X29875Y-17425D02*
X29875Y-16175D01*
X29830Y-17470D02*
X29875Y-17425D01*
X41622Y-18962D02*
X41720Y-19060D01*
X38473Y-22680D02*
X38473Y-23079D01*
X39966Y-25426D02*
X44470Y-25426D01*
X44470Y-25426D02*
X44476Y-25426D01*
X38473Y-23933D02*
X39966Y-25426D01*
X38473Y-23079D02*
X38473Y-23933D01*
X44470Y-25426D02*
X46076Y-25426D01*
X46448Y-27398D02*
X47050Y-28000D01*
X46448Y-25798D02*
X46448Y-27398D01*
X46076Y-25426D02*
X46448Y-25798D01*
X38473Y-22680D02*
X38473Y-21961D01*
X29440Y-18470D02*
X29440Y-19300D01*
X29285Y-18315D02*
X29440Y-18470D01*
X29285Y-18315D02*
X29285Y-16175D01*
X34878Y-21362D02*
X34530Y-21710D01*
X37262Y-21362D02*
X34878Y-21362D01*
X37644Y-21744D02*
X37262Y-21362D01*
X38256Y-21744D02*
X37644Y-21744D01*
X38473Y-21961D02*
X38256Y-21744D01*
X38788Y-22680D02*
X38788Y-23222D01*
X40034Y-25284D02*
X45330Y-25284D01*
X45330Y-25284D02*
X45334Y-25284D01*
X38788Y-24038D02*
X40034Y-25284D01*
X38788Y-23222D02*
X38788Y-24038D01*
X45330Y-25284D02*
X46134Y-25284D01*
X46590Y-26540D02*
X47050Y-27000D01*
X46590Y-25740D02*
X46590Y-26540D01*
X46134Y-25284D02*
X46590Y-25740D01*
X38788Y-22680D02*
X38788Y-21990D01*
X29085Y-18325D02*
X29170Y-18410D01*
X29170Y-18410D02*
X29170Y-18770D01*
X29085Y-18325D02*
X29085Y-16175D01*
X38788Y-21990D02*
X38400Y-21602D01*
X38400Y-21602D02*
X37702Y-21602D01*
X37702Y-21602D02*
X37320Y-21220D01*
X37320Y-21220D02*
X34540Y-21220D01*
X34540Y-21220D02*
X34320Y-21440D01*
X43197Y-22680D02*
X43197Y-21883D01*
X43197Y-21883D02*
X43200Y-21880D01*
X28890Y-16175D02*
X28890Y-18490D01*
X42882Y-22680D02*
X42882Y-22092D01*
X42880Y-22090D02*
X42882Y-22092D01*
X28695Y-18165D02*
X28695Y-16175D01*
X28590Y-18270D02*
X28695Y-18165D01*
X42567Y-22680D02*
X42567Y-21887D01*
X42560Y-21880D02*
X42567Y-21887D01*
X28495Y-16175D02*
X28495Y-17855D01*
X28420Y-17930D02*
X28495Y-17855D01*
X42252Y-22680D02*
X42252Y-22102D01*
X42250Y-22100D02*
X42252Y-22102D01*
X28300Y-16175D02*
X28300Y-17540D01*
X28240Y-17600D02*
X28300Y-17540D01*
X28100Y-16650D02*
X28100Y-16175D01*
X26956Y-17794D02*
X28100Y-16650D01*
X25906Y-17794D02*
X26956Y-17794D01*
X25690Y-18010D02*
X25906Y-17794D01*
X25340Y-17970D02*
X25340Y-18140D01*
X25658Y-17652D02*
X25340Y-17970D01*
X26898Y-17652D02*
X25658Y-17652D01*
X27905Y-16645D02*
X26898Y-17652D01*
X27905Y-16175D02*
X27905Y-16645D01*
X27705Y-16175D02*
X27705Y-16645D01*
X26840Y-17510D02*
X27705Y-16645D01*
X25600Y-17510D02*
X26840Y-17510D01*
X25000Y-18110D02*
X25600Y-17510D01*
X27115Y-16175D02*
X27115Y-12485D01*
X30236Y-11764D02*
X31000Y-11000D01*
X27836Y-11764D02*
X30236Y-11764D01*
X27115Y-12485D02*
X27836Y-11764D01*
X26920Y-16175D02*
X26920Y-12480D01*
X29378Y-11622D02*
X30000Y-11000D01*
X27778Y-11622D02*
X29378Y-11622D01*
X26920Y-12480D02*
X27778Y-11622D01*
X26725Y-16175D02*
X26725Y-12475D01*
X28520Y-11480D02*
X29000Y-11000D01*
X27720Y-11480D02*
X28520Y-11480D01*
X26725Y-12475D02*
X27720Y-11480D01*
X26725Y-16175D02*
X26725Y-16605D01*
X26466Y-16864D02*
X23840Y-16864D01*
X23840Y-16864D02*
X23812Y-16864D01*
X26725Y-16605D02*
X26466Y-16864D01*
X10504Y-24871D02*
X11049Y-24871D01*
X23574Y-16864D02*
X23840Y-16864D01*
X23310Y-16600D02*
X23574Y-16864D01*
X15420Y-23750D02*
X15730Y-23750D01*
X15052Y-23382D02*
X15420Y-23750D01*
X12538Y-23382D02*
X15052Y-23382D01*
X11049Y-24871D02*
X12538Y-23382D01*
X26525Y-16175D02*
X26525Y-12475D01*
X26525Y-12475D02*
X28000Y-11000D01*
X26525Y-16175D02*
X26525Y-16605D01*
X11282Y-24438D02*
X10504Y-24438D01*
X12480Y-23240D02*
X11282Y-24438D01*
X15110Y-23240D02*
X12480Y-23240D01*
X15380Y-23510D02*
X15110Y-23240D01*
X16150Y-23510D02*
X15380Y-23510D01*
X16240Y-23600D02*
X16150Y-23510D01*
X22888Y-16312D02*
X22680Y-16520D01*
X23430Y-16312D02*
X22888Y-16312D01*
X23840Y-16722D02*
X23430Y-16312D01*
X26408Y-16722D02*
X23840Y-16722D01*
X26525Y-16605D02*
X26408Y-16722D01*
X26330Y-16175D02*
X26330Y-12440D01*
X20470Y-11470D02*
X20000Y-11000D01*
X25360Y-11470D02*
X20470Y-11470D01*
X26330Y-12440D02*
X25360Y-11470D01*
X26135Y-16175D02*
X26135Y-12445D01*
X19612Y-11612D02*
X19000Y-11000D01*
X25302Y-11612D02*
X19612Y-11612D01*
X26135Y-12445D02*
X25302Y-11612D01*
X25935Y-16175D02*
X25935Y-12445D01*
X18754Y-11754D02*
X18000Y-11000D01*
X25244Y-11754D02*
X18754Y-11754D01*
X25935Y-12445D02*
X25244Y-11754D01*
X15756Y-18100D02*
X15756Y-18700D01*
X25740Y-16175D02*
X25740Y-15750D01*
X17640Y-18700D02*
X15756Y-18700D01*
X17650Y-18710D02*
X17640Y-18700D01*
X19852Y-18700D02*
X18640Y-18700D01*
X21211Y-17341D02*
X19852Y-18700D01*
X21211Y-15049D02*
X21211Y-17341D01*
X21760Y-14500D02*
X21211Y-15049D01*
X24490Y-14500D02*
X21760Y-14500D01*
X25740Y-15750D02*
X24490Y-14500D01*
X15244Y-20500D02*
X15244Y-20412D01*
X15244Y-20412D02*
X15756Y-19900D01*
X15756Y-19900D02*
X15756Y-19300D01*
X25545Y-16175D02*
X25545Y-15755D01*
X17630Y-19300D02*
X15756Y-19300D01*
X19751Y-19000D02*
X18360Y-19000D01*
X21830Y-15500D02*
X21353Y-15977D01*
X23530Y-15500D02*
X21830Y-15500D01*
X23670Y-15360D02*
X23530Y-15500D01*
X25150Y-15360D02*
X23670Y-15360D01*
X25545Y-15755D02*
X25150Y-15360D01*
X21353Y-15977D02*
X21353Y-17398D01*
X21353Y-17398D02*
X19751Y-19000D01*
X31645Y-16175D02*
X31645Y-14685D01*
X40518Y-12482D02*
X42000Y-11000D01*
X33848Y-12482D02*
X40518Y-12482D01*
X31645Y-14685D02*
X33848Y-12482D01*
X31445Y-16175D02*
X31445Y-14685D01*
X39660Y-12340D02*
X41000Y-11000D01*
X33790Y-12340D02*
X39660Y-12340D01*
X31445Y-14685D02*
X33790Y-12340D01*
X31250Y-16175D02*
X31250Y-14680D01*
X38808Y-12192D02*
X40000Y-11000D01*
X33738Y-12192D02*
X38808Y-12192D01*
X31250Y-14680D02*
X33738Y-12192D01*
X31055Y-16175D02*
X31055Y-14675D01*
X37950Y-12050D02*
X39000Y-11000D01*
X33680Y-12050D02*
X37950Y-12050D01*
X31055Y-14675D02*
X33680Y-12050D01*
X39100Y-18350D02*
X39100Y-17598D01*
X46392Y-15658D02*
X47050Y-15000D01*
X41012Y-15658D02*
X46392Y-15658D01*
X39100Y-17570D02*
X41012Y-15658D01*
X39100Y-17598D02*
X39100Y-17570D01*
X39100Y-18350D02*
X39100Y-18720D01*
X31130Y-17750D02*
X31130Y-18130D01*
X30855Y-17475D02*
X31130Y-17750D01*
X30855Y-17475D02*
X30855Y-16175D01*
X39100Y-18720D02*
X39260Y-18880D01*
X23875Y-17450D02*
X24740Y-17450D01*
X24940Y-17250D02*
X25590Y-17250D01*
X24740Y-17450D02*
X24940Y-17250D01*
X23875Y-17450D02*
X23270Y-17450D01*
X15520Y-29530D02*
X15800Y-29250D01*
X13040Y-29530D02*
X15520Y-29530D01*
X10979Y-27469D02*
X13040Y-29530D01*
X10979Y-27469D02*
X10504Y-27469D01*
X23270Y-17450D02*
X23050Y-17670D01*
X23875Y-17645D02*
X24745Y-17645D01*
X24900Y-17490D02*
X25270Y-17490D01*
X24745Y-17645D02*
X24900Y-17490D01*
X23875Y-17645D02*
X23475Y-17645D01*
X10746Y-27036D02*
X10504Y-27036D01*
X13098Y-29388D02*
X10746Y-27036D01*
X15212Y-29388D02*
X13098Y-29388D01*
X15710Y-28890D02*
X15212Y-29388D01*
X23060Y-18060D02*
X22940Y-18060D01*
X23475Y-17645D02*
X23060Y-18060D01*
X23875Y-17845D02*
X24885Y-17845D01*
X24885Y-17845D02*
X25000Y-17730D01*
X23875Y-17845D02*
X23475Y-17845D01*
X11217Y-25737D02*
X10504Y-25737D01*
X11460Y-25980D02*
X11217Y-25737D01*
X11460Y-27550D02*
X11460Y-25980D01*
X13156Y-29246D02*
X11460Y-27550D01*
X15154Y-29246D02*
X13156Y-29246D01*
X15450Y-28950D02*
X15154Y-29246D01*
X15450Y-28680D02*
X15450Y-28950D01*
X15620Y-28510D02*
X15450Y-28680D01*
X15800Y-28510D02*
X15620Y-28510D01*
X23410Y-18100D02*
X23120Y-18390D01*
X23410Y-17910D02*
X23410Y-18100D01*
X23475Y-17845D02*
X23410Y-17910D01*
X12840Y-19965D02*
X13424Y-19965D01*
X14689Y-18700D02*
X15244Y-18700D01*
X13424Y-19965D02*
X14689Y-18700D01*
X12840Y-20280D02*
X13310Y-20280D01*
X14290Y-19300D02*
X15244Y-19300D01*
X13310Y-20280D02*
X14290Y-19300D01*
X16658Y-22900D02*
X16725Y-22833D01*
X15756Y-22300D02*
X15756Y-22900D01*
X15756Y-22900D02*
X16658Y-22900D01*
X16667Y-21967D02*
X17100Y-21967D01*
X16400Y-21700D02*
X16667Y-21967D01*
X15756Y-21700D02*
X16400Y-21700D01*
X15756Y-21700D02*
X15756Y-21100D01*
X17475Y-20267D02*
X17475Y-20365D01*
X16156Y-20700D02*
X15756Y-21100D01*
X17140Y-20700D02*
X16156Y-20700D01*
X17475Y-20365D02*
X17140Y-20700D01*
X15756Y-20500D02*
X16493Y-20500D01*
X16493Y-20500D02*
X16726Y-20267D01*
X12840Y-19650D02*
X13538Y-19650D01*
X13538Y-19650D02*
X14304Y-18884D01*
X14304Y-18884D02*
X14304Y-16904D01*
G54D17*
X17190Y-16370D02*
X17829Y-16370D01*
G54D16*
X12840Y-19650D02*
X12280Y-19650D01*
X15044Y-21500D02*
X15244Y-21700D01*
X12440Y-21500D02*
X15044Y-21500D01*
X12190Y-21250D02*
X12440Y-21500D01*
X12190Y-19740D02*
X12190Y-21250D01*
X12280Y-19650D02*
X12190Y-19740D01*
X15244Y-16920D02*
X14320Y-16920D01*
X14320Y-16920D02*
X14304Y-16904D01*
X15244Y-15130D02*
X15244Y-15218D01*
X15244Y-15218D02*
X15756Y-15730D01*
X10839Y-13396D02*
X10414Y-13396D01*
X14730Y-15130D02*
X15244Y-15130D01*
X14270Y-14670D02*
X14730Y-15130D01*
X12690Y-14670D02*
X14270Y-14670D01*
X12100Y-14080D02*
X12690Y-14670D01*
X10414Y-13396D02*
X10410Y-13400D01*
X11704Y-12360D02*
X11146Y-12360D01*
X10839Y-13002D02*
X10839Y-12881D01*
X11146Y-12574D02*
X11146Y-12360D01*
X10839Y-12881D02*
X11146Y-12574D01*
X12001Y-13199D02*
X12359Y-13199D01*
X13090Y-13930D02*
X15244Y-13930D01*
X12359Y-13199D02*
X13090Y-13930D01*
X15756Y-13930D02*
X19630Y-13930D01*
X19630Y-13930D02*
X19650Y-13950D01*
X12001Y-13396D02*
X12356Y-13396D01*
X15242Y-14528D02*
X15244Y-14530D01*
X13488Y-14528D02*
X15242Y-14528D01*
X12356Y-13396D02*
X13488Y-14528D01*
X15756Y-14530D02*
X19530Y-14530D01*
X19530Y-14530D02*
X19650Y-14650D01*
X15756Y-13330D02*
X16970Y-13330D01*
X16970Y-13330D02*
X16980Y-13340D01*
M02*
