M48
INCH,LZ
T1C0.015
T2C0.025
T3C0.032
T4C0.035
T5C0.040
%
G05
T1
X01041Y-0134
X01112Y-02659
X01114Y-02617
X01119Y-0253
X0121Y-01408
X012213Y-01193
X013596Y-020912
X014704Y-015984
X01478Y-0181
X01478Y-0211
X01479Y-0223
X01481Y-0199
X01571Y-02889
X01573Y-02375
X0158Y-02851
X0158Y-02925
X01624Y-0236
X01633Y-0175
X016576Y-02135
X017Y-02394
X01744Y-02344
X01762Y-02456
X01763Y-0193
X01765Y-01871
X018Y-01334
X01836Y-019
X01864Y-0187
X020614Y-013946
X02063Y-02085
X02085Y-02492
X02164Y-02084
X02178Y-02052
X02226Y-01926
X02227Y-01965
X02227Y-02226
X02234Y-02154
X0224Y-02193
X0225Y-02256
X02268Y-01652
X02278Y-02492
X02288Y-02457
X02294Y-01806
X02305Y-01767
X02311Y-02651
X02312Y-01839
X02321Y-02455
X02326Y-02315
X02331Y-0166
X02343Y-02625
X02368Y-026
X023734Y-015656
X023734Y-016052
X02394Y-01369
X02401Y-01332
X02455Y-02543
X02474Y-0242
X02498Y-02391
X025Y-01773
X025Y-01811
X0252Y-02364
X02527Y-01749
X02534Y-01814
X02545Y-02336
X02557Y-01334
X02558Y-01369
X02559Y-01725
X02562Y-02541
X02569Y-01801
X0261Y-0214
X02619Y-02337
X0264Y-0231
X02649Y-01998
X0265Y-01907
X02656Y-02137
X0266Y-02283
X02662Y-02571
X02684Y-01926
X02693Y-02272
X02703Y-0263
X02713Y-01907
X02721Y-02658
X02732Y-02263
X0274Y-01882
X02742Y-01334
X02743Y-01369
X02744Y-0148
X02752Y-01914
X02768Y-01943
X02781Y-01478
X02797Y-01738
X0282Y-02425
X02824Y-0176
X0283Y-02539
X02842Y-01793
X02859Y-01827
X02861Y-01299
X02864Y-02425
X02874Y-02134
X02875Y-01266
X02879Y-02542
X02889Y-01236
X02889Y-01849
X02901Y-01204
X02907Y-02425
X02914Y-02148
X02917Y-01877
X02939Y-02389
X02944Y-0193
X02968Y-02208
X02975Y-01479
X02979Y-01369
X02983Y-01747
X02984Y-01895
X03002Y-01334
X03002Y-01781
X03006Y-02207
X03015Y-01531
X03041Y-02208
X03053Y-01771
X0307Y-02612
X03076Y-02208
X03083Y-01791
X03083Y-02396
X03084Y-02731
X03106Y-02606
X03113Y-01813
X03114Y-02427
X03145Y-02411
X03169Y-01732
X03174Y-02428
X03182Y-02534
X03189Y-01704
X03247Y-01585
X03308Y-02192
X03316Y-01619
X0332Y-01556
X03323Y-01521
X03339Y-0218
X03365Y-02203
X03383Y-02404
X03384Y-02093
X03389Y-01585
X03393Y-01546
X03408Y-02428
X0341Y-02119
X03432Y-02144
X03453Y-02171
X03459Y-01909
X03459Y-01945
X03482Y-02195
X03501Y-02222
X03504Y-02276
X03517Y-02065
X03549Y-01866
X03554Y-02051
X03564Y-01896
X03572Y-0184
X03592Y-01918
X03592Y-02042
X03625Y-01928
X03626Y-02031
X03658Y-0175
X03658Y-02311
X03665Y-02202
X03684Y-02174
X0369Y-01777
X0369Y-02336
X03721Y-02362
X03722Y-01764
X03752Y-01781
X03753Y-02392
X03757Y-0132
X03784Y-01762
X03784Y-02419
X03816Y-01781
X03823Y-01512
X03847Y-01885
X03892Y-01672
X03893Y-01889
X03905Y-02202
X03918Y-02171
X03926Y-01888
X0393Y-01576
X03966Y-01889
X03968Y-02386
X04003Y-02387
X04004Y-01722
X04031Y-01904
X04039Y-01708
X04053Y-01672
X04065Y-01889
X04099Y-01893
X0411Y-01958
X04131Y-01906
X04134Y-01981
X04159Y-02006
X04172Y-01906
X04183Y-02034
X04191Y-02196
X04225Y-0221
X04239Y-02325
X04256Y-02188
X04288Y-02209
X04298Y-01973
X043197Y-017715
X0432Y-0194
X0432Y-02188
X04346Y-01911
X04362Y-02101
X04362Y-02169
X04368Y-02454
X04373Y-01887
X04374Y-02136
X04469Y-01604
X04507Y-01607
X04555Y-02207
X04586Y-01496
X04589Y-02195
X04594Y-02603
X04594Y-0264
X04595Y-02711
X04596Y-02674
T2
X01032Y-01398
X01248Y-01396
X01316Y-01501
X01316Y-016821
X014277Y-012689
X014304Y-016904
X016394Y-027643
X01661Y-01511
X01714Y-0156
X01719Y-01637
X018585Y-025459
X018753Y-026957
X020062Y-027013
X02071Y-02652
X02357Y-02691
X03233Y-02815
X03384Y-02702
X03596Y-0275
T3
X049Y-027982
T4
X011856Y-019414
X011856Y-021146
T5
X013Y-011
X014Y-011
X015Y-011
X015Y-03
X016Y-011
X016Y-03
X017Y-011
X017Y-03
X018Y-011
X018Y-03
X019Y-011
X019Y-021
X019Y-022
X019Y-023
X019Y-024
X019Y-03
X02Y-011
X02Y-021
X02Y-022
X02Y-023
X02Y-024
X02Y-03
X021Y-011
X021Y-03
X022Y-011
X022Y-013
X022Y-014
X022Y-015
X022Y-016
X022Y-017
X022Y-018
X022Y-03
X023Y-011
X023Y-03
X024Y-011
X024Y-03
X025Y-011
X025Y-03
X026Y-011
X026Y-03
X027Y-011
X027Y-03
X028Y-011
X028Y-03
X029Y-011
X029Y-03
X03Y-011
X03Y-03
X031Y-011
X031Y-03
X032Y-011
X032Y-03
X033Y-011
X033Y-03
X034Y-011
X034Y-03
X035Y-011
X035Y-03
X036Y-011
X036Y-03
X037Y-011
X037Y-03
X038Y-011
X038Y-03
X039Y-011
X039Y-03
X04Y-011
X04Y-03
X041Y-011
X041Y-03
X042Y-011
X042Y-03
X043Y-011
X043Y-03
X044Y-011
X044Y-03
X045Y-011
X045Y-03
X046Y-011
X046Y-03
X04705Y-013
X04705Y-014
X04705Y-015
X04705Y-016
X04705Y-017
X04705Y-018
X04705Y-019
X04705Y-02
X04705Y-021
X04705Y-022
X04705Y-023
X04705Y-024
X04705Y-025
X04705Y-026
X04705Y-027
X04705Y-028
X048Y-012982
X048Y-013982
X048Y-014982
X048Y-015982
X048Y-016982
X048Y-017982
X048Y-018982
X048Y-019982
X048Y-020982
X048Y-021982
X048Y-022982
X048Y-023982
X048Y-024982
X048Y-025982
X048Y-026982
X048Y-027982
X049Y-012982
X049Y-013982
X049Y-014982
X049Y-015982
X049Y-016982
X049Y-017982
X049Y-018982
X049Y-019982
X049Y-020982
X049Y-021982
X049Y-022982
X049Y-023982
X049Y-024982
X049Y-025982
X049Y-026982
T0
M30
