G04 (Genere par PCBnew (20080825c)) le 17/12/2010-15:33:38*
G01*
G70*
G90*
%MOIN*%
G04 Gerber Fmt 3.4, Leading zero omitted, Abs format*
%FSLAX34Y34*%
G04 APERTURE LIST*
%ADD10C,0.015000*%
%ADD11R,0.060000X0.060000*%
%ADD12C,0.060000*%
%ADD13C,0.035400*%
%ADD14C,0.027000*%
%ADD15C,0.036000*%
%ADD16C,0.008000*%
%ADD17C,0.026000*%
%ADD18C,0.010000*%
%ADD19R,0.137800X0.063000*%
%ADD20R,0.181100X0.039400*%
%ADD21R,0.010000X0.060000*%
%ADD22R,0.060000X0.010000*%
%ADD23R,0.027600X0.035400*%
%ADD24R,0.035400X0.027600*%
%ADD25R,0.025000X0.045000*%
%ADD26R,0.059100X0.047200*%
%ADD27R,0.074800X0.043300*%
%ADD28R,0.039400X0.055100*%
%ADD29R,0.039400X0.039400*%
%ADD30R,0.098400X0.039400*%
%ADD31R,0.033500X0.011000*%
%ADD32R,0.039400X0.118100*%
%ADD33R,0.098400X0.019700*%
%ADD34R,0.098400X0.078700*%
%ADD35R,0.094500X0.078700*%
%ADD36R,0.068900X0.027600*%
%ADD37R,0.059100X0.051200*%
%ADD38R,0.059100X0.059100*%
%ADD39R,0.059100X0.031500*%
%ADD40R,0.039400X0.059100*%
%ADD41R,0.061000X0.039400*%
%ADD42R,0.055100X0.031500*%
%ADD43R,0.019700X0.047200*%
%ADD44C,0.016000*%
%ADD45C,0.032000*%
%ADD46C,0.006000*%
%ADD47C,0.012000*%
%ADD48C,0.005000*%
%ADD49C,0.003900*%
%ADD50C,0.001000*%
%ADD51R,0.080000X0.080000*%
%ADD52C,0.080000*%
%ADD53C,0.055400*%
G04 APERTURE END LIST*
G54D10*
X49000Y-31000D02*
X11000Y-31000D01*
X11000Y-10000D02*
X49000Y-10000D01*
X50000Y-11000D02*
X50000Y-30000D01*
X10000Y-11000D02*
X10000Y-30000D01*
X10000Y-30000D02*
X10022Y-30208D01*
X10022Y-30208D02*
X10086Y-30407D01*
X10086Y-30407D02*
X10191Y-30588D01*
X10191Y-30588D02*
X10331Y-30743D01*
X10331Y-30743D02*
X10500Y-30866D01*
X10500Y-30866D02*
X10691Y-30951D01*
X10691Y-30951D02*
X10895Y-30995D01*
X10895Y-30995D02*
X11000Y-31000D01*
X49000Y-31000D02*
X49208Y-30978D01*
X49208Y-30978D02*
X49407Y-30914D01*
X49407Y-30914D02*
X49588Y-30809D01*
X49588Y-30809D02*
X49743Y-30669D01*
X49743Y-30669D02*
X49866Y-30500D01*
X49866Y-30500D02*
X49951Y-30309D01*
X49951Y-30309D02*
X49995Y-30105D01*
X49995Y-30105D02*
X50000Y-30000D01*
X50000Y-11000D02*
X49978Y-10792D01*
X49978Y-10792D02*
X49914Y-10593D01*
X49914Y-10593D02*
X49809Y-10412D01*
X49809Y-10412D02*
X49669Y-10257D01*
X49669Y-10257D02*
X49500Y-10134D01*
X49500Y-10134D02*
X49309Y-10049D01*
X49309Y-10049D02*
X49105Y-10005D01*
X49105Y-10005D02*
X49000Y-10000D01*
X11000Y-10000D02*
X10792Y-10022D01*
X10792Y-10022D02*
X10593Y-10086D01*
X10593Y-10086D02*
X10412Y-10191D01*
X10412Y-10191D02*
X10257Y-10331D01*
X10257Y-10331D02*
X10134Y-10500D01*
X10134Y-10500D02*
X10049Y-10691D01*
X10049Y-10691D02*
X10005Y-10895D01*
X10005Y-10895D02*
X10000Y-11000D01*
G54D51*
X14000Y-11000D03*
G54D52*
X13000Y-11000D03*
G54D51*
X20000Y-24000D03*
G54D52*
X19000Y-24000D03*
X20000Y-23000D03*
X19000Y-23000D03*
X20000Y-22000D03*
X19000Y-22000D03*
X20000Y-21000D03*
X19000Y-21000D03*
G54D51*
X22000Y-18000D03*
G54D52*
X22000Y-17000D03*
X22000Y-16000D03*
X22000Y-15000D03*
X22000Y-14000D03*
X22000Y-13000D03*
G54D51*
X46000Y-30000D03*
G54D52*
X38000Y-30000D03*
X45000Y-30000D03*
X37000Y-30000D03*
X44000Y-30000D03*
X36000Y-30000D03*
X43000Y-30000D03*
X35000Y-30000D03*
X42000Y-30000D03*
X34000Y-30000D03*
X41000Y-30000D03*
X33000Y-30000D03*
X40000Y-30000D03*
X32000Y-30000D03*
X39000Y-30000D03*
X31000Y-30000D03*
X30000Y-30000D03*
X29000Y-30000D03*
X28000Y-30000D03*
X27000Y-30000D03*
X26000Y-30000D03*
X25000Y-30000D03*
X24000Y-30000D03*
X23000Y-30000D03*
X22000Y-30000D03*
X21000Y-30000D03*
X20000Y-30000D03*
X19000Y-30000D03*
X18000Y-30000D03*
X17000Y-30000D03*
X16000Y-30000D03*
X15000Y-30000D03*
G54D51*
X49000Y-27982D03*
G54D52*
X48000Y-27982D03*
X49000Y-26982D03*
X48000Y-26982D03*
X49000Y-25982D03*
X48000Y-25982D03*
X49000Y-24982D03*
X48000Y-24982D03*
X49000Y-23982D03*
X48000Y-23982D03*
X49000Y-22982D03*
X48000Y-22982D03*
X49000Y-21982D03*
X48000Y-21982D03*
X49000Y-20982D03*
X48000Y-20982D03*
X49000Y-19982D03*
X48000Y-19982D03*
X49000Y-18982D03*
X48000Y-18982D03*
X49000Y-17982D03*
X48000Y-17982D03*
X49000Y-16982D03*
X48000Y-16982D03*
X49000Y-15982D03*
X48000Y-15982D03*
X49000Y-14982D03*
X48000Y-14982D03*
X49000Y-13982D03*
X48000Y-13982D03*
X49000Y-12982D03*
X48000Y-12982D03*
G54D51*
X47050Y-28000D03*
G54D52*
X47050Y-20000D03*
X47050Y-27000D03*
X47050Y-19000D03*
X47050Y-26000D03*
X47050Y-18000D03*
X47050Y-25000D03*
X47050Y-17000D03*
X47050Y-24000D03*
X47050Y-16000D03*
X47050Y-23000D03*
X47050Y-15000D03*
X47050Y-22000D03*
X47050Y-14000D03*
X47050Y-21000D03*
X47050Y-13000D03*
G54D51*
X46000Y-11000D03*
G54D52*
X38000Y-11000D03*
X45000Y-11000D03*
X37000Y-11000D03*
X44000Y-11000D03*
X36000Y-11000D03*
X43000Y-11000D03*
X35000Y-11000D03*
X42000Y-11000D03*
X34000Y-11000D03*
X41000Y-11000D03*
X33000Y-11000D03*
X40000Y-11000D03*
X32000Y-11000D03*
X39000Y-11000D03*
X31000Y-11000D03*
X30000Y-11000D03*
X29000Y-11000D03*
X28000Y-11000D03*
X27000Y-11000D03*
X26000Y-11000D03*
X25000Y-11000D03*
X24000Y-11000D03*
X23000Y-11000D03*
X22000Y-11000D03*
X21000Y-11000D03*
X20000Y-11000D03*
X19000Y-11000D03*
X18000Y-11000D03*
X17000Y-11000D03*
X16000Y-11000D03*
X15000Y-11000D03*
G54D53*
X11856Y-19414D03*
X11856Y-21146D03*
M02*
