M48
INCH,LZ
T1C0.015
%
G05
T1
X0104Y-0133
X0114Y-0134
X01255Y-0138
X01265Y-01225
X01285Y-0142
X01315Y-0149
X014Y-0196
X01435Y-0232
X01445Y-02095
X01445Y-02235
X0145Y-01635
X01455Y-01265
X01475Y-0181
X01485Y-0217
X0158Y-01585
X01625Y-0181
X01725Y-0149
X0176Y-0238
X0177Y-0133
X0177Y-01445
X018Y-02115
X0181Y-02285
X0184Y-02765
X0197Y-0278
X02005Y-0249
X0204Y-01335
X021Y-0174
X02135Y-01525
X0221Y-02705
X0221Y-0288
X0223Y-01495
X0225Y-0288
X0226Y-0163
X0226Y-0168
X02265Y-0196
X02275Y-02175
X0229Y-0288
X02295Y-02045
X023Y-0171
X02315Y-0187
X02315Y-0232
X02315Y-0245
X02335Y-0168
X02365Y-01545
X02405Y-01465
X0245Y-0215
X02485Y-0235
X0249Y-02415
X02495Y-02265
X0251Y-0156
X0251Y-019
X02525Y-0199
X0253Y-02365
X0254Y-024
X0255Y-0212
X02555Y-01525
X0256Y-0201
X0257Y-027
X02575Y-02095
X0258Y-01755
X0258Y-018
X0259Y-01515
X02595Y-0206
X02605Y-0187
X02605Y-01995
X0262Y-01445
X02625Y-01525
X02625Y-01965
X0263Y-01845
X0273Y-0172
X02745Y-0145
X0277Y-0172
X02795Y-0209
X02795Y-0223
X028Y-0132
X028Y-02055
X028Y-02125
X028Y-02195
X028Y-02265
X028Y-023
X02805Y-0202
X02805Y-0216
X0281Y-0172
X0281Y-01815
X0281Y-02335
X0281Y-0237
X02825Y-0135
X0283Y-01395
X0283Y-0144
X0283Y-0148
X02835Y-01535
X02845Y-01285
X02845Y-0255
X0287Y-0126
X02885Y-0153
X029Y-0123
X0291Y-01425
X02915Y-02385
X0292Y-0147
X0292Y-0182
X0293Y-0221
X02935Y-0212
X02935Y-0242
X02945Y-02165
X0299Y-0262
X03Y-0123
X0303Y-02215
X0303Y-02255
X0303Y-02295
X0305Y-0234
X0306Y-01455
X0307Y-01675
X0307Y-0171
X03075Y-0175
X0308Y-01425
X03095Y-026
X031Y-0123
X031Y-01455
X03105Y-01775
X0313Y-0135
X03135Y-01795
X03135Y-01945
X03135Y-02055
X03135Y-0216
X03135Y-02215
X03145Y-0144
X03145Y-01875
X03145Y-02015
X03145Y-02115
X03145Y-02605
X0315Y-0155
X03155Y-01315
X03155Y-01915
X03155Y-0198
X03165Y-01815
X03165Y-02295
X03165Y-02335
X03175Y-02145
X0318Y-0222
X03185Y-01495
X03185Y-02005
X03185Y-02085
X0319Y-01285
X03195Y-01835
X03195Y-0187
X032Y-0123
X03215Y-01455
X03225Y-0294
X03245Y-0291
X0327Y-02935
X0331Y-02925
X0332Y-0225
X03325Y-01595
X03345Y-0291
X0336Y-0177
X0336Y-01835
X0337Y-01525
X0338Y-01805
X03385Y-0148
X03385Y-01865
X0339Y-02025
X03395Y-01935
X03415Y-01995
X0343Y-0195
X03445Y-02105
X0345Y-01605
X03475Y-02045
X03475Y-0208
X0348Y-0201
X0348Y-02125
X03595Y-02405
X037Y-0287
X03725Y-0284
X0374Y-01595
X0374Y-02115
X0374Y-024
X0375Y-0244
X03755Y-01865
X03755Y-01995
X03765Y-02475
X0377Y-01535
X03775Y-02135
X0378Y-0251
X03795Y-01595
X03795Y-02545
X038Y-02
X03835Y-028
X0384Y-02675
X0385Y-01535
X03875Y-02505
X03925Y-02505
X0393Y-0209
X0393Y-02285
X0394Y-01855
X0394Y-01895
X03955Y-02315
X0396Y-0212
X03975Y-02765
X03985Y-02345
X03995Y-0215
X0401Y-0222
X04015Y-02375
X04025Y-02185
X0408Y-0211
X04085Y-024
X041Y-02205
X041Y-02245
X0411Y-02595
X04115Y-0213
X04115Y-02735
X04125Y-0177
X04125Y-0181
X04125Y-0185
X04125Y-0189
X0421Y-0202
X0423Y-01675
X0423Y-01735
X0423Y-01775
X0423Y-0182
X0423Y-0186
X04235Y-02055
X04245Y-02785
X0425Y-0231
X0425Y-02345
X0425Y-0238
X04345Y-01865
X04345Y-019
X04365Y-01705
X0437Y-0212
X0437Y-0225
X04375Y-0151
X043782Y-016618
X0439Y-0215
X0439Y-02595
X043922Y-016178
X04395Y-02215
X04395Y-0228
X0442Y-0264
X04425Y-02185
X0452Y-02715
X04525Y-02565
X04555Y-0164
X04565Y-0252
X0457Y-0171
X04575Y-01675
X04585Y-0161
X046Y-0188
X046Y-0208
X04605Y-0197
X0461Y-02135
X0462Y-017
X04625Y-02045
X0195Y-02625
X031Y-0264
X0343Y-0265
X049Y-027982
X0121Y-019247
X0121Y-021353
X01065Y-02525
X01065Y-02625
X015Y-011
X015Y-03
X016Y-011
X016Y-03
X017Y-011
X017Y-03
X018Y-011
X018Y-03
X019Y-011
X019Y-015
X019Y-016
X019Y-017
X019Y-018
X019Y-02
X019Y-021
X019Y-022
X019Y-023
X019Y-03
X02Y-011
X02Y-015
X02Y-016
X02Y-017
X02Y-018
X02Y-02
X02Y-021
X02Y-022
X02Y-023
X02Y-03
X021Y-011
X021Y-03
X022Y-011
X022Y-018
X022Y-019
X022Y-02
X022Y-021
X022Y-022
X022Y-023
X022Y-03
X023Y-011
X023Y-03
X024Y-011
X024Y-03
X025Y-011
X025Y-03
X026Y-011
X026Y-03
X027Y-011
X027Y-03
X028Y-011
X028Y-03
X029Y-011
X029Y-03
X03Y-011
X03Y-03
X031Y-011
X031Y-03
X032Y-011
X032Y-03
X033Y-011
X033Y-03
X034Y-011
X034Y-03
X035Y-011
X035Y-03
X036Y-011
X036Y-03
X037Y-011
X037Y-03
X038Y-011
X038Y-03
X039Y-011
X039Y-03
X04Y-011
X04Y-03
X041Y-011
X041Y-03
X042Y-011
X042Y-03
X043Y-011
X043Y-03
X044Y-011
X044Y-03
X045Y-011
X045Y-03
X046Y-011
X046Y-03
X04705Y-013
X04705Y-014
X04705Y-015
X04705Y-016
X04705Y-017
X04705Y-018
X04705Y-019
X04705Y-02
X04705Y-021
X04705Y-022
X04705Y-023
X04705Y-024
X04705Y-025
X04705Y-026
X04705Y-027
X04705Y-028
X048Y-012982
X048Y-013982
X048Y-014982
X048Y-015982
X048Y-016982
X048Y-017982
X048Y-018982
X048Y-019982
X048Y-020982
X048Y-021982
X048Y-022982
X048Y-023982
X048Y-024982
X048Y-025982
X048Y-026982
X048Y-027982
X049Y-012982
X049Y-013982
X049Y-014982
X049Y-015982
X049Y-016982
X049Y-017982
X049Y-018982
X049Y-019982
X049Y-020982
X049Y-021982
X049Y-022982
X049Y-023982
X049Y-024982
X049Y-025982
X049Y-026982
X012031Y-025867
X013213Y-0276
X014394Y-02575
T0
M30
